# Blender 5.0.1
# www.blender.org
mtllib Wire_Head_Black(Pin14-GND_5V).mtl
o Wire_Head_Black(Pin14-GND_5V)
v 0.078534 0.153250 0.249517
v 0.080655 0.152371 0.249517
v 0.078534 0.153250 0.240313
v 0.080655 0.152371 0.240313
v 0.080655 0.152455 0.240115
v 0.082775 0.153250 0.240313
v 0.082775 0.153250 0.249517
v 0.083654 0.155370 0.249517
v 0.083654 0.155370 0.240313
v 0.083570 0.155370 0.240115
v 0.082775 0.157491 0.240313
v 0.082716 0.157431 0.240115
v 0.082775 0.157491 0.249517
v 0.080655 0.158369 0.249517
v 0.080655 0.158369 0.240313
v 0.080655 0.158285 0.240115
v 0.078534 0.157491 0.240313
v 0.078594 0.157431 0.240115
v 0.078534 0.157491 0.249517
v 0.077656 0.155370 0.249517
v 0.077656 0.155370 0.240313
v 0.077740 0.155370 0.240115
v 0.078594 0.153309 0.240115
v 0.078736 0.153452 0.240033
v 0.078924 0.153639 0.240033
v 0.079067 0.153782 0.240115
v 0.080655 0.152923 0.240033
v 0.080655 0.153125 0.240115
v 0.080655 0.152657 0.240033
v 0.082574 0.153452 0.240033
v 0.082716 0.153309 0.240115
v 0.082386 0.153639 0.240033
v 0.082243 0.153782 0.240115
v 0.083102 0.155370 0.240033
v 0.082900 0.155370 0.240115
v 0.083368 0.155370 0.240033
v 0.082574 0.157289 0.240033
v 0.082386 0.157101 0.240033
v 0.082243 0.156958 0.240115
v 0.080655 0.157817 0.240033
v 0.080655 0.157615 0.240115
v 0.080655 0.158083 0.240033
v 0.078736 0.157289 0.240033
v 0.078924 0.157101 0.240033
v 0.079067 0.156958 0.240115
v 0.078208 0.155370 0.240033
v 0.078410 0.155370 0.240115
v 0.077942 0.155370 0.240033
v 0.078493 0.155370 0.240313
v 0.079126 0.153841 0.240313
v 0.080655 0.153208 0.240313
v 0.082184 0.153841 0.240313
v 0.082817 0.155370 0.240313
v 0.082184 0.156899 0.240313
v 0.080655 0.157532 0.240313
v 0.079126 0.156899 0.240313
v 0.033559 -0.035974 0.249517
v 0.035679 -0.036852 0.249517
v 0.033559 -0.035974 0.240313
v 0.035679 -0.036852 0.240313
v 0.035679 -0.036768 0.240115
v 0.037800 -0.035974 0.240313
v 0.037800 -0.035974 0.249517
v 0.038678 -0.033853 0.249517
v 0.038678 -0.033853 0.240313
v 0.038595 -0.033853 0.240115
v 0.037800 -0.031733 0.240313
v 0.037741 -0.031792 0.240115
v 0.037800 -0.031733 0.249517
v 0.035679 -0.030854 0.249517
v 0.035679 -0.030854 0.240313
v 0.035679 -0.030938 0.240115
v 0.033559 -0.031733 0.240313
v 0.033618 -0.031792 0.240115
v 0.033559 -0.031733 0.249517
v 0.032681 -0.033853 0.249517
v 0.032681 -0.033853 0.240313
v 0.032764 -0.033853 0.240115
v 0.033618 -0.035915 0.240115
v 0.033761 -0.035772 0.240033
v 0.033949 -0.035584 0.240033
v 0.034092 -0.035441 0.240115
v 0.035679 -0.036301 0.240033
v 0.035679 -0.036099 0.240115
v 0.035679 -0.036566 0.240033
v 0.037598 -0.035772 0.240033
v 0.037741 -0.035915 0.240115
v 0.037410 -0.035584 0.240033
v 0.037267 -0.035441 0.240115
v 0.038127 -0.033853 0.240033
v 0.037925 -0.033853 0.240115
v 0.038393 -0.033853 0.240033
v 0.037598 -0.031935 0.240033
v 0.037410 -0.032123 0.240033
v 0.037267 -0.032266 0.240115
v 0.035679 -0.031406 0.240033
v 0.035679 -0.031608 0.240115
v 0.035679 -0.031140 0.240033
v 0.033761 -0.031935 0.240033
v 0.033949 -0.032123 0.240033
v 0.034092 -0.032266 0.240115
v 0.033232 -0.033853 0.240033
v 0.033434 -0.033853 0.240115
v 0.032966 -0.033853 0.240033
v 0.033518 -0.033853 0.240313
v 0.034151 -0.035382 0.240313
v 0.035679 -0.036015 0.240313
v 0.037208 -0.035382 0.240313
v 0.037841 -0.033853 0.240313
v 0.037208 -0.032325 0.240313
v 0.035679 -0.031692 0.240313
v 0.034151 -0.032325 0.240313
v 0.032288 -0.032483 0.233046
v 0.032627 -0.032483 0.230305
v 0.032288 -0.035224 0.230305
v 0.031948 -0.035224 0.233046
v 0.079284 0.153991 0.238038
v 0.082025 0.153991 0.237996
v 0.082025 0.156749 0.237996
v 0.079284 0.156749 0.238038
v 0.074164 0.153929 0.233108
v 0.074206 0.153929 0.230243
v 0.074206 0.156811 0.230243
v 0.074164 0.156811 0.233108
v 0.035387 0.153938 0.233116
v 0.035387 0.153938 0.230234
v 0.035345 0.156802 0.230234
v 0.035345 0.156802 0.233116
v 0.030328 0.148898 0.233116
v 0.030328 0.148898 0.230234
v 0.027464 0.148940 0.230234
v 0.027464 0.148940 0.233116
v 0.030328 -0.027381 0.233116
v 0.030328 -0.027381 0.230234
v 0.027464 -0.027424 0.230234
v 0.027464 -0.027424 0.233116
v 0.034309 -0.032474 0.238038
v 0.037050 -0.032474 0.237996
v 0.037050 -0.035233 0.237996
v 0.034309 -0.035233 0.238038
v 0.032521 -0.031969 0.231675
v 0.032521 -0.033853 0.229791
v 0.032054 -0.035738 0.231675
v 0.032054 -0.033853 0.233560
v 0.080655 0.153472 0.238040
v 0.082541 0.155370 0.238011
v 0.080655 0.157268 0.238040
v 0.078769 0.155370 0.238070
v 0.074185 0.153389 0.231675
v 0.074214 0.155370 0.229706
v 0.074185 0.157351 0.231675
v 0.074156 0.155370 0.233645
v 0.035395 0.153401 0.231675
v 0.035366 0.155370 0.229694
v 0.035337 0.157339 0.231675
v 0.035366 0.155370 0.233657
v 0.030865 0.148890 0.231675
v 0.028896 0.148919 0.229694
v 0.026927 0.148948 0.231675
v 0.028896 0.148919 0.233657
v 0.030865 -0.027373 0.231675
v 0.028896 -0.027402 0.229694
v 0.026927 -0.027432 0.231675
v 0.028896 -0.027402 0.233657
v 0.035679 -0.031955 0.238040
v 0.037565 -0.033853 0.238011
v 0.035679 -0.035751 0.238040
v 0.033794 -0.033853 0.238070
v 0.032274 0.153251 0.231675
v 0.031300 0.152970 0.231675
v 0.031017 0.152003 0.231675
v 0.032153 0.153774 0.233116
v 0.030921 0.153350 0.233116
v 0.030494 0.152125 0.233116
v 0.031831 0.155170 0.233657
v 0.029910 0.154365 0.233657
v 0.029099 0.152451 0.233657
v 0.031510 0.156566 0.233116
v 0.028899 0.155380 0.233116
v 0.027704 0.152776 0.233116
v 0.031389 0.157089 0.231675
v 0.028520 0.155761 0.231675
v 0.027181 0.152898 0.231675
v 0.031510 0.156566 0.230234
v 0.028899 0.155380 0.230234
v 0.027704 0.152776 0.230234
v 0.031831 0.155170 0.229694
v 0.029910 0.154365 0.229694
v 0.029099 0.152451 0.229694
v 0.030494 0.152125 0.230234
v 0.030921 0.153350 0.230234
v 0.032153 0.153774 0.230234
v 0.080446 0.153451 0.234541
v 0.079626 0.153430 0.232653
v 0.077702 0.153409 0.231867
v 0.079094 0.153975 0.234848
v 0.078639 0.153960 0.233648
v 0.077387 0.153944 0.233249
v 0.078592 0.155370 0.234986
v 0.078280 0.155370 0.234033
v 0.077276 0.155370 0.233769
v 0.079094 0.156765 0.234848
v 0.078639 0.156780 0.233648
v 0.077387 0.156796 0.233249
v 0.080446 0.157289 0.234541
v 0.079626 0.157310 0.232653
v 0.077702 0.157331 0.231867
v 0.081790 0.156765 0.234200
v 0.080596 0.156780 0.231641
v 0.078006 0.156796 0.230483
v 0.082300 0.155370 0.234095
v 0.080972 0.155370 0.231273
v 0.078128 0.155370 0.229966
v 0.078006 0.153944 0.230483
v 0.080596 0.153960 0.231641
v 0.081790 0.153975 0.234200
v 0.030887 -0.031627 0.231501
v 0.030730 -0.031418 0.231516
v 0.030774 -0.030225 0.231605
v 0.030689 -0.032049 0.230091
v 0.030259 -0.031534 0.230094
v 0.030252 -0.030164 0.230179
v 0.029981 -0.033223 0.229524
v 0.028959 -0.032023 0.229530
v 0.028836 -0.030161 0.229639
v 0.029213 -0.034412 0.230003
v 0.027644 -0.032570 0.230022
v 0.027413 -0.030210 0.230167
v 0.028857 -0.034877 0.231380
v 0.027135 -0.032841 0.231417
v 0.026871 -0.030288 0.231589
v 0.029055 -0.034454 0.232790
v 0.027606 -0.032724 0.232839
v 0.027393 -0.030348 0.233015
v 0.029763 -0.033281 0.233357
v 0.028906 -0.032236 0.233403
v 0.028809 -0.030351 0.233555
v 0.030232 -0.030302 0.233027
v 0.030221 -0.031689 0.232911
v 0.030531 -0.032091 0.232878
v 0.035757 -0.032034 0.235129
v 0.035649 -0.032164 0.233270
v 0.034790 -0.032190 0.232239
v 0.035479 -0.032750 0.231071
v 0.036912 -0.032717 0.232770
v 0.037127 -0.032559 0.235107
v 0.035677 -0.034145 0.230655
v 0.037377 -0.034108 0.232662
v 0.037633 -0.033938 0.235181
v 0.035323 -0.035507 0.231113
v 0.036876 -0.035473 0.232922
v 0.037108 -0.035315 0.235242
v 0.034575 -0.035981 0.232297
v 0.035599 -0.035954 0.233479
v 0.035731 -0.035826 0.235314
v 0.033877 -0.035420 0.233459
v 0.034327 -0.035402 0.233957
v 0.034362 -0.035303 0.235301
v 0.033688 -0.034026 0.233881
v 0.033871 -0.034011 0.234086
v 0.033855 -0.033922 0.235262
v 0.034033 -0.032664 0.233416
v 0.034364 -0.032647 0.233805
v 0.034381 -0.032547 0.235166
vn -0.5003 -0.5003 -0.7067
vn -0.0000 -0.7075 -0.7067
vn -0.0000 -1.0000 -0.0088
vn -0.7071 -0.7071 -0.0088
vn 0.5003 -0.5003 -0.7067
vn 0.7071 -0.7071 -0.0088
vn 0.7071 -0.7071 -0.0000
vn -0.0000 -1.0000 -0.0000
vn 0.5003 0.5003 -0.7067
vn 0.7071 0.7071 -0.0088
vn 1.0000 -0.0000 -0.0088
vn 0.7075 -0.0000 -0.7067
vn -0.5003 0.5003 -0.7067
vn -0.7071 0.7071 -0.0088
vn -0.0001 1.0000 -0.0088
vn -0.0000 0.7075 -0.7067
vn 0.7071 0.7071 -0.0000
vn 1.0000 -0.0000 -0.0000
vn 0.1638 -0.0000 -0.9865
vn 0.1158 0.1158 -0.9865
vn -0.1281 -0.1281 -0.9835
vn -0.1811 -0.0000 -0.9835
vn 0.1281 -0.1280 -0.9835
vn 0.1811 -0.0000 -0.9835
vn -1.0000 -0.0000 -0.0000
vn -0.7071 0.7071 -0.0000
vn -1.0000 -0.0000 -0.0088
vn -0.0000 1.0000 -0.0000
vn 0.1280 0.1281 -0.9835
vn -0.0000 0.1811 -0.9835
vn -0.7075 -0.0000 -0.7067
vn -0.7071 -0.7071 -0.0000
vn -0.0000 0.6909 -0.7230
vn -0.0000 0.1638 -0.9865
vn 0.4885 0.4885 -0.7230
vn -0.0000 -0.1811 -0.9835
vn -0.6982 -0.6974 -0.1618
vn 0.0013 -0.9877 -0.1562
vn -0.1281 0.1280 -0.9835
vn -0.6909 -0.0000 -0.7230
vn -0.1638 -0.0000 -0.9865
vn -0.1158 0.1158 -0.9865
vn -0.4885 0.4885 -0.7230
vn -0.0000 -0.6909 -0.7230
vn -0.0000 -0.1638 -0.9865
vn -0.1158 -0.1158 -0.9865
vn -0.4885 -0.4885 -0.7230
vn 0.6909 -0.0000 -0.7230
vn 0.1158 -0.1158 -0.9865
vn 0.4885 -0.4885 -0.7230
vn -0.9868 -0.0000 -0.1619
vn 0.7000 -0.6962 -0.1591
vn 0.9874 -0.0000 -0.1582
vn 0.7000 0.6962 -0.1591
vn 0.0013 0.9877 -0.1562
vn -0.6982 0.6974 -0.1618
vn -0.7070 -0.7071 -0.0088
vn -0.0000 1.0000 -0.0088
vn 0.1637 -0.0000 -0.9865
vn 0.0013 -0.9877 -0.1563
vn -0.1281 0.1281 -0.9835
vn 0.0013 0.9877 -0.1563
vn -0.6983 0.6973 -0.1618
vn 0.0042 -0.7059 -0.7083
vn 0.0005 -1.0000 -0.0013
vn 0.0035 -1.0000 -0.0001
vn 0.0028 -0.7066 -0.7077
vn 0.0042 0.7060 -0.7082
vn 0.0061 0.0001 -1.0000
vn 0.0001 0.0015 -1.0000
vn -0.0039 0.7082 -0.7060
vn 0.0004 -1.0000 -0.0013
vn -0.0021 -0.7075 0.7067
vn 0.0028 -0.7067 0.7075
vn -0.0021 0.7076 0.7066
vn 0.0004 1.0000 -0.0013
vn -0.0059 1.0000 -0.0001
vn -0.0039 0.7084 0.7058
vn 0.0028 -0.7065 -0.7077
vn -0.0000 0.0014 -1.0000
vn -0.0029 -0.0000 1.0000
vn -0.0000 0.0014 1.0000
vn 0.0027 -0.7066 0.7076
vn -0.0029 0.0002 1.0000
vn -0.0039 0.7083 0.7059
vn 0.0001 0.0015 1.0000
vn 0.7091 -0.0007 -0.7051
vn 1.0000 -0.0009 -0.0000
vn 1.0000 -0.0005 0.0001
vn 0.7093 -0.0001 -0.7049
vn -0.7095 0.0009 -0.7047
vn -0.0004 -0.0000 -1.0000
vn -0.0001 0.0003 -1.0000
vn -0.7093 0.0004 -0.7049
vn 0.7091 -0.0007 0.7051
vn 0.7092 -0.0007 0.7050
vn 1.0000 -0.0005 0.0002
vn -0.7096 0.0009 0.7047
vn -1.0000 0.0014 -0.0000
vn -1.0000 0.0003 0.0001
vn -0.7093 -0.0001 0.7049
vn -0.0003 -0.0000 -1.0000
vn 0.7091 -0.0006 -0.7051
vn -0.0000 0.0003 -1.0000
vn 0.7091 -0.0006 0.7051
vn -0.0003 -0.0000 1.0000
vn -0.0000 -0.0005 1.0000
vn -0.7096 0.0009 -0.7047
vn -0.7093 0.0005 -0.7049
vn -1.0000 0.0003 -0.0000
vn -0.0004 -0.0000 1.0000
vn -0.7095 0.0009 0.7047
vn -0.0001 -0.0006 1.0000
vn -0.0340 0.0144 -0.9993
vn 0.6820 -0.0908 -0.7257
vn -0.7095 0.0010 -0.7047
vn -0.7118 0.1587 -0.6843
vn -0.0341 0.0144 -0.9993
vn -0.9749 0.2228 -0.0000
vn -0.7118 0.1587 -0.6842
vn -0.7095 0.0010 0.7047
vn -0.7118 0.1586 0.6842
vn -0.9749 0.2229 -0.0000
vn -0.0341 0.0144 0.9993
vn -0.7118 0.1587 0.6843
vn 0.6820 -0.0908 0.7257
vn -0.0340 0.0144 0.9993
vn 0.9928 -0.1195 0.0001
vn 1.0000 -0.0009 -0.0001
vn 0.9928 -0.1195 -0.0001
vn 0.9928 -0.1196 -0.0000
vn 0.7047 -0.7095 -0.0000
vn 0.4408 -0.4436 0.7803
vn 0.1181 -0.9930 -0.0000
vn 0.0897 -0.6824 0.7254
vn 0.0897 -0.6824 0.7255
vn 0.0036 -1.0000 -0.0001
vn 0.4408 -0.4435 0.7804
vn -0.0506 0.0507 0.9974
vn 0.4407 -0.4436 0.7804
vn 0.0898 -0.6824 0.7255
vn -0.0143 0.0338 0.9993
vn -0.0143 0.0339 0.9993
vn 0.0028 -0.7067 0.7076
vn -0.0341 0.0145 0.9993
vn -0.0507 0.0508 0.9974
vn -0.5169 0.5191 0.6807
vn -0.0506 0.0508 0.9974
vn -0.1571 0.7120 0.6843
vn -0.1571 0.7121 0.6843
vn -0.0040 0.7083 0.7059
vn -0.9749 0.2228 0.0001
vn -0.7118 0.1587 0.6842
vn -0.7057 0.7085 -0.0000
vn -0.2207 0.9753 -0.0000
vn -0.2207 0.9754 -0.0000
vn -0.0040 0.7084 0.7058
vn -0.0059 1.0000 -0.0000
vn -0.7057 0.7086 -0.0000
vn -0.5169 0.5191 -0.6807
vn -0.5170 0.5191 -0.6807
vn -0.1571 0.7121 -0.6843
vn -0.2206 0.9754 -0.0000
vn -0.0059 1.0000 -0.0002
vn -0.0039 0.7083 -0.7059
vn -0.0341 0.0145 -0.9993
vn -0.0507 0.0507 -0.9974
vn -0.0506 0.0508 -0.9974
vn -0.1571 0.7120 -0.6843
vn -0.0143 0.0339 -0.9993
vn -0.0000 0.0015 -1.0000
vn -0.0340 0.0145 -0.9993
vn 0.4408 -0.4435 -0.7804
vn 0.4408 -0.4436 -0.7804
vn -0.0142 0.0339 -0.9993
vn 0.0897 -0.6824 -0.7255
vn 0.9928 -0.1195 -0.0000
vn 0.6821 -0.0908 -0.7256
vn 0.4408 -0.4436 -0.7803
vn 0.4409 -0.4435 -0.7803
vn 0.0898 -0.6824 -0.7255
vn 0.1181 -0.9930 -0.0001
vn 0.0027 -0.7066 -0.7076
vn 0.2198 -0.0000 -0.9756
vn 0.1585 -0.6849 -0.7112
vn 0.0043 0.7060 -0.7082
vn 0.1585 0.6849 -0.7112
vn 0.2198 -0.0000 -0.9755
vn 0.0043 0.7061 -0.7081
vn 0.0004 1.0000 -0.0014
vn 0.0207 0.9993 -0.0310
vn -0.0785 0.7239 0.6854
vn 0.0207 0.9993 -0.0309
vn -0.0022 0.7076 0.7066
vn -0.0029 0.0001 1.0000
vn -0.1056 -0.0000 0.9944
vn -0.0785 0.7239 0.6855
vn -0.0022 -0.7075 0.7067
vn -0.0785 -0.7239 0.6855
vn 0.0207 -0.9993 -0.0309
vn -0.0785 -0.7239 0.6854
vn 0.0004 -1.0000 -0.0014
vn 0.0043 -0.7059 -0.7083
vn 0.0207 -0.9993 -0.0310
vn -0.0786 -0.7239 0.6854
vn 0.0566 -0.9974 -0.0437
vn -0.4234 -0.7787 0.4629
vn 0.0565 -0.9974 -0.0437
vn 0.0362 -0.9993 -0.0076
vn -0.6795 -0.7263 0.1040
vn -0.6794 -0.7263 0.1041
vn 0.0106 -0.9991 -0.0402
vn -0.7037 -0.7102 -0.0207
vn -0.4235 -0.7787 0.4629
vn -0.6778 -0.0000 0.7353
vn -0.6777 -0.0000 0.7353
vn -0.9908 -0.0000 0.1352
vn -0.6795 -0.7263 0.1039
vn -0.9999 -0.0001 -0.0130
vn -0.0786 0.7239 0.6854
vn -0.4234 0.7787 0.4629
vn -0.6795 0.7263 0.1039
vn -0.9999 -0.0000 -0.0130
vn -0.7037 0.7102 -0.0208
vn 0.0565 0.9974 -0.0437
vn -0.4235 0.7787 0.4629
vn -0.6795 0.7263 0.1040
vn 0.0362 0.9993 -0.0076
vn -0.7037 0.7102 -0.0207
vn 0.0106 0.9991 -0.0402
vn 0.0208 0.9993 -0.0310
vn 0.5155 0.6810 -0.5201
vn 0.0363 0.9993 -0.0076
vn 0.7124 0.6840 -0.1570
vn 0.7143 0.6967 -0.0671
vn 0.7014 -0.0000 -0.7128
vn 0.7014 -0.0000 -0.7127
vn 0.7124 0.6839 -0.1570
vn 0.9747 -0.0000 -0.2234
vn 0.7125 0.6839 -0.1570
vn 0.7143 0.6966 -0.0671
vn 0.9969 0.0001 -0.0784
vn 0.5154 -0.6810 -0.5201
vn 0.5155 -0.6810 -0.5201
vn 0.7125 -0.6839 -0.1570
vn 0.9969 -0.0001 -0.0784
vn 0.7143 -0.6966 -0.0671
vn 0.0208 -0.9993 -0.0310
vn 0.7124 -0.6840 -0.1570
vn 0.0363 -0.9993 -0.0076
vn 0.7143 -0.6967 -0.0671
vn -0.0202 -0.0557 0.9982
vn 0.6958 -0.0509 0.7165
vn -0.7232 -0.0554 0.6885
vn -0.0203 -0.0557 0.9982
vn -0.9994 -0.0350 -0.0060
vn -0.7232 -0.0553 0.6884
vn -0.7203 0.0038 -0.6936
vn -0.9994 -0.0350 -0.0061
vn -0.0179 0.0314 -0.9993
vn 0.7046 0.0120 -0.7095
vn 0.9996 -0.0287 0.0081
vn 0.7092 -0.0008 0.7050
vn 0.6958 -0.0510 0.7164
vn 0.9996 -0.0287 0.0082
vn 0.9899 0.1410 0.0119
vn 0.6230 0.1721 -0.7631
vn 0.6230 0.1720 -0.7631
vn 0.3359 0.9418 0.0171
vn 0.2968 0.5927 -0.7488
vn 0.3358 0.9418 0.0171
vn 0.1543 0.9880 -0.0093
vn 0.2414 0.6547 -0.7163
vn 0.7046 0.0121 -0.7095
vn -0.0551 0.0053 -0.9985
vn -0.0550 0.0054 -0.9985
vn 0.6230 0.1721 -0.7630
vn 0.2969 0.5926 -0.7488
vn 0.0295 -0.0556 -0.9980
vn 0.2968 0.5926 -0.7488
vn 0.1815 -0.0469 -0.9823
vn -0.7203 0.0038 -0.6937
vn -0.0180 0.0314 -0.9993
vn -0.6679 -0.2543 -0.6994
vn -0.6679 -0.2544 -0.6994
vn 0.0295 -0.0557 -0.9980
vn -0.3181 -0.6309 -0.7076
vn -0.3181 -0.6310 -0.7076
vn 0.1815 -0.0470 -0.9823
vn 0.0015 -0.7081 -0.7061
vn -0.7203 0.0037 -0.6936
vn -0.9205 -0.3891 -0.0366
vn -0.5009 -0.8643 -0.0463
vn -0.5009 -0.8643 -0.0464
vn 0.0014 -0.7081 -0.7061
vn -0.1773 -0.9831 -0.0451
vn -0.7232 -0.0554 0.6884
vn -0.6905 -0.3172 0.6501
vn -0.4059 -0.6480 0.6445
vn -0.1774 -0.9831 -0.0450
vn -0.2341 -0.7176 0.6560
vn -0.0700 -0.1047 0.9920
vn -0.6905 -0.3171 0.6501
vn -0.1003 -0.0663 0.9927
vn -0.2340 -0.7175 0.6560
vn -0.1440 -0.0117 0.9895
vn -0.0699 -0.1047 0.9920
vn 0.6243 0.0532 0.7794
vn 0.6243 0.0532 0.7793
vn -0.1003 -0.0662 0.9927
vn 0.1841 0.5988 0.7794
vn -0.1003 -0.0662 0.9928
vn -0.1440 -0.0116 0.9895
vn 0.0060 0.7057 0.7085
vn 0.6244 0.0532 0.7793
vn 0.9899 0.1411 0.0119
vn 0.1841 0.5989 0.7794
vn 0.3358 0.9418 0.0172
vn 0.0060 0.7058 0.7084
vn 0.1543 0.9880 -0.0092
vn 0.0017 0.9981 -0.0620
vn 0.7078 0.7047 -0.0502
vn 0.7238 0.6881 -0.0510
vn 0.0213 0.9986 -0.0474
vn 0.7078 0.7046 -0.0502
vn 0.9993 0.0009 -0.0365
vn 0.9995 -0.0059 -0.0324
vn 0.7238 0.6881 -0.0509
vn 0.7095 -0.7040 -0.0312
vn 0.7210 -0.6929 0.0086
vn 0.9995 -0.0060 -0.0324
vn 0.7094 -0.7041 -0.0312
vn 0.0001 -0.9994 -0.0340
vn 0.0195 -0.9990 0.0404
vn -0.0000 -0.9994 -0.0340
vn -0.7097 -0.7028 -0.0486
vn -0.7039 -0.7098 0.0255
vn 0.0194 -0.9990 0.0404
vn -0.9981 0.0039 -0.0620
vn -0.9999 0.0085 -0.0143
vn -0.7040 -0.7098 0.0254
vn -0.9981 0.0040 -0.0620
vn -0.7044 0.7065 -0.0687
vn -0.6955 0.7175 -0.0383
vn -0.9999 0.0086 -0.0143
vn -0.7043 0.7065 -0.0686
vn 0.6912 0.6502 -0.3155
vn 0.0745 0.9928 -0.0938
vn 0.0744 0.9928 -0.0939
vn 0.4083 0.6447 -0.6462
vn 0.1082 0.9923 -0.0598
vn 0.1082 0.9923 -0.0599
vn 0.4084 0.6447 -0.6462
vn 0.9198 -0.0367 -0.3908
vn 0.6912 0.6501 -0.3156
vn 0.9197 -0.0367 -0.3908
vn 0.5009 -0.0466 -0.8643
vn 0.5008 -0.0466 -0.8643
vn 0.7210 -0.6929 0.0085
vn 0.6687 -0.6992 -0.2527
vn 0.3200 -0.7083 -0.6292
vn 0.0600 -0.9981 0.0157
vn 0.6688 -0.6992 -0.2527
vn 0.0600 -0.9981 0.0156
vn -0.0224 -0.9985 -0.0497
vn 0.3201 -0.7083 -0.6291
vn -0.0225 -0.9985 -0.0498
vn -0.1773 -0.9831 -0.0450
vn -0.6143 -0.7638 0.1983
vn 0.0599 -0.9981 0.0157
vn -0.2826 -0.7467 0.6021
vn -0.0225 -0.9985 -0.0497
vn -0.2340 -0.7176 0.6560
vn -0.7039 -0.7098 0.0254
vn -0.9837 0.0132 0.1794
vn -0.9837 0.0131 0.1794
vn -0.3173 0.0165 0.9482
vn -0.2826 -0.7467 0.6022
vn -0.3173 0.0164 0.9482
vn -0.6169 0.7829 0.0804
vn -0.1692 0.7754 0.6084
vn -0.3172 0.0165 0.9482
vn -0.1693 0.7754 0.6084
vn 0.0744 0.9928 -0.0938
vn -0.6168 0.7830 0.0805
vn -0.6169 0.7830 0.0805
vn 0.1081 0.9923 -0.0598
vn -0.7037 -0.7102 -0.0208
vn 0.9969 -0.0000 -0.0784
vn 0.0106 0.9991 -0.0403
vn -0.0000 -0.9994 -0.0341
vn 0.7095 -0.7041 -0.0312
vt 0.636322 0.771411
vt 0.587470 0.804750
vt 0.582466 0.801554
vt 0.635177 0.765465
vt 0.576221 0.861411
vt 0.570569 0.862499
vt 0.433500 0.501817
vt 0.495149 0.501817
vt 0.495149 0.744281
vt 0.433500 0.744281
vt 0.667721 0.922223
vt 0.668877 0.928042
vt 0.605422 0.915050
vt 0.608737 0.910132
vt 0.727696 0.832155
vt 0.733433 0.831018
vt 0.721608 0.892773
vt 0.716620 0.889535
vt 0.310201 0.501817
vt 0.371850 0.501817
vt 0.371850 0.744281
vt 0.310201 0.744281
vt 0.687564 0.793554
vt 0.638896 0.784065
vt 0.637511 0.777194
vt 0.691445 0.787669
vt 0.581871 0.860294
vt 0.612010 0.905265
vt 0.125252 0.501817
vt 0.186902 0.501817
vt 0.186902 0.744281
vt 0.125252 0.744281
vt 0.248551 0.501817
vt 0.248551 0.744281
vt 0.666609 0.916401
vt 0.711799 0.886320
vt 0.694675 0.782803
vt 0.697976 0.777719
vt 0.063603 0.501817
vt 0.063603 0.744281
vt 0.602608 0.814790
vt 0.598019 0.811727
vt 0.639988 0.789629
vt 0.592254 0.807905
vt 0.641149 0.795086
vt 0.607213 0.817814
vt 0.722022 0.833305
vt 0.619061 0.894562
vt 0.615915 0.899401
vt 0.588618 0.858968
vt 0.594043 0.857906
vt 0.701466 0.879486
vt 0.706041 0.882519
vt 0.665296 0.909466
vt 0.664231 0.903895
vt 0.684425 0.798269
vt 0.715204 0.834694
vt 0.709684 0.835861
vt 0.681227 0.803114
vt 0.599435 0.856891
vt 0.622123 0.889732
vt 0.663198 0.898415
vt 0.696941 0.876438
vt 0.704000 0.837048
vt 0.001953 0.501817
vt 0.001953 0.744281
vt 0.000000 0.000000
s 1
usemtl Material.002
f 23/1/1 5/2/2 4/3/3 3/4/4
f 31/5/5 6/6/6 4/3/3 5/2/2
f 7/7/7 2/8/8 4/9/3 6/10/6
f 12/11/9 11/12/10 9/13/11 10/14/12
f 18/15/13 17/16/14 15/17/15 16/18/16
f 13/19/17 8/20/18 9/21/11 11/22/10
f 46/23/19 25/24/20 24/25/21 48/26/22
f 30/27/23 36/28/24 10/14/12 31/5/5
f 8/20/18 7/7/7 6/10/6 9/21/11
f 20/29/25 19/30/26 17/31/14 21/32/27
f 19/30/26 14/33/28 15/34/15 17/31/14
f 37/35/29 42/36/30 16/18/16 12/11/9
f 22/37/31 23/1/1 3/4/4 21/38/27
f 48/26/22 24/25/21 23/1/1 22/37/31
f 1/39/32 20/29/25 21/32/27 3/40/4
f 28/41/33 27/42/34 25/24/20 26/43/35
f 14/33/28 13/19/17 11/22/10 15/34/15
f 24/25/21 29/44/36 5/2/2 23/1/1
f 29/44/36 30/27/23 31/5/5 5/2/2
f 25/24/20 27/42/34 29/44/36 24/25/21
f 50/45/37 51/46/38 28/41/33 26/43/35
f 43/47/39 48/26/22 22/37/31 18/15/13
f 35/48/40 34/49/41 32/50/42 33/51/43
f 27/42/34 32/50/42 30/27/23 29/44/36
f 31/5/5 10/14/12 9/13/11 6/6/6
f 36/28/24 37/35/29 12/11/9 10/14/12
f 32/50/42 34/49/41 36/28/24 30/27/23
f 28/41/33 33/51/43 32/50/42 27/42/34
f 41/52/44 40/53/45 38/54/46 39/55/47
f 34/49/41 38/54/46 37/35/29 36/28/24
f 12/11/9 16/18/16 15/17/15 11/12/10
f 42/36/30 43/47/39 18/15/13 16/18/16
f 38/54/46 40/53/45 42/36/30 37/35/29
f 35/48/40 39/55/47 38/54/46 34/49/41
f 47/56/48 46/23/19 44/57/49 45/58/50
f 40/53/45 44/57/49 43/47/39 42/36/30
f 18/15/13 22/37/31 21/38/27 17/16/14
f 49/59/51 50/45/37 26/43/35 47/56/48
f 44/57/49 46/23/19 48/26/22 43/47/39
f 41/52/44 45/58/50 44/57/49 40/53/45
f 47/56/48 26/43/35 25/24/20 46/23/19
f 51/46/38 52/60/52 33/51/43 28/41/33
f 52/60/52 53/61/53 35/48/40 33/51/43
f 53/61/53 54/62/54 39/55/47 35/48/40
f 54/62/54 55/63/55 41/52/44 39/55/47
f 55/63/55 56/64/56 45/58/50 41/52/44
f 56/64/56 49/59/51 47/56/48 45/58/50
f 2/65/8 1/39/32 3/40/4 4/66/3
f 79/1/1 61/2/2 60/3/3 59/4/57
f 87/5/5 62/6/6 60/3/3 61/2/2
f 63/7/7 58/8/8 60/9/3 62/10/6
f 68/11/9 67/12/10 65/13/11 66/14/12
f 74/15/13 73/16/14 71/17/58 72/18/16
f 69/19/17 64/20/18 65/21/11 67/22/10
f 102/23/59 81/24/20 80/25/21 104/26/22
f 86/27/23 92/28/24 66/14/12 87/5/5
f 64/20/18 63/7/7 62/10/6 65/21/11
f 76/29/25 75/30/26 73/31/14 77/32/27
f 75/30/26 70/33/28 71/34/58 73/31/14
f 93/35/29 98/36/30 72/18/16 68/11/9
f 78/37/31 79/1/1 59/4/57 77/38/27
f 104/26/22 80/25/21 79/1/1 78/37/31
f 57/39/32 76/29/25 77/32/27 59/40/57
f 84/41/33 83/42/34 81/24/20 82/43/35
f 70/33/28 69/19/17 67/22/10 71/34/58
f 80/25/21 85/44/36 61/2/2 79/1/1
f 85/44/36 86/27/23 87/5/5 61/2/2
f 81/24/20 83/42/34 85/44/36 80/25/21
f 106/45/37 107/46/60 84/41/33 82/43/35
f 99/47/61 104/26/22 78/37/31 74/15/13
f 91/48/40 90/49/41 88/50/42 89/51/43
f 83/42/34 88/50/42 86/27/23 85/44/36
f 87/5/5 66/14/12 65/13/11 62/6/6
f 92/28/24 93/35/29 68/11/9 66/14/12
f 88/50/42 90/49/41 92/28/24 86/27/23
f 84/41/33 89/51/43 88/50/42 83/42/34
f 97/52/44 96/53/45 94/54/46 95/55/47
f 90/49/41 94/54/46 93/35/29 92/28/24
f 68/11/9 72/18/16 71/17/58 67/12/10
f 98/36/30 99/47/61 74/15/13 72/18/16
f 94/54/46 96/53/45 98/36/30 93/35/29
f 91/48/40 95/55/47 94/54/46 90/49/41
f 103/56/48 102/23/59 100/57/49 101/58/50
f 96/53/45 100/57/49 99/47/61 98/36/30
f 74/15/13 78/37/31 77/38/27 73/16/14
f 105/59/51 106/45/37 82/43/35 103/56/48
f 100/57/49 102/23/59 104/26/22 99/47/61
f 97/52/44 101/58/50 100/57/49 96/53/45
f 103/56/48 82/43/35 81/24/20 102/23/59
f 107/46/60 108/60/52 89/51/43 84/41/33
f 108/60/52 109/61/53 91/48/40 89/51/43
f 109/61/53 110/62/54 95/55/47 91/48/40
f 110/62/54 111/63/62 97/52/44 95/55/47
f 111/63/62 112/64/63 101/58/50 97/52/44
f 112/64/63 105/59/51 103/56/48 101/58/50
f 58/65/8 57/39/32 59/40/57 60/66/3
s 0
f 122/67/64 149/67/65 153/67/66 126/67/67
f 123/67/68 150/67/69 154/67/70 127/67/71
f 149/67/72 121/67/73 125/67/74 153/67/66
f 124/67/75 151/67/76 155/67/77 128/67/78
f 150/67/69 122/67/64 126/67/79 154/67/80
f 121/67/73 152/67/81 156/67/82 125/67/83
f 151/67/76 123/67/68 127/67/71 155/67/77
f 152/67/84 124/67/75 128/67/85 156/67/86
f 130/67/87 157/67/88 161/67/89 134/67/90
f 131/67/91 158/67/92 162/67/93 135/67/94
f 157/67/88 129/67/95 133/67/96 161/67/97
f 132/67/98 159/67/99 163/67/100 136/67/101
f 158/67/102 130/67/103 134/67/90 162/67/104
f 129/67/105 160/67/106 164/67/107 133/67/96
f 159/67/99 131/67/108 135/67/109 163/67/110
f 160/67/111 132/67/112 136/67/101 164/67/113
f 130/67/87 158/67/102 189/67/114 190/67/115
f 158/67/92 131/67/116 186/67/117 189/67/118
f 131/67/116 159/67/99 183/67/119 186/67/120
f 159/67/99 132/67/121 180/67/122 183/67/123
f 132/67/112 160/67/111 177/67/124 180/67/125
f 160/67/106 129/67/95 174/67/126 177/67/127
f 129/67/95 157/67/88 171/67/128 174/67/126
f 157/67/129 130/67/87 190/67/115 171/67/130
f 174/67/126 171/67/131 170/67/132 173/67/133
f 173/67/133 170/67/132 169/67/134 172/67/135
f 172/67/136 169/67/134 153/67/137 125/67/74
f 177/67/127 174/67/126 173/67/138 176/67/139
f 176/67/139 173/67/140 172/67/141 175/67/142
f 175/67/143 172/67/136 125/67/144 156/67/82
f 180/67/125 177/67/145 176/67/146 179/67/147
f 179/67/147 176/67/148 175/67/143 178/67/149
f 178/67/150 175/67/143 156/67/86 128/67/151
f 183/67/152 180/67/153 179/67/147 182/67/154
f 182/67/154 179/67/147 178/67/150 181/67/155
f 181/67/156 178/67/150 128/67/157 155/67/158
f 186/67/120 183/67/123 182/67/159 185/67/160
f 185/67/161 182/67/159 181/67/155 184/67/162
f 184/67/162 181/67/163 155/67/164 127/67/165
f 189/67/166 186/67/117 185/67/160 188/67/167
f 188/67/168 185/67/160 184/67/169 187/67/170
f 187/67/170 184/67/162 127/67/71 154/67/171
f 190/67/115 189/67/172 188/67/168 191/67/173
f 191/67/174 188/67/168 187/67/175 192/67/176
f 192/67/176 187/67/170 154/67/80 126/67/79
f 171/67/177 190/67/178 191/67/179 170/67/132
f 170/67/132 191/67/180 192/67/181 169/67/182
f 169/67/134 192/67/176 126/67/183 153/67/66
f 122/67/64 150/67/69 213/67/184 214/67/185
f 150/67/69 123/67/186 210/67/187 213/67/188
f 123/67/189 151/67/190 207/67/191 210/67/187
f 151/67/76 124/67/75 204/67/192 207/67/193
f 124/67/194 152/67/195 201/67/196 204/67/197
f 152/67/195 121/67/198 198/67/199 201/67/196
f 121/67/73 149/67/65 195/67/200 198/67/201
f 149/67/202 122/67/203 214/67/185 195/67/204
f 198/67/205 195/67/200 194/67/206 197/67/207
f 197/67/207 194/67/208 193/67/209 196/67/210
f 196/67/211 193/67/209 145/67/212 117/67/213
f 201/67/196 198/67/201 197/67/214 200/67/215
f 200/67/216 197/67/207 196/67/210 199/67/217
f 199/67/217 196/67/218 117/67/213 148/67/219
f 204/67/220 201/67/196 200/67/215 203/67/221
f 203/67/221 200/67/215 199/67/217 202/67/222
f 202/67/222 199/67/217 148/67/223 120/67/224
f 207/67/193 204/67/192 203/67/221 206/67/225
f 206/67/225 203/67/226 202/67/227 205/67/228
f 205/67/228 202/67/222 120/67/229 147/67/230
f 210/67/187 207/67/231 206/67/225 209/67/232
f 209/67/232 206/67/225 205/67/233 208/67/234
f 208/67/234 205/67/233 147/67/230 119/67/235
f 213/67/188 210/67/187 209/67/232 212/67/236
f 212/67/237 209/67/232 208/67/238 211/67/239
f 211/67/239 208/67/240 119/67/241 146/67/242
f 214/67/185 213/67/188 212/67/237 215/67/243
f 215/67/244 212/67/237 211/67/239 216/67/245
f 216/67/245 211/67/239 146/67/246 118/67/247
f 195/67/248 214/67/185 215/67/243 194/67/208
f 194/67/208 215/67/243 216/67/249 193/67/250
f 193/67/250 216/67/249 118/67/251 145/67/212
f 133/67/95 164/67/113 237/67/252 238/67/253
f 164/67/113 136/67/101 234/67/254 237/67/255
f 136/67/101 163/67/100 231/67/256 234/67/257
f 163/67/110 135/67/109 228/67/258 231/67/259
f 135/67/109 162/67/93 225/67/260 228/67/258
f 162/67/104 134/67/90 222/67/261 225/67/260
f 134/67/90 161/67/89 219/67/262 222/67/261
f 161/67/97 133/67/263 238/67/264 219/67/265
f 222/67/261 219/67/262 218/67/266 221/67/267
f 221/67/268 218/67/266 217/67/269 220/67/270
f 220/67/270 217/67/271 141/67/272 114/67/273
f 225/67/260 222/67/274 221/67/267 224/67/275
f 224/67/276 221/67/277 220/67/278 223/67/279
f 223/67/279 220/67/280 114/67/273 142/67/281
f 228/67/282 225/67/283 224/67/275 227/67/284
f 227/67/285 224/67/275 223/67/286 226/67/287
f 226/67/288 223/67/286 142/67/289 115/67/290
f 231/67/256 228/67/291 227/67/285 230/67/292
f 230/67/292 227/67/285 226/67/288 229/67/293
f 229/67/294 226/67/288 115/67/295 143/67/296
f 234/67/297 231/67/256 230/67/292 233/67/298
f 233/67/298 230/67/292 229/67/294 232/67/299
f 232/67/299 229/67/294 143/67/300 116/67/301
f 237/67/255 234/67/254 233/67/298 236/67/302
f 236/67/302 233/67/303 232/67/299 235/67/304
f 235/67/304 232/67/299 116/67/305 144/67/306
f 238/67/264 237/67/255 236/67/307 239/67/308
f 239/67/309 236/67/307 235/67/310 240/67/311
f 240/67/311 235/67/312 144/67/313 113/67/314
f 219/67/265 238/67/264 239/67/315 218/67/316
f 218/67/266 239/67/309 240/67/317 217/67/271
f 217/67/318 240/67/317 113/67/319 141/67/320
f 165/67/321 138/67/322 246/67/323 241/67/324
f 138/67/325 166/67/326 249/67/327 246/67/328
f 166/67/326 139/67/329 252/67/330 249/67/331
f 139/67/332 167/67/333 255/67/334 252/67/330
f 167/67/335 140/67/336 258/67/337 255/67/338
f 140/67/336 168/67/339 261/67/340 258/67/341
f 168/67/342 137/67/343 264/67/344 261/67/345
f 137/67/346 165/67/321 241/67/324 264/67/344
f 241/67/324 246/67/328 245/67/347 242/67/348
f 242/67/349 245/67/347 244/67/350 243/67/351
f 243/67/352 244/67/353 114/67/273 141/67/320
f 246/67/323 249/67/327 248/67/354 245/67/355
f 245/67/355 248/67/356 247/67/357 244/67/350
f 244/67/353 247/67/358 142/67/289 114/67/273
f 249/67/327 252/67/359 251/67/360 248/67/354
f 248/67/356 251/67/360 250/67/361 247/67/357
f 247/67/358 250/67/361 115/67/290 142/67/289
f 252/67/359 255/67/334 254/67/362 251/67/360
f 251/67/363 254/67/364 253/67/365 250/67/366
f 250/67/361 253/67/367 143/67/368 115/67/295
f 255/67/338 258/67/337 257/67/369 254/67/370
f 254/67/370 257/67/369 256/67/371 253/67/372
f 253/67/365 256/67/371 116/67/373 143/67/300
f 258/67/374 261/67/340 260/67/375 257/67/369
f 257/67/369 260/67/376 259/67/377 256/67/378
f 256/67/378 259/67/379 144/67/306 116/67/373
f 261/67/345 264/67/344 263/67/380 260/67/375
f 260/67/376 263/67/380 262/67/381 259/67/379
f 259/67/382 262/67/383 113/67/319 144/67/313
f 264/67/344 241/67/324 242/67/384 263/67/385
f 263/67/386 242/67/384 243/67/351 262/67/381
f 262/67/381 243/67/387 141/67/320 113/67/319
s 1
f 117/67/388 145/67/212 51/46/38 50/45/37
f 145/67/212 118/67/247 52/60/52 51/46/38
f 118/67/247 146/67/389 53/61/53 52/60/52
f 146/67/389 119/67/241 54/62/54 53/61/53
f 119/67/241 147/67/390 55/63/62 54/62/54
f 147/67/390 120/67/224 56/64/56 55/63/62
f 120/67/224 148/67/223 49/59/51 56/64/56
f 148/67/223 117/67/388 50/45/37 49/59/51
f 140/67/336 167/67/391 107/46/38 106/45/37
f 167/67/391 139/67/392 108/60/52 107/46/38
f 139/67/392 166/67/326 109/61/53 108/60/52
f 166/67/326 138/67/325 110/62/54 109/61/53
f 138/67/325 165/67/321 111/63/62 110/62/54
f 165/67/321 137/67/343 112/64/56 111/63/62
f 137/67/343 168/67/342 105/59/51 112/64/56
f 168/67/342 140/67/336 106/45/37 105/59/51
