# Blender 5.0.1
# www.blender.org
mtllib Wire_Head_Yellow(Enc_A-X4).mtl
o Wire_Head_Yellow(Enc_A-X4)
v -0.126350 -0.059390 0.249517
v -0.124230 -0.060269 0.249517
v -0.126350 -0.059390 0.240313
v -0.124230 -0.060269 0.240313
v -0.124230 -0.060185 0.240115
v -0.122109 -0.059390 0.240313
v -0.122109 -0.059390 0.249517
v -0.121231 -0.057270 0.249517
v -0.121231 -0.057270 0.240313
v -0.121315 -0.057270 0.240115
v -0.122109 -0.055149 0.240313
v -0.122169 -0.055209 0.240115
v -0.122109 -0.055149 0.249517
v -0.124230 -0.054271 0.249517
v -0.124230 -0.054271 0.240313
v -0.124230 -0.054355 0.240115
v -0.126350 -0.055149 0.240313
v -0.126291 -0.055209 0.240115
v -0.126350 -0.055149 0.249517
v -0.127229 -0.057270 0.249517
v -0.127229 -0.057270 0.240313
v -0.127145 -0.057270 0.240115
v -0.126291 -0.059331 0.240115
v -0.126148 -0.059188 0.240033
v -0.125960 -0.059000 0.240033
v -0.125818 -0.058858 0.240115
v -0.124230 -0.059717 0.240033
v -0.124230 -0.059515 0.240115
v -0.124230 -0.059983 0.240033
v -0.122311 -0.059188 0.240033
v -0.122169 -0.059331 0.240115
v -0.122499 -0.059000 0.240033
v -0.122642 -0.058858 0.240115
v -0.121783 -0.057270 0.240033
v -0.121985 -0.057270 0.240115
v -0.121517 -0.057270 0.240033
v -0.122311 -0.055351 0.240033
v -0.122499 -0.055539 0.240033
v -0.122642 -0.055682 0.240115
v -0.124230 -0.054823 0.240033
v -0.124230 -0.055025 0.240115
v -0.124230 -0.054557 0.240033
v -0.126148 -0.055351 0.240033
v -0.125960 -0.055539 0.240033
v -0.125818 -0.055682 0.240115
v -0.126677 -0.057270 0.240033
v -0.126475 -0.057270 0.240115
v -0.126943 -0.057270 0.240033
v -0.126392 -0.057270 0.240313
v -0.125758 -0.058799 0.240313
v -0.124230 -0.059432 0.240313
v -0.122701 -0.058799 0.240313
v -0.122068 -0.057270 0.240313
v -0.122701 -0.055741 0.240313
v -0.124230 -0.055108 0.240313
v -0.125758 -0.055741 0.240313
v 0.175316 0.069222 0.249517
v 0.177436 0.068344 0.249517
v 0.175316 0.069222 0.240313
v 0.177436 0.068344 0.240313
v 0.177436 0.068428 0.240115
v 0.179557 0.069222 0.240313
v 0.179557 0.069222 0.249517
v 0.180435 0.071343 0.249517
v 0.180435 0.071343 0.240313
v 0.180352 0.071343 0.240115
v 0.179557 0.073463 0.240313
v 0.179498 0.073404 0.240115
v 0.179557 0.073463 0.249517
v 0.177436 0.074342 0.249517
v 0.177436 0.074342 0.240313
v 0.177436 0.074258 0.240115
v 0.175316 0.073463 0.240313
v 0.175375 0.073404 0.240115
v 0.175316 0.073463 0.249517
v 0.174438 0.071343 0.249517
v 0.174438 0.071343 0.240313
v 0.174521 0.071343 0.240115
v 0.175375 0.069281 0.240115
v 0.175518 0.069424 0.240033
v 0.175706 0.069612 0.240033
v 0.175849 0.069755 0.240115
v 0.177436 0.068895 0.240033
v 0.177436 0.069097 0.240115
v 0.177436 0.068630 0.240033
v 0.179355 0.069424 0.240033
v 0.179498 0.069281 0.240115
v 0.179167 0.069612 0.240033
v 0.179024 0.069755 0.240115
v 0.179884 0.071343 0.240033
v 0.179682 0.071343 0.240115
v 0.180150 0.071343 0.240033
v 0.179355 0.073261 0.240033
v 0.179167 0.073073 0.240033
v 0.179024 0.072930 0.240115
v 0.177436 0.073790 0.240033
v 0.177436 0.073588 0.240115
v 0.177436 0.074056 0.240033
v 0.175518 0.073261 0.240033
v 0.175706 0.073073 0.240033
v 0.175849 0.072930 0.240115
v 0.174989 0.071343 0.240033
v 0.175191 0.071343 0.240115
v 0.174723 0.071343 0.240033
v 0.175275 0.071343 0.240313
v 0.175908 0.069814 0.240313
v 0.177436 0.069181 0.240313
v 0.178965 0.069814 0.240313
v 0.179598 0.071343 0.240313
v 0.178965 0.072871 0.240313
v 0.177436 0.073504 0.240313
v 0.175908 0.072871 0.240313
v -0.125600 -0.058649 0.237996
v -0.122859 -0.058649 0.238038
v -0.122859 -0.055891 0.238038
v -0.125600 -0.055891 0.237996
v -0.058826 -0.058702 0.230234
v -0.058826 -0.058702 0.233116
v -0.058868 -0.055838 0.233116
v -0.058868 -0.055838 0.230234
v -0.117924 -0.058711 0.230243
v -0.117881 -0.058711 0.233108
v -0.117881 -0.055829 0.233108
v -0.117924 -0.055829 0.230243
v -0.051088 0.162867 0.230234
v -0.051088 0.162867 0.233116
v -0.053952 0.162909 0.233116
v -0.053952 0.162909 0.230234
v -0.051088 -0.050879 0.230234
v -0.051088 -0.050879 0.233116
v -0.053952 -0.050836 0.233116
v -0.053952 -0.050836 0.230234
v 0.186799 0.167868 0.230234
v 0.186799 0.167868 0.233116
v 0.186841 0.170732 0.233116
v 0.186841 0.170732 0.230234
v -0.046030 0.167868 0.230234
v -0.046030 0.167868 0.233116
v -0.046072 0.170732 0.233116
v -0.046072 0.170732 0.230234
v 0.176066 0.072722 0.237996
v 0.178807 0.072722 0.238038
v 0.178807 0.069963 0.238038
v 0.176066 0.069963 0.237996
v 0.191856 0.077753 0.230234
v 0.191856 0.077753 0.233116
v 0.194721 0.077710 0.233116
v 0.194721 0.077710 0.230234
v 0.191856 0.162891 0.230234
v 0.191856 0.162891 0.233116
v 0.194721 0.162933 0.233116
v 0.194721 0.162933 0.230234
v 0.183360 0.072784 0.230243
v 0.183402 0.072784 0.233108
v 0.183402 0.069902 0.233108
v 0.183360 0.069902 0.230243
v 0.187323 0.072775 0.230234
v 0.187323 0.072775 0.233116
v 0.187365 0.069911 0.233116
v 0.187365 0.069911 0.230234
v -0.124230 -0.059168 0.238040
v -0.122344 -0.057270 0.238070
v -0.124230 -0.055372 0.238040
v -0.126116 -0.057270 0.238011
v -0.058818 -0.059239 0.231675
v -0.058847 -0.057270 0.233657
v -0.058876 -0.055301 0.231675
v -0.058847 -0.057270 0.229694
v -0.117903 -0.059251 0.231675
v -0.117873 -0.057270 0.233645
v -0.117903 -0.055289 0.231675
v -0.117932 -0.057270 0.229706
v -0.050550 0.162859 0.231675
v -0.052520 0.162888 0.233657
v -0.054489 0.162917 0.231675
v -0.052520 0.162888 0.229694
v -0.050550 -0.050887 0.231675
v -0.052520 -0.050858 0.233657
v -0.054489 -0.050828 0.231675
v -0.052520 -0.050858 0.229694
v 0.186791 0.167331 0.231675
v 0.186820 0.169300 0.233657
v 0.186849 0.171270 0.231675
v 0.186820 0.169300 0.229694
v -0.046022 0.167331 0.231675
v -0.046051 0.169300 0.233657
v -0.046080 0.171270 0.231675
v -0.046051 0.169300 0.229694
v 0.177436 0.073241 0.238040
v 0.179322 0.071343 0.238070
v 0.177436 0.069445 0.238040
v 0.175551 0.071343 0.238011
v 0.191319 0.077761 0.231675
v 0.193288 0.077731 0.233657
v 0.195258 0.077702 0.231675
v 0.193288 0.077731 0.229694
v 0.191319 0.162883 0.231675
v 0.193288 0.162912 0.233657
v 0.195258 0.162941 0.231675
v 0.193288 0.162912 0.229694
v 0.183381 0.073324 0.231675
v 0.183410 0.071343 0.233645
v 0.183381 0.069361 0.231675
v 0.183352 0.071343 0.229706
v 0.187315 0.073312 0.231675
v 0.187344 0.071343 0.233657
v 0.187373 0.069374 0.231675
v 0.187344 0.071343 0.229694
v -0.124034 -0.059189 0.234569
v -0.123248 -0.059210 0.232677
v -0.121369 -0.059231 0.231876
v -0.125381 -0.058665 0.234241
v -0.124234 -0.058680 0.231681
v -0.121686 -0.058696 0.230495
v -0.125892 -0.057270 0.234141
v -0.124615 -0.057270 0.231318
v -0.121813 -0.057270 0.229979
v -0.125381 -0.055875 0.234241
v -0.124234 -0.055860 0.231681
v -0.121686 -0.055844 0.230495
v -0.124034 -0.055351 0.234569
v -0.123248 -0.055330 0.232677
v -0.121369 -0.055310 0.231876
v -0.122680 -0.055875 0.234863
v -0.122246 -0.055860 0.233657
v -0.121041 -0.055844 0.233255
v -0.122176 -0.057270 0.234997
v -0.121881 -0.057270 0.234036
v -0.120926 -0.057270 0.233774
v -0.121041 -0.058696 0.233255
v -0.122246 -0.058680 0.233657
v -0.122680 -0.058665 0.234863
v -0.054915 -0.058981 0.231675
v -0.052088 -0.057633 0.231675
v -0.050791 -0.054782 0.231675
v -0.055039 -0.058458 0.230234
v -0.052471 -0.057257 0.230234
v -0.051315 -0.054663 0.230234
v -0.055370 -0.057065 0.229694
v -0.053494 -0.056254 0.229694
v -0.052712 -0.054348 0.229694
v -0.055702 -0.055671 0.230234
v -0.054516 -0.055250 0.230234
v -0.054109 -0.054032 0.230234
v -0.055826 -0.055149 0.231675
v -0.054899 -0.054874 0.231675
v -0.054633 -0.053914 0.231675
v -0.055702 -0.055671 0.233116
v -0.054516 -0.055250 0.233116
v -0.054109 -0.054032 0.233116
v -0.055370 -0.057065 0.233657
v -0.053494 -0.056254 0.233657
v -0.052712 -0.054348 0.233657
v -0.051315 -0.054663 0.233116
v -0.052471 -0.057257 0.233116
v -0.055039 -0.058458 0.233116
v -0.050397 0.165954 0.231675
v -0.050115 0.166907 0.231675
v -0.049140 0.167183 0.231675
v -0.050920 0.166077 0.230234
v -0.050493 0.167289 0.230234
v -0.049259 0.167707 0.230234
v -0.052314 0.166406 0.229694
v -0.051499 0.168308 0.229694
v -0.049578 0.169104 0.229694
v -0.053708 0.166734 0.230234
v -0.052506 0.169327 0.230234
v -0.049896 0.170500 0.230234
v -0.054231 0.166857 0.231675
v -0.052884 0.169709 0.231675
v -0.050015 0.171024 0.231675
v -0.053708 0.166734 0.233116
v -0.052506 0.169327 0.233116
v -0.049896 0.170500 0.233116
v -0.052314 0.166406 0.233657
v -0.051499 0.168308 0.233657
v -0.049578 0.169104 0.233657
v -0.049259 0.167707 0.233116
v -0.050493 0.167289 0.233116
v -0.050920 0.166077 0.233116
v 0.189907 0.167185 0.231675
v 0.190884 0.166911 0.231675
v 0.191165 0.165966 0.231675
v 0.190026 0.167709 0.230234
v 0.191260 0.167294 0.230234
v 0.191688 0.166090 0.230234
v 0.190342 0.169106 0.229694
v 0.192264 0.168316 0.229694
v 0.193081 0.166421 0.229694
v 0.190658 0.170503 0.230234
v 0.193268 0.169338 0.230234
v 0.194475 0.166752 0.230234
v 0.190776 0.171027 0.231675
v 0.193645 0.169721 0.231675
v 0.194998 0.166876 0.231675
v 0.190658 0.170503 0.233116
v 0.193268 0.169338 0.233116
v 0.194475 0.166752 0.233116
v 0.190342 0.169106 0.233657
v 0.192264 0.168316 0.233657
v 0.193082 0.166421 0.233657
v 0.191688 0.166090 0.233116
v 0.191260 0.167294 0.233116
v 0.190026 0.167709 0.233116
v 0.191200 0.074709 0.231675
v 0.190976 0.073737 0.231675
v 0.190179 0.073473 0.231675
v 0.191727 0.074604 0.230234
v 0.191375 0.073377 0.230234
v 0.190317 0.072954 0.230234
v 0.193131 0.074323 0.229694
v 0.192437 0.072416 0.229694
v 0.190683 0.071569 0.229694
v 0.194536 0.074042 0.230234
v 0.193500 0.071455 0.230234
v 0.191049 0.070185 0.230234
v 0.195062 0.073936 0.231675
v 0.193898 0.071095 0.231675
v 0.191187 0.069666 0.231675
v 0.194536 0.074042 0.233116
v 0.193500 0.071455 0.233116
v 0.191049 0.070185 0.233116
v 0.193131 0.074323 0.233657
v 0.192437 0.072416 0.233657
v 0.190683 0.071570 0.233657
v 0.190317 0.072954 0.233116
v 0.191375 0.073377 0.233116
v 0.191727 0.074604 0.233116
v 0.180047 0.073303 0.231900
v 0.178292 0.073282 0.232742
v 0.177596 0.073262 0.234642
v 0.176241 0.072738 0.234350
v 0.177264 0.072753 0.231790
v 0.179694 0.072768 0.230528
v 0.175727 0.071343 0.234263
v 0.176867 0.071343 0.231444
v 0.179553 0.071343 0.230015
v 0.176241 0.069948 0.234350
v 0.177264 0.069933 0.231790
v 0.179694 0.069917 0.230528
v 0.177596 0.069424 0.234642
v 0.178292 0.069403 0.232742
v 0.180047 0.069382 0.231900
v 0.178958 0.069948 0.234901
v 0.179336 0.069933 0.233677
v 0.180412 0.069917 0.233269
v 0.179465 0.071343 0.235021
v 0.179717 0.071343 0.234040
v 0.180542 0.071343 0.233785
v 0.178958 0.072738 0.234901
v 0.179336 0.072753 0.233677
v 0.180413 0.072768 0.233269
vn -0.5003 -0.5003 -0.7067
vn -0.0000 -0.7075 -0.7067
vn -0.0000 -1.0000 -0.0088
vn -0.7071 -0.7071 -0.0088
vn 0.5003 -0.5003 -0.7067
vn 0.7071 -0.7071 -0.0088
vn 0.7071 -0.7071 -0.0000
vn -0.0000 -1.0000 -0.0000
vn 0.5003 0.5003 -0.7067
vn 0.7071 0.7071 -0.0088
vn 1.0000 -0.0000 -0.0088
vn 0.7075 -0.0000 -0.7067
vn -0.5003 0.5003 -0.7067
vn -0.7071 0.7071 -0.0088
vn -0.0001 1.0000 -0.0088
vn -0.0000 0.7075 -0.7067
vn 0.7071 0.7071 -0.0000
vn 1.0000 -0.0000 -0.0000
vn 0.1638 -0.0000 -0.9865
vn 0.1158 0.1158 -0.9865
vn -0.1281 -0.1281 -0.9835
vn -0.1811 -0.0000 -0.9835
vn 0.1281 -0.1280 -0.9835
vn 0.1811 -0.0000 -0.9835
vn -1.0000 -0.0000 -0.0000
vn -0.7071 0.7071 -0.0000
vn -1.0000 -0.0000 -0.0088
vn -0.0000 1.0000 -0.0000
vn 0.1280 0.1281 -0.9835
vn -0.0000 0.1811 -0.9835
vn -0.7075 -0.0000 -0.7067
vn -0.7071 -0.7071 -0.0000
vn -0.0000 0.6909 -0.7230
vn -0.0000 0.1638 -0.9865
vn 0.4885 0.4885 -0.7230
vn -0.0000 -0.1811 -0.9835
vn -0.7000 -0.6962 -0.1591
vn -0.0013 -0.9877 -0.1562
vn -0.1281 0.1280 -0.9835
vn -0.6909 -0.0000 -0.7230
vn -0.1638 -0.0000 -0.9865
vn -0.1158 0.1158 -0.9865
vn -0.4885 0.4885 -0.7230
vn -0.0000 -0.6909 -0.7230
vn -0.0000 -0.1638 -0.9865
vn -0.1158 -0.1158 -0.9865
vn -0.4885 -0.4885 -0.7230
vn 0.6909 -0.0000 -0.7230
vn 0.1158 -0.1158 -0.9865
vn 0.4885 -0.4885 -0.7230
vn -0.9874 -0.0000 -0.1582
vn 0.6982 -0.6974 -0.1618
vn 0.9868 -0.0000 -0.1619
vn 0.6982 0.6974 -0.1618
vn -0.0013 0.9877 -0.1562
vn -0.7000 0.6962 -0.1591
vn -0.0000 1.0000 -0.0088
vn -0.1280 -0.1280 -0.9835
vn 0.1280 -0.1280 -0.9835
vn -0.0000 0.6908 -0.7230
vn -0.6999 -0.6963 -0.1591
vn -0.1280 0.1280 -0.9835
vn -0.0000 -0.6908 -0.7230
vn -0.9874 -0.0000 -0.1581
vn 0.9868 -0.0000 -0.1620
vn 0.0028 -0.7080 0.7062
vn 0.0015 -0.7075 0.7067
vn -0.0003 -1.0000 -0.0009
vn 0.0041 -1.0000 -0.0000
vn 0.0041 -1.0000 -0.0001
vn -0.0003 -1.0000 -0.0010
vn -0.0030 -0.7064 -0.7078
vn 0.0028 -0.7079 -0.7063
vn -0.0019 0.7068 0.7074
vn 0.0015 0.7074 0.7068
vn 0.0020 -0.0000 1.0000
vn -0.0000 -0.0010 1.0000
vn 0.0020 -0.0001 1.0000
vn 0.0015 -0.7075 0.7068
vn -0.0019 0.7067 -0.7075
vn -0.0030 0.7063 -0.7079
vn -0.0003 1.0000 -0.0010
vn -0.0024 1.0000 -0.0001
vn -0.0024 1.0000 -0.0000
vn -0.0003 1.0000 -0.0009
vn -0.0030 -0.7063 -0.7079
vn -0.0043 -0.0001 -1.0000
vn -0.0000 -0.0010 -1.0000
vn -0.0043 -0.0000 -1.0000
vn -0.0030 0.7063 -0.7080
vn 0.7092 -0.0006 0.7050
vn 0.7095 -0.0008 0.7047
vn 1.0000 -0.0011 -0.0000
vn 1.0000 -0.0007 -0.0000
vn 0.7095 -0.0008 -0.7047
vn 0.7092 -0.0006 -0.7050
vn -0.7094 0.0008 0.7048
vn -0.7091 0.0005 0.7051
vn 0.0002 -0.0000 1.0000
vn -0.0003 -0.0000 1.0000
vn -0.0002 -0.0000 1.0000
vn 0.0003 -0.0000 1.0000
vn 0.7094 -0.0008 0.7048
vn 0.7091 -0.0006 0.7051
vn -0.7095 0.0008 -0.7047
vn -0.7091 0.0005 -0.7051
vn -1.0000 0.0007 -0.0001
vn -1.0000 0.0011 -0.0001
vn -1.0000 0.0011 -0.0000
vn -1.0000 0.0007 -0.0000
vn -0.7092 0.0005 0.7051
vn -0.7095 0.0008 0.7047
vn 0.7091 -0.0006 -0.7051
vn 0.7094 -0.0008 -0.7048
vn 0.0003 -0.0000 -1.0000
vn -0.0002 -0.0000 -1.0000
vn -0.0003 -0.0000 -1.0000
vn 0.0002 -0.0000 -1.0000
vn -0.7094 0.0008 -0.7048
vn -0.0005 -0.7091 0.7051
vn 0.0005 -0.7091 0.7051
vn 0.0007 -1.0000 0.0001
vn -0.0007 -1.0000 0.0001
vn -0.0007 -1.0000 -0.0001
vn 0.0007 -1.0000 -0.0001
vn 0.0005 -0.7091 -0.7051
vn -0.0005 -0.7091 -0.7051
vn 0.0007 0.7094 0.7048
vn -0.0007 0.7094 0.7048
vn -0.0000 0.0003 1.0000
vn -0.0000 0.0002 1.0000
vn 0.0007 0.7095 -0.7048
vn -0.0007 0.7095 -0.7047
vn -0.0010 1.0000 -0.0001
vn 0.0010 1.0000 -0.0001
vn 0.0010 1.0000 -0.0000
vn -0.0010 1.0000 -0.0000
vn -0.0007 0.7095 0.7047
vn 0.0007 0.7095 0.7047
vn -0.0004 -0.7091 -0.7051
vn -0.0000 0.0002 -1.0000
vn -0.0000 0.0003 -1.0000
vn -0.0007 0.7094 -0.7048
vn 0.0007 0.7094 -0.7048
vn -0.7090 0.0010 0.7052
vn -0.7090 -0.0013 0.7053
vn -1.0000 -0.0018 0.0001
vn -1.0000 0.0014 -0.0000
vn -1.0000 -0.0018 -0.0001
vn -0.7090 -0.0013 -0.7053
vn -0.7090 0.0010 -0.7052
vn 0.7097 -0.0015 0.7045
vn 0.7098 0.0020 0.7044
vn 0.0008 0.0001 1.0000
vn 0.0007 -0.0001 1.0000
vn 0.0006 -0.0000 1.0000
vn 0.0007 0.0001 1.0000
vn -0.7089 -0.0013 0.7053
vn -0.7090 0.0010 0.7053
vn 0.7097 -0.0015 -0.7045
vn 0.7098 0.0019 -0.7044
vn 1.0000 0.0028 -0.0000
vn 1.0000 -0.0021 -0.0001
vn 1.0000 -0.0021 0.0001
vn 1.0000 0.0029 -0.0000
vn 0.7098 0.0019 0.7044
vn -0.7090 0.0010 -0.7053
vn -0.7089 -0.0013 -0.7053
vn 0.0007 0.0001 -1.0000
vn 0.0006 -0.0000 -1.0000
vn 0.0007 -0.0001 -1.0000
vn 0.0008 0.0001 -1.0000
vn 0.7098 0.0020 -0.7044
vn 0.0150 0.7100 0.7040
vn -0.0183 0.7037 0.7102
vn -0.0235 0.9997 -0.0005
vn -0.0029 1.0000 -0.0089
vn -0.0028 1.0000 -0.0090
vn -0.0235 0.9997 -0.0006
vn -0.0181 0.7031 -0.7109
vn -0.0281 0.6993 -0.7143
vn 0.0148 -0.7107 0.7034
vn 0.0256 -0.7146 0.6990
vn -0.0000 -0.0096 1.0000
vn 0.0202 -0.0006 0.9998
vn -0.0000 -0.0095 1.0000
vn -0.0182 0.7037 0.7103
vn 0.0149 0.7100 0.7041
vn -0.0279 -0.6999 -0.7137
vn 0.0255 -0.7140 -0.6997
vn 0.0377 -0.9993 -0.0005
vn -0.0028 -1.0000 -0.0090
vn -0.0028 -1.0000 -0.0089
vn 0.0256 -0.7147 0.6990
vn 0.0149 -0.7107 0.7034
vn -0.0280 0.6992 -0.7143
vn -0.0181 0.7030 -0.7109
vn -0.0000 -0.0094 -1.0000
vn -0.0398 -0.0005 -0.9992
vn -0.0000 -0.0095 -1.0000
vn 0.0015 -0.7074 0.7068
vn 0.1099 -0.0000 0.9939
vn 0.0818 -0.7249 0.6840
vn 0.0021 -0.0000 1.0000
vn 0.0817 0.7249 0.6840
vn -0.0216 0.9993 -0.0319
vn 0.0818 0.7250 0.6839
vn -0.1648 0.6845 -0.7101
vn -0.0216 0.9993 -0.0320
vn -0.0030 0.7062 -0.7080
vn -0.0044 -0.0000 -1.0000
vn -0.2283 -0.0000 -0.9736
vn -0.1648 0.6845 -0.7102
vn -0.0044 -0.0001 -1.0000
vn -0.1648 -0.6845 -0.7101
vn -0.0216 -0.9993 -0.0320
vn 0.0818 -0.7249 0.6839
vn -0.0216 -0.9993 -0.0319
vn -0.0576 -0.9974 -0.0437
vn -0.5238 -0.6807 -0.5121
vn -0.5239 -0.6807 -0.5121
vn -0.0576 -0.9974 -0.0436
vn -0.0359 -0.9993 -0.0072
vn -0.7136 -0.6840 -0.1512
vn -0.0360 -0.9993 -0.0071
vn -0.0102 -0.9991 -0.0403
vn -0.7141 -0.6970 -0.0656
vn -0.2284 -0.0000 -0.9736
vn -0.7123 -0.0000 -0.7018
vn -0.9765 -0.0000 -0.2154
vn -0.9971 -0.0000 -0.0762
vn -0.7124 -0.0000 -0.7018
vn -0.5238 0.6807 -0.5121
vn -0.9765 -0.0000 -0.2155
vn -0.7136 0.6840 -0.1512
vn -0.7141 0.6970 -0.0657
vn -0.0576 0.9974 -0.0437
vn -0.0576 0.9974 -0.0436
vn -0.0359 0.9993 -0.0072
vn -0.0359 0.9993 -0.0071
vn -0.7141 0.6970 -0.0656
vn -0.0102 0.9991 -0.0403
vn 0.4331 0.7798 0.4520
vn -0.0575 0.9974 -0.0436
vn 0.6807 0.7258 0.0995
vn 0.7038 0.7101 -0.0221
vn 0.1099 0.0001 0.9939
vn 0.0818 0.7249 0.6839
vn 0.6961 -0.0000 0.7180
vn 0.9917 -0.0000 0.1288
vn 0.7038 0.7100 -0.0221
vn 0.9999 -0.0000 -0.0148
vn 0.1099 -0.0001 0.9939
vn 0.6961 -0.0000 0.7179
vn 0.4332 -0.7798 0.4520
vn 0.4331 -0.7798 0.4520
vn 0.6807 -0.7258 0.0995
vn 0.9917 -0.0001 0.1288
vn 0.7038 -0.7100 -0.0221
vn 0.0818 -0.7250 0.6839
vn -0.0575 -0.9974 -0.0436
vn 0.4331 -0.7798 0.4519
vn -0.0359 -0.9993 -0.0071
vn 0.7038 -0.7101 -0.0221
vn 0.0341 -0.0142 0.9993
vn 0.7127 -0.1547 0.6842
vn -0.6827 0.0872 0.7255
vn 0.0340 -0.0142 0.9993
vn -0.7092 0.0005 0.7050
vn -0.9934 0.1144 -0.0000
vn -0.6827 0.0872 -0.7255
vn 0.0340 -0.0142 -0.9993
vn 0.7127 -0.1546 -0.6842
vn 0.0341 -0.0142 -0.9993
vn 0.7095 -0.0007 -0.7047
vn 0.9761 -0.2173 -0.0000
vn 0.7127 -0.1547 -0.6842
vn 0.7095 -0.0007 0.7047
vn 0.7127 -0.1546 0.6842
vn 0.7136 -0.7006 -0.0000
vn 0.5231 -0.5134 -0.6803
vn 0.2271 -0.9739 -0.0000
vn 0.1618 -0.7114 -0.6839
vn 0.0042 -1.0000 -0.0001
vn 0.0341 -0.0143 -0.9993
vn 0.0517 -0.0511 -0.9974
vn 0.0517 -0.0512 -0.9974
vn 0.0150 -0.0349 -0.9993
vn 0.0149 -0.0349 -0.9993
vn -0.0000 -0.0011 -1.0000
vn -0.4473 0.4347 -0.7816
vn 0.0516 -0.0511 -0.9974
vn -0.0919 0.6810 -0.7265
vn -0.0920 0.6810 -0.7265
vn -0.0000 -0.0009 -1.0000
vn -0.7180 0.6960 -0.0000
vn -0.4474 0.4347 -0.7816
vn -0.0920 0.6811 -0.7264
vn -0.1209 0.9927 -0.0000
vn -0.0919 0.6811 -0.7264
vn -0.0025 1.0000 -0.0001
vn -0.6827 0.0872 0.7254
vn -0.4473 0.4347 0.7816
vn -0.4474 0.4347 0.7816
vn -0.0919 0.6811 0.7264
vn 0.0517 -0.0511 0.9974
vn -0.0919 0.6810 0.7265
vn 0.0150 -0.0349 0.9993
vn 0.5231 -0.5134 0.6803
vn 0.0517 -0.0512 0.9974
vn 0.1618 -0.7114 0.6839
vn 0.0149 -0.0349 0.9993
vn 0.0028 -0.7080 0.7063
vn 0.7136 -0.7005 -0.0000
vn 0.0042 -1.0000 -0.0000
vn -0.0142 0.0338 0.9993
vn 0.0885 -0.6827 0.7253
vn -0.1556 0.7124 0.6843
vn -0.2186 0.9758 -0.0000
vn -0.1556 0.7124 -0.6843
vn -0.2186 0.9758 -0.0001
vn -0.0142 0.0338 -0.9993
vn 0.0886 -0.6827 -0.7253
vn -0.0141 0.0338 -0.9993
vn 0.0005 -0.7092 -0.7051
vn 0.0007 -1.0000 -0.0000
vn 0.1164 -0.9932 -0.0000
vn 0.6999 -0.7142 -0.0000
vn 0.4378 -0.4461 -0.7806
vn 0.9927 -0.1207 -0.0000
vn 0.6816 -0.0917 -0.7260
vn 0.6816 -0.0916 -0.7259
vn 1.0000 -0.0008 -0.0000
vn 0.0886 -0.6827 -0.7254
vn -0.0506 0.0510 -0.9974
vn 0.4378 -0.4460 -0.7806
vn -0.0343 0.0147 -0.9993
vn -0.0343 0.0146 -0.9993
vn 0.6816 -0.0916 -0.7260
vn 0.7091 -0.0005 -0.7051
vn -0.1556 0.7124 -0.6844
vn -0.0142 0.0339 -0.9993
vn -0.0507 0.0511 -0.9974
vn -0.5148 0.5212 -0.6806
vn -0.5149 0.5212 -0.6806
vn -0.0507 0.0510 -0.9974
vn -0.0344 0.0147 -0.9993
vn -0.7115 0.1602 -0.6841
vn -0.7115 0.1603 -0.6841
vn -0.0344 0.0146 -0.9993
vn -0.7028 0.7114 -0.0000
vn -0.7115 0.1603 -0.6842
vn -0.9743 0.2251 -0.0000
vn -0.9744 0.2250 -0.0000
vn -0.7095 0.0008 -0.7048
vn -0.5149 0.5212 0.6806
vn -0.5148 0.5213 0.6806
vn -0.7029 0.7113 -0.0000
vn -0.7115 0.1603 0.6841
vn -1.0000 0.0012 -0.0000
vn -0.0142 0.0339 0.9993
vn -0.5148 0.5212 0.6806
vn -0.0507 0.0511 0.9974
vn -0.0507 0.0510 0.9974
vn -0.0344 0.0147 0.9993
vn -0.0344 0.0146 0.9993
vn 0.0886 -0.6826 0.7254
vn -0.0506 0.0510 0.9974
vn 0.4378 -0.4461 0.7806
vn 0.4378 -0.4460 0.7806
vn -0.0343 0.0146 0.9993
vn 0.6816 -0.0916 0.7260
vn 0.6816 -0.0917 0.7260
vn 0.6816 -0.0917 0.7259
vn -0.7089 -0.0014 0.7053
vn 0.0345 0.0148 0.9993
vn -0.6813 -0.0922 0.7262
vn 0.7114 0.1613 0.6841
vn 0.0346 0.0148 0.9993
vn 0.9740 0.2265 -0.0000
vn 0.7114 0.1613 0.6840
vn 0.7114 0.1613 -0.6840
vn 0.0346 0.0148 -0.9993
vn 0.7114 0.1613 -0.6841
vn -0.6813 -0.0922 -0.7262
vn 0.0345 0.0147 -0.9993
vn -0.7089 -0.0014 -0.7053
vn -1.0000 -0.0018 -0.0000
vn -0.9926 -0.1214 -0.0001
vn -0.6813 -0.0922 -0.7261
vn -0.6813 -0.0922 0.7261
vn -0.9926 -0.1214 -0.0000
vn -0.9926 -0.1215 -0.0000
vn -0.6968 -0.7173 -0.0000
vn -0.4359 -0.4477 -0.7808
vn -0.4359 -0.4476 -0.7808
vn -0.6968 -0.7172 -0.0000
vn -0.1154 -0.9933 -0.0000
vn -0.0878 -0.6829 -0.7252
vn -0.1154 -0.9933 -0.0001
vn -0.0006 -1.0000 -0.0000
vn -0.0005 -0.7092 -0.7050
vn 0.0345 0.0148 -0.9993
vn 0.0506 0.0512 -0.9974
vn 0.0507 0.0512 -0.9974
vn -0.4358 -0.4477 -0.7808
vn -0.0878 -0.6828 -0.7253
vn 0.0141 0.0337 -0.9993
vn 0.7113 0.1614 -0.6841
vn 0.5135 0.5226 -0.6806
vn 0.5135 0.5227 -0.6806
vn 0.0507 0.0513 -0.9974
vn 0.0141 0.0338 -0.9993
vn 0.1546 0.7126 -0.6844
vn 0.1547 0.7126 -0.6843
vn 0.5135 0.5226 -0.6805
vn 0.7010 0.7132 -0.0000
vn 0.2173 0.9761 -0.0000
vn 0.0007 0.7095 -0.7047
vn 0.5135 0.5226 0.6806
vn 0.1547 0.7126 0.6843
vn 0.1546 0.7126 0.6843
vn 0.7113 0.1613 0.6841
vn 0.5136 0.5226 0.6805
vn 0.0507 0.0512 0.9974
vn 0.0507 0.0513 0.9974
vn 0.0141 0.0338 0.9993
vn 0.0506 0.0512 0.9974
vn -0.4359 -0.4476 0.7808
vn 0.0141 0.0337 0.9993
vn -0.0878 -0.6828 0.7253
vn -0.0879 -0.6829 0.7253
vn -0.1153 -0.9933 -0.0000
vn -0.0878 -0.6829 0.7252
vn -0.0005 -0.7092 0.7050
vn -0.0007 -1.0000 -0.0000
vn 0.0172 -0.0379 0.9991
vn -0.1004 0.6764 0.7297
vn 0.0257 -0.7146 0.6990
vn 0.1784 -0.7085 0.6828
vn 0.0172 -0.0380 0.9991
vn 0.0378 -0.9993 -0.0005
vn 0.2498 -0.9683 -0.0000
vn 0.0378 -0.9993 -0.0006
vn 0.1784 -0.7085 -0.6828
vn 0.0172 -0.0380 -0.9991
vn -0.0182 0.7030 -0.7109
vn -0.1004 0.6764 -0.7297
vn 0.0171 -0.0379 -0.9991
vn -0.0182 0.7031 -0.7109
vn -0.0236 0.9997 -0.0006
vn -0.1318 0.9913 -0.0000
vn -0.1004 0.6764 0.7296
vn -0.1319 0.9913 -0.0000
vn -0.1004 0.6764 -0.7296
vn -0.7649 0.6442 -0.0000
vn -0.4716 0.4031 -0.7843
vn -0.7648 0.6442 -0.0000
vn -0.9952 0.0976 -0.0000
vn -0.6855 0.0754 -0.7242
vn -0.7090 0.0011 -0.7052
vn 0.0546 -0.0513 -0.9972
vn 0.0546 -0.0514 -0.9972
vn -0.4716 0.4030 -0.7843
vn -0.6854 0.0754 -0.7242
vn 0.0331 -0.0131 -0.9994
vn 0.0332 -0.0130 -0.9994
vn 0.5443 -0.4920 -0.6794
vn 0.5444 -0.4920 -0.6794
vn 0.0547 -0.0514 -0.9972
vn 0.0332 -0.0131 -0.9994
vn 0.7156 -0.1397 -0.6844
vn 0.0333 -0.0130 -0.9994
vn 0.0007 -0.0000 -1.0000
vn 0.7412 -0.6713 -0.0000
vn 0.9805 -0.1967 -0.0000
vn 0.7156 -0.1397 -0.6843
vn 0.5443 -0.4921 0.6794
vn 0.5444 -0.4920 0.6794
vn 0.7156 -0.1397 0.6844
vn 0.7156 -0.1396 0.6844
vn 0.9805 -0.1967 0.0001
vn 1.0000 -0.0021 -0.0000
vn 0.0546 -0.0514 0.9972
vn 0.0332 -0.0131 0.9994
vn 0.0333 -0.0131 0.9994
vn 0.0007 -0.0000 1.0000
vn 0.0546 -0.0513 0.9972
vn -0.4716 0.4031 0.7843
vn -0.4716 0.4030 0.7843
vn 0.0332 -0.0130 0.9994
vn -0.6854 0.0754 0.7243
vn -0.6854 0.0754 0.7242
vn -0.7648 0.6443 -0.0000
vn -0.6855 0.0754 0.7242
vn -0.1824 0.6834 -0.7069
vn -0.0241 0.9991 -0.0348
vn -0.0399 -0.0005 -0.9992
vn -0.2523 -0.0000 -0.9676
vn -0.1823 0.6834 -0.7069
vn -0.1823 -0.6834 -0.7069
vn -0.2524 -0.0000 -0.9676
vn -0.0279 -0.7000 -0.7136
vn -0.0241 -0.9991 -0.0348
vn -0.1824 -0.6834 -0.7069
vn 0.0149 -0.7107 0.7033
vn 0.0906 -0.7281 0.6794
vn -0.0241 -0.9991 -0.0347
vn 0.0202 -0.0007 0.9998
vn 0.1215 -0.0000 0.9926
vn 0.0906 -0.7281 0.6795
vn 0.0150 0.7100 0.7041
vn 0.0906 0.7281 0.6795
vn 0.1215 0.0001 0.9926
vn -0.0241 0.9991 -0.0347
vn 0.0906 0.7281 0.6794
vn -0.5465 0.6798 -0.4891
vn -0.0604 0.9972 -0.0433
vn -0.7166 0.6842 -0.1350
vn -0.0348 0.9994 -0.0057
vn -0.0349 0.9994 -0.0056
vn -0.7166 0.6843 -0.1350
vn -0.7135 0.6980 -0.0616
vn -0.0092 0.9991 -0.0405
vn -0.1824 0.6833 -0.7069
vn -0.7419 -0.0000 -0.6705
vn -0.9812 0.0001 -0.1932
vn -0.7167 0.6842 -0.1349
vn -0.9812 -0.0000 -0.1932
vn -0.9975 -0.0000 -0.0703
vn -0.7135 0.6979 -0.0616
vn -0.1824 -0.6833 -0.7070
vn -0.5465 -0.6798 -0.4891
vn -0.5465 -0.6798 -0.4892
vn -0.7167 -0.6842 -0.1350
vn -0.9812 -0.0000 -0.1931
vn -0.7135 -0.6979 -0.0616
vn -0.0604 -0.9972 -0.0433
vn -0.0348 -0.9994 -0.0057
vn -0.7167 -0.6843 -0.1349
vn -0.0348 -0.9994 -0.0056
vn -0.0092 -0.9991 -0.0405
vn -0.7135 -0.6980 -0.0616
vn 0.4595 -0.7826 0.4201
vn -0.0603 -0.9972 -0.0433
vn 0.4595 -0.7826 0.4200
vn 0.6839 -0.7244 0.0871
vn 0.6838 -0.7244 0.0871
vn 0.7042 -0.7096 -0.0259
vn -0.0091 -0.9991 -0.0405
vn 0.7461 -0.0000 0.6658
vn 0.4596 -0.7825 0.4200
vn 0.7461 -0.0000 0.6659
vn 0.9938 -0.0000 0.1112
vn 0.9938 -0.0001 0.1112
vn 0.9998 -0.0000 -0.0198
vn 0.7042 -0.7095 -0.0259
vn 0.4595 0.7826 0.4200
vn 0.4595 0.7825 0.4201
vn 0.6838 0.7244 0.0871
vn 0.9938 0.0001 0.1112
vn 0.6839 0.7244 0.0871
vn 0.7042 0.7095 -0.0259
vn 0.0907 0.7281 0.6794
vn 0.4595 0.7826 0.4201
vn -0.0348 0.9994 -0.0056
vn -0.0091 0.9991 -0.0405
vn 0.7042 0.7096 -0.0259
vn -0.7141 -0.6970 -0.0657
vn 0.7038 -0.7100 -0.0222
vn 0.7038 0.7100 -0.0222
vn -0.0013 0.9877 -0.1563
vn 0.9998 -0.0000 -0.0199
vn 0.7042 0.7095 -0.0260
vn -0.7135 0.6980 -0.0617
vt 0.636322 0.771411
vt 0.587470 0.804750
vt 0.582466 0.801554
vt 0.635177 0.765465
vt 0.576221 0.861411
vt 0.570569 0.862499
vt 0.433500 0.501817
vt 0.495149 0.501817
vt 0.495149 0.744281
vt 0.433500 0.744281
vt 0.667721 0.922223
vt 0.668877 0.928042
vt 0.605422 0.915050
vt 0.608737 0.910132
vt 0.727696 0.832155
vt 0.733433 0.831018
vt 0.721608 0.892773
vt 0.716620 0.889535
vt 0.310201 0.501817
vt 0.371850 0.501817
vt 0.371850 0.744281
vt 0.310201 0.744281
vt 0.687564 0.793554
vt 0.638896 0.784065
vt 0.637511 0.777194
vt 0.691445 0.787669
vt 0.581871 0.860294
vt 0.612010 0.905265
vt 0.125252 0.501817
vt 0.186902 0.501817
vt 0.186902 0.744281
vt 0.125252 0.744281
vt 0.248551 0.501817
vt 0.248551 0.744281
vt 0.666609 0.916401
vt 0.711799 0.886320
vt 0.694675 0.782803
vt 0.697976 0.777719
vt 0.063603 0.501817
vt 0.063603 0.744281
vt 0.602608 0.814790
vt 0.598019 0.811727
vt 0.639988 0.789629
vt 0.592254 0.807905
vt 0.641149 0.795086
vt 0.607213 0.817814
vt 0.722022 0.833305
vt 0.619061 0.894562
vt 0.615915 0.899401
vt 0.588618 0.858968
vt 0.594043 0.857906
vt 0.701466 0.879486
vt 0.706041 0.882519
vt 0.665296 0.909466
vt 0.664231 0.903895
vt 0.684425 0.798269
vt 0.715204 0.834694
vt 0.709684 0.835861
vt 0.681227 0.803114
vt 0.599435 0.856891
vt 0.622123 0.889732
vt 0.663198 0.898415
vt 0.696941 0.876438
vt 0.704000 0.837048
vt 0.001953 0.501817
vt 0.001953 0.744281
vt 0.000000 0.000000
s 1
usemtl Material.003
f 23/1/1 5/2/2 4/3/3 3/4/4
f 31/5/5 6/6/6 4/3/3 5/2/2
f 7/7/7 2/8/8 4/9/3 6/10/6
f 12/11/9 11/12/10 9/13/11 10/14/12
f 18/15/13 17/16/14 15/17/15 16/18/16
f 13/19/17 8/20/18 9/21/11 11/22/10
f 46/23/19 25/24/20 24/25/21 48/26/22
f 30/27/23 36/28/24 10/14/12 31/5/5
f 8/20/18 7/7/7 6/10/6 9/21/11
f 20/29/25 19/30/26 17/31/14 21/32/27
f 19/30/26 14/33/28 15/34/15 17/31/14
f 37/35/29 42/36/30 16/18/16 12/11/9
f 22/37/31 23/1/1 3/4/4 21/38/27
f 48/26/22 24/25/21 23/1/1 22/37/31
f 1/39/32 20/29/25 21/32/27 3/40/4
f 28/41/33 27/42/34 25/24/20 26/43/35
f 14/33/28 13/19/17 11/22/10 15/34/15
f 24/25/21 29/44/36 5/2/2 23/1/1
f 29/44/36 30/27/23 31/5/5 5/2/2
f 25/24/20 27/42/34 29/44/36 24/25/21
f 50/45/37 51/46/38 28/41/33 26/43/35
f 43/47/39 48/26/22 22/37/31 18/15/13
f 35/48/40 34/49/41 32/50/42 33/51/43
f 27/42/34 32/50/42 30/27/23 29/44/36
f 31/5/5 10/14/12 9/13/11 6/6/6
f 36/28/24 37/35/29 12/11/9 10/14/12
f 32/50/42 34/49/41 36/28/24 30/27/23
f 28/41/33 33/51/43 32/50/42 27/42/34
f 41/52/44 40/53/45 38/54/46 39/55/47
f 34/49/41 38/54/46 37/35/29 36/28/24
f 12/11/9 16/18/16 15/17/15 11/12/10
f 42/36/30 43/47/39 18/15/13 16/18/16
f 38/54/46 40/53/45 42/36/30 37/35/29
f 35/48/40 39/55/47 38/54/46 34/49/41
f 47/56/48 46/23/19 44/57/49 45/58/50
f 40/53/45 44/57/49 43/47/39 42/36/30
f 18/15/13 22/37/31 21/38/27 17/16/14
f 49/59/51 50/45/37 26/43/35 47/56/48
f 44/57/49 46/23/19 48/26/22 43/47/39
f 41/52/44 45/58/50 44/57/49 40/53/45
f 47/56/48 26/43/35 25/24/20 46/23/19
f 51/46/38 52/60/52 33/51/43 28/41/33
f 52/60/52 53/61/53 35/48/40 33/51/43
f 53/61/53 54/62/54 39/55/47 35/48/40
f 54/62/54 55/63/55 41/52/44 39/55/47
f 55/63/55 56/64/56 45/58/50 41/52/44
f 56/64/56 49/59/51 47/56/48 45/58/50
f 2/65/8 1/39/32 3/40/4 4/66/3
f 79/1/1 61/2/2 60/3/3 59/4/4
f 87/5/5 62/6/6 60/3/3 61/2/2
f 63/7/7 58/8/8 60/9/3 62/10/6
f 68/11/9 67/12/10 65/13/11 66/14/12
f 74/15/13 73/16/14 71/17/57 72/18/16
f 69/19/17 64/20/18 65/21/11 67/22/10
f 102/23/19 81/24/20 80/25/58 104/26/22
f 86/27/59 92/28/24 66/14/12 87/5/5
f 64/20/18 63/7/7 62/10/6 65/21/11
f 76/29/25 75/30/26 73/31/14 77/32/27
f 75/30/26 70/33/28 71/34/57 73/31/14
f 93/35/29 98/36/30 72/18/16 68/11/9
f 78/37/31 79/1/1 59/4/4 77/38/27
f 104/26/22 80/25/58 79/1/1 78/37/31
f 57/39/32 76/29/25 77/32/27 59/40/4
f 84/41/60 83/42/34 81/24/20 82/43/35
f 70/33/28 69/19/17 67/22/10 71/34/57
f 80/25/58 85/44/36 61/2/2 79/1/1
f 85/44/36 86/27/59 87/5/5 61/2/2
f 81/24/20 83/42/34 85/44/36 80/25/58
f 106/45/61 107/46/38 84/41/60 82/43/35
f 99/47/62 104/26/22 78/37/31 74/15/13
f 91/48/40 90/49/41 88/50/42 89/51/43
f 83/42/34 88/50/42 86/27/59 85/44/36
f 87/5/5 66/14/12 65/13/11 62/6/6
f 92/28/24 93/35/29 68/11/9 66/14/12
f 88/50/42 90/49/41 92/28/24 86/27/59
f 84/41/60 89/51/43 88/50/42 83/42/34
f 97/52/63 96/53/45 94/54/46 95/55/47
f 90/49/41 94/54/46 93/35/29 92/28/24
f 68/11/9 72/18/16 71/17/57 67/12/10
f 98/36/30 99/47/62 74/15/13 72/18/16
f 94/54/46 96/53/45 98/36/30 93/35/29
f 91/48/40 95/55/47 94/54/46 90/49/41
f 103/56/48 102/23/19 100/57/49 101/58/50
f 96/53/45 100/57/49 99/47/62 98/36/30
f 74/15/13 78/37/31 77/38/27 73/16/14
f 105/59/64 106/45/61 82/43/35 103/56/48
f 100/57/49 102/23/19 104/26/22 99/47/62
f 97/52/63 101/58/50 100/57/49 96/53/45
f 103/56/48 82/43/35 81/24/20 102/23/19
f 107/46/38 108/60/52 89/51/43 84/41/60
f 108/60/52 109/61/65 91/48/40 89/51/43
f 109/61/65 110/62/54 95/55/47 91/48/40
f 110/62/54 111/63/55 97/52/63 95/55/47
f 111/63/55 112/64/56 101/58/50 97/52/63
f 112/64/56 105/59/64 103/56/48 101/58/50
f 58/65/8 57/39/32 59/40/4 60/66/3
s 0
f 118/67/66 122/67/67 169/67/68 165/67/69
f 165/67/70 169/67/71 121/67/72 117/67/73
f 119/67/74 123/67/75 170/67/76 166/67/77
f 166/67/77 170/67/78 122/67/79 118/67/66
f 120/67/80 124/67/81 171/67/82 167/67/83
f 167/67/84 171/67/85 123/67/75 119/67/74
f 117/67/73 121/67/86 172/67/87 168/67/88
f 168/67/88 172/67/89 124/67/90 120/67/80
f 126/67/91 130/67/92 177/67/93 173/67/94
f 173/67/94 177/67/93 129/67/95 125/67/96
f 127/67/97 131/67/98 178/67/99 174/67/100
f 174/67/101 178/67/102 130/67/103 126/67/104
f 128/67/105 132/67/106 179/67/107 175/67/108
f 175/67/109 179/67/110 131/67/111 127/67/112
f 125/67/113 129/67/114 180/67/115 176/67/116
f 176/67/117 180/67/118 132/67/106 128/67/119
f 134/67/120 138/67/121 185/67/122 181/67/123
f 181/67/124 185/67/125 137/67/126 133/67/127
f 135/67/128 139/67/129 186/67/130 182/67/130
f 182/67/131 186/67/131 138/67/121 134/67/120
f 136/67/132 140/67/133 187/67/134 183/67/135
f 183/67/136 187/67/137 139/67/138 135/67/139
f 133/67/140 137/67/126 188/67/141 184/67/141
f 184/67/142 188/67/142 140/67/143 136/67/144
f 146/67/145 150/67/146 197/67/147 193/67/148
f 193/67/148 197/67/149 149/67/150 145/67/151
f 147/67/152 151/67/153 198/67/154 194/67/155
f 194/67/156 198/67/157 150/67/158 146/67/159
f 148/67/160 152/67/161 199/67/162 195/67/163
f 195/67/164 199/67/165 151/67/166 147/67/152
f 145/67/167 149/67/168 200/67/169 196/67/170
f 196/67/171 200/67/172 152/67/173 148/67/160
f 154/67/174 158/67/175 205/67/176 201/67/177
f 201/67/178 205/67/179 157/67/180 153/67/181
f 155/67/182 159/67/183 206/67/184 202/67/185
f 202/67/185 206/67/186 158/67/187 154/67/188
f 156/67/189 160/67/190 207/67/191 203/67/192
f 203/67/193 207/67/191 159/67/194 155/67/195
f 153/67/196 157/67/197 208/67/198 204/67/199
f 204/67/199 208/67/200 160/67/190 156/67/189
f 122/67/201 170/67/78 229/67/202 230/67/203
f 170/67/204 123/67/75 226/67/205 229/67/202
f 123/67/75 171/67/85 223/67/206 226/67/207
f 171/67/82 124/67/81 220/67/208 223/67/209
f 124/67/210 172/67/211 217/67/212 220/67/213
f 172/67/214 121/67/86 214/67/215 217/67/212
f 121/67/72 169/67/71 211/67/216 214/67/215
f 169/67/68 122/67/67 230/67/217 211/67/218
f 214/67/215 211/67/216 210/67/219 213/67/220
f 213/67/221 210/67/222 209/67/223 212/67/224
f 212/67/224 209/67/225 161/67/226 113/67/227
f 217/67/228 214/67/215 213/67/220 216/67/229
f 216/67/229 213/67/220 212/67/224 215/67/230
f 215/67/230 212/67/224 113/67/227 164/67/231
f 220/67/208 217/67/228 216/67/232 219/67/233
f 219/67/233 216/67/232 215/67/234 218/67/235
f 218/67/235 215/67/230 164/67/231 116/67/236
f 223/67/209 220/67/208 219/67/233 222/67/237
f 222/67/238 219/67/233 218/67/235 221/67/239
f 221/67/240 218/67/235 116/67/241 163/67/242
f 226/67/207 223/67/206 222/67/238 225/67/243
f 225/67/243 222/67/244 221/67/240 224/67/245
f 224/67/245 221/67/240 163/67/242 115/67/246
f 229/67/247 226/67/248 225/67/243 228/67/249
f 228/67/249 225/67/243 224/67/245 227/67/250
f 227/67/250 224/67/245 115/67/251 162/67/252
f 230/67/217 229/67/253 228/67/254 231/67/255
f 231/67/256 228/67/249 227/67/250 232/67/257
f 232/67/257 227/67/258 162/67/252 114/67/259
f 211/67/218 230/67/260 231/67/256 210/67/261
f 210/67/261 231/67/262 232/67/257 209/67/263
f 209/67/263 232/67/257 114/67/264 161/67/226
f 130/67/103 178/67/102 253/67/265 254/67/266
f 178/67/99 131/67/98 250/67/267 253/67/268
f 131/67/269 179/67/110 247/67/270 250/67/267
f 179/67/110 132/67/106 244/67/271 247/67/270
f 132/67/106 180/67/118 241/67/272 244/67/271
f 180/67/115 129/67/114 238/67/273 241/67/274
f 129/67/275 177/67/93 235/67/276 238/67/277
f 177/67/93 130/67/278 254/67/279 235/67/276
f 238/67/277 235/67/276 234/67/280 237/67/281
f 237/67/281 234/67/280 233/67/282 236/67/283
f 236/67/283 233/67/282 165/67/284 117/67/73
f 241/67/285 238/67/273 237/67/281 240/67/286
f 240/67/287 237/67/281 236/67/283 239/67/288
f 239/67/289 236/67/283 117/67/73 168/67/290
f 244/67/271 241/67/272 240/67/286 243/67/291
f 243/67/291 240/67/292 239/67/289 242/67/293
f 242/67/294 239/67/289 168/67/295 120/67/80
f 247/67/270 244/67/271 243/67/291 246/67/296
f 246/67/296 243/67/297 242/67/298 245/67/299
f 245/67/299 242/67/300 120/67/80 167/67/301
f 250/67/302 247/67/270 246/67/296 249/67/303
f 249/67/304 246/67/296 245/67/299 248/67/305
f 248/67/305 245/67/299 167/67/84 119/67/74
f 253/67/268 250/67/267 249/67/303 252/67/306
f 252/67/306 249/67/303 248/67/307 251/67/308
f 251/67/308 248/67/307 119/67/74 166/67/77
f 254/67/266 253/67/265 252/67/306 255/67/309
f 255/67/309 252/67/310 251/67/308 256/67/311
f 256/67/311 251/67/312 166/67/77 118/67/313
f 235/67/276 254/67/266 255/67/309 234/67/314
f 234/67/280 255/67/309 256/67/311 233/67/282
f 233/67/282 256/67/311 118/67/66 165/67/315
f 138/67/121 186/67/131 277/67/316 278/67/317
f 186/67/130 139/67/129 274/67/318 277/67/316
f 139/67/138 187/67/137 271/67/319 274/67/318
f 187/67/134 140/67/133 268/67/320 271/67/321
f 140/67/143 188/67/142 265/67/322 268/67/320
f 188/67/141 137/67/126 262/67/323 265/67/324
f 137/67/325 185/67/326 259/67/327 262/67/323
f 185/67/326 138/67/121 278/67/317 259/67/327
f 262/67/323 259/67/327 258/67/328 261/67/329
f 261/67/329 258/67/328 257/67/330 260/67/331
f 260/67/332 257/67/330 173/67/333 125/67/96
f 265/67/324 262/67/334 261/67/329 264/67/335
f 264/67/335 261/67/336 260/67/331 263/67/337
f 263/67/338 260/67/339 125/67/340 176/67/116
f 268/67/341 265/67/342 264/67/343 267/67/344
f 267/67/345 264/67/346 263/67/347 266/67/348
f 266/67/349 263/67/350 176/67/117 128/67/119
f 271/67/319 268/67/320 267/67/345 270/67/351
f 270/67/351 267/67/344 266/67/352 269/67/353
f 269/67/354 266/67/349 128/67/355 175/67/109
f 274/67/318 271/67/319 270/67/351 273/67/356
f 273/67/357 270/67/358 269/67/353 272/67/359
f 272/67/359 269/67/353 175/67/360 127/67/112
f 277/67/361 274/67/318 273/67/362 276/67/363
f 276/67/364 273/67/356 272/67/359 275/67/365
f 275/67/366 272/67/359 127/67/97 174/67/100
f 278/67/367 277/67/316 276/67/368 279/67/369
f 279/67/370 276/67/364 275/67/371 280/67/372
f 280/67/372 275/67/371 174/67/101 126/67/104
f 259/67/327 278/67/317 279/67/369 258/67/328
f 258/67/328 279/67/369 280/67/373 257/67/330
f 257/67/330 280/67/374 126/67/91 173/67/333
f 150/67/375 198/67/157 301/67/376 302/67/377
f 198/67/154 151/67/166 298/67/378 301/67/379
f 151/67/153 199/67/162 295/67/380 298/67/381
f 199/67/162 152/67/173 292/67/382 295/67/380
f 152/67/173 200/67/172 289/67/383 292/67/384
f 200/67/169 149/67/168 286/67/385 289/67/386
f 149/67/387 197/67/388 283/67/389 286/67/390
f 197/67/388 150/67/375 302/67/391 283/67/392
f 286/67/390 283/67/393 282/67/394 285/67/395
f 285/67/396 282/67/397 281/67/398 284/67/399
f 284/67/399 281/67/400 181/67/401 133/67/402
f 289/67/403 286/67/385 285/67/396 288/67/404
f 288/67/405 285/67/406 284/67/407 287/67/408
f 287/67/408 284/67/407 133/67/127 184/67/141
f 292/67/409 289/67/383 288/67/405 291/67/410
f 291/67/411 288/67/412 287/67/413 290/67/414
f 290/67/415 287/67/413 184/67/142 136/67/144
f 295/67/380 292/67/382 291/67/416 294/67/417
f 294/67/417 291/67/410 290/67/415 293/67/418
f 293/67/418 290/67/415 136/67/419 183/67/136
f 298/67/381 295/67/380 294/67/417 297/67/420
f 297/67/420 294/67/417 293/67/418 296/67/421
f 296/67/422 293/67/418 183/67/136 135/67/139
f 301/67/379 298/67/423 297/67/424 300/67/425
f 300/67/426 297/67/420 296/67/421 299/67/427
f 299/67/427 296/67/421 135/67/128 182/67/130
f 302/67/377 301/67/376 300/67/428 303/67/429
f 303/67/429 300/67/428 299/67/430 304/67/431
f 304/67/431 299/67/430 182/67/130 134/67/120
f 283/67/393 302/67/391 303/67/429 282/67/394
f 282/67/397 303/67/429 304/67/432 281/67/398
f 281/67/433 304/67/434 134/67/435 181/67/436
f 158/67/187 206/67/186 325/67/437 326/67/438
f 206/67/184 159/67/439 322/67/440 325/67/441
f 159/67/194 207/67/442 319/67/443 322/67/440
f 207/67/444 160/67/190 316/67/445 319/67/443
f 160/67/190 208/67/200 313/67/446 316/67/445
f 208/67/198 157/67/447 310/67/448 313/67/449
f 157/67/450 205/67/451 307/67/452 310/67/448
f 205/67/451 158/67/175 326/67/453 307/67/454
f 310/67/455 307/67/454 306/67/456 309/67/457
f 309/67/457 306/67/458 305/67/459 308/67/460
f 308/67/460 305/67/459 193/67/148 145/67/461
f 313/67/449 310/67/448 309/67/457 312/67/462
f 312/67/463 309/67/464 308/67/465 311/67/466
f 311/67/467 308/67/465 145/67/167 196/67/170
f 316/67/445 313/67/446 312/67/463 315/67/468
f 315/67/469 312/67/470 311/67/471 314/67/472
f 314/67/472 311/67/473 196/67/474 148/67/160
f 319/67/443 316/67/445 315/67/469 318/67/475
f 318/67/475 315/67/469 314/67/472 317/67/476
f 317/67/476 314/67/477 148/67/160 195/67/163
f 322/67/440 319/67/443 318/67/475 321/67/478
f 321/67/479 318/67/475 317/67/476 320/67/480
f 320/67/481 317/67/482 195/67/483 147/67/152
f 325/67/441 322/67/440 321/67/478 324/67/484
f 324/67/484 321/67/479 320/67/480 323/67/485
f 323/67/486 320/67/480 147/67/152 194/67/487
f 326/67/438 325/67/437 324/67/488 327/67/489
f 327/67/490 324/67/488 323/67/491 328/67/492
f 328/67/493 323/67/491 194/67/156 146/67/159
f 307/67/454 326/67/453 327/67/489 306/67/458
f 306/67/494 327/67/489 328/67/493 305/67/459
f 305/67/459 328/67/495 146/67/145 193/67/148
f 201/67/178 153/67/181 334/67/496 329/67/497
f 153/67/196 204/67/498 337/67/499 334/67/500
f 204/67/498 156/67/189 340/67/501 337/67/502
f 156/67/503 203/67/192 343/67/504 340/67/505
f 203/67/193 155/67/506 346/67/507 343/67/508
f 155/67/195 202/67/509 349/67/510 346/67/511
f 202/67/185 154/67/512 352/67/513 349/67/514
f 154/67/174 201/67/178 329/67/515 352/67/516
f 329/67/497 334/67/500 333/67/517 330/67/518
f 330/67/518 333/67/517 332/67/519 331/67/520
f 331/67/521 332/67/522 141/67/523 189/67/524
f 334/67/525 337/67/502 336/67/526 333/67/517
f 333/67/517 336/67/526 335/67/527 332/67/528
f 332/67/528 335/67/529 192/67/530 141/67/531
f 337/67/502 340/67/532 339/67/533 336/67/526
f 336/67/526 339/67/534 338/67/535 335/67/529
f 335/67/536 338/67/535 144/67/537 192/67/530
f 340/67/505 343/67/504 342/67/538 339/67/533
f 339/67/533 342/67/538 341/67/539 338/67/540
f 338/67/540 341/67/541 191/67/542 144/67/543
f 343/67/504 346/67/507 345/67/544 342/67/545
f 342/67/538 345/67/546 344/67/547 341/67/539
f 341/67/539 344/67/548 143/67/549 191/67/550
f 346/67/511 349/67/510 348/67/551 345/67/552
f 345/67/544 348/67/553 347/67/554 344/67/547
f 344/67/547 347/67/555 190/67/556 143/67/557
f 349/67/510 352/67/513 351/67/558 348/67/553
f 348/67/553 351/67/559 350/67/560 347/67/554
f 347/67/561 350/67/562 142/67/563 190/67/556
f 352/67/564 329/67/515 330/67/518 351/67/565
f 351/67/565 330/67/518 331/67/520 350/67/560
f 350/67/560 331/67/566 189/67/567 142/67/568
s 1
f 113/67/569 161/67/226 51/46/38 50/45/37
f 161/67/226 114/67/570 52/60/52 51/46/38
f 114/67/570 162/67/252 53/61/53 52/60/52
f 162/67/252 115/67/571 54/62/54 53/61/53
f 115/67/571 163/67/242 55/63/572 54/62/54
f 163/67/242 116/67/241 56/64/56 55/63/572
f 116/67/241 164/67/231 49/59/51 56/64/56
f 164/67/231 113/67/569 50/45/37 49/59/51
f 144/67/543 191/67/550 107/46/38 106/45/37
f 191/67/550 143/67/557 108/60/52 107/46/38
f 143/67/557 190/67/573 109/61/53 108/60/52
f 190/67/573 142/67/574 110/62/54 109/61/53
f 142/67/574 189/67/567 111/63/55 110/62/54
f 189/67/567 141/67/575 112/64/56 111/63/55
f 141/67/575 192/67/530 105/59/64 112/64/56
f 192/67/530 144/67/543 106/45/37 105/59/64
