# Blender 5.0.1
# www.blender.org
mtllib Wire_Head_Red(24V-SS).mtl
o Wire_Head_Red(24V-SS)
v 0.183898 0.153250 0.249517
v 0.186018 0.152371 0.249517
v 0.183898 0.153250 0.240313
v 0.186018 0.152371 0.240313
v 0.186018 0.152455 0.240115
v 0.188139 0.153250 0.240313
v 0.188139 0.153250 0.249517
v 0.189017 0.155370 0.249517
v 0.189017 0.155370 0.240313
v 0.188934 0.155370 0.240115
v 0.188139 0.157491 0.240313
v 0.188080 0.157431 0.240115
v 0.188139 0.157491 0.249517
v 0.186018 0.158369 0.249517
v 0.186018 0.158369 0.240313
v 0.186018 0.158285 0.240115
v 0.183898 0.157491 0.240313
v 0.183957 0.157431 0.240115
v 0.183898 0.157491 0.249517
v 0.183020 0.155370 0.249517
v 0.183020 0.155370 0.240313
v 0.183103 0.155370 0.240115
v 0.183957 0.153309 0.240115
v 0.184100 0.153452 0.240033
v 0.184288 0.153639 0.240033
v 0.184431 0.153782 0.240115
v 0.186018 0.152923 0.240033
v 0.186018 0.153125 0.240115
v 0.186018 0.152657 0.240033
v 0.187937 0.153452 0.240033
v 0.188080 0.153309 0.240115
v 0.187749 0.153639 0.240033
v 0.187606 0.153782 0.240115
v 0.188466 0.155370 0.240033
v 0.188264 0.155370 0.240115
v 0.188732 0.155370 0.240033
v 0.187937 0.157289 0.240033
v 0.187749 0.157101 0.240033
v 0.187606 0.156958 0.240115
v 0.186018 0.157817 0.240033
v 0.186018 0.157615 0.240115
v 0.186018 0.158083 0.240033
v 0.184100 0.157289 0.240033
v 0.184288 0.157101 0.240033
v 0.184431 0.156958 0.240115
v 0.183571 0.155370 0.240033
v 0.183773 0.155370 0.240115
v 0.183305 0.155370 0.240033
v 0.183857 0.155370 0.240313
v 0.184490 0.153841 0.240313
v 0.186018 0.153208 0.240313
v 0.187547 0.153841 0.240313
v 0.188180 0.155370 0.240313
v 0.187547 0.156899 0.240313
v 0.186018 0.157532 0.240313
v 0.184490 0.156899 0.240313
v 0.184639 0.153999 0.238038
v 0.187398 0.153999 0.238038
v 0.187398 0.156740 0.237996
v 0.184639 0.156740 0.237996
v 0.149023 0.124056 0.233116
v 0.151887 0.124014 0.233116
v 0.151887 0.124014 0.230234
v 0.149023 0.124056 0.230234
v 0.149023 -0.029771 0.233116
v 0.151887 -0.029728 0.233116
v 0.151887 -0.029728 0.230234
v 0.149023 -0.029771 0.230234
v 0.176066 -0.037537 0.238038
v 0.176066 -0.034778 0.238038
v 0.178807 -0.034778 0.237996
v 0.178807 -0.037536 0.237996
v 0.156216 -0.037589 0.233116
v 0.156258 -0.034725 0.233116
v 0.156258 -0.034725 0.230234
v 0.156216 -0.037589 0.230234
v 0.171634 -0.037598 0.233108
v 0.171634 -0.034716 0.233108
v 0.171676 -0.034716 0.230243
v 0.171676 -0.037598 0.230243
v 0.180070 0.131875 0.233116
v 0.180112 0.129011 0.233116
v 0.180112 0.129011 0.230234
v 0.180070 0.131875 0.230234
v 0.156361 0.131875 0.233116
v 0.156403 0.129011 0.233116
v 0.156403 0.129011 0.230234
v 0.156361 0.131875 0.230234
v 0.184577 0.149117 0.233108
v 0.187459 0.149117 0.233108
v 0.187459 0.149159 0.230243
v 0.184577 0.149159 0.230243
v 0.184586 0.136696 0.233116
v 0.187451 0.136653 0.233116
v 0.187451 0.136653 0.230234
v 0.184586 0.136696 0.230234
v 0.186018 0.153484 0.238070
v 0.187916 0.155370 0.238040
v 0.186018 0.157256 0.238011
v 0.184120 0.155370 0.238040
v 0.150455 0.124035 0.233657
v 0.152424 0.124006 0.231675
v 0.150455 0.124035 0.229694
v 0.148486 0.124064 0.231675
v 0.150455 -0.029750 0.233657
v 0.152424 -0.029720 0.231675
v 0.150455 -0.029750 0.229694
v 0.148486 -0.029779 0.231675
v 0.175551 -0.036157 0.238070
v 0.177437 -0.034259 0.238040
v 0.179322 -0.036157 0.238011
v 0.177437 -0.038055 0.238040
v 0.156237 -0.036157 0.233657
v 0.156266 -0.034188 0.231675
v 0.156237 -0.036157 0.229694
v 0.156208 -0.038127 0.231675
v 0.171626 -0.036157 0.233645
v 0.171655 -0.034176 0.231675
v 0.171684 -0.036157 0.229706
v 0.171655 -0.038139 0.231675
v 0.180091 0.130443 0.233657
v 0.180120 0.128474 0.231675
v 0.180091 0.130443 0.229694
v 0.180062 0.132412 0.231675
v 0.156382 0.130443 0.233657
v 0.156411 0.128474 0.231675
v 0.156382 0.130443 0.229694
v 0.156353 0.132412 0.231675
v 0.186018 0.149109 0.233645
v 0.188000 0.149138 0.231675
v 0.186018 0.149167 0.229706
v 0.184037 0.149138 0.231675
v 0.186018 0.136675 0.233657
v 0.187988 0.136645 0.231675
v 0.186018 0.136675 0.229694
v 0.184049 0.136704 0.231675
v 0.174415 -0.036157 0.233788
v 0.175185 -0.036157 0.234039
v 0.175419 -0.036157 0.235030
v 0.175928 -0.037552 0.234915
v 0.175574 -0.037567 0.233684
v 0.174551 -0.037583 0.233274
v 0.177292 -0.038076 0.234673
v 0.176636 -0.038097 0.232769
v 0.174932 -0.038118 0.231910
v 0.178651 -0.037552 0.234396
v 0.177682 -0.037567 0.231837
v 0.175303 -0.037583 0.230542
v 0.179165 -0.036157 0.234315
v 0.178086 -0.036157 0.231499
v 0.175449 -0.036157 0.230031
v 0.178651 -0.034762 0.234396
v 0.177682 -0.034747 0.231837
v 0.175303 -0.034732 0.230542
v 0.177292 -0.034238 0.234673
v 0.176636 -0.034218 0.232769
v 0.174932 -0.034197 0.231910
v 0.175928 -0.034762 0.234915
v 0.175574 -0.034747 0.233684
v 0.174551 -0.034732 0.233274
v 0.150595 -0.033135 0.233657
v 0.151248 -0.035051 0.233657
v 0.152950 -0.035919 0.233657
v 0.149187 -0.033398 0.233116
v 0.150165 -0.035989 0.233116
v 0.152565 -0.037299 0.233116
v 0.148659 -0.033496 0.231675
v 0.149759 -0.036341 0.231675
v 0.152421 -0.037816 0.231675
v 0.149187 -0.033398 0.230234
v 0.150165 -0.035989 0.230234
v 0.152565 -0.037299 0.230234
v 0.150595 -0.033135 0.229694
v 0.151248 -0.035051 0.229694
v 0.152950 -0.035919 0.229694
v 0.152003 -0.032871 0.230234
v 0.152331 -0.034114 0.230234
v 0.153334 -0.034539 0.230234
v 0.152531 -0.032773 0.231675
v 0.152737 -0.033762 0.231675
v 0.153479 -0.034022 0.231675
v 0.153334 -0.034539 0.233116
v 0.152331 -0.034114 0.233116
v 0.152003 -0.032871 0.233116
v 0.153045 0.130213 0.233657
v 0.151297 0.129361 0.233657
v 0.150609 0.127447 0.233657
v 0.149204 0.127725 0.233116
v 0.150230 0.130317 0.233116
v 0.152675 0.131597 0.233116
v 0.148677 0.127829 0.231675
v 0.149831 0.130676 0.231675
v 0.152537 0.132116 0.231675
v 0.149204 0.127725 0.230234
v 0.150230 0.130317 0.230234
v 0.152675 0.131597 0.230234
v 0.150609 0.127447 0.229694
v 0.151297 0.129361 0.229694
v 0.153045 0.130213 0.229694
v 0.152015 0.127170 0.230234
v 0.152363 0.128405 0.230234
v 0.153415 0.128830 0.230234
v 0.152542 0.127066 0.231675
v 0.152763 0.128046 0.231675
v 0.153554 0.128311 0.231675
v 0.152015 0.127170 0.233116
v 0.152363 0.128405 0.233116
v 0.153415 0.128830 0.233116
v 0.185853 0.133326 0.233657
v 0.185145 0.131468 0.233657
v 0.183393 0.130656 0.233657
v 0.183040 0.132044 0.233116
v 0.184098 0.132445 0.233116
v 0.184451 0.133619 0.233116
v 0.182907 0.132565 0.231675
v 0.183705 0.132811 0.231675
v 0.183925 0.133730 0.231675
v 0.183040 0.132044 0.230234
v 0.184098 0.132445 0.230234
v 0.184451 0.133619 0.230234
v 0.183393 0.130656 0.229694
v 0.185145 0.131468 0.229694
v 0.185853 0.133326 0.229694
v 0.183746 0.129268 0.230234
v 0.186193 0.130491 0.230234
v 0.187255 0.133032 0.230234
v 0.183879 0.128748 0.231675
v 0.186586 0.130125 0.231675
v 0.187780 0.132921 0.231675
v 0.183746 0.129268 0.233116
v 0.186193 0.130491 0.233116
v 0.187255 0.133032 0.233116
v 0.186018 0.153322 0.235003
v 0.186018 0.153038 0.234038
v 0.186018 0.152115 0.233777
v 0.184624 0.153827 0.234873
v 0.184608 0.153407 0.233663
v 0.184593 0.152234 0.233258
v 0.184100 0.155183 0.234587
v 0.184079 0.154419 0.232694
v 0.184058 0.152572 0.231882
v 0.184624 0.156532 0.234268
v 0.184608 0.155416 0.231708
v 0.184593 0.152898 0.230503
v 0.186018 0.157044 0.234171
v 0.186018 0.155801 0.231349
v 0.186018 0.153028 0.229988
v 0.187413 0.156532 0.234268
v 0.187429 0.155416 0.231708
v 0.187444 0.152898 0.230503
v 0.187937 0.155183 0.234587
v 0.187958 0.154419 0.232694
v 0.187979 0.152572 0.231882
v 0.187444 0.152234 0.233258
v 0.187429 0.153407 0.233663
v 0.187413 0.153827 0.234873
v 0.175316 -0.038278 0.249517
v 0.177437 -0.039156 0.249517
v 0.175316 -0.038278 0.240313
v 0.177437 -0.039156 0.240313
v 0.177437 -0.039072 0.240115
v 0.179557 -0.038278 0.240313
v 0.179557 -0.038278 0.249517
v 0.180435 -0.036157 0.249517
v 0.180435 -0.036157 0.240313
v 0.180352 -0.036157 0.240115
v 0.179557 -0.034037 0.240313
v 0.179498 -0.034096 0.240115
v 0.179557 -0.034037 0.249517
v 0.177437 -0.033158 0.249517
v 0.177437 -0.033158 0.240313
v 0.177437 -0.033242 0.240115
v 0.175316 -0.034037 0.240313
v 0.175375 -0.034096 0.240115
v 0.175316 -0.034037 0.249517
v 0.174438 -0.036157 0.249517
v 0.174438 -0.036157 0.240313
v 0.174521 -0.036157 0.240115
v 0.175375 -0.038219 0.240115
v 0.175518 -0.038076 0.240033
v 0.175706 -0.037888 0.240033
v 0.175849 -0.037745 0.240115
v 0.177437 -0.038605 0.240033
v 0.177437 -0.038403 0.240115
v 0.177437 -0.038870 0.240033
v 0.179355 -0.038076 0.240033
v 0.179498 -0.038219 0.240115
v 0.179167 -0.037888 0.240033
v 0.179024 -0.037745 0.240115
v 0.179884 -0.036157 0.240033
v 0.179682 -0.036157 0.240115
v 0.180150 -0.036157 0.240033
v 0.179355 -0.034239 0.240033
v 0.179167 -0.034427 0.240033
v 0.179024 -0.034570 0.240115
v 0.177437 -0.033710 0.240033
v 0.177437 -0.033912 0.240115
v 0.177437 -0.033444 0.240033
v 0.175518 -0.034239 0.240033
v 0.175706 -0.034427 0.240033
v 0.175849 -0.034570 0.240115
v 0.174989 -0.036157 0.240033
v 0.175191 -0.036157 0.240115
v 0.174723 -0.036157 0.240033
v 0.175275 -0.036157 0.240313
v 0.175908 -0.037686 0.240313
v 0.177437 -0.038319 0.240313
v 0.178965 -0.037686 0.240313
v 0.179598 -0.036157 0.240313
v 0.178965 -0.034629 0.240313
v 0.177437 -0.033996 0.240313
v 0.175908 -0.034629 0.240313
vn -0.5349 -0.5349 -0.6540
vn -0.0000 -0.7565 -0.6540
vn -0.0000 -1.0000 -0.0080
vn -0.7071 -0.7071 -0.0080
vn 0.5349 -0.5349 -0.6540
vn 0.7071 -0.7071 -0.0080
vn 0.7071 -0.7071 -0.0000
vn -0.0000 -1.0000 -0.0000
vn 0.5349 0.5349 -0.6540
vn 0.7071 0.7071 -0.0080
vn 1.0000 -0.0000 -0.0080
vn 0.7565 -0.0000 -0.6540
vn -0.5349 0.5349 -0.6540
vn -0.7071 0.7071 -0.0080
vn -0.0000 1.0000 -0.0080
vn -0.0000 0.7565 -0.6540
vn 0.7071 0.7071 -0.0000
vn 1.0000 -0.0000 -0.0000
vn 0.1203 -0.0000 -0.9927
vn 0.0851 0.0851 -0.9927
vn -0.1612 -0.1612 -0.9737
vn -0.2280 -0.0000 -0.9737
vn 0.1612 -0.1612 -0.9737
vn 0.2280 -0.0000 -0.9737
vn -1.0000 -0.0000 -0.0000
vn -0.7071 0.7071 -0.0000
vn -1.0000 -0.0000 -0.0080
vn -0.0000 1.0000 -0.0000
vn 0.1612 0.1612 -0.9737
vn -0.0000 0.2280 -0.9737
vn -0.7565 -0.0000 -0.6540
vn -0.7071 -0.7071 -0.0000
vn -0.0000 0.6443 -0.7648
vn -0.0000 0.1203 -0.9927
vn 0.4556 0.4556 -0.7648
vn -0.0000 -0.2280 -0.9737
vn -0.6959 -0.6979 -0.1691
vn -0.0000 -0.9855 -0.1695
vn -0.1612 0.1612 -0.9737
vn -0.6443 -0.0000 -0.7648
vn -0.1203 -0.0000 -0.9927
vn -0.0851 0.0851 -0.9927
vn -0.4556 0.4556 -0.7648
vn -0.0000 -0.6443 -0.7648
vn -0.0000 -0.1203 -0.9927
vn -0.0851 -0.0851 -0.9927
vn -0.4556 -0.4556 -0.7648
vn 0.6443 -0.0000 -0.7648
vn 0.0851 -0.0851 -0.9927
vn 0.4556 -0.4556 -0.7648
vn -0.9865 0.0013 -0.1637
vn 0.6959 -0.6979 -0.1691
vn 0.9865 0.0013 -0.1636
vn 0.6948 0.6997 -0.1662
vn -0.0000 0.9862 -0.1655
vn -0.6948 0.6997 -0.1662
vn 0.7071 -0.0006 0.7071
vn -0.0037 -0.0000 1.0000
vn 0.7071 0.0005 0.7071
vn 0.7072 -0.0006 -0.7071
vn 1.0000 -0.0008 -0.0001
vn 1.0000 0.0007 -0.0001
vn 0.7072 0.0005 -0.7071
vn -0.0038 -0.0000 1.0000
vn -0.7115 0.0008 0.7027
vn -0.7115 -0.0008 0.7027
vn -0.7115 0.0008 -0.7027
vn -0.0038 -0.0000 -1.0000
vn -0.7115 -0.0008 -0.7027
vn 1.0000 -0.0008 0.0001
vn 0.7072 -0.0006 0.7071
vn 0.7072 0.0005 0.7071
vn 1.0000 0.0007 0.0001
vn -0.7115 0.0008 0.7026
vn -1.0000 0.0012 0.0001
vn -1.0000 -0.0011 0.0001
vn -0.7115 -0.0007 0.7027
vn -0.0037 -0.0000 -1.0000
vn 0.7071 -0.0006 -0.7071
vn 0.7071 0.0005 -0.7071
vn -1.0000 0.0012 -0.0001
vn -0.7115 0.0008 -0.7026
vn -0.7115 -0.0007 -0.7027
vn -1.0000 -0.0011 -0.0001
vn 0.0072 0.7029 0.7112
vn -0.0002 -0.0089 1.0000
vn -0.0079 -0.0002 1.0000
vn -0.0058 0.7110 0.7031
vn 0.0072 0.7027 -0.7114
vn 0.0092 1.0000 -0.0003
vn 0.0013 1.0000 -0.0087
vn 0.0117 0.7009 -0.7131
vn -0.0109 -0.7133 0.7008
vn -0.0058 -0.7113 0.7029
vn -0.0079 -0.0003 1.0000
vn -0.0109 -0.7131 -0.7010
vn -0.0002 -0.0089 -1.0000
vn 0.0167 -0.0003 -0.9999
vn 0.0117 -0.7012 -0.7129
vn 0.0092 1.0000 -0.0002
vn 0.0072 0.7030 0.7112
vn -0.0058 0.7111 0.7031
vn 0.0013 1.0000 -0.0086
vn -0.0109 -0.7134 0.7007
vn -0.0160 -0.9999 -0.0002
vn 0.0013 -1.0000 -0.0085
vn -0.0058 -0.7113 0.7028
vn -0.0002 -0.0088 -1.0000
vn 0.0167 -0.0002 -0.9999
vn -0.0160 -0.9999 -0.0003
vn 0.0013 -1.0000 -0.0086
vn 0.0067 -0.7135 0.7006
vn 0.0004 -0.0067 1.0000
vn -0.0005 0.0068 1.0000
vn 0.0048 -0.7057 0.7085
vn 0.0067 -0.7135 -0.7006
vn 0.0096 -1.0000 -0.0000
vn 0.0065 -1.0000 -0.0001
vn 0.0048 -0.7058 -0.7084
vn 0.0004 -0.0066 1.0000
vn -0.0045 0.7058 0.7083
vn -0.0073 0.7137 0.7004
vn -0.0004 0.0069 1.0000
vn -0.0045 0.7058 -0.7084
vn 0.0004 -0.0066 -1.0000
vn -0.0004 0.0069 -1.0000
vn -0.0073 0.7137 -0.7004
vn 0.0048 -0.7058 0.7084
vn 0.0065 -1.0000 0.0001
vn -0.0045 0.7059 0.7083
vn -0.0061 1.0000 0.0001
vn -0.0103 0.9999 0.0001
vn -0.0072 0.7137 0.7004
vn 0.0004 -0.0067 -1.0000
vn 0.0048 -0.7057 -0.7085
vn -0.0004 0.0068 -1.0000
vn -0.0061 1.0000 -0.0001
vn -0.0045 0.7059 -0.7083
vn -0.0072 0.7137 -0.7004
vn -0.0103 0.9999 -0.0001
vn 0.7112 -0.0061 0.7029
vn 0.0003 -0.0084 1.0000
vn 0.0078 0.0001 1.0000
vn 0.7126 -0.0087 0.7015
vn 0.7012 0.0120 -0.7129
vn 1.0000 0.0013 -0.0086
vn 0.9999 -0.0130 -0.0003
vn 0.7123 -0.0087 -0.7018
vn 0.0002 -0.0084 1.0000
vn -0.7110 -0.0061 0.7032
vn -0.7035 0.0061 0.7107
vn 0.0077 0.0001 1.0000
vn -0.7008 0.0121 -0.7132
vn 0.0002 0.0172 -0.9999
vn 0.0077 0.0001 -1.0000
vn -0.7032 0.0061 -0.7110
vn 1.0000 0.0013 -0.0085
vn 0.7113 -0.0061 0.7029
vn 0.9999 -0.0130 -0.0002
vn -0.7110 -0.0063 0.7032
vn -1.0000 0.0014 -0.0086
vn -1.0000 0.0078 -0.0002
vn -0.7035 0.0062 0.7106
vn 0.0003 0.0172 -0.9999
vn 0.7012 0.0121 -0.7129
vn 0.0078 0.0001 -1.0000
vn -1.0000 0.0013 -0.0086
vn -0.7009 0.0121 -0.7132
vn -0.7032 0.0061 -0.7109
vn -1.0000 0.0078 -0.0003
vn -0.0059 -0.7113 0.7029
vn -0.0910 -0.7511 0.6539
vn -0.1246 -0.0000 0.9922
vn 0.0343 -0.9963 -0.0784
vn -0.0910 -0.7512 0.6538
vn 0.0118 -0.7012 -0.7129
vn 0.1966 -0.6541 -0.7304
vn 0.0343 -0.9963 -0.0785
vn 0.0117 -0.7011 -0.7129
vn 0.2622 -0.0000 -0.9650
vn 0.1966 -0.6540 -0.7305
vn 0.0118 0.7009 -0.7132
vn 0.1966 0.6540 -0.7305
vn 0.0342 0.9963 -0.0785
vn 0.1966 0.6541 -0.7304
vn -0.0059 0.7111 0.7031
vn -0.0911 0.7512 0.6538
vn 0.0342 0.9963 -0.0784
vn -0.0059 0.7110 0.7031
vn -0.0911 0.7511 0.6538
vn -0.1246 -0.0001 0.9922
vn -0.0911 -0.7511 0.6538
vn -0.4262 -0.8242 0.3728
vn -0.7674 -0.0000 0.6412
vn -0.7673 -0.0000 0.6413
vn -0.4262 -0.8242 0.3729
vn -0.6682 -0.7396 0.0809
vn -0.9948 -0.0001 0.1019
vn -0.6682 -0.7396 0.0808
vn -0.7016 -0.7120 -0.0276
vn -0.9997 -0.0000 -0.0238
vn -0.0911 -0.7512 0.6538
vn 0.1186 -0.9886 -0.0924
vn 0.1187 -0.9886 -0.0924
vn 0.0660 -0.9978 -0.0098
vn -0.6681 -0.7396 0.0809
vn 0.0136 -0.9990 -0.0419
vn -0.7016 -0.7121 -0.0276
vn 0.5881 -0.6277 -0.5100
vn 0.7373 -0.6623 -0.1330
vn 0.0661 -0.9978 -0.0098
vn 0.7373 -0.6623 -0.1329
vn 0.7162 -0.6953 -0.0601
vn 0.7555 -0.0000 -0.6552
vn 0.9834 -0.0000 -0.1815
vn 0.9977 -0.0000 -0.0685
vn 0.7163 -0.6952 -0.0601
vn 0.5881 0.6277 -0.5100
vn 0.5881 0.6278 -0.5099
vn 0.7373 0.6623 -0.1330
vn 0.9834 -0.0000 -0.1814
vn 0.7373 0.6623 -0.1329
vn 0.7163 0.6952 -0.0601
vn 0.0343 0.9963 -0.0785
vn 0.1186 0.9886 -0.0925
vn 0.1187 0.9886 -0.0924
vn 0.0660 0.9978 -0.0098
vn 0.7373 0.6624 -0.1330
vn 0.0136 0.9990 -0.0419
vn 0.7162 0.6953 -0.0601
vn -0.4262 0.8242 0.3728
vn 0.1186 0.9886 -0.0924
vn -0.6681 0.7396 0.0809
vn -0.6682 0.7396 0.0808
vn -0.7016 0.7121 -0.0277
vn -0.1247 -0.0000 0.9922
vn -0.4262 0.8242 0.3729
vn -0.9948 -0.0000 0.1020
vn -0.6682 0.7396 0.0809
vn -0.9948 0.0001 0.1019
vn -0.7016 0.7120 -0.0277
vn 0.1360 0.9907 -0.0000
vn 0.1019 0.6499 0.7532
vn 0.1019 0.6498 -0.7532
vn 0.0071 0.7027 -0.7115
vn -0.0276 -0.0820 -0.9963
vn -0.1943 -0.7320 -0.6530
vn -0.0276 -0.0821 -0.9962
vn -0.0161 -0.9999 -0.0003
vn -0.2605 -0.9655 -0.0000
vn -0.0109 -0.7133 0.7007
vn -0.1943 -0.7320 0.6530
vn -0.0276 -0.0821 0.9962
vn -0.0002 -0.0088 1.0000
vn 0.1019 0.6498 0.7532
vn -0.0276 -0.0820 0.9963
vn -0.0277 -0.0820 0.9962
vn -0.1133 -0.0996 0.9885
vn -0.5885 -0.5099 0.6274
vn -0.1134 -0.0996 0.9885
vn -0.0641 -0.0171 0.9978
vn -0.7362 -0.1357 0.6630
vn -0.0641 -0.0170 0.9978
vn -0.7552 -0.6555 -0.0000
vn -0.7552 -0.6554 -0.0000
vn -0.5886 -0.5098 0.6274
vn -0.9828 -0.1849 -0.0000
vn -1.0000 -0.0011 -0.0000
vn -0.5885 -0.5099 -0.6274
vn -0.9827 -0.1850 -0.0000
vn -0.7362 -0.1357 -0.6630
vn -0.9827 -0.1849 -0.0000
vn -0.0277 -0.0820 -0.9962
vn -0.1133 -0.0996 -0.9885
vn -0.1134 -0.0996 -0.9886
vn -0.0641 -0.0171 -0.9978
vn -0.0641 -0.0170 -0.9978
vn 0.1020 0.6498 -0.7532
vn -0.0277 -0.0820 -0.9963
vn -0.1134 -0.0995 -0.9886
vn 0.4403 0.3531 -0.8255
vn 0.4404 0.3530 -0.8255
vn -0.0640 -0.0170 -0.9978
vn 0.6705 0.0681 -0.7388
vn 0.7071 0.0006 -0.7071
vn 0.4404 0.3531 -0.8255
vn 0.7878 0.6159 -0.0000
vn 0.9961 0.0883 -0.0001
vn 0.9961 0.0883 -0.0000
vn 1.0000 0.0007 -0.0000
vn 0.1020 0.6498 0.7532
vn 0.4404 0.3531 0.8254
vn 0.4403 0.3531 0.8255
vn 0.6705 0.0681 0.7388
vn 0.7071 0.0006 0.7071
vn -0.1133 -0.0996 0.9886
vn 0.4404 0.3530 0.8255
vn 0.6705 0.0682 0.7388
vn -0.0640 -0.0170 0.9978
vn -0.0005 0.0069 1.0000
vn -0.1868 0.7327 0.6544
vn -0.0260 0.0794 0.9965
vn -0.0104 0.9999 -0.0000
vn -0.2510 0.9680 -0.0000
vn -0.1868 0.7327 -0.6544
vn -0.0260 0.0794 -0.9965
vn 0.0986 -0.6528 -0.7511
vn 0.0065 -1.0000 -0.0000
vn 0.1316 -0.9913 -0.0000
vn 0.0986 -0.6529 -0.7510
vn 0.0986 -0.6529 0.7510
vn -0.0004 0.0068 1.0000
vn 0.0986 -0.6528 0.7511
vn -0.5795 0.5198 0.6277
vn -0.1113 0.1010 0.9886
vn -0.1114 0.1009 0.9886
vn -0.7359 0.1424 0.6620
vn -0.0659 0.0181 0.9977
vn -0.0659 0.0180 0.9977
vn -0.7358 0.1424 0.6620
vn -0.7440 0.6681 -0.0000
vn -0.9811 0.1937 -0.0000
vn -1.0000 0.0012 -0.0000
vn -0.7115 0.0009 0.7026
vn -0.2510 0.9680 -0.0001
vn -0.5795 0.5198 -0.6277
vn -0.7440 0.6682 -0.0000
vn -0.5795 0.5197 -0.6277
vn -0.7359 0.1424 -0.6620
vn -0.7115 0.0009 -0.7027
vn -0.1114 0.1010 -0.9886
vn -0.1114 0.1009 -0.9886
vn -0.0659 0.0180 -0.9977
vn -0.7359 0.1423 -0.6620
vn 0.0987 -0.6528 -0.7510
vn 0.4315 -0.3653 -0.8248
vn -0.1113 0.1009 -0.9886
vn -0.1113 0.1010 -0.9886
vn 0.6685 -0.0729 -0.7402
vn -0.0658 0.0180 -0.9977
vn 0.6685 -0.0728 -0.7402
vn -0.0037 0.0001 -1.0000
vn 0.7691 -0.6392 -0.0000
vn 0.4315 -0.3654 -0.8248
vn 0.7690 -0.6392 -0.0000
vn 0.9955 -0.0951 -0.0000
vn 1.0000 -0.0008 -0.0000
vn 0.4315 -0.3653 0.8248
vn 0.4315 -0.3654 0.8248
vn 0.6685 -0.0729 0.7402
vn 0.6685 -0.0728 0.7402
vn 0.0986 -0.6528 0.7510
vn -0.1113 0.1009 0.9886
vn -0.0658 0.0180 0.9977
vn -0.7035 0.0062 0.7107
vn -0.6656 0.0769 0.7423
vn 0.0688 -0.0195 0.9974
vn -1.0000 0.0079 -0.0002
vn -0.9949 0.1005 -0.0000
vn -1.0000 0.0079 -0.0003
vn -0.7032 0.0062 -0.7109
vn -0.6656 0.0768 -0.7423
vn 0.0688 -0.0195 -0.9974
vn -0.6656 0.0769 -0.7424
vn 0.7357 -0.1506 -0.6604
vn 0.9789 -0.2043 -0.0000
vn 0.7357 -0.1506 0.6604
vn 0.9789 -0.2044 -0.0000
vn -0.4190 0.3763 0.8264
vn 0.1103 -0.1035 0.9885
vn 0.1104 -0.1036 0.9885
vn -0.0934 0.6555 0.7494
vn 0.0247 -0.0775 0.9967
vn -0.0933 0.6555 0.7494
vn -0.0045 0.7058 0.7084
vn -0.9949 0.1004 -0.0000
vn -0.7480 0.6637 -0.0000
vn -0.4189 0.3764 0.8263
vn -0.4190 0.3763 0.8263
vn -0.7481 0.6636 -0.0000
vn -0.1237 0.9923 0.0001
vn -0.1237 0.9923 -0.0000
vn -0.0061 1.0000 -0.0000
vn -0.6656 0.0769 -0.7423
vn -0.4189 0.3763 -0.8264
vn -0.4190 0.3762 -0.8264
vn -0.0934 0.6555 -0.7494
vn -0.1237 0.9923 -0.0001
vn -0.0933 0.6555 -0.7494
vn 0.0687 -0.0196 -0.9974
vn 0.1103 -0.1036 -0.9885
vn 0.0247 -0.0775 -0.9967
vn 0.0688 -0.0196 -0.9974
vn 0.5696 -0.5311 -0.6273
vn 0.1104 -0.1036 -0.9885
vn 0.5695 -0.5311 -0.6273
vn 0.1793 -0.7336 -0.6555
vn 0.0247 -0.0776 -0.9967
vn 0.1792 -0.7336 -0.6555
vn 0.7310 -0.6823 -0.0001
vn 0.5696 -0.5312 -0.6273
vn 0.7310 -0.6824 -0.0000
vn 0.2413 -0.9705 -0.0000
vn 0.2412 -0.9705 -0.0000
vn 0.0096 -1.0000 -0.0001
vn 0.0068 -0.7135 -0.7006
vn 0.5696 -0.5312 0.6273
vn 0.7311 -0.6823 -0.0000
vn 0.5695 -0.5312 0.6273
vn 0.1793 -0.7336 0.6555
vn 0.0096 -1.0000 0.0001
vn 0.7356 -0.1507 0.6604
vn 0.0688 -0.0196 0.9974
vn 0.5696 -0.5311 0.6273
vn 0.1103 -0.1036 0.9885
vn 0.1792 -0.7336 0.6555
vn 0.0247 -0.0776 0.9967
vn 0.9970 0.0294 -0.0710
vn 0.7450 -0.0813 0.6621
vn 1.0000 0.0014 -0.0086
vn 0.6583 0.1742 -0.7323
vn -0.0000 0.2334 -0.9724
vn -0.6583 0.1742 -0.7323
vn -0.0000 0.2335 -0.9724
vn -0.9970 0.0293 -0.0710
vn -0.7110 -0.0062 0.7032
vn -0.7450 -0.0813 0.6621
vn -0.0000 -0.1114 0.9938
vn -0.7449 -0.0813 0.6622
vn 0.7449 -0.0813 0.6622
vn -0.0000 -0.7087 0.7055
vn -0.8215 -0.3986 0.4077
vn -0.8215 -0.3985 0.4078
vn -0.0000 -0.9924 0.1227
vn -0.7438 -0.6616 0.0952
vn -0.7438 -0.6616 0.0951
vn -0.0000 -0.9998 -0.0177
vn -0.7134 -0.7004 -0.0231
vn -0.9970 0.0293 -0.0709
vn -0.8215 -0.3985 0.4077
vn -0.9889 0.1125 -0.0968
vn -0.9974 0.0714 -0.0131
vn -0.9974 0.0715 -0.0131
vn -0.7134 -0.7003 -0.0231
vn -0.9990 0.0163 -0.0418
vn -0.9970 0.0294 -0.0710
vn -0.6286 0.5601 -0.5396
vn -0.9889 0.1126 -0.0968
vn -0.6594 0.7359 -0.1537
vn -0.6594 0.7360 -0.1537
vn -0.9990 0.0164 -0.0418
vn -0.6931 0.7179 -0.0650
vn -0.0000 0.7206 -0.6934
vn -0.6593 0.7360 -0.1537
vn -0.0000 0.9781 -0.2081
vn -0.0000 0.9972 -0.0754
vn 0.0001 0.2335 -0.9724
vn -0.0000 0.7206 -0.6933
vn 0.6286 0.5601 -0.5396
vn 0.6593 0.7360 -0.1537
vn -0.0000 0.9971 -0.0755
vn 0.6931 0.7179 -0.0650
vn 0.6584 0.1741 -0.7323
vn 0.9889 0.1125 -0.0968
vn 0.9889 0.1126 -0.0968
vn 0.6594 0.7360 -0.1537
vn 0.9974 0.0715 -0.0131
vn 0.6594 0.7359 -0.1537
vn 0.9990 0.0164 -0.0418
vn 0.7450 -0.0814 0.6621
vn 0.9970 0.0293 -0.0709
vn 0.8215 -0.3985 0.4078
vn 0.8215 -0.3986 0.4077
vn 0.9974 0.0714 -0.0131
vn 0.7438 -0.6616 0.0951
vn 0.9990 0.0163 -0.0418
vn 0.7134 -0.7004 -0.0231
vn -0.0000 -0.7087 0.7056
vn 0.7438 -0.6616 0.0952
vn -0.0000 -0.9925 0.1226
vn -0.6979 -0.6959 -0.1691
vn 0.0013 -0.9865 -0.1636
vn -0.9855 -0.0000 -0.1695
vn 0.6997 -0.6948 -0.1662
vn 0.9862 -0.0000 -0.1655
vn 0.6997 0.6948 -0.1662
vn 0.0013 0.9865 -0.1636
vn -0.6979 0.6959 -0.1691
vn -0.0000 -0.9998 -0.0178
vn 0.6959 -0.6979 -0.1690
vn -0.9865 0.0013 -0.1636
vn -0.6979 0.6960 -0.1691
vn 0.0135 0.9990 -0.0420
vn 0.6997 0.6949 -0.1662
vn 0.0014 -0.9865 -0.1636
vn -0.6979 -0.6960 -0.1691
vn -0.7016 -0.7121 -0.0277
vn 0.0136 -0.9990 -0.0420
vn -0.6979 -0.6959 -0.1690
vn -0.7016 -0.7120 -0.0277
vn -0.9997 0.0001 -0.0238
vt 0.636322 0.771411
vt 0.587470 0.804750
vt 0.582466 0.801554
vt 0.635177 0.765465
vt 0.576221 0.861411
vt 0.570569 0.862499
vt 0.433500 0.501817
vt 0.495149 0.501817
vt 0.495149 0.744281
vt 0.433500 0.744281
vt 0.667721 0.922223
vt 0.668877 0.928042
vt 0.605422 0.915050
vt 0.608737 0.910132
vt 0.727696 0.832155
vt 0.733433 0.831018
vt 0.721608 0.892773
vt 0.716620 0.889535
vt 0.310201 0.501817
vt 0.371850 0.501817
vt 0.371850 0.744281
vt 0.310201 0.744281
vt 0.687564 0.793554
vt 0.638896 0.784065
vt 0.637511 0.777194
vt 0.691445 0.787669
vt 0.581871 0.860294
vt 0.612010 0.905265
vt 0.125252 0.501817
vt 0.186902 0.501817
vt 0.186902 0.744281
vt 0.125252 0.744281
vt 0.248551 0.501817
vt 0.248551 0.744281
vt 0.666609 0.916401
vt 0.711799 0.886320
vt 0.694675 0.782803
vt 0.697976 0.777719
vt 0.063603 0.501817
vt 0.063603 0.744281
vt 0.602608 0.814790
vt 0.598019 0.811727
vt 0.639988 0.789629
vt 0.592254 0.807905
vt 0.641149 0.795086
vt 0.607213 0.817814
vt 0.722022 0.833305
vt 0.619061 0.894562
vt 0.615915 0.899401
vt 0.588618 0.858968
vt 0.594043 0.857906
vt 0.701466 0.879486
vt 0.706041 0.882519
vt 0.665296 0.909466
vt 0.664231 0.903895
vt 0.684425 0.798269
vt 0.715204 0.834694
vt 0.709684 0.835861
vt 0.681227 0.803114
vt 0.599435 0.856891
vt 0.622123 0.889732
vt 0.663198 0.898415
vt 0.696941 0.876438
vt 0.704000 0.837048
vt 0.001953 0.501817
vt 0.001953 0.744281
vt 0.000000 0.000000
s 1
usemtl Material.001
f 23/1/1 5/2/2 4/3/3 3/4/4
f 31/5/5 6/6/6 4/3/3 5/2/2
f 7/7/7 2/8/8 4/9/3 6/10/6
f 12/11/9 11/12/10 9/13/11 10/14/12
f 18/15/13 17/16/14 15/17/15 16/18/16
f 13/19/17 8/20/18 9/21/11 11/22/10
f 46/23/19 25/24/20 24/25/21 48/26/22
f 30/27/23 36/28/24 10/14/12 31/5/5
f 8/20/18 7/7/7 6/10/6 9/21/11
f 20/29/25 19/30/26 17/31/14 21/32/27
f 19/30/26 14/33/28 15/34/15 17/31/14
f 37/35/29 42/36/30 16/18/16 12/11/9
f 22/37/31 23/1/1 3/4/4 21/38/27
f 48/26/22 24/25/21 23/1/1 22/37/31
f 1/39/32 20/29/25 21/32/27 3/40/4
f 28/41/33 27/42/34 25/24/20 26/43/35
f 14/33/28 13/19/17 11/22/10 15/34/15
f 24/25/21 29/44/36 5/2/2 23/1/1
f 29/44/36 30/27/23 31/5/5 5/2/2
f 25/24/20 27/42/34 29/44/36 24/25/21
f 50/45/37 51/46/38 28/41/33 26/43/35
f 43/47/39 48/26/22 22/37/31 18/15/13
f 35/48/40 34/49/41 32/50/42 33/51/43
f 27/42/34 32/50/42 30/27/23 29/44/36
f 31/5/5 10/14/12 9/13/11 6/6/6
f 36/28/24 37/35/29 12/11/9 10/14/12
f 32/50/42 34/49/41 36/28/24 30/27/23
f 28/41/33 33/51/43 32/50/42 27/42/34
f 41/52/44 40/53/45 38/54/46 39/55/47
f 34/49/41 38/54/46 37/35/29 36/28/24
f 12/11/9 16/18/16 15/17/15 11/12/10
f 42/36/30 43/47/39 18/15/13 16/18/16
f 38/54/46 40/53/45 42/36/30 37/35/29
f 35/48/40 39/55/47 38/54/46 34/49/41
f 47/56/48 46/23/19 44/57/49 45/58/50
f 40/53/45 44/57/49 43/47/39 42/36/30
f 18/15/13 22/37/31 21/38/27 17/16/14
f 49/59/51 50/45/37 26/43/35 47/56/48
f 44/57/49 46/23/19 48/26/22 43/47/39
f 41/52/44 45/58/50 44/57/49 40/53/45
f 47/56/48 26/43/35 25/24/20 46/23/19
f 51/46/38 52/60/52 33/51/43 28/41/33
f 52/60/52 53/61/53 35/48/40 33/51/43
f 53/61/53 54/62/54 39/55/47 35/48/40
f 54/62/54 55/63/55 41/52/44 39/55/47
f 55/63/55 56/64/56 45/58/50 41/52/44
f 56/64/56 49/59/51 47/56/48 45/58/50
f 2/65/8 1/39/32 3/40/4 4/66/3
s 0
f 62/67/57 101/67/58 105/67/58 66/67/59
f 63/67/60 102/67/61 106/67/62 67/67/63
f 101/67/64 61/67/65 65/67/66 105/67/64
f 64/67/67 103/67/68 107/67/68 68/67/69
f 102/67/70 62/67/71 66/67/72 106/67/73
f 61/67/74 104/67/75 108/67/76 65/67/77
f 103/67/78 63/67/79 67/67/80 107/67/78
f 104/67/81 64/67/82 68/67/83 108/67/84
f 74/67/85 113/67/86 117/67/87 78/67/88
f 75/67/89 114/67/90 118/67/91 79/67/92
f 113/67/86 73/67/93 77/67/94 117/67/95
f 76/67/96 115/67/97 119/67/98 80/67/99
f 114/67/100 74/67/101 78/67/102 118/67/103
f 73/67/104 116/67/105 120/67/106 77/67/107
f 115/67/108 75/67/89 79/67/92 119/67/109
f 116/67/110 76/67/96 80/67/99 120/67/111
f 82/67/112 121/67/113 125/67/114 86/67/115
f 83/67/116 122/67/117 126/67/118 87/67/119
f 121/67/120 81/67/121 85/67/122 125/67/123
f 84/67/124 123/67/125 127/67/126 88/67/127
f 122/67/117 82/67/112 86/67/128 126/67/129
f 81/67/130 124/67/131 128/67/132 85/67/133
f 123/67/134 83/67/116 87/67/135 127/67/136
f 124/67/137 84/67/138 88/67/139 128/67/140
f 90/67/141 129/67/142 133/67/143 94/67/144
f 91/67/145 130/67/146 134/67/147 95/67/148
f 129/67/149 89/67/150 93/67/151 133/67/152
f 92/67/153 131/67/154 135/67/155 96/67/156
f 130/67/157 90/67/158 94/67/144 134/67/159
f 89/67/160 132/67/161 136/67/162 93/67/163
f 131/67/164 91/67/165 95/67/148 135/67/166
f 132/67/167 92/67/168 96/67/169 136/67/170
f 117/67/95 77/67/171 142/67/172 137/67/173
f 77/67/94 120/67/106 145/67/174 142/67/175
f 120/67/111 80/67/176 148/67/177 145/67/178
f 80/67/179 119/67/109 151/67/180 148/67/181
f 119/67/109 79/67/182 154/67/183 151/67/180
f 79/67/92 118/67/91 157/67/184 154/67/185
f 118/67/103 78/67/186 160/67/187 157/67/188
f 78/67/189 117/67/87 137/67/173 160/67/190
f 137/67/191 142/67/192 141/67/193 138/67/194
f 138/67/195 141/67/196 140/67/197 139/67/198
f 139/67/198 140/67/199 69/67/200 109/67/201
f 142/67/202 145/67/174 144/67/203 141/67/196
f 141/67/193 144/67/204 143/67/205 140/67/206
f 140/67/197 143/67/205 112/67/207 69/67/208
f 145/67/174 148/67/177 147/67/209 144/67/203
f 144/67/204 147/67/209 146/67/210 143/67/205
f 143/67/211 146/67/212 72/67/213 112/67/207
f 148/67/177 151/67/180 150/67/214 147/67/209
f 147/67/209 150/67/214 149/67/215 146/67/212
f 146/67/212 149/67/215 111/67/216 72/67/217
f 151/67/180 154/67/185 153/67/218 150/67/214
f 150/67/214 153/67/219 152/67/220 149/67/215
f 149/67/221 152/67/222 71/67/223 111/67/216
f 154/67/185 157/67/224 156/67/225 153/67/218
f 153/67/218 156/67/226 155/67/227 152/67/222
f 152/67/228 155/67/227 110/67/229 71/67/230
f 157/67/188 160/67/187 159/67/231 156/67/232
f 156/67/225 159/67/231 158/67/233 155/67/227
f 155/67/227 158/67/234 70/67/235 110/67/229
f 160/67/190 137/67/236 138/67/194 159/67/231
f 159/67/237 138/67/194 139/67/238 158/67/239
f 158/67/234 139/67/240 109/67/201 70/67/241
f 74/67/101 114/67/100 181/67/242 182/67/243
f 114/67/90 75/67/89 178/67/244 181/67/242
f 75/67/245 115/67/108 175/67/246 178/67/244
f 115/67/97 76/67/96 172/67/247 175/67/248
f 76/67/96 116/67/249 169/67/250 172/67/247
f 116/67/105 73/67/251 166/67/252 169/67/250
f 73/67/251 113/67/86 163/67/253 166/67/252
f 113/67/254 74/67/85 182/67/255 163/67/256
f 166/67/252 163/67/257 162/67/258 165/67/259
f 165/67/259 162/67/260 161/67/261 164/67/262
f 164/67/262 161/67/263 105/67/64 65/67/77
f 169/67/250 166/67/252 165/67/259 168/67/264
f 168/67/265 165/67/266 164/67/262 167/67/267
f 167/67/267 164/67/262 65/67/66 108/67/268
f 172/67/247 169/67/250 168/67/264 171/67/269
f 171/67/269 168/67/265 167/67/270 170/67/271
f 170/67/271 167/67/272 108/67/268 68/67/69
f 175/67/273 172/67/247 171/67/269 174/67/274
f 174/67/275 171/67/269 170/67/271 173/67/276
f 173/67/277 170/67/271 68/67/83 107/67/68
f 178/67/278 175/67/279 174/67/280 177/67/281
f 177/67/282 174/67/280 173/67/283 176/67/284
f 176/67/284 173/67/277 107/67/78 67/67/285
f 181/67/242 178/67/244 177/67/286 180/67/287
f 180/67/287 177/67/281 176/67/284 179/67/288
f 179/67/289 176/67/284 67/67/285 106/67/290
f 182/67/291 181/67/242 180/67/287 183/67/292
f 183/67/293 180/67/287 179/67/289 184/67/294
f 184/67/294 179/67/289 106/67/290 66/67/295
f 163/67/256 182/67/255 183/67/293 162/67/296
f 162/67/296 183/67/297 184/67/298 161/67/299
f 161/67/263 184/67/294 66/67/295 105/67/58
f 125/67/300 85/67/133 190/67/301 185/67/302
f 85/67/122 128/67/303 193/67/304 190/67/301
f 128/67/303 88/67/127 196/67/305 193/67/304
f 88/67/127 127/67/126 199/67/306 196/67/305
f 127/67/136 87/67/135 202/67/307 199/67/306
f 87/67/119 126/67/308 205/67/309 202/67/310
f 126/67/129 86/67/128 208/67/311 205/67/309
f 86/67/115 125/67/312 185/67/302 208/67/313
f 185/67/302 190/67/301 189/67/314 186/67/315
f 186/67/316 189/67/314 188/67/317 187/67/318
f 187/67/319 188/67/320 61/67/65 101/67/64
f 190/67/301 193/67/304 192/67/321 189/67/314
f 189/67/314 192/67/321 191/67/322 188/67/317
f 188/67/317 191/67/322 104/67/323 61/67/324
f 193/67/325 196/67/305 195/67/326 192/67/327
f 192/67/327 195/67/328 194/67/329 191/67/322
f 191/67/322 194/67/329 64/67/330 104/67/323
f 196/67/305 199/67/306 198/67/331 195/67/326
f 195/67/328 198/67/332 197/67/333 194/67/334
f 194/67/329 197/67/333 103/67/68 64/67/330
f 199/67/306 202/67/335 201/67/336 198/67/337
f 198/67/338 201/67/336 200/67/339 197/67/340
f 197/67/333 200/67/341 63/67/79 103/67/342
f 202/67/335 205/67/309 204/67/343 201/67/336
f 201/67/344 204/67/345 203/67/346 200/67/341
f 200/67/341 203/67/346 102/67/347 63/67/79
f 205/67/309 208/67/311 207/67/348 204/67/345
f 204/67/345 207/67/349 206/67/350 203/67/346
f 203/67/346 206/67/351 62/67/57 102/67/347
f 208/67/352 185/67/302 186/67/316 207/67/349
f 207/67/348 186/67/353 187/67/354 206/67/351
f 206/67/351 187/67/319 101/67/58 62/67/57
f 133/67/143 93/67/355 214/67/356 209/67/357
f 93/67/355 136/67/358 217/67/359 214/67/356
f 136/67/360 96/67/361 220/67/362 217/67/359
f 96/67/156 135/67/155 223/67/363 220/67/364
f 135/67/166 95/67/148 226/67/365 223/67/363
f 95/67/148 134/67/147 229/67/366 226/67/365
f 134/67/159 94/67/144 232/67/367 229/67/368
f 94/67/144 133/67/143 209/67/357 232/67/367
f 209/67/357 214/67/356 213/67/369 210/67/370
f 210/67/371 213/67/369 212/67/372 211/67/373
f 211/67/373 212/67/374 81/67/375 121/67/120
f 214/67/356 217/67/376 216/67/377 213/67/378
f 213/67/379 216/67/380 215/67/381 212/67/372
f 212/67/374 215/67/382 124/67/383 81/67/130
f 217/67/359 220/67/384 219/67/385 216/67/380
f 216/67/380 219/67/386 218/67/387 215/67/388
f 215/67/382 218/67/389 84/67/138 124/67/383
f 220/67/384 223/67/390 222/67/391 219/67/386
f 219/67/385 222/67/391 221/67/392 218/67/387
f 218/67/387 221/67/392 123/67/125 84/67/124
f 223/67/393 226/67/365 225/67/394 222/67/395
f 222/67/391 225/67/396 224/67/397 221/67/392
f 221/67/398 224/67/399 83/67/116 123/67/125
f 226/67/365 229/67/368 228/67/400 225/67/394
f 225/67/401 228/67/402 227/67/403 224/67/399
f 224/67/399 227/67/404 122/67/405 83/67/406
f 229/67/368 232/67/367 231/67/407 228/67/408
f 228/67/402 231/67/409 230/67/410 227/67/403
f 227/67/404 230/67/410 82/67/112 122/67/411
f 232/67/412 209/67/413 210/67/371 231/67/414
f 231/67/409 210/67/415 211/67/373 230/67/416
f 230/67/416 211/67/417 121/67/120 82/67/112
f 90/67/158 130/67/157 253/67/418 254/67/419
f 130/67/420 91/67/165 250/67/421 253/67/418
f 91/67/165 131/67/164 247/67/422 250/67/421
f 131/67/154 92/67/168 244/67/423 247/67/424
f 92/67/168 132/67/167 241/67/425 244/67/423
f 132/67/167 89/67/426 238/67/427 241/67/425
f 89/67/426 129/67/149 235/67/428 238/67/429
f 129/67/142 90/67/141 254/67/430 235/67/428
f 238/67/429 235/67/428 234/67/431 237/67/432
f 237/67/433 234/67/431 233/67/434 236/67/435
f 236/67/436 233/67/434 97/67/437 57/67/438
f 241/67/439 238/67/427 237/67/440 240/67/441
f 240/67/441 237/67/432 236/67/435 239/67/442
f 239/67/443 236/67/436 57/67/444 100/67/445
f 244/67/423 241/67/446 240/67/441 243/67/447
f 243/67/447 240/67/448 239/67/443 242/67/449
f 242/67/450 239/67/443 100/67/451 60/67/452
f 247/67/424 244/67/423 243/67/447 246/67/453
f 246/67/453 243/67/447 242/67/454 245/67/455
f 245/67/455 242/67/454 60/67/452 99/67/456
f 250/67/421 247/67/457 246/67/458 249/67/459
f 249/67/459 246/67/458 245/67/455 248/67/460
f 248/67/460 245/67/455 99/67/461 59/67/462
f 253/67/418 250/67/463 249/67/459 252/67/464
f 252/67/465 249/67/459 248/67/466 251/67/467
f 251/67/467 248/67/468 59/67/462 98/67/469
f 254/67/470 253/67/471 252/67/464 255/67/472
f 255/67/473 252/67/464 251/67/474 256/67/475
f 256/67/475 251/67/467 98/67/476 58/67/477
f 235/67/428 254/67/430 255/67/473 234/67/431
f 234/67/478 255/67/472 256/67/479 233/67/434
f 233/67/480 256/67/475 58/67/477 97/67/437
s 1
f 279/1/1 261/2/2 260/3/3 259/4/4
f 287/5/5 262/6/6 260/3/3 261/2/2
f 263/7/7 258/8/8 260/9/3 262/10/6
f 268/11/9 267/12/10 265/13/11 266/14/12
f 274/15/13 273/16/14 271/17/15 272/18/16
f 269/19/17 264/20/18 265/21/11 267/22/10
f 302/23/19 281/24/20 280/25/21 304/26/22
f 286/27/23 292/28/24 266/14/12 287/5/5
f 264/20/18 263/7/7 262/10/6 265/21/11
f 276/29/25 275/30/26 273/31/14 277/32/27
f 275/30/26 270/33/28 271/34/15 273/31/14
f 293/35/29 298/36/30 272/18/16 268/11/9
f 278/37/31 279/1/1 259/4/4 277/38/27
f 304/26/22 280/25/21 279/1/1 278/37/31
f 257/39/32 276/29/25 277/32/27 259/40/4
f 284/41/33 283/42/34 281/24/20 282/43/35
f 270/33/28 269/19/17 267/22/10 271/34/15
f 280/25/21 285/44/36 261/2/2 279/1/1
f 285/44/36 286/27/23 287/5/5 261/2/2
f 281/24/20 283/42/34 285/44/36 280/25/21
f 306/45/481 307/46/482 284/41/33 282/43/35
f 299/47/39 304/26/22 278/37/31 274/15/13
f 291/48/40 290/49/41 288/50/42 289/51/43
f 283/42/34 288/50/42 286/27/23 285/44/36
f 287/5/5 266/14/12 265/13/11 262/6/6
f 292/28/24 293/35/29 268/11/9 266/14/12
f 288/50/42 290/49/41 292/28/24 286/27/23
f 284/41/33 289/51/43 288/50/42 283/42/34
f 297/52/44 296/53/45 294/54/46 295/55/47
f 290/49/41 294/54/46 293/35/29 292/28/24
f 268/11/9 272/18/16 271/17/15 267/12/10
f 298/36/30 299/47/39 274/15/13 272/18/16
f 294/54/46 296/53/45 298/36/30 293/35/29
f 291/48/40 295/55/47 294/54/46 290/49/41
f 303/56/48 302/23/19 300/57/49 301/58/50
f 296/53/45 300/57/49 299/47/39 298/36/30
f 274/15/13 278/37/31 277/38/27 273/16/14
f 305/59/483 306/45/481 282/43/35 303/56/48
f 300/57/49 302/23/19 304/26/22 299/47/39
f 297/52/44 301/58/50 300/57/49 296/53/45
f 303/56/48 282/43/35 281/24/20 302/23/19
f 307/46/482 308/60/484 289/51/43 284/41/33
f 308/60/484 309/61/485 291/48/40 289/51/43
f 309/61/485 310/62/486 295/55/47 291/48/40
f 310/62/486 311/63/487 297/52/44 295/55/47
f 311/63/487 312/64/488 301/58/50 297/52/44
f 312/64/488 305/59/483 303/56/48 301/58/50
f 258/65/8 257/39/32 259/40/4 260/66/3
f 57/67/438 97/67/489 51/46/38 50/45/37
f 97/67/489 58/67/477 52/60/490 51/46/38
f 58/67/477 98/67/469 53/61/53 52/60/490
f 98/67/469 59/67/462 54/62/54 53/61/53
f 59/67/462 99/67/456 55/63/55 54/62/54
f 99/67/456 60/67/452 56/64/56 55/63/55
f 60/67/452 100/67/451 49/59/491 56/64/56
f 100/67/451 57/67/438 50/45/37 49/59/491
s 0
f 312/64/492 311/63/487 110/67/493 70/67/235
f 311/63/487 310/62/494 71/67/230 110/67/229
f 310/62/486 309/61/485 111/67/216 71/67/230
f 309/61/485 308/60/484 72/67/213 111/67/216
f 308/60/484 307/46/495 112/67/207 72/67/213
f 307/46/482 306/45/496 69/67/497 112/67/498
f 306/45/499 305/59/483 109/67/201 69/67/500
f 305/59/483 312/64/488 70/67/241 109/67/501
