# Blender 5.0.1
# www.blender.org
mtllib Wire_Head_Yellow(Enc_B-X3).mtl
o Wire_Head_Yellow(Enc_B-X3)
v -0.126350 -0.096040 0.249517
v -0.124230 -0.096919 0.249517
v -0.126350 -0.096040 0.240313
v -0.124230 -0.096919 0.240313
v -0.124230 -0.096835 0.240115
v -0.122109 -0.096040 0.240313
v -0.122109 -0.096040 0.249517
v -0.121231 -0.093920 0.249517
v -0.121231 -0.093920 0.240313
v -0.121315 -0.093920 0.240115
v -0.122109 -0.091799 0.240313
v -0.122169 -0.091859 0.240115
v -0.122109 -0.091799 0.249517
v -0.124230 -0.090921 0.249517
v -0.124230 -0.090921 0.240313
v -0.124230 -0.091005 0.240115
v -0.126350 -0.091799 0.240313
v -0.126291 -0.091859 0.240115
v -0.126350 -0.091799 0.249517
v -0.127229 -0.093920 0.249517
v -0.127229 -0.093920 0.240313
v -0.127145 -0.093920 0.240115
v -0.126291 -0.095981 0.240115
v -0.126148 -0.095838 0.240033
v -0.125960 -0.095651 0.240033
v -0.125818 -0.095508 0.240115
v -0.124230 -0.096367 0.240033
v -0.124230 -0.096165 0.240115
v -0.124230 -0.096633 0.240033
v -0.122311 -0.095838 0.240033
v -0.122169 -0.095981 0.240115
v -0.122499 -0.095651 0.240033
v -0.122642 -0.095508 0.240115
v -0.121783 -0.093920 0.240033
v -0.121985 -0.093920 0.240115
v -0.121517 -0.093920 0.240033
v -0.122311 -0.092001 0.240033
v -0.122499 -0.092189 0.240033
v -0.122642 -0.092332 0.240115
v -0.124230 -0.091473 0.240033
v -0.124230 -0.091675 0.240115
v -0.124230 -0.091207 0.240033
v -0.126148 -0.092001 0.240033
v -0.125960 -0.092189 0.240033
v -0.125818 -0.092332 0.240115
v -0.126677 -0.093920 0.240033
v -0.126475 -0.093920 0.240115
v -0.126943 -0.093920 0.240033
v -0.126392 -0.093920 0.240313
v -0.125758 -0.095449 0.240313
v -0.124230 -0.096082 0.240313
v -0.122701 -0.095449 0.240313
v -0.122068 -0.093920 0.240313
v -0.122701 -0.092391 0.240313
v -0.124230 -0.091758 0.240313
v -0.125758 -0.092391 0.240313
v 0.175316 0.047722 0.249517
v 0.177436 0.046844 0.249517
v 0.175316 0.047722 0.240313
v 0.177436 0.046844 0.240313
v 0.177436 0.046928 0.240115
v 0.179557 0.047722 0.240313
v 0.179557 0.047722 0.249517
v 0.180435 0.049843 0.249517
v 0.180435 0.049843 0.240313
v 0.180352 0.049843 0.240115
v 0.179557 0.051963 0.240313
v 0.179498 0.051904 0.240115
v 0.179557 0.051963 0.249517
v 0.177436 0.052842 0.249517
v 0.177436 0.052842 0.240313
v 0.177436 0.052758 0.240115
v 0.175316 0.051963 0.240313
v 0.175375 0.051904 0.240115
v 0.175316 0.051963 0.249517
v 0.174438 0.049843 0.249517
v 0.174438 0.049843 0.240313
v 0.174521 0.049843 0.240115
v 0.175375 0.047781 0.240115
v 0.175518 0.047924 0.240033
v 0.175706 0.048112 0.240033
v 0.175849 0.048255 0.240115
v 0.177436 0.047395 0.240033
v 0.177436 0.047597 0.240115
v 0.177436 0.047130 0.240033
v 0.179355 0.047924 0.240033
v 0.179498 0.047781 0.240115
v 0.179167 0.048112 0.240033
v 0.179024 0.048255 0.240115
v 0.179884 0.049843 0.240033
v 0.179682 0.049843 0.240115
v 0.180150 0.049843 0.240033
v 0.179355 0.051761 0.240033
v 0.179167 0.051573 0.240033
v 0.179024 0.051431 0.240115
v 0.177436 0.052290 0.240033
v 0.177436 0.052088 0.240115
v 0.177436 0.052556 0.240033
v 0.175518 0.051761 0.240033
v 0.175706 0.051573 0.240033
v 0.175849 0.051431 0.240115
v 0.174989 0.049843 0.240033
v 0.175191 0.049843 0.240115
v 0.174723 0.049843 0.240033
v 0.175275 0.049843 0.240313
v 0.175908 0.048314 0.240313
v 0.177436 0.047681 0.240313
v 0.178965 0.048314 0.240313
v 0.179598 0.049843 0.240313
v 0.178965 0.051371 0.240313
v 0.177436 0.052004 0.240313
v 0.175908 0.051371 0.240313
v -0.125600 -0.095299 0.237996
v -0.122859 -0.095299 0.238038
v -0.122859 -0.092541 0.238038
v -0.125600 -0.092541 0.237996
v -0.057391 -0.095352 0.230234
v -0.057391 -0.095352 0.233116
v -0.057433 -0.092488 0.233116
v -0.057433 -0.092488 0.230234
v -0.117785 -0.095361 0.230243
v -0.117743 -0.095361 0.233108
v -0.117743 -0.092479 0.233108
v -0.117785 -0.092479 0.230243
v 0.186882 -0.061023 0.230234
v 0.186882 -0.061023 0.233116
v 0.186840 -0.058159 0.233116
v 0.186840 -0.058159 0.230234
v -0.044497 -0.061023 0.230234
v -0.044497 -0.061023 0.233116
v -0.044540 -0.058159 0.233116
v -0.044540 -0.058159 0.230234
v 0.194721 0.043551 0.230234
v 0.194721 0.043551 0.233116
v 0.191856 0.043508 0.233116
v 0.191856 0.043508 0.230234
v 0.194721 -0.053299 0.230234
v 0.194721 -0.053299 0.233116
v 0.191856 -0.053256 0.233116
v 0.191856 -0.053256 0.230234
v 0.183360 0.051284 0.230243
v 0.183402 0.051284 0.233108
v 0.183402 0.048402 0.233108
v 0.183360 0.048402 0.230243
v 0.187365 0.051275 0.230234
v 0.187365 0.051275 0.233116
v 0.187323 0.048411 0.233116
v 0.187323 0.048411 0.230234
v 0.176066 0.051222 0.237996
v 0.178807 0.051222 0.238038
v 0.178807 0.048463 0.238038
v 0.176066 0.048463 0.237996
v -0.049513 -0.066049 0.230234
v -0.049513 -0.066049 0.233116
v -0.052378 -0.066006 0.233116
v -0.052378 -0.066006 0.230234
v -0.049513 -0.087505 0.230234
v -0.049513 -0.087505 0.233116
v -0.052378 -0.087462 0.233116
v -0.052378 -0.087462 0.230234
v -0.124230 -0.095818 0.238040
v -0.122344 -0.093920 0.238070
v -0.124230 -0.092022 0.238040
v -0.126116 -0.093920 0.238011
v -0.057383 -0.095889 0.231675
v -0.057412 -0.093920 0.233657
v -0.057441 -0.091951 0.231675
v -0.057412 -0.093920 0.229694
v -0.117764 -0.095901 0.231675
v -0.117735 -0.093920 0.233645
v -0.117764 -0.091939 0.231675
v -0.117793 -0.093920 0.229706
v 0.186890 -0.061560 0.231675
v 0.186861 -0.059591 0.233657
v 0.186832 -0.057622 0.231675
v 0.186861 -0.059591 0.229694
v -0.044489 -0.061560 0.231675
v -0.044518 -0.059591 0.233657
v -0.044548 -0.057622 0.231675
v -0.044518 -0.059591 0.229694
v 0.195258 0.043559 0.231675
v 0.193288 0.043529 0.233657
v 0.191319 0.043500 0.231675
v 0.193288 0.043529 0.229694
v 0.195258 -0.053307 0.231675
v 0.193288 -0.053277 0.233657
v 0.191319 -0.053248 0.231675
v 0.193288 -0.053277 0.229694
v 0.183381 0.051824 0.231675
v 0.183410 0.049843 0.233645
v 0.183381 0.047861 0.231675
v 0.183352 0.049843 0.229706
v 0.187373 0.051812 0.231675
v 0.187344 0.049843 0.233657
v 0.187315 0.047874 0.231675
v 0.187344 0.049843 0.229694
v 0.177436 0.051741 0.238040
v 0.179322 0.049843 0.238070
v 0.177436 0.047945 0.238040
v 0.175551 0.049843 0.238011
v -0.048976 -0.066057 0.231675
v -0.050946 -0.066028 0.233657
v -0.052915 -0.065998 0.231675
v -0.050946 -0.066028 0.229694
v -0.048976 -0.087513 0.231675
v -0.050946 -0.087483 0.233657
v -0.052915 -0.087454 0.231675
v -0.050946 -0.087483 0.229694
v -0.124021 -0.095839 0.234542
v -0.123202 -0.095860 0.232653
v -0.121279 -0.095881 0.231868
v -0.125365 -0.095315 0.234201
v -0.124173 -0.095330 0.231642
v -0.121584 -0.095346 0.230484
v -0.125875 -0.093920 0.234096
v -0.124549 -0.093920 0.231274
v -0.121706 -0.093920 0.229966
v -0.125365 -0.092525 0.234201
v -0.124173 -0.092510 0.231642
v -0.121584 -0.092494 0.230484
v -0.124021 -0.092001 0.234542
v -0.123202 -0.091980 0.232653
v -0.121279 -0.091959 0.231868
v -0.122669 -0.092525 0.234848
v -0.122215 -0.092510 0.233648
v -0.120964 -0.092494 0.233249
v -0.122167 -0.093920 0.234987
v -0.121856 -0.093920 0.234033
v -0.120853 -0.093920 0.233769
v -0.120964 -0.095346 0.233249
v -0.122215 -0.095330 0.233648
v -0.122670 -0.095315 0.234848
v -0.053441 -0.095640 0.231675
v -0.050573 -0.094317 0.231675
v -0.049232 -0.091458 0.231675
v -0.053561 -0.095117 0.230234
v -0.050951 -0.093935 0.230234
v -0.049755 -0.091335 0.230234
v -0.053882 -0.093721 0.229694
v -0.051961 -0.092919 0.229694
v -0.051149 -0.091009 0.229694
v -0.054202 -0.092325 0.230234
v -0.052971 -0.091903 0.230234
v -0.052544 -0.090683 0.230234
v -0.054323 -0.091801 0.231675
v -0.053349 -0.091522 0.231675
v -0.053067 -0.090561 0.231675
v -0.054202 -0.092325 0.233116
v -0.052971 -0.091903 0.233116
v -0.052544 -0.090683 0.233116
v -0.053882 -0.093721 0.233657
v -0.051961 -0.092919 0.233657
v -0.051149 -0.091009 0.233657
v -0.049755 -0.091335 0.233116
v -0.050951 -0.093935 0.233116
v -0.053561 -0.095117 0.233116
v -0.048827 -0.062953 0.231675
v -0.048549 -0.061989 0.231675
v -0.047589 -0.061711 0.231675
v -0.047711 -0.061188 0.230234
v -0.048929 -0.061610 0.230234
v -0.049350 -0.062832 0.230234
v -0.048035 -0.059792 0.229694
v -0.049943 -0.060598 0.229694
v -0.050746 -0.062509 0.229694
v -0.048359 -0.058397 0.230234
v -0.050957 -0.059586 0.230234
v -0.052141 -0.062187 0.230234
v -0.048481 -0.057874 0.231675
v -0.051337 -0.059207 0.231675
v -0.052664 -0.062066 0.231675
v -0.048359 -0.058397 0.233116
v -0.050957 -0.059586 0.233116
v -0.052141 -0.062187 0.233116
v -0.048035 -0.059792 0.233657
v -0.049943 -0.060598 0.233657
v -0.050746 -0.062509 0.233657
v -0.047711 -0.061188 0.233116
v -0.048929 -0.061610 0.233116
v -0.049350 -0.062832 0.233116
v 0.190784 -0.061323 0.231675
v 0.193640 -0.060034 0.231675
v 0.194996 -0.057212 0.231675
v 0.190667 -0.060799 0.230234
v 0.193265 -0.059649 0.230234
v 0.194474 -0.057086 0.230234
v 0.190354 -0.059401 0.229694
v 0.192265 -0.058624 0.229694
v 0.193081 -0.056752 0.229694
v 0.190041 -0.058003 0.230234
v 0.191265 -0.057599 0.230234
v 0.191688 -0.056418 0.230234
v 0.189924 -0.057479 0.231675
v 0.190890 -0.057214 0.231675
v 0.191166 -0.056293 0.231675
v 0.190041 -0.058003 0.233116
v 0.191265 -0.057599 0.233116
v 0.191688 -0.056418 0.233116
v 0.190354 -0.059401 0.233657
v 0.192265 -0.058624 0.233657
v 0.193081 -0.056752 0.233657
v 0.194474 -0.057086 0.233116
v 0.193265 -0.059649 0.233116
v 0.190667 -0.060799 0.233116
v 0.195056 0.047307 0.231675
v 0.193874 0.050127 0.231675
v 0.191162 0.051530 0.231675
v 0.194529 0.047199 0.230234
v 0.193479 0.049763 0.230234
v 0.191027 0.051010 0.230234
v 0.193126 0.046911 0.229694
v 0.192424 0.048794 0.229694
v 0.190668 0.049623 0.229694
v 0.191723 0.046623 0.230234
v 0.191370 0.047825 0.230234
v 0.190309 0.048236 0.230234
v 0.191197 0.046515 0.231675
v 0.190974 0.047461 0.231675
v 0.190174 0.047716 0.231675
v 0.191723 0.046623 0.233116
v 0.191370 0.047825 0.233116
v 0.190309 0.048236 0.233116
v 0.193126 0.046911 0.233657
v 0.192424 0.048794 0.233657
v 0.190668 0.049623 0.233657
v 0.191027 0.051010 0.233116
v 0.193479 0.049763 0.233116
v 0.194529 0.047199 0.233116
v 0.180047 0.051803 0.231900
v 0.178292 0.051782 0.232742
v 0.177596 0.051762 0.234642
v 0.179694 0.051268 0.230528
v 0.177264 0.051253 0.231790
v 0.176241 0.051238 0.234350
v 0.179553 0.049843 0.230015
v 0.176867 0.049843 0.231444
v 0.175727 0.049843 0.234263
v 0.179694 0.048417 0.230528
v 0.177264 0.048433 0.231790
v 0.176241 0.048448 0.234350
v 0.180047 0.047882 0.231900
v 0.178292 0.047903 0.232742
v 0.177596 0.047924 0.234642
v 0.180412 0.048417 0.233269
v 0.179336 0.048433 0.233677
v 0.178958 0.048448 0.234901
v 0.180542 0.049843 0.233785
v 0.179717 0.049843 0.234040
v 0.179465 0.049843 0.235021
v 0.178958 0.051238 0.234901
v 0.179336 0.051253 0.233677
v 0.180412 0.051268 0.233269
vn -0.5003 -0.5003 -0.7067
vn -0.0000 -0.7075 -0.7067
vn -0.0000 -1.0000 -0.0088
vn -0.7071 -0.7071 -0.0088
vn 0.5003 -0.5003 -0.7067
vn 0.7071 -0.7071 -0.0088
vn 0.7071 -0.7071 -0.0000
vn -0.0000 -1.0000 -0.0000
vn 0.5003 0.5003 -0.7067
vn 0.7071 0.7071 -0.0088
vn 1.0000 -0.0000 -0.0088
vn 0.7075 -0.0000 -0.7067
vn -0.5003 0.5003 -0.7067
vn -0.7071 0.7071 -0.0088
vn -0.0001 1.0000 -0.0088
vn -0.0000 0.7075 -0.7067
vn 0.7071 0.7071 -0.0000
vn 1.0000 -0.0000 -0.0000
vn 0.1638 -0.0000 -0.9865
vn 0.1158 0.1158 -0.9865
vn -0.1281 -0.1281 -0.9835
vn -0.1811 -0.0000 -0.9835
vn 0.1281 -0.1280 -0.9835
vn 0.1811 -0.0000 -0.9835
vn -1.0000 -0.0000 -0.0000
vn -0.7071 0.7071 -0.0000
vn -1.0000 -0.0000 -0.0088
vn -0.0000 1.0000 -0.0000
vn 0.1280 0.1281 -0.9835
vn -0.0000 0.1811 -0.9835
vn -0.7075 -0.0000 -0.7067
vn -0.7071 -0.7071 -0.0000
vn -0.0000 0.6909 -0.7230
vn -0.0000 0.1638 -0.9865
vn 0.4885 0.4885 -0.7230
vn -0.0000 -0.1811 -0.9835
vn -0.7000 -0.6962 -0.1591
vn -0.0013 -0.9877 -0.1562
vn -0.1281 0.1280 -0.9835
vn -0.6909 -0.0000 -0.7230
vn -0.1638 -0.0000 -0.9865
vn -0.1158 0.1158 -0.9865
vn -0.4885 0.4885 -0.7230
vn -0.0000 -0.6909 -0.7230
vn -0.0000 -0.1638 -0.9865
vn -0.1158 -0.1158 -0.9865
vn -0.4885 -0.4885 -0.7230
vn 0.6909 -0.0000 -0.7230
vn 0.1158 -0.1158 -0.9865
vn 0.4885 -0.4885 -0.7230
vn -0.9874 -0.0000 -0.1582
vn 0.6982 -0.6974 -0.1618
vn 0.9868 -0.0000 -0.1619
vn 0.6982 0.6974 -0.1618
vn -0.0013 0.9877 -0.1562
vn -0.7000 0.6962 -0.1591
vn -0.0000 1.0000 -0.0088
vn -0.1280 -0.1280 -0.9835
vn 0.1280 -0.1280 -0.9835
vn -0.0000 0.1637 -0.9865
vn -0.0013 -0.9877 -0.1563
vn -0.1280 0.1280 -0.9835
vn -0.0000 -0.1637 -0.9865
vn 0.9868 -0.0000 -0.1620
vn -0.0013 0.9877 -0.1563
vn 0.0026 -0.7080 0.7062
vn 0.0014 -0.7074 0.7068
vn -0.0003 -1.0000 -0.0008
vn 0.0039 -1.0000 -0.0001
vn -0.0003 -1.0000 -0.0009
vn -0.0028 -0.7064 -0.7078
vn 0.0026 -0.7079 -0.7063
vn -0.0018 0.7068 0.7074
vn 0.0014 0.7074 0.7069
vn 0.0019 -0.0000 1.0000
vn -0.0000 -0.0009 1.0000
vn -0.0000 -0.0010 1.0000
vn 0.0019 -0.0001 1.0000
vn 0.0026 -0.7079 0.7063
vn -0.0018 0.7068 -0.7075
vn -0.0028 0.7063 -0.7079
vn -0.0003 1.0000 -0.0009
vn -0.0023 1.0000 -0.0001
vn -0.0023 1.0000 -0.0000
vn 0.0014 0.7074 0.7068
vn 0.0026 -0.7078 -0.7064
vn -0.0041 -0.0001 -1.0000
vn -0.0000 -0.0010 -1.0000
vn -0.0000 -0.0009 -1.0000
vn -0.0041 -0.0000 -1.0000
vn -0.0018 0.7067 -0.7075
vn 0.0007 -0.7094 0.7048
vn 0.0005 -0.7092 0.7050
vn 0.0007 -1.0000 0.0001
vn 0.0010 -1.0000 0.0001
vn 0.0010 -1.0000 -0.0000
vn 0.0007 -1.0000 -0.0000
vn 0.0005 -0.7092 -0.7050
vn 0.0007 -0.7095 -0.7047
vn -0.0004 0.7092 0.7050
vn -0.0007 0.7094 0.7048
vn -0.0000 0.0003 1.0000
vn -0.0000 -0.0002 1.0000
vn -0.0000 -0.0003 1.0000
vn -0.0000 0.0002 1.0000
vn 0.0005 -0.7091 0.7051
vn -0.0005 0.7092 -0.7050
vn -0.0007 0.7094 -0.7048
vn -0.0010 1.0000 -0.0000
vn -0.0006 1.0000 -0.0001
vn -0.0006 1.0000 0.0001
vn -0.0007 0.7095 0.7048
vn -0.0005 0.7092 0.7050
vn 0.0007 -0.7094 -0.7048
vn 0.0005 -0.7092 -0.7051
vn -0.0000 0.0002 -1.0000
vn -0.0000 -0.0003 -1.0000
vn -0.0000 -0.0002 -1.0000
vn -0.0000 0.0003 -1.0000
vn -0.0005 0.7092 -0.7051
vn 0.7097 0.0013 0.7045
vn 0.7098 -0.0018 0.7045
vn 1.0000 -0.0025 -0.0000
vn 1.0000 0.0020 -0.0000
vn 1.0000 0.0019 -0.0000
vn 0.7098 -0.0018 -0.7044
vn 0.7097 0.0013 -0.7045
vn -0.7090 -0.0009 0.7052
vn -0.7090 0.0012 0.7053
vn 0.0006 -0.0001 1.0000
vn 0.0005 -0.0000 1.0000
vn 0.0006 0.0001 1.0000
vn 0.0007 -0.0001 1.0000
vn 0.7097 -0.0017 0.7045
vn 0.7096 0.0014 0.7046
vn -0.7090 -0.0009 -0.7052
vn -0.7090 0.0012 -0.7052
vn -1.0000 0.0016 -0.0001
vn -1.0000 -0.0013 -0.0001
vn -1.0000 -0.0013 -0.0000
vn -1.0000 0.0016 -0.0000
vn -0.7090 0.0012 0.7052
vn -0.7090 -0.0010 0.7052
vn 0.7097 0.0014 -0.7045
vn 0.7097 -0.0017 -0.7045
vn 0.0007 -0.0001 -1.0000
vn 0.0006 0.0001 -1.0000
vn 0.0006 -0.0000 -1.0000
vn 0.0006 -0.0001 -1.0000
vn -0.7089 0.0012 -0.7053
vn -0.7090 -0.0009 -0.7053
vn 0.0149 0.7107 0.7034
vn 0.0249 0.7145 0.6992
vn 0.0367 0.9993 -0.0005
vn -0.0028 1.0000 -0.0089
vn 0.0247 0.7139 -0.6998
vn -0.0279 0.6999 -0.7137
vn 0.0149 -0.7100 0.7041
vn -0.0178 -0.7038 0.7102
vn -0.0001 0.0093 1.0000
vn 0.0202 0.0006 0.9998
vn -0.0000 0.0094 1.0000
vn -0.0281 -0.6993 -0.7143
vn -0.0176 -0.7031 -0.7108
vn -0.0229 -0.9997 -0.0006
vn -0.0028 -1.0000 -0.0090
vn -0.0177 -0.7038 0.7102
vn 0.0150 -0.7100 0.7040
vn 0.0248 0.7139 -0.6999
vn -0.0000 0.0094 -1.0000
vn -0.0399 0.0006 -0.9992
vn -0.0398 0.0005 -0.9992
vn -0.0000 0.0092 -1.0000
vn -0.0177 -0.7031 -0.7108
vn -0.0280 -0.6992 -0.7143
vn 0.7082 -0.0047 0.7060
vn 0.7109 -0.0068 0.7033
vn 1.0000 -0.0098 -0.0000
vn 1.0000 -0.0063 0.0001
vn 1.0000 -0.0063 -0.0001
vn 0.7109 -0.0068 -0.7033
vn 0.7083 -0.0047 -0.7059
vn -0.7108 0.0067 0.7033
vn -0.7082 0.0048 0.7060
vn 0.0023 -0.0003 1.0000
vn -0.0023 0.0003 1.0000
vn -0.7109 0.0066 -0.7033
vn -0.7082 0.0048 -0.7060
vn -1.0000 0.0064 -0.0000
vn -1.0000 0.0096 -0.0000
vn -0.7109 0.0066 0.7033
vn 0.7082 -0.0047 -0.7060
vn 0.0024 -0.0003 -1.0000
vn -0.0023 0.0003 -1.0000
vn 0.0022 -0.0003 -1.0000
vn -0.7108 0.0067 -0.7033
vn 0.1057 -0.0000 0.9944
vn 0.0786 -0.7239 0.6854
vn 0.0014 0.7073 0.7069
vn 0.0786 0.7239 0.6854
vn -0.0003 1.0000 -0.0008
vn -0.0208 0.9993 -0.0309
vn 0.0786 0.7240 0.6854
vn -0.1587 0.6849 -0.7111
vn -0.0208 0.9993 -0.0310
vn -0.2200 -0.0000 -0.9755
vn -0.1587 0.6849 -0.7112
vn -0.1587 -0.6849 -0.7112
vn -0.0208 -0.9993 -0.0310
vn -0.1587 -0.6849 -0.7111
vn 0.0014 -0.7075 0.7067
vn -0.0208 -0.9993 -0.0309
vn -0.0566 -0.9974 -0.0438
vn -0.5157 -0.6810 -0.5199
vn -0.0566 -0.9974 -0.0437
vn -0.0363 -0.9993 -0.0077
vn -0.7125 -0.6840 -0.1568
vn -0.7125 -0.6840 -0.1569
vn -0.0363 -0.9993 -0.0076
vn -0.0106 -0.9991 -0.0402
vn -0.7143 -0.6966 -0.0670
vn -0.2200 -0.0001 -0.9755
vn -0.7017 -0.0000 -0.7125
vn -0.7125 -0.6839 -0.1569
vn -0.9748 -0.0000 -0.2232
vn -0.7143 -0.6966 -0.0671
vn -0.9969 -0.0000 -0.0784
vn -0.5157 0.6810 -0.5199
vn -0.7125 0.6839 -0.1568
vn -0.7125 0.6840 -0.1569
vn -0.9969 0.0001 -0.0783
vn -0.7143 0.6966 -0.0671
vn -0.0565 0.9974 -0.0438
vn -0.0566 0.9974 -0.0437
vn -0.7124 0.6840 -0.1569
vn -0.0363 0.9993 -0.0077
vn -0.0363 0.9993 -0.0076
vn -0.7143 0.6967 -0.0671
vn -0.0106 0.9991 -0.0402
vn 0.4236 0.7788 0.4626
vn 0.4237 0.7788 0.4626
vn -0.0362 0.9993 -0.0076
vn 0.6795 0.7263 0.1038
vn 0.7037 0.7102 -0.0208
vn 0.4237 0.7787 0.4626
vn 0.6782 -0.0000 0.7348
vn 0.6782 -0.0000 0.7349
vn 0.6795 0.7263 0.1039
vn 0.9908 -0.0000 0.1351
vn 0.9908 -0.0000 0.1350
vn 0.9999 -0.0000 -0.0130
vn 0.6783 -0.0000 0.7348
vn 0.4237 -0.7787 0.4626
vn 0.4237 -0.7788 0.4626
vn 0.6795 -0.7263 0.1038
vn 0.9908 -0.0001 0.1351
vn 0.7037 -0.7102 -0.0208
vn -0.0207 -0.9993 -0.0310
vn 0.4236 -0.7788 0.4627
vn -0.0565 -0.9974 -0.0437
vn -0.0362 -0.9993 -0.0076
vn -0.0105 -0.9991 -0.0402
vn 0.0342 -0.0145 0.9993
vn 0.7117 -0.1591 0.6842
vn -0.6819 0.0910 0.7258
vn 0.0341 -0.0145 0.9993
vn -1.0000 0.0065 0.0001
vn -0.9928 0.1198 -0.0000
vn -0.6819 0.0910 0.7257
vn -1.0000 0.0065 -0.0000
vn -0.6819 0.0910 -0.7257
vn -0.7082 0.0047 -0.7060
vn 0.0023 -0.0003 -1.0000
vn 0.0342 -0.0145 -0.9993
vn -0.6819 0.0910 -0.7258
vn 0.7117 -0.1591 -0.6842
vn 0.9747 -0.2234 -0.0000
vn 0.9747 -0.2235 0.0001
vn 0.9747 -0.2235 -0.0000
vn 0.7049 -0.7093 -0.0000
vn 0.5164 -0.5197 -0.6807
vn 0.5164 -0.5197 -0.6806
vn 0.2201 -0.9755 -0.0000
vn 0.1567 -0.7122 -0.6843
vn 0.1566 -0.7122 -0.6843
vn 0.2201 -0.9755 -0.0001
vn 0.7117 -0.1592 -0.6842
vn 0.5163 -0.5197 -0.6807
vn 0.0507 -0.0509 -0.9974
vn 0.5163 -0.5197 -0.6806
vn 0.0143 -0.0339 -0.9993
vn 0.1567 -0.7121 -0.6843
vn 0.0506 -0.0509 -0.9974
vn -0.4399 0.4442 -0.7805
vn -0.4399 0.4443 -0.7805
vn 0.0142 -0.0339 -0.9993
vn -0.0894 0.6825 -0.7254
vn -0.4399 0.4443 -0.7804
vn -0.7034 0.7108 -0.0000
vn -0.1176 0.9931 -0.0000
vn -0.0893 0.6825 -0.7254
vn -0.0024 1.0000 -0.0001
vn -0.6819 0.0911 0.7257
vn -0.9928 0.1198 0.0001
vn -0.4399 0.4443 0.7804
vn -0.4400 0.4442 0.7805
vn -0.0894 0.6825 0.7254
vn -0.4399 0.4442 0.7805
vn 0.0506 -0.0508 0.9974
vn 0.0507 -0.0508 0.9974
vn -0.4399 0.4443 0.7805
vn 0.0143 -0.0338 0.9993
vn 0.0143 -0.0339 0.9993
vn 0.0507 -0.0509 0.9974
vn 0.5163 -0.5197 0.6807
vn 0.5163 -0.5197 0.6806
vn 0.1567 -0.7122 0.6843
vn 0.5164 -0.5197 0.6807
vn 0.5164 -0.5197 0.6806
vn 0.0039 -1.0000 -0.0000
vn 1.0000 -0.0064 -0.0000
vn 0.6822 -0.0897 -0.7256
vn 0.9930 -0.1181 -0.0000
vn -0.0022 0.0003 -1.0000
vn -0.0341 0.0144 -0.9993
vn 0.6822 -0.0898 -0.7256
vn -0.7120 0.1576 -0.6842
vn -0.7109 0.0067 -0.7033
vn -0.9752 0.2213 -0.0000
vn -0.7109 0.0067 0.7033
vn -0.7120 0.1576 0.6842
vn -0.0341 0.0144 0.9993
vn -0.0022 0.0002 1.0000
vn 0.6822 -0.0898 0.7256
vn 0.4425 -0.4412 -0.7807
vn 0.7083 -0.7059 -0.0000
vn 0.4426 -0.4411 -0.7808
vn 0.0904 -0.6820 -0.7257
vn 0.1188 -0.9929 -0.0000
vn 0.0903 -0.6820 -0.7257
vn -0.0509 0.0509 -0.9974
vn 0.4425 -0.4411 -0.7807
vn 0.4425 -0.4411 -0.7808
vn -0.0144 0.0341 -0.9993
vn 0.0903 -0.6820 -0.7258
vn -0.5187 0.5175 -0.6806
vn -0.0510 0.0509 -0.9974
vn -0.5186 0.5175 -0.6806
vn -0.1584 0.7119 -0.6842
vn -0.0145 0.0342 -0.9993
vn -0.9752 0.2214 -0.0000
vn -0.7078 0.7064 -0.0000
vn -0.2225 0.9749 -0.0000
vn -0.2224 0.9749 -0.0001
vn -0.0011 1.0000 -0.0001
vn -0.0008 0.7095 -0.7047
vn -0.7121 0.1576 0.6842
vn -0.5186 0.5176 0.6806
vn -0.7079 0.7063 -0.0000
vn -0.5186 0.5175 0.6806
vn -0.1584 0.7119 0.6842
vn -0.2224 0.9749 -0.0000
vn -0.2224 0.9750 -0.0000
vn -0.0007 0.7095 0.7047
vn -0.0011 1.0000 -0.0000
vn -0.0510 0.0509 0.9974
vn -0.0145 0.0342 0.9993
vn -0.0008 0.7094 0.7048
vn 0.6822 -0.0898 0.7257
vn 0.4425 -0.4411 0.7808
vn -0.0509 0.0509 0.9974
vn 0.4425 -0.4412 0.7808
vn 0.0903 -0.6820 0.7257
vn -0.0145 0.0341 0.9993
vn 0.0903 -0.6820 0.7258
vn 0.9930 -0.1181 0.0001
vn 0.4425 -0.4412 0.7807
vn 0.4425 -0.4411 0.7807
vn 0.0005 -0.7092 0.7051
vn 0.0351 -0.0150 0.9993
vn 0.7111 -0.1630 0.6839
vn -0.7089 0.0012 0.7053
vn -0.6808 0.0927 0.7266
vn 0.0350 -0.0150 0.9993
vn -0.9925 0.1220 -0.0000
vn -0.6808 0.0927 -0.7266
vn 0.0350 -0.0151 -0.9993
vn 0.7097 -0.0018 -0.7045
vn 0.7112 -0.1630 -0.6839
vn 0.0351 -0.0151 -0.9993
vn 0.9735 -0.2287 -0.0000
vn 0.7112 -0.1630 -0.6838
vn 0.7097 -0.0018 0.7045
vn 0.7112 -0.1630 0.6839
vn 0.9735 -0.2288 -0.0000
vn 0.6983 -0.7158 -0.0000
vn 0.5117 -0.5247 -0.6803
vn 0.6983 -0.7158 0.0001
vn 0.2156 -0.9765 -0.0000
vn 0.1535 -0.7129 -0.6842
vn 0.1534 -0.7129 -0.6842
vn 0.0007 -0.7095 -0.7048
vn 0.0511 -0.0518 -0.9974
vn 0.0510 -0.0518 -0.9974
vn 0.0141 -0.0339 -0.9993
vn 0.1534 -0.7129 -0.6843
vn -0.6808 0.0928 -0.7266
vn -0.4326 0.4494 -0.7816
vn -0.4325 0.4495 -0.7816
vn -0.0864 0.6830 -0.7253
vn -0.0005 0.7091 -0.7051
vn -0.6922 0.7217 -0.0000
vn -0.6923 0.7216 -0.0000
vn -0.4325 0.4494 -0.7816
vn -0.0865 0.6830 -0.7253
vn -0.1133 0.9936 -0.0000
vn -0.0007 1.0000 -0.0001
vn -0.6808 0.0928 0.7266
vn -0.4325 0.4495 0.7816
vn -0.4326 0.4494 0.7816
vn -0.0864 0.6830 0.7253
vn -0.0007 1.0000 -0.0000
vn 0.0350 -0.0151 0.9993
vn 0.0510 -0.0517 0.9974
vn -0.0865 0.6830 0.7253
vn 0.0141 -0.0339 0.9993
vn -0.0005 0.7092 0.7051
vn 0.0351 -0.0151 0.9993
vn 0.0510 -0.0518 0.9974
vn 0.5117 -0.5247 0.6803
vn 0.1534 -0.7129 0.6843
vn 0.6984 -0.7157 -0.0000
vn 0.1535 -0.7129 0.6843
vn 0.2157 -0.9765 -0.0000
vn 0.2156 -0.9765 0.0001
vn 0.1534 -0.7129 0.6842
vn 0.0169 0.0379 0.9991
vn 0.1754 0.7092 0.6828
vn -0.0980 -0.6770 0.7294
vn 0.0169 0.0378 0.9991
vn -0.1284 -0.9917 -0.0000
vn -0.0980 -0.6771 0.7294
vn -0.0980 -0.6771 -0.7294
vn -0.1285 -0.9917 -0.0000
vn -0.0177 -0.7031 -0.7109
vn -0.0000 0.0093 -1.0000
vn 0.0169 0.0378 -0.9991
vn -0.0980 -0.6770 -0.7294
vn 0.0248 0.7138 -0.6999
vn 0.1753 0.7092 -0.6828
vn 0.0169 0.0379 -0.9991
vn 0.0248 0.7139 -0.6998
vn 0.2456 0.9694 -0.0000
vn 0.1754 0.7093 -0.6828
vn 0.1753 0.7093 0.6828
vn 0.2457 0.9694 -0.0000
vn 0.1754 0.7092 -0.6828
vn 0.7357 0.6773 -0.0000
vn 0.5404 0.4966 -0.6792
vn 0.5404 0.4967 -0.6792
vn 0.9795 0.2013 -0.0000
vn 0.7152 0.1430 -0.6841
vn 0.7152 0.1429 -0.6841
vn 0.0170 0.0378 -0.9991
vn 0.1753 0.7093 -0.6828
vn 0.0547 0.0520 -0.9971
vn 0.0338 0.0135 -0.9993
vn 0.0338 0.0134 -0.9993
vn 0.7152 0.1430 -0.6842
vn -0.0981 -0.6770 -0.7294
vn 0.0169 0.0377 -0.9991
vn 0.0547 0.0520 -0.9972
vn -0.4658 -0.4084 -0.7850
vn 0.0547 0.0519 -0.9972
vn -0.6846 -0.0772 -0.7248
vn 0.0005 -0.0000 -1.0000
vn -0.7090 -0.0010 -0.7052
vn -0.7559 -0.6546 -0.0000
vn -0.7559 -0.6547 -0.0000
vn -0.9950 -0.1000 -0.0001
vn -0.0981 -0.6770 0.7294
vn -0.4658 -0.4084 0.7850
vn -0.9950 -0.1000 -0.0000
vn -0.6846 -0.0772 0.7248
vn -0.6847 -0.0771 0.7248
vn 0.0547 0.0520 0.9971
vn 0.0338 0.0134 0.9993
vn 0.0006 -0.0000 1.0000
vn 0.0170 0.0378 0.9991
vn 0.5404 0.4966 0.6792
vn 0.0338 0.0135 0.9993
vn 0.7152 0.1430 0.6842
vn 0.2457 0.9693 -0.0000
vn 0.1754 0.7093 0.6828
vn 0.5404 0.4967 0.6792
vn 0.7152 0.1430 0.6841
vn 0.9795 0.2013 0.0001
vn 0.9795 0.2012 0.0001
vn 0.7097 0.0014 0.7045
vn 0.7042 0.7095 -0.0259
vn 0.9998 -0.0000 -0.0199
vn 0.9938 0.0001 0.1112
vn 0.6839 0.7244 0.0871
vn 0.9998 -0.0000 -0.0198
vn 0.7042 -0.7095 -0.0259
vn 0.6839 -0.7244 0.0871
vn 0.9938 -0.0001 0.1112
vn 0.7042 -0.7096 -0.0259
vn -0.0091 -0.9991 -0.0405
vn -0.0348 -0.9994 -0.0057
vn 0.6838 -0.7244 0.0871
vn -0.0092 -0.9991 -0.0405
vn -0.7135 -0.6980 -0.0616
vn -0.7167 -0.6842 -0.1349
vn -0.0349 -0.9994 -0.0056
vn -0.7135 -0.6979 -0.0616
vn -0.9975 -0.0000 -0.0703
vn -0.9812 -0.0000 -0.1931
vn -0.7167 -0.6842 -0.1350
vn -0.7135 0.6979 -0.0616
vn -0.7167 0.6842 -0.1349
vn -0.9812 -0.0000 -0.1932
vn -0.7135 0.6980 -0.0616
vn -0.0092 0.9991 -0.0405
vn -0.0349 0.9994 -0.0056
vn -0.7166 0.6843 -0.1350
vn -0.0091 0.9991 -0.0405
vn 0.7042 0.7096 -0.0259
vn -0.0348 0.9994 -0.0056
vn -0.0348 0.9994 -0.0057
vn -0.0604 0.9972 -0.0433
vn -0.5465 0.6798 -0.4891
vn -0.0241 0.9991 -0.0348
vn -0.1823 0.6834 -0.7069
vn -0.1824 0.6834 -0.7069
vn -0.7419 -0.0000 -0.6705
vn -0.2524 -0.0000 -0.9676
vn -0.2523 -0.0000 -0.9676
vn -0.1824 0.6833 -0.7069
vn -0.5465 -0.6798 -0.4892
vn -0.5465 -0.6798 -0.4891
vn -0.1824 -0.6833 -0.7070
vn -0.1823 -0.6834 -0.7069
vn -0.0399 0.0005 -0.9992
vn -0.0281 -0.6992 -0.7143
vn -0.7167 -0.6843 -0.1349
vn -0.0604 -0.9972 -0.0433
vn -0.1824 -0.6834 -0.7069
vn -0.0241 -0.9991 -0.0348
vn -0.0029 -1.0000 -0.0090
vn -0.0603 -0.9972 -0.0433
vn 0.4595 -0.7826 0.4201
vn -0.0241 -0.9991 -0.0347
vn 0.0906 -0.7281 0.6794
vn 0.9938 -0.0000 0.1112
vn 0.7461 -0.0000 0.6659
vn 0.4595 -0.7826 0.4200
vn 0.1215 -0.0000 0.9926
vn 0.1215 -0.0001 0.9926
vn 0.0906 -0.7281 0.6795
vn 0.0202 0.0005 0.9998
vn 0.4595 0.7826 0.4201
vn 0.4596 0.7826 0.4200
vn 0.1216 -0.0000 0.9926
vn 0.0906 0.7281 0.6795
vn 0.0149 0.7106 0.7034
vn 0.6838 0.7244 0.0871
vn 0.4595 0.7826 0.4200
vn -0.0603 0.9972 -0.0433
vn -0.0604 0.9972 -0.0432
vn 0.0907 0.7281 0.6794
vn -0.0241 0.9991 -0.0347
vn 0.0906 0.7281 0.6794
vn 0.7042 0.7096 -0.0260
vn -0.0091 0.9991 -0.0406
vn 0.9999 -0.0000 -0.0131
vn -0.0106 0.9991 -0.0403
vt 0.636322 0.771411
vt 0.587470 0.804750
vt 0.582466 0.801554
vt 0.635177 0.765465
vt 0.576221 0.861411
vt 0.570569 0.862499
vt 0.433500 0.501817
vt 0.495149 0.501817
vt 0.495149 0.744281
vt 0.433500 0.744281
vt 0.667721 0.922223
vt 0.668877 0.928042
vt 0.605422 0.915050
vt 0.608737 0.910132
vt 0.727696 0.832155
vt 0.733433 0.831018
vt 0.721608 0.892773
vt 0.716620 0.889535
vt 0.310201 0.501817
vt 0.371850 0.501817
vt 0.371850 0.744281
vt 0.310201 0.744281
vt 0.687564 0.793554
vt 0.638896 0.784065
vt 0.637511 0.777194
vt 0.691445 0.787669
vt 0.581871 0.860294
vt 0.612010 0.905265
vt 0.125252 0.501817
vt 0.186902 0.501817
vt 0.186902 0.744281
vt 0.125252 0.744281
vt 0.248551 0.501817
vt 0.248551 0.744281
vt 0.666609 0.916401
vt 0.711799 0.886320
vt 0.694675 0.782803
vt 0.697976 0.777719
vt 0.063603 0.501817
vt 0.063603 0.744281
vt 0.602608 0.814790
vt 0.598019 0.811727
vt 0.639988 0.789629
vt 0.592254 0.807905
vt 0.641149 0.795086
vt 0.607213 0.817814
vt 0.722022 0.833305
vt 0.619061 0.894562
vt 0.615915 0.899401
vt 0.588618 0.858968
vt 0.594043 0.857906
vt 0.701466 0.879486
vt 0.706041 0.882519
vt 0.665296 0.909466
vt 0.664231 0.903895
vt 0.684425 0.798269
vt 0.715204 0.834694
vt 0.709684 0.835861
vt 0.681227 0.803114
vt 0.599435 0.856891
vt 0.622123 0.889732
vt 0.663198 0.898415
vt 0.696941 0.876438
vt 0.704000 0.837048
vt 0.001953 0.501817
vt 0.001953 0.744281
vt 0.000000 0.000000
s 1
usemtl Material.003
f 23/1/1 5/2/2 4/3/3 3/4/4
f 31/5/5 6/6/6 4/3/3 5/2/2
f 7/7/7 2/8/8 4/9/3 6/10/6
f 12/11/9 11/12/10 9/13/11 10/14/12
f 18/15/13 17/16/14 15/17/15 16/18/16
f 13/19/17 8/20/18 9/21/11 11/22/10
f 46/23/19 25/24/20 24/25/21 48/26/22
f 30/27/23 36/28/24 10/14/12 31/5/5
f 8/20/18 7/7/7 6/10/6 9/21/11
f 20/29/25 19/30/26 17/31/14 21/32/27
f 19/30/26 14/33/28 15/34/15 17/31/14
f 37/35/29 42/36/30 16/18/16 12/11/9
f 22/37/31 23/1/1 3/4/4 21/38/27
f 48/26/22 24/25/21 23/1/1 22/37/31
f 1/39/32 20/29/25 21/32/27 3/40/4
f 28/41/33 27/42/34 25/24/20 26/43/35
f 14/33/28 13/19/17 11/22/10 15/34/15
f 24/25/21 29/44/36 5/2/2 23/1/1
f 29/44/36 30/27/23 31/5/5 5/2/2
f 25/24/20 27/42/34 29/44/36 24/25/21
f 50/45/37 51/46/38 28/41/33 26/43/35
f 43/47/39 48/26/22 22/37/31 18/15/13
f 35/48/40 34/49/41 32/50/42 33/51/43
f 27/42/34 32/50/42 30/27/23 29/44/36
f 31/5/5 10/14/12 9/13/11 6/6/6
f 36/28/24 37/35/29 12/11/9 10/14/12
f 32/50/42 34/49/41 36/28/24 30/27/23
f 28/41/33 33/51/43 32/50/42 27/42/34
f 41/52/44 40/53/45 38/54/46 39/55/47
f 34/49/41 38/54/46 37/35/29 36/28/24
f 12/11/9 16/18/16 15/17/15 11/12/10
f 42/36/30 43/47/39 18/15/13 16/18/16
f 38/54/46 40/53/45 42/36/30 37/35/29
f 35/48/40 39/55/47 38/54/46 34/49/41
f 47/56/48 46/23/19 44/57/49 45/58/50
f 40/53/45 44/57/49 43/47/39 42/36/30
f 18/15/13 22/37/31 21/38/27 17/16/14
f 49/59/51 50/45/37 26/43/35 47/56/48
f 44/57/49 46/23/19 48/26/22 43/47/39
f 41/52/44 45/58/50 44/57/49 40/53/45
f 47/56/48 26/43/35 25/24/20 46/23/19
f 51/46/38 52/60/52 33/51/43 28/41/33
f 52/60/52 53/61/53 35/48/40 33/51/43
f 53/61/53 54/62/54 39/55/47 35/48/40
f 54/62/54 55/63/55 41/52/44 39/55/47
f 55/63/55 56/64/56 45/58/50 41/52/44
f 56/64/56 49/59/51 47/56/48 45/58/50
f 2/65/8 1/39/32 3/40/4 4/66/3
f 79/1/1 61/2/2 60/3/3 59/4/4
f 87/5/5 62/6/6 60/3/3 61/2/2
f 63/7/7 58/8/8 60/9/3 62/10/6
f 68/11/9 67/12/10 65/13/11 66/14/12
f 74/15/13 73/16/14 71/17/57 72/18/16
f 69/19/17 64/20/18 65/21/11 67/22/10
f 102/23/19 81/24/20 80/25/58 104/26/22
f 86/27/59 92/28/24 66/14/12 87/5/5
f 64/20/18 63/7/7 62/10/6 65/21/11
f 76/29/25 75/30/26 73/31/14 77/32/27
f 75/30/26 70/33/28 71/34/57 73/31/14
f 93/35/29 98/36/30 72/18/16 68/11/9
f 78/37/31 79/1/1 59/4/4 77/38/27
f 104/26/22 80/25/58 79/1/1 78/37/31
f 57/39/32 76/29/25 77/32/27 59/40/4
f 84/41/33 83/42/60 81/24/20 82/43/35
f 70/33/28 69/19/17 67/22/10 71/34/57
f 80/25/58 85/44/36 61/2/2 79/1/1
f 85/44/36 86/27/59 87/5/5 61/2/2
f 81/24/20 83/42/60 85/44/36 80/25/58
f 106/45/37 107/46/61 84/41/33 82/43/35
f 99/47/62 104/26/22 78/37/31 74/15/13
f 91/48/40 90/49/41 88/50/42 89/51/43
f 83/42/60 88/50/42 86/27/59 85/44/36
f 87/5/5 66/14/12 65/13/11 62/6/6
f 92/28/24 93/35/29 68/11/9 66/14/12
f 88/50/42 90/49/41 92/28/24 86/27/59
f 84/41/33 89/51/43 88/50/42 83/42/60
f 97/52/44 96/53/63 94/54/46 95/55/47
f 90/49/41 94/54/46 93/35/29 92/28/24
f 68/11/9 72/18/16 71/17/57 67/12/10
f 98/36/30 99/47/62 74/15/13 72/18/16
f 94/54/46 96/53/63 98/36/30 93/35/29
f 91/48/40 95/55/47 94/54/46 90/49/41
f 103/56/48 102/23/19 100/57/49 101/58/50
f 96/53/63 100/57/49 99/47/62 98/36/30
f 74/15/13 78/37/31 77/38/27 73/16/14
f 105/59/51 106/45/37 82/43/35 103/56/48
f 100/57/49 102/23/19 104/26/22 99/47/62
f 97/52/44 101/58/50 100/57/49 96/53/63
f 103/56/48 82/43/35 81/24/20 102/23/19
f 107/46/61 108/60/52 89/51/43 84/41/33
f 108/60/52 109/61/64 91/48/40 89/51/43
f 109/61/64 110/62/54 95/55/47 91/48/40
f 110/62/54 111/63/65 97/52/44 95/55/47
f 111/63/65 112/64/56 101/58/50 97/52/44
f 112/64/56 105/59/51 103/56/48 101/58/50
f 58/65/8 57/39/32 59/40/4 60/66/3
s 0
f 118/67/66 122/67/67 169/67/68 165/67/69
f 165/67/69 169/67/70 121/67/71 117/67/72
f 119/67/73 123/67/74 170/67/75 166/67/76
f 166/67/77 170/67/78 122/67/67 118/67/79
f 120/67/80 124/67/81 171/67/82 167/67/83
f 167/67/84 171/67/82 123/67/85 119/67/73
f 117/67/86 121/67/71 172/67/87 168/67/88
f 168/67/89 172/67/90 124/67/81 120/67/91
f 126/67/92 130/67/93 177/67/94 173/67/95
f 173/67/96 177/67/97 129/67/98 125/67/99
f 127/67/100 131/67/101 178/67/102 174/67/103
f 174/67/104 178/67/105 130/67/106 126/67/92
f 128/67/107 132/67/108 179/67/109 175/67/110
f 175/67/111 179/67/109 131/67/112 127/67/113
f 125/67/114 129/67/115 180/67/116 176/67/117
f 176/67/118 180/67/119 132/67/108 128/67/120
f 134/67/121 138/67/122 185/67/123 181/67/124
f 181/67/125 185/67/123 137/67/126 133/67/127
f 135/67/128 139/67/129 186/67/130 182/67/131
f 182/67/132 186/67/133 138/67/134 134/67/135
f 136/67/136 140/67/137 187/67/138 183/67/139
f 183/67/140 187/67/141 139/67/142 135/67/143
f 133/67/144 137/67/145 188/67/146 184/67/147
f 184/67/148 188/67/149 140/67/150 136/67/151
f 142/67/152 146/67/153 193/67/154 189/67/155
f 189/67/155 193/67/154 145/67/156 141/67/157
f 143/67/158 147/67/159 194/67/160 190/67/161
f 190/67/161 194/67/162 146/67/153 142/67/152
f 144/67/163 148/67/164 195/67/165 191/67/166
f 191/67/166 195/67/165 147/67/167 143/67/168
f 141/67/157 145/67/169 196/67/170 192/67/171
f 192/67/172 196/67/173 148/67/174 144/67/175
f 154/67/176 158/67/177 205/67/178 201/67/179
f 201/67/180 205/67/178 157/67/181 153/67/182
f 155/67/183 159/67/184 206/67/185 202/67/186
f 202/67/186 206/67/185 158/67/177 154/67/176
f 156/67/187 160/67/188 207/67/189 203/67/190
f 203/67/190 207/67/189 159/67/184 155/67/191
f 153/67/192 157/67/181 208/67/193 204/67/194
f 204/67/194 208/67/195 160/67/188 156/67/196
f 122/67/67 170/67/78 229/67/197 230/67/198
f 170/67/75 123/67/199 226/67/200 229/67/197
f 123/67/85 171/67/201 223/67/202 226/67/203
f 171/67/82 124/67/81 220/67/204 223/67/205
f 124/67/81 172/67/90 217/67/206 220/67/207
f 172/67/87 121/67/71 214/67/208 217/67/206
f 121/67/71 169/67/70 211/67/209 214/67/210
f 169/67/70 122/67/211 230/67/198 211/67/212
f 214/67/210 211/67/209 210/67/213 213/67/214
f 213/67/214 210/67/215 209/67/216 212/67/217
f 212/67/218 209/67/219 161/67/220 113/67/221
f 217/67/222 214/67/210 213/67/214 216/67/223
f 216/67/223 213/67/214 212/67/224 215/67/225
f 215/67/225 212/67/224 113/67/226 164/67/227
f 220/67/204 217/67/206 216/67/223 219/67/228
f 219/67/228 216/67/223 215/67/225 218/67/229
f 218/67/230 215/67/225 164/67/231 116/67/232
f 223/67/205 220/67/204 219/67/228 222/67/233
f 222/67/234 219/67/228 218/67/235 221/67/236
f 221/67/237 218/67/235 116/67/238 163/67/239
f 226/67/200 223/67/202 222/67/234 225/67/240
f 225/67/241 222/67/234 221/67/242 224/67/243
f 224/67/243 221/67/242 163/67/239 115/67/244
f 229/67/197 226/67/200 225/67/245 228/67/246
f 228/67/247 225/67/241 224/67/248 227/67/249
f 227/67/250 224/67/243 115/67/244 162/67/251
f 230/67/198 229/67/197 228/67/252 231/67/253
f 231/67/254 228/67/247 227/67/249 232/67/255
f 232/67/255 227/67/256 162/67/251 114/67/257
f 211/67/258 230/67/198 231/67/259 210/67/260
f 210/67/260 231/67/254 232/67/255 209/67/261
f 209/67/261 232/67/255 114/67/257 161/67/262
f 158/67/177 206/67/185 253/67/263 254/67/264
f 206/67/185 159/67/184 250/67/265 253/67/266
f 159/67/184 207/67/267 247/67/268 250/67/269
f 207/67/270 160/67/188 244/67/271 247/67/268
f 160/67/272 208/67/273 241/67/274 244/67/275
f 208/67/273 157/67/181 238/67/276 241/67/274
f 157/67/181 205/67/178 235/67/277 238/67/276
f 205/67/178 158/67/177 254/67/264 235/67/278
f 238/67/276 235/67/279 234/67/280 237/67/281
f 237/67/282 234/67/280 233/67/283 236/67/284
f 236/67/285 233/67/286 165/67/69 117/67/72
f 241/67/274 238/67/287 237/67/288 240/67/289
f 240/67/289 237/67/290 236/67/284 239/67/291
f 239/67/291 236/67/292 117/67/72 168/67/88
f 244/67/275 241/67/274 240/67/293 243/67/294
f 243/67/295 240/67/293 239/67/296 242/67/297
f 242/67/297 239/67/291 168/67/89 120/67/91
f 247/67/268 244/67/275 243/67/298 246/67/299
f 246/67/299 243/67/294 242/67/297 245/67/300
f 245/67/300 242/67/301 120/67/80 167/67/302
f 250/67/303 247/67/304 246/67/299 249/67/305
f 249/67/306 246/67/299 245/67/300 248/67/307
f 248/67/307 245/67/300 167/67/84 119/67/73
f 253/67/263 250/67/265 249/67/308 252/67/309
f 252/67/310 249/67/311 248/67/307 251/67/312
f 251/67/313 248/67/307 119/67/73 166/67/76
f 254/67/264 253/67/263 252/67/314 255/67/315
f 255/67/316 252/67/314 251/67/313 256/67/317
f 256/67/317 251/67/313 166/67/77 118/67/79
f 235/67/279 254/67/264 255/67/318 234/67/280
f 234/67/280 255/67/319 256/67/317 233/67/283
f 233/67/283 256/67/317 118/67/66 165/67/320
f 201/67/321 153/67/192 262/67/322 257/67/323
f 153/67/192 204/67/324 265/67/325 262/67/326
f 204/67/194 156/67/196 268/67/327 265/67/325
f 156/67/328 203/67/190 271/67/329 268/67/327
f 203/67/190 155/67/330 274/67/331 271/67/329
f 155/67/191 202/67/186 277/67/332 274/67/331
f 202/67/333 154/67/176 280/67/334 277/67/332
f 154/67/176 201/67/321 257/67/323 280/67/334
f 257/67/323 262/67/326 261/67/335 258/67/336
f 258/67/336 261/67/337 260/67/338 259/67/339
f 259/67/339 260/67/340 129/67/98 177/67/97
f 262/67/326 265/67/325 264/67/341 261/67/342
f 261/67/343 264/67/341 263/67/344 260/67/340
f 260/67/345 263/67/344 180/67/116 129/67/115
f 265/67/325 268/67/327 267/67/346 264/67/347
f 264/67/347 267/67/348 266/67/349 263/67/350
f 263/67/350 266/67/349 132/67/108 180/67/119
f 268/67/327 271/67/351 270/67/352 267/67/348
f 267/67/348 270/67/352 269/67/353 266/67/349
f 266/67/349 269/67/354 179/67/355 132/67/356
f 271/67/351 274/67/357 273/67/358 270/67/359
f 270/67/352 273/67/360 272/67/361 269/67/362
f 269/67/363 272/67/361 131/67/364 179/67/365
f 274/67/331 277/67/332 276/67/366 273/67/360
f 273/67/358 276/67/366 275/67/367 272/67/361
f 272/67/361 275/67/367 178/67/102 131/67/368
f 277/67/332 280/67/369 279/67/370 276/67/371
f 276/67/371 279/67/372 278/67/373 275/67/374
f 275/67/374 278/67/375 130/67/106 178/67/105
f 280/67/334 257/67/376 258/67/336 279/67/377
f 279/67/378 258/67/336 259/67/339 278/67/373
f 278/67/373 259/67/339 177/67/97 130/67/379
f 138/67/134 186/67/133 301/67/380 302/67/381
f 186/67/130 139/67/382 298/67/383 301/67/384
f 139/67/142 187/67/141 295/67/385 298/67/383
f 187/67/141 140/67/137 292/67/386 295/67/385
f 140/67/150 188/67/149 289/67/387 292/67/386
f 188/67/146 137/67/388 286/67/389 289/67/390
f 137/67/388 185/67/123 283/67/391 286/67/392
f 185/67/123 138/67/393 302/67/394 283/67/395
f 286/67/392 283/67/395 282/67/396 285/67/397
f 285/67/397 282/67/398 281/67/399 284/67/400
f 284/67/401 281/67/399 173/67/96 125/67/402
f 289/67/390 286/67/389 285/67/397 288/67/403
f 288/67/404 285/67/397 284/67/401 287/67/405
f 287/67/405 284/67/406 125/67/114 176/67/117
f 292/67/407 289/67/387 288/67/404 291/67/408
f 291/67/409 288/67/404 287/67/405 290/67/410
f 290/67/410 287/67/405 176/67/118 128/67/411
f 295/67/385 292/67/386 291/67/409 294/67/412
f 294/67/413 291/67/414 290/67/415 293/67/416
f 293/67/416 290/67/410 128/67/107 175/67/417
f 298/67/418 295/67/385 294/67/412 297/67/419
f 297/67/420 294/67/412 293/67/416 296/67/421
f 296/67/421 293/67/416 175/67/422 127/67/113
f 301/67/423 298/67/383 297/67/420 300/67/424
f 300/67/424 297/67/419 296/67/425 299/67/426
f 299/67/426 296/67/421 127/67/427 174/67/103
f 302/67/394 301/67/428 300/67/429 303/67/430
f 303/67/430 300/67/429 299/67/426 304/67/431
f 304/67/431 299/67/426 174/67/104 126/67/92
f 283/67/395 302/67/394 303/67/430 282/67/432
f 282/67/432 303/67/430 304/67/433 281/67/434
f 281/67/435 304/67/436 126/67/92 173/67/96
f 146/67/153 194/67/162 325/67/437 326/67/438
f 194/67/160 147/67/159 322/67/439 325/67/440
f 147/67/159 195/67/165 319/67/441 322/67/442
f 195/67/165 148/67/174 316/67/443 319/67/444
f 148/67/445 196/67/446 313/67/447 316/67/448
f 196/67/446 145/67/449 310/67/450 313/67/451
f 145/67/452 193/67/154 307/67/453 310/67/454
f 193/67/154 146/67/153 326/67/455 307/67/456
f 310/67/457 307/67/456 306/67/458 309/67/459
f 309/67/460 306/67/458 305/67/461 308/67/462
f 308/67/463 305/67/461 181/67/124 133/67/144
f 313/67/464 310/67/465 309/67/460 312/67/466
f 312/67/466 309/67/459 308/67/462 311/67/467
f 311/67/468 308/67/469 133/67/144 184/67/147
f 316/67/470 313/67/471 312/67/472 315/67/473
f 315/67/473 312/67/474 311/67/468 314/67/475
f 314/67/475 311/67/468 184/67/476 136/67/477
f 319/67/444 316/67/448 315/67/473 318/67/478
f 318/67/479 315/67/473 314/67/475 317/67/480
f 317/67/480 314/67/475 136/67/136 183/67/140
f 322/67/481 319/67/444 318/67/478 321/67/482
f 321/67/482 318/67/478 317/67/483 320/67/484
f 320/67/485 317/67/483 183/67/140 135/67/143
f 325/67/440 322/67/442 321/67/482 324/67/486
f 324/67/486 321/67/482 320/67/484 323/67/487
f 323/67/487 320/67/484 135/67/143 182/67/488
f 326/67/438 325/67/489 324/67/486 327/67/490
f 327/67/490 324/67/486 323/67/491 328/67/492
f 328/67/492 323/67/487 182/67/132 134/67/135
f 307/67/493 326/67/494 327/67/495 306/67/458
f 306/67/458 327/67/490 328/67/496 305/67/497
f 305/67/498 328/67/496 134/67/499 181/67/124
f 150/67/500 198/67/501 349/67/502 350/67/503
f 198/67/504 151/67/505 346/67/506 349/67/507
f 151/67/508 199/67/509 343/67/510 346/67/511
f 199/67/512 152/67/513 340/67/514 343/67/515
f 152/67/516 200/67/517 337/67/518 340/67/519
f 200/67/517 149/67/520 334/67/521 337/67/522
f 149/67/523 197/67/524 331/67/525 334/67/526
f 197/67/527 150/67/528 350/67/503 331/67/529
f 334/67/521 331/67/530 330/67/531 333/67/532
f 333/67/532 330/67/531 329/67/533 332/67/534
f 332/67/535 329/67/533 189/67/155 141/67/157
f 337/67/522 334/67/521 333/67/532 336/67/536
f 336/67/536 333/67/532 332/67/535 335/67/537
f 335/67/538 332/67/539 141/67/157 192/67/171
f 340/67/514 337/67/522 336/67/536 339/67/540
f 339/67/541 336/67/536 335/67/537 338/67/542
f 338/67/543 335/67/537 192/67/544 144/67/545
f 343/67/510 340/67/546 339/67/541 342/67/547
f 342/67/547 339/67/541 338/67/548 341/67/549
f 341/67/549 338/67/543 144/67/163 191/67/550
f 346/67/506 343/67/510 342/67/551 345/67/552
f 345/67/552 342/67/551 341/67/553 344/67/554
f 344/67/554 341/67/553 191/67/166 143/67/168
f 349/67/555 346/67/506 345/67/552 348/67/556
f 348/67/556 345/67/557 344/67/554 347/67/558
f 347/67/559 344/67/560 143/67/168 190/67/561
f 350/67/503 349/67/555 348/67/556 351/67/562
f 351/67/563 348/67/556 347/67/564 352/67/565
f 352/67/565 347/67/558 190/67/161 142/67/566
f 331/67/529 350/67/567 351/67/568 330/67/569
f 330/67/570 351/67/562 352/67/571 329/67/572
f 329/67/572 352/67/573 142/67/152 189/67/155
s 1
f 152/67/513 199/67/509 107/46/38 106/45/37
f 199/67/509 151/67/505 108/60/52 107/46/38
f 151/67/505 198/67/501 109/61/53 108/60/52
f 198/67/501 150/67/574 110/62/54 109/61/53
f 150/67/574 197/67/575 111/63/65 110/62/54
f 197/67/575 149/67/523 112/64/56 111/63/65
f 149/67/523 200/67/517 105/59/51 112/64/56
f 200/67/517 152/67/513 106/45/37 105/59/51
f 113/67/226 161/67/220 51/46/38 50/45/37
f 161/67/220 114/67/257 52/60/52 51/46/38
f 114/67/257 162/67/576 53/61/53 52/60/52
f 162/67/576 115/67/244 54/62/54 53/61/53
f 115/67/244 163/67/577 55/63/65 54/62/54
f 163/67/577 116/67/232 56/64/56 55/63/65
f 116/67/232 164/67/227 49/59/51 56/64/56
f 164/67/227 113/67/226 50/45/37 49/59/51
