# Blender 5.0.1
# www.blender.org
mtllib Wire_Head_Yellow(Pin_15-X1).mtl
o Wire_Head_Yellow(Pin_15-X1)
v 0.175316 0.004722 0.249517
v 0.177437 0.003844 0.249517
v 0.175316 0.004722 0.240313
v 0.177437 0.003844 0.240313
v 0.177437 0.003928 0.240115
v 0.179557 0.004722 0.240313
v 0.179557 0.004722 0.249517
v 0.180435 0.006843 0.249517
v 0.180435 0.006843 0.240313
v 0.180352 0.006843 0.240115
v 0.179557 0.008963 0.240313
v 0.179498 0.008904 0.240115
v 0.179557 0.008963 0.249517
v 0.177437 0.009842 0.249517
v 0.177437 0.009842 0.240313
v 0.177437 0.009758 0.240115
v 0.175316 0.008963 0.240313
v 0.175375 0.008904 0.240115
v 0.175316 0.008963 0.249517
v 0.174438 0.006843 0.249517
v 0.174438 0.006843 0.240313
v 0.174521 0.006843 0.240115
v 0.175375 0.004781 0.240115
v 0.175518 0.004924 0.240033
v 0.175706 0.005112 0.240033
v 0.175849 0.005255 0.240115
v 0.177437 0.004395 0.240033
v 0.177437 0.004597 0.240115
v 0.177437 0.004130 0.240033
v 0.179355 0.004924 0.240033
v 0.179498 0.004781 0.240115
v 0.179167 0.005112 0.240033
v 0.179024 0.005255 0.240115
v 0.179884 0.006843 0.240033
v 0.179682 0.006843 0.240115
v 0.180150 0.006843 0.240033
v 0.179355 0.008761 0.240033
v 0.179167 0.008573 0.240033
v 0.179024 0.008430 0.240115
v 0.177437 0.009290 0.240033
v 0.177437 0.009088 0.240115
v 0.177437 0.009556 0.240033
v 0.175518 0.008761 0.240033
v 0.175706 0.008573 0.240033
v 0.175849 0.008430 0.240115
v 0.174989 0.006843 0.240033
v 0.175191 0.006843 0.240115
v 0.174723 0.006843 0.240033
v 0.175275 0.006843 0.240313
v 0.175908 0.005314 0.240313
v 0.177437 0.004681 0.240313
v 0.178965 0.005314 0.240313
v 0.179598 0.006843 0.240313
v 0.178965 0.008371 0.240313
v 0.177437 0.009004 0.240313
v 0.175908 0.008371 0.240313
v 0.033559 0.028526 0.249517
v 0.035679 0.027648 0.249517
v 0.033559 0.028526 0.240313
v 0.035679 0.027648 0.240313
v 0.035679 0.027732 0.240115
v 0.037800 0.028526 0.240313
v 0.037800 0.028526 0.249517
v 0.038678 0.030647 0.249517
v 0.038678 0.030647 0.240313
v 0.038595 0.030647 0.240115
v 0.037800 0.032767 0.240313
v 0.037741 0.032708 0.240115
v 0.037800 0.032767 0.249517
v 0.035679 0.033646 0.249517
v 0.035679 0.033646 0.240313
v 0.035679 0.033562 0.240115
v 0.033559 0.032767 0.240313
v 0.033618 0.032708 0.240115
v 0.033559 0.032767 0.249517
v 0.032681 0.030647 0.249517
v 0.032681 0.030647 0.240313
v 0.032764 0.030647 0.240115
v 0.033618 0.028585 0.240115
v 0.033761 0.028728 0.240033
v 0.033949 0.028916 0.240033
v 0.034092 0.029059 0.240115
v 0.035679 0.028199 0.240033
v 0.035679 0.028401 0.240115
v 0.035679 0.027934 0.240033
v 0.037598 0.028728 0.240033
v 0.037741 0.028585 0.240115
v 0.037410 0.028916 0.240033
v 0.037267 0.029059 0.240115
v 0.038127 0.030647 0.240033
v 0.037925 0.030647 0.240115
v 0.038393 0.030647 0.240033
v 0.037598 0.032565 0.240033
v 0.037410 0.032377 0.240033
v 0.037267 0.032234 0.240115
v 0.035679 0.033094 0.240033
v 0.035679 0.032892 0.240115
v 0.035679 0.033360 0.240033
v 0.033761 0.032565 0.240033
v 0.033949 0.032377 0.240033
v 0.034092 0.032234 0.240115
v 0.033232 0.030647 0.240033
v 0.033434 0.030647 0.240115
v 0.032966 0.030647 0.240033
v 0.033518 0.030647 0.240313
v 0.034151 0.029118 0.240313
v 0.035679 0.028485 0.240313
v 0.037208 0.029118 0.240313
v 0.037841 0.030647 0.240313
v 0.037208 0.032175 0.240313
v 0.035679 0.032808 0.240313
v 0.034151 0.032175 0.240313
v 0.181369 0.005480 0.230315
v 0.181663 0.005462 0.233054
v 0.181327 0.008205 0.233035
v 0.181033 0.008224 0.230297
v 0.034722 0.032343 0.238002
v 0.037365 0.031610 0.238043
v 0.036637 0.028951 0.238032
v 0.033994 0.029683 0.237991
v 0.055025 0.032409 0.230667
v 0.055028 0.031646 0.233446
v 0.055070 0.028884 0.232684
v 0.055067 0.029648 0.229905
v 0.042121 0.032419 0.230675
v 0.042162 0.031654 0.233436
v 0.042150 0.028875 0.232676
v 0.042109 0.029640 0.229914
v 0.059972 0.074844 0.239122
v 0.060178 0.074280 0.241940
v 0.063035 0.074279 0.241729
v 0.062829 0.074843 0.238910
v 0.059972 0.037203 0.231622
v 0.060178 0.036638 0.234440
v 0.063035 0.036637 0.234229
v 0.062829 0.037202 0.231410
v 0.178882 0.082597 0.240667
v 0.178877 0.081834 0.243446
v 0.178835 0.079073 0.242683
v 0.178840 0.079836 0.239905
v 0.067882 0.082598 0.240667
v 0.067885 0.081834 0.243446
v 0.067927 0.079072 0.242684
v 0.067924 0.079836 0.239905
v 0.186871 0.013151 0.231282
v 0.186487 0.012774 0.234113
v 0.183649 0.012867 0.233736
v 0.184032 0.013244 0.230905
v 0.186871 0.074858 0.239621
v 0.186487 0.074470 0.242451
v 0.183649 0.074480 0.242063
v 0.184032 0.074868 0.239233
v 0.181580 0.004956 0.231688
v 0.181550 0.006830 0.233558
v 0.181117 0.008729 0.231662
v 0.181146 0.006856 0.229792
v 0.176066 0.005463 0.237996
v 0.178807 0.005463 0.238038
v 0.178807 0.008222 0.238038
v 0.176066 0.008222 0.237996
v 0.036180 0.032477 0.238048
v 0.037498 0.030143 0.238069
v 0.035179 0.028817 0.238033
v 0.033861 0.031151 0.238012
v 0.055018 0.032545 0.232199
v 0.055050 0.030122 0.233586
v 0.055077 0.028748 0.231152
v 0.055045 0.031172 0.229765
v 0.042143 0.032557 0.232198
v 0.042164 0.030121 0.233574
v 0.042128 0.028736 0.231153
v 0.042107 0.031173 0.229777
v 0.059539 0.074562 0.240571
v 0.061645 0.074173 0.242363
v 0.063468 0.074561 0.240280
v 0.061362 0.074950 0.238488
v 0.059539 0.036921 0.233071
v 0.061645 0.036532 0.234863
v 0.063468 0.036920 0.232780
v 0.061362 0.037309 0.230988
v 0.178888 0.082733 0.242200
v 0.178855 0.080311 0.243586
v 0.178830 0.078937 0.241151
v 0.178862 0.081359 0.239765
v 0.067876 0.082733 0.242199
v 0.067907 0.080310 0.243586
v 0.067934 0.078936 0.241152
v 0.067903 0.081360 0.239765
v 0.187211 0.012945 0.232768
v 0.184996 0.012750 0.234455
v 0.183308 0.013073 0.232250
v 0.185524 0.013268 0.230562
v 0.187211 0.074662 0.241109
v 0.184996 0.074402 0.242787
v 0.183308 0.074676 0.240575
v 0.185524 0.074936 0.238897
v 0.177437 0.004945 0.238040
v 0.179322 0.006843 0.238070
v 0.177437 0.008741 0.238040
v 0.175551 0.006843 0.238011
v 0.186945 0.078500 0.241628
v 0.185582 0.081261 0.242001
v 0.182742 0.082507 0.242169
v 0.182669 0.082379 0.240638
v 0.185346 0.081219 0.240481
v 0.186614 0.078621 0.240130
v 0.182381 0.081172 0.239739
v 0.184412 0.080354 0.239629
v 0.185305 0.078401 0.239365
v 0.182062 0.079682 0.239884
v 0.183378 0.079242 0.239824
v 0.183856 0.078004 0.239657
v 0.181906 0.078800 0.241132
v 0.182877 0.078543 0.241098
v 0.183153 0.077652 0.240977
v 0.181979 0.078928 0.242664
v 0.183113 0.078586 0.242618
v 0.183484 0.077531 0.242475
v 0.182268 0.080135 0.243562
v 0.184046 0.079451 0.243470
v 0.184793 0.077751 0.243240
v 0.182587 0.081625 0.243418
v 0.185080 0.080562 0.243274
v 0.186241 0.078148 0.242948
v 0.063962 0.082488 0.242150
v 0.061116 0.081191 0.241892
v 0.059790 0.078401 0.241336
v 0.060212 0.078593 0.239869
v 0.061422 0.081179 0.240384
v 0.064059 0.082363 0.240620
v 0.061566 0.078411 0.239177
v 0.062404 0.080340 0.239562
v 0.064373 0.081161 0.239725
v 0.062995 0.078000 0.239539
v 0.063441 0.079237 0.239786
v 0.064704 0.079674 0.239873
v 0.063617 0.077585 0.240882
v 0.063893 0.078520 0.241069
v 0.064848 0.078790 0.241123
v 0.063196 0.077393 0.242349
v 0.063587 0.078532 0.242576
v 0.064750 0.078915 0.242653
v 0.061842 0.077575 0.243041
v 0.062604 0.079371 0.243399
v 0.064437 0.080118 0.243548
v 0.060412 0.077986 0.242679
v 0.061567 0.080474 0.243175
v 0.064106 0.081605 0.243400
v 0.059386 0.033893 0.232467
v 0.059105 0.032960 0.232282
v 0.058130 0.032690 0.232228
v 0.058226 0.032564 0.230698
v 0.059409 0.032947 0.230774
v 0.059807 0.034084 0.231000
v 0.058535 0.031361 0.229802
v 0.060385 0.032102 0.229950
v 0.061160 0.033896 0.230308
v 0.058861 0.029872 0.229950
v 0.061416 0.030993 0.230173
v 0.062588 0.033481 0.230669
v 0.059003 0.028988 0.231200
v 0.061865 0.030274 0.231456
v 0.063210 0.033064 0.232012
v 0.058907 0.029114 0.232730
v 0.061561 0.030287 0.232964
v 0.062789 0.032873 0.233479
v 0.058598 0.030317 0.233625
v 0.060584 0.031132 0.233787
v 0.061436 0.033060 0.234171
v 0.058272 0.031805 0.233477
v 0.059553 0.032241 0.233564
v 0.060008 0.033476 0.233810
v 0.038737 0.032537 0.232373
v 0.037062 0.032517 0.233021
v 0.036380 0.032497 0.234661
v 0.034949 0.032362 0.234301
v 0.036027 0.032381 0.231947
v 0.038412 0.032400 0.230901
v 0.034099 0.031156 0.234116
v 0.035404 0.031162 0.231326
v 0.038211 0.031167 0.230035
v 0.034234 0.029672 0.234130
v 0.035507 0.029662 0.231415
v 0.038247 0.029651 0.230167
v 0.035395 0.028797 0.234426
v 0.036346 0.028777 0.232289
v 0.038510 0.028757 0.231364
v 0.036833 0.028932 0.234752
v 0.037397 0.028913 0.233347
v 0.038846 0.028894 0.232833
v 0.037675 0.030137 0.234972
v 0.038003 0.030132 0.233984
v 0.039036 0.030126 0.233701
v 0.037549 0.031621 0.234923
v 0.037917 0.031632 0.233879
v 0.039011 0.031643 0.233567
v 0.187192 0.009999 0.232285
v 0.186688 0.007484 0.231772
v 0.184760 0.005692 0.231497
v 0.184509 0.006107 0.232893
v 0.186071 0.007557 0.233135
v 0.186482 0.009805 0.233612
v 0.183864 0.007327 0.233427
v 0.184780 0.008166 0.233586
v 0.185010 0.009850 0.233961
v 0.183228 0.008585 0.232916
v 0.183606 0.008909 0.232996
v 0.183676 0.010078 0.233267
v 0.182998 0.009099 0.231528
v 0.183299 0.009343 0.231581
v 0.183334 0.010375 0.231811
v 0.183250 0.008685 0.230132
v 0.183916 0.009269 0.230218
v 0.184044 0.010569 0.230484
v 0.183895 0.007465 0.229598
v 0.185207 0.008661 0.229767
v 0.185516 0.010524 0.230135
v 0.184531 0.006207 0.230109
v 0.186381 0.007917 0.230357
v 0.186850 0.010295 0.230829
v 0.178889 0.004707 0.232256
v 0.177694 0.004735 0.233388
v 0.177434 0.004867 0.235225
v 0.179507 0.005258 0.233460
v 0.178918 0.005281 0.233973
v 0.178802 0.005386 0.235272
v 0.179667 0.006649 0.233891
v 0.179359 0.006670 0.234139
v 0.179309 0.006766 0.235255
v 0.179357 0.008016 0.233403
v 0.178892 0.008037 0.233815
v 0.178789 0.008143 0.235135
v 0.178683 0.008500 0.232178
v 0.177659 0.008527 0.233171
v 0.177416 0.008660 0.235036
v 0.178076 0.007951 0.230969
v 0.176445 0.007980 0.232565
v 0.176050 0.008139 0.234954
v 0.177905 0.006559 0.230543
v 0.175993 0.006591 0.232420
v 0.175541 0.006761 0.235006
v 0.176063 0.005383 0.235091
v 0.176471 0.005223 0.232723
v 0.178225 0.005192 0.231026
vn -0.5349 -0.5349 -0.6540
vn -0.0000 -0.7565 -0.6540
vn -0.0000 -1.0000 -0.0080
vn -0.7071 -0.7071 -0.0080
vn 0.5349 -0.5349 -0.6540
vn 0.7071 -0.7071 -0.0080
vn 0.7071 -0.7071 -0.0000
vn -0.0000 -1.0000 -0.0000
vn 0.5349 0.5349 -0.6540
vn 0.7071 0.7071 -0.0080
vn 1.0000 -0.0000 -0.0080
vn 0.7565 -0.0000 -0.6540
vn -0.5349 0.5349 -0.6540
vn -0.7071 0.7071 -0.0080
vn -0.0000 1.0000 -0.0080
vn -0.0000 0.7565 -0.6540
vn 0.7071 0.7071 -0.0000
vn 1.0000 -0.0000 -0.0000
vn 0.1203 -0.0000 -0.9927
vn 0.0851 0.0851 -0.9927
vn -0.1612 -0.1612 -0.9737
vn -0.2280 -0.0000 -0.9737
vn 0.1612 -0.1612 -0.9737
vn 0.2280 -0.0000 -0.9737
vn -1.0000 -0.0000 -0.0000
vn -0.7071 0.7071 -0.0000
vn -1.0000 -0.0000 -0.0080
vn -0.0000 1.0000 -0.0000
vn 0.1612 0.1612 -0.9737
vn -0.0000 0.2280 -0.9737
vn -0.7565 -0.0000 -0.6540
vn -0.7071 -0.7071 -0.0000
vn -0.0000 0.6443 -0.7648
vn -0.0000 0.1203 -0.9927
vn 0.4556 0.4556 -0.7648
vn -0.0000 -0.2280 -0.9737
vn -0.6997 -0.6948 -0.1662
vn -0.0013 -0.9865 -0.1636
vn -0.1612 0.1612 -0.9737
vn -0.6443 -0.0000 -0.7648
vn -0.1203 -0.0000 -0.9927
vn -0.0851 0.0851 -0.9927
vn -0.4556 0.4556 -0.7648
vn -0.0000 -0.6443 -0.7648
vn -0.0000 -0.1203 -0.9927
vn -0.0851 -0.0851 -0.9927
vn -0.4556 -0.4556 -0.7648
vn 0.6443 -0.0000 -0.7648
vn 0.0851 -0.0851 -0.9927
vn 0.4556 -0.4556 -0.7648
vn -0.9862 -0.0000 -0.1655
vn 0.6979 -0.6959 -0.1691
vn 0.9855 -0.0000 -0.1695
vn 0.6979 0.6959 -0.1691
vn -0.0013 0.9865 -0.1637
vn -0.6997 0.6948 -0.1662
vn 1.0000 -0.0001 -0.0080
vn -0.7508 -0.6387 -0.1686
vn -0.0844 -0.9827 -0.1646
vn -0.9826 0.0820 -0.1667
vn 0.6425 -0.7469 -0.1713
vn 0.9820 -0.0811 -0.1708
vn 0.7484 0.6406 -0.1719
vn 0.0815 0.9829 -0.1650
vn -0.6439 0.7464 -0.1685
vn -0.0067 0.4891 0.8722
vn -0.0091 0.9639 0.2661
vn 0.0017 0.9658 0.2592
vn 0.0068 0.4971 0.8677
vn 0.0108 -0.8733 0.4870
vn 0.0009 -0.2732 0.9620
vn 0.0073 -0.2667 0.9638
vn 0.0037 -0.8730 0.4876
vn -0.0091 0.9639 0.2660
vn -0.0073 0.8669 -0.4984
vn -0.0079 0.8648 -0.5020
vn 0.0017 0.9658 0.2591
vn 0.0090 -0.5015 -0.8651
vn 0.0146 -0.9640 -0.2654
vn -0.0045 -0.9617 -0.2739
vn -0.0133 -0.4894 -0.8720
vn 0.0009 -0.2731 0.9620
vn -0.0067 0.4890 0.8722
vn 0.0068 0.4970 0.8677
vn 0.0073 -0.2666 0.9638
vn -0.0073 0.8669 -0.4985
vn -0.0008 0.2572 -0.9663
vn -0.0150 0.2621 -0.9649
vn -0.0079 0.8648 -0.5021
vn 0.0145 -0.9641 -0.2653
vn 0.0037 -0.8731 0.4876
vn -0.0045 -0.9618 -0.2738
vn -0.0009 0.2572 -0.9664
vn -0.0150 0.2620 -0.9649
vn -0.6604 -0.1431 0.7371
vn -0.9975 -0.0083 0.0709
vn -0.9974 -0.0103 0.0712
vn -0.6535 -0.1453 0.7429
vn 0.7557 -0.1308 0.6417
vn 0.0673 -0.1951 0.9785
vn 0.0777 -0.1954 0.9776
vn 0.7609 -0.1311 0.6355
vn -0.9975 -0.0083 0.0708
vn -0.7610 0.1310 -0.6354
vn -0.7557 0.1309 -0.6416
vn -0.9974 -0.0102 0.0712
vn 0.6535 0.1454 -0.7428
vn 0.9974 0.0104 -0.0712
vn 0.9975 0.0081 -0.0709
vn 0.6605 0.1430 -0.7371
vn 0.0672 -0.1951 0.9785
vn -0.6604 -0.1431 0.7372
vn -0.6534 -0.1454 0.7429
vn 0.0776 -0.1954 0.9776
vn -0.7609 0.1310 -0.6355
vn -0.0777 0.1954 -0.9776
vn -0.0672 0.1951 -0.9785
vn -0.7557 0.1310 -0.6417
vn 0.9974 0.0103 -0.0711
vn 0.7558 -0.1309 0.6416
vn 0.7610 -0.1311 0.6354
vn 0.9975 0.0082 -0.0708
vn -0.0776 0.1954 -0.9777
vn 0.6535 0.1454 -0.7429
vn 0.6604 0.1430 -0.7371
vn 0.0011 0.5000 0.8660
vn 0.0019 0.9644 0.2643
vn -0.0022 0.9644 0.2646
vn -0.0014 0.4999 0.8661
vn -0.0010 -0.8696 0.4938
vn -0.0002 -0.2623 0.9650
vn 0.0001 -0.2622 0.9650
vn 0.0011 -0.8694 0.4940
vn 0.0015 0.8724 -0.4888
vn -0.0016 0.8725 -0.4886
vn -0.0021 0.9644 0.2645
vn -0.0008 -0.4935 -0.8698
vn -0.0012 -0.9642 -0.2653
vn 0.0014 -0.9642 -0.2651
vn 0.0009 -0.4936 -0.8697
vn -0.0002 -0.2622 0.9650
vn 0.0001 -0.2621 0.9650
vn 0.0015 0.8724 -0.4889
vn 0.0003 0.2700 -0.9629
vn -0.0002 0.2700 -0.9629
vn -0.0015 0.8725 -0.4886
vn -0.0013 -0.9642 -0.2653
vn -0.0011 -0.8696 0.4938
vn 0.0011 -0.8695 0.4940
vn 0.0003 0.2699 -0.9629
vn -0.0002 0.2699 -0.9629
vn 0.6106 -0.1073 0.7846
vn 0.9911 -0.0183 0.1319
vn 0.9912 -0.0139 0.1318
vn 0.6121 -0.1036 0.7840
vn -0.7955 -0.0823 0.6004
vn -0.1315 -0.1343 0.9822
vn -0.1302 -0.1331 0.9825
vn -0.7953 -0.0832 0.6005
vn 0.9911 -0.0183 0.1318
vn 0.7989 0.0809 -0.5959
vn 0.7994 0.0835 -0.5950
vn 0.9912 -0.0139 0.1317
vn -0.6062 0.1071 -0.7881
vn -0.9911 0.0175 -0.1319
vn -0.9910 0.0155 -0.1329
vn -0.6051 0.1051 -0.7892
vn -0.1314 -0.1343 0.9822
vn 0.6120 -0.1036 0.7840
vn -0.1301 -0.1331 0.9825
vn 0.7989 0.0809 -0.5960
vn 0.1382 0.1335 -0.9814
vn 0.1395 0.1332 -0.9812
vn -0.9911 0.0176 -0.1318
vn -0.7955 -0.0823 0.6003
vn -0.7954 -0.0832 0.6004
vn -0.9910 0.0155 -0.1328
vn -0.6061 0.1071 -0.7881
vn -0.6050 0.1051 -0.7892
vn 0.1394 0.1332 -0.9812
vn 0.8076 0.2633 -0.5277
vn 0.9654 0.2116 0.1524
vn 0.2049 0.1801 -0.9621
vn -0.6050 0.1050 -0.7892
vn -0.5461 0.0343 -0.8370
vn -0.9910 0.0154 -0.1329
vn -0.9824 -0.1015 -0.1571
vn -0.5462 0.0343 -0.8370
vn -0.9910 0.0154 -0.1328
vn -0.7582 -0.1876 0.6244
vn -0.9824 -0.1015 -0.1570
vn -0.7953 -0.0832 0.6004
vn -0.0594 -0.1365 0.9889
vn 0.6475 0.0496 0.7605
vn -0.0593 -0.1365 0.9889
vn 0.6475 0.0496 0.7604
vn 0.5867 0.6762 -0.4456
vn 0.6883 0.6935 0.2128
vn 0.1726 0.8776 -0.4472
vn 0.2095 0.9448 0.2520
vn 0.2094 0.9448 0.2520
vn 0.8076 0.2634 -0.5277
vn 0.2049 0.1802 -0.9621
vn 0.1889 0.3235 -0.9272
vn 0.1888 0.3236 -0.9272
vn 0.0443 0.3302 -0.9429
vn 0.1726 0.8776 -0.4473
vn 0.0016 0.8723 -0.4889
vn -0.3056 -0.2013 -0.9306
vn 0.1888 0.3235 -0.9272
vn -0.0703 -0.4364 -0.8970
vn 0.0443 0.3301 -0.9429
vn -0.0008 -0.4934 -0.8698
vn -0.5461 0.0342 -0.8370
vn -0.6730 -0.6892 -0.2683
vn -0.3056 -0.2013 -0.9307
vn -0.1082 -0.9563 -0.2716
vn -0.0013 -0.9641 -0.2654
vn -0.0008 -0.4935 -0.8697
vn -0.4677 -0.5907 0.6575
vn -0.6731 -0.6892 -0.2683
vn -0.0915 -0.8418 0.5320
vn -0.1082 -0.9563 -0.2715
vn -0.1081 -0.9563 -0.2715
vn -0.7582 -0.1877 0.6244
vn 0.0158 -0.1187 0.9928
vn 0.0157 -0.1187 0.9928
vn -0.0031 -0.1981 0.9802
vn -0.0914 -0.8418 0.5320
vn -0.0593 -0.1364 0.9889
vn 0.4835 0.4026 0.7772
vn 0.0158 -0.1186 0.9928
vn 0.0157 -0.1186 0.9928
vn 0.4835 0.4026 0.7773
vn 0.1366 0.5412 0.8297
vn -0.0031 -0.1980 0.9802
vn 0.0011 0.5000 0.8661
vn -0.0001 -0.2622 0.9650
vn 0.9654 0.2117 0.1524
vn 0.6882 0.6936 0.2129
vn 0.4835 0.4027 0.7773
vn 0.4835 0.4027 0.7772
vn 0.6882 0.6936 0.2128
vn -0.1731 0.8794 -0.4435
vn -0.2204 0.9415 0.2549
vn -0.0348 0.3327 -0.9424
vn 0.0010 -0.4936 -0.8697
vn 0.0810 -0.4366 -0.8960
vn 0.0014 -0.9642 -0.2652
vn 0.1163 -0.9563 -0.2681
vn 0.0933 -0.8379 0.5377
vn 0.1163 -0.9564 -0.2680
vn 0.0011 -0.8694 0.4941
vn -0.0000 -0.2622 0.9650
vn -0.0080 -0.1957 0.9806
vn 0.0932 -0.8379 0.5378
vn -0.0000 -0.2621 0.9650
vn -0.1529 0.5375 0.8293
vn -0.0080 -0.1956 0.9806
vn -0.0021 0.9644 0.2646
vn -0.5768 0.6791 -0.4539
vn -0.7053 0.6800 0.2001
vn -0.5768 0.6791 -0.4540
vn -0.7758 0.2887 -0.5611
vn -0.9731 0.2037 0.1079
vn -0.0349 0.3328 -0.9424
vn -0.1520 0.3401 -0.9280
vn -0.5768 0.6792 -0.4539
vn -0.1520 0.3400 -0.9280
vn -0.1423 0.2276 -0.9633
vn -0.7757 0.2887 -0.5612
vn -0.7757 0.2887 -0.5611
vn -0.1423 0.2275 -0.9633
vn 0.3564 -0.1813 -0.9166
vn -0.1519 0.3400 -0.9281
vn 0.6031 0.0754 -0.7941
vn -0.1422 0.2276 -0.9633
vn -0.0775 0.1954 -0.9777
vn 0.1163 -0.9564 -0.2681
vn 0.7035 -0.6728 -0.2291
vn 0.9903 -0.0996 -0.0973
vn 0.6032 0.0755 -0.7940
vn 0.9903 -0.0995 -0.0974
vn 0.4465 -0.5899 0.6728
vn 0.7035 -0.6728 -0.2292
vn 0.4465 -0.5900 0.6728
vn 0.7166 -0.2268 0.6596
vn 0.9903 -0.0995 -0.0973
vn 0.7166 -0.2267 0.6596
vn -0.0568 -0.1390 0.9887
vn 0.4464 -0.5900 0.6728
vn 0.0002 -0.1876 0.9822
vn 0.7165 -0.2267 0.6597
vn 0.7165 -0.2268 0.6596
vn 0.0002 -0.1876 0.9823
vn 0.7557 -0.1309 0.6417
vn -0.5203 0.3785 0.7656
vn -0.0568 -0.1389 0.9887
vn -0.0569 -0.1390 0.9887
vn -0.6892 0.0119 0.7245
vn 0.0001 -0.1875 0.9823
vn 0.0001 -0.1876 0.9823
vn -0.1530 0.5375 0.8293
vn -0.7054 0.6800 0.2001
vn -0.5202 0.3785 0.7656
vn -0.5203 0.3784 0.7656
vn -0.9731 0.2038 0.1079
vn -0.9731 0.2037 0.1080
vn -0.9974 -0.0083 0.0709
vn -0.7558 0.1309 -0.6416
vn -0.7159 0.2286 -0.6598
vn -0.9900 0.1019 0.0978
vn -0.7557 0.1309 -0.6417
vn 0.0005 0.1874 -0.9823
vn -0.7158 0.2286 -0.6598
vn -0.0671 0.1951 -0.9785
vn 0.6890 -0.0141 -0.7246
vn 0.9974 0.0081 -0.0709
vn 0.9724 -0.2067 -0.1085
vn 0.6890 -0.0142 -0.7246
vn 0.9975 0.0081 -0.0708
vn 0.7755 -0.2910 0.5603
vn 0.9724 -0.2067 -0.1084
vn 0.7609 -0.1311 0.6354
vn 0.1428 -0.2281 0.9631
vn 0.7754 -0.2911 0.5604
vn 0.0776 -0.1954 0.9777
vn -0.6534 -0.1453 0.7429
vn -0.6023 -0.0741 0.7948
vn 0.1428 -0.2280 0.9631
vn -0.6535 -0.1453 0.7428
vn -0.9900 0.1019 0.0979
vn -0.4427 0.5942 -0.6715
vn -0.6965 0.6795 0.2304
vn -0.6965 0.6795 0.2303
vn -0.4428 0.5941 -0.6715
vn -0.0919 0.8386 -0.5369
vn -0.1146 0.9566 0.2680
vn 0.0564 0.1389 -0.9887
vn -0.4428 0.5942 -0.6715
vn -0.4427 0.5942 -0.6716
vn 0.0077 0.1966 -0.9804
vn -0.0919 0.8386 -0.5370
vn 0.0077 0.1966 -0.9805
vn -0.0009 0.2572 -0.9663
vn 0.5171 -0.3814 -0.7662
vn 0.0564 0.1390 -0.9887
vn 0.5171 -0.3814 -0.7663
vn 0.1506 -0.5374 -0.8298
vn 0.1505 -0.5374 -0.8298
vn 0.0089 -0.5014 -0.8651
vn -0.0008 0.2572 -0.9664
vn 0.7012 -0.6841 -0.2010
vn 0.5171 -0.3815 -0.7662
vn 0.7011 -0.6841 -0.2009
vn 0.2171 -0.9422 -0.2551
vn 0.1505 -0.5375 -0.8297
vn 0.5733 -0.6825 0.4534
vn 0.7012 -0.6841 -0.2009
vn 0.1705 -0.8797 0.4439
vn 0.1704 -0.8797 0.4439
vn 0.0146 -0.9641 -0.2653
vn 0.7754 -0.2910 0.5604
vn 0.1510 -0.3407 0.9280
vn 0.1509 -0.3408 0.9280
vn 0.0341 -0.3320 0.9427
vn -0.3536 0.1848 0.9170
vn 0.1509 -0.3407 0.9280
vn -0.0799 0.4377 0.8956
vn 0.0341 -0.3319 0.9427
vn -0.0798 0.4377 0.8956
vn -0.6023 -0.0740 0.7948
vn -0.6965 0.6796 0.2304
vn -0.3536 0.1849 0.9169
vn -0.3537 0.1848 0.9169
vn -0.1147 0.9566 0.2680
vn -0.0798 0.4378 0.8955
vn -0.1229 0.8287 -0.5460
vn 0.0181 0.9793 0.2015
vn -0.2129 0.2449 -0.9459
vn -0.1229 0.8287 -0.5461
vn -0.0134 -0.4893 -0.8720
vn -0.1946 -0.4540 -0.8695
vn -0.0764 -0.9426 -0.3251
vn -0.1946 -0.4541 -0.8695
vn -0.0045 -0.9618 -0.2739
vn 0.0492 -0.9002 0.4326
vn -0.0764 -0.9426 -0.3250
vn 0.1024 -0.2792 0.9548
vn 0.0930 0.5229 0.8473
vn 0.1024 -0.2791 0.9548
vn 0.0181 0.9793 0.2016
vn 0.0930 0.5230 0.8472
vn -0.4268 0.7960 -0.4293
vn 0.0685 0.9939 0.0863
vn -0.4268 0.7960 -0.4292
vn -0.5503 0.8264 -0.1193
vn 0.1943 0.9803 0.0346
vn 0.1943 0.9803 0.0347
vn -0.5502 0.8264 -0.1194
vn -0.5397 0.8398 -0.0591
vn 0.2158 0.9759 -0.0334
vn -0.2130 0.2449 -0.9459
vn -0.6838 0.2349 -0.6908
vn -0.6839 0.2349 -0.6908
vn -0.9460 0.2441 -0.2132
vn -0.5503 0.8264 -0.1194
vn -0.9712 0.2252 -0.0778
vn -0.6333 -0.4302 -0.6433
vn -0.6838 0.2348 -0.6908
vn -0.8700 -0.4521 -0.1968
vn -0.8580 -0.5083 -0.0736
vn -0.2777 -0.9212 -0.2727
vn -0.3303 -0.9415 -0.0678
vn -0.8700 -0.4522 -0.1968
vn -0.3303 -0.9414 -0.0678
vn -0.2498 -0.9670 -0.0510
vn -0.8580 -0.5084 -0.0736
vn 0.2146 -0.9462 0.2422
vn -0.2777 -0.9212 -0.2726
vn 0.4239 -0.9029 0.0706
vn -0.3302 -0.9415 -0.0678
vn 0.5112 -0.8591 -0.0262
vn -0.2497 -0.9670 -0.0511
vn 0.0493 -0.9002 0.4326
vn 0.6404 -0.3357 0.6908
vn 0.2147 -0.9462 0.2421
vn 0.9510 -0.2807 0.1298
vn 0.4240 -0.9029 0.0706
vn 0.9727 -0.2316 -0.0157
vn 0.5339 0.6119 0.5835
vn 0.8416 0.5263 0.1215
vn 0.9510 -0.2806 0.1298
vn 0.9510 -0.2806 0.1297
vn 0.8416 0.5263 0.1214
vn 0.8483 0.5292 -0.0164
vn 0.9727 -0.2315 -0.0157
vn 0.0931 0.5230 0.8472
vn 0.5340 0.6119 0.5834
vn 0.1944 0.9803 0.0347
vn 0.1944 0.9803 0.0346
vn 0.2159 0.9759 -0.0334
vn 0.8483 0.5293 -0.0164
vn 0.6353 -0.1924 0.7479
vn 0.9876 -0.1105 0.1116
vn -0.0984 -0.1849 0.9778
vn -0.7775 -0.1040 0.6203
vn -0.0985 -0.1849 0.9778
vn -0.9911 0.0175 -0.1318
vn -0.9922 0.0307 -0.1206
vn -0.7775 -0.1040 0.6202
vn -0.9911 0.0176 -0.1319
vn -0.5856 0.1514 -0.7963
vn 0.1809 0.1503 -0.9719
vn -0.5856 0.1515 -0.7963
vn 0.8169 0.0274 -0.5762
vn 0.1810 0.1503 -0.9719
vn 0.9911 -0.0183 0.1317
vn 0.9876 -0.1105 0.1115
vn 0.6181 -0.4589 0.6382
vn 0.8727 -0.4881 0.0124
vn 0.3384 -0.7204 0.6054
vn 0.4388 -0.8967 -0.0571
vn 0.4388 -0.8968 -0.0571
vn 0.3383 -0.7204 0.6054
vn 0.1993 -0.7346 0.6486
vn 0.1524 -0.9863 -0.0624
vn 0.6353 -0.1925 0.7479
vn 0.0024 -0.2149 0.9766
vn 0.0559 -0.1203 0.9912
vn 0.1191 -0.0152 0.9928
vn 0.1993 -0.7345 0.6486
vn -0.6678 0.0590 0.7420
vn 0.0024 -0.2148 0.9766
vn -0.6678 0.0591 0.7420
vn -0.1867 0.6025 0.7760
vn 0.0559 -0.1202 0.9912
vn -0.0163 0.7074 0.7066
vn 0.1190 -0.0151 0.9928
vn -0.9922 0.0307 -0.1205
vn -0.9410 0.3183 -0.1152
vn -0.9410 0.3183 -0.1153
vn -0.2996 0.9539 -0.0149
vn -0.1867 0.6025 0.7759
vn -0.2997 0.9539 -0.0148
vn -0.1473 0.9889 -0.0192
vn -0.0162 0.7075 0.7066
vn -0.9922 0.0308 -0.1206
vn -0.4203 0.3236 -0.8477
vn -0.4203 0.3235 -0.8477
vn -0.2230 0.5750 -0.7872
vn -0.2093 0.6425 -0.7372
vn -0.1474 0.9889 -0.0193
vn 0.2306 0.0409 -0.9722
vn 0.2306 0.0408 -0.9722
vn 0.0449 -0.0884 -0.9951
vn -0.1416 -0.0579 -0.9882
vn -0.2093 0.6424 -0.7372
vn 0.8168 0.0274 -0.5762
vn 0.7328 -0.3008 -0.6103
vn 0.3253 -0.6593 -0.6779
vn 0.0449 -0.0885 -0.9951
vn 0.3253 -0.6592 -0.6779
vn 0.0089 -0.7023 -0.7119
vn -0.1416 -0.0580 -0.9882
vn 0.8727 -0.4881 0.0123
vn 0.1525 -0.9863 -0.0625
vn 0.0089 -0.7023 -0.7118
vn -0.7127 -0.7004 -0.0375
vn -0.9989 0.0044 -0.0472
vn -0.9972 -0.0013 -0.0748
vn -0.7368 -0.6756 -0.0255
vn -0.9989 0.0045 -0.0472
vn -0.7058 0.7062 -0.0567
vn -0.7304 0.6781 -0.0820
vn -0.9972 -0.0012 -0.0748
vn -0.7057 0.7062 -0.0567
vn -0.0015 0.9980 -0.0624
vn -0.0360 0.9981 -0.0497
vn -0.7304 0.6781 -0.0819
vn 0.7027 0.7088 -0.0622
vn 0.6849 0.7284 -0.0173
vn -0.0359 0.9981 -0.0497
vn 0.9985 0.0068 -0.0538
vn 0.9998 0.0138 0.0155
vn 0.6850 0.7284 -0.0172
vn 0.7104 -0.7026 -0.0413
vn 0.6952 -0.7171 0.0496
vn 0.7104 -0.7026 -0.0412
vn -0.0029 -0.9994 -0.0344
vn -0.0433 -0.9984 0.0375
vn -0.0030 -0.9994 -0.0344
vn -0.7127 -0.7005 -0.0375
vn -0.7368 -0.6757 -0.0254
vn -0.0434 -0.9984 0.0375
vn 0.6951 -0.7172 0.0496
vn -0.1251 -0.9919 -0.0195
vn 0.5351 -0.8049 0.2567
vn -0.1251 -0.9920 -0.0195
vn 0.0008 -0.9948 -0.1023
vn 0.2467 -0.7738 0.5835
vn 0.2466 -0.7738 0.5835
vn 0.0007 -0.9948 -0.1023
vn 0.9542 0.0140 0.2989
vn 0.5351 -0.8048 0.2567
vn 0.2466 -0.7737 0.5835
vn 0.2839 0.0105 0.9588
vn 0.9998 0.0139 0.0155
vn 0.9542 0.0141 0.2989
vn 0.5552 0.8201 0.1382
vn 0.5553 0.8201 0.1381
vn 0.2839 0.0106 0.9588
vn 0.1441 0.7871 0.5998
vn 0.1441 0.7870 0.5998
vn -0.0162 0.7074 0.7066
vn -0.0360 0.9981 -0.0496
vn 0.6849 0.7284 -0.0172
vn 0.5552 0.8201 0.1381
vn -0.1252 0.9848 -0.1204
vn -0.1252 0.9848 -0.1205
vn 0.5552 0.8202 0.1382
vn 0.1442 0.7871 0.5998
vn -0.1174 0.9875 -0.1052
vn -0.1174 0.9875 -0.1051
vn -0.1253 0.9848 -0.1205
vn -0.6974 0.6022 -0.3885
vn -0.6975 0.6022 -0.3884
vn -0.1175 0.9875 -0.1052
vn -0.3813 0.6008 -0.7026
vn -0.2094 0.6424 -0.7372
vn -0.8864 -0.0410 -0.4610
vn -0.8864 -0.0410 -0.4611
vn -0.4450 -0.0570 -0.8937
vn -0.6786 -0.6572 -0.3279
vn -0.2965 -0.6750 -0.6756
vn -0.2964 -0.6750 -0.6757
vn -0.6787 -0.6572 -0.3279
vn -0.1252 -0.9919 -0.0195
vn -0.1251 -0.9919 -0.0196
vn -0.2965 -0.6750 -0.6757
vn 0.0007 -0.9947 -0.1023
vn 0.0008 -0.9947 -0.1024
vn -0.2964 -0.6750 -0.6756
vn 0.1524 -0.9863 -0.0625
vn 0.9855 -0.0000 -0.1696
vn -0.0015 0.9980 -0.0625
vn -0.0013 0.9865 -0.1636
vn -0.9989 0.0044 -0.0473
vn -0.7508 -0.6387 -0.1687
vn 0.6425 -0.7469 -0.1712
vn 0.9820 -0.0810 -0.1708
vn 0.7484 0.6406 -0.1718
vn 0.0815 0.9829 -0.1649
vn -0.6439 0.7463 -0.1685
vt 0.636322 0.771411
vt 0.587470 0.804750
vt 0.582466 0.801554
vt 0.635177 0.765465
vt 0.576221 0.861411
vt 0.570569 0.862499
vt 0.433500 0.501817
vt 0.495149 0.501817
vt 0.495149 0.744281
vt 0.433500 0.744281
vt 0.667721 0.922223
vt 0.668877 0.928042
vt 0.605422 0.915050
vt 0.608737 0.910132
vt 0.727696 0.832155
vt 0.733433 0.831018
vt 0.721608 0.892773
vt 0.716620 0.889535
vt 0.310201 0.501817
vt 0.371850 0.501817
vt 0.371850 0.744281
vt 0.310201 0.744281
vt 0.687564 0.793554
vt 0.638896 0.784065
vt 0.637511 0.777194
vt 0.691445 0.787669
vt 0.581871 0.860294
vt 0.612010 0.905265
vt 0.125252 0.501817
vt 0.186902 0.501817
vt 0.186902 0.744281
vt 0.125252 0.744281
vt 0.248551 0.501817
vt 0.248551 0.744281
vt 0.666609 0.916401
vt 0.711799 0.886320
vt 0.694675 0.782803
vt 0.697976 0.777719
vt 0.063603 0.501817
vt 0.063603 0.744281
vt 0.602608 0.814790
vt 0.598019 0.811727
vt 0.639988 0.789629
vt 0.592254 0.807905
vt 0.641149 0.795086
vt 0.607213 0.817814
vt 0.722022 0.833305
vt 0.619061 0.894562
vt 0.615915 0.899401
vt 0.588618 0.858968
vt 0.594043 0.857906
vt 0.701466 0.879486
vt 0.706041 0.882519
vt 0.665296 0.909466
vt 0.664231 0.903895
vt 0.684425 0.798269
vt 0.715204 0.834694
vt 0.709684 0.835861
vt 0.681227 0.803114
vt 0.599435 0.856891
vt 0.622123 0.889732
vt 0.663198 0.898415
vt 0.696941 0.876438
vt 0.704000 0.837048
vt 0.001953 0.501817
vt 0.001953 0.744281
vt 0.000000 0.000000
s 1
usemtl Material.003
f 23/1/1 5/2/2 4/3/3 3/4/4
f 31/5/5 6/6/6 4/3/3 5/2/2
f 7/7/7 2/8/8 4/9/3 6/10/6
f 12/11/9 11/12/10 9/13/11 10/14/12
f 18/15/13 17/16/14 15/17/15 16/18/16
f 13/19/17 8/20/18 9/21/11 11/22/10
f 46/23/19 25/24/20 24/25/21 48/26/22
f 30/27/23 36/28/24 10/14/12 31/5/5
f 8/20/18 7/7/7 6/10/6 9/21/11
f 20/29/25 19/30/26 17/31/14 21/32/27
f 19/30/26 14/33/28 15/34/15 17/31/14
f 37/35/29 42/36/30 16/18/16 12/11/9
f 22/37/31 23/1/1 3/4/4 21/38/27
f 48/26/22 24/25/21 23/1/1 22/37/31
f 1/39/32 20/29/25 21/32/27 3/40/4
f 28/41/33 27/42/34 25/24/20 26/43/35
f 14/33/28 13/19/17 11/22/10 15/34/15
f 24/25/21 29/44/36 5/2/2 23/1/1
f 29/44/36 30/27/23 31/5/5 5/2/2
f 25/24/20 27/42/34 29/44/36 24/25/21
f 50/45/37 51/46/38 28/41/33 26/43/35
f 43/47/39 48/26/22 22/37/31 18/15/13
f 35/48/40 34/49/41 32/50/42 33/51/43
f 27/42/34 32/50/42 30/27/23 29/44/36
f 31/5/5 10/14/12 9/13/11 6/6/6
f 36/28/24 37/35/29 12/11/9 10/14/12
f 32/50/42 34/49/41 36/28/24 30/27/23
f 28/41/33 33/51/43 32/50/42 27/42/34
f 41/52/44 40/53/45 38/54/46 39/55/47
f 34/49/41 38/54/46 37/35/29 36/28/24
f 12/11/9 16/18/16 15/17/15 11/12/10
f 42/36/30 43/47/39 18/15/13 16/18/16
f 38/54/46 40/53/45 42/36/30 37/35/29
f 35/48/40 39/55/47 38/54/46 34/49/41
f 47/56/48 46/23/19 44/57/49 45/58/50
f 40/53/45 44/57/49 43/47/39 42/36/30
f 18/15/13 22/37/31 21/38/27 17/16/14
f 49/59/51 50/45/37 26/43/35 47/56/48
f 44/57/49 46/23/19 48/26/22 43/47/39
f 41/52/44 45/58/50 44/57/49 40/53/45
f 47/56/48 26/43/35 25/24/20 46/23/19
f 51/46/38 52/60/52 33/51/43 28/41/33
f 52/60/52 53/61/53 35/48/40 33/51/43
f 53/61/53 54/62/54 39/55/47 35/48/40
f 54/62/54 55/63/55 41/52/44 39/55/47
f 55/63/55 56/64/56 45/58/50 41/52/44
f 56/64/56 49/59/51 47/56/48 45/58/50
f 2/65/8 1/39/32 3/40/4 4/66/3
f 79/1/1 61/2/2 60/3/3 59/4/4
f 87/5/5 62/6/6 60/3/3 61/2/2
f 63/7/7 58/8/8 60/9/3 62/10/6
f 68/11/9 67/12/10 65/13/57 66/14/12
f 74/15/13 73/16/14 71/17/15 72/18/16
f 69/19/17 64/20/18 65/21/57 67/22/10
f 102/23/19 81/24/20 80/25/21 104/26/22
f 86/27/23 92/28/24 66/14/12 87/5/5
f 64/20/18 63/7/7 62/10/6 65/21/57
f 76/29/25 75/30/26 73/31/14 77/32/27
f 75/30/26 70/33/28 71/34/15 73/31/14
f 93/35/29 98/36/30 72/18/16 68/11/9
f 78/37/31 79/1/1 59/4/4 77/38/27
f 104/26/22 80/25/21 79/1/1 78/37/31
f 57/39/32 76/29/25 77/32/27 59/40/4
f 84/41/33 83/42/34 81/24/20 82/43/35
f 70/33/28 69/19/17 67/22/10 71/34/15
f 80/25/21 85/44/36 61/2/2 79/1/1
f 85/44/36 86/27/23 87/5/5 61/2/2
f 81/24/20 83/42/34 85/44/36 80/25/21
f 106/45/58 107/46/59 84/41/33 82/43/35
f 99/47/39 104/26/22 78/37/31 74/15/13
f 91/48/40 90/49/41 88/50/42 89/51/43
f 83/42/34 88/50/42 86/27/23 85/44/36
f 87/5/5 66/14/12 65/13/57 62/6/6
f 92/28/24 93/35/29 68/11/9 66/14/12
f 88/50/42 90/49/41 92/28/24 86/27/23
f 84/41/33 89/51/43 88/50/42 83/42/34
f 97/52/44 96/53/45 94/54/46 95/55/47
f 90/49/41 94/54/46 93/35/29 92/28/24
f 68/11/9 72/18/16 71/17/15 67/12/10
f 98/36/30 99/47/39 74/15/13 72/18/16
f 94/54/46 96/53/45 98/36/30 93/35/29
f 91/48/40 95/55/47 94/54/46 90/49/41
f 103/56/48 102/23/19 100/57/49 101/58/50
f 96/53/45 100/57/49 99/47/39 98/36/30
f 74/15/13 78/37/31 77/38/27 73/16/14
f 105/59/60 106/45/58 82/43/35 103/56/48
f 100/57/49 102/23/19 104/26/22 99/47/39
f 97/52/44 101/58/50 100/57/49 96/53/45
f 103/56/48 82/43/35 81/24/20 102/23/19
f 107/46/59 108/60/61 89/51/43 84/41/33
f 108/60/61 109/61/62 91/48/40 89/51/43
f 109/61/62 110/62/63 95/55/47 91/48/40
f 110/62/63 111/63/64 97/52/44 95/55/47
f 111/63/64 112/64/65 101/58/50 97/52/44
f 112/64/65 105/59/60 103/56/48 101/58/50
f 58/65/8 57/39/32 59/40/4 60/66/3
s 0
f 122/67/66 165/67/67 169/67/68 126/67/69
f 123/67/70 166/67/71 170/67/72 127/67/73
f 165/67/74 121/67/75 125/67/76 169/67/77
f 124/67/78 167/67/79 171/67/80 128/67/81
f 166/67/82 122/67/83 126/67/84 170/67/85
f 121/67/86 168/67/87 172/67/88 125/67/89
f 167/67/90 123/67/70 127/67/91 171/67/92
f 168/67/93 124/67/78 128/67/81 172/67/94
f 130/67/95 173/67/96 177/67/97 134/67/98
f 131/67/99 174/67/100 178/67/101 135/67/102
f 173/67/103 129/67/104 133/67/105 177/67/106
f 132/67/107 175/67/108 179/67/109 136/67/110
f 174/67/111 130/67/112 134/67/113 178/67/114
f 129/67/115 176/67/116 180/67/117 133/67/118
f 175/67/119 131/67/120 135/67/121 179/67/122
f 176/67/123 132/67/124 136/67/125 180/67/117
f 138/67/126 181/67/127 185/67/128 142/67/129
f 139/67/130 182/67/131 186/67/132 143/67/133
f 181/67/127 137/67/134 141/67/135 185/67/136
f 140/67/137 183/67/138 187/67/139 144/67/140
f 182/67/141 138/67/126 142/67/129 186/67/142
f 137/67/143 184/67/144 188/67/145 141/67/146
f 183/67/147 139/67/148 143/67/149 187/67/139
f 184/67/150 140/67/137 144/67/140 188/67/151
f 146/67/152 189/67/153 193/67/154 150/67/155
f 147/67/156 190/67/157 194/67/158 151/67/159
f 189/67/160 145/67/161 149/67/162 193/67/163
f 148/67/164 191/67/165 195/67/166 152/67/167
f 190/67/168 146/67/152 150/67/169 194/67/170
f 145/67/171 192/67/172 196/67/173 149/67/162
f 191/67/174 147/67/175 151/67/176 195/67/177
f 192/67/172 148/67/178 152/67/179 196/67/180
f 193/67/163 149/67/162 206/67/181 201/67/182
f 149/67/162 196/67/173 209/67/183 206/67/181
f 196/67/180 152/67/184 212/67/185 209/67/183
f 152/67/167 195/67/186 215/67/187 212/67/188
f 195/67/189 151/67/176 218/67/190 215/67/191
f 151/67/192 194/67/158 221/67/193 218/67/190
f 194/67/170 150/67/169 224/67/194 221/67/195
f 150/67/155 193/67/154 201/67/182 224/67/196
f 201/67/182 206/67/181 205/67/197 202/67/198
f 202/67/198 205/67/197 204/67/199 203/67/200
f 203/67/201 204/67/199 137/67/134 181/67/127
f 206/67/202 209/67/203 208/67/204 205/67/197
f 205/67/197 208/67/205 207/67/206 204/67/207
f 204/67/199 207/67/206 184/67/144 137/67/208
f 209/67/183 212/67/185 211/67/209 208/67/210
f 208/67/204 211/67/209 210/67/211 207/67/206
f 207/67/212 210/67/211 140/67/213 184/67/150
f 212/67/214 215/67/187 214/67/215 211/67/216
f 211/67/209 214/67/215 213/67/217 210/67/211
f 210/67/211 213/67/217 183/67/218 140/67/219
f 215/67/191 218/67/190 217/67/220 214/67/215
f 214/67/221 217/67/220 216/67/222 213/67/223
f 213/67/224 216/67/222 139/67/148 183/67/147
f 218/67/225 221/67/193 220/67/226 217/67/220
f 217/67/220 220/67/227 219/67/228 216/67/229
f 216/67/222 219/67/228 182/67/131 139/67/130
f 221/67/230 224/67/194 223/67/231 220/67/232
f 220/67/233 223/67/234 222/67/235 219/67/236
f 219/67/236 222/67/235 138/67/237 182/67/238
f 224/67/196 201/67/239 202/67/240 223/67/241
f 223/67/242 202/67/243 203/67/201 222/67/235
f 222/67/235 203/67/201 181/67/127 138/67/126
f 185/67/136 141/67/135 230/67/244 225/67/245
f 141/67/146 188/67/145 233/67/246 230/67/244
f 188/67/145 144/67/247 236/67/248 233/67/246
f 144/67/247 187/67/249 239/67/250 236/67/248
f 187/67/139 143/67/149 242/67/251 239/67/252
f 143/67/253 186/67/254 245/67/255 242/67/256
f 186/67/257 142/67/129 248/67/258 245/67/259
f 142/67/129 185/67/260 225/67/245 248/67/258
f 225/67/245 230/67/244 229/67/261 226/67/262
f 226/67/262 229/67/263 228/67/264 227/67/265
f 227/67/265 228/67/264 129/67/115 173/67/103
f 230/67/244 233/67/266 232/67/267 229/67/268
f 229/67/263 232/67/269 231/67/270 228/67/271
f 228/67/272 231/67/273 176/67/123 129/67/115
f 233/67/246 236/67/248 235/67/274 232/67/275
f 232/67/275 235/67/274 234/67/276 231/67/277
f 231/67/277 234/67/276 132/67/124 176/67/278
f 236/67/248 239/67/279 238/67/280 235/67/274
f 235/67/274 238/67/280 237/67/281 234/67/276
f 234/67/282 237/67/283 175/67/108 132/67/107
f 239/67/252 242/67/256 241/67/284 238/67/285
f 238/67/280 241/67/286 240/67/287 237/67/281
f 237/67/288 240/67/289 131/67/120 175/67/119
f 242/67/256 245/67/255 244/67/290 241/67/291
f 241/67/284 244/67/290 243/67/292 240/67/293
f 240/67/294 243/67/295 174/67/100 131/67/296
f 245/67/255 248/67/258 247/67/297 244/67/298
f 244/67/299 247/67/297 246/67/300 243/67/301
f 243/67/302 246/67/300 130/67/95 174/67/111
f 248/67/303 225/67/245 226/67/304 247/67/305
f 247/67/306 226/67/304 227/67/307 246/67/300
f 246/67/300 227/67/308 173/67/309 130/67/95
f 177/67/106 133/67/310 254/67/311 249/67/312
f 133/67/313 180/67/117 257/67/314 254/67/315
f 180/67/316 136/67/110 260/67/317 257/67/314
f 136/67/110 179/67/318 263/67/319 260/67/320
f 179/67/321 135/67/121 266/67/322 263/67/323
f 135/67/324 178/67/101 269/67/325 266/67/326
f 178/67/327 134/67/328 272/67/329 269/67/330
f 134/67/331 177/67/106 249/67/332 272/67/329
f 249/67/312 254/67/311 253/67/333 250/67/334
f 250/67/335 253/67/336 252/67/337 251/67/338
f 251/67/338 252/67/337 121/67/75 165/67/74
f 254/67/315 257/67/314 256/67/339 253/67/340
f 253/67/341 256/67/339 255/67/342 252/67/343
f 252/67/337 255/67/344 168/67/345 121/67/86
f 257/67/314 260/67/317 259/67/346 256/67/347
f 256/67/339 259/67/348 258/67/349 255/67/344
f 255/67/344 258/67/350 124/67/351 168/67/352
f 260/67/320 263/67/319 262/67/353 259/67/346
f 259/67/354 262/67/355 261/67/356 258/67/357
f 258/67/350 261/67/356 167/67/79 124/67/78
f 263/67/323 266/67/322 265/67/358 262/67/359
f 262/67/359 265/67/358 264/67/360 261/67/356
f 261/67/356 264/67/361 123/67/70 167/67/362
f 266/67/363 269/67/325 268/67/364 265/67/358
f 265/67/358 268/67/365 267/67/366 264/67/361
f 264/67/361 267/67/366 166/67/71 123/67/70
f 269/67/325 272/67/329 271/67/367 268/67/364
f 268/67/368 271/67/367 270/67/369 267/67/370
f 267/67/370 270/67/371 122/67/83 166/67/82
f 272/67/372 249/67/332 250/67/373 271/67/374
f 271/67/375 250/67/334 251/67/376 270/67/377
f 270/67/371 251/67/338 165/67/67 122/67/66
f 169/67/77 125/67/76 278/67/378 273/67/379
f 125/67/89 172/67/88 281/67/380 278/67/381
f 172/67/88 128/67/382 284/67/383 281/67/380
f 128/67/81 171/67/80 287/67/384 284/67/385
f 171/67/386 127/67/91 290/67/387 287/67/388
f 127/67/91 170/67/72 293/67/389 290/67/387
f 170/67/85 126/67/84 296/67/390 293/67/391
f 126/67/69 169/67/68 273/67/392 296/67/393
f 273/67/379 278/67/378 277/67/394 274/67/395
f 274/67/395 277/67/396 276/67/397 275/67/398
f 275/67/399 276/67/400 117/67/401 161/67/402
f 278/67/381 281/67/403 280/67/404 277/67/396
f 277/67/394 280/67/405 279/67/406 276/67/407
f 276/67/397 279/67/406 164/67/408 117/67/401
f 281/67/380 284/67/383 283/67/409 280/67/404
f 280/67/410 283/67/409 282/67/411 279/67/406
f 279/67/406 282/67/411 120/67/412 164/67/408
f 284/67/383 287/67/384 286/67/413 283/67/409
f 283/67/409 286/67/413 285/67/414 282/67/415
f 282/67/411 285/67/416 163/67/417 120/67/418
f 287/67/388 290/67/387 289/67/419 286/67/420
f 286/67/420 289/67/419 288/67/421 285/67/422
f 285/67/422 288/67/421 119/67/423 163/67/424
f 290/67/425 293/67/391 292/67/426 289/67/427
f 289/67/419 292/67/426 291/67/428 288/67/429
f 288/67/429 291/67/428 162/67/430 119/67/423
f 293/67/391 296/67/390 295/67/431 292/67/426
f 292/67/426 295/67/431 294/67/432 291/67/433
f 291/67/434 294/67/435 118/67/436 162/67/437
f 296/67/438 273/67/379 274/67/395 295/67/431
f 295/67/439 274/67/395 275/67/440 294/67/432
f 294/67/432 275/67/441 161/67/442 118/67/443
f 189/67/160 146/67/152 302/67/444 297/67/445
f 146/67/152 190/67/168 305/67/446 302/67/444
f 190/67/157 147/67/175 308/67/447 305/67/448
f 147/67/175 191/67/449 311/67/450 308/67/451
f 191/67/452 148/67/164 314/67/453 311/67/450
f 148/67/178 192/67/172 317/67/454 314/67/455
f 192/67/172 145/67/171 320/67/456 317/67/457
f 145/67/161 189/67/458 297/67/459 320/67/456
f 297/67/445 302/67/444 301/67/460 298/67/461
f 298/67/461 301/67/460 300/67/462 299/67/463
f 299/67/464 300/67/465 114/67/466 153/67/467
f 302/67/468 305/67/446 304/67/469 301/67/460
f 301/67/460 304/67/469 303/67/470 300/67/465
f 300/67/462 303/67/470 154/67/471 114/67/472
f 305/67/448 308/67/451 307/67/473 304/67/474
f 304/67/469 307/67/475 306/67/476 303/67/477
f 303/67/477 306/67/476 115/67/478 154/67/479
f 308/67/451 311/67/480 310/67/481 307/67/475
f 307/67/473 310/67/482 309/67/483 306/67/476
f 306/67/484 309/67/485 155/67/486 115/67/487
f 311/67/488 314/67/455 313/67/489 310/67/481
f 310/67/481 313/67/490 312/67/491 309/67/483
f 309/67/483 312/67/491 116/67/492 155/67/493
f 314/67/455 317/67/454 316/67/494 313/67/489
f 313/67/489 316/67/495 315/67/496 312/67/491
f 312/67/491 315/67/496 156/67/497 116/67/498
f 317/67/457 320/67/499 319/67/500 316/67/494
f 316/67/495 319/67/500 318/67/501 315/67/502
f 315/67/496 318/67/503 113/67/504 156/67/505
f 320/67/456 297/67/459 298/67/506 319/67/500
f 319/67/500 298/67/506 299/67/464 318/67/501
f 318/67/501 299/67/464 153/67/507 113/67/508
f 157/67/509 200/67/510 341/67/511 342/67/512
f 200/67/513 160/67/514 338/67/515 341/67/516
f 160/67/517 199/67/518 335/67/519 338/67/520
f 199/67/518 159/67/521 332/67/522 335/67/523
f 159/67/521 198/67/524 329/67/525 332/67/526
f 198/67/524 158/67/527 326/67/528 329/67/525
f 158/67/529 197/67/530 323/67/531 326/67/528
f 197/67/532 157/67/533 342/67/534 323/67/535
f 326/67/536 323/67/535 322/67/537 325/67/538
f 325/67/538 322/67/539 321/67/540 324/67/541
f 324/67/542 321/67/543 153/67/467 114/67/466
f 329/67/525 326/67/528 325/67/538 328/67/544
f 328/67/544 325/67/545 324/67/546 327/67/547
f 327/67/547 324/67/542 114/67/472 154/67/471
f 332/67/526 329/67/548 328/67/549 331/67/550
f 331/67/551 328/67/544 327/67/552 330/67/553
f 330/67/554 327/67/552 154/67/471 115/67/555
f 335/67/556 332/67/557 331/67/558 334/67/559
f 334/67/560 331/67/561 330/67/562 333/67/563
f 333/67/564 330/67/562 115/67/487 155/67/486
f 338/67/515 335/67/519 334/67/565 337/67/566
f 337/67/567 334/67/560 333/67/568 336/67/569
f 336/67/569 333/67/563 155/67/493 116/67/570
f 341/67/511 338/67/515 337/67/567 340/67/571
f 340/67/572 337/67/566 336/67/569 339/67/573
f 339/67/573 336/67/569 116/67/570 156/67/497
f 342/67/512 341/67/511 340/67/572 343/67/574
f 343/67/574 340/67/572 339/67/573 344/67/575
f 344/67/576 339/67/573 156/67/505 113/67/508
f 323/67/535 342/67/512 343/67/577 322/67/578
f 322/67/579 343/67/574 344/67/580 321/67/581
f 321/67/582 344/67/583 113/67/508 153/67/584
s 1
f 157/67/533 197/67/532 51/46/38 50/45/37
f 197/67/532 158/67/527 52/60/52 51/46/38
f 158/67/527 198/67/524 53/61/585 52/60/52
f 198/67/524 159/67/521 54/62/54 53/61/585
f 159/67/521 199/67/586 55/63/587 54/62/54
f 199/67/586 160/67/517 56/64/56 55/63/587
f 160/67/517 200/67/588 49/59/51 56/64/56
f 200/67/588 157/67/533 50/45/37 49/59/51
f 120/67/418 163/67/424 107/46/59 106/45/589
f 163/67/424 119/67/423 108/60/590 107/46/59
f 119/67/423 162/67/437 109/61/591 108/60/590
f 162/67/437 118/67/436 110/62/592 109/61/591
f 118/67/436 161/67/402 111/63/593 110/62/592
f 161/67/402 117/67/401 112/64/594 111/63/593
f 117/67/401 164/67/408 105/59/60 112/64/594
f 164/67/408 120/67/418 106/45/589 105/59/60
