# Blender 5.0.1
# www.blender.org
mtllib Wire_Head_Yellow(Pin_13-X0).mtl
o Wire_Head_Yellow(Pin_13-X0)
v 0.033559 -0.014474 0.249517
v 0.035679 -0.015352 0.249517
v 0.033559 -0.014474 0.240313
v 0.035679 -0.015352 0.240313
v 0.035679 -0.015268 0.240115
v 0.037800 -0.014474 0.240313
v 0.037800 -0.014474 0.249517
v 0.038678 -0.012353 0.249517
v 0.038678 -0.012353 0.240313
v 0.038595 -0.012353 0.240115
v 0.037800 -0.010233 0.240313
v 0.037741 -0.010292 0.240115
v 0.037800 -0.010233 0.249517
v 0.035679 -0.009354 0.249517
v 0.035679 -0.009354 0.240313
v 0.035679 -0.009438 0.240115
v 0.033559 -0.010233 0.240313
v 0.033618 -0.010292 0.240115
v 0.033559 -0.010233 0.249517
v 0.032681 -0.012353 0.249517
v 0.032681 -0.012353 0.240313
v 0.032764 -0.012353 0.240115
v 0.033618 -0.014415 0.240115
v 0.033761 -0.014272 0.240033
v 0.033949 -0.014084 0.240033
v 0.034092 -0.013941 0.240115
v 0.035679 -0.014801 0.240033
v 0.035679 -0.014599 0.240115
v 0.035679 -0.015066 0.240033
v 0.037598 -0.014272 0.240033
v 0.037741 -0.014415 0.240115
v 0.037410 -0.014084 0.240033
v 0.037267 -0.013941 0.240115
v 0.038127 -0.012353 0.240033
v 0.037925 -0.012353 0.240115
v 0.038393 -0.012353 0.240033
v 0.037598 -0.010435 0.240033
v 0.037410 -0.010623 0.240033
v 0.037267 -0.010766 0.240115
v 0.035679 -0.009906 0.240033
v 0.035679 -0.010108 0.240115
v 0.035679 -0.009640 0.240033
v 0.033761 -0.010435 0.240033
v 0.033949 -0.010623 0.240033
v 0.034092 -0.010766 0.240115
v 0.033232 -0.012353 0.240033
v 0.033434 -0.012353 0.240115
v 0.032966 -0.012353 0.240033
v 0.033518 -0.012353 0.240313
v 0.034151 -0.013882 0.240313
v 0.035679 -0.014515 0.240313
v 0.037208 -0.013882 0.240313
v 0.037841 -0.012353 0.240313
v 0.037208 -0.010825 0.240313
v 0.035679 -0.010192 0.240313
v 0.034151 -0.010825 0.240313
v 0.175316 -0.016778 0.249517
v 0.177437 -0.017656 0.249517
v 0.175316 -0.016778 0.240313
v 0.177437 -0.017656 0.240313
v 0.177437 -0.017572 0.240115
v 0.179557 -0.016778 0.240313
v 0.179557 -0.016778 0.249517
v 0.180435 -0.014657 0.249517
v 0.180435 -0.014657 0.240313
v 0.180352 -0.014657 0.240115
v 0.179557 -0.012537 0.240313
v 0.179498 -0.012596 0.240115
v 0.179557 -0.012537 0.249517
v 0.177437 -0.011658 0.249517
v 0.177437 -0.011658 0.240313
v 0.177437 -0.011742 0.240115
v 0.175316 -0.012537 0.240313
v 0.175375 -0.012596 0.240115
v 0.175316 -0.012537 0.249517
v 0.174438 -0.014657 0.249517
v 0.174438 -0.014657 0.240313
v 0.174521 -0.014657 0.240115
v 0.175375 -0.016719 0.240115
v 0.175518 -0.016576 0.240033
v 0.175706 -0.016388 0.240033
v 0.175849 -0.016245 0.240115
v 0.177437 -0.017105 0.240033
v 0.177437 -0.016903 0.240115
v 0.177437 -0.017370 0.240033
v 0.179355 -0.016576 0.240033
v 0.179498 -0.016719 0.240115
v 0.179167 -0.016388 0.240033
v 0.179024 -0.016245 0.240115
v 0.179884 -0.014657 0.240033
v 0.179682 -0.014657 0.240115
v 0.180150 -0.014657 0.240033
v 0.179355 -0.012739 0.240033
v 0.179167 -0.012927 0.240033
v 0.179024 -0.013070 0.240115
v 0.177437 -0.012210 0.240033
v 0.177437 -0.012412 0.240115
v 0.177437 -0.011944 0.240033
v 0.175518 -0.012739 0.240033
v 0.175706 -0.012927 0.240033
v 0.175849 -0.013070 0.240115
v 0.174989 -0.014657 0.240033
v 0.175191 -0.014657 0.240115
v 0.174723 -0.014657 0.240033
v 0.175275 -0.014657 0.240313
v 0.175908 -0.016186 0.240313
v 0.177437 -0.016819 0.240313
v 0.178965 -0.016186 0.240313
v 0.179598 -0.014657 0.240313
v 0.178965 -0.013129 0.240313
v 0.177437 -0.012496 0.240313
v 0.175908 -0.013129 0.240313
v 0.181008 -0.016028 0.230305
v 0.181348 -0.016028 0.233046
v 0.181688 -0.013287 0.233046
v 0.181348 -0.013287 0.230305
v 0.034309 -0.010974 0.237996
v 0.037050 -0.010974 0.238038
v 0.037050 -0.013733 0.238038
v 0.034309 -0.013733 0.237996
v 0.055069 -0.010921 0.230234
v 0.055069 -0.010921 0.233116
v 0.055026 -0.013785 0.233116
v 0.055026 -0.013785 0.230234
v 0.042114 -0.010912 0.230243
v 0.042157 -0.010912 0.233108
v 0.042157 -0.013794 0.233108
v 0.042114 -0.013794 0.230243
v 0.062936 -0.038419 0.230234
v 0.062936 -0.038419 0.233116
v 0.060071 -0.038461 0.233116
v 0.060071 -0.038461 0.230234
v 0.062936 -0.018352 0.230234
v 0.062936 -0.018352 0.233116
v 0.060071 -0.018395 0.233116
v 0.060071 -0.018395 0.230234
v 0.178837 -0.043028 0.230234
v 0.178837 -0.043028 0.233116
v 0.178880 -0.045892 0.233116
v 0.178880 -0.045892 0.230234
v 0.067926 -0.043028 0.230234
v 0.067926 -0.043028 0.233116
v 0.067883 -0.045892 0.233116
v 0.067883 -0.045892 0.230234
v 0.183828 -0.021065 0.230234
v 0.183828 -0.021065 0.233116
v 0.186692 -0.021022 0.233116
v 0.186692 -0.021022 0.230234
v 0.183828 -0.038053 0.230234
v 0.183828 -0.038053 0.233116
v 0.186692 -0.038095 0.233116
v 0.186692 -0.038095 0.230234
v 0.176066 -0.016037 0.237996
v 0.178807 -0.016037 0.238038
v 0.178807 -0.013278 0.238038
v 0.176066 -0.013278 0.237996
v 0.181115 -0.016542 0.231675
v 0.181582 -0.014657 0.233560
v 0.181582 -0.012773 0.231675
v 0.181115 -0.014657 0.229791
v 0.035679 -0.010455 0.238040
v 0.037565 -0.012353 0.238070
v 0.035679 -0.014251 0.238040
v 0.033794 -0.012353 0.238011
v 0.055077 -0.010384 0.231675
v 0.055047 -0.012353 0.233657
v 0.055018 -0.014323 0.231675
v 0.055047 -0.012353 0.229694
v 0.042135 -0.010372 0.231675
v 0.042165 -0.012353 0.233645
v 0.042135 -0.014335 0.231675
v 0.042106 -0.012353 0.229706
v 0.063473 -0.038411 0.231675
v 0.061503 -0.038440 0.233657
v 0.059534 -0.038469 0.231675
v 0.061503 -0.038440 0.229694
v 0.063473 -0.018344 0.231675
v 0.061503 -0.018373 0.233657
v 0.059534 -0.018403 0.231675
v 0.061503 -0.018373 0.229694
v 0.178829 -0.042491 0.231675
v 0.178859 -0.044460 0.233657
v 0.178888 -0.046430 0.231675
v 0.178859 -0.044460 0.229694
v 0.067934 -0.042491 0.231675
v 0.067905 -0.044460 0.233657
v 0.067875 -0.046430 0.231675
v 0.067905 -0.044460 0.229694
v 0.183290 -0.021073 0.231675
v 0.185260 -0.021044 0.233657
v 0.187229 -0.021014 0.231675
v 0.185260 -0.021044 0.229694
v 0.183290 -0.038045 0.231675
v 0.185260 -0.038074 0.233657
v 0.187229 -0.038103 0.231675
v 0.185260 -0.038074 0.229694
v 0.177437 -0.016555 0.238040
v 0.179322 -0.014657 0.238070
v 0.177437 -0.012759 0.238040
v 0.175551 -0.014657 0.238011
v 0.178705 -0.016313 0.232222
v 0.177680 -0.016339 0.233214
v 0.177425 -0.016473 0.235061
v 0.179389 -0.015835 0.233442
v 0.178912 -0.015855 0.233861
v 0.178798 -0.015959 0.235167
v 0.179702 -0.014471 0.233923
v 0.179376 -0.014490 0.234186
v 0.179316 -0.014583 0.235290
v 0.179536 -0.013078 0.233488
v 0.178931 -0.013099 0.234018
v 0.178807 -0.013203 0.235305
v 0.178906 -0.012521 0.232286
v 0.177706 -0.012549 0.233429
v 0.177437 -0.012682 0.235252
v 0.178232 -0.012999 0.231060
v 0.176484 -0.013032 0.232760
v 0.176067 -0.013195 0.235112
v 0.177909 -0.014363 0.230584
v 0.176010 -0.014398 0.232457
v 0.175547 -0.014572 0.235023
v 0.176058 -0.015951 0.234973
v 0.176466 -0.015788 0.232604
v 0.178086 -0.015756 0.231013
v 0.183321 -0.018283 0.231601
v 0.183286 -0.017186 0.231508
v 0.182987 -0.016924 0.231489
v 0.183309 -0.016441 0.232868
v 0.183765 -0.016867 0.232904
v 0.183856 -0.018175 0.233023
v 0.183998 -0.015206 0.233351
v 0.185022 -0.016199 0.233398
v 0.185274 -0.018051 0.233553
v 0.184632 -0.013988 0.232788
v 0.186271 -0.015590 0.232835
v 0.186689 -0.017981 0.233015
v 0.184806 -0.013551 0.231379
v 0.186731 -0.015430 0.231414
v 0.187216 -0.018016 0.231589
v 0.184484 -0.014034 0.230000
v 0.186252 -0.015749 0.230018
v 0.186680 -0.018125 0.230167
v 0.183795 -0.015270 0.229518
v 0.184995 -0.016418 0.229524
v 0.185262 -0.018248 0.229637
v 0.183161 -0.016487 0.230080
v 0.183746 -0.017027 0.230087
v 0.183848 -0.018319 0.230175
v 0.183141 -0.041123 0.231675
v 0.182867 -0.042070 0.231675
v 0.181913 -0.042343 0.231675
v 0.182034 -0.042866 0.230234
v 0.183246 -0.042451 0.230234
v 0.183664 -0.041244 0.230234
v 0.182356 -0.044262 0.229694
v 0.184257 -0.043465 0.229694
v 0.185059 -0.041569 0.229694
v 0.182678 -0.045658 0.230234
v 0.185268 -0.044479 0.230234
v 0.186454 -0.041894 0.230234
v 0.182799 -0.046181 0.231675
v 0.185647 -0.044860 0.231675
v 0.186977 -0.042016 0.231675
v 0.182678 -0.045657 0.233116
v 0.185268 -0.044479 0.233116
v 0.186454 -0.041894 0.233116
v 0.182356 -0.044262 0.233657
v 0.184257 -0.043465 0.233657
v 0.185059 -0.041569 0.233657
v 0.182034 -0.042866 0.233116
v 0.183246 -0.042451 0.233116
v 0.183664 -0.041244 0.233116
v 0.064872 -0.042367 0.231675
v 0.063900 -0.042135 0.231675
v 0.063633 -0.041313 0.231675
v 0.063113 -0.041448 0.230234
v 0.063537 -0.042531 0.230234
v 0.064765 -0.042893 0.230234
v 0.061727 -0.041808 0.229694
v 0.062568 -0.043586 0.229694
v 0.064477 -0.044297 0.229694
v 0.060340 -0.042168 0.230234
v 0.061600 -0.044641 0.230234
v 0.064190 -0.045700 0.230234
v 0.059820 -0.042303 0.231675
v 0.061236 -0.045037 0.231675
v 0.064082 -0.046226 0.231675
v 0.060340 -0.042168 0.233116
v 0.061600 -0.044641 0.233116
v 0.064190 -0.045700 0.233116
v 0.061727 -0.041808 0.233657
v 0.062568 -0.043586 0.233657
v 0.064477 -0.044296 0.233657
v 0.063113 -0.041448 0.233116
v 0.063537 -0.042531 0.233116
v 0.064765 -0.042893 0.233116
v 0.063180 -0.014493 0.231675
v 0.061744 -0.011759 0.231675
v 0.058883 -0.010583 0.231675
v 0.058777 -0.011109 0.230234
v 0.061383 -0.012157 0.230234
v 0.062660 -0.014629 0.230234
v 0.058494 -0.012513 0.229694
v 0.060421 -0.013218 0.229694
v 0.061275 -0.014995 0.229694
v 0.058212 -0.013918 0.230234
v 0.059459 -0.014279 0.230234
v 0.059890 -0.015360 0.230234
v 0.058106 -0.014444 0.231675
v 0.059098 -0.014677 0.231675
v 0.059371 -0.015497 0.231675
v 0.058212 -0.013918 0.233116
v 0.059459 -0.014279 0.233116
v 0.059890 -0.015360 0.233116
v 0.058494 -0.012513 0.233657
v 0.060421 -0.013218 0.233657
v 0.061275 -0.014995 0.233657
v 0.058777 -0.011109 0.233116
v 0.061383 -0.012157 0.233116
v 0.062660 -0.014629 0.233116
v 0.038623 -0.010393 0.231868
v 0.036704 -0.010414 0.232655
v 0.035887 -0.010434 0.234544
v 0.034543 -0.010959 0.234204
v 0.035732 -0.010943 0.231645
v 0.038318 -0.010928 0.230484
v 0.034033 -0.012353 0.234100
v 0.035356 -0.012353 0.231277
v 0.038196 -0.012353 0.229967
v 0.034543 -0.013748 0.234204
v 0.035732 -0.013763 0.231645
v 0.038318 -0.013779 0.230484
v 0.035887 -0.014272 0.234544
v 0.036704 -0.014293 0.232655
v 0.038623 -0.014314 0.231868
v 0.037239 -0.013748 0.234849
v 0.037692 -0.013763 0.233649
v 0.038940 -0.013779 0.233249
v 0.037742 -0.012353 0.234987
v 0.038052 -0.012353 0.234033
v 0.039051 -0.012353 0.233769
v 0.037239 -0.010959 0.234849
v 0.037692 -0.010943 0.233649
v 0.038940 -0.010928 0.233249
vn -0.5003 -0.5003 -0.7067
vn -0.0000 -0.7075 -0.7067
vn -0.0000 -1.0000 -0.0088
vn -0.7071 -0.7071 -0.0088
vn 0.5003 -0.5003 -0.7067
vn 0.7071 -0.7071 -0.0088
vn 0.7071 -0.7071 -0.0000
vn -0.0000 -1.0000 -0.0000
vn 0.5003 0.5003 -0.7067
vn 0.7071 0.7071 -0.0088
vn 1.0000 -0.0000 -0.0088
vn 0.7075 -0.0000 -0.7067
vn -0.5003 0.5003 -0.7067
vn -0.7071 0.7071 -0.0088
vn -0.0001 1.0000 -0.0088
vn -0.0000 0.7075 -0.7067
vn 0.7071 0.7071 -0.0000
vn 1.0000 -0.0000 -0.0000
vn 0.1638 -0.0000 -0.9865
vn 0.1158 0.1158 -0.9865
vn -0.1281 -0.1281 -0.9835
vn -0.1811 -0.0000 -0.9835
vn 0.1281 -0.1280 -0.9835
vn 0.1811 -0.0000 -0.9835
vn -1.0000 -0.0000 -0.0000
vn -0.7071 0.7071 -0.0000
vn -1.0000 -0.0000 -0.0088
vn -0.0000 1.0000 -0.0000
vn 0.1280 0.1281 -0.9835
vn -0.0000 0.1811 -0.9835
vn -0.7075 -0.0000 -0.7067
vn -0.7071 -0.7071 -0.0000
vn -0.0000 0.6909 -0.7230
vn -0.0000 0.1638 -0.9865
vn 0.4885 0.4885 -0.7230
vn -0.0000 -0.1811 -0.9835
vn -0.6999 -0.6963 -0.1591
vn -0.0013 -0.9877 -0.1562
vn -0.1281 0.1280 -0.9835
vn -0.6909 -0.0000 -0.7230
vn -0.1638 -0.0000 -0.9865
vn -0.1158 0.1158 -0.9865
vn -0.4885 0.4885 -0.7230
vn -0.0000 -0.6909 -0.7230
vn -0.0000 -0.1638 -0.9865
vn -0.1158 -0.1158 -0.9865
vn -0.4885 -0.4885 -0.7230
vn 0.6909 -0.0000 -0.7230
vn 0.1158 -0.1158 -0.9865
vn 0.4885 -0.4885 -0.7230
vn -0.9874 -0.0000 -0.1582
vn 0.6982 -0.6974 -0.1618
vn 0.9868 -0.0000 -0.1619
vn 0.6982 0.6974 -0.1618
vn -0.0013 0.9877 -0.1562
vn -0.7000 0.6962 -0.1591
vn 0.0001 1.0000 -0.0088
vn -0.1281 -0.1280 -0.9835
vn 0.1281 0.1281 -0.9835
vn -0.0000 0.1637 -0.9865
vn -0.0013 -0.9877 -0.1563
vn -0.0000 -0.1637 -0.9865
vn -0.0013 0.9877 -0.1563
vn 0.0080 0.7100 0.7042
vn 0.0121 0.9999 -0.0002
vn -0.0011 1.0000 -0.0034
vn 0.0056 0.7084 0.7057
vn -0.0059 -0.7061 0.7081
vn -0.0002 0.0032 1.0000
vn 0.0076 0.0002 1.0000
vn 0.0056 -0.7081 0.7061
vn 0.0121 0.9999 -0.0003
vn 0.0080 0.7097 -0.7045
vn -0.0108 0.7043 -0.7098
vn -0.0011 1.0000 -0.0035
vn -0.0058 -0.7058 -0.7084
vn -0.0074 -1.0000 -0.0003
vn -0.0011 -1.0000 -0.0035
vn -0.0109 -0.7040 -0.7101
vn -0.0002 0.0033 1.0000
vn 0.0081 0.7099 0.7043
vn 0.0055 0.7084 0.7058
vn 0.0076 0.0003 1.0000
vn 0.0080 0.7096 -0.7045
vn -0.0002 0.0033 -1.0000
vn -0.0156 0.0003 -0.9999
vn -0.0109 0.7043 -0.7098
vn -0.0074 -1.0000 -0.0002
vn -0.0058 -0.7061 0.7081
vn 0.0056 -0.7081 0.7060
vn -0.0011 -1.0000 -0.0034
vn -0.0002 0.0032 -1.0000
vn -0.0156 0.0002 -0.9999
vn 0.7080 0.0054 0.7062
vn 1.0000 0.0073 -0.0000
vn 0.9999 0.0119 0.0001
vn 0.7112 0.0082 0.7029
vn -0.7111 -0.0081 0.7030
vn -0.0028 -0.0004 1.0000
vn 0.0027 0.0004 1.0000
vn -0.7080 -0.0055 0.7062
vn 0.7080 0.0054 -0.7061
vn 0.7112 0.0082 -0.7029
vn 0.9999 0.0119 -0.0001
vn -0.7112 -0.0081 -0.7029
vn -0.9999 -0.0116 -0.0000
vn -1.0000 -0.0075 -0.0000
vn -0.7080 -0.0056 -0.7062
vn -0.0027 -0.0004 1.0000
vn 0.7112 0.0082 0.7030
vn 0.0028 0.0004 1.0000
vn 0.7080 0.0055 -0.7062
vn -0.0027 -0.0004 -1.0000
vn 0.0028 0.0004 -1.0000
vn 0.7112 0.0082 -0.7030
vn -0.9999 -0.0117 -0.0000
vn -0.7112 -0.0081 0.7030
vn -0.7080 -0.0056 0.7062
vn -0.0028 -0.0004 -1.0000
vn -0.7111 -0.0080 -0.7030
vn -0.7080 -0.0057 -0.7062
vn 0.0027 0.0004 -1.0000
vn -0.0010 0.7090 0.7052
vn -0.0014 1.0000 -0.0000
vn 0.0011 1.0000 -0.0000
vn 0.0009 0.7090 0.7052
vn 0.0015 -0.7096 0.7046
vn 0.0001 -0.0006 1.0000
vn -0.0001 -0.0005 1.0000
vn -0.0012 -0.7096 0.7046
vn -0.0010 0.7090 -0.7052
vn 0.0009 0.7090 -0.7052
vn 0.0015 -0.7097 -0.7045
vn 0.0021 -1.0000 -0.0000
vn -0.0017 -1.0000 -0.0000
vn -0.0012 -0.7096 -0.7046
vn -0.0000 -0.0005 1.0000
vn 0.0008 0.7090 0.7052
vn 0.0001 -0.0005 -1.0000
vn -0.0000 -0.0005 -1.0000
vn 0.0015 -0.7097 0.7045
vn 0.0001 -0.0006 -1.0000
vn 0.0015 -0.7096 -0.7046
vn -0.7082 0.0043 0.7060
vn -1.0000 0.0015 0.0009
vn -1.0000 0.0078 -0.0000
vn -0.7078 0.0058 0.7064
vn 0.7096 0.0036 0.7046
vn 0.0011 0.0051 1.0000
vn 0.0032 -0.0004 1.0000
vn 0.7114 -0.0081 0.7027
vn -1.0000 0.0015 0.0008
vn -0.7091 -0.0014 -0.7051
vn -0.7078 0.0057 -0.7064
vn 0.7102 -0.0020 -0.7040
vn 1.0000 0.0007 0.0004
vn 0.9999 -0.0117 -0.0000
vn 0.7114 -0.0081 -0.7027
vn -0.7077 0.0057 0.7065
vn 0.0032 -0.0003 1.0000
vn 0.0010 -0.0029 -1.0000
vn 0.0032 -0.0003 -1.0000
vn -0.7077 0.0057 -0.7065
vn 1.0000 0.0007 0.0005
vn 0.7097 0.0037 0.7045
vn 0.0011 -0.0029 -1.0000
vn 0.7102 -0.0019 -0.7040
vn -0.7085 -0.7033 -0.0579
vn -0.9989 -0.0016 -0.0473
vn -0.9968 0.0048 -0.0793
vn -0.7217 -0.6869 -0.0850
vn -0.9989 -0.0015 -0.0473
vn -0.7113 0.7018 -0.0382
vn -0.7235 0.6899 -0.0248
vn -0.9968 0.0048 -0.0794
vn -0.7113 0.7019 -0.0382
vn -0.0032 0.9994 -0.0332
vn -0.0271 0.9989 0.0392
vn -0.0031 0.9994 -0.0332
vn 0.7082 0.7048 -0.0407
vn 0.6983 0.7139 0.0520
vn 0.9987 -0.0033 -0.0513
vn 0.9998 -0.0073 0.0208
vn 0.7040 -0.7076 -0.0610
vn 0.6944 -0.7195 -0.0137
vn 0.9998 -0.0074 0.0208
vn 0.7039 -0.7077 -0.0610
vn -0.0033 -0.9981 -0.0618
vn -0.0221 -0.9985 -0.0501
vn 0.6943 -0.7195 -0.0137
vn -0.0034 -0.9981 -0.0619
vn -0.7217 -0.6870 -0.0850
vn -0.0222 -0.9985 -0.0501
vn -0.0656 -0.9931 -0.0971
vn 0.5964 -0.7868 0.1585
vn 0.5964 -0.7868 0.1586
vn -0.0656 -0.9931 -0.0970
vn -0.0973 -0.9937 -0.0547
vn 0.1611 -0.7633 0.6256
vn -0.0974 -0.9937 -0.0547
vn -0.1490 -0.9888 -0.0049
vn -0.0051 -0.7060 0.7082
vn 0.9998 -0.0074 0.0209
vn 0.6944 -0.7195 -0.0136
vn 0.9490 -0.0145 0.3148
vn 0.5965 -0.7868 0.1585
vn 0.1611 -0.7633 0.6257
vn 0.3003 -0.0177 0.9537
vn 0.3002 -0.0177 0.9537
vn 0.1398 0.0069 0.9902
vn 0.6983 0.7139 0.0521
vn 0.9998 -0.0073 0.0209
vn 0.9490 -0.0144 0.3149
vn 0.5830 0.7651 0.2735
vn 0.5830 0.7651 0.2734
vn 0.2667 0.7363 0.6219
vn 0.3003 -0.0176 0.9537
vn 0.1398 0.0070 0.9902
vn 0.2187 0.7156 0.6634
vn 0.6983 0.7140 0.0520
vn 0.5829 0.7651 0.2734
vn -0.0620 0.9980 0.0132
vn 0.5829 0.7651 0.2735
vn 0.0271 0.9987 -0.0434
vn 0.0272 0.9987 -0.0434
vn 0.1622 0.9859 -0.0402
vn -0.0621 0.9980 0.0132
vn -0.6449 0.6997 -0.3073
vn -0.6450 0.6997 -0.3074
vn -0.0620 0.9980 0.0131
vn 0.0271 0.9987 -0.0435
vn -0.2876 0.7083 -0.6446
vn 0.1621 0.9859 -0.0403
vn -0.0024 0.7079 -0.7063
vn -0.7235 0.6899 -0.0249
vn -0.6450 0.6997 -0.3073
vn -0.8844 0.0351 -0.4654
vn -0.2876 0.7083 -0.6447
vn -0.4550 0.0444 -0.8894
vn -0.0025 0.7079 -0.7063
vn -0.1677 0.0419 -0.9849
vn -0.9968 0.0047 -0.0794
vn -0.6601 -0.6525 -0.3722
vn -0.4550 0.0443 -0.8894
vn -0.3721 -0.6487 -0.6639
vn -0.3720 -0.6487 -0.6639
vn -0.1677 0.0418 -0.9849
vn -0.2264 -0.6621 -0.7144
vn -0.0221 -0.9985 -0.0502
vn -0.0974 -0.9937 -0.0548
vn -0.2263 -0.6621 -0.7144
vn -0.1490 -0.9888 -0.0050
vn -1.0000 0.0016 0.0009
vn -0.6948 0.0253 0.7187
vn -0.9999 -0.0078 0.0069
vn 0.0212 0.0585 0.9981
vn -0.6948 0.0253 0.7188
vn 0.0012 0.0052 1.0000
vn 0.7096 0.0037 0.7046
vn 0.7209 0.0913 0.6870
vn 0.9964 0.0848 -0.0048
vn 0.7210 0.0913 0.6869
vn 0.7228 0.0315 -0.6903
vn 0.9964 0.0848 -0.0049
vn 0.0259 -0.0302 -0.9992
vn 0.7228 0.0315 -0.6904
vn -0.6990 -0.0398 -0.7140
vn -0.6990 -0.0397 -0.7140
vn -0.6044 -0.1352 0.7851
vn -0.9589 -0.2834 0.0131
vn -0.9589 -0.2834 0.0130
vn -0.1735 -0.6185 0.7664
vn -0.3142 -0.9492 0.0180
vn -0.3142 -0.9492 0.0181
vn -0.1735 -0.6184 0.7664
vn 0.0607 0.1082 0.9923
vn -0.6043 -0.1352 0.7852
vn 0.0607 0.1081 0.9923
vn 0.0892 0.0608 0.9942
vn -0.1734 -0.6185 0.7664
vn 0.1397 0.0069 0.9902
vn 0.0212 0.0586 0.9981
vn 0.6575 0.3774 0.6521
vn 0.0608 0.1081 0.9923
vn 0.0608 0.1082 0.9923
vn 0.3673 0.6669 0.6483
vn 0.0892 0.0609 0.9941
vn 0.3674 0.6669 0.6483
vn 0.2188 0.7156 0.6634
vn 0.1397 0.0070 0.9902
vn 0.8828 0.4685 -0.0351
vn 0.4521 0.8909 -0.0440
vn 0.3673 0.6670 0.6483
vn 0.4521 0.8909 -0.0441
vn 0.7228 0.0316 -0.6903
vn 0.6425 0.3125 -0.6996
vn 0.8828 0.4684 -0.0351
vn 0.6426 0.3125 -0.6996
vn 0.2836 0.6474 -0.7074
vn 0.2837 0.6474 -0.7074
vn 0.1622 0.9859 -0.0403
vn 0.7228 0.0316 -0.6904
vn 0.0260 -0.0302 -0.9992
vn 0.0573 -0.0029 -0.9984
vn 0.6425 0.3124 -0.6997
vn 0.6425 0.3125 -0.6997
vn 0.0572 -0.0028 -0.9984
vn -0.0342 0.0488 -0.9982
vn 0.2837 0.6473 -0.7074
vn 0.2836 0.6474 -0.7075
vn -0.0024 0.7079 -0.7064
vn -0.5911 -0.2521 -0.7662
vn 0.0572 -0.0029 -0.9984
vn -0.2784 -0.6148 -0.7379
vn -0.0343 0.0488 -0.9982
vn -0.2783 -0.6148 -0.7379
vn -0.2263 -0.6622 -0.7144
vn -0.7078 0.0058 -0.7064
vn -0.6818 0.0901 -0.7259
vn -0.9930 0.1185 -0.0000
vn 0.0344 -0.0146 -0.9993
vn -0.6818 0.0902 -0.7259
vn 0.0032 -0.0004 -1.0000
vn 0.7119 -0.1587 -0.6841
vn 0.0345 -0.0146 -0.9993
vn 0.7114 -0.0082 -0.7027
vn 0.9748 -0.2229 -0.0000
vn 0.7119 -0.1588 -0.6841
vn 0.7119 -0.1587 0.6841
vn 0.9748 -0.2230 0.0001
vn 0.0345 -0.0146 0.9993
vn 0.7119 -0.1588 0.6841
vn 0.0031 -0.0004 1.0000
vn -0.7077 0.0058 0.7065
vn -0.6818 0.0902 0.7259
vn 0.0344 -0.0146 0.9993
vn -0.7078 0.0057 0.7064
vn -1.0000 0.0078 0.0001
vn -0.9930 0.1185 -0.0001
vn -0.6819 0.0902 -0.7259
vn -0.4402 0.4425 -0.7813
vn -0.7052 0.7090 -0.0000
vn -0.4403 0.4424 -0.7813
vn -0.0894 0.6821 -0.7258
vn -0.1174 0.9931 -0.0000
vn -0.0894 0.6821 -0.7257
vn -0.6818 0.0902 -0.7260
vn 0.0512 -0.0513 -0.9974
vn 0.0511 -0.0513 -0.9974
vn 0.0144 -0.0342 -0.9993
vn -0.0893 0.6821 -0.7258
vn 0.0145 -0.0342 -0.9993
vn 0.5173 -0.5190 -0.6804
vn 0.0512 -0.0512 -0.9974
vn 0.5174 -0.5190 -0.6804
vn 0.1575 -0.7121 -0.6842
vn 0.0145 -0.0343 -0.9993
vn -0.0000 -0.0006 -1.0000
vn 0.7060 -0.7082 -0.0000
vn 0.7060 -0.7083 -0.0000
vn 0.2212 -0.9752 -0.0000
vn 0.1575 -0.7122 -0.6841
vn 0.5173 -0.5191 0.6804
vn 0.5173 -0.5190 0.6804
vn 0.1575 -0.7121 0.6841
vn 0.2213 -0.9752 -0.0000
vn 0.1575 -0.7122 0.6841
vn 0.0512 -0.0513 0.9974
vn 0.5174 -0.5190 0.6804
vn 0.0145 -0.0343 0.9993
vn 0.1575 -0.7121 0.6842
vn 0.0144 -0.0343 0.9993
vn -0.6818 0.0901 0.7260
vn -0.4403 0.4424 0.7813
vn 0.0512 -0.0512 0.9974
vn -0.4402 0.4424 0.7813
vn -0.0894 0.6821 0.7258
vn 0.0145 -0.0342 0.9993
vn -0.0893 0.6821 0.7258
vn 0.0001 -0.0005 1.0000
vn -0.6819 0.0902 0.7259
vn -0.4402 0.4425 0.7813
vn -0.0893 0.6821 0.7257
vn -0.0011 0.7090 0.7052
vn 0.0008 0.7090 -0.7052
vn 0.0775 0.6850 -0.7244
vn 0.1007 0.9949 -0.0000
vn -0.0132 -0.0333 -0.9994
vn 0.0776 0.6850 -0.7244
vn -0.1423 -0.7151 -0.6844
vn -0.0133 -0.0333 -0.9994
vn -0.0017 -1.0000 -0.0001
vn -0.2004 -0.9797 -0.0000
vn -0.1424 -0.7151 -0.6843
vn -0.1424 -0.7151 0.6843
vn -0.0000 -0.0006 1.0000
vn -0.0133 -0.0334 0.9994
vn -0.1424 -0.7151 0.6844
vn 0.0776 0.6850 0.7244
vn -0.0132 -0.0333 0.9994
vn 0.0008 0.7091 0.7052
vn 0.1008 0.9949 -0.0001
vn 0.4091 0.4674 -0.7837
vn 0.6540 0.7565 -0.0000
vn 0.4090 0.4674 -0.7837
vn 0.6773 0.0990 -0.7290
vn 0.9915 0.1301 -0.0000
vn 0.9915 0.1301 -0.0001
vn 1.0000 0.0074 -0.0000
vn -0.0513 -0.0540 -0.9972
vn -0.0373 -0.0167 -0.9992
vn -0.1424 -0.7151 -0.6844
vn -0.4959 -0.5406 -0.6796
vn -0.0513 -0.0541 -0.9972
vn -0.4960 -0.5406 -0.6796
vn -0.7090 -0.1754 -0.6830
vn -0.0374 -0.0167 -0.9992
vn -0.7091 -0.1753 -0.6830
vn -0.7111 -0.0081 -0.7030
vn -0.6767 -0.7363 -0.0000
vn -0.9694 -0.2457 -0.0000
vn -0.7091 -0.1754 -0.6830
vn -0.7112 -0.0081 -0.7030
vn -0.4959 -0.5405 0.6796
vn -0.6766 -0.7363 -0.0000
vn -0.4959 -0.5406 0.6796
vn -0.7090 -0.1754 0.6830
vn -0.9693 -0.2457 -0.0000
vn -0.9694 -0.2456 -0.0000
vn -0.7091 -0.1754 0.6830
vn -0.7112 -0.0080 0.7030
vn -0.0133 -0.0333 0.9994
vn -0.0513 -0.0541 0.9972
vn -0.4960 -0.5405 0.6796
vn -0.0513 -0.0540 0.9972
vn -0.0374 -0.0167 0.9992
vn -0.7090 -0.1753 0.6830
vn 0.4090 0.4674 0.7837
vn -0.0512 -0.0541 0.9972
vn 0.4091 0.4674 0.7837
vn 0.6773 0.0990 0.7290
vn -0.0373 -0.0168 0.9992
vn -0.0373 -0.0167 0.9992
vn 0.6773 0.0989 0.7290
vn 0.1008 0.9949 -0.0000
vn 0.9915 0.1300 0.0001
vn 0.7080 0.0055 0.7062
vn 0.9999 0.0120 -0.0000
vn 0.7112 0.0083 -0.7029
vn 0.7085 0.1775 -0.6830
vn 0.9686 0.2486 -0.0000
vn 0.0375 0.0169 -0.9992
vn -0.6768 -0.1007 -0.7292
vn 0.0374 0.0169 -0.9992
vn -0.7080 -0.0055 -0.7062
vn -0.9912 -0.1325 -0.0000
vn -0.6769 -0.1007 -0.7292
vn -0.6769 -0.1006 0.7292
vn 0.0374 0.0169 0.9992
vn -0.6768 -0.1007 0.7292
vn 0.7112 0.0083 0.7030
vn 0.7085 0.1775 0.6830
vn 0.0375 0.0169 0.9992
vn 0.7112 0.0083 0.7029
vn 0.7086 0.1775 0.6830
vn 0.9686 0.2487 -0.0000
vn 0.7086 0.1775 -0.6830
vn 0.4926 0.5435 -0.6797
vn 0.6724 0.7402 -0.0000
vn 0.6723 0.7403 -0.0000
vn 0.4926 0.5434 -0.6797
vn 0.1400 0.7154 -0.6845
vn 0.1971 0.9804 -0.0000
vn 0.0081 0.7096 -0.7045
vn 0.0122 0.9999 -0.0003
vn 0.0509 0.0540 -0.9972
vn 0.0130 0.0329 -0.9994
vn 0.1400 0.7154 -0.6846
vn 0.1399 0.7154 -0.6845
vn -0.4052 -0.4715 -0.7832
vn 0.0508 0.0539 -0.9973
vn 0.0509 0.0539 -0.9972
vn -0.4052 -0.4716 -0.7832
vn -0.0763 -0.6855 -0.7240
vn -0.6466 -0.7628 -0.0000
vn -0.4053 -0.4715 -0.7832
vn -0.0991 -0.9951 -0.0000
vn -0.0763 -0.6856 -0.7240
vn -0.0990 -0.9951 -0.0000
vn -0.4052 -0.4716 0.7832
vn -0.4052 -0.4715 0.7832
vn -0.0763 -0.6856 0.7240
vn -0.0990 -0.9951 0.0001
vn -0.0762 -0.6856 0.7240
vn 0.0508 0.0540 0.9972
vn 0.0129 0.0329 0.9994
vn -0.0763 -0.6855 0.7240
vn 0.0130 0.0329 0.9994
vn 0.4926 0.5434 0.6797
vn 0.0509 0.0540 0.9972
vn 0.1400 0.7154 0.6846
vn 0.0080 0.7099 0.7042
vn 0.4926 0.5435 0.6797
vn 0.1400 0.7155 0.6845
vn 0.1399 0.7154 0.6845
vn 0.0122 0.9999 -0.0002
vn -0.1591 0.6849 -0.7110
vn -0.0208 0.9993 -0.0311
vn -0.2206 0.0001 -0.9754
vn -0.1591 0.6849 -0.7111
vn -0.0157 0.0002 -0.9999
vn -0.1591 -0.6849 -0.7111
vn -0.2206 -0.0000 -0.9754
vn -0.0208 -0.9993 -0.0311
vn -0.1591 -0.6849 -0.7110
vn 0.0788 -0.7240 0.6853
vn -0.0208 -0.9993 -0.0310
vn 0.1060 -0.0000 0.9944
vn 0.0056 0.7084 0.7058
vn 0.0788 0.7240 0.6853
vn -0.0208 0.9993 -0.0310
vn -0.0209 0.9993 -0.0311
vn -0.5162 0.6810 -0.5194
vn -0.0566 0.9974 -0.0438
vn -0.0567 0.9974 -0.0437
vn -0.7125 0.6840 -0.1564
vn -0.0363 0.9993 -0.0076
vn -0.7125 0.6840 -0.1565
vn -0.7142 0.6967 -0.0669
vn -0.0106 0.9991 -0.0402
vn -0.7025 -0.0000 -0.7117
vn -0.5163 0.6810 -0.5194
vn -0.9749 -0.0000 -0.2226
vn -0.7126 0.6840 -0.1565
vn -0.9969 -0.0000 -0.0782
vn -0.7143 0.6967 -0.0670
vn -0.5163 -0.6810 -0.5193
vn -0.7025 -0.0001 -0.7117
vn -0.5163 -0.6810 -0.5194
vn -0.7125 -0.6840 -0.1565
vn -0.7143 -0.6967 -0.0670
vn -0.0209 -0.9993 -0.0311
vn -0.0566 -0.9974 -0.0438
vn -0.0567 -0.9974 -0.0437
vn -0.0362 -0.9993 -0.0076
vn -0.7125 -0.6840 -0.1564
vn -0.0363 -0.9993 -0.0076
vn -0.0106 -0.9991 -0.0402
vn -0.7143 -0.6967 -0.0669
vn 0.4243 -0.7788 0.4619
vn -0.0566 -0.9974 -0.0437
vn 0.4244 -0.7788 0.4619
vn 0.6796 -0.7263 0.1036
vn 0.6796 -0.7263 0.1035
vn 0.7037 -0.7102 -0.0208
vn -0.0105 -0.9991 -0.0402
vn 0.6795 -0.0000 0.7336
vn 0.4244 -0.7788 0.4618
vn 0.9909 -0.0000 0.1346
vn 0.6796 -0.7262 0.1035
vn 0.9999 -0.0000 -0.0132
vn 0.4244 0.7788 0.4618
vn 0.6796 -0.0000 0.7336
vn 0.4243 0.7789 0.4619
vn 0.6796 0.7262 0.1035
vn 0.7037 0.7102 -0.0208
vn 0.9999 0.0001 -0.0132
vn 0.0789 0.7240 0.6853
vn -0.0566 0.9974 -0.0437
vn 0.4244 0.7788 0.4619
vn -0.0362 0.9993 -0.0076
vn 0.6796 0.7263 0.1035
vn -0.0105 0.9991 -0.0402
vn 0.7037 0.7102 -0.0209
vn -0.7000 -0.6962 -0.1591
vn 0.7037 -0.7102 -0.0209
vn -0.0106 0.9991 -0.0403
vn -0.0033 -0.9981 -0.0619
vn 0.7039 -0.7076 -0.0610
vt 0.636322 0.771411
vt 0.587470 0.804750
vt 0.582466 0.801554
vt 0.635177 0.765465
vt 0.576221 0.861411
vt 0.570569 0.862499
vt 0.433500 0.501817
vt 0.495149 0.501817
vt 0.495149 0.744281
vt 0.433500 0.744281
vt 0.667721 0.922223
vt 0.668877 0.928042
vt 0.605422 0.915050
vt 0.608737 0.910132
vt 0.727696 0.832155
vt 0.733433 0.831018
vt 0.721608 0.892773
vt 0.716620 0.889535
vt 0.310201 0.501817
vt 0.371850 0.501817
vt 0.371850 0.744281
vt 0.310201 0.744281
vt 0.687564 0.793554
vt 0.638896 0.784065
vt 0.637511 0.777194
vt 0.691445 0.787669
vt 0.581871 0.860294
vt 0.612010 0.905265
vt 0.125252 0.501817
vt 0.186902 0.501817
vt 0.186902 0.744281
vt 0.125252 0.744281
vt 0.248551 0.501817
vt 0.248551 0.744281
vt 0.666609 0.916401
vt 0.711799 0.886320
vt 0.694675 0.782803
vt 0.697976 0.777719
vt 0.063603 0.501817
vt 0.063603 0.744281
vt 0.602608 0.814790
vt 0.598019 0.811727
vt 0.639988 0.789629
vt 0.592254 0.807905
vt 0.641149 0.795086
vt 0.607213 0.817814
vt 0.722022 0.833305
vt 0.619061 0.894562
vt 0.615915 0.899401
vt 0.588618 0.858968
vt 0.594043 0.857906
vt 0.701466 0.879486
vt 0.706041 0.882519
vt 0.665296 0.909466
vt 0.664231 0.903895
vt 0.684425 0.798269
vt 0.715204 0.834694
vt 0.709684 0.835861
vt 0.681227 0.803114
vt 0.599435 0.856891
vt 0.622123 0.889732
vt 0.663198 0.898415
vt 0.696941 0.876438
vt 0.704000 0.837048
vt 0.001953 0.501817
vt 0.001953 0.744281
vt 0.000000 0.000000
s 1
usemtl Material.003
f 23/1/1 5/2/2 4/3/3 3/4/4
f 31/5/5 6/6/6 4/3/3 5/2/2
f 7/7/7 2/8/8 4/9/3 6/10/6
f 12/11/9 11/12/10 9/13/11 10/14/12
f 18/15/13 17/16/14 15/17/15 16/18/16
f 13/19/17 8/20/18 9/21/11 11/22/10
f 46/23/19 25/24/20 24/25/21 48/26/22
f 30/27/23 36/28/24 10/14/12 31/5/5
f 8/20/18 7/7/7 6/10/6 9/21/11
f 20/29/25 19/30/26 17/31/14 21/32/27
f 19/30/26 14/33/28 15/34/15 17/31/14
f 37/35/29 42/36/30 16/18/16 12/11/9
f 22/37/31 23/1/1 3/4/4 21/38/27
f 48/26/22 24/25/21 23/1/1 22/37/31
f 1/39/32 20/29/25 21/32/27 3/40/4
f 28/41/33 27/42/34 25/24/20 26/43/35
f 14/33/28 13/19/17 11/22/10 15/34/15
f 24/25/21 29/44/36 5/2/2 23/1/1
f 29/44/36 30/27/23 31/5/5 5/2/2
f 25/24/20 27/42/34 29/44/36 24/25/21
f 50/45/37 51/46/38 28/41/33 26/43/35
f 43/47/39 48/26/22 22/37/31 18/15/13
f 35/48/40 34/49/41 32/50/42 33/51/43
f 27/42/34 32/50/42 30/27/23 29/44/36
f 31/5/5 10/14/12 9/13/11 6/6/6
f 36/28/24 37/35/29 12/11/9 10/14/12
f 32/50/42 34/49/41 36/28/24 30/27/23
f 28/41/33 33/51/43 32/50/42 27/42/34
f 41/52/44 40/53/45 38/54/46 39/55/47
f 34/49/41 38/54/46 37/35/29 36/28/24
f 12/11/9 16/18/16 15/17/15 11/12/10
f 42/36/30 43/47/39 18/15/13 16/18/16
f 38/54/46 40/53/45 42/36/30 37/35/29
f 35/48/40 39/55/47 38/54/46 34/49/41
f 47/56/48 46/23/19 44/57/49 45/58/50
f 40/53/45 44/57/49 43/47/39 42/36/30
f 18/15/13 22/37/31 21/38/27 17/16/14
f 49/59/51 50/45/37 26/43/35 47/56/48
f 44/57/49 46/23/19 48/26/22 43/47/39
f 41/52/44 45/58/50 44/57/49 40/53/45
f 47/56/48 26/43/35 25/24/20 46/23/19
f 51/46/38 52/60/52 33/51/43 28/41/33
f 52/60/52 53/61/53 35/48/40 33/51/43
f 53/61/53 54/62/54 39/55/47 35/48/40
f 54/62/54 55/63/55 41/52/44 39/55/47
f 55/63/55 56/64/56 45/58/50 41/52/44
f 56/64/56 49/59/51 47/56/48 45/58/50
f 2/65/8 1/39/32 3/40/4 4/66/3
f 79/1/1 61/2/2 60/3/3 59/4/4
f 87/5/5 62/6/6 60/3/3 61/2/2
f 63/7/7 58/8/8 60/9/3 62/10/6
f 68/11/9 67/12/10 65/13/11 66/14/12
f 74/15/13 73/16/14 71/17/57 72/18/16
f 69/19/17 64/20/18 65/21/11 67/22/10
f 102/23/19 81/24/20 80/25/58 104/26/22
f 86/27/23 92/28/24 66/14/12 87/5/5
f 64/20/18 63/7/7 62/10/6 65/21/11
f 76/29/25 75/30/26 73/31/14 77/32/27
f 75/30/26 70/33/28 71/34/57 73/31/14
f 93/35/59 98/36/30 72/18/16 68/11/9
f 78/37/31 79/1/1 59/4/4 77/38/27
f 104/26/22 80/25/58 79/1/1 78/37/31
f 57/39/32 76/29/25 77/32/27 59/40/4
f 84/41/33 83/42/60 81/24/20 82/43/35
f 70/33/28 69/19/17 67/22/10 71/34/57
f 80/25/58 85/44/36 61/2/2 79/1/1
f 85/44/36 86/27/23 87/5/5 61/2/2
f 81/24/20 83/42/60 85/44/36 80/25/58
f 106/45/37 107/46/61 84/41/33 82/43/35
f 99/47/39 104/26/22 78/37/31 74/15/13
f 91/48/40 90/49/41 88/50/42 89/51/43
f 83/42/60 88/50/42 86/27/23 85/44/36
f 87/5/5 66/14/12 65/13/11 62/6/6
f 92/28/24 93/35/59 68/11/9 66/14/12
f 88/50/42 90/49/41 92/28/24 86/27/23
f 84/41/33 89/51/43 88/50/42 83/42/60
f 97/52/44 96/53/62 94/54/46 95/55/47
f 90/49/41 94/54/46 93/35/59 92/28/24
f 68/11/9 72/18/16 71/17/57 67/12/10
f 98/36/30 99/47/39 74/15/13 72/18/16
f 94/54/46 96/53/62 98/36/30 93/35/59
f 91/48/40 95/55/47 94/54/46 90/49/41
f 103/56/48 102/23/19 100/57/49 101/58/50
f 96/53/62 100/57/49 99/47/39 98/36/30
f 74/15/13 78/37/31 77/38/27 73/16/14
f 105/59/51 106/45/37 82/43/35 103/56/48
f 100/57/49 102/23/19 104/26/22 99/47/39
f 97/52/44 101/58/50 100/57/49 96/53/62
f 103/56/48 82/43/35 81/24/20 102/23/19
f 107/46/61 108/60/52 89/51/43 84/41/33
f 108/60/52 109/61/53 91/48/40 89/51/43
f 109/61/53 110/62/54 95/55/47 91/48/40
f 110/62/54 111/63/63 97/52/44 95/55/47
f 111/63/63 112/64/56 101/58/50 97/52/44
f 112/64/56 105/59/51 103/56/48 101/58/50
f 58/65/8 57/39/32 59/40/4 60/66/3
s 0
f 122/67/64 165/67/65 169/67/66 126/67/67
f 123/67/68 166/67/69 170/67/70 127/67/71
f 165/67/72 121/67/73 125/67/74 169/67/75
f 124/67/76 167/67/77 171/67/78 128/67/79
f 166/67/80 122/67/81 126/67/82 170/67/83
f 121/67/84 168/67/85 172/67/86 125/67/87
f 167/67/88 123/67/89 127/67/90 171/67/91
f 168/67/92 124/67/76 128/67/79 172/67/93
f 130/67/94 173/67/95 177/67/96 134/67/97
f 131/67/98 174/67/99 178/67/100 135/67/101
f 173/67/95 129/67/102 133/67/103 177/67/104
f 132/67/105 175/67/106 179/67/107 136/67/108
f 174/67/109 130/67/94 134/67/110 178/67/111
f 129/67/112 176/67/113 180/67/114 133/67/115
f 175/67/116 131/67/117 135/67/118 179/67/107
f 176/67/119 132/67/120 136/67/121 180/67/122
f 138/67/123 181/67/124 185/67/125 142/67/126
f 139/67/127 182/67/128 186/67/129 143/67/130
f 181/67/124 137/67/131 141/67/132 185/67/125
f 140/67/133 183/67/134 187/67/135 144/67/136
f 182/67/137 138/67/123 142/67/138 186/67/137
f 137/67/131 184/67/139 188/67/140 141/67/132
f 183/67/134 139/67/141 143/67/130 187/67/135
f 184/67/142 140/67/143 144/67/136 188/67/140
f 146/67/144 189/67/145 193/67/146 150/67/147
f 147/67/148 190/67/149 194/67/150 151/67/151
f 189/67/152 145/67/153 149/67/154 193/67/146
f 148/67/155 191/67/156 195/67/157 152/67/158
f 190/67/149 146/67/144 150/67/159 194/67/160
f 145/67/153 192/67/161 196/67/162 149/67/163
f 191/67/164 147/67/165 151/67/151 195/67/157
f 192/67/166 148/67/167 152/67/158 196/67/162
f 153/67/168 200/67/169 221/67/170 222/67/171
f 200/67/172 156/67/173 218/67/174 221/67/175
f 156/67/176 199/67/177 215/67/178 218/67/174
f 199/67/179 155/67/180 212/67/181 215/67/178
f 155/67/180 198/67/182 209/67/183 212/67/181
f 198/67/182 154/67/184 206/67/185 209/67/186
f 154/67/187 197/67/188 203/67/189 206/67/190
f 197/67/191 153/67/168 222/67/192 203/67/193
f 206/67/185 203/67/189 202/67/194 205/67/195
f 205/67/196 202/67/197 201/67/198 204/67/199
f 204/67/199 201/67/200 157/67/201 114/67/202
f 209/67/203 206/67/204 205/67/196 208/67/205
f 208/67/205 205/67/206 204/67/207 207/67/208
f 207/67/209 204/67/207 114/67/202 158/67/210
f 212/67/211 209/67/212 208/67/213 211/67/214
f 211/67/215 208/67/205 207/67/208 210/67/216
f 210/67/216 207/67/217 158/67/218 115/67/219
f 215/67/178 212/67/220 211/67/221 214/67/222
f 214/67/222 211/67/223 210/67/216 213/67/224
f 213/67/225 210/67/216 115/67/219 159/67/226
f 218/67/174 215/67/178 214/67/227 217/67/228
f 217/67/229 214/67/230 213/67/231 216/67/232
f 216/67/232 213/67/225 159/67/233 116/67/234
f 221/67/175 218/67/235 217/67/236 220/67/237
f 220/67/237 217/67/236 216/67/238 219/67/239
f 219/67/239 216/67/238 116/67/240 160/67/241
f 222/67/171 221/67/242 220/67/237 223/67/243
f 223/67/243 220/67/237 219/67/244 224/67/245
f 224/67/246 219/67/244 160/67/247 113/67/248
f 203/67/249 222/67/192 223/67/243 202/67/194
f 202/67/194 223/67/243 224/67/245 201/67/200
f 201/67/250 224/67/246 113/67/251 157/67/252
f 189/67/253 146/67/144 230/67/254 225/67/255
f 146/67/144 190/67/149 233/67/256 230/67/257
f 190/67/258 147/67/259 236/67/260 233/67/256
f 147/67/165 191/67/164 239/67/261 236/67/262
f 191/67/156 148/67/155 242/67/263 239/67/264
f 148/67/155 192/67/166 245/67/265 242/67/266
f 192/67/161 145/67/153 248/67/267 245/67/265
f 145/67/153 189/67/152 225/67/255 248/67/268
f 225/67/255 230/67/254 229/67/269 226/67/270
f 226/67/271 229/67/269 228/67/272 227/67/273
f 227/67/274 228/67/275 114/67/202 157/67/201
f 230/67/257 233/67/256 232/67/276 229/67/277
f 229/67/277 232/67/278 231/67/279 228/67/275
f 228/67/280 231/67/279 158/67/281 114/67/202
f 233/67/282 236/67/260 235/67/283 232/67/284
f 232/67/285 235/67/283 234/67/286 231/67/287
f 231/67/287 234/67/288 115/67/289 158/67/290
f 236/67/262 239/67/261 238/67/291 235/67/283
f 235/67/283 238/67/291 237/67/292 234/67/293
f 234/67/293 237/67/294 159/67/226 115/67/289
f 239/67/264 242/67/295 241/67/296 238/67/297
f 238/67/291 241/67/298 240/67/299 237/67/294
f 237/67/294 240/67/300 116/67/234 159/67/301
f 242/67/302 245/67/303 244/67/304 241/67/305
f 241/67/306 244/67/307 243/67/308 240/67/309
f 240/67/310 243/67/308 160/67/241 116/67/311
f 245/67/265 248/67/267 247/67/312 244/67/313
f 244/67/313 247/67/312 246/67/314 243/67/315
f 243/67/308 246/67/316 113/67/251 160/67/247
f 248/67/268 225/67/255 226/67/270 247/67/312
f 247/67/312 226/67/270 227/67/273 246/67/316
f 246/67/316 227/67/273 157/67/252 113/67/317
f 193/67/146 149/67/318 254/67/319 249/67/320
f 149/67/163 196/67/162 257/67/321 254/67/322
f 196/67/323 152/67/158 260/67/324 257/67/325
f 152/67/326 195/67/157 263/67/327 260/67/328
f 195/67/157 151/67/151 266/67/329 263/67/330
f 151/67/151 194/67/160 269/67/331 266/67/332
f 194/67/333 150/67/334 272/67/335 269/67/336
f 150/67/337 193/67/338 249/67/320 272/67/335
f 249/67/339 254/67/340 253/67/341 250/67/342
f 250/67/342 253/67/343 252/67/344 251/67/345
f 251/67/345 252/67/346 137/67/131 181/67/124
f 254/67/347 257/67/321 256/67/348 253/67/343
f 253/67/341 256/67/349 255/67/350 252/67/351
f 252/67/351 255/67/352 184/67/139 137/67/131
f 257/67/325 260/67/328 259/67/353 256/67/354
f 256/67/348 259/67/355 258/67/356 255/67/357
f 255/67/357 258/67/356 140/67/143 184/67/358
f 260/67/328 263/67/327 262/67/359 259/67/355
f 259/67/355 262/67/360 261/67/361 258/67/362
f 258/67/362 261/67/361 183/67/134 140/67/133
f 263/67/327 266/67/332 265/67/363 262/67/359
f 262/67/359 265/67/364 264/67/365 261/67/366
f 261/67/361 264/67/367 139/67/141 183/67/134
f 266/67/329 269/67/331 268/67/368 265/67/364
f 265/67/369 268/67/368 267/67/370 264/67/371
f 264/67/371 267/67/372 182/67/128 139/67/127
f 269/67/336 272/67/373 271/67/374 268/67/375
f 268/67/375 271/67/376 270/67/377 267/67/378
f 267/67/378 270/67/379 138/67/123 182/67/380
f 272/67/381 249/67/320 250/67/342 271/67/382
f 271/67/374 250/67/342 251/67/345 270/67/377
f 270/67/383 251/67/345 181/67/124 138/67/384
f 185/67/125 141/67/385 278/67/386 273/67/387
f 141/67/385 188/67/140 281/67/388 278/67/389
f 188/67/358 144/67/136 284/67/390 281/67/391
f 144/67/136 187/67/392 287/67/393 284/67/394
f 187/67/135 143/67/130 290/67/395 287/67/393
f 143/67/130 186/67/396 293/67/397 290/67/398
f 186/67/137 142/67/126 296/67/399 293/67/400
f 142/67/401 185/67/125 273/67/387 296/67/399
f 273/67/402 278/67/389 277/67/403 274/67/404
f 274/67/404 277/67/405 276/67/406 275/67/407
f 275/67/408 276/67/406 129/67/112 173/67/409
f 278/67/389 281/67/391 280/67/410 277/67/405
f 277/67/405 280/67/410 279/67/411 276/67/406
f 276/67/406 279/67/411 176/67/113 129/67/112
f 281/67/391 284/67/412 283/67/413 280/67/414
f 280/67/410 283/67/415 282/67/416 279/67/417
f 279/67/417 282/67/418 132/67/419 176/67/119
f 284/67/394 287/67/393 286/67/420 283/67/413
f 283/67/413 286/67/420 285/67/421 282/67/418
f 282/67/422 285/67/421 175/67/116 132/67/423
f 287/67/393 290/67/398 289/67/424 286/67/425
f 286/67/420 289/67/426 288/67/427 285/67/428
f 285/67/429 288/67/430 131/67/431 175/67/116
f 290/67/398 293/67/432 292/67/433 289/67/426
f 289/67/434 292/67/435 291/67/436 288/67/437
f 288/67/427 291/67/436 174/67/99 131/67/98
f 293/67/400 296/67/399 295/67/438 292/67/435
f 292/67/439 295/67/440 294/67/441 291/67/442
f 291/67/443 294/67/444 130/67/94 174/67/109
f 296/67/399 273/67/445 274/67/404 295/67/440
f 295/67/438 274/67/404 275/67/407 294/67/441
f 294/67/441 275/67/446 173/67/95 130/67/447
f 177/67/448 133/67/449 302/67/450 297/67/451
f 133/67/115 180/67/114 305/67/452 302/67/450
f 180/67/122 136/67/108 308/67/453 305/67/454
f 136/67/455 179/67/107 311/67/456 308/67/457
f 179/67/107 135/67/118 314/67/458 311/67/456
f 135/67/101 178/67/100 317/67/459 314/67/460
f 178/67/111 134/67/461 320/67/462 317/67/463
f 134/67/464 177/67/96 297/67/451 320/67/465
f 297/67/466 302/67/467 301/67/468 298/67/469
f 298/67/470 301/67/471 300/67/472 299/67/473
f 299/67/473 300/67/472 121/67/474 165/67/475
f 302/67/450 305/67/452 304/67/476 301/67/471
f 301/67/468 304/67/476 303/67/477 300/67/478
f 300/67/479 303/67/477 168/67/85 121/67/474
f 305/67/454 308/67/453 307/67/480 304/67/481
f 304/67/482 307/67/483 306/67/484 303/67/477
f 303/67/477 306/67/484 124/67/76 168/67/92
f 308/67/453 311/67/456 310/67/485 307/67/483
f 307/67/486 310/67/485 309/67/487 306/67/488
f 306/67/488 309/67/489 167/67/77 124/67/76
f 311/67/456 314/67/460 313/67/490 310/67/485
f 310/67/485 313/67/491 312/67/492 309/67/493
f 309/67/489 312/67/494 123/67/68 167/67/88
f 314/67/460 317/67/459 316/67/495 313/67/491
f 313/67/490 316/67/495 315/67/496 312/67/497
f 312/67/497 315/67/498 166/67/69 123/67/89
f 317/67/463 320/67/462 319/67/499 316/67/500
f 316/67/495 319/67/499 318/67/501 315/67/498
f 315/67/498 318/67/501 122/67/502 166/67/80
f 320/67/462 297/67/466 298/67/470 319/67/503
f 319/67/499 298/67/470 299/67/473 318/67/504
f 318/67/505 299/67/473 165/67/506 122/67/64
f 169/67/75 125/67/87 326/67/507 321/67/508
f 125/67/87 172/67/86 329/67/509 326/67/510
f 172/67/511 128/67/79 332/67/512 329/67/513
f 128/67/79 171/67/78 335/67/514 332/67/515
f 171/67/91 127/67/90 338/67/516 335/67/517
f 127/67/71 170/67/70 341/67/518 338/67/516
f 170/67/83 126/67/519 344/67/520 341/67/518
f 126/67/519 169/67/66 321/67/521 344/67/520
f 321/67/522 326/67/507 325/67/523 322/67/524
f 322/67/525 325/67/523 324/67/526 323/67/527
f 323/67/527 324/67/528 117/67/529 161/67/530
f 326/67/510 329/67/513 328/67/531 325/67/532
f 325/67/532 328/67/531 327/67/533 324/67/528
f 324/67/534 327/67/533 164/67/535 117/67/536
f 329/67/513 332/67/512 331/67/537 328/67/531
f 328/67/538 331/67/539 330/67/540 327/67/533
f 327/67/533 330/67/540 120/67/541 164/67/535
f 332/67/515 335/67/542 334/67/543 331/67/539
f 331/67/539 334/67/544 333/67/545 330/67/540
f 330/67/546 333/67/547 163/67/548 120/67/549
f 335/67/517 338/67/516 337/67/550 334/67/551
f 334/67/551 337/67/552 336/67/553 333/67/545
f 333/67/545 336/67/554 119/67/555 163/67/556
f 338/67/516 341/67/518 340/67/557 337/67/558
f 337/67/550 340/67/557 339/67/559 336/67/560
f 336/67/560 339/67/559 162/67/561 119/67/555
f 341/67/518 344/67/520 343/67/562 340/67/563
f 340/67/557 343/67/564 342/67/565 339/67/559
f 339/67/559 342/67/565 118/67/566 162/67/567
f 344/67/568 321/67/521 322/67/569 343/67/564
f 343/67/570 322/67/569 323/67/571 342/67/572
f 342/67/565 323/67/571 161/67/573 118/67/574
s 1
f 120/67/541 163/67/548 51/46/38 50/45/575
f 163/67/548 119/67/576 52/60/52 51/46/38
f 119/67/576 162/67/561 53/61/53 52/60/52
f 162/67/561 118/67/574 54/62/54 53/61/53
f 118/67/574 161/67/577 55/63/55 54/62/54
f 161/67/577 117/67/536 56/64/56 55/63/55
f 117/67/536 164/67/535 49/59/51 56/64/56
f 164/67/535 120/67/541 50/45/575 49/59/51
f 153/67/168 197/67/578 107/46/38 106/45/575
f 197/67/578 154/67/579 108/60/52 107/46/38
f 154/67/579 198/67/182 109/61/53 108/60/52
f 198/67/182 155/67/180 110/62/54 109/61/53
f 155/67/180 199/67/177 111/63/63 110/62/54
f 199/67/177 156/67/173 112/64/56 111/63/63
f 156/67/173 200/67/172 105/59/51 112/64/56
f 200/67/172 153/67/168 106/45/575 105/59/51
