# Blender 5.0.1
# www.blender.org
mtllib Wire_Head_Black(oA-Motor_A).mtl
o Wire_Head_Black(oA-Motor_A)
v -0.032070 0.097052 0.249517
v -0.029950 0.096174 0.249517
v -0.032070 0.097052 0.240313
v -0.029950 0.096174 0.240313
v -0.029950 0.096257 0.240115
v -0.027829 0.097052 0.240313
v -0.027829 0.097052 0.249517
v -0.026951 0.099172 0.249517
v -0.026951 0.099172 0.240313
v -0.027035 0.099172 0.240115
v -0.027829 0.101293 0.240313
v -0.027889 0.101234 0.240115
v -0.027829 0.101293 0.249517
v -0.029950 0.102171 0.249517
v -0.029950 0.102171 0.240313
v -0.029950 0.102088 0.240115
v -0.032070 0.101293 0.240313
v -0.032011 0.101234 0.240115
v -0.032070 0.101293 0.249517
v -0.032949 0.099172 0.249517
v -0.032949 0.099172 0.240313
v -0.032865 0.099172 0.240115
v -0.032011 0.097111 0.240115
v -0.031868 0.097254 0.240033
v -0.031680 0.097442 0.240033
v -0.031538 0.097585 0.240115
v -0.029950 0.096725 0.240033
v -0.029950 0.096927 0.240115
v -0.029950 0.096459 0.240033
v -0.028031 0.097254 0.240033
v -0.027889 0.097111 0.240115
v -0.028219 0.097442 0.240033
v -0.028362 0.097585 0.240115
v -0.027503 0.099172 0.240033
v -0.027705 0.099172 0.240115
v -0.027237 0.099172 0.240033
v -0.028031 0.101091 0.240033
v -0.028219 0.100903 0.240033
v -0.028362 0.100760 0.240115
v -0.029950 0.101620 0.240033
v -0.029950 0.101418 0.240115
v -0.029950 0.101886 0.240033
v -0.031868 0.101091 0.240033
v -0.031680 0.100903 0.240033
v -0.031538 0.100760 0.240115
v -0.032397 0.099172 0.240033
v -0.032195 0.099172 0.240115
v -0.032663 0.099172 0.240033
v -0.032112 0.099172 0.240313
v -0.031478 0.097644 0.240313
v -0.029950 0.097011 0.240313
v -0.028421 0.097644 0.240313
v -0.027788 0.099172 0.240313
v -0.028421 0.100701 0.240313
v -0.029950 0.101334 0.240313
v -0.031478 0.100701 0.240313
v -0.110824 0.016621 0.249517
v -0.108704 0.015743 0.249517
v -0.110824 0.016621 0.240313
v -0.108704 0.015743 0.240313
v -0.108704 0.015827 0.240115
v -0.106583 0.016621 0.240313
v -0.106583 0.016621 0.249517
v -0.105705 0.018742 0.249517
v -0.105705 0.018742 0.240313
v -0.105789 0.018742 0.240115
v -0.106583 0.020862 0.240313
v -0.106642 0.020803 0.240115
v -0.106583 0.020862 0.249517
v -0.108704 0.021741 0.249517
v -0.108704 0.021741 0.240313
v -0.108704 0.021657 0.240115
v -0.110824 0.020862 0.240313
v -0.110765 0.020803 0.240115
v -0.110824 0.020862 0.249517
v -0.111703 0.018742 0.249517
v -0.111703 0.018742 0.240313
v -0.111619 0.018742 0.240115
v -0.110765 0.016681 0.240115
v -0.110622 0.016823 0.240033
v -0.110434 0.017011 0.240033
v -0.110291 0.017154 0.240115
v -0.108704 0.016295 0.240033
v -0.108704 0.016497 0.240115
v -0.108704 0.016029 0.240033
v -0.106785 0.016823 0.240033
v -0.106642 0.016681 0.240115
v -0.106973 0.017011 0.240033
v -0.107116 0.017154 0.240115
v -0.106256 0.018742 0.240033
v -0.106458 0.018742 0.240115
v -0.105991 0.018742 0.240033
v -0.106785 0.020660 0.240033
v -0.106973 0.020473 0.240033
v -0.107116 0.020330 0.240115
v -0.108704 0.021189 0.240033
v -0.108704 0.020987 0.240115
v -0.108704 0.021455 0.240033
v -0.110622 0.020660 0.240033
v -0.110434 0.020473 0.240033
v -0.110291 0.020330 0.240115
v -0.111151 0.018742 0.240033
v -0.110949 0.018742 0.240115
v -0.111417 0.018742 0.240033
v -0.110865 0.018742 0.240313
v -0.110232 0.017213 0.240313
v -0.108704 0.016580 0.240313
v -0.107175 0.017213 0.240313
v -0.106542 0.018742 0.240313
v -0.107175 0.020271 0.240313
v -0.108704 0.020904 0.240313
v -0.110232 0.020271 0.240313
v -0.031320 0.097793 0.238038
v -0.028579 0.097793 0.237996
v -0.028579 0.100552 0.237996
v -0.031320 0.100552 0.238038
v -0.036091 0.097731 0.233108
v -0.036049 0.097731 0.230243
v -0.036049 0.100613 0.230243
v -0.036091 0.100613 0.233108
v -0.048288 0.097740 0.233116
v -0.048288 0.097740 0.230234
v -0.048331 0.100605 0.230234
v -0.048331 0.100605 0.233116
v -0.052997 0.092801 0.233116
v -0.052997 0.092801 0.230234
v -0.055862 0.092844 0.230234
v -0.055862 0.092844 0.233116
v -0.052997 0.025071 0.233116
v -0.052997 0.025071 0.230234
v -0.055862 0.025113 0.230234
v -0.055862 0.025113 0.233116
v -0.060671 0.017310 0.233116
v -0.060671 0.017310 0.230234
v -0.060713 0.020174 0.230234
v -0.060713 0.020174 0.233116
v -0.102420 0.017301 0.233108
v -0.102463 0.017301 0.230243
v -0.102463 0.020183 0.230243
v -0.102420 0.020183 0.233108
v -0.107333 0.017363 0.238038
v -0.110074 0.017363 0.237996
v -0.110074 0.020121 0.237996
v -0.107333 0.020121 0.238038
v -0.029950 0.097274 0.238040
v -0.028064 0.099172 0.238011
v -0.029950 0.101070 0.238040
v -0.031836 0.099172 0.238070
v -0.036070 0.097191 0.231675
v -0.036041 0.099172 0.229706
v -0.036070 0.101154 0.231675
v -0.036099 0.099172 0.233645
v -0.048280 0.097203 0.231675
v -0.048309 0.099172 0.229694
v -0.048339 0.101142 0.231675
v -0.048309 0.099172 0.233657
v -0.052460 0.092793 0.231675
v -0.054429 0.092823 0.229694
v -0.056399 0.092852 0.231675
v -0.054429 0.092823 0.233657
v -0.052460 0.025063 0.231675
v -0.054429 0.025092 0.229694
v -0.056399 0.025121 0.231675
v -0.054429 0.025092 0.233657
v -0.060663 0.016773 0.231675
v -0.060692 0.018742 0.229694
v -0.060721 0.020711 0.231675
v -0.060692 0.018742 0.233657
v -0.102441 0.016761 0.231675
v -0.102471 0.018742 0.229706
v -0.102441 0.020723 0.231675
v -0.102412 0.018742 0.233645
v -0.108704 0.016844 0.238040
v -0.110590 0.018742 0.238011
v -0.108704 0.020640 0.238040
v -0.106818 0.018742 0.238070
v -0.105885 0.016781 0.231880
v -0.107743 0.016802 0.232688
v -0.108514 0.016823 0.234581
v -0.105551 0.017316 0.233257
v -0.106734 0.017332 0.233661
v -0.107158 0.017347 0.234869
v -0.105433 0.018742 0.233776
v -0.106366 0.018742 0.234038
v -0.106654 0.018742 0.235001
v -0.105551 0.020168 0.233257
v -0.106734 0.020152 0.233661
v -0.107158 0.020137 0.234869
v -0.105885 0.020702 0.231880
v -0.107743 0.020682 0.232688
v -0.108514 0.020661 0.234581
v -0.106209 0.020168 0.230501
v -0.108736 0.020152 0.231699
v -0.109862 0.020137 0.234259
v -0.106338 0.018742 0.229985
v -0.109120 0.018742 0.231339
v -0.110374 0.018742 0.234161
v -0.109862 0.017347 0.234259
v -0.108736 0.017332 0.231699
v -0.106209 0.017316 0.230501
v -0.052698 0.021203 0.231675
v -0.053987 0.018370 0.231675
v -0.056794 0.017030 0.231675
v -0.053222 0.021321 0.233116
v -0.054370 0.018746 0.233116
v -0.056918 0.017552 0.233116
v -0.054619 0.021636 0.233657
v -0.055393 0.019749 0.233657
v -0.057250 0.018946 0.233657
v -0.056017 0.021952 0.233116
v -0.056415 0.020752 0.233116
v -0.057582 0.020339 0.233116
v -0.056541 0.022070 0.231675
v -0.056799 0.021128 0.231675
v -0.057706 0.020862 0.231675
v -0.056017 0.021952 0.230234
v -0.056415 0.020752 0.230234
v -0.057582 0.020339 0.230234
v -0.054619 0.021636 0.229694
v -0.055393 0.019749 0.229694
v -0.057250 0.018946 0.229694
v -0.056918 0.017552 0.230234
v -0.054370 0.018746 0.230234
v -0.053222 0.021321 0.230234
v -0.051227 0.097049 0.231675
v -0.052085 0.096785 0.231675
v -0.052327 0.095836 0.231675
v -0.051356 0.097570 0.233116
v -0.052474 0.097155 0.233116
v -0.052853 0.095949 0.233116
v -0.051701 0.098960 0.233657
v -0.053513 0.098141 0.233657
v -0.054253 0.096251 0.233657
v -0.052047 0.100350 0.233116
v -0.054552 0.099128 0.233116
v -0.055653 0.096552 0.233116
v -0.052176 0.100871 0.231675
v -0.054941 0.099498 0.231675
v -0.056178 0.096665 0.231675
v -0.052047 0.100350 0.230234
v -0.054552 0.099128 0.230234
v -0.055653 0.096552 0.230234
v -0.051701 0.098960 0.229694
v -0.053513 0.098141 0.229694
v -0.054253 0.096251 0.229694
v -0.052853 0.095949 0.230234
v -0.052474 0.097155 0.230234
v -0.051356 0.097570 0.230234
v -0.030126 0.097254 0.234609
v -0.030864 0.097233 0.232713
v -0.032675 0.097212 0.231889
v -0.031485 0.097778 0.234884
v -0.031888 0.097762 0.233669
v -0.033023 0.097747 0.233263
v -0.031991 0.099172 0.235011
v -0.032262 0.099172 0.234040
v -0.033146 0.099172 0.233780
v -0.031485 0.100567 0.234884
v -0.031888 0.100583 0.233669
v -0.033023 0.100598 0.233263
v -0.030126 0.101091 0.234609
v -0.030864 0.101112 0.232713
v -0.032675 0.101133 0.231889
v -0.028775 0.100567 0.234300
v -0.029855 0.100583 0.231740
v -0.032339 0.100598 0.230513
v -0.028262 0.099172 0.234207
v -0.029465 0.099172 0.231386
v -0.032205 0.099172 0.229998
v -0.032339 0.097747 0.230513
v -0.029855 0.097762 0.231740
v -0.028775 0.097778 0.234300
vn -0.5349 -0.5349 -0.6540
vn -0.0000 -0.7565 -0.6540
vn -0.0000 -1.0000 -0.0080
vn -0.7071 -0.7071 -0.0080
vn 0.5349 -0.5349 -0.6540
vn 0.7071 -0.7071 -0.0080
vn 0.7071 -0.7071 -0.0000
vn -0.0000 -1.0000 -0.0000
vn 0.5349 0.5349 -0.6540
vn 0.7071 0.7071 -0.0080
vn 1.0000 -0.0000 -0.0080
vn 0.7565 -0.0000 -0.6540
vn -0.5349 0.5349 -0.6540
vn -0.7071 0.7071 -0.0080
vn -0.0000 1.0000 -0.0080
vn -0.0000 0.7565 -0.6540
vn 0.7071 0.7071 -0.0000
vn 1.0000 -0.0000 -0.0000
vn 0.1203 -0.0000 -0.9927
vn 0.0851 0.0851 -0.9927
vn -0.1612 -0.1612 -0.9737
vn -0.2280 -0.0000 -0.9737
vn 0.1612 -0.1612 -0.9737
vn 0.2280 -0.0000 -0.9737
vn -1.0000 -0.0000 -0.0000
vn -0.7071 0.7071 -0.0000
vn -1.0000 -0.0000 -0.0080
vn -0.0000 1.0000 -0.0000
vn 0.1612 0.1612 -0.9737
vn -0.0000 0.2280 -0.9737
vn -0.7565 -0.0000 -0.6540
vn -0.7071 -0.7071 -0.0000
vn -0.0000 0.6443 -0.7648
vn -0.0000 0.1203 -0.9927
vn 0.4556 0.4556 -0.7648
vn -0.0000 -0.2280 -0.9737
vn -0.6979 -0.6959 -0.1691
vn 0.0013 -0.9865 -0.1636
vn -0.1612 0.1612 -0.9737
vn -0.6443 -0.0000 -0.7648
vn -0.1203 -0.0000 -0.9927
vn -0.0851 0.0851 -0.9927
vn -0.4556 0.4556 -0.7648
vn -0.0000 -0.6443 -0.7648
vn -0.0000 -0.1203 -0.9927
vn -0.0851 -0.0851 -0.9927
vn -0.4556 -0.4556 -0.7648
vn 0.6443 -0.0000 -0.7648
vn 0.0851 -0.0851 -0.9927
vn 0.4556 -0.4556 -0.7648
vn -0.9855 -0.0000 -0.1695
vn 0.6997 -0.6948 -0.1662
vn 0.9862 -0.0000 -0.1655
vn 0.6997 0.6948 -0.1662
vn 0.0013 0.9865 -0.1637
vn -0.6979 0.6959 -0.1691
vn 1.0000 0.0001 -0.0080
vn -0.0001 1.0000 -0.0080
vn -0.2279 -0.0000 -0.9737
vn -0.7564 -0.0000 -0.6541
vn 0.4556 0.4556 -0.7647
vn -0.6997 -0.6948 -0.1662
vn -0.0013 -0.9865 -0.1637
vn -0.0000 -0.6443 -0.7647
vn -0.4556 -0.4556 -0.7647
vn 0.4556 -0.4556 -0.7647
vn -0.9862 -0.0000 -0.1655
vn 0.6979 -0.6959 -0.1691
vn 0.9855 -0.0000 -0.1695
vn 0.6979 0.6959 -0.1691
vn -0.0013 0.9865 -0.1637
vn -0.6997 0.6948 -0.1662
vn 0.0127 -0.7007 -0.7134
vn 0.0014 -1.0000 -0.0090
vn 0.0101 -0.9999 -0.0003
vn 0.0078 -0.7027 -0.7115
vn 0.0127 0.7009 -0.7131
vn 0.0180 0.0003 -0.9998
vn -0.0001 0.0091 -1.0000
vn -0.0114 0.7132 -0.7008
vn 0.0014 -1.0000 -0.0089
vn -0.0065 -0.7111 0.7030
vn 0.0079 -0.7029 0.7112
vn 0.0102 -0.9999 -0.0002
vn -0.0065 0.7114 0.7027
vn 0.0014 1.0000 -0.0088
vn -0.0168 0.9999 -0.0002
vn -0.0114 0.7136 0.7005
vn 0.0181 0.0002 -0.9998
vn 0.0127 -0.7006 -0.7135
vn 0.0079 -0.7026 -0.7115
vn -0.0001 0.0090 -1.0000
vn -0.0065 -0.7111 0.7031
vn -0.0088 0.0002 1.0000
vn -0.0001 0.0090 1.0000
vn 0.0014 1.0000 -0.0089
vn 0.0126 0.7010 -0.7131
vn -0.0114 0.7133 -0.7008
vn -0.0168 0.9999 -0.0003
vn -0.0088 0.0003 1.0000
vn -0.0064 0.7114 0.7027
vn -0.0114 0.7135 0.7005
vn -0.0001 0.0091 1.0000
vn 0.7069 -0.0015 -0.7073
vn 1.0000 -0.0020 -0.0000
vn 1.0000 -0.0032 -0.0001
vn 0.7120 -0.0022 -0.7022
vn -0.7119 0.0021 -0.7023
vn -0.0044 0.0001 -1.0000
vn 0.0044 -0.0001 -1.0000
vn -0.7068 0.0016 -0.7074
vn 1.0000 -0.0020 0.0001
vn 0.7069 -0.0015 0.7073
vn 0.7120 -0.0022 0.7022
vn 1.0000 -0.0032 0.0001
vn -0.7119 0.0021 0.7022
vn -1.0000 0.0030 -0.0000
vn -1.0000 0.0021 -0.0000
vn -0.7069 0.0015 0.7073
vn -0.0043 0.0001 -1.0000
vn 0.7069 -0.0014 -0.7073
vn 0.7119 -0.0022 -0.7022
vn -0.0043 0.0001 1.0000
vn 0.0044 -0.0001 1.0000
vn 0.7119 -0.0023 0.7022
vn -1.0000 0.0029 -0.0000
vn -0.7069 0.0015 -0.7073
vn -0.7119 0.0021 0.7023
vn -0.7068 0.0016 0.7074
vn 0.0038 -0.7105 -0.7037
vn 0.0056 -1.0000 -0.0002
vn -0.0005 -1.0000 -0.0052
vn -0.0042 -0.7038 -0.7104
vn -0.0026 0.7043 -0.7099
vn -0.0000 -0.0052 -1.0000
vn -0.0061 -0.0001 -1.0000
vn -0.0043 0.7036 -0.7106
vn 0.0057 -1.0000 -0.0001
vn 0.0038 -0.7106 0.7036
vn 0.0021 -0.7098 0.7044
vn -0.0004 -1.0000 -0.0051
vn -0.0026 0.7045 0.7097
vn -0.0033 1.0000 -0.0000
vn -0.0004 1.0000 -0.0051
vn 0.0021 0.7097 0.7045
vn 0.0038 -0.7104 -0.7038
vn -0.0043 -0.7037 -0.7104
vn -0.0000 -0.0052 1.0000
vn 0.0029 -0.0001 1.0000
vn -0.0033 1.0000 -0.0001
vn -0.0026 0.7044 -0.7098
vn -0.0042 0.7037 -0.7105
vn -0.0005 1.0000 -0.0052
vn -0.0026 0.7044 0.7098
vn 0.0029 -0.0000 1.0000
vn -0.7180 -0.6930 -0.0653
vn -0.9971 -0.0001 -0.0759
vn -0.9777 -0.0000 -0.2098
vn -0.7359 -0.6591 -0.1550
vn -0.9971 0.0001 -0.0759
vn -0.7180 0.6930 -0.0653
vn -0.7359 0.6591 -0.1550
vn -0.0166 0.9990 -0.0418
vn -0.0719 0.9973 -0.0133
vn -0.7358 0.6592 -0.1551
vn -0.0165 0.9990 -0.0417
vn 0.7003 0.7135 -0.0228
vn 0.6611 0.7441 0.0960
vn -0.0718 0.9973 -0.0133
vn 0.9999 -0.0000 -0.0173
vn 0.9923 -0.0000 0.1240
vn 0.6612 0.7440 0.0961
vn 0.7003 -0.7135 -0.0228
vn 0.6612 -0.7441 0.0961
vn -0.0165 -0.9990 -0.0418
vn -0.0718 -0.9973 -0.0133
vn 0.6611 -0.7441 0.0961
vn -0.0166 -0.9990 -0.0418
vn -0.7359 -0.6592 -0.1550
vn -0.0719 -0.9973 -0.0133
vn -0.1121 -0.9889 -0.0970
vn 0.3967 -0.8213 0.4100
vn -0.1121 -0.9889 -0.0971
vn -0.0291 -0.9971 -0.0705
vn 0.0806 -0.7446 0.6627
vn 0.0807 -0.7446 0.6627
vn -0.0005 -1.0000 -0.0051
vn 0.9923 -0.0001 0.1240
vn 0.6612 -0.7441 0.0960
vn 0.3966 -0.8213 0.4100
vn 0.7047 -0.0000 0.7095
vn 0.7048 -0.0000 0.7095
vn 0.3968 -0.8213 0.4099
vn 0.1105 -0.0001 0.9939
vn 0.1105 -0.0000 0.9939
vn 0.0806 -0.7445 0.6627
vn 0.6612 0.7441 0.0961
vn 0.3967 0.8213 0.4100
vn 0.3967 0.8213 0.4099
vn 0.1105 0.0001 0.9939
vn 0.0807 0.7445 0.6627
vn 0.0806 0.7445 0.6627
vn 0.6611 0.7441 0.0961
vn -0.1121 0.9890 -0.0970
vn -0.1121 0.9889 -0.0970
vn 0.0807 0.7446 0.6627
vn -0.0291 0.9971 -0.0705
vn -0.0005 1.0000 -0.0051
vn -0.7358 0.6592 -0.1550
vn -0.0719 0.9973 -0.0134
vn -0.1122 0.9889 -0.0970
vn -0.5582 0.6287 -0.5415
vn -0.1121 0.9889 -0.0971
vn -0.1727 0.6586 -0.7324
vn -0.0290 0.9971 -0.0706
vn -0.0043 0.7037 -0.7105
vn -0.9777 -0.0000 -0.2099
vn -0.7183 -0.0000 -0.6958
vn -0.7182 -0.0000 -0.6958
vn -0.2316 -0.0000 -0.9728
vn -0.0043 0.7036 -0.7105
vn -0.7359 -0.6591 -0.1551
vn -0.5582 -0.6287 -0.5414
vn -0.5582 -0.6287 -0.5415
vn -0.1727 -0.6586 -0.7324
vn -0.0719 -0.9973 -0.0134
vn -0.7358 -0.6592 -0.1550
vn -0.1122 -0.9889 -0.0970
vn -0.0290 -0.9971 -0.0706
vn -0.0043 -0.7038 -0.7104
vn 0.0222 -0.0732 -0.9971
vn 0.1679 -0.7341 -0.6579
vn -0.0893 0.6601 -0.7459
vn 0.0222 -0.0731 -0.9971
vn -0.0034 1.0000 -0.0001
vn -0.1187 0.9929 -0.0000
vn -0.0893 0.6601 -0.7458
vn -0.0034 1.0000 -0.0000
vn -0.0893 0.6601 0.7458
vn 0.0222 -0.0731 0.9971
vn -0.0893 0.6601 0.7459
vn 0.1679 -0.7341 0.6579
vn 0.0222 -0.0732 0.9971
vn 0.2267 -0.9740 -0.0000
vn 0.0056 -1.0000 -0.0001
vn 0.7138 -0.7003 -0.0000
vn 0.5555 -0.5448 0.6282
vn 0.7139 -0.7003 -0.0000
vn 0.9763 -0.2165 0.0001
vn 0.7347 -0.1600 0.6592
vn 0.9763 -0.2165 -0.0000
vn 0.7120 -0.0023 0.7022
vn 0.1679 -0.7341 0.6580
vn 0.1064 -0.1046 0.9888
vn 0.1064 -0.1045 0.9888
vn 0.7347 -0.1600 0.6593
vn 0.0708 -0.0208 0.9973
vn -0.4071 0.3953 0.8234
vn 0.0707 -0.0208 0.9973
vn -0.6628 0.0846 0.7440
vn -0.1187 0.9929 0.0001
vn -0.7185 0.6956 -0.0000
vn -0.7184 0.6956 -0.0000
vn -0.4070 0.3954 0.8234
vn -0.6629 0.0846 0.7439
vn -0.9937 0.1121 -0.0000
vn -0.7069 0.0016 0.7073
vn -0.1187 0.9929 -0.0001
vn -0.4071 0.3953 -0.8234
vn -0.4071 0.3954 -0.8234
vn -0.6629 0.0846 -0.7439
vn -0.7069 0.0016 -0.7073
vn 0.1064 -0.1045 -0.9888
vn 0.1064 -0.1046 -0.9888
vn -0.6628 0.0847 -0.7440
vn 0.0707 -0.0208 -0.9973
vn -0.6628 0.0846 -0.7440
vn 0.5555 -0.5448 -0.6282
vn 0.0708 -0.0208 -0.9973
vn 0.7347 -0.1599 -0.6593
vn 0.7347 -0.1600 -0.6592
vn 0.7119 -0.0023 -0.7022
vn 0.2268 -0.9740 -0.0000
vn 0.1679 -0.7342 -0.6579
vn 0.5555 -0.5448 -0.6281
vn 0.9763 -0.2166 -0.0000
vn 0.7120 -0.0023 -0.7022
vn 0.7069 -0.0014 -0.7074
vn -0.0690 0.0199 -0.9974
vn 0.6648 -0.0802 -0.7427
vn -0.7352 0.1537 -0.6602
vn -0.0691 0.0198 -0.9974
vn -0.7119 0.0021 -0.7022
vn -0.9780 0.2084 -0.0000
vn -0.7352 0.1538 -0.6602
vn -0.7352 0.1537 0.6602
vn -0.0044 0.0001 1.0000
vn -0.0691 0.0198 0.9974
vn -0.7352 0.1538 0.6602
vn 0.7069 -0.0014 0.7073
vn 0.6648 -0.0802 0.7427
vn 0.9944 -0.1057 -0.0000
vn 0.6649 -0.0802 0.7426
vn 0.6649 -0.0802 -0.7426
vn 0.6648 -0.0803 0.7427
vn 0.7370 -0.6758 -0.0000
vn 0.4157 -0.3844 0.8243
vn 0.7371 -0.6758 -0.0000
vn 0.1231 -0.9924 -0.0000
vn 0.0925 -0.6575 0.7478
vn 0.1231 -0.9924 0.0001
vn -0.1084 0.1034 0.9887
vn 0.0925 -0.6574 0.7478
vn -0.0236 0.0755 0.9969
vn -0.0691 0.0199 0.9974
vn -0.5643 0.5360 0.6279
vn -0.1747 0.7337 0.6566
vn -0.1748 0.7337 0.6566
vn -0.7249 0.6889 -0.0000
vn -0.7248 0.6889 -0.0000
vn -0.2356 0.9719 -0.0000
vn -0.2355 0.9719 -0.0000
vn -0.5643 0.5360 -0.6279
vn -0.1748 0.7337 -0.6566
vn -0.1747 0.7337 -0.6566
vn -0.0691 0.0199 -0.9974
vn -0.1084 0.1034 -0.9887
vn -0.0236 0.0755 -0.9969
vn 0.6648 -0.0803 -0.7427
vn -0.1083 0.1035 -0.9887
vn 0.4157 -0.3844 -0.8243
vn 0.0926 -0.6574 -0.7478
vn 0.0925 -0.6575 -0.7478
vn 0.6649 -0.0803 -0.7427
vn 0.0926 -0.6575 -0.7478
vn 0.0925 -0.6575 -0.7477
vn 0.0102 -0.9999 -0.0003
vn 0.0127 -0.7006 -0.7134
vn 0.2404 -0.0000 -0.9707
vn 0.1796 -0.6573 -0.7319
vn 0.0181 0.0003 -0.9998
vn 0.1796 0.6573 -0.7319
vn 0.0305 0.9969 -0.0728
vn -0.0065 0.7115 0.7027
vn -0.0838 0.7464 0.6602
vn 0.0304 0.9969 -0.0728
vn -0.0065 0.7114 0.7028
vn -0.1147 0.0001 0.9934
vn -0.0837 0.7464 0.6602
vn -0.0838 -0.7464 0.6602
vn -0.1147 -0.0001 0.9934
vn 0.0305 -0.9969 -0.0727
vn -0.0837 -0.7464 0.6602
vn 0.0305 -0.9969 -0.0728
vn 0.1141 -0.9888 -0.0958
vn -0.4054 -0.8222 0.3995
vn -0.4054 -0.8223 0.3994
vn 0.0702 -0.9975 -0.0122
vn -0.6632 -0.7428 0.0917
vn 0.0701 -0.9975 -0.0122
vn 0.0157 -0.9990 -0.0418
vn -0.7006 -0.7131 -0.0242
vn -0.1148 -0.0000 0.9934
vn -0.7232 -0.0000 0.6906
vn -0.7232 -0.0000 0.6907
vn -0.6633 -0.7427 0.0917
vn -0.9931 -0.0000 0.1176
vn -0.9931 -0.0001 0.1176
vn -0.7007 -0.7131 -0.0242
vn -0.9998 -0.0000 -0.0192
vn -0.4054 0.8222 0.3995
vn -0.4053 0.8223 0.3995
vn -0.6632 0.7428 0.0917
vn -0.6633 0.7427 0.0916
vn -0.9931 0.0001 0.1176
vn -0.7007 0.7131 -0.0242
vn -0.4054 0.8223 0.3995
vn 0.1140 0.9888 -0.0958
vn 0.1141 0.9888 -0.0958
vn -0.4054 0.8223 0.3994
vn 0.0701 0.9975 -0.0123
vn -0.7006 0.7131 -0.0242
vn 0.0157 0.9990 -0.0418
vn 0.5671 0.6284 -0.5325
vn 0.0702 0.9975 -0.0123
vn 0.7363 0.6601 -0.1487
vn 0.7364 0.6601 -0.1486
vn 0.7175 0.6937 -0.0638
vn 0.2405 -0.0000 -0.9707
vn 0.7292 -0.0000 -0.6843
vn 0.5670 0.6284 -0.5325
vn 0.9795 -0.0000 -0.2017
vn 0.7364 0.6600 -0.1487
vn 0.7175 0.6936 -0.0638
vn 0.9973 0.0001 -0.0737
vn 0.5670 -0.6284 -0.5326
vn 0.7292 -0.0000 -0.6842
vn 0.9795 -0.0000 -0.2016
vn 0.7364 -0.6601 -0.1487
vn 0.9973 -0.0001 -0.0738
vn 0.7175 -0.6936 -0.0638
vn 0.5671 -0.6284 -0.5325
vn 0.7364 -0.6601 -0.1486
vn 0.0702 -0.9975 -0.0123
vn 0.7363 -0.6601 -0.1487
vn 0.7175 -0.6937 -0.0638
vn -0.7007 -0.7131 -0.0243
vn -0.6979 -0.6959 -0.1690
vn 0.9973 -0.0000 -0.0737
vn 0.0013 0.9865 -0.1636
vn -0.7007 0.7131 -0.0243
vn -0.0013 -0.9865 -0.1636
vn -0.6997 -0.6949 -0.1662
vn 0.7003 -0.7135 -0.0229
vn 0.9998 -0.0000 -0.0173
vn 0.9855 -0.0000 -0.1696
vn 0.7003 0.7135 -0.0229
vn -0.0165 0.9990 -0.0418
vn -0.0013 0.9865 -0.1636
vn -0.9971 -0.0000 -0.0759
vt 0.636322 0.771411
vt 0.587470 0.804750
vt 0.582466 0.801554
vt 0.635177 0.765465
vt 0.576221 0.861411
vt 0.570569 0.862499
vt 0.433500 0.501817
vt 0.495149 0.501817
vt 0.495149 0.744281
vt 0.433500 0.744281
vt 0.667721 0.922223
vt 0.668877 0.928042
vt 0.605422 0.915050
vt 0.608737 0.910132
vt 0.727696 0.832155
vt 0.733433 0.831018
vt 0.721608 0.892773
vt 0.716620 0.889535
vt 0.310201 0.501817
vt 0.371850 0.501817
vt 0.371850 0.744281
vt 0.310201 0.744281
vt 0.687564 0.793554
vt 0.638896 0.784065
vt 0.637511 0.777194
vt 0.691445 0.787669
vt 0.581871 0.860294
vt 0.612010 0.905265
vt 0.125252 0.501817
vt 0.186902 0.501817
vt 0.186902 0.744281
vt 0.125252 0.744281
vt 0.248551 0.501817
vt 0.248551 0.744281
vt 0.666609 0.916401
vt 0.711799 0.886320
vt 0.694675 0.782803
vt 0.697976 0.777719
vt 0.063603 0.501817
vt 0.063603 0.744281
vt 0.602608 0.814790
vt 0.598019 0.811727
vt 0.639988 0.789629
vt 0.592254 0.807905
vt 0.641149 0.795086
vt 0.607213 0.817814
vt 0.722022 0.833305
vt 0.619061 0.894562
vt 0.615915 0.899401
vt 0.588618 0.858968
vt 0.594043 0.857906
vt 0.701466 0.879486
vt 0.706041 0.882519
vt 0.665296 0.909466
vt 0.664231 0.903895
vt 0.684425 0.798269
vt 0.715204 0.834694
vt 0.709684 0.835861
vt 0.681227 0.803114
vt 0.599435 0.856891
vt 0.622123 0.889732
vt 0.663198 0.898415
vt 0.696941 0.876438
vt 0.704000 0.837048
vt 0.001953 0.501817
vt 0.001953 0.744281
vt 0.000000 0.000000
s 1
usemtl Material.002
f 23/1/1 5/2/2 4/3/3 3/4/4
f 31/5/5 6/6/6 4/3/3 5/2/2
f 7/7/7 2/8/8 4/9/3 6/10/6
f 12/11/9 11/12/10 9/13/11 10/14/12
f 18/15/13 17/16/14 15/17/15 16/18/16
f 13/19/17 8/20/18 9/21/11 11/22/10
f 46/23/19 25/24/20 24/25/21 48/26/22
f 30/27/23 36/28/24 10/14/12 31/5/5
f 8/20/18 7/7/7 6/10/6 9/21/11
f 20/29/25 19/30/26 17/31/14 21/32/27
f 19/30/26 14/33/28 15/34/15 17/31/14
f 37/35/29 42/36/30 16/18/16 12/11/9
f 22/37/31 23/1/1 3/4/4 21/38/27
f 48/26/22 24/25/21 23/1/1 22/37/31
f 1/39/32 20/29/25 21/32/27 3/40/4
f 28/41/33 27/42/34 25/24/20 26/43/35
f 14/33/28 13/19/17 11/22/10 15/34/15
f 24/25/21 29/44/36 5/2/2 23/1/1
f 29/44/36 30/27/23 31/5/5 5/2/2
f 25/24/20 27/42/34 29/44/36 24/25/21
f 50/45/37 51/46/38 28/41/33 26/43/35
f 43/47/39 48/26/22 22/37/31 18/15/13
f 35/48/40 34/49/41 32/50/42 33/51/43
f 27/42/34 32/50/42 30/27/23 29/44/36
f 31/5/5 10/14/12 9/13/11 6/6/6
f 36/28/24 37/35/29 12/11/9 10/14/12
f 32/50/42 34/49/41 36/28/24 30/27/23
f 28/41/33 33/51/43 32/50/42 27/42/34
f 41/52/44 40/53/45 38/54/46 39/55/47
f 34/49/41 38/54/46 37/35/29 36/28/24
f 12/11/9 16/18/16 15/17/15 11/12/10
f 42/36/30 43/47/39 18/15/13 16/18/16
f 38/54/46 40/53/45 42/36/30 37/35/29
f 35/48/40 39/55/47 38/54/46 34/49/41
f 47/56/48 46/23/19 44/57/49 45/58/50
f 40/53/45 44/57/49 43/47/39 42/36/30
f 18/15/13 22/37/31 21/38/27 17/16/14
f 49/59/51 50/45/37 26/43/35 47/56/48
f 44/57/49 46/23/19 48/26/22 43/47/39
f 41/52/44 45/58/50 44/57/49 40/53/45
f 47/56/48 26/43/35 25/24/20 46/23/19
f 51/46/38 52/60/52 33/51/43 28/41/33
f 52/60/52 53/61/53 35/48/40 33/51/43
f 53/61/53 54/62/54 39/55/47 35/48/40
f 54/62/54 55/63/55 41/52/44 39/55/47
f 55/63/55 56/64/56 45/58/50 41/52/44
f 56/64/56 49/59/51 47/56/48 45/58/50
f 2/65/8 1/39/32 3/40/4 4/66/3
f 79/1/1 61/2/2 60/3/3 59/4/4
f 87/5/5 62/6/6 60/3/3 61/2/2
f 63/7/7 58/8/8 60/9/3 62/10/6
f 68/11/9 67/12/10 65/13/57 66/14/12
f 74/15/13 73/16/14 71/17/58 72/18/16
f 69/19/17 64/20/18 65/21/57 67/22/10
f 102/23/19 81/24/20 80/25/21 104/26/59
f 86/27/23 92/28/24 66/14/12 87/5/5
f 64/20/18 63/7/7 62/10/6 65/21/57
f 76/29/25 75/30/26 73/31/14 77/32/27
f 75/30/26 70/33/28 71/34/58 73/31/14
f 93/35/29 98/36/30 72/18/16 68/11/9
f 78/37/60 79/1/1 59/4/4 77/38/27
f 104/26/59 80/25/21 79/1/1 78/37/60
f 57/39/32 76/29/25 77/32/27 59/40/4
f 84/41/33 83/42/34 81/24/20 82/43/61
f 70/33/28 69/19/17 67/22/10 71/34/58
f 80/25/21 85/44/36 61/2/2 79/1/1
f 85/44/36 86/27/23 87/5/5 61/2/2
f 81/24/20 83/42/34 85/44/36 80/25/21
f 106/45/62 107/46/63 84/41/33 82/43/61
f 99/47/39 104/26/59 78/37/60 74/15/13
f 91/48/40 90/49/41 88/50/42 89/51/43
f 83/42/34 88/50/42 86/27/23 85/44/36
f 87/5/5 66/14/12 65/13/57 62/6/6
f 92/28/24 93/35/29 68/11/9 66/14/12
f 88/50/42 90/49/41 92/28/24 86/27/23
f 84/41/33 89/51/43 88/50/42 83/42/34
f 97/52/64 96/53/45 94/54/46 95/55/65
f 90/49/41 94/54/46 93/35/29 92/28/24
f 68/11/9 72/18/16 71/17/58 67/12/10
f 98/36/30 99/47/39 74/15/13 72/18/16
f 94/54/46 96/53/45 98/36/30 93/35/29
f 91/48/40 95/55/65 94/54/46 90/49/41
f 103/56/48 102/23/19 100/57/49 101/58/66
f 96/53/45 100/57/49 99/47/39 98/36/30
f 74/15/13 78/37/60 77/38/27 73/16/14
f 105/59/67 106/45/62 82/43/61 103/56/48
f 100/57/49 102/23/19 104/26/59 99/47/39
f 97/52/64 101/58/66 100/57/49 96/53/45
f 103/56/48 82/43/61 81/24/20 102/23/19
f 107/46/63 108/60/68 89/51/43 84/41/33
f 108/60/68 109/61/69 91/48/40 89/51/43
f 109/61/69 110/62/70 95/55/65 91/48/40
f 110/62/70 111/63/71 97/52/64 95/55/65
f 111/63/71 112/64/72 101/58/66 97/52/64
f 112/64/72 105/59/67 103/56/48 101/58/66
f 58/65/8 57/39/32 59/40/4 60/66/3
s 0
f 118/67/73 149/67/74 153/67/75 122/67/76
f 119/67/77 150/67/78 154/67/79 123/67/80
f 149/67/81 117/67/82 121/67/83 153/67/84
f 120/67/85 151/67/86 155/67/87 124/67/88
f 150/67/89 118/67/90 122/67/91 154/67/92
f 117/67/93 152/67/94 156/67/95 121/67/83
f 151/67/96 119/67/97 123/67/98 155/67/99
f 152/67/100 120/67/101 124/67/102 156/67/103
f 126/67/104 157/67/105 161/67/106 130/67/107
f 127/67/108 158/67/109 162/67/110 131/67/111
f 157/67/112 125/67/113 129/67/114 161/67/115
f 128/67/116 159/67/117 163/67/118 132/67/119
f 158/67/120 126/67/121 130/67/122 162/67/110
f 125/67/113 160/67/123 164/67/124 129/67/125
f 159/67/126 127/67/108 131/67/127 163/67/118
f 160/67/123 128/67/128 132/67/129 164/67/124
f 134/67/130 165/67/131 169/67/132 138/67/133
f 135/67/134 166/67/135 170/67/136 139/67/137
f 165/67/138 133/67/139 137/67/140 169/67/141
f 136/67/142 167/67/143 171/67/144 140/67/145
f 166/67/135 134/67/146 138/67/147 170/67/136
f 133/67/139 168/67/148 172/67/149 137/67/140
f 167/67/150 135/67/151 139/67/152 171/67/153
f 168/67/148 136/67/154 140/67/145 172/67/155
f 142/67/156 174/67/157 197/67/158 198/67/159
f 174/67/160 143/67/161 194/67/162 197/67/158
f 143/67/161 175/67/163 191/67/164 194/67/165
f 175/67/166 144/67/167 188/67/168 191/67/169
f 144/67/167 176/67/170 185/67/171 188/67/172
f 176/67/170 141/67/173 182/67/174 185/67/171
f 141/67/173 173/67/175 179/67/176 182/67/177
f 173/67/178 142/67/156 198/67/179 179/67/180
f 182/67/177 179/67/176 178/67/181 181/67/182
f 181/67/182 178/67/183 177/67/184 180/67/185
f 180/67/186 177/67/184 169/67/187 137/67/140
f 185/67/188 182/67/189 181/67/190 184/67/191
f 184/67/192 181/67/193 180/67/186 183/67/194
f 183/67/195 180/67/196 137/67/140 172/67/149
f 188/67/197 185/67/171 184/67/191 187/67/198
f 187/67/199 184/67/192 183/67/200 186/67/201
f 186/67/202 183/67/195 172/67/149 140/67/145
f 191/67/169 188/67/203 187/67/199 190/67/204
f 190/67/205 187/67/198 186/67/206 189/67/207
f 189/67/207 186/67/206 140/67/145 171/67/208
f 194/67/209 191/67/210 190/67/211 193/67/212
f 193/67/212 190/67/213 189/67/207 192/67/214
f 192/67/214 189/67/215 171/67/153 139/67/216
f 197/67/217 194/67/162 193/67/212 196/67/218
f 196/67/219 193/67/212 192/67/214 195/67/220
f 195/67/220 192/67/214 139/67/221 170/67/136
f 198/67/222 197/67/217 196/67/219 199/67/223
f 199/67/224 196/67/219 195/67/220 200/67/225
f 200/67/225 195/67/220 170/67/136 138/67/147
f 179/67/226 198/67/227 199/67/224 178/67/228
f 178/67/181 199/67/224 200/67/225 177/67/184
f 177/67/229 200/67/225 138/67/230 169/67/132
f 134/67/146 166/67/135 221/67/231 222/67/232
f 166/67/135 135/67/134 218/67/233 221/67/234
f 135/67/151 167/67/235 215/67/236 218/67/237
f 167/67/238 136/67/142 212/67/239 215/67/236
f 136/67/154 168/67/148 209/67/240 212/67/241
f 168/67/148 133/67/139 206/67/242 209/67/243
f 133/67/139 165/67/138 203/67/244 206/67/242
f 165/67/245 134/67/130 222/67/232 203/67/244
f 206/67/242 203/67/244 202/67/246 205/67/247
f 205/67/247 202/67/248 201/67/249 204/67/250
f 204/67/250 201/67/251 161/67/115 129/67/252
f 209/67/240 206/67/253 205/67/247 208/67/254
f 208/67/255 205/67/247 204/67/256 207/67/257
f 207/67/257 204/67/256 129/67/125 164/67/124
f 212/67/241 209/67/240 208/67/255 211/67/258
f 211/67/258 208/67/255 207/67/259 210/67/260
f 210/67/260 207/67/259 164/67/124 132/67/129
f 215/67/261 212/67/241 211/67/258 214/67/262
f 214/67/263 211/67/264 210/67/265 213/67/266
f 213/67/266 210/67/265 132/67/267 163/67/118
f 218/67/233 215/67/268 214/67/262 217/67/269
f 217/67/270 214/67/263 213/67/266 216/67/271
f 216/67/271 213/67/266 163/67/118 131/67/272
f 221/67/234 218/67/233 217/67/269 220/67/273
f 220/67/274 217/67/269 216/67/275 219/67/276
f 219/67/276 216/67/277 131/67/111 162/67/110
f 222/67/232 221/67/234 220/67/274 223/67/278
f 223/67/278 220/67/273 219/67/279 224/67/280
f 224/67/281 219/67/279 162/67/110 130/67/282
f 203/67/283 222/67/284 223/67/285 202/67/246
f 202/67/248 223/67/278 224/67/281 201/67/286
f 201/67/251 224/67/281 130/67/287 161/67/106
f 126/67/288 158/67/120 245/67/289 246/67/290
f 158/67/109 127/67/108 242/67/291 245/67/292
f 127/67/293 159/67/117 239/67/294 242/67/295
f 159/67/117 128/67/116 236/67/296 239/67/294
f 128/67/128 160/67/297 233/67/298 236/67/299
f 160/67/123 125/67/300 230/67/301 233/67/298
f 125/67/113 157/67/105 227/67/302 230/67/303
f 157/67/105 126/67/104 246/67/304 227/67/302
f 230/67/305 227/67/302 226/67/306 229/67/307
f 229/67/307 226/67/308 225/67/309 228/67/310
f 228/67/310 225/67/311 153/67/84 121/67/83
f 233/67/298 230/67/305 229/67/307 232/67/312
f 232/67/312 229/67/307 228/67/313 231/67/314
f 231/67/314 228/67/310 121/67/83 156/67/103
f 236/67/296 233/67/315 232/67/312 235/67/316
f 235/67/316 232/67/312 231/67/314 234/67/317
f 234/67/318 231/67/314 156/67/103 124/67/102
f 239/67/294 236/67/299 235/67/316 238/67/319
f 238/67/320 235/67/316 234/67/318 237/67/321
f 237/67/322 234/67/318 124/67/88 155/67/87
f 242/67/295 239/67/294 238/67/319 241/67/323
f 241/67/323 238/67/320 237/67/322 240/67/324
f 240/67/325 237/67/322 155/67/99 123/67/80
f 245/67/326 242/67/291 241/67/323 244/67/327
f 244/67/327 241/67/323 240/67/324 243/67/328
f 243/67/328 240/67/325 123/67/80 154/67/79
f 246/67/329 245/67/292 244/67/330 247/67/331
f 247/67/331 244/67/327 243/67/328 248/67/332
f 248/67/333 243/67/328 154/67/79 122/67/91
f 227/67/302 246/67/334 247/67/331 226/67/308
f 226/67/308 247/67/331 248/67/335 225/67/309
f 225/67/309 248/67/336 122/67/91 153/67/337
f 118/67/338 150/67/89 269/67/339 270/67/340
f 150/67/341 119/67/77 266/67/342 269/67/339
f 119/67/77 151/67/96 263/67/343 266/67/342
f 151/67/96 120/67/344 260/67/345 263/67/346
f 120/67/347 152/67/100 257/67/348 260/67/349
f 152/67/100 117/67/93 254/67/350 257/67/351
f 117/67/82 149/67/81 251/67/352 254/67/353
f 149/67/74 118/67/338 270/67/340 251/67/354
f 254/67/350 251/67/352 250/67/355 253/67/356
f 253/67/357 250/67/355 249/67/358 252/67/359
f 252/67/359 249/67/360 145/67/361 113/67/362
f 257/67/363 254/67/353 253/67/356 256/67/364
f 256/67/365 253/67/356 252/67/366 255/67/367
f 255/67/368 252/67/366 113/67/369 148/67/370
f 260/67/345 257/67/363 256/67/364 259/67/371
f 259/67/372 256/67/365 255/67/367 258/67/373
f 258/67/374 255/67/375 148/67/370 116/67/376
f 263/67/343 260/67/345 259/67/377 262/67/378
f 262/67/379 259/67/380 258/67/373 261/67/381
f 261/67/381 258/67/373 116/67/382 147/67/383
f 266/67/342 263/67/343 262/67/379 265/67/384
f 265/67/384 262/67/379 261/67/385 264/67/386
f 264/67/387 261/67/385 147/67/383 115/67/388
f 269/67/389 266/67/342 265/67/384 268/67/390
f 268/67/390 265/67/391 264/67/386 267/67/392
f 267/67/392 264/67/393 115/67/394 146/67/395
f 270/67/340 269/67/339 268/67/390 271/67/396
f 271/67/396 268/67/397 267/67/398 272/67/399
f 272/67/399 267/67/398 146/67/400 114/67/401
f 251/67/354 270/67/340 271/67/396 250/67/355
f 250/67/355 271/67/402 272/67/403 249/67/404
f 249/67/358 272/67/405 114/67/406 145/67/361
s 1
f 113/67/407 145/67/361 51/46/38 50/45/408
f 145/67/361 114/67/401 52/60/52 51/46/38
f 114/67/401 146/67/409 53/61/53 52/60/52
f 146/67/409 115/67/394 54/62/54 53/61/53
f 115/67/394 147/67/383 55/63/410 54/62/54
f 147/67/383 116/67/411 56/64/56 55/63/410
f 116/67/411 148/67/370 49/59/51 56/64/56
f 148/67/370 113/67/407 50/45/408 49/59/51
f 142/67/156 173/67/175 107/46/412 106/45/413
f 173/67/175 141/67/414 108/60/68 107/46/412
f 141/67/414 176/67/415 109/61/416 108/60/68
f 176/67/415 144/67/417 110/62/70 109/61/416
f 144/67/417 175/67/418 111/63/419 110/62/70
f 175/67/418 143/67/161 112/64/72 111/63/419
f 143/67/161 174/67/420 105/59/67 112/64/72
f 174/67/420 142/67/156 106/45/413 105/59/67
