# Blender 5.0.1
# www.blender.org
mtllib Wire_Head_Yellow(oC-Motor_C).mtl
o Wire_Head_Yellow(oC-Motor_C)
v -0.032070 0.055052 0.249517
v -0.029950 0.054174 0.249517
v -0.032070 0.055052 0.240313
v -0.029950 0.054174 0.240313
v -0.029950 0.054257 0.240115
v -0.027829 0.055052 0.240313
v -0.027829 0.055052 0.249517
v -0.026951 0.057172 0.249517
v -0.026951 0.057172 0.240313
v -0.027035 0.057172 0.240115
v -0.027829 0.059293 0.240313
v -0.027889 0.059234 0.240115
v -0.027829 0.059293 0.249517
v -0.029950 0.060171 0.249517
v -0.029950 0.060171 0.240313
v -0.029950 0.060088 0.240115
v -0.032070 0.059293 0.240313
v -0.032011 0.059234 0.240115
v -0.032070 0.059293 0.249517
v -0.032949 0.057172 0.249517
v -0.032949 0.057172 0.240313
v -0.032865 0.057172 0.240115
v -0.032011 0.055111 0.240115
v -0.031868 0.055254 0.240033
v -0.031680 0.055442 0.240033
v -0.031538 0.055585 0.240115
v -0.029950 0.054725 0.240033
v -0.029950 0.054927 0.240115
v -0.029950 0.054459 0.240033
v -0.028031 0.055254 0.240033
v -0.027889 0.055111 0.240115
v -0.028219 0.055442 0.240033
v -0.028362 0.055585 0.240115
v -0.027503 0.057172 0.240033
v -0.027705 0.057172 0.240115
v -0.027237 0.057172 0.240033
v -0.028031 0.059091 0.240033
v -0.028219 0.058903 0.240033
v -0.028362 0.058760 0.240115
v -0.029950 0.059620 0.240033
v -0.029950 0.059418 0.240115
v -0.029950 0.059886 0.240033
v -0.031868 0.059091 0.240033
v -0.031680 0.058903 0.240033
v -0.031538 0.058760 0.240115
v -0.032397 0.057172 0.240033
v -0.032195 0.057172 0.240115
v -0.032663 0.057172 0.240033
v -0.032112 0.057172 0.240313
v -0.031478 0.055644 0.240313
v -0.029950 0.055011 0.240313
v -0.028421 0.055644 0.240313
v -0.027788 0.057172 0.240313
v -0.028421 0.058701 0.240313
v -0.029950 0.059334 0.240313
v -0.031478 0.058701 0.240313
v -0.110824 -0.023379 0.249517
v -0.108704 -0.024257 0.249517
v -0.110824 -0.023379 0.240313
v -0.108704 -0.024257 0.240313
v -0.108704 -0.024173 0.240115
v -0.106583 -0.023379 0.240313
v -0.106583 -0.023379 0.249517
v -0.105705 -0.021258 0.249517
v -0.105705 -0.021258 0.240313
v -0.105789 -0.021258 0.240115
v -0.106583 -0.019138 0.240313
v -0.106642 -0.019197 0.240115
v -0.106583 -0.019138 0.249517
v -0.108704 -0.018259 0.249517
v -0.108704 -0.018259 0.240313
v -0.108704 -0.018343 0.240115
v -0.110824 -0.019138 0.240313
v -0.110765 -0.019197 0.240115
v -0.110824 -0.019138 0.249517
v -0.111703 -0.021258 0.249517
v -0.111703 -0.021258 0.240313
v -0.111619 -0.021258 0.240115
v -0.110765 -0.023319 0.240115
v -0.110622 -0.023177 0.240033
v -0.110434 -0.022989 0.240033
v -0.110291 -0.022846 0.240115
v -0.108704 -0.023705 0.240033
v -0.108704 -0.023503 0.240115
v -0.108704 -0.023971 0.240033
v -0.106785 -0.023177 0.240033
v -0.106642 -0.023319 0.240115
v -0.106973 -0.022989 0.240033
v -0.107116 -0.022846 0.240115
v -0.106256 -0.021258 0.240033
v -0.106458 -0.021258 0.240115
v -0.105991 -0.021258 0.240033
v -0.106785 -0.019340 0.240033
v -0.106973 -0.019527 0.240033
v -0.107116 -0.019670 0.240115
v -0.108704 -0.018811 0.240033
v -0.108704 -0.019013 0.240115
v -0.108704 -0.018545 0.240033
v -0.110622 -0.019340 0.240033
v -0.110434 -0.019527 0.240033
v -0.110291 -0.019670 0.240115
v -0.111151 -0.021258 0.240033
v -0.110949 -0.021258 0.240115
v -0.111417 -0.021258 0.240033
v -0.110865 -0.021258 0.240313
v -0.110232 -0.022787 0.240313
v -0.108704 -0.023420 0.240313
v -0.107175 -0.022787 0.240313
v -0.106542 -0.021258 0.240313
v -0.107175 -0.019729 0.240313
v -0.108704 -0.019096 0.240313
v -0.110232 -0.019729 0.240313
v -0.031320 0.055793 0.238038
v -0.028579 0.055793 0.237996
v -0.028579 0.058552 0.237996
v -0.031320 0.058552 0.238038
v -0.035370 0.055740 0.233108
v -0.035328 0.055740 0.230243
v -0.035370 0.058605 0.230243
v -0.035412 0.058605 0.233108
v -0.039358 0.050959 0.233116
v -0.039358 0.050959 0.230234
v -0.042222 0.051002 0.230234
v -0.042222 0.051002 0.233116
v -0.039358 -0.015087 0.233116
v -0.039358 -0.015087 0.230234
v -0.042222 -0.015045 0.230234
v -0.042222 -0.015045 0.233116
v -0.047136 -0.022690 0.233116
v -0.047136 -0.022690 0.230234
v -0.047178 -0.019826 0.230234
v -0.047178 -0.019826 0.233116
v -0.102316 -0.022699 0.233108
v -0.102358 -0.022699 0.230243
v -0.102358 -0.019817 0.230243
v -0.102316 -0.019817 0.233108
v -0.107333 -0.022637 0.238038
v -0.110074 -0.022637 0.237996
v -0.110074 -0.019879 0.237996
v -0.107333 -0.019879 0.238038
v -0.029950 0.055274 0.238040
v -0.028064 0.057172 0.238011
v -0.029950 0.059070 0.238040
v -0.031836 0.057172 0.238070
v -0.035341 0.055203 0.231675
v -0.035341 0.057172 0.229706
v -0.035399 0.059142 0.231675
v -0.035399 0.057172 0.233645
v -0.038821 0.050951 0.231675
v -0.040790 0.050981 0.229694
v -0.042759 0.051010 0.231675
v -0.040790 0.050981 0.233657
v -0.038821 -0.015095 0.231675
v -0.040790 -0.015066 0.229694
v -0.042759 -0.015037 0.231675
v -0.040790 -0.015066 0.233657
v -0.047128 -0.023227 0.231675
v -0.047157 -0.021258 0.229694
v -0.047186 -0.019289 0.231675
v -0.047157 -0.021258 0.233657
v -0.102337 -0.023239 0.231675
v -0.102366 -0.021258 0.229706
v -0.102337 -0.019277 0.231675
v -0.102308 -0.021258 0.233645
v -0.108704 -0.023156 0.238040
v -0.110590 -0.021258 0.238011
v -0.108704 -0.019360 0.238040
v -0.106818 -0.021258 0.238070
v -0.030061 0.055268 0.234726
v -0.030632 0.055269 0.232814
v -0.032205 0.055255 0.231927
v -0.031431 0.055791 0.234937
v -0.031732 0.055793 0.233684
v -0.032628 0.055783 0.233281
v -0.031941 0.057184 0.235047
v -0.032134 0.057197 0.234032
v -0.032785 0.057201 0.233794
v -0.031428 0.058576 0.234955
v -0.031728 0.058605 0.233703
v -0.032642 0.058621 0.233287
v -0.030057 0.059100 0.234751
v -0.030626 0.059137 0.232841
v -0.032225 0.059158 0.231935
v -0.028692 0.058577 0.234507
v -0.029539 0.058613 0.231952
v -0.031814 0.058630 0.230577
v -0.028177 0.057184 0.234431
v -0.029123 0.057209 0.231623
v -0.031646 0.057213 0.230067
v -0.031799 0.055792 0.230571
v -0.029543 0.055801 0.231933
v -0.028695 0.055791 0.234488
v -0.037935 0.055043 0.231648
v -0.038564 0.054819 0.231651
v -0.038730 0.053883 0.231664
v -0.038094 0.055561 0.233080
v -0.038975 0.055172 0.233086
v -0.039258 0.053984 0.233103
v -0.038500 0.056936 0.233614
v -0.040077 0.056090 0.233621
v -0.040669 0.054234 0.233642
v -0.038900 0.058310 0.233072
v -0.041180 0.057001 0.233078
v -0.042080 0.054476 0.233103
v -0.039043 0.058822 0.231635
v -0.041596 0.057334 0.231639
v -0.042611 0.054559 0.231664
v -0.038885 0.058304 0.230203
v -0.041185 0.056981 0.230204
v -0.042083 0.054457 0.230225
v -0.038479 0.056929 0.229669
v -0.040083 0.056063 0.229670
v -0.040673 0.054208 0.229686
v -0.039261 0.053966 0.230225
v -0.038980 0.055152 0.230213
v -0.038079 0.055555 0.230211
v -0.039087 -0.018954 0.231675
v -0.040450 -0.021740 0.231675
v -0.043287 -0.022999 0.231675
v -0.039608 -0.018827 0.233116
v -0.040822 -0.021353 0.233116
v -0.043402 -0.022475 0.233116
v -0.041000 -0.018487 0.233657
v -0.041815 -0.020321 0.233657
v -0.043709 -0.021076 0.233657
v -0.042391 -0.018147 0.233116
v -0.042808 -0.019289 0.233116
v -0.044016 -0.019677 0.233116
v -0.042913 -0.018019 0.231675
v -0.043180 -0.018901 0.231675
v -0.044131 -0.019152 0.231675
v -0.042391 -0.018147 0.230234
v -0.042808 -0.019289 0.230234
v -0.044016 -0.019677 0.230234
v -0.041000 -0.018487 0.229694
v -0.041815 -0.020321 0.229694
v -0.043709 -0.021076 0.229694
v -0.043402 -0.022475 0.230234
v -0.040822 -0.021353 0.230234
v -0.039608 -0.018827 0.230234
v -0.105818 -0.023219 0.231874
v -0.107709 -0.023198 0.232671
v -0.108504 -0.023177 0.234561
v -0.105493 -0.022684 0.233253
v -0.106711 -0.022668 0.233655
v -0.107151 -0.022653 0.234859
v -0.105379 -0.021258 0.233772
v -0.106347 -0.021258 0.234036
v -0.106647 -0.021258 0.234994
v -0.105493 -0.019832 0.233253
v -0.106711 -0.019848 0.233655
v -0.107151 -0.019863 0.234859
v -0.105818 -0.019298 0.231874
v -0.107709 -0.019318 0.232671
v -0.108504 -0.019339 0.234561
v -0.106131 -0.019832 0.230492
v -0.108690 -0.019848 0.231670
v -0.109850 -0.019863 0.234229
v -0.106256 -0.021258 0.229975
v -0.109070 -0.021258 0.231306
v -0.110361 -0.021258 0.234128
v -0.109850 -0.022653 0.234229
v -0.108690 -0.022668 0.231670
v -0.106131 -0.022684 0.230492
vn -0.5003 -0.5003 -0.7067
vn -0.0000 -0.7075 -0.7067
vn -0.0000 -1.0000 -0.0088
vn -0.7071 -0.7071 -0.0088
vn 0.5003 -0.5003 -0.7067
vn 0.7071 -0.7071 -0.0088
vn 0.7071 -0.7071 -0.0000
vn -0.0000 -1.0000 -0.0000
vn 0.5003 0.5003 -0.7067
vn 0.7071 0.7071 -0.0088
vn 1.0000 -0.0000 -0.0088
vn 0.7075 -0.0000 -0.7067
vn -0.5003 0.5003 -0.7067
vn -0.7071 0.7071 -0.0088
vn -0.0001 1.0000 -0.0088
vn -0.0000 0.7075 -0.7067
vn 0.7071 0.7071 -0.0000
vn 1.0000 -0.0000 -0.0000
vn 0.1638 -0.0000 -0.9865
vn 0.1158 0.1158 -0.9865
vn -0.1281 -0.1281 -0.9835
vn -0.1811 -0.0000 -0.9835
vn 0.1281 -0.1280 -0.9835
vn 0.1811 -0.0000 -0.9835
vn -1.0000 -0.0000 -0.0000
vn -0.7071 0.7071 -0.0000
vn -1.0000 -0.0000 -0.0088
vn -0.0000 1.0000 -0.0000
vn 0.1280 0.1281 -0.9835
vn -0.0000 0.1811 -0.9835
vn -0.7075 -0.0000 -0.7067
vn -0.7071 -0.7071 -0.0000
vn -0.0000 0.6909 -0.7230
vn -0.0000 0.1638 -0.9865
vn 0.4885 0.4885 -0.7230
vn -0.0000 -0.1811 -0.9835
vn -0.6982 -0.6974 -0.1618
vn 0.0013 -0.9877 -0.1562
vn -0.1281 0.1280 -0.9835
vn -0.6909 -0.0000 -0.7230
vn -0.1638 -0.0000 -0.9865
vn -0.1158 0.1158 -0.9865
vn -0.4885 0.4885 -0.7230
vn -0.0000 -0.6909 -0.7230
vn -0.0000 -0.1638 -0.9865
vn -0.1158 -0.1158 -0.9865
vn -0.4885 -0.4885 -0.7230
vn 0.6909 -0.0000 -0.7230
vn 0.1158 -0.1158 -0.9865
vn 0.4885 -0.4885 -0.7230
vn -0.9868 -0.0000 -0.1619
vn 0.7000 -0.6962 -0.1591
vn 0.9874 -0.0000 -0.1582
vn 0.7000 0.6962 -0.1591
vn 0.0013 0.9877 -0.1562
vn -0.6982 0.6974 -0.1618
vn 0.1280 -0.1280 -0.9835
vn 0.1281 0.1281 -0.9835
vn -0.0000 0.1810 -0.9835
vn -0.0000 0.1637 -0.9865
vn -0.0000 -0.1810 -0.9835
vn -0.6999 -0.6963 -0.1591
vn -0.0013 -0.9877 -0.1562
vn -0.1281 0.1281 -0.9835
vn -0.0000 -0.1637 -0.9865
vn -0.9874 -0.0000 -0.1582
vn 0.6982 -0.6974 -0.1618
vn 0.9868 -0.0000 -0.1619
vn 0.6982 0.6974 -0.1618
vn -0.0013 0.9877 -0.1562
vn -0.7000 0.6962 -0.1591
vn 0.7090 -0.0011 -0.7052
vn 1.0000 -0.0014 -0.0000
vn 1.0000 -0.0037 -0.0000
vn 0.7099 -0.0025 -0.7043
vn -0.7097 0.0013 -0.7045
vn -0.0007 -0.0001 -1.0000
vn 0.0008 -0.0001 -1.0000
vn -0.7088 0.0018 -0.7054
vn 0.7090 -0.0009 0.7052
vn 0.7099 -0.0025 0.7043
vn -0.7097 0.0016 0.7045
vn -1.0000 0.0021 0.0001
vn -1.0000 0.0023 0.0001
vn -0.7089 0.0017 0.7053
vn -0.0006 -0.0001 -1.0000
vn 0.7090 -0.0011 -0.7053
vn 0.7099 -0.0026 -0.7043
vn 0.0009 -0.0001 -1.0000
vn 0.7089 -0.0009 0.7053
vn -0.0006 0.0002 1.0000
vn 0.0009 -0.0001 1.0000
vn 0.7099 -0.0026 0.7043
vn -1.0000 0.0021 -0.0000
vn -0.7089 0.0017 -0.7053
vn -1.0000 0.0023 -0.0001
vn -0.0006 0.0003 1.0000
vn -0.7096 0.0016 0.7046
vn -0.7088 0.0018 0.7054
vn 0.0008 -0.0001 1.0000
vn 0.0026 -0.7079 -0.7063
vn 0.0039 -1.0000 -0.0001
vn -0.0003 -1.0000 -0.0010
vn -0.0031 -0.7063 -0.7079
vn -0.0018 0.7067 -0.7075
vn -0.0000 -0.0010 -1.0000
vn -0.0046 -0.0000 -1.0000
vn -0.0031 0.7062 -0.7080
vn 0.0039 -1.0000 -0.0000
vn 0.0026 -0.7080 0.7062
vn 0.0016 -0.7075 0.7067
vn -0.0003 -1.0000 -0.0009
vn -0.0018 0.7068 0.7074
vn -0.0023 1.0000 -0.0000
vn -0.0003 1.0000 -0.0009
vn 0.0016 0.7074 0.7068
vn -0.0046 -0.0001 -1.0000
vn -0.0000 -0.0010 1.0000
vn 0.0021 -0.0001 1.0000
vn -0.0023 1.0000 -0.0001
vn -0.0018 0.7068 -0.7075
vn -0.0003 1.0000 -0.0010
vn -0.0001 -0.0010 1.0000
vn 0.0021 -0.0000 1.0000
vn 0.0673 -0.6912 -0.7195
vn 0.0554 0.0121 -0.9984
vn 0.2877 0.0039 -0.9577
vn 0.2120 -0.6805 -0.7014
vn 0.0554 0.0122 -0.9984
vn 0.0048 0.7071 -0.7071
vn 0.2030 0.6863 -0.6984
vn 0.2877 0.0040 -0.9577
vn -0.0466 0.9988 -0.0120
vn 0.0200 0.9991 -0.0376
vn 0.2031 0.6863 -0.6984
vn -0.0598 0.7197 0.6917
vn -0.1092 0.7340 0.6703
vn -0.0599 0.7197 0.6917
vn -0.0351 0.0123 0.9993
vn -0.1373 -0.0009 0.9905
vn -0.1092 0.7339 0.6704
vn -0.0351 0.0122 0.9993
vn 0.0026 -0.7069 0.7073
vn -0.0970 -0.7360 0.6700
vn -0.1372 -0.0010 0.9905
vn 0.0027 -0.7069 0.7073
vn 0.0408 -0.9991 -0.0120
vn 0.0343 -0.9986 -0.0407
vn -0.0970 -0.7361 0.6699
vn 0.0674 -0.6912 -0.7195
vn 0.0342 -0.9986 -0.0408
vn 0.0342 -0.9986 -0.0407
vn 0.0622 -0.9968 -0.0501
vn -0.4981 -0.7880 0.3618
vn -0.4982 -0.7880 0.3618
vn 0.0314 -0.9995 -0.0100
vn -0.6882 -0.7227 0.0644
vn 0.0073 -0.9990 -0.0432
vn -0.7045 -0.7089 -0.0330
vn -0.1373 -0.0010 0.9905
vn -0.8151 -0.0012 0.5793
vn -0.8151 -0.0013 0.5793
vn -0.9963 -0.0003 0.0856
vn -0.7046 -0.7089 -0.0330
vn -0.9996 -0.0001 -0.0274
vn -0.1093 0.7340 0.6703
vn -0.4937 0.7849 0.3746
vn -0.4937 0.7848 0.3746
vn -0.9963 -0.0002 0.0857
vn -0.6874 0.7227 0.0725
vn -0.6873 0.7227 0.0724
vn -0.9963 -0.0002 0.0856
vn -0.7047 0.7088 -0.0305
vn 0.0199 0.9991 -0.0376
vn 0.0644 0.9973 -0.0364
vn 0.0644 0.9973 -0.0363
vn -0.6873 0.7227 0.0725
vn 0.0337 0.9994 0.0012
vn 0.0337 0.9994 0.0011
vn -0.7047 0.7089 -0.0304
vn 0.0076 0.9992 -0.0394
vn 0.5769 0.6821 -0.4493
vn 0.5769 0.6821 -0.4494
vn 0.0645 0.9973 -0.0363
vn 0.0338 0.9994 0.0011
vn 0.7205 0.6851 -0.1075
vn 0.7204 0.6851 -0.1075
vn 0.0077 0.9992 -0.0394
vn 0.7128 0.6992 -0.0547
vn 0.5770 0.6821 -0.4493
vn 0.7825 0.0034 -0.6226
vn 0.9871 -0.0000 -0.1603
vn 0.9981 -0.0005 -0.0619
vn 0.2121 -0.6805 -0.7014
vn 0.7826 0.0033 -0.6226
vn 0.5763 -0.6771 -0.4576
vn 0.5764 -0.6770 -0.4576
vn 0.9871 -0.0001 -0.1603
vn 0.7189 -0.6855 -0.1151
vn 0.7121 -0.6998 -0.0575
vn 0.0343 -0.9986 -0.0408
vn 0.0623 -0.9968 -0.0501
vn 0.0315 -0.9995 -0.0101
vn 0.0315 -0.9995 -0.0100
vn 0.0074 -0.9990 -0.0432
vn 0.7089 -0.0011 -0.7053
vn -0.0339 0.0075 -0.9994
vn 0.6866 -0.0655 -0.7241
vn -0.7097 0.0014 -0.7045
vn -0.7188 0.1213 -0.6846
vn -0.0340 0.0075 -0.9994
vn -0.9844 0.1761 -0.0000
vn -0.7171 0.1288 0.6850
vn -0.9844 0.1762 0.0001
vn -0.0316 0.0187 0.9993
vn -0.7171 0.1289 0.6850
vn 0.7090 -0.0009 0.7053
vn 0.6875 -0.0574 0.7239
vn -0.0315 0.0187 0.9993
vn 1.0000 -0.0014 0.0001
vn 0.9969 -0.0784 0.0002
vn 0.6876 -0.0574 0.7238
vn 0.6867 -0.0655 -0.7240
vn 0.8130 -0.5823 0.0011
vn 0.4957 -0.3572 0.7917
vn 0.1394 -0.9902 0.0010
vn 0.1012 -0.6682 0.7371
vn 0.1013 -0.6682 0.7371
vn 0.0408 -0.9991 -0.0119
vn 0.4957 -0.3571 0.7917
vn -0.0569 0.0606 0.9965
vn 0.1013 -0.6681 0.7371
vn -0.0262 0.0441 0.9987
vn -0.5643 0.4736 0.6762
vn -0.0263 0.0442 0.9987
vn -0.2000 0.7055 0.6799
vn -0.2001 0.7055 0.6799
vn -0.0262 0.0442 0.9987
vn -0.7171 0.1289 0.6849
vn -0.5643 0.4736 0.6761
vn -0.7682 0.6403 -0.0034
vn -0.2745 0.9616 -0.0039
vn -0.2744 0.9616 -0.0039
vn -0.2001 0.7055 0.6798
vn -0.9844 0.1762 -0.0000
vn -0.7681 0.6403 -0.0035
vn -0.5651 0.4653 -0.6813
vn -0.7681 0.6403 -0.0034
vn -0.1913 0.7024 -0.6856
vn -0.7187 0.1213 -0.6846
vn -0.0594 0.0467 -0.9971
vn -0.0594 0.0468 -0.9971
vn -0.5650 0.4653 -0.6813
vn -0.0123 0.0409 -0.9991
vn -0.0122 0.0409 -0.9991
vn 0.6866 -0.0655 -0.7240
vn -0.0593 0.0468 -0.9971
vn 0.4909 -0.3702 -0.7887
vn -0.0122 0.0408 -0.9991
vn 0.1133 -0.6686 -0.7350
vn -0.0123 0.0408 -0.9991
vn 0.0673 -0.6911 -0.7196
vn 0.9969 -0.0784 0.0001
vn 0.8130 -0.5823 0.0012
vn 0.1134 -0.6686 -0.7350
vn 0.1394 -0.9902 0.0009
vn 0.1393 -0.9902 0.0009
vn 0.1133 -0.6686 -0.7349
vn -0.0001 -0.0010 -1.0000
vn 0.0140 -0.0341 -0.9993
vn 0.1511 -0.7135 -0.6841
vn -0.0001 -0.0009 -1.0000
vn -0.0019 0.7067 -0.7075
vn -0.0840 0.6832 -0.7253
vn 0.0140 -0.0340 -0.9993
vn -0.1097 0.9940 -0.0000
vn -0.0840 0.6833 -0.7253
vn -0.0840 0.6833 0.7253
vn -0.0000 -0.0009 1.0000
vn 0.0140 -0.0340 0.9993
vn -0.0840 0.6832 0.7254
vn 0.1511 -0.7135 0.6841
vn 0.0140 -0.0341 0.9993
vn 0.2124 -0.9772 -0.0000
vn 0.1511 -0.7136 0.6841
vn 0.1511 -0.7136 -0.6841
vn 0.6934 -0.7205 -0.0000
vn 0.5083 -0.5286 0.6799
vn 0.9725 -0.2330 -0.0000
vn 0.7108 -0.1660 0.6835
vn 0.9725 -0.2330 0.0001
vn 0.1511 -0.7135 0.6842
vn 0.0515 -0.0528 0.9973
vn 0.0516 -0.0528 0.9973
vn 0.5082 -0.5286 0.6799
vn 0.7108 -0.1661 0.6835
vn 0.0359 -0.0156 0.9992
vn -0.0840 0.6832 0.7253
vn 0.0515 -0.0527 0.9973
vn -0.4265 0.4530 0.7829
vn -0.4265 0.4529 0.7829
vn 0.0359 -0.0155 0.9992
vn -0.6798 0.0937 0.7274
vn -0.6798 0.0938 0.7274
vn 0.0358 -0.0155 0.9992
vn -0.7088 0.0017 0.7054
vn -0.4266 0.4529 0.7829
vn -0.6836 0.7299 -0.0000
vn -0.9924 0.1232 -0.0000
vn -0.9924 0.1231 -0.0000
vn -0.7089 0.0018 0.7053
vn -1.0000 0.0024 -0.0000
vn -0.4266 0.4529 -0.7829
vn -0.4265 0.4530 -0.7829
vn -0.6798 0.0937 -0.7274
vn -0.7089 0.0018 -0.7053
vn 0.0515 -0.0527 -0.9973
vn 0.0515 -0.0528 -0.9973
vn -0.6798 0.0938 -0.7274
vn 0.0358 -0.0156 -0.9992
vn -0.7088 0.0017 -0.7054
vn 0.5083 -0.5285 -0.6799
vn 0.5083 -0.5286 -0.6799
vn 0.0516 -0.0527 -0.9973
vn 0.0359 -0.0156 -0.9992
vn 0.7108 -0.1660 -0.6836
vn 0.7108 -0.1660 -0.6835
vn 0.0359 -0.0155 -0.9992
vn 0.6934 -0.7206 -0.0000
vn 0.5082 -0.5286 -0.6799
vn 0.7108 -0.1661 -0.6835
vn 0.9725 -0.2329 -0.0000
vn -0.7141 -0.6969 -0.0660
vn -0.9970 -0.0001 -0.0768
vn -0.9760 -0.0000 -0.2176
vn -0.7133 -0.6840 -0.1528
vn -0.9970 -0.0000 -0.0768
vn -0.7142 0.6969 -0.0661
vn -0.7133 0.6840 -0.1528
vn -0.9760 -0.0000 -0.2177
vn -0.7141 0.6969 -0.0661
vn -0.0104 0.9991 -0.0403
vn -0.0360 0.9993 -0.0072
vn -0.7133 0.6840 -0.1529
vn -0.0103 0.9991 -0.0403
vn 0.7038 0.7101 -0.0217
vn 0.6803 0.7260 0.1007
vn -0.0360 0.9993 -0.0073
vn 0.9999 -0.0000 -0.0143
vn 0.9914 -0.0000 0.1306
vn 0.6804 0.7259 0.1007
vn 0.7038 -0.7101 -0.0217
vn 0.6804 -0.7259 0.1007
vn -0.0103 -0.9991 -0.0402
vn -0.0360 -0.9993 -0.0073
vn 0.6803 -0.7260 0.1007
vn -0.0103 -0.9991 -0.0403
vn -0.0360 -0.9993 -0.0072
vn 0.6803 -0.7259 0.1008
vn -0.0572 -0.9974 -0.0437
vn 0.4304 -0.7795 0.4550
vn 0.4304 -0.7795 0.4551
vn -0.0572 -0.9974 -0.0436
vn -0.0213 -0.9993 -0.0316
vn 0.0809 -0.7247 0.6843
vn 0.6910 -0.0000 0.7229
vn 0.0809 -0.7246 0.6844
vn 0.1087 -0.0000 0.9941
vn 0.4304 0.7795 0.4551
vn 0.4305 0.7795 0.4550
vn 0.0809 0.7246 0.6844
vn 0.0022 -0.0000 1.0000
vn 0.4304 0.7795 0.4550
vn -0.0573 0.9974 -0.0436
vn 0.0809 0.7247 0.6843
vn -0.0214 0.9993 -0.0316
vn -0.0361 0.9993 -0.0073
vn -0.0573 0.9974 -0.0437
vn -0.5215 0.6808 -0.5144
vn -0.0214 0.9993 -0.0317
vn -0.1630 0.6847 -0.7104
vn -0.1630 0.6846 -0.7104
vn -0.0213 0.9993 -0.0317
vn -0.0032 0.7062 -0.7080
vn -0.7094 -0.0000 -0.7048
vn -0.7093 -0.0000 -0.7049
vn -0.5215 0.6808 -0.5143
vn -0.2260 -0.0000 -0.9741
vn -0.2259 -0.0000 -0.9741
vn -0.7133 -0.6840 -0.1529
vn -0.5215 -0.6808 -0.5144
vn -0.1630 -0.6846 -0.7104
vn -0.0032 -0.7063 -0.7079
vn -0.0361 -0.9993 -0.0073
vn -0.0573 -0.9974 -0.0436
vn -0.0573 -0.9974 -0.0437
vn -0.1630 -0.6847 -0.7104
vn -0.0214 -0.9993 -0.0317
vn -0.0213 -0.9993 -0.0317
vn -0.7045 -0.7089 -0.0331
vn 0.7120 -0.6998 -0.0575
vn 0.0013 0.9877 -0.1563
vn -0.7141 -0.6969 -0.0661
vn -0.7000 -0.6962 -0.1591
vn 0.7038 -0.7101 -0.0218
vn 0.7038 0.7101 -0.0218
vn -0.0013 0.9877 -0.1563
vn -0.9970 -0.0000 -0.0769
vt 0.636322 0.771411
vt 0.587470 0.804750
vt 0.582466 0.801554
vt 0.635177 0.765465
vt 0.576221 0.861411
vt 0.570569 0.862499
vt 0.433500 0.501817
vt 0.495149 0.501817
vt 0.495149 0.744281
vt 0.433500 0.744281
vt 0.667721 0.922223
vt 0.668877 0.928042
vt 0.605422 0.915050
vt 0.608737 0.910132
vt 0.727696 0.832155
vt 0.733433 0.831018
vt 0.721608 0.892773
vt 0.716620 0.889535
vt 0.310201 0.501817
vt 0.371850 0.501817
vt 0.371850 0.744281
vt 0.310201 0.744281
vt 0.687564 0.793554
vt 0.638896 0.784065
vt 0.637511 0.777194
vt 0.691445 0.787669
vt 0.581871 0.860294
vt 0.612010 0.905265
vt 0.125252 0.501817
vt 0.186902 0.501817
vt 0.186902 0.744281
vt 0.125252 0.744281
vt 0.248551 0.501817
vt 0.248551 0.744281
vt 0.666609 0.916401
vt 0.711799 0.886320
vt 0.694675 0.782803
vt 0.697976 0.777719
vt 0.063603 0.501817
vt 0.063603 0.744281
vt 0.602608 0.814790
vt 0.598019 0.811727
vt 0.639988 0.789629
vt 0.592254 0.807905
vt 0.641149 0.795086
vt 0.607213 0.817814
vt 0.722022 0.833305
vt 0.619061 0.894562
vt 0.615915 0.899401
vt 0.588618 0.858968
vt 0.594043 0.857906
vt 0.701466 0.879486
vt 0.706041 0.882519
vt 0.665296 0.909466
vt 0.664231 0.903895
vt 0.684425 0.798269
vt 0.715204 0.834694
vt 0.709684 0.835861
vt 0.681227 0.803114
vt 0.599435 0.856891
vt 0.622123 0.889732
vt 0.663198 0.898415
vt 0.696941 0.876438
vt 0.704000 0.837048
vt 0.001953 0.501817
vt 0.001953 0.744281
vt 0.000000 0.000000
s 1
usemtl Material.003
f 23/1/1 5/2/2 4/3/3 3/4/4
f 31/5/5 6/6/6 4/3/3 5/2/2
f 7/7/7 2/8/8 4/9/3 6/10/6
f 12/11/9 11/12/10 9/13/11 10/14/12
f 18/15/13 17/16/14 15/17/15 16/18/16
f 13/19/17 8/20/18 9/21/11 11/22/10
f 46/23/19 25/24/20 24/25/21 48/26/22
f 30/27/23 36/28/24 10/14/12 31/5/5
f 8/20/18 7/7/7 6/10/6 9/21/11
f 20/29/25 19/30/26 17/31/14 21/32/27
f 19/30/26 14/33/28 15/34/15 17/31/14
f 37/35/29 42/36/30 16/18/16 12/11/9
f 22/37/31 23/1/1 3/4/4 21/38/27
f 48/26/22 24/25/21 23/1/1 22/37/31
f 1/39/32 20/29/25 21/32/27 3/40/4
f 28/41/33 27/42/34 25/24/20 26/43/35
f 14/33/28 13/19/17 11/22/10 15/34/15
f 24/25/21 29/44/36 5/2/2 23/1/1
f 29/44/36 30/27/23 31/5/5 5/2/2
f 25/24/20 27/42/34 29/44/36 24/25/21
f 50/45/37 51/46/38 28/41/33 26/43/35
f 43/47/39 48/26/22 22/37/31 18/15/13
f 35/48/40 34/49/41 32/50/42 33/51/43
f 27/42/34 32/50/42 30/27/23 29/44/36
f 31/5/5 10/14/12 9/13/11 6/6/6
f 36/28/24 37/35/29 12/11/9 10/14/12
f 32/50/42 34/49/41 36/28/24 30/27/23
f 28/41/33 33/51/43 32/50/42 27/42/34
f 41/52/44 40/53/45 38/54/46 39/55/47
f 34/49/41 38/54/46 37/35/29 36/28/24
f 12/11/9 16/18/16 15/17/15 11/12/10
f 42/36/30 43/47/39 18/15/13 16/18/16
f 38/54/46 40/53/45 42/36/30 37/35/29
f 35/48/40 39/55/47 38/54/46 34/49/41
f 47/56/48 46/23/19 44/57/49 45/58/50
f 40/53/45 44/57/49 43/47/39 42/36/30
f 18/15/13 22/37/31 21/38/27 17/16/14
f 49/59/51 50/45/37 26/43/35 47/56/48
f 44/57/49 46/23/19 48/26/22 43/47/39
f 41/52/44 45/58/50 44/57/49 40/53/45
f 47/56/48 26/43/35 25/24/20 46/23/19
f 51/46/38 52/60/52 33/51/43 28/41/33
f 52/60/52 53/61/53 35/48/40 33/51/43
f 53/61/53 54/62/54 39/55/47 35/48/40
f 54/62/54 55/63/55 41/52/44 39/55/47
f 55/63/55 56/64/56 45/58/50 41/52/44
f 56/64/56 49/59/51 47/56/48 45/58/50
f 2/65/8 1/39/32 3/40/4 4/66/3
f 79/1/1 61/2/2 60/3/3 59/4/4
f 87/5/5 62/6/6 60/3/3 61/2/2
f 63/7/7 58/8/8 60/9/3 62/10/6
f 68/11/9 67/12/10 65/13/11 66/14/12
f 74/15/13 73/16/14 71/17/15 72/18/16
f 69/19/17 64/20/18 65/21/11 67/22/10
f 102/23/19 81/24/20 80/25/21 104/26/22
f 86/27/57 92/28/24 66/14/12 87/5/5
f 64/20/18 63/7/7 62/10/6 65/21/11
f 76/29/25 75/30/26 73/31/14 77/32/27
f 75/30/26 70/33/28 71/34/15 73/31/14
f 93/35/58 98/36/59 72/18/16 68/11/9
f 78/37/31 79/1/1 59/4/4 77/38/27
f 104/26/22 80/25/21 79/1/1 78/37/31
f 57/39/32 76/29/25 77/32/27 59/40/4
f 84/41/33 83/42/60 81/24/20 82/43/35
f 70/33/28 69/19/17 67/22/10 71/34/15
f 80/25/21 85/44/61 61/2/2 79/1/1
f 85/44/61 86/27/57 87/5/5 61/2/2
f 81/24/20 83/42/60 85/44/61 80/25/21
f 106/45/62 107/46/63 84/41/33 82/43/35
f 99/47/64 104/26/22 78/37/31 74/15/13
f 91/48/40 90/49/41 88/50/42 89/51/43
f 83/42/60 88/50/42 86/27/57 85/44/61
f 87/5/5 66/14/12 65/13/11 62/6/6
f 92/28/24 93/35/58 68/11/9 66/14/12
f 88/50/42 90/49/41 92/28/24 86/27/57
f 84/41/33 89/51/43 88/50/42 83/42/60
f 97/52/44 96/53/65 94/54/46 95/55/47
f 90/49/41 94/54/46 93/35/58 92/28/24
f 68/11/9 72/18/16 71/17/15 67/12/10
f 98/36/59 99/47/64 74/15/13 72/18/16
f 94/54/46 96/53/65 98/36/59 93/35/58
f 91/48/40 95/55/47 94/54/46 90/49/41
f 103/56/48 102/23/19 100/57/49 101/58/50
f 96/53/65 100/57/49 99/47/64 98/36/59
f 74/15/13 78/37/31 77/38/27 73/16/14
f 105/59/66 106/45/62 82/43/35 103/56/48
f 100/57/49 102/23/19 104/26/22 99/47/64
f 97/52/44 101/58/50 100/57/49 96/53/65
f 103/56/48 82/43/35 81/24/20 102/23/19
f 107/46/63 108/60/67 89/51/43 84/41/33
f 108/60/67 109/61/68 91/48/40 89/51/43
f 109/61/68 110/62/69 95/55/47 91/48/40
f 110/62/69 111/63/70 97/52/44 95/55/47
f 111/63/70 112/64/71 101/58/50 97/52/44
f 112/64/71 105/59/66 103/56/48 101/58/50
f 58/65/8 57/39/32 59/40/4 60/66/3
s 0
f 122/67/72 149/67/73 153/67/74 126/67/75
f 123/67/76 150/67/77 154/67/78 127/67/79
f 149/67/73 121/67/80 125/67/81 153/67/74
f 124/67/82 151/67/83 155/67/84 128/67/85
f 150/67/86 122/67/87 126/67/88 154/67/89
f 121/67/90 152/67/91 156/67/92 125/67/93
f 151/67/94 123/67/76 127/67/95 155/67/96
f 152/67/97 124/67/98 128/67/99 156/67/100
f 130/67/101 157/67/102 161/67/103 134/67/104
f 131/67/105 158/67/106 162/67/107 135/67/108
f 157/67/109 129/67/110 133/67/111 161/67/112
f 132/67/113 159/67/114 163/67/115 136/67/116
f 158/67/106 130/67/101 134/67/104 162/67/117
f 129/67/110 160/67/118 164/67/119 133/67/111
f 159/67/120 131/67/121 135/67/108 163/67/122
f 160/67/123 132/67/113 136/67/116 164/67/124
f 118/67/125 146/67/126 189/67/127 190/67/128
f 146/67/129 119/67/130 186/67/131 189/67/132
f 119/67/130 147/67/133 183/67/134 186/67/135
f 147/67/133 120/67/136 180/67/137 183/67/134
f 120/67/138 148/67/139 177/67/140 180/67/141
f 148/67/142 117/67/143 174/67/144 177/67/145
f 117/67/146 145/67/147 171/67/148 174/67/149
f 145/67/147 118/67/150 190/67/128 171/67/151
f 174/67/149 171/67/152 170/67/153 173/67/154
f 173/67/155 170/67/153 169/67/156 172/67/157
f 172/67/157 169/67/156 141/67/158 113/67/159
f 177/67/160 174/67/149 173/67/155 176/67/161
f 176/67/162 173/67/154 172/67/157 175/67/163
f 175/67/163 172/67/157 113/67/164 144/67/165
f 180/67/166 177/67/140 176/67/162 179/67/167
f 179/67/168 176/67/162 175/67/169 178/67/170
f 178/67/171 175/67/172 144/67/165 116/67/173
f 183/67/174 180/67/137 179/67/168 182/67/175
f 182/67/176 179/67/168 178/67/177 181/67/178
f 181/67/179 178/67/177 116/67/180 143/67/181
f 186/67/135 183/67/134 182/67/175 185/67/182
f 185/67/183 182/67/184 181/67/185 184/67/186
f 184/67/187 181/67/178 143/67/188 115/67/189
f 189/67/132 186/67/131 185/67/190 188/67/191
f 188/67/191 185/67/183 184/67/186 187/67/192
f 187/67/192 184/67/186 115/67/189 142/67/193
f 190/67/194 189/67/127 188/67/195 191/67/196
f 191/67/197 188/67/191 187/67/198 192/67/199
f 192/67/199 187/67/198 142/67/193 114/67/200
f 171/67/201 190/67/128 191/67/196 170/67/153
f 170/67/202 191/67/197 192/67/199 169/67/203
f 169/67/204 192/67/199 114/67/200 141/67/205
f 122/67/206 150/67/86 213/67/207 214/67/208
f 150/67/77 123/67/209 210/67/210 213/67/211
f 123/67/76 151/67/94 207/67/212 210/67/210
f 151/67/83 124/67/82 204/67/213 207/67/214
f 124/67/98 152/67/97 201/67/215 204/67/216
f 152/67/97 121/67/217 198/67/218 201/67/219
f 121/67/80 149/67/220 195/67/221 198/67/222
f 149/67/73 122/67/72 214/67/223 195/67/221
f 198/67/218 195/67/221 194/67/224 197/67/225
f 197/67/225 194/67/224 193/67/226 196/67/227
f 196/67/228 193/67/226 145/67/229 117/67/146
f 201/67/219 198/67/218 197/67/230 200/67/231
f 200/67/231 197/67/225 196/67/232 199/67/233
f 199/67/233 196/67/232 117/67/143 148/67/142
f 204/67/216 201/67/215 200/67/231 203/67/234
f 203/67/234 200/67/231 199/67/235 202/67/236
f 202/67/237 199/67/238 148/67/139 120/67/138
f 207/67/214 204/67/239 203/67/240 206/67/241
f 206/67/241 203/67/234 202/67/237 205/67/242
f 205/67/243 202/67/244 120/67/136 147/67/133
f 210/67/210 207/67/245 206/67/246 209/67/247
f 209/67/247 206/67/248 205/67/243 208/67/249
f 208/67/249 205/67/243 147/67/133 119/67/130
f 213/67/211 210/67/250 209/67/247 212/67/251
f 212/67/252 209/67/253 208/67/249 211/67/254
f 211/67/255 208/67/249 119/67/130 146/67/129
f 214/67/256 213/67/207 212/67/257 215/67/258
f 215/67/258 212/67/257 211/67/259 216/67/260
f 216/67/260 211/67/261 146/67/126 118/67/262
f 195/67/263 214/67/223 215/67/258 194/67/224
f 194/67/264 215/67/258 216/67/265 193/67/266
f 193/67/267 216/67/268 118/67/150 145/67/147
f 130/67/101 158/67/269 237/67/270 238/67/271
f 158/67/272 131/67/273 234/67/274 237/67/275
f 131/67/105 159/67/120 231/67/276 234/67/277
f 159/67/114 132/67/113 228/67/278 231/67/276
f 132/67/113 160/67/279 225/67/280 228/67/281
f 160/67/118 129/67/110 222/67/282 225/67/283
f 129/67/110 157/67/102 219/67/284 222/67/285
f 157/67/102 130/67/101 238/67/286 219/67/284
f 222/67/282 219/67/284 218/67/287 221/67/288
f 221/67/288 218/67/287 217/67/289 220/67/290
f 220/67/290 217/67/291 153/67/74 125/67/93
f 225/67/283 222/67/292 221/67/288 224/67/293
f 224/67/294 221/67/295 220/67/296 223/67/297
f 223/67/297 220/67/296 125/67/93 156/67/92
f 228/67/298 225/67/280 224/67/299 227/67/300
f 227/67/301 224/67/299 223/67/302 226/67/303
f 226/67/304 223/67/305 156/67/100 128/67/306
f 231/67/276 228/67/278 227/67/307 230/67/308
f 230/67/308 227/67/300 226/67/304 229/67/309
f 229/67/310 226/67/303 128/67/311 155/67/312
f 234/67/277 231/67/276 230/67/308 233/67/313
f 233/67/314 230/67/308 229/67/310 232/67/315
f 232/67/315 229/67/310 155/67/312 127/67/316
f 237/67/275 234/67/277 233/67/314 236/67/317
f 236/67/318 233/67/314 232/67/319 235/67/320
f 235/67/320 232/67/315 127/67/321 154/67/78
f 238/67/271 237/67/270 236/67/318 239/67/322
f 239/67/323 236/67/324 235/67/325 240/67/326
f 240/67/327 235/67/328 154/67/89 126/67/75
f 219/67/284 238/67/271 239/67/323 218/67/329
f 218/67/287 239/67/330 240/67/331 217/67/332
f 217/67/332 240/67/331 126/67/75 153/67/74
f 138/67/333 166/67/334 261/67/335 262/67/336
f 166/67/337 139/67/338 258/67/339 261/67/340
f 139/67/341 167/67/342 255/67/343 258/67/344
f 167/67/345 140/67/346 252/67/347 255/67/348
f 140/67/346 168/67/349 249/67/350 252/67/351
f 168/67/349 137/67/352 246/67/353 249/67/350
f 137/67/352 165/67/354 243/67/355 246/67/356
f 165/67/357 138/67/333 262/67/336 243/67/358
f 246/67/359 243/67/355 242/67/360 245/67/361
f 245/67/362 242/67/363 241/67/364 244/67/365
f 244/67/365 241/67/364 161/67/112 133/67/111
f 249/67/350 246/67/353 245/67/362 248/67/366
f 248/67/366 245/67/362 244/67/367 247/67/368
f 247/67/368 244/67/367 133/67/111 164/67/119
f 252/67/351 249/67/350 248/67/366 251/67/369
f 251/67/370 248/67/366 247/67/368 250/67/371
f 250/67/371 247/67/368 164/67/372 136/67/116
f 255/67/343 252/67/347 251/67/373 254/67/374
f 254/67/374 251/67/369 250/67/375 253/67/376
f 253/67/376 250/67/375 136/67/116 163/67/115
f 258/67/344 255/67/377 254/67/378 257/67/379
f 257/67/379 254/67/378 253/67/380 256/67/381
f 256/67/382 253/67/383 163/67/122 135/67/384
f 261/67/340 258/67/344 257/67/379 260/67/385
f 260/67/386 257/67/387 256/67/382 259/67/388
f 259/67/389 256/67/382 135/67/384 162/67/107
f 262/67/390 261/67/340 260/67/386 263/67/391
f 263/67/391 260/67/386 259/67/388 264/67/392
f 264/67/392 259/67/389 162/67/117 134/67/393
f 243/67/394 262/67/336 263/67/391 242/67/395
f 242/67/396 263/67/391 264/67/397 241/67/398
f 241/67/399 264/67/392 134/67/393 161/67/103
s 1
f 113/67/400 141/67/158 51/46/38 50/45/37
f 141/67/158 114/67/401 52/60/52 51/46/38
f 114/67/401 142/67/193 53/61/53 52/60/52
f 142/67/193 115/67/189 54/62/54 53/61/53
f 115/67/189 143/67/181 55/63/402 54/62/54
f 143/67/181 116/67/173 56/64/56 55/63/402
f 116/67/173 144/67/165 49/59/51 56/64/56
f 144/67/165 113/67/400 50/45/37 49/59/51
f 138/67/403 165/67/357 107/46/63 106/45/404
f 165/67/357 137/67/405 108/60/67 107/46/63
f 137/67/405 168/67/349 109/61/68 108/60/67
f 168/67/349 140/67/406 110/62/69 109/61/68
f 140/67/406 167/67/345 111/63/407 110/62/69
f 167/67/345 139/67/341 112/64/71 111/63/407
f 139/67/341 166/67/408 105/59/66 112/64/71
f 166/67/408 138/67/403 106/45/404 105/59/66
