# Blender 5.0.1
# www.blender.org
mtllib Wire_Head_Red(oB-Motor_B).mtl
o Wire_Head_Red(oB-Motor_B)
v -0.032070 0.076052 0.249517
v -0.029950 0.075174 0.249517
v -0.032070 0.076052 0.240313
v -0.029950 0.075174 0.240313
v -0.029950 0.075257 0.240115
v -0.027829 0.076052 0.240313
v -0.027829 0.076052 0.249517
v -0.026951 0.078172 0.249517
v -0.026951 0.078172 0.240313
v -0.027035 0.078172 0.240115
v -0.027829 0.080293 0.240313
v -0.027889 0.080234 0.240115
v -0.027829 0.080293 0.249517
v -0.029950 0.081171 0.249517
v -0.029950 0.081171 0.240313
v -0.029950 0.081088 0.240115
v -0.032070 0.080293 0.240313
v -0.032011 0.080234 0.240115
v -0.032070 0.080293 0.249517
v -0.032949 0.078172 0.249517
v -0.032949 0.078172 0.240313
v -0.032865 0.078172 0.240115
v -0.032011 0.076111 0.240115
v -0.031868 0.076254 0.240033
v -0.031680 0.076442 0.240033
v -0.031538 0.076585 0.240115
v -0.029950 0.075725 0.240033
v -0.029950 0.075927 0.240115
v -0.029950 0.075459 0.240033
v -0.028031 0.076254 0.240033
v -0.027889 0.076111 0.240115
v -0.028219 0.076442 0.240033
v -0.028362 0.076585 0.240115
v -0.027503 0.078172 0.240033
v -0.027705 0.078172 0.240115
v -0.027237 0.078172 0.240033
v -0.028031 0.080091 0.240033
v -0.028219 0.079903 0.240033
v -0.028362 0.079760 0.240115
v -0.029950 0.080620 0.240033
v -0.029950 0.080418 0.240115
v -0.029950 0.080886 0.240033
v -0.031868 0.080091 0.240033
v -0.031680 0.079903 0.240033
v -0.031538 0.079760 0.240115
v -0.032397 0.078172 0.240033
v -0.032195 0.078172 0.240115
v -0.032663 0.078172 0.240033
v -0.032112 0.078172 0.240313
v -0.031478 0.076644 0.240313
v -0.029950 0.076011 0.240313
v -0.028421 0.076644 0.240313
v -0.027788 0.078172 0.240313
v -0.028421 0.079701 0.240313
v -0.029950 0.080334 0.240313
v -0.031478 0.079701 0.240313
v -0.031320 0.076793 0.238038
v -0.028579 0.076793 0.237996
v -0.028579 0.079552 0.237996
v -0.031320 0.079552 0.238038
v -0.035213 0.076731 0.233108
v -0.035170 0.076731 0.230243
v -0.035170 0.079613 0.230243
v -0.035213 0.079613 0.233108
v -0.042159 0.076740 0.233116
v -0.042159 0.076740 0.230234
v -0.042201 0.079605 0.230234
v -0.042201 0.079605 0.233116
v -0.045990 0.071880 0.233116
v -0.045990 0.071880 0.230234
v -0.048854 0.071923 0.230234
v -0.048854 0.071923 0.233116
v -0.045990 0.004992 0.233116
v -0.045990 0.004992 0.230234
v -0.048854 0.005034 0.230234
v -0.048854 0.005034 0.233116
v -0.053529 -0.002690 0.233116
v -0.053529 -0.002690 0.230234
v -0.053571 0.000174 0.230234
v -0.053571 0.000174 0.233116
v -0.102554 -0.002699 0.233108
v -0.102597 -0.002699 0.230243
v -0.102597 0.000183 0.230243
v -0.102554 0.000183 0.233108
v -0.107333 -0.002637 0.238038
v -0.110074 -0.002637 0.237996
v -0.110074 0.000121 0.237996
v -0.107333 0.000121 0.238038
v -0.029950 0.076274 0.238040
v -0.028064 0.078172 0.238011
v -0.029950 0.080070 0.238040
v -0.031836 0.078172 0.238070
v -0.035191 0.076191 0.231675
v -0.035162 0.078172 0.229706
v -0.035191 0.080154 0.231675
v -0.035221 0.078172 0.233645
v -0.042151 0.076203 0.231675
v -0.042180 0.078172 0.229694
v -0.042209 0.080142 0.231675
v -0.042180 0.078172 0.233657
v -0.045453 0.071872 0.231675
v -0.047422 0.071902 0.229694
v -0.049391 0.071931 0.231675
v -0.047422 0.071902 0.233657
v -0.045453 0.004984 0.231675
v -0.047422 0.005013 0.229694
v -0.049391 0.005042 0.231675
v -0.047422 0.005013 0.233657
v -0.053521 -0.003227 0.231675
v -0.053550 -0.001258 0.229694
v -0.053579 0.000711 0.231675
v -0.053550 -0.001258 0.233657
v -0.102576 -0.003239 0.231675
v -0.102605 -0.001258 0.229706
v -0.102576 0.000723 0.231675
v -0.102546 -0.001258 0.233645
v -0.108704 -0.003156 0.238040
v -0.110590 -0.001258 0.238011
v -0.108704 0.000640 0.238040
v -0.106818 -0.001258 0.238070
v -0.045681 0.001185 0.231675
v -0.046940 -0.001624 0.231675
v -0.049707 -0.002968 0.231675
v -0.046206 0.001301 0.233116
v -0.047326 -0.001250 0.233116
v -0.049834 -0.002446 0.233116
v -0.047604 0.001611 0.233657
v -0.048355 -0.000254 0.233657
v -0.050171 -0.001053 0.233657
v -0.049003 0.001921 0.233116
v -0.049384 0.000743 0.233116
v -0.050508 0.000339 0.233116
v -0.049527 0.002037 0.231675
v -0.049770 0.001116 0.231675
v -0.050634 0.000861 0.231675
v -0.049003 0.001921 0.230234
v -0.049384 0.000742 0.230234
v -0.050508 0.000339 0.230234
v -0.047604 0.001611 0.229694
v -0.048355 -0.000254 0.229694
v -0.050171 -0.001053 0.229694
v -0.049834 -0.002446 0.230234
v -0.047326 -0.001250 0.230234
v -0.046206 0.001301 0.230234
v -0.105973 -0.003219 0.231889
v -0.107787 -0.003198 0.232711
v -0.108527 -0.003177 0.234607
v -0.105626 -0.002684 0.233262
v -0.106764 -0.002668 0.233668
v -0.107168 -0.002653 0.234883
v -0.105503 -0.001258 0.233780
v -0.106390 -0.001258 0.234039
v -0.106663 -0.001258 0.235010
v -0.105626 0.000168 0.233262
v -0.106764 0.000152 0.233668
v -0.107168 0.000137 0.234883
v -0.105973 0.000702 0.231889
v -0.107787 0.000682 0.232711
v -0.108527 0.000661 0.234607
v -0.106309 0.000168 0.230512
v -0.108795 0.000152 0.231737
v -0.109878 0.000137 0.234297
v -0.106442 -0.001258 0.229997
v -0.109185 -0.001258 0.231383
v -0.110391 -0.001258 0.234204
v -0.109878 -0.002653 0.234297
v -0.108795 -0.002668 0.231737
v -0.106309 -0.002684 0.230512
v -0.044664 0.076037 0.231675
v -0.045233 0.075815 0.231675
v -0.045379 0.074837 0.231675
v -0.044826 0.076549 0.233116
v -0.045657 0.076145 0.233116
v -0.045910 0.074919 0.233116
v -0.045257 0.077915 0.233657
v -0.046788 0.077024 0.233657
v -0.047325 0.075139 0.233657
v -0.045687 0.079281 0.233116
v -0.047919 0.077903 0.233116
v -0.048741 0.075358 0.233116
v -0.045849 0.079794 0.231675
v -0.048343 0.078232 0.231675
v -0.049272 0.075441 0.231675
v -0.045687 0.079281 0.230234
v -0.047919 0.077903 0.230234
v -0.048741 0.075358 0.230234
v -0.045257 0.077915 0.229694
v -0.046788 0.077024 0.229694
v -0.047325 0.075139 0.229694
v -0.045910 0.074919 0.230234
v -0.045657 0.076145 0.230234
v -0.044826 0.076549 0.230234
v -0.030041 0.076254 0.234770
v -0.030567 0.076233 0.232855
v -0.032096 0.076212 0.231941
v -0.031414 0.076778 0.234959
v -0.031688 0.076762 0.233696
v -0.032536 0.076747 0.233288
v -0.031927 0.078172 0.235053
v -0.032100 0.078172 0.234024
v -0.032693 0.078172 0.233796
v -0.031414 0.079567 0.234959
v -0.031688 0.079583 0.233696
v -0.032536 0.079598 0.233288
v -0.030041 0.080091 0.234770
v -0.030567 0.080112 0.232855
v -0.032096 0.080133 0.231941
v -0.028673 0.079567 0.234547
v -0.029460 0.079583 0.231996
v -0.031667 0.079598 0.230590
v -0.028155 0.078172 0.234487
v -0.029034 0.078172 0.231686
v -0.031499 0.078172 0.230086
v -0.031667 0.076747 0.230590
v -0.029460 0.076762 0.231996
v -0.028673 0.076778 0.234547
v -0.110824 -0.003379 0.249517
v -0.108704 -0.004257 0.249517
v -0.110824 -0.003379 0.240313
v -0.108704 -0.004257 0.240313
v -0.108704 -0.004173 0.240115
v -0.106583 -0.003379 0.240313
v -0.106583 -0.003379 0.249517
v -0.105705 -0.001258 0.249517
v -0.105705 -0.001258 0.240313
v -0.105789 -0.001258 0.240115
v -0.106583 0.000862 0.240313
v -0.106642 0.000803 0.240115
v -0.106583 0.000862 0.249517
v -0.108704 0.001741 0.249517
v -0.108704 0.001741 0.240313
v -0.108704 0.001657 0.240115
v -0.110824 0.000862 0.240313
v -0.110765 0.000803 0.240115
v -0.110824 0.000862 0.249517
v -0.111703 -0.001258 0.249517
v -0.111703 -0.001258 0.240313
v -0.111619 -0.001258 0.240115
v -0.110765 -0.003319 0.240115
v -0.110622 -0.003177 0.240033
v -0.110434 -0.002989 0.240033
v -0.110291 -0.002846 0.240115
v -0.108704 -0.003705 0.240033
v -0.108704 -0.003503 0.240115
v -0.108704 -0.003971 0.240033
v -0.106785 -0.003177 0.240033
v -0.106642 -0.003319 0.240115
v -0.106973 -0.002989 0.240033
v -0.107116 -0.002846 0.240115
v -0.106256 -0.001258 0.240033
v -0.106458 -0.001258 0.240115
v -0.105991 -0.001258 0.240033
v -0.106785 0.000660 0.240033
v -0.106973 0.000473 0.240033
v -0.107116 0.000330 0.240115
v -0.108704 0.001189 0.240033
v -0.108704 0.000987 0.240115
v -0.108704 0.001455 0.240033
v -0.110622 0.000660 0.240033
v -0.110434 0.000473 0.240033
v -0.110291 0.000330 0.240115
v -0.111151 -0.001258 0.240033
v -0.110949 -0.001258 0.240115
v -0.111417 -0.001258 0.240033
v -0.110865 -0.001258 0.240313
v -0.110232 -0.002787 0.240313
v -0.108704 -0.003420 0.240313
v -0.107175 -0.002787 0.240313
v -0.106542 -0.001258 0.240313
v -0.107175 0.000271 0.240313
v -0.108704 0.000904 0.240313
v -0.110232 0.000271 0.240313
vn -0.5349 -0.5349 -0.6540
vn -0.0000 -0.7565 -0.6540
vn -0.0000 -1.0000 -0.0080
vn -0.7071 -0.7071 -0.0080
vn 0.5349 -0.5349 -0.6540
vn 0.7071 -0.7071 -0.0080
vn 0.7071 -0.7071 -0.0000
vn -0.0000 -1.0000 -0.0000
vn 0.5349 0.5349 -0.6540
vn 0.7071 0.7071 -0.0080
vn 1.0000 -0.0000 -0.0080
vn 0.7565 -0.0000 -0.6540
vn -0.5349 0.5349 -0.6540
vn -0.7071 0.7071 -0.0080
vn -0.0000 1.0000 -0.0080
vn -0.0000 0.7565 -0.6540
vn 0.7071 0.7071 -0.0000
vn 1.0000 -0.0000 -0.0000
vn 0.1203 -0.0000 -0.9927
vn 0.0851 0.0851 -0.9927
vn -0.1612 -0.1612 -0.9737
vn -0.2280 -0.0000 -0.9737
vn 0.1612 -0.1612 -0.9737
vn 0.2280 -0.0000 -0.9737
vn -1.0000 -0.0000 -0.0000
vn -0.7071 0.7071 -0.0000
vn -1.0000 -0.0000 -0.0080
vn -0.0000 1.0000 -0.0000
vn 0.1612 0.1612 -0.9737
vn -0.0000 0.2280 -0.9737
vn -0.7565 -0.0000 -0.6540
vn -0.7071 -0.7071 -0.0000
vn -0.0000 0.6443 -0.7648
vn -0.0000 0.1203 -0.9927
vn 0.4556 0.4556 -0.7648
vn -0.0000 -0.2280 -0.9737
vn -0.6979 -0.6959 -0.1691
vn 0.0013 -0.9865 -0.1636
vn -0.1612 0.1612 -0.9737
vn -0.6443 -0.0000 -0.7648
vn -0.1203 -0.0000 -0.9927
vn -0.0851 0.0851 -0.9927
vn -0.4556 0.4556 -0.7648
vn -0.0000 -0.6443 -0.7648
vn -0.0000 -0.1203 -0.9927
vn -0.0851 -0.0851 -0.9927
vn -0.4556 -0.4556 -0.7648
vn 0.6443 -0.0000 -0.7648
vn 0.0851 -0.0851 -0.9927
vn 0.4556 -0.4556 -0.7648
vn -0.9855 -0.0000 -0.1695
vn 0.6997 -0.6948 -0.1662
vn 0.9862 -0.0000 -0.1655
vn 0.6997 0.6948 -0.1662
vn 0.0013 0.9865 -0.1637
vn -0.6979 0.6959 -0.1691
vn 0.0140 -0.7004 0.7137
vn 0.0179 -0.9998 -0.0004
vn 0.0028 -0.9999 -0.0150
vn -0.0121 -0.7136 0.7005
vn -0.0323 0.9995 -0.0004
vn -0.0222 0.7178 0.6959
vn -0.0121 0.7140 0.7000
vn 0.0029 0.9999 -0.0149
vn 0.0140 -0.6998 -0.7142
vn -0.0007 0.0151 -0.9999
vn 0.0350 0.0003 -0.9994
vn 0.0247 -0.6959 -0.7178
vn -0.0008 0.0151 0.9999
vn 0.0140 -0.7003 0.7137
vn -0.0121 -0.7135 0.7005
vn -0.0161 0.0004 0.9999
vn -0.0222 0.7173 -0.6964
vn 0.0028 0.9999 -0.0150
vn 0.0247 0.6964 -0.7172
vn -0.0008 0.0152 0.9999
vn -0.0162 0.0004 0.9999
vn -0.0120 0.7140 0.7000
vn 0.7071 -0.0008 -0.7071
vn 1.0000 -0.0011 -0.0000
vn 1.0000 -0.0032 -0.0000
vn 0.7119 -0.0022 -0.7022
vn -0.7116 0.0011 -0.7026
vn -0.0039 0.0001 -1.0000
vn 0.0043 -0.0001 -1.0000
vn -0.7068 0.0015 -0.7074
vn 0.7071 -0.0008 0.7071
vn 0.7120 -0.0022 0.7022
vn 1.0000 -0.0031 -0.0000
vn -0.7116 0.0012 0.7026
vn -1.0000 0.0016 -0.0000
vn -1.0000 0.0020 -0.0000
vn -0.7069 0.0015 0.7073
vn -0.0038 -0.0000 -1.0000
vn 0.7071 -0.0008 -0.7072
vn 0.7119 -0.0022 -0.7023
vn 0.0044 -0.0001 -1.0000
vn -0.0038 -0.0000 1.0000
vn 0.0044 -0.0001 1.0000
vn 0.7119 -0.0022 0.7023
vn -1.0000 0.0017 -0.0000
vn -0.7116 0.0012 -0.7026
vn -0.7069 0.0015 -0.7073
vn -0.0039 0.0001 1.0000
vn -0.7116 0.0011 0.7026
vn -0.7068 0.0015 0.7074
vn 0.0043 -0.0001 1.0000
vn 0.0033 -0.7103 -0.7039
vn 0.0049 -1.0000 -0.0001
vn -0.0004 -1.0000 -0.0050
vn -0.0038 -0.7039 -0.7103
vn -0.0022 0.7044 -0.7098
vn -0.0000 -0.0049 -1.0000
vn -0.0055 -0.0000 -1.0000
vn -0.0038 0.7038 -0.7104
vn 0.0033 -0.7104 0.7038
vn 0.0019 -0.7098 0.7044
vn -0.0004 -1.0000 -0.0049
vn -0.0022 0.7046 0.7096
vn -0.0029 1.0000 -0.0001
vn -0.0004 1.0000 -0.0050
vn 0.0019 0.7097 0.7045
vn -0.0000 -0.0050 -1.0000
vn -0.0055 -0.0001 -1.0000
vn -0.0000 -0.0050 1.0000
vn 0.0026 -0.0001 1.0000
vn 0.0019 -0.7097 0.7045
vn -0.0022 0.7045 -0.7097
vn -0.0000 -0.0049 1.0000
vn -0.0022 0.7045 0.7097
vn 0.0019 0.7096 0.7046
vn 0.0026 -0.0000 1.0000
vn 0.0139 -0.6999 -0.7141
vn 0.0248 -0.6959 -0.7177
vn -0.0008 0.0151 -0.9999
vn -0.0221 0.7173 -0.6964
vn 0.0247 0.6964 -0.7173
vn 0.0349 0.0004 -0.9994
vn 0.0229 -0.0746 -0.9970
vn 0.1709 -0.7341 -0.6572
vn -0.0899 0.6588 -0.7469
vn 0.0229 -0.0745 -0.9970
vn -0.1193 0.9929 -0.0000
vn -0.0900 0.6588 -0.7469
vn -0.0029 1.0000 -0.0000
vn -0.0899 0.6588 0.7469
vn 0.0229 -0.0745 0.9970
vn 0.0033 -0.7103 0.7038
vn 0.1709 -0.7341 0.6572
vn 0.0049 -1.0000 -0.0000
vn 0.2306 -0.9730 -0.0000
vn 0.1710 -0.7341 0.6571
vn 0.0050 -1.0000 -0.0001
vn 0.1710 -0.7341 -0.6572
vn 0.1710 -0.7341 0.6572
vn 0.7182 -0.6958 -0.0000
vn 0.5592 -0.5415 0.6278
vn 0.9769 -0.2137 -0.0000
vn 0.7351 -0.1578 0.6594
vn 0.7350 -0.1578 0.6594
vn 1.0000 -0.0031 0.0001
vn 0.7119 -0.0022 0.7022
vn 0.0230 -0.0745 0.9970
vn 0.1077 -0.1047 0.9887
vn 0.1078 -0.1047 0.9887
vn 0.7350 -0.1579 0.6594
vn 0.0705 -0.0206 0.9973
vn -0.0900 0.6588 0.7470
vn 0.0230 -0.0744 0.9970
vn 0.1077 -0.1046 0.9887
vn -0.4094 0.3899 0.8248
vn 0.0705 -0.0205 0.9973
vn -0.6634 0.0823 0.7437
vn 0.0704 -0.0206 0.9973
vn -0.0900 0.6588 0.7469
vn -0.4095 0.3898 0.8248
vn -0.7260 0.6877 -0.0000
vn -0.9941 0.1085 -0.0000
vn -1.0000 0.0021 -0.0000
vn -0.7261 0.6876 -0.0000
vn -0.4095 0.3898 -0.8248
vn -0.4094 0.3899 -0.8248
vn -0.6634 0.0823 -0.7437
vn -0.0900 0.6588 -0.7470
vn 0.1077 -0.1046 -0.9887
vn 0.1077 -0.1047 -0.9887
vn -0.6634 0.0824 -0.7437
vn 0.0704 -0.0206 -0.9973
vn 0.0705 -0.0206 -0.9973
vn 0.0230 -0.0745 -0.9970
vn 0.5592 -0.5415 -0.6278
vn 0.5592 -0.5415 -0.6277
vn 0.1078 -0.1047 -0.9887
vn 0.7350 -0.1578 -0.6594
vn 0.2307 -0.9730 -0.0000
vn 0.7351 -0.1578 -0.6594
vn 0.7350 -0.1579 -0.6594
vn 0.7120 -0.0022 -0.7022
vn -0.7175 -0.6936 -0.0639
vn -0.9973 -0.0000 -0.0738
vn -0.9794 -0.0000 -0.2021
vn -0.7363 -0.6600 -0.1490
vn -0.9973 0.0001 -0.0739
vn -0.7175 0.6936 -0.0639
vn -0.7363 0.6600 -0.1490
vn -0.9794 -0.0000 -0.2022
vn -0.0158 0.9990 -0.0418
vn -0.0703 0.9974 -0.0123
vn -0.7363 0.6600 -0.1491
vn -0.0157 0.9990 -0.0418
vn 0.7006 0.7131 -0.0242
vn 0.6631 0.7429 0.0919
vn -0.0702 0.9975 -0.0123
vn 0.7006 0.7131 -0.0241
vn 0.9998 -0.0000 -0.0190
vn 0.9930 -0.0000 0.1180
vn 0.7007 -0.7131 -0.0241
vn 0.6631 -0.7428 0.0920
vn 0.7006 -0.7132 -0.0241
vn -0.0157 -0.9990 -0.0418
vn -0.0703 -0.9975 -0.0123
vn 0.6631 -0.7428 0.0919
vn -0.0158 -0.9990 -0.0418
vn -0.7363 -0.6600 -0.1491
vn -0.0703 -0.9974 -0.0123
vn 0.6631 -0.7429 0.0919
vn -0.0703 -0.9975 -0.0124
vn -0.1139 -0.9888 -0.0959
vn 0.4049 -0.8222 0.4001
vn 0.4048 -0.8222 0.4001
vn -0.1139 -0.9889 -0.0958
vn -0.0304 -0.9969 -0.0726
vn 0.0836 -0.7463 0.6603
vn 0.7221 -0.0000 0.6918
vn 0.1145 -0.0000 0.9934
vn 0.1145 -0.0001 0.9934
vn 0.0836 -0.7463 0.6604
vn 0.6631 0.7429 0.0920
vn 0.4048 0.8222 0.4001
vn 0.4049 0.8222 0.4000
vn 0.0836 0.7463 0.6604
vn 0.0835 0.7463 0.6604
vn -0.0703 0.9975 -0.0123
vn 0.4049 0.8222 0.4001
vn -0.1139 0.9889 -0.0958
vn -0.1140 0.9889 -0.0958
vn 0.0836 0.7463 0.6603
vn -0.0304 0.9969 -0.0726
vn 0.0835 0.7463 0.6603
vn -0.0004 1.0000 -0.0049
vn -0.0703 0.9974 -0.0124
vn -0.1140 0.9888 -0.0959
vn -0.5665 0.6284 -0.5331
vn -0.0304 0.9969 -0.0727
vn -0.1792 0.6574 -0.7319
vn -0.1791 0.6574 -0.7320
vn -0.7286 -0.0000 -0.6849
vn -0.7286 0.0001 -0.6849
vn -0.2399 -0.0000 -0.9708
vn -0.1792 0.6574 -0.7320
vn -0.7286 -0.0000 -0.6850
vn -0.5665 -0.6284 -0.5330
vn -0.5665 -0.6284 -0.5331
vn -0.1792 -0.6574 -0.7320
vn -0.0039 -0.7039 -0.7103
vn -0.1140 -0.9888 -0.0958
vn -0.1139 -0.9889 -0.0959
vn -0.1792 -0.6574 -0.7319
vn -0.0304 -0.9969 -0.0727
vn -0.0038 0.0001 -1.0000
vn -0.0591 0.0145 -0.9981
vn 0.6759 -0.0529 -0.7351
vn -0.7371 0.1156 -0.6658
vn -0.0592 0.0144 -0.9981
vn -0.9873 0.1587 -0.0000
vn -0.7371 0.1157 -0.6658
vn -0.7371 0.1156 0.6658
vn -0.0039 -0.0000 1.0000
vn -0.0592 0.0145 0.9981
vn -0.7371 0.1157 0.6658
vn -0.0038 0.0001 1.0000
vn 0.7071 -0.0008 0.7072
vn 0.6759 -0.0530 0.7351
vn -0.0591 0.0145 0.9981
vn 1.0000 -0.0011 0.0001
vn 0.9978 -0.0663 -0.0000
vn 0.6759 -0.0530 0.7350
vn 0.6759 -0.0530 -0.7351
vn 0.9978 -0.0663 0.0001
vn 0.8433 -0.5374 0.0001
vn 0.4644 -0.3120 0.8288
vn 0.4645 -0.3119 0.8288
vn 0.8433 -0.5374 -0.0000
vn 0.1456 -0.9893 -0.0000
vn 0.1099 -0.6394 0.7610
vn 0.0140 -0.7004 0.7136
vn -0.1201 0.0959 0.9881
vn -0.1201 0.0960 0.9881
vn -0.0334 0.0908 0.9953
vn -0.0007 0.0151 0.9999
vn -0.6150 0.4793 0.6262
vn -0.0335 0.0908 0.9953
vn -0.2179 0.7296 0.6482
vn -0.0222 0.7177 0.6959
vn -0.9873 0.1588 -0.0000
vn -0.7878 0.6159 -0.0000
vn -0.2180 0.7296 0.6482
vn -0.2904 0.9569 -0.0000
vn -0.0223 0.7178 0.6959
vn -0.0323 0.9995 -0.0003
vn -0.6150 0.4793 -0.6262
vn -0.2180 0.7296 -0.6482
vn -0.2904 0.9569 -0.0001
vn -0.0592 0.0145 -0.9981
vn -0.1201 0.0960 -0.9881
vn -0.0335 0.0908 -0.9953
vn -0.0334 0.0908 -0.9953
vn 0.4645 -0.3119 -0.8288
vn 0.4644 -0.3120 -0.8288
vn -0.1200 0.0960 -0.9881
vn 0.1100 -0.6393 -0.7610
vn -0.0008 0.0150 -0.9999
vn 0.9978 -0.0664 -0.0000
vn 0.1099 -0.6394 -0.7610
vn 0.1100 -0.6394 -0.7610
vn 0.0180 -0.9998 -0.0005
vn 0.0350 0.0004 -0.9994
vn 0.2994 -0.0001 -0.9541
vn 0.2260 -0.6485 -0.7269
vn 0.2260 0.6485 -0.7269
vn 0.2995 -0.0000 -0.9541
vn 0.0029 0.9999 -0.0150
vn 0.0413 0.9953 -0.0881
vn -0.1024 0.7599 0.6419
vn 0.0414 0.9953 -0.0881
vn -0.0162 0.0005 0.9999
vn -0.1396 0.0001 0.9902
vn -0.1024 -0.7599 0.6419
vn -0.1396 -0.0000 0.9902
vn 0.0029 -0.9999 -0.0150
vn 0.0414 -0.9953 -0.0881
vn -0.1024 -0.7600 0.6418
vn 0.0413 -0.9953 -0.0881
vn 0.1257 -0.9883 -0.0859
vn -0.4599 -0.8264 0.3249
vn -0.4599 -0.8264 0.3248
vn 0.0586 -0.9983 -0.0059
vn -0.6759 -0.7343 0.0624
vn -0.6759 -0.7344 0.0624
vn 0.0099 -0.9991 -0.0422
vn -0.7032 -0.7102 -0.0336
vn -0.1397 -0.0000 0.9902
vn -0.8369 -0.0000 0.5473
vn -0.4598 -0.8264 0.3249
vn -0.9971 -0.0000 0.0756
vn -0.9971 -0.0001 0.0756
vn -0.6759 -0.7343 0.0623
vn -0.9995 -0.0001 -0.0316
vn -0.4599 0.8264 0.3248
vn -0.4598 0.8265 0.3248
vn -0.9971 -0.0000 0.0757
vn -0.6759 0.7343 0.0624
vn -0.6759 0.7343 0.0623
vn -0.9971 0.0001 0.0756
vn -0.9995 0.0001 -0.0316
vn -0.7032 0.7102 -0.0336
vn -0.1024 0.7600 0.6418
vn -0.4598 0.8264 0.3249
vn 0.1257 0.9883 -0.0859
vn 0.1257 0.9883 -0.0860
vn -0.4599 0.8264 0.3249
vn 0.0586 0.9983 -0.0059
vn 0.0586 0.9983 -0.0060
vn -0.6759 0.7344 0.0623
vn 0.0099 0.9991 -0.0422
vn 0.0414 0.9952 -0.0881
vn 0.6217 0.6267 -0.4697
vn 0.0587 0.9983 -0.0060
vn 0.7380 0.6663 -0.1062
vn 0.7381 0.6663 -0.1061
vn 0.0587 0.9983 -0.0059
vn 0.0100 0.9991 -0.0422
vn 0.7141 0.6980 -0.0538
vn 0.7972 -0.0000 -0.6037
vn 0.7973 -0.0000 -0.6036
vn 0.6217 0.6268 -0.4697
vn 0.7381 0.6663 -0.1062
vn 0.9892 -0.0000 -0.1468
vn 0.7141 0.6980 -0.0539
vn 0.9982 -0.0000 -0.0596
vn 0.6217 -0.6268 -0.4697
vn 0.7381 -0.6663 -0.1062
vn 0.7381 -0.6663 -0.1061
vn 0.9892 -0.0001 -0.1468
vn 0.9982 -0.0000 -0.0597
vn 0.7141 -0.6980 -0.0539
vn 0.0414 -0.9952 -0.0882
vn 0.6217 -0.6267 -0.4698
vn 0.1257 -0.9883 -0.0860
vn 0.7380 -0.6664 -0.1061
vn 0.0587 -0.9983 -0.0059
vn 0.7381 -0.6664 -0.1061
vn 0.0100 -0.9991 -0.0422
vn 1.0000 -0.0001 -0.0080
vn -0.6997 -0.6948 -0.1662
vn -0.0013 -0.9865 -0.1636
vn -0.4556 0.4556 -0.7647
vn 0.6443 -0.0000 -0.7647
vn -0.9862 -0.0000 -0.1655
vn 0.6979 -0.6959 -0.1691
vn 0.9855 -0.0000 -0.1695
vn 0.6979 0.6959 -0.1691
vn -0.0013 0.9865 -0.1637
vn -0.6997 0.6948 -0.1662
vn -0.6979 -0.6959 -0.1690
vn 0.0013 0.9865 -0.1636
vn -0.7032 0.7101 -0.0336
vn -0.6979 0.6959 -0.1690
vn -0.9995 -0.0000 -0.0316
vn -0.9973 -0.0000 -0.0739
vn -0.6997 0.6949 -0.1662
vn -0.0013 0.9865 -0.1636
vn 0.6979 0.6960 -0.1691
vn 0.6979 0.6959 -0.1690
vn 0.9998 -0.0000 -0.0191
vn 0.7007 0.7131 -0.0242
vn 0.6979 -0.6959 -0.1690
vn 0.7007 -0.7131 -0.0242
vn 0.7006 -0.7131 -0.0241
vn -0.6997 -0.6949 -0.1661
vt 0.636322 0.771411
vt 0.587470 0.804750
vt 0.582466 0.801554
vt 0.635177 0.765465
vt 0.576221 0.861411
vt 0.570569 0.862499
vt 0.433500 0.501817
vt 0.495149 0.501817
vt 0.495149 0.744281
vt 0.433500 0.744281
vt 0.667721 0.922223
vt 0.668877 0.928042
vt 0.605422 0.915050
vt 0.608737 0.910132
vt 0.727696 0.832155
vt 0.733433 0.831018
vt 0.721608 0.892773
vt 0.716620 0.889535
vt 0.310201 0.501817
vt 0.371850 0.501817
vt 0.371850 0.744281
vt 0.310201 0.744281
vt 0.687564 0.793554
vt 0.638896 0.784065
vt 0.637511 0.777194
vt 0.691445 0.787669
vt 0.581871 0.860294
vt 0.612010 0.905265
vt 0.125252 0.501817
vt 0.186902 0.501817
vt 0.186902 0.744281
vt 0.125252 0.744281
vt 0.248551 0.501817
vt 0.248551 0.744281
vt 0.666609 0.916401
vt 0.711799 0.886320
vt 0.694675 0.782803
vt 0.697976 0.777719
vt 0.063603 0.501817
vt 0.063603 0.744281
vt 0.602608 0.814790
vt 0.598019 0.811727
vt 0.639988 0.789629
vt 0.592254 0.807905
vt 0.641149 0.795086
vt 0.607213 0.817814
vt 0.722022 0.833305
vt 0.619061 0.894562
vt 0.615915 0.899401
vt 0.588618 0.858968
vt 0.594043 0.857906
vt 0.701466 0.879486
vt 0.706041 0.882519
vt 0.665296 0.909466
vt 0.664231 0.903895
vt 0.684425 0.798269
vt 0.715204 0.834694
vt 0.709684 0.835861
vt 0.681227 0.803114
vt 0.599435 0.856891
vt 0.622123 0.889732
vt 0.663198 0.898415
vt 0.696941 0.876438
vt 0.704000 0.837048
vt 0.001953 0.501817
vt 0.001953 0.744281
vt 0.000000 0.000000
s 1
usemtl Material.001
f 23/1/1 5/2/2 4/3/3 3/4/4
f 31/5/5 6/6/6 4/3/3 5/2/2
f 7/7/7 2/8/8 4/9/3 6/10/6
f 12/11/9 11/12/10 9/13/11 10/14/12
f 18/15/13 17/16/14 15/17/15 16/18/16
f 13/19/17 8/20/18 9/21/11 11/22/10
f 46/23/19 25/24/20 24/25/21 48/26/22
f 30/27/23 36/28/24 10/14/12 31/5/5
f 8/20/18 7/7/7 6/10/6 9/21/11
f 20/29/25 19/30/26 17/31/14 21/32/27
f 19/30/26 14/33/28 15/34/15 17/31/14
f 37/35/29 42/36/30 16/18/16 12/11/9
f 22/37/31 23/1/1 3/4/4 21/38/27
f 48/26/22 24/25/21 23/1/1 22/37/31
f 1/39/32 20/29/25 21/32/27 3/40/4
f 28/41/33 27/42/34 25/24/20 26/43/35
f 14/33/28 13/19/17 11/22/10 15/34/15
f 24/25/21 29/44/36 5/2/2 23/1/1
f 29/44/36 30/27/23 31/5/5 5/2/2
f 25/24/20 27/42/34 29/44/36 24/25/21
f 50/45/37 51/46/38 28/41/33 26/43/35
f 43/47/39 48/26/22 22/37/31 18/15/13
f 35/48/40 34/49/41 32/50/42 33/51/43
f 27/42/34 32/50/42 30/27/23 29/44/36
f 31/5/5 10/14/12 9/13/11 6/6/6
f 36/28/24 37/35/29 12/11/9 10/14/12
f 32/50/42 34/49/41 36/28/24 30/27/23
f 28/41/33 33/51/43 32/50/42 27/42/34
f 41/52/44 40/53/45 38/54/46 39/55/47
f 34/49/41 38/54/46 37/35/29 36/28/24
f 12/11/9 16/18/16 15/17/15 11/12/10
f 42/36/30 43/47/39 18/15/13 16/18/16
f 38/54/46 40/53/45 42/36/30 37/35/29
f 35/48/40 39/55/47 38/54/46 34/49/41
f 47/56/48 46/23/19 44/57/49 45/58/50
f 40/53/45 44/57/49 43/47/39 42/36/30
f 18/15/13 22/37/31 21/38/27 17/16/14
f 49/59/51 50/45/37 26/43/35 47/56/48
f 44/57/49 46/23/19 48/26/22 43/47/39
f 41/52/44 45/58/50 44/57/49 40/53/45
f 47/56/48 26/43/35 25/24/20 46/23/19
f 51/46/38 52/60/52 33/51/43 28/41/33
f 52/60/52 53/61/53 35/48/40 33/51/43
f 53/61/53 54/62/54 39/55/47 35/48/40
f 54/62/54 55/63/55 41/52/44 39/55/47
f 55/63/55 56/64/56 45/58/50 41/52/44
f 56/64/56 49/59/51 47/56/48 45/58/50
f 2/65/8 1/39/32 3/40/4 4/66/3
s 0
f 65/67/57 97/67/58 93/67/59 61/67/60
f 99/67/61 68/67/62 64/67/63 95/67/64
f 66/67/65 98/67/66 94/67/67 62/67/68
f 100/67/69 65/67/70 61/67/71 96/67/72
f 67/67/73 99/67/61 95/67/74 63/67/75
f 68/67/62 100/67/76 96/67/77 64/67/78
f 70/67/79 101/67/80 105/67/81 74/67/82
f 71/67/83 102/67/84 106/67/85 75/67/86
f 101/67/80 69/67/87 73/67/88 105/67/89
f 72/67/90 103/67/91 107/67/92 76/67/93
f 102/67/94 70/67/95 74/67/96 106/67/97
f 69/67/87 104/67/98 108/67/99 73/67/100
f 103/67/101 71/67/102 75/67/103 107/67/92
f 104/67/104 72/67/105 76/67/106 108/67/107
f 78/67/108 109/67/109 113/67/110 82/67/111
f 79/67/112 110/67/113 114/67/114 83/67/115
f 109/67/109 77/67/116 81/67/117 113/67/118
f 80/67/119 111/67/120 115/67/121 84/67/122
f 110/67/123 78/67/108 82/67/111 114/67/124
f 77/67/116 112/67/125 116/67/126 81/67/127
f 111/67/120 79/67/128 83/67/115 115/67/121
f 112/67/129 80/67/130 84/67/131 116/67/132
f 97/67/58 66/67/133 62/67/134 93/67/59
f 98/67/135 67/67/136 63/67/137 94/67/138
f 78/67/108 110/67/123 141/67/139 142/67/140
f 110/67/113 79/67/112 138/67/141 141/67/142
f 79/67/128 111/67/120 135/67/143 138/67/144
f 111/67/145 80/67/119 132/67/146 135/67/143
f 80/67/130 112/67/129 129/67/147 132/67/146
f 112/67/125 77/67/148 126/67/149 129/67/147
f 77/67/116 109/67/150 123/67/151 126/67/152
f 109/67/153 78/67/108 142/67/154 123/67/151
f 126/67/155 123/67/151 122/67/156 125/67/157
f 125/67/157 122/67/156 121/67/158 124/67/159
f 124/67/160 121/67/158 105/67/161 73/67/162
f 129/67/163 126/67/149 125/67/157 128/67/164
f 128/67/165 125/67/157 124/67/166 127/67/167
f 127/67/167 124/67/166 73/67/100 108/67/99
f 132/67/168 129/67/169 128/67/170 131/67/171
f 131/67/171 128/67/170 127/67/172 130/67/173
f 130/67/173 127/67/174 108/67/107 76/67/106
f 135/67/143 132/67/175 131/67/176 134/67/177
f 134/67/177 131/67/171 130/67/173 133/67/178
f 133/67/178 130/67/173 76/67/93 107/67/179
f 138/67/144 135/67/143 134/67/180 137/67/181
f 137/67/182 134/67/177 133/67/178 136/67/183
f 136/67/183 133/67/178 107/67/179 75/67/103
f 141/67/142 138/67/184 137/67/182 140/67/185
f 140/67/186 137/67/182 136/67/187 139/67/188
f 139/67/189 136/67/183 75/67/86 106/67/85
f 142/67/154 141/67/190 140/67/186 143/67/191
f 143/67/192 140/67/193 139/67/189 144/67/194
f 144/67/194 139/67/189 106/67/97 74/67/96
f 123/67/195 142/67/154 143/67/192 122/67/156
f 122/67/156 143/67/192 144/67/196 121/67/158
f 121/67/158 144/67/197 74/67/198 105/67/89
f 86/67/199 118/67/200 165/67/201 166/67/202
f 118/67/203 87/67/204 162/67/205 165/67/206
f 87/67/204 119/67/207 159/67/208 162/67/209
f 119/67/210 88/67/211 156/67/212 159/67/213
f 88/67/214 120/67/215 153/67/216 156/67/212
f 120/67/215 85/67/217 150/67/218 153/67/216
f 85/67/219 117/67/220 147/67/221 150/67/222
f 117/67/223 86/67/199 166/67/224 147/67/225
f 150/67/226 147/67/227 146/67/228 149/67/229
f 149/67/230 146/67/231 145/67/232 148/67/233
f 148/67/233 145/67/232 113/67/118 81/67/117
f 153/67/216 150/67/218 149/67/230 152/67/234
f 152/67/234 149/67/229 148/67/233 151/67/235
f 151/67/236 148/67/237 81/67/127 116/67/126
f 156/67/238 153/67/216 152/67/234 155/67/239
f 155/67/240 152/67/234 151/67/235 154/67/241
f 154/67/242 151/67/235 116/67/132 84/67/131
f 159/67/243 156/67/212 155/67/244 158/67/245
f 158/67/246 155/67/239 154/67/247 157/67/248
f 157/67/248 154/67/249 84/67/122 115/67/250
f 162/67/209 159/67/251 158/67/252 161/67/253
f 161/67/253 158/67/252 157/67/254 160/67/255
f 160/67/256 157/67/254 115/67/121 83/67/115
f 165/67/201 162/67/205 161/67/253 164/67/257
f 164/67/258 161/67/253 160/67/255 163/67/259
f 163/67/259 160/67/260 83/67/115 114/67/124
f 166/67/202 165/67/201 164/67/261 167/67/262
f 167/67/263 164/67/261 163/67/259 168/67/264
f 168/67/264 163/67/259 114/67/124 82/67/265
f 147/67/221 166/67/202 167/67/262 146/67/266
f 146/67/267 167/67/262 168/67/268 145/67/269
f 145/67/269 168/67/268 82/67/111 113/67/110
f 70/67/79 102/67/270 189/67/271 190/67/272
f 102/67/84 71/67/102 186/67/273 189/67/274
f 71/67/102 103/67/101 183/67/275 186/67/276
f 103/67/101 72/67/90 180/67/277 183/67/275
f 72/67/90 104/67/278 177/67/279 180/67/280
f 104/67/281 69/67/282 174/67/283 177/67/284
f 69/67/87 101/67/285 171/67/286 174/67/287
f 101/67/80 70/67/79 190/67/288 171/67/286
f 174/67/287 171/67/289 170/67/290 173/67/291
f 173/67/292 170/67/293 169/67/294 172/67/295
f 172/67/295 169/67/294 97/67/58 65/67/296
f 177/67/284 174/67/283 173/67/292 176/67/297
f 176/67/298 173/67/291 172/67/295 175/67/299
f 175/67/299 172/67/295 65/67/70 100/67/300
f 180/67/280 177/67/284 176/67/298 179/67/301
f 179/67/301 176/67/298 175/67/302 178/67/303
f 178/67/303 175/67/299 100/67/76 68/67/304
f 183/67/305 180/67/280 179/67/301 182/67/306
f 182/67/306 179/67/301 178/67/307 181/67/308
f 181/67/308 178/67/307 68/67/309 99/67/310
f 186/67/276 183/67/275 182/67/306 185/67/311
f 185/67/311 182/67/306 181/67/308 184/67/312
f 184/67/312 181/67/313 99/67/61 67/67/136
f 189/67/314 186/67/273 185/67/311 188/67/315
f 188/67/315 185/67/311 184/67/312 187/67/316
f 187/67/317 184/67/312 67/67/73 98/67/66
f 190/67/288 189/67/271 188/67/315 191/67/318
f 191/67/319 188/67/320 187/67/317 192/67/321
f 192/67/321 187/67/317 98/67/322 66/67/133
f 171/67/323 190/67/288 191/67/319 170/67/293
f 170/67/293 191/67/318 192/67/324 169/67/294
f 169/67/294 192/67/325 66/67/133 97/67/326
f 62/67/134 94/67/327 213/67/328 214/67/329
f 94/67/327 63/67/137 210/67/330 213/67/331
f 63/67/137 95/67/332 207/67/333 210/67/330
f 95/67/74 64/67/78 204/67/334 207/67/335
f 64/67/78 96/67/336 201/67/337 204/67/334
f 96/67/77 61/67/60 198/67/338 201/67/339
f 61/67/60 93/67/340 195/67/341 198/67/342
f 93/67/59 62/67/134 214/67/329 195/67/343
f 198/67/342 195/67/341 194/67/344 197/67/345
f 197/67/346 194/67/344 193/67/347 196/67/348
f 196/67/349 193/67/347 89/67/350 57/67/351
f 201/67/352 198/67/338 197/67/346 200/67/353
f 200/67/353 197/67/354 196/67/348 199/67/355
f 199/67/356 196/67/357 57/67/351 92/67/358
f 204/67/334 201/67/352 200/67/353 203/67/359
f 203/67/360 200/67/353 199/67/361 202/67/362
f 202/67/363 199/67/364 92/67/365 60/67/366
f 207/67/333 204/67/367 203/67/368 206/67/369
f 206/67/370 203/67/371 202/67/362 205/67/372
f 205/67/373 202/67/374 60/67/366 91/67/375
f 210/67/330 207/67/376 206/67/370 209/67/377
f 209/67/377 206/67/370 205/67/378 208/67/379
f 208/67/380 205/67/381 91/67/382 59/67/383
f 213/67/331 210/67/330 209/67/377 212/67/384
f 212/67/385 209/67/386 208/67/387 211/67/388
f 211/67/388 208/67/387 59/67/389 90/67/390
f 214/67/329 213/67/331 212/67/384 215/67/391
f 215/67/391 212/67/385 211/67/388 216/67/392
f 216/67/393 211/67/394 90/67/395 58/67/396
f 195/67/397 214/67/329 215/67/398 194/67/399
f 194/67/399 215/67/391 216/67/400 193/67/401
f 193/67/401 216/67/402 58/67/396 89/67/403
s 1
f 239/1/1 221/2/2 220/3/3 219/4/4
f 247/5/5 222/6/6 220/3/3 221/2/2
f 223/7/7 218/8/8 220/9/3 222/10/6
f 228/11/9 227/12/10 225/13/404 226/14/12
f 234/15/13 233/16/14 231/17/15 232/18/16
f 229/19/17 224/20/18 225/21/404 227/22/10
f 262/23/19 241/24/20 240/25/21 264/26/22
f 246/27/23 252/28/24 226/14/12 247/5/5
f 224/20/18 223/7/7 222/10/6 225/21/404
f 236/29/25 235/30/26 233/31/14 237/32/27
f 235/30/26 230/33/28 231/34/15 233/31/14
f 253/35/29 258/36/30 232/18/16 228/11/9
f 238/37/31 239/1/1 219/4/4 237/38/27
f 264/26/22 240/25/21 239/1/1 238/37/31
f 217/39/32 236/29/25 237/32/27 219/40/4
f 244/41/33 243/42/34 241/24/20 242/43/35
f 230/33/28 229/19/17 227/22/10 231/34/15
f 240/25/21 245/44/36 221/2/2 239/1/1
f 245/44/36 246/27/23 247/5/5 221/2/2
f 241/24/20 243/42/34 245/44/36 240/25/21
f 266/45/405 267/46/406 244/41/33 242/43/35
f 259/47/39 264/26/22 238/37/31 234/15/13
f 251/48/40 250/49/41 248/50/42 249/51/407
f 243/42/34 248/50/42 246/27/23 245/44/36
f 247/5/5 226/14/12 225/13/404 222/6/6
f 252/28/24 253/35/29 228/11/9 226/14/12
f 248/50/42 250/49/41 252/28/24 246/27/23
f 244/41/33 249/51/407 248/50/42 243/42/34
f 257/52/44 256/53/45 254/54/46 255/55/47
f 250/49/41 254/54/46 253/35/29 252/28/24
f 228/11/9 232/18/16 231/17/15 227/12/10
f 258/36/30 259/47/39 234/15/13 232/18/16
f 254/54/46 256/53/45 258/36/30 253/35/29
f 251/48/40 255/55/47 254/54/46 250/49/41
f 263/56/408 262/23/19 260/57/49 261/58/50
f 256/53/45 260/57/49 259/47/39 258/36/30
f 234/15/13 238/37/31 237/38/27 233/16/14
f 265/59/409 266/45/405 242/43/35 263/56/408
f 260/57/49 262/23/19 264/26/22 259/47/39
f 257/52/44 261/58/50 260/57/49 256/53/45
f 263/56/408 242/43/35 241/24/20 262/23/19
f 267/46/406 268/60/410 249/51/407 244/41/33
f 268/60/410 269/61/411 251/48/40 249/51/407
f 269/61/411 270/62/412 255/55/47 251/48/40
f 270/62/412 271/63/413 257/52/44 255/55/47
f 271/63/413 272/64/414 261/58/50 257/52/44
f 272/64/414 265/59/409 263/56/408 261/58/50
f 218/65/8 217/39/32 219/40/4 220/66/3
f 57/67/351 89/67/350 51/46/38 50/45/415
f 89/67/350 58/67/396 52/60/52 51/46/38
f 58/67/396 90/67/395 53/61/53 52/60/52
f 90/67/395 59/67/389 54/62/54 53/61/53
f 59/67/389 91/67/375 55/63/416 54/62/54
f 91/67/375 60/67/417 56/64/418 55/63/416
f 60/67/417 92/67/419 49/59/51 56/64/418
f 92/67/419 57/67/351 50/45/415 49/59/51
s 0
f 266/45/405 265/59/409 118/67/420 86/67/199
f 265/59/409 272/64/414 87/67/204 118/67/420
f 272/64/421 271/63/422 119/67/207 87/67/204
f 271/63/422 270/62/423 88/67/211 119/67/210
f 270/62/424 269/61/411 120/67/425 88/67/426
f 269/61/411 268/60/427 85/67/428 120/67/425
f 268/60/427 267/46/406 117/67/220 85/67/429
f 267/46/406 266/45/430 86/67/199 117/67/223
