# Blender 5.0.1
# www.blender.org
mtllib Wire_Head_Yellow(Y1-Pin9).mtl
o Wire_Head_Yellow(Y1-Pin9)
v 0.033559 0.071526 0.249517
v 0.035680 0.070648 0.249517
v 0.033559 0.071526 0.240313
v 0.035680 0.070648 0.240313
v 0.035680 0.070732 0.240115
v 0.037800 0.071526 0.240313
v 0.037800 0.071526 0.249517
v 0.038678 0.073647 0.249517
v 0.038678 0.073647 0.240313
v 0.038595 0.073647 0.240115
v 0.037800 0.075767 0.240313
v 0.037741 0.075708 0.240115
v 0.037800 0.075767 0.249517
v 0.035680 0.076646 0.249517
v 0.035680 0.076646 0.240313
v 0.035680 0.076562 0.240115
v 0.033559 0.075767 0.240313
v 0.033618 0.075708 0.240115
v 0.033559 0.075767 0.249517
v 0.032681 0.073647 0.249517
v 0.032681 0.073647 0.240313
v 0.032764 0.073647 0.240115
v 0.033618 0.071585 0.240115
v 0.033761 0.071728 0.240033
v 0.033949 0.071916 0.240033
v 0.034092 0.072059 0.240115
v 0.035680 0.071200 0.240033
v 0.035680 0.071401 0.240115
v 0.035680 0.070934 0.240033
v 0.037598 0.071728 0.240033
v 0.037741 0.071585 0.240115
v 0.037410 0.071916 0.240033
v 0.037267 0.072059 0.240115
v 0.038127 0.073647 0.240033
v 0.037925 0.073647 0.240115
v 0.038393 0.073647 0.240033
v 0.037598 0.075565 0.240033
v 0.037410 0.075377 0.240033
v 0.037267 0.075235 0.240115
v 0.035680 0.076094 0.240033
v 0.035680 0.075892 0.240115
v 0.035680 0.076360 0.240033
v 0.033761 0.075565 0.240033
v 0.033949 0.075377 0.240033
v 0.034092 0.075235 0.240115
v 0.033232 0.073647 0.240033
v 0.033434 0.073647 0.240115
v 0.032966 0.073647 0.240033
v 0.033518 0.073647 0.240313
v 0.034151 0.072118 0.240313
v 0.035680 0.071485 0.240313
v 0.037208 0.072118 0.240313
v 0.037841 0.073647 0.240313
v 0.037208 0.075175 0.240313
v 0.035680 0.075809 0.240313
v 0.034151 0.075175 0.240313
v 0.103536 -0.005204 0.238782
v 0.103536 -0.003127 0.238782
v 0.101458 -0.003127 0.238782
v 0.101458 -0.005204 0.238782
v 0.103582 -0.005244 0.236010
v 0.103582 -0.003087 0.235978
v 0.101412 -0.003087 0.235978
v 0.101412 -0.005244 0.236010
v 0.103582 -0.008719 0.232754
v 0.103582 -0.008687 0.230597
v 0.101412 -0.008687 0.230597
v 0.101412 -0.008719 0.232754
v 0.103576 -0.014736 0.232761
v 0.103576 -0.014736 0.230590
v 0.101418 -0.014768 0.230590
v 0.101418 -0.014768 0.232761
v 0.107025 -0.018211 0.232761
v 0.107025 -0.018211 0.230590
v 0.106993 -0.020368 0.230590
v 0.106993 -0.020368 0.232761
v 0.110033 -0.018211 0.232761
v 0.110033 -0.018211 0.230590
v 0.110001 -0.020368 0.230590
v 0.110001 -0.020368 0.232761
v 0.115608 -0.024012 0.232761
v 0.115608 -0.024012 0.230590
v 0.113450 -0.024044 0.230590
v 0.113450 -0.024044 0.232761
v 0.115608 -0.046155 0.232761
v 0.115608 -0.046155 0.230590
v 0.113450 -0.046123 0.230590
v 0.113450 -0.046123 0.232761
v 0.109773 -0.051956 0.232761
v 0.109773 -0.051956 0.230590
v 0.109741 -0.049799 0.230590
v 0.109741 -0.049799 0.232761
v 0.068381 -0.051956 0.232761
v 0.068381 -0.051956 0.230590
v 0.068413 -0.049799 0.230590
v 0.068413 -0.049799 0.232761
v 0.062546 -0.046104 0.232761
v 0.062546 -0.046104 0.230590
v 0.064704 -0.046072 0.230590
v 0.064704 -0.046072 0.232761
v 0.062546 0.068841 0.232761
v 0.062546 0.068841 0.230590
v 0.064704 0.068873 0.230590
v 0.064704 0.068873 0.232761
v 0.058951 0.072568 0.232761
v 0.058951 0.072568 0.230590
v 0.058983 0.074726 0.230590
v 0.058983 0.074726 0.232761
v 0.040353 0.072562 0.232754
v 0.040321 0.072562 0.230597
v 0.040321 0.074732 0.230597
v 0.040353 0.074732 0.232754
v 0.036758 0.072562 0.236010
v 0.034601 0.072562 0.235978
v 0.034601 0.074732 0.235978
v 0.036758 0.074732 0.236010
v 0.036718 0.072608 0.238782
v 0.034641 0.072608 0.238782
v 0.034641 0.074686 0.238782
v 0.036718 0.074686 0.238782
v 0.103927 -0.004166 0.238798
v 0.102497 -0.002736 0.238798
v 0.101068 -0.004166 0.238798
v 0.102497 -0.005595 0.238798
v 0.103989 -0.004166 0.235994
v 0.102497 -0.002682 0.235972
v 0.101005 -0.004166 0.235994
v 0.102497 -0.005649 0.236016
v 0.103989 -0.008703 0.231675
v 0.102497 -0.008681 0.230192
v 0.101005 -0.008703 0.231675
v 0.102497 -0.008725 0.233159
v 0.103980 -0.014730 0.231675
v 0.102497 -0.014752 0.230183
v 0.101014 -0.014774 0.231675
v 0.102497 -0.014752 0.233168
v 0.107031 -0.017806 0.231675
v 0.107009 -0.019289 0.230183
v 0.106987 -0.020773 0.231675
v 0.107009 -0.019289 0.233168
v 0.110039 -0.017806 0.231675
v 0.110017 -0.019289 0.230183
v 0.109995 -0.020773 0.231675
v 0.110017 -0.019289 0.233168
v 0.116012 -0.024006 0.231675
v 0.114529 -0.024028 0.230183
v 0.113046 -0.024050 0.231675
v 0.114529 -0.024028 0.233168
v 0.116012 -0.046161 0.231675
v 0.114529 -0.046139 0.230183
v 0.113046 -0.046117 0.231675
v 0.114529 -0.046139 0.233168
v 0.109779 -0.052361 0.231675
v 0.109757 -0.050878 0.230183
v 0.109735 -0.049394 0.231675
v 0.109757 -0.050878 0.233168
v 0.068375 -0.052361 0.231675
v 0.068397 -0.050878 0.230183
v 0.068419 -0.049394 0.231675
v 0.068397 -0.050878 0.233168
v 0.062142 -0.046110 0.231675
v 0.063625 -0.046088 0.230183
v 0.065108 -0.046066 0.231675
v 0.063625 -0.046088 0.233168
v 0.062142 0.068835 0.231675
v 0.063625 0.068857 0.230183
v 0.065108 0.068879 0.231675
v 0.063625 0.068857 0.233168
v 0.058945 0.072164 0.231675
v 0.058967 0.073647 0.230183
v 0.058989 0.075130 0.231675
v 0.058967 0.073647 0.233168
v 0.040337 0.072155 0.231675
v 0.040315 0.073647 0.230192
v 0.040337 0.075139 0.231675
v 0.040359 0.073647 0.233159
v 0.035680 0.072155 0.235994
v 0.034196 0.073647 0.235972
v 0.035680 0.075139 0.235994
v 0.037163 0.073647 0.236016
v 0.035680 0.072217 0.238798
v 0.034250 0.073647 0.238798
v 0.035680 0.075076 0.238798
v 0.037109 0.073647 0.238798
v 0.103989 -0.004321 0.233589
v 0.103989 -0.004912 0.232312
v 0.103989 -0.006264 0.231796
v 0.103582 -0.005366 0.233855
v 0.103582 -0.005648 0.233101
v 0.103582 -0.006485 0.232852
v 0.102497 -0.005758 0.233955
v 0.102497 -0.005924 0.233397
v 0.102497 -0.006569 0.233248
v 0.101412 -0.005366 0.233855
v 0.101412 -0.005648 0.233101
v 0.101412 -0.006485 0.232852
v 0.101005 -0.004321 0.233589
v 0.101005 -0.004912 0.232312
v 0.101005 -0.006264 0.231796
v 0.101412 -0.003275 0.233324
v 0.101412 -0.004175 0.231524
v 0.101412 -0.006042 0.230741
v 0.102497 -0.002883 0.233224
v 0.102497 -0.003899 0.231228
v 0.102497 -0.005959 0.230345
v 0.103582 -0.006042 0.230741
v 0.103582 -0.004175 0.231524
v 0.103582 -0.003275 0.233324
v 0.104082 -0.016897 0.231675
v 0.104251 -0.017531 0.231675
v 0.104875 -0.017702 0.231675
v 0.103688 -0.016987 0.232761
v 0.103963 -0.017816 0.232761
v 0.104783 -0.018096 0.232761
v 0.102636 -0.017229 0.233168
v 0.103198 -0.018576 0.233168
v 0.104537 -0.019146 0.233168
v 0.101585 -0.017470 0.232761
v 0.102432 -0.019336 0.232761
v 0.104291 -0.020197 0.232761
v 0.101191 -0.017560 0.231675
v 0.102145 -0.019621 0.231675
v 0.104198 -0.020590 0.231675
v 0.101585 -0.017470 0.230590
v 0.102432 -0.019336 0.230590
v 0.104291 -0.020197 0.230590
v 0.102636 -0.017229 0.230183
v 0.103198 -0.018576 0.230183
v 0.104537 -0.019146 0.230183
v 0.104783 -0.018096 0.230590
v 0.103963 -0.017816 0.230590
v 0.103688 -0.016987 0.230590
v 0.112894 -0.018014 0.231675
v 0.114948 -0.019056 0.231675
v 0.115854 -0.021175 0.231675
v 0.112795 -0.018406 0.232761
v 0.114652 -0.019332 0.232761
v 0.115458 -0.021258 0.232761
v 0.112529 -0.019451 0.233168
v 0.113864 -0.020068 0.233168
v 0.114403 -0.021480 0.233168
v 0.112264 -0.020497 0.232761
v 0.113075 -0.020804 0.232761
v 0.113347 -0.021702 0.232761
v 0.112164 -0.020889 0.231675
v 0.112779 -0.021081 0.231675
v 0.112951 -0.021785 0.231675
v 0.112264 -0.020497 0.230590
v 0.113075 -0.020804 0.230590
v 0.113347 -0.021702 0.230590
v 0.112529 -0.019451 0.230183
v 0.113864 -0.020068 0.230183
v 0.114403 -0.021480 0.230183
v 0.115458 -0.021258 0.230590
v 0.114652 -0.019332 0.230590
v 0.112795 -0.018406 0.230590
v 0.115822 -0.049077 0.231675
v 0.114821 -0.051197 0.231675
v 0.112691 -0.052178 0.231675
v 0.115428 -0.048984 0.232761
v 0.114537 -0.050910 0.232761
v 0.112600 -0.051783 0.232761
v 0.114378 -0.048737 0.233168
v 0.113778 -0.050143 0.233168
v 0.112360 -0.050732 0.233168
v 0.113328 -0.048490 0.232761
v 0.113019 -0.049377 0.232761
v 0.112120 -0.049680 0.232761
v 0.112934 -0.048398 0.231675
v 0.112734 -0.049089 0.231675
v 0.112029 -0.049286 0.231675
v 0.113328 -0.048490 0.230590
v 0.113019 -0.049377 0.230590
v 0.112120 -0.049680 0.230590
v 0.114378 -0.048737 0.230183
v 0.113778 -0.050143 0.230183
v 0.112360 -0.050732 0.230183
v 0.112600 -0.051783 0.230590
v 0.114537 -0.050910 0.230590
v 0.115428 -0.048984 0.230590
v 0.065447 -0.052172 0.231675
v 0.063316 -0.051173 0.231675
v 0.062327 -0.049037 0.231675
v 0.065539 -0.051778 0.232761
v 0.063603 -0.050887 0.232761
v 0.062722 -0.048946 0.232761
v 0.065784 -0.050727 0.233168
v 0.064368 -0.050126 0.233168
v 0.063773 -0.048704 0.233168
v 0.066029 -0.049676 0.232761
v 0.065132 -0.049365 0.232761
v 0.064824 -0.048462 0.232761
v 0.066121 -0.049282 0.231675
v 0.065419 -0.049080 0.231675
v 0.065218 -0.048371 0.231675
v 0.066029 -0.049676 0.230590
v 0.065132 -0.049365 0.230590
v 0.064824 -0.048462 0.230590
v 0.065784 -0.050727 0.230183
v 0.064368 -0.050126 0.230183
v 0.063773 -0.048704 0.230183
v 0.062722 -0.048946 0.230590
v 0.063603 -0.050887 0.230590
v 0.065539 -0.051778 0.230590
v 0.062039 0.071133 0.231675
v 0.061851 0.071848 0.231675
v 0.061188 0.072048 0.231675
v 0.062434 0.071220 0.232761
v 0.062142 0.072128 0.232761
v 0.061284 0.072441 0.232761
v 0.063488 0.071451 0.233168
v 0.062920 0.072876 0.233168
v 0.061540 0.073489 0.233168
v 0.064542 0.071682 0.232761
v 0.063698 0.073624 0.232761
v 0.061796 0.074537 0.232761
v 0.064937 0.071769 0.231675
v 0.063989 0.073904 0.231675
v 0.061892 0.074930 0.231675
v 0.064542 0.071682 0.230590
v 0.063698 0.073624 0.230590
v 0.061796 0.074537 0.230590
v 0.063488 0.071451 0.230183
v 0.062920 0.072876 0.230183
v 0.061540 0.073489 0.230183
v 0.061284 0.072441 0.230590
v 0.062142 0.072128 0.230590
v 0.062434 0.071220 0.230590
v 0.037855 0.072155 0.231789
v 0.036464 0.072155 0.232291
v 0.035846 0.072155 0.233565
v 0.038065 0.072562 0.232847
v 0.037186 0.072562 0.233093
v 0.036888 0.072562 0.233843
v 0.038144 0.073647 0.233244
v 0.037457 0.073647 0.233394
v 0.037279 0.073647 0.233947
v 0.038065 0.074732 0.232847
v 0.037186 0.074732 0.233093
v 0.036888 0.074732 0.233843
v 0.037855 0.075139 0.231789
v 0.036464 0.075139 0.232291
v 0.035846 0.075139 0.233565
v 0.037645 0.074732 0.230730
v 0.035743 0.074732 0.231489
v 0.034803 0.074732 0.233288
v 0.037566 0.073647 0.230334
v 0.035472 0.073647 0.231188
v 0.034412 0.073647 0.233183
v 0.034803 0.072562 0.233288
v 0.035743 0.072562 0.231489
v 0.037645 0.072562 0.230730
v 0.100377 -0.006286 0.249517
v 0.102497 -0.007164 0.249517
v 0.100377 -0.006286 0.240313
v 0.102497 -0.007164 0.240313
v 0.102497 -0.007081 0.240115
v 0.104618 -0.006286 0.240313
v 0.104618 -0.006286 0.249517
v 0.105496 -0.004166 0.249517
v 0.105496 -0.004166 0.240313
v 0.105412 -0.004166 0.240115
v 0.104618 -0.002045 0.240313
v 0.104558 -0.002104 0.240115
v 0.104618 -0.002045 0.249517
v 0.102497 -0.001167 0.249517
v 0.102497 -0.001167 0.240313
v 0.102497 -0.001250 0.240115
v 0.100377 -0.002045 0.240313
v 0.100436 -0.002104 0.240115
v 0.100377 -0.002045 0.249517
v 0.099498 -0.004166 0.249517
v 0.099498 -0.004166 0.240313
v 0.099582 -0.004166 0.240115
v 0.100436 -0.006227 0.240115
v 0.100579 -0.006084 0.240033
v 0.100767 -0.005896 0.240033
v 0.100909 -0.005753 0.240115
v 0.102497 -0.006613 0.240033
v 0.102497 -0.006411 0.240115
v 0.102497 -0.006879 0.240033
v 0.104416 -0.006084 0.240033
v 0.104558 -0.006227 0.240115
v 0.104228 -0.005896 0.240033
v 0.104085 -0.005753 0.240115
v 0.104944 -0.004166 0.240033
v 0.104742 -0.004166 0.240115
v 0.105210 -0.004166 0.240033
v 0.104416 -0.002247 0.240033
v 0.104228 -0.002435 0.240033
v 0.104085 -0.002578 0.240115
v 0.102497 -0.001718 0.240033
v 0.102497 -0.001920 0.240115
v 0.102497 -0.001452 0.240033
v 0.100579 -0.002247 0.240033
v 0.100767 -0.002435 0.240033
v 0.100909 -0.002578 0.240115
v 0.100050 -0.004166 0.240033
v 0.100252 -0.004166 0.240115
v 0.099784 -0.004166 0.240033
v 0.100335 -0.004166 0.240313
v 0.100969 -0.005694 0.240313
v 0.102497 -0.006327 0.240313
v 0.104026 -0.005694 0.240313
v 0.104659 -0.004166 0.240313
v 0.104026 -0.002637 0.240313
v 0.102497 -0.002004 0.240313
v 0.100969 -0.002637 0.240313
vn -0.5263 -0.5263 -0.6678
vn -0.0000 -0.7444 -0.6678
vn -0.0000 -0.9818 -0.1897
vn -0.6943 -0.6943 -0.1897
vn 0.5263 -0.5263 -0.6678
vn 0.6943 -0.6943 -0.1897
vn 0.7071 -0.7071 -0.0000
vn -0.0000 -1.0000 -0.0000
vn 0.5263 0.5263 -0.6678
vn 0.6943 0.6943 -0.1897
vn 0.9818 -0.0000 -0.1897
vn 0.7444 -0.0000 -0.6678
vn -0.5263 0.5263 -0.6678
vn -0.6943 0.6943 -0.1897
vn -0.0000 0.9818 -0.1897
vn -0.0000 0.7444 -0.6678
vn 0.7071 0.7071 -0.0000
vn 1.0000 -0.0000 -0.0000
vn 0.1448 -0.0000 -0.9895
vn 0.1024 0.1024 -0.9895
vn -0.1676 -0.1676 -0.9715
vn -0.2370 -0.0000 -0.9715
vn 0.1676 -0.1676 -0.9715
vn 0.2370 -0.0000 -0.9715
vn -1.0000 -0.0000 -0.0000
vn -0.7071 0.7071 -0.0000
vn -0.9818 -0.0000 -0.1897
vn -0.0000 1.0000 -0.0000
vn 0.1676 0.1676 -0.9715
vn -0.0000 0.2370 -0.9715
vn -0.7444 -0.0000 -0.6678
vn -0.7071 -0.7071 -0.0000
vn -0.0000 0.6474 -0.7621
vn -0.0000 0.1448 -0.9895
vn 0.4578 0.4578 -0.7621
vn -0.0000 -0.2370 -0.9715
vn 0.6514 0.6514 -0.3891
vn -0.0000 0.9212 -0.3891
vn -0.1676 0.1676 -0.9715
vn -0.6474 -0.0000 -0.7621
vn -0.1448 -0.0000 -0.9895
vn -0.1024 0.1024 -0.9895
vn -0.4578 0.4578 -0.7621
vn -0.0000 -0.6474 -0.7621
vn -0.0000 -0.1448 -0.9895
vn -0.1024 -0.1024 -0.9895
vn -0.4578 -0.4578 -0.7621
vn 0.6474 -0.0000 -0.7621
vn 0.1024 -0.1024 -0.9895
vn 0.4578 -0.4578 -0.7621
vn 0.9212 -0.0000 -0.3891
vn -0.6514 0.6514 -0.3891
vn -0.9212 -0.0000 -0.3890
vn -0.6514 -0.6514 -0.3891
vn -0.0000 -0.9212 -0.3891
vn 0.6514 -0.6514 -0.3891
vn 0.9999 0.0073 0.0101
vn 0.7008 0.7132 -0.0146
vn 0.6893 0.6904 -0.2196
vn 0.9761 0.0001 -0.2175
vn -0.0000 0.9997 -0.0260
vn -0.0000 0.9758 -0.2187
vn -0.7008 0.7132 -0.0146
vn -0.6893 0.6904 -0.2196
vn -0.9999 0.0073 0.0101
vn -0.9761 0.0001 -0.2175
vn -0.7088 -0.7048 0.0308
vn -0.6894 -0.6903 -0.2195
vn -0.0000 -0.9993 0.0375
vn -0.0000 -0.9758 -0.2185
vn 0.7088 -0.7048 0.0308
vn 0.6894 -0.6903 -0.2195
vn -0.0063 -0.0003 -1.0000
vn -0.7120 -0.0220 -0.7018
vn -0.7024 0.0194 -0.7116
vn -0.0000 0.0281 -0.9996
vn 0.7050 0.0176 0.7090
vn 0.9997 0.0237 -0.0000
vn 1.0000 0.0001 -0.0055
vn 0.7087 -0.0155 0.7053
vn -0.9995 -0.0317 -0.0000
vn -0.7120 -0.0220 0.7018
vn -0.7087 -0.0155 0.7053
vn -1.0000 0.0001 -0.0055
vn 0.7050 0.0176 -0.7090
vn 0.7024 0.0194 -0.7116
vn -0.0063 -0.0003 1.0000
vn -0.0000 -0.0209 0.9998
vn 0.0252 0.7135 0.7002
vn 0.0356 0.9994 -0.0000
vn 0.0250 0.9997 -0.0000
vn 0.0181 0.7058 0.7082
vn 0.0252 0.7135 -0.7002
vn 0.0181 0.7058 -0.7082
vn 0.0010 0.0072 -1.0000
vn -0.0009 -0.0065 -1.0000
vn -0.0201 -0.7055 -0.7084
vn -0.0226 -0.7130 -0.7008
vn -0.0277 -0.9996 -0.0000
vn -0.0320 -0.9995 -0.0000
vn -0.0201 -0.7055 0.7084
vn -0.0226 -0.7130 0.7008
vn 0.0010 0.0072 1.0000
vn -0.0009 -0.0065 1.0000
vn 0.7124 0.0193 -0.7015
vn 0.9996 0.0274 -0.0000
vn 0.9995 -0.0320 -0.0000
vn 0.7130 -0.0226 -0.7008
vn -0.7062 -0.0156 -0.7079
vn 0.0055 0.0007 -1.0000
vn 0.0065 -0.0008 -1.0000
vn -0.7057 0.0183 -0.7082
vn 0.7124 0.0193 0.7015
vn 0.7130 -0.0226 0.7008
vn -0.7062 -0.0156 0.7079
vn -0.9998 -0.0216 -0.0000
vn -0.9997 0.0253 -0.0000
vn -0.7057 0.0183 0.7082
vn 0.0055 0.0007 1.0000
vn 0.0065 -0.0008 1.0000
vn 0.0218 -0.7129 -0.7010
vn 0.0308 -0.9995 -0.0000
vn -0.0317 -0.9995 -0.0000
vn -0.0224 -0.7130 -0.7008
vn -0.0176 0.7058 -0.7081
vn 0.0008 -0.0062 -1.0000
vn -0.0008 -0.0064 -1.0000
vn 0.0218 -0.7129 0.7010
vn -0.0224 -0.7130 0.7008
vn -0.0176 0.7058 0.7081
vn -0.0244 0.9997 -0.0000
vn 0.0251 0.9997 -0.0000
vn 0.0008 -0.0062 1.0000
vn -0.0008 -0.0064 1.0000
vn -0.7129 -0.0220 -0.7009
vn -0.9995 -0.0311 -0.0000
vn -0.9997 -0.0230 -0.0000
vn -0.7060 -0.0167 -0.7080
vn 0.7058 0.0178 -0.7082
vn -0.0063 -0.0008 -1.0000
vn 0.0059 0.0007 -1.0000
vn 0.7126 0.0206 -0.7012
vn -0.7129 -0.0220 0.7009
vn -0.7060 -0.0167 0.7080
vn 0.7058 0.0178 0.7082
vn 0.9997 0.0246 -0.0000
vn 0.9996 0.0291 -0.0000
vn 0.7126 0.0206 0.7012
vn -0.0063 -0.0008 1.0000
vn 0.0059 0.0007 1.0000
vn -0.0192 -0.7048 -0.7091
vn -0.0264 -0.9997 -0.0000
vn -0.0004 -1.0000 -0.0051
vn -0.0178 -0.7026 -0.7114
vn 0.0239 0.7125 -0.7013
vn 0.0007 0.0068 -1.0000
vn -0.0255 -0.0000 -0.9997
vn -0.0178 0.7026 -0.7114
vn -0.0192 -0.7048 0.7091
vn 0.0143 -0.7085 0.7056
vn 0.0239 0.7125 0.7013
vn 0.0340 0.9994 -0.0000
vn -0.0004 1.0000 -0.0051
vn 0.0143 0.7085 0.7056
vn 0.0007 0.0068 1.0000
vn 0.0196 -0.0000 0.9998
vn 0.6903 -0.6894 -0.2195
vn -0.0001 -0.9761 -0.2175
vn -0.0077 -0.9999 0.0100
vn 0.7046 -0.7089 0.0320
vn -0.6904 -0.6893 -0.2196
vn -0.7135 -0.7005 -0.0161
vn -0.9758 -0.0000 -0.2187
vn -0.9996 -0.0000 -0.0281
vn -0.6904 0.6893 -0.2196
vn -0.7135 0.7005 -0.0161
vn -0.0001 0.9761 -0.2175
vn -0.0077 0.9999 0.0100
vn 0.6903 0.6894 -0.2195
vn 0.7046 0.7089 0.0320
vn 0.9758 -0.0000 -0.2185
vn 0.9992 -0.0000 0.0391
vn -0.0000 0.2257 -0.9742
vn 0.6818 0.1643 -0.7129
vn -0.6818 0.1643 -0.7129
vn -0.9994 0.0121 -0.0329
vn -0.7170 -0.1142 0.6877
vn -0.0000 -0.1503 0.9886
vn 0.7170 -0.1142 0.6877
vn 0.9994 0.0121 -0.0329
vn 0.9963 0.0590 -0.0628
vn 0.7826 -0.4251 0.4547
vn 0.9992 0.0382 -0.0149
vn 0.7212 -0.6783 0.1410
vn -0.0000 -0.6835 0.7299
vn -0.0000 -0.9821 0.1884
vn -0.7826 -0.4251 0.4547
vn -0.7212 -0.6783 0.1410
vn -0.9963 0.0590 -0.0628
vn -0.9992 0.0382 -0.0149
vn -0.6678 0.5086 -0.5435
vn -0.6792 0.7077 -0.1945
vn -0.0000 0.6833 -0.7302
vn -0.0000 0.9640 -0.2658
vn 0.6678 0.5086 -0.5435
vn 0.6792 0.7077 -0.1945
vn -0.0135 -0.0359 -0.9993
vn 0.1301 0.6822 -0.7195
vn -0.1809 -0.7103 -0.6803
vn -0.2477 -0.9688 -0.0000
vn -0.1809 -0.7103 0.6803
vn -0.0135 -0.0359 0.9993
vn 0.1301 0.6822 0.7195
vn 0.1735 0.9848 -0.0000
vn 0.7097 0.7045 -0.0000
vn 0.4423 0.4389 0.7822
vn 0.9856 0.1692 -0.0000
vn 0.6833 0.1271 0.7190
vn -0.0611 -0.0607 0.9963
vn -0.0353 -0.0132 0.9993
vn -0.5283 -0.5244 0.6678
vn -0.7108 -0.1775 0.6806
vn -0.7097 -0.7045 -0.0000
vn -0.9700 -0.2432 -0.0000
vn -0.5283 -0.5244 -0.6678
vn -0.7108 -0.1775 -0.6806
vn -0.0611 -0.0607 -0.9963
vn -0.0353 -0.0132 -0.9993
vn 0.4423 0.4389 -0.7822
vn 0.6833 0.1271 -0.7190
vn 0.0330 0.0119 -0.9994
vn 0.7129 0.1640 -0.6818
vn -0.6868 -0.1164 -0.7175
vn -0.9880 -0.1546 -0.0000
vn -0.6868 -0.1164 0.7175
vn 0.0330 0.0119 0.9994
vn 0.7129 0.1640 0.6818
vn 0.9743 0.2253 -0.0000
vn 0.7300 0.6834 -0.0000
vn 0.5434 0.5088 0.6677
vn 0.2651 0.9642 -0.0000
vn 0.1940 0.7079 0.6792
vn 0.0627 0.0589 0.9963
vn 0.0147 0.0383 0.9992
vn -0.4558 -0.4262 0.7814
vn -0.1431 -0.6772 0.7217
vn -0.7301 -0.6834 -0.0000
vn -0.1929 -0.9812 -0.0000
vn -0.4558 -0.4262 -0.7814
vn -0.1431 -0.6772 -0.7217
vn 0.0627 0.0589 -0.9963
vn 0.0147 0.0383 -0.9992
vn 0.5434 0.5088 -0.6677
vn 0.1940 0.7079 -0.6792
vn 0.0129 -0.0353 -0.9993
vn 0.1765 -0.7110 -0.6807
vn -0.1290 0.6824 -0.7195
vn -0.1732 0.9849 -0.0000
vn -0.1290 0.6824 0.7195
vn 0.0129 -0.0353 0.9993
vn 0.1765 -0.7110 0.6807
vn 0.2419 -0.9703 -0.0000
vn 0.7037 -0.7105 -0.0000
vn 0.5238 -0.5289 0.6677
vn 0.9688 -0.2477 -0.0000
vn 0.7103 -0.1809 0.6803
vn 0.0605 -0.0611 0.9963
vn 0.0361 -0.0133 0.9993
vn -0.4396 0.4440 0.7808
vn -0.6810 0.1329 0.7201
vn -0.7037 0.7105 -0.0000
vn -0.9839 0.1789 -0.0000
vn -0.4396 0.4440 -0.7808
vn -0.6810 0.1329 -0.7201
vn 0.0605 -0.0611 -0.9963
vn 0.0361 -0.0133 -0.9993
vn 0.5238 -0.5289 -0.6677
vn 0.7103 -0.1809 -0.6803
vn -0.0355 -0.0130 -0.9993
vn -0.7108 -0.1776 -0.6806
vn 0.6819 0.1302 -0.7197
vn 0.9845 0.1751 -0.0000
vn 0.6819 0.1302 0.7197
vn -0.0355 -0.0130 0.9993
vn -0.7108 -0.1776 0.6806
vn -0.7088 -0.7054 -0.0000
vn -0.5277 -0.5251 0.6677
vn -0.2462 -0.9692 -0.0000
vn -0.1798 -0.7105 0.6804
vn -0.0610 -0.0607 0.9963
vn -0.0132 -0.0359 0.9993
vn 0.4430 0.4408 0.7807
vn 0.1322 0.6812 0.7200
vn 0.7088 0.7054 -0.0000
vn 0.1779 0.9840 -0.0000
vn 0.4430 0.4408 -0.7807
vn 0.1322 0.6812 -0.7200
vn -0.0610 -0.0607 -0.9963
vn -0.0132 -0.0359 -0.9993
vn -0.5277 -0.5251 -0.6677
vn -0.1798 -0.7105 -0.6804
vn 0.0140 0.0372 -0.9992
vn -0.1383 -0.6790 -0.7210
vn 0.1873 0.7091 -0.6797
vn 0.2562 0.9666 -0.0000
vn 0.1873 0.7091 0.6797
vn 0.0140 0.0372 0.9992
vn -0.1383 -0.6790 0.7210
vn -0.1865 -0.9824 -0.0000
vn -0.7204 -0.6936 -0.0000
vn -0.4501 -0.4331 0.7809
vn -0.9864 -0.1645 -0.0000
vn -0.6845 -0.1230 0.7186
vn 0.0619 0.0597 0.9963
vn 0.0342 0.0123 0.9993
vn 0.5362 0.5164 0.6677
vn 0.7120 0.1702 0.6812
vn 0.7203 0.6937 -0.0000
vn 0.9724 0.2335 -0.0000
vn 0.5362 0.5164 -0.6677
vn 0.7120 0.1702 -0.6812
vn 0.0619 0.0597 -0.9963
vn 0.0342 0.0123 -0.9993
vn -0.4501 -0.4331 -0.7809
vn -0.6845 -0.1230 -0.7186
vn -0.9611 -0.0000 -0.2763
vn -0.7062 -0.6785 -0.2025
vn -0.7062 0.6785 -0.2025
vn -0.0397 0.9991 -0.0157
vn 0.6750 0.7226 0.1490
vn 0.9797 -0.0000 0.2005
vn 0.6750 -0.7226 0.1490
vn -0.0397 -0.9991 -0.0157
vn -0.0578 -0.9963 -0.0637
vn 0.4174 -0.7820 0.4629
vn -0.0113 -0.9994 -0.0315
vn 0.1079 -0.7161 0.6896
vn 0.6705 -0.0000 0.7419
vn 0.1418 -0.0000 0.9899
vn 0.4174 0.7820 0.4628
vn 0.1079 0.7161 0.6896
vn -0.0578 0.9963 -0.0637
vn -0.0113 0.9994 -0.0315
vn -0.4990 0.6678 -0.5524
vn -0.1563 0.6825 -0.7140
vn -0.6703 -0.0000 -0.7421
vn -0.2149 -0.0000 -0.9766
vn -0.4990 -0.6678 -0.5524
vn -0.1563 -0.6825 -0.7140
vn 0.7443 -0.0000 -0.6678
vn -0.7443 -0.0000 -0.6678
vn 0.9212 -0.0000 -0.3890
vn -0.0000 -0.9068 -0.4215
vn -0.6397 -0.6397 -0.4260
vn 0.6397 -0.6397 -0.4260
vn 0.9068 -0.0000 -0.4215
vn 0.6397 0.6397 -0.4260
vn -0.0000 0.9068 -0.4215
vn -0.6397 0.6397 -0.4260
vn -0.9068 -0.0000 -0.4215
vt 0.636322 0.771411
vt 0.587470 0.804750
vt 0.582466 0.801554
vt 0.635177 0.765465
vt 0.576221 0.861411
vt 0.570569 0.862499
vt 0.433500 0.501817
vt 0.495149 0.501817
vt 0.495149 0.744281
vt 0.433500 0.744281
vt 0.667721 0.922223
vt 0.668877 0.928042
vt 0.605422 0.915050
vt 0.608737 0.910132
vt 0.727696 0.832155
vt 0.733433 0.831018
vt 0.721608 0.892773
vt 0.716620 0.889535
vt 0.310201 0.501817
vt 0.371850 0.501817
vt 0.371850 0.744281
vt 0.310201 0.744281
vt 0.687564 0.793554
vt 0.638896 0.784065
vt 0.637511 0.777194
vt 0.691445 0.787669
vt 0.581871 0.860294
vt 0.612010 0.905265
vt 0.125252 0.501817
vt 0.186902 0.501817
vt 0.186902 0.744281
vt 0.125252 0.744281
vt 0.248551 0.501817
vt 0.248551 0.744281
vt 0.666609 0.916401
vt 0.711799 0.886320
vt 0.694675 0.782803
vt 0.697976 0.777719
vt 0.063603 0.501817
vt 0.063603 0.744281
vt 0.602608 0.814790
vt 0.598019 0.811727
vt 0.639988 0.789629
vt 0.592254 0.807905
vt 0.641149 0.795086
vt 0.607213 0.817814
vt 0.722022 0.833305
vt 0.619061 0.894562
vt 0.615915 0.899401
vt 0.588618 0.858968
vt 0.594043 0.857906
vt 0.701466 0.879486
vt 0.706041 0.882519
vt 0.665296 0.909466
vt 0.664231 0.903895
vt 0.684425 0.798269
vt 0.715204 0.834694
vt 0.709684 0.835861
vt 0.681227 0.803114
vt 0.599435 0.856891
vt 0.622123 0.889732
vt 0.663198 0.898415
vt 0.696941 0.876438
vt 0.704000 0.837048
vt 0.001953 0.501817
vt 0.001953 0.744281
vt 0.000000 0.000000
s 1
usemtl Material.003
f 23/1/1 5/2/2 4/3/3 3/4/4
f 31/5/5 6/6/6 4/3/3 5/2/2
f 7/7/7 2/8/8 4/9/3 6/10/6
f 12/11/9 11/12/10 9/13/11 10/14/12
f 18/15/13 17/16/14 15/17/15 16/18/16
f 13/19/17 8/20/18 9/21/11 11/22/10
f 46/23/19 25/24/20 24/25/21 48/26/22
f 30/27/23 36/28/24 10/14/12 31/5/5
f 8/20/18 7/7/7 6/10/6 9/21/11
f 20/29/25 19/30/26 17/31/14 21/32/27
f 19/30/26 14/33/28 15/34/15 17/31/14
f 37/35/29 42/36/30 16/18/16 12/11/9
f 22/37/31 23/1/1 3/4/4 21/38/27
f 48/26/22 24/25/21 23/1/1 22/37/31
f 1/39/32 20/29/25 21/32/27 3/40/4
f 28/41/33 27/42/34 25/24/20 26/43/35
f 14/33/28 13/19/17 11/22/10 15/34/15
f 24/25/21 29/44/36 5/2/2 23/1/1
f 29/44/36 30/27/23 31/5/5 5/2/2
f 25/24/20 27/42/34 29/44/36 24/25/21
f 50/45/37 51/46/38 28/41/33 26/43/35
f 43/47/39 48/26/22 22/37/31 18/15/13
f 35/48/40 34/49/41 32/50/42 33/51/43
f 27/42/34 32/50/42 30/27/23 29/44/36
f 31/5/5 10/14/12 9/13/11 6/6/6
f 36/28/24 37/35/29 12/11/9 10/14/12
f 32/50/42 34/49/41 36/28/24 30/27/23
f 28/41/33 33/51/43 32/50/42 27/42/34
f 41/52/44 40/53/45 38/54/46 39/55/47
f 34/49/41 38/54/46 37/35/29 36/28/24
f 12/11/9 16/18/16 15/17/15 11/12/10
f 42/36/30 43/47/39 18/15/13 16/18/16
f 38/54/46 40/53/45 42/36/30 37/35/29
f 35/48/40 39/55/47 38/54/46 34/49/41
f 47/56/48 46/23/19 44/57/49 45/58/50
f 40/53/45 44/57/49 43/47/39 42/36/30
f 18/15/13 22/37/31 21/38/27 17/16/14
f 49/59/51 50/45/37 26/43/35 47/56/48
f 44/57/49 46/23/19 48/26/22 43/47/39
f 41/52/44 45/58/50 44/57/49 40/53/45
f 47/56/48 26/43/35 25/24/20 46/23/19
f 51/46/38 52/60/52 33/51/43 28/41/33
f 52/60/52 53/61/53 35/48/40 33/51/43
f 53/61/53 54/62/54 39/55/47 35/48/40
f 54/62/54 55/63/55 41/52/44 39/55/47
f 55/63/55 56/64/56 45/58/50 41/52/44
f 56/64/56 49/59/51 47/56/48 45/58/50
f 2/65/8 1/39/32 3/40/4 4/66/3
f 125/67/57 62/67/58 58/67/59 121/67/60
f 62/67/58 126/67/61 122/67/62 58/67/59
f 126/67/61 63/67/63 59/67/64 122/67/62
f 63/67/63 127/67/65 123/67/66 59/67/64
f 127/67/65 64/67/67 60/67/68 123/67/66
f 64/67/67 128/67/69 124/67/70 60/67/68
f 128/67/69 61/67/71 57/67/72 124/67/70
f 134/67/73 71/67/74 67/67/75 130/67/76
f 69/67/77 133/67/78 129/67/79 65/67/80
f 135/67/81 72/67/82 68/67/83 131/67/84
f 70/67/85 134/67/73 130/67/76 66/67/86
f 136/67/87 69/67/77 65/67/80 132/67/88
f 71/67/74 135/67/81 131/67/84 67/67/75
f 72/67/82 136/67/87 132/67/88 68/67/83
f 77/67/89 141/67/90 137/67/91 73/67/92
f 141/67/90 78/67/93 74/67/94 137/67/91
f 78/67/93 142/67/95 138/67/96 74/67/94
f 142/67/95 79/67/97 75/67/98 138/67/96
f 79/67/97 143/67/99 139/67/100 75/67/98
f 143/67/99 80/67/101 76/67/102 139/67/100
f 80/67/101 144/67/103 140/67/104 76/67/102
f 144/67/103 77/67/89 73/67/92 140/67/104
f 82/67/105 145/67/106 149/67/107 86/67/108
f 83/67/109 146/67/110 150/67/111 87/67/112
f 145/67/106 81/67/113 85/67/114 149/67/107
f 84/67/115 147/67/116 151/67/117 88/67/118
f 146/67/110 82/67/105 86/67/108 150/67/111
f 81/67/113 148/67/119 152/67/120 85/67/114
f 147/67/116 83/67/109 87/67/112 151/67/117
f 148/67/119 84/67/115 88/67/118 152/67/120
f 90/67/121 153/67/122 157/67/123 94/67/124
f 91/67/125 154/67/126 158/67/127 95/67/94
f 153/67/122 89/67/128 93/67/129 157/67/123
f 92/67/130 155/67/131 159/67/132 96/67/92
f 154/67/126 90/67/121 94/67/124 158/67/127
f 89/67/128 156/67/133 160/67/134 93/67/129
f 155/67/131 91/67/125 95/67/94 159/67/132
f 156/67/133 92/67/130 96/67/92 160/67/134
f 98/67/135 161/67/136 165/67/137 102/67/138
f 99/67/139 162/67/140 166/67/141 103/67/142
f 161/67/136 97/67/143 101/67/144 165/67/137
f 100/67/145 163/67/146 167/67/147 104/67/148
f 162/67/140 98/67/135 102/67/138 166/67/141
f 97/67/143 164/67/149 168/67/150 101/67/144
f 163/67/146 99/67/139 103/67/142 167/67/147
f 164/67/149 100/67/145 104/67/148 168/67/150
f 106/67/151 169/67/152 173/67/153 110/67/154
f 107/67/155 170/67/156 174/67/157 111/67/158
f 169/67/152 105/67/159 109/67/160 173/67/153
f 108/67/161 171/67/162 175/67/163 112/67/164
f 170/67/156 106/67/151 110/67/154 174/67/157
f 105/67/159 172/67/165 176/67/166 109/67/160
f 171/67/162 107/67/155 111/67/158 175/67/163
f 172/67/165 108/67/161 112/67/164 176/67/166
f 117/67/167 181/67/168 177/67/169 113/67/170
f 181/67/168 118/67/171 114/67/172 177/67/169
f 118/67/171 182/67/173 178/67/174 114/67/172
f 182/67/173 119/67/175 115/67/176 178/67/174
f 119/67/175 183/67/177 179/67/178 115/67/176
f 183/67/177 120/67/179 116/67/180 179/67/178
f 120/67/179 184/67/181 180/67/182 116/67/180
f 184/67/181 117/67/167 113/67/170 180/67/182
f 133/67/78 70/67/85 66/67/86 129/67/79
f 61/67/71 125/67/57 121/67/60 57/67/72
f 66/67/86 130/67/76 205/67/183 206/67/184
f 130/67/76 67/67/75 202/67/185 205/67/183
f 67/67/75 131/67/84 199/67/186 202/67/185
f 131/67/84 68/67/83 196/67/187 199/67/186
f 68/67/83 132/67/88 193/67/188 196/67/187
f 132/67/88 65/67/80 190/67/189 193/67/188
f 65/67/80 129/67/79 187/67/190 190/67/189
f 129/67/79 66/67/86 206/67/184 187/67/190
f 190/67/189 187/67/190 186/67/191 189/67/192
f 189/67/192 186/67/191 185/67/193 188/67/194
f 188/67/194 185/67/193 125/67/57 61/67/71
f 193/67/188 190/67/189 189/67/192 192/67/195
f 192/67/195 189/67/192 188/67/194 191/67/196
f 191/67/196 188/67/194 61/67/71 128/67/69
f 196/67/187 193/67/188 192/67/195 195/67/197
f 195/67/197 192/67/195 191/67/196 194/67/198
f 194/67/198 191/67/196 128/67/69 64/67/67
f 199/67/186 196/67/187 195/67/197 198/67/199
f 198/67/199 195/67/197 194/67/198 197/67/200
f 197/67/200 194/67/198 64/67/67 127/67/65
f 202/67/185 199/67/186 198/67/199 201/67/201
f 201/67/201 198/67/199 197/67/200 200/67/202
f 200/67/202 197/67/200 127/67/65 63/67/63
f 205/67/183 202/67/185 201/67/201 204/67/203
f 204/67/203 201/67/201 200/67/202 203/67/204
f 203/67/204 200/67/202 63/67/63 126/67/61
f 206/67/184 205/67/183 204/67/203 207/67/205
f 207/67/205 204/67/203 203/67/204 208/67/206
f 208/67/206 203/67/204 126/67/61 62/67/58
f 187/67/190 206/67/184 207/67/205 186/67/191
f 186/67/191 207/67/205 208/67/206 185/67/193
f 185/67/193 208/67/206 62/67/58 125/67/57
f 74/67/94 138/67/96 229/67/207 230/67/208
f 138/67/96 75/67/98 226/67/209 229/67/207
f 75/67/98 139/67/100 223/67/210 226/67/209
f 139/67/100 76/67/102 220/67/211 223/67/210
f 76/67/102 140/67/104 217/67/212 220/67/211
f 140/67/104 73/67/92 214/67/213 217/67/212
f 73/67/92 137/67/91 211/67/214 214/67/213
f 137/67/91 74/67/94 230/67/208 211/67/214
f 214/67/213 211/67/214 210/67/215 213/67/216
f 213/67/216 210/67/215 209/67/217 212/67/218
f 212/67/218 209/67/217 133/67/78 69/67/77
f 217/67/212 214/67/213 213/67/216 216/67/219
f 216/67/219 213/67/216 212/67/218 215/67/220
f 215/67/220 212/67/218 69/67/77 136/67/87
f 220/67/211 217/67/212 216/67/219 219/67/221
f 219/67/221 216/67/219 215/67/220 218/67/222
f 218/67/222 215/67/220 136/67/87 72/67/82
f 223/67/210 220/67/211 219/67/221 222/67/223
f 222/67/223 219/67/221 218/67/222 221/67/224
f 221/67/224 218/67/222 72/67/82 135/67/81
f 226/67/209 223/67/210 222/67/223 225/67/225
f 225/67/225 222/67/223 221/67/224 224/67/226
f 224/67/226 221/67/224 135/67/81 71/67/74
f 229/67/207 226/67/209 225/67/225 228/67/227
f 228/67/227 225/67/225 224/67/226 227/67/228
f 227/67/228 224/67/226 71/67/74 134/67/73
f 230/67/208 229/67/207 228/67/227 231/67/229
f 231/67/229 228/67/227 227/67/228 232/67/230
f 232/67/230 227/67/228 134/67/73 70/67/85
f 211/67/214 230/67/208 231/67/229 210/67/215
f 210/67/215 231/67/229 232/67/230 209/67/217
f 209/67/217 232/67/230 70/67/85 133/67/78
f 82/67/105 146/67/110 253/67/231 254/67/232
f 146/67/110 83/67/109 250/67/233 253/67/231
f 83/67/109 147/67/116 247/67/234 250/67/233
f 147/67/116 84/67/115 244/67/235 247/67/234
f 84/67/115 148/67/119 241/67/236 244/67/235
f 148/67/119 81/67/113 238/67/237 241/67/236
f 81/67/113 145/67/106 235/67/238 238/67/237
f 145/67/106 82/67/105 254/67/232 235/67/238
f 238/67/237 235/67/238 234/67/239 237/67/240
f 237/67/240 234/67/239 233/67/241 236/67/242
f 236/67/242 233/67/241 141/67/90 77/67/89
f 241/67/236 238/67/237 237/67/240 240/67/243
f 240/67/243 237/67/240 236/67/242 239/67/244
f 239/67/244 236/67/242 77/67/89 144/67/103
f 244/67/235 241/67/236 240/67/243 243/67/245
f 243/67/245 240/67/243 239/67/244 242/67/246
f 242/67/246 239/67/244 144/67/103 80/67/101
f 247/67/234 244/67/235 243/67/245 246/67/247
f 246/67/247 243/67/245 242/67/246 245/67/248
f 245/67/248 242/67/246 80/67/101 143/67/99
f 250/67/233 247/67/234 246/67/247 249/67/249
f 249/67/249 246/67/247 245/67/248 248/67/250
f 248/67/250 245/67/248 143/67/99 79/67/97
f 253/67/231 250/67/233 249/67/249 252/67/251
f 252/67/251 249/67/249 248/67/250 251/67/252
f 251/67/252 248/67/250 79/67/97 142/67/95
f 254/67/232 253/67/231 252/67/251 255/67/253
f 255/67/253 252/67/251 251/67/252 256/67/254
f 256/67/254 251/67/252 142/67/95 78/67/93
f 235/67/238 254/67/232 255/67/253 234/67/239
f 234/67/239 255/67/253 256/67/254 233/67/241
f 233/67/241 256/67/254 78/67/93 141/67/90
f 90/67/121 154/67/126 277/67/255 278/67/256
f 154/67/126 91/67/125 274/67/257 277/67/255
f 91/67/125 155/67/131 271/67/258 274/67/257
f 155/67/131 92/67/130 268/67/259 271/67/258
f 92/67/130 156/67/133 265/67/260 268/67/259
f 156/67/133 89/67/128 262/67/261 265/67/260
f 89/67/128 153/67/122 259/67/262 262/67/261
f 153/67/122 90/67/121 278/67/256 259/67/262
f 262/67/261 259/67/262 258/67/263 261/67/264
f 261/67/264 258/67/263 257/67/265 260/67/266
f 260/67/266 257/67/265 149/67/107 85/67/114
f 265/67/260 262/67/261 261/67/264 264/67/267
f 264/67/267 261/67/264 260/67/266 263/67/268
f 263/67/268 260/67/266 85/67/114 152/67/120
f 268/67/259 265/67/260 264/67/267 267/67/269
f 267/67/269 264/67/267 263/67/268 266/67/270
f 266/67/270 263/67/268 152/67/120 88/67/118
f 271/67/258 268/67/259 267/67/269 270/67/271
f 270/67/271 267/67/269 266/67/270 269/67/272
f 269/67/272 266/67/270 88/67/118 151/67/117
f 274/67/257 271/67/258 270/67/271 273/67/273
f 273/67/273 270/67/271 269/67/272 272/67/274
f 272/67/274 269/67/272 151/67/117 87/67/112
f 277/67/255 274/67/257 273/67/273 276/67/275
f 276/67/275 273/67/273 272/67/274 275/67/276
f 275/67/276 272/67/274 87/67/112 150/67/111
f 278/67/256 277/67/255 276/67/275 279/67/277
f 279/67/277 276/67/275 275/67/276 280/67/278
f 280/67/278 275/67/276 150/67/111 86/67/108
f 259/67/262 278/67/256 279/67/277 258/67/263
f 258/67/263 279/67/277 280/67/278 257/67/265
f 257/67/265 280/67/278 86/67/108 149/67/107
f 98/67/135 162/67/140 301/67/279 302/67/280
f 162/67/140 99/67/139 298/67/281 301/67/279
f 99/67/139 163/67/146 295/67/282 298/67/281
f 163/67/146 100/67/145 292/67/283 295/67/282
f 100/67/145 164/67/149 289/67/284 292/67/283
f 164/67/149 97/67/143 286/67/285 289/67/284
f 97/67/143 161/67/136 283/67/224 286/67/285
f 161/67/136 98/67/135 302/67/280 283/67/224
f 286/67/285 283/67/224 282/67/286 285/67/287
f 285/67/287 282/67/286 281/67/288 284/67/289
f 284/67/289 281/67/288 157/67/123 93/67/129
f 289/67/284 286/67/285 285/67/287 288/67/290
f 288/67/290 285/67/287 284/67/289 287/67/291
f 287/67/291 284/67/289 93/67/129 160/67/134
f 292/67/283 289/67/284 288/67/290 291/67/292
f 291/67/292 288/67/290 287/67/291 290/67/293
f 290/67/293 287/67/291 160/67/134 96/67/92
f 295/67/282 292/67/283 291/67/292 294/67/294
f 294/67/294 291/67/292 290/67/293 293/67/295
f 293/67/295 290/67/293 96/67/92 159/67/132
f 298/67/281 295/67/282 294/67/294 297/67/296
f 297/67/296 294/67/294 293/67/295 296/67/297
f 296/67/297 293/67/295 159/67/132 95/67/94
f 301/67/279 298/67/281 297/67/296 300/67/298
f 300/67/298 297/67/296 296/67/297 299/67/299
f 299/67/299 296/67/297 95/67/94 158/67/127
f 302/67/280 301/67/279 300/67/298 303/67/300
f 303/67/300 300/67/298 299/67/299 304/67/301
f 304/67/301 299/67/299 158/67/127 94/67/124
f 283/67/224 302/67/280 303/67/300 282/67/286
f 282/67/286 303/67/300 304/67/301 281/67/288
f 281/67/288 304/67/301 94/67/124 157/67/123
f 106/67/151 170/67/156 325/67/302 326/67/303
f 170/67/156 107/67/155 322/67/304 325/67/302
f 107/67/155 171/67/162 319/67/305 322/67/304
f 171/67/162 108/67/161 316/67/306 319/67/305
f 108/67/161 172/67/165 313/67/307 316/67/306
f 172/67/165 105/67/159 310/67/308 313/67/307
f 105/67/159 169/67/152 307/67/309 310/67/308
f 169/67/152 106/67/151 326/67/303 307/67/309
f 310/67/308 307/67/309 306/67/310 309/67/311
f 309/67/311 306/67/310 305/67/312 308/67/313
f 308/67/313 305/67/312 165/67/137 101/67/144
f 313/67/307 310/67/308 309/67/311 312/67/314
f 312/67/314 309/67/311 308/67/313 311/67/315
f 311/67/315 308/67/313 101/67/144 168/67/150
f 316/67/306 313/67/307 312/67/314 315/67/316
f 315/67/316 312/67/314 311/67/315 314/67/317
f 314/67/317 311/67/315 168/67/150 104/67/148
f 319/67/305 316/67/306 315/67/316 318/67/318
f 318/67/318 315/67/316 314/67/317 317/67/319
f 317/67/319 314/67/317 104/67/148 167/67/147
f 322/67/304 319/67/305 318/67/318 321/67/320
f 321/67/320 318/67/318 317/67/319 320/67/321
f 320/67/321 317/67/319 167/67/147 103/67/142
f 325/67/302 322/67/304 321/67/320 324/67/322
f 324/67/322 321/67/320 320/67/321 323/67/323
f 323/67/323 320/67/321 103/67/142 166/67/141
f 326/67/303 325/67/302 324/67/322 327/67/324
f 327/67/324 324/67/322 323/67/323 328/67/325
f 328/67/325 323/67/323 166/67/141 102/67/138
f 307/67/309 326/67/303 327/67/324 306/67/310
f 306/67/310 327/67/324 328/67/325 305/67/312
f 305/67/312 328/67/325 102/67/138 165/67/137
f 114/67/172 178/67/174 349/67/326 350/67/327
f 178/67/174 115/67/176 346/67/328 349/67/326
f 115/67/176 179/67/178 343/67/329 346/67/328
f 179/67/178 116/67/180 340/67/330 343/67/329
f 116/67/180 180/67/182 337/67/331 340/67/330
f 180/67/182 113/67/170 334/67/332 337/67/331
f 113/67/170 177/67/169 331/67/333 334/67/332
f 177/67/169 114/67/172 350/67/327 331/67/333
f 334/67/332 331/67/333 330/67/334 333/67/335
f 333/67/335 330/67/334 329/67/336 332/67/337
f 332/67/337 329/67/336 173/67/153 109/67/160
f 337/67/331 334/67/332 333/67/335 336/67/338
f 336/67/338 333/67/335 332/67/337 335/67/339
f 335/67/339 332/67/337 109/67/160 176/67/166
f 340/67/330 337/67/331 336/67/338 339/67/340
f 339/67/340 336/67/338 335/67/339 338/67/341
f 338/67/341 335/67/339 176/67/166 112/67/164
f 343/67/329 340/67/330 339/67/340 342/67/342
f 342/67/342 339/67/340 338/67/341 341/67/343
f 341/67/343 338/67/341 112/67/164 175/67/163
f 346/67/328 343/67/329 342/67/342 345/67/344
f 345/67/344 342/67/342 341/67/343 344/67/345
f 344/67/345 341/67/343 175/67/163 111/67/158
f 349/67/326 346/67/328 345/67/344 348/67/346
f 348/67/346 345/67/344 344/67/345 347/67/347
f 347/67/347 344/67/345 111/67/158 174/67/157
f 350/67/327 349/67/326 348/67/346 351/67/348
f 351/67/348 348/67/346 347/67/347 352/67/349
f 352/67/349 347/67/347 174/67/157 110/67/154
f 331/67/333 350/67/327 351/67/348 330/67/334
f 330/67/334 351/67/348 352/67/349 329/67/336
f 329/67/336 352/67/349 110/67/154 173/67/153
f 375/1/1 357/2/2 356/3/3 355/4/4
f 383/5/5 358/6/6 356/3/3 357/2/2
f 359/7/7 354/8/8 356/9/3 358/10/6
f 364/11/9 363/12/10 361/13/11 362/14/350
f 370/15/13 369/16/14 367/17/15 368/18/16
f 365/19/17 360/20/18 361/21/11 363/22/10
f 398/23/19 377/24/20 376/25/21 400/26/22
f 382/27/23 388/28/24 362/14/350 383/5/5
f 360/20/18 359/7/7 358/10/6 361/21/11
f 372/29/25 371/30/26 369/31/14 373/32/27
f 371/30/26 366/33/28 367/34/15 369/31/14
f 389/35/29 394/36/30 368/18/16 364/11/9
f 374/37/351 375/1/1 355/4/4 373/38/27
f 400/26/22 376/25/21 375/1/1 374/37/351
f 353/39/32 372/29/25 373/32/27 355/40/4
f 380/41/33 379/42/34 377/24/20 378/43/35
f 366/33/28 365/19/17 363/22/10 367/34/15
f 376/25/21 381/44/36 357/2/2 375/1/1
f 381/44/36 382/27/23 383/5/5 357/2/2
f 377/24/20 379/42/34 381/44/36 376/25/21
f 402/45/37 403/46/38 380/41/33 378/43/35
f 395/47/39 400/26/22 374/37/351 370/15/13
f 387/48/40 386/49/41 384/50/42 385/51/43
f 379/42/34 384/50/42 382/27/23 381/44/36
f 383/5/5 362/14/350 361/13/11 358/6/6
f 388/28/24 389/35/29 364/11/9 362/14/350
f 384/50/42 386/49/41 388/28/24 382/27/23
f 380/41/33 385/51/43 384/50/42 379/42/34
f 393/52/44 392/53/45 390/54/46 391/55/47
f 386/49/41 390/54/46 389/35/29 388/28/24
f 364/11/9 368/18/16 367/17/15 363/12/10
f 394/36/30 395/47/39 370/15/13 368/18/16
f 390/54/46 392/53/45 394/36/30 389/35/29
f 387/48/40 391/55/47 390/54/46 386/49/41
f 399/56/48 398/23/19 396/57/49 397/58/50
f 392/53/45 396/57/49 395/47/39 394/36/30
f 370/15/13 374/37/351 373/38/27 369/16/14
f 401/59/352 402/45/37 378/43/35 399/56/48
f 396/57/49 398/23/19 400/26/22 395/47/39
f 393/52/44 397/58/50 396/57/49 392/53/45
f 399/56/48 378/43/35 377/24/20 398/23/19
f 403/46/38 404/60/52 385/51/43 380/41/33
f 404/60/52 405/61/53 387/48/40 385/51/43
f 405/61/53 406/62/54 391/55/47 387/48/40
f 406/62/54 407/63/55 393/52/44 391/55/47
f 407/63/55 408/64/56 397/58/50 393/52/44
f 408/64/56 401/59/352 399/56/48 397/58/50
f 354/65/8 353/39/32 355/40/4 356/66/3
f 118/67/171 181/67/168 51/46/353 50/45/354
f 181/67/168 117/67/167 52/60/355 51/46/353
f 117/67/167 184/67/181 53/61/356 52/60/355
f 184/67/181 120/67/179 54/62/357 53/61/356
f 120/67/179 183/67/177 55/63/358 54/62/357
f 183/67/177 119/67/175 56/64/359 55/63/358
f 119/67/175 182/67/173 49/59/360 56/64/359
f 182/67/173 118/67/171 50/45/354 49/59/360
f 405/61/356 404/60/355 57/67/72 121/67/60
f 404/60/355 403/46/353 124/67/70 57/67/72
f 403/46/353 402/45/354 60/67/68 124/67/70
f 402/45/354 401/59/360 123/67/66 60/67/68
f 401/59/360 408/64/359 59/67/64 123/67/66
f 408/64/359 407/63/358 122/67/62 59/67/64
f 407/63/358 406/62/357 58/67/59 122/67/62
f 406/62/357 405/61/356 121/67/60 58/67/59
