# Blender 5.0.1
# www.blender.org
mtllib Wire_Head_Red(5VDC-+V0&+1).mtl
o Wire_Head_Red(5VDC-+V0&+1)
v 0.114534 0.153250 0.249517
v 0.116655 0.152371 0.249517
v 0.114534 0.153250 0.240313
v 0.116655 0.152371 0.240313
v 0.116655 0.152455 0.240115
v 0.118775 0.153250 0.240313
v 0.118775 0.153250 0.249517
v 0.119654 0.155370 0.249517
v 0.119654 0.155370 0.240313
v 0.119570 0.155370 0.240115
v 0.118775 0.157491 0.240313
v 0.118716 0.157431 0.240115
v 0.118775 0.157491 0.249517
v 0.116655 0.158369 0.249517
v 0.116655 0.158369 0.240313
v 0.116655 0.158285 0.240115
v 0.114534 0.157491 0.240313
v 0.114594 0.157431 0.240115
v 0.114534 0.157491 0.249517
v 0.113656 0.155370 0.249517
v 0.113656 0.155370 0.240313
v 0.113740 0.155370 0.240115
v 0.114594 0.153309 0.240115
v 0.114736 0.153452 0.240033
v 0.114924 0.153639 0.240033
v 0.115067 0.153782 0.240115
v 0.116655 0.152923 0.240033
v 0.116655 0.153125 0.240115
v 0.116655 0.152657 0.240033
v 0.118573 0.153452 0.240033
v 0.118716 0.153309 0.240115
v 0.118386 0.153639 0.240033
v 0.118243 0.153782 0.240115
v 0.119102 0.155370 0.240033
v 0.118900 0.155370 0.240115
v 0.119368 0.155370 0.240033
v 0.118573 0.157289 0.240033
v 0.118386 0.157101 0.240033
v 0.118243 0.156958 0.240115
v 0.116655 0.157817 0.240033
v 0.116655 0.157615 0.240115
v 0.116655 0.158083 0.240033
v 0.114736 0.157289 0.240033
v 0.114924 0.157101 0.240033
v 0.115067 0.156958 0.240115
v 0.114208 0.155370 0.240033
v 0.114410 0.155370 0.240115
v 0.113942 0.155370 0.240033
v 0.114493 0.155370 0.240313
v 0.115126 0.153841 0.240313
v 0.116655 0.153208 0.240313
v 0.118184 0.153841 0.240313
v 0.118817 0.155370 0.240313
v 0.118184 0.156899 0.240313
v 0.116655 0.157532 0.240313
v 0.115126 0.156899 0.240313
v 0.083966 -0.035722 0.249517
v 0.086087 -0.036600 0.249517
v 0.083966 -0.035722 0.240313
v 0.086087 -0.036600 0.240313
v 0.086087 -0.036517 0.240115
v 0.088207 -0.035722 0.240313
v 0.088207 -0.035722 0.249517
v 0.089086 -0.033601 0.249517
v 0.089086 -0.033601 0.240313
v 0.089002 -0.033601 0.240115
v 0.088207 -0.031481 0.240313
v 0.088148 -0.031540 0.240115
v 0.088207 -0.031481 0.249517
v 0.086087 -0.030603 0.249517
v 0.086087 -0.030603 0.240313
v 0.086087 -0.030686 0.240115
v 0.083966 -0.031481 0.240313
v 0.084026 -0.031540 0.240115
v 0.083966 -0.031481 0.249517
v 0.083088 -0.033601 0.249517
v 0.083088 -0.033601 0.240313
v 0.083172 -0.033601 0.240115
v 0.084026 -0.035663 0.240115
v 0.084168 -0.035520 0.240033
v 0.084356 -0.035332 0.240033
v 0.084499 -0.035189 0.240115
v 0.086087 -0.036049 0.240033
v 0.086087 -0.035847 0.240115
v 0.086087 -0.036315 0.240033
v 0.088005 -0.035520 0.240033
v 0.088148 -0.035663 0.240115
v 0.087817 -0.035332 0.240033
v 0.087675 -0.035189 0.240115
v 0.088534 -0.033601 0.240033
v 0.088332 -0.033601 0.240115
v 0.088800 -0.033601 0.240033
v 0.088005 -0.031683 0.240033
v 0.087817 -0.031871 0.240033
v 0.087675 -0.032014 0.240115
v 0.086087 -0.031154 0.240033
v 0.086087 -0.031356 0.240115
v 0.086087 -0.030888 0.240033
v 0.084168 -0.031683 0.240033
v 0.084356 -0.031871 0.240033
v 0.084499 -0.032014 0.240115
v 0.083640 -0.033601 0.240033
v 0.083842 -0.033601 0.240115
v 0.083374 -0.033601 0.240033
v 0.083925 -0.033601 0.240313
v 0.084558 -0.035130 0.240313
v 0.086087 -0.035763 0.240313
v 0.087615 -0.035130 0.240313
v 0.088249 -0.033601 0.240313
v 0.087615 -0.032073 0.240313
v 0.086087 -0.031440 0.240313
v 0.084558 -0.032073 0.240313
v 0.083966 -0.014222 0.249517
v 0.086087 -0.015100 0.249517
v 0.083966 -0.014222 0.240313
v 0.086087 -0.015100 0.240313
v 0.086087 -0.015017 0.240115
v 0.088207 -0.014222 0.240313
v 0.088207 -0.014222 0.249517
v 0.089086 -0.012101 0.249517
v 0.089086 -0.012101 0.240313
v 0.089002 -0.012101 0.240115
v 0.088207 -0.009981 0.240313
v 0.088148 -0.010040 0.240115
v 0.088207 -0.009981 0.249517
v 0.086087 -0.009103 0.249517
v 0.086087 -0.009103 0.240313
v 0.086087 -0.009186 0.240115
v 0.083966 -0.009981 0.240313
v 0.084026 -0.010040 0.240115
v 0.083966 -0.009981 0.249517
v 0.083088 -0.012101 0.249517
v 0.083088 -0.012101 0.240313
v 0.083172 -0.012101 0.240115
v 0.084026 -0.014163 0.240115
v 0.084168 -0.014020 0.240033
v 0.084356 -0.013832 0.240033
v 0.084499 -0.013689 0.240115
v 0.086087 -0.014549 0.240033
v 0.086087 -0.014347 0.240115
v 0.086087 -0.014815 0.240033
v 0.088005 -0.014020 0.240033
v 0.088148 -0.014163 0.240115
v 0.087817 -0.013832 0.240033
v 0.087675 -0.013689 0.240115
v 0.088534 -0.012101 0.240033
v 0.088332 -0.012101 0.240115
v 0.088800 -0.012101 0.240033
v 0.088005 -0.010183 0.240033
v 0.087817 -0.010371 0.240033
v 0.087675 -0.010514 0.240115
v 0.086087 -0.009654 0.240033
v 0.086087 -0.009856 0.240115
v 0.086087 -0.009388 0.240033
v 0.084168 -0.010183 0.240033
v 0.084356 -0.010371 0.240033
v 0.084499 -0.010514 0.240115
v 0.083640 -0.012101 0.240033
v 0.083842 -0.012101 0.240115
v 0.083374 -0.012101 0.240033
v 0.083925 -0.012101 0.240313
v 0.084558 -0.013630 0.240313
v 0.086087 -0.014263 0.240313
v 0.087615 -0.013630 0.240313
v 0.088249 -0.012101 0.240313
v 0.087615 -0.010573 0.240313
v 0.086087 -0.009940 0.240313
v 0.084558 -0.010573 0.240313
v 0.080070 -0.025763 0.232913
v 0.082539 -0.024780 0.232761
v 0.082372 -0.024273 0.230438
v 0.080014 -0.025730 0.230438
v 0.082197 -0.020987 0.232913
v 0.080328 -0.019419 0.232761
v 0.080495 -0.019992 0.230438
v 0.082656 -0.020845 0.230590
v 0.078217 -0.021709 0.233007
v 0.077934 -0.021898 0.230438
v 0.077639 -0.024275 0.230590
v 0.077639 -0.024275 0.232761
v 0.079907 -0.026344 0.231675
v 0.078718 -0.024943 0.232777
v 0.077671 -0.024663 0.231675
v 0.078709 -0.024938 0.230574
v 0.077639 -0.023214 0.233204
v 0.077757 -0.021092 0.231684
v 0.077615 -0.023229 0.230155
v 0.079088 -0.023628 0.230128
v 0.079243 -0.021106 0.230557
v 0.081203 -0.022187 0.230128
v 0.081231 -0.025098 0.230128
v 0.082935 -0.024552 0.231659
v 0.081439 -0.025257 0.233195
v 0.079305 -0.023722 0.233243
v 0.079299 -0.020393 0.232786
v 0.079993 -0.019322 0.231659
v 0.082493 -0.022453 0.230574
v 0.081778 -0.020290 0.230155
v 0.081232 -0.019918 0.233195
v 0.082927 -0.021100 0.231692
v 0.082205 -0.022992 0.232777
v 0.080369 -0.021570 0.233232
v 0.117694 0.154331 0.238782
v 0.117694 0.156409 0.238782
v 0.115616 0.156409 0.238782
v 0.115616 0.154331 0.238782
v 0.117740 0.154291 0.236010
v 0.117740 0.156449 0.235978
v 0.115570 0.156449 0.235978
v 0.115570 0.154291 0.236010
v 0.117740 0.150514 0.232754
v 0.117740 0.150546 0.230597
v 0.115570 0.150546 0.230597
v 0.115570 0.150514 0.232754
v 0.117734 0.121471 0.232761
v 0.117734 0.121471 0.230590
v 0.115576 0.121503 0.230590
v 0.115576 0.121503 0.232761
v 0.112024 0.115568 0.232761
v 0.112024 0.115568 0.230590
v 0.111992 0.117726 0.230590
v 0.111992 0.117726 0.232761
v 0.077944 0.115568 0.232761
v 0.077944 0.115568 0.230590
v 0.077912 0.117726 0.230590
v 0.077912 0.117726 0.232761
v 0.074359 0.111765 0.232761
v 0.074359 0.111765 0.230590
v 0.072202 0.111797 0.230590
v 0.072202 0.111797 0.232761
v 0.074359 -0.017969 0.232761
v 0.074359 -0.017969 0.230590
v 0.072202 -0.018001 0.230590
v 0.072202 -0.018001 0.232761
v 0.086484 -0.013579 0.236010
v 0.084607 -0.012489 0.236010
v 0.085690 -0.010624 0.235978
v 0.087567 -0.011714 0.235978
v 0.086464 -0.013521 0.238782
v 0.084667 -0.012478 0.238782
v 0.085710 -0.010681 0.238782
v 0.087507 -0.011725 0.238782
v 0.084607 -0.033214 0.236010
v 0.086484 -0.032124 0.236010
v 0.087567 -0.033989 0.235978
v 0.085690 -0.035079 0.235978
v 0.084667 -0.033225 0.238782
v 0.086464 -0.032181 0.238782
v 0.087507 -0.033978 0.238782
v 0.085710 -0.035021 0.238782
v 0.082800 -0.030101 0.232754
v 0.084677 -0.029011 0.232754
v 0.084693 -0.029039 0.230597
v 0.082816 -0.030129 0.230597
v 0.084677 -0.016691 0.232754
v 0.082800 -0.015602 0.232754
v 0.082816 -0.015574 0.230597
v 0.084693 -0.016664 0.230597
v 0.076617 -0.021764 0.232786
v 0.076598 -0.021781 0.230574
v 0.076544 -0.023972 0.230590
v 0.076544 -0.023972 0.232761
v 0.115163 0.155370 0.235994
v 0.116655 0.156853 0.235972
v 0.116655 0.153887 0.236016
v 0.078797 -0.025345 0.231675
v 0.078453 -0.023978 0.230154
v 0.118147 0.155370 0.235994
v 0.116655 0.153940 0.238798
v 0.078923 -0.020363 0.231673
v 0.082746 -0.022822 0.231675
v 0.078491 -0.023989 0.233200
v 0.115225 0.155370 0.238798
v 0.116655 0.156800 0.238798
v 0.118084 0.155370 0.238798
v 0.081850 -0.021665 0.230154
v 0.080147 -0.022950 0.230122
v 0.080822 -0.023346 0.233227
v 0.080220 -0.020569 0.233200
v 0.118147 0.150530 0.231675
v 0.116655 0.150552 0.230192
v 0.115163 0.150530 0.231675
v 0.116655 0.150508 0.233159
v 0.118138 0.121465 0.231675
v 0.116655 0.121487 0.230183
v 0.115172 0.121509 0.231675
v 0.116655 0.121487 0.233168
v 0.112030 0.115164 0.231675
v 0.112008 0.116647 0.230183
v 0.111986 0.118130 0.231675
v 0.112008 0.116647 0.233168
v 0.077950 0.115164 0.231675
v 0.077928 0.116647 0.230183
v 0.077906 0.118130 0.231675
v 0.077928 0.116647 0.233168
v 0.074764 0.111759 0.231675
v 0.073280 0.111781 0.230183
v 0.071797 0.111803 0.231675
v 0.073280 0.111781 0.233168
v 0.074764 -0.017963 0.231675
v 0.073280 -0.017985 0.230183
v 0.071797 -0.018007 0.231675
v 0.073280 -0.017985 0.233168
v 0.085342 -0.013384 0.236016
v 0.084796 -0.011352 0.235994
v 0.086832 -0.010819 0.235972
v 0.087377 -0.012851 0.235994
v 0.085369 -0.013338 0.238798
v 0.084851 -0.011384 0.238798
v 0.086805 -0.010865 0.238798
v 0.087323 -0.012819 0.238798
v 0.085342 -0.032319 0.236016
v 0.087377 -0.032852 0.235994
v 0.086832 -0.034884 0.235972
v 0.084796 -0.034351 0.235994
v 0.085369 -0.032365 0.238798
v 0.087323 -0.032884 0.238798
v 0.086805 -0.034838 0.238798
v 0.084851 -0.034319 0.238798
v 0.083735 -0.029551 0.233159
v 0.085037 -0.028821 0.231675
v 0.083757 -0.029589 0.230192
v 0.082456 -0.030320 0.231675
v 0.083735 -0.016152 0.233159
v 0.082456 -0.015383 0.231675
v 0.083757 -0.016114 0.230192
v 0.085037 -0.016882 0.231675
v 0.076602 -0.021341 0.231678
v 0.076559 -0.022893 0.230179
v 0.076543 -0.024375 0.231675
v 0.076564 -0.022888 0.233174
v 0.115163 0.155187 0.233528
v 0.115163 0.154527 0.232258
v 0.115163 0.153078 0.231777
v 0.115570 0.156225 0.233233
v 0.115570 0.155226 0.231437
v 0.115570 0.153271 0.230715
v 0.116655 0.156614 0.233122
v 0.116655 0.155489 0.231129
v 0.116655 0.153344 0.230317
v 0.117740 0.156225 0.233233
v 0.117740 0.155226 0.231437
v 0.117740 0.153271 0.230715
v 0.118147 0.155187 0.233528
v 0.118147 0.154527 0.232258
v 0.118147 0.153078 0.231777
v 0.117740 0.154149 0.233823
v 0.117740 0.153827 0.233079
v 0.117740 0.152884 0.232838
v 0.116655 0.153760 0.233933
v 0.116655 0.153564 0.233387
v 0.116655 0.152812 0.233236
v 0.115570 0.152884 0.232838
v 0.115570 0.153827 0.233079
v 0.115570 0.154149 0.233823
v 0.117973 0.118567 0.231675
v 0.117041 0.116417 0.231675
v 0.114947 0.115371 0.231675
v 0.117577 0.118652 0.232761
v 0.116747 0.116695 0.232761
v 0.114849 0.115763 0.232761
v 0.116522 0.118878 0.233168
v 0.115962 0.117436 0.233168
v 0.114587 0.116810 0.233168
v 0.115467 0.119103 0.232761
v 0.115178 0.118177 0.232761
v 0.114325 0.117856 0.232761
v 0.115071 0.119188 0.231675
v 0.114884 0.118455 0.231675
v 0.114227 0.118249 0.231675
v 0.115467 0.119103 0.230590
v 0.115178 0.118177 0.230590
v 0.114325 0.117856 0.230590
v 0.116522 0.118878 0.230183
v 0.115962 0.117436 0.230183
v 0.114587 0.116810 0.230183
v 0.114849 0.115763 0.230590
v 0.116747 0.116695 0.230590
v 0.117577 0.118652 0.230590
v 0.075706 0.115043 0.231675
v 0.075051 0.114835 0.231675
v 0.074863 0.114093 0.231675
v 0.075607 0.115435 0.232761
v 0.074755 0.115111 0.232761
v 0.074467 0.114176 0.232761
v 0.075343 0.116481 0.233168
v 0.073968 0.115849 0.233168
v 0.073412 0.114399 0.233168
v 0.075079 0.117527 0.232761
v 0.073182 0.116587 0.232761
v 0.072356 0.114623 0.232761
v 0.074980 0.117920 0.231675
v 0.072886 0.116864 0.231675
v 0.071960 0.114706 0.231675
v 0.075079 0.117527 0.230590
v 0.073182 0.116587 0.230590
v 0.072356 0.114623 0.230590
v 0.075343 0.116481 0.230183
v 0.073968 0.115849 0.230183
v 0.073412 0.114399 0.230183
v 0.074467 0.114176 0.230590
v 0.074755 0.115111 0.230590
v 0.075607 0.115435 0.230590
v 0.074765 -0.020247 0.231677
v 0.074806 -0.021088 0.231680
v 0.075029 -0.021211 0.231681
v 0.074358 -0.020281 0.232768
v 0.074451 -0.021299 0.232777
v 0.074881 -0.021600 0.232784
v 0.073270 -0.020355 0.233170
v 0.073487 -0.021832 0.233175
v 0.074425 -0.022616 0.233178
v 0.072193 -0.020439 0.232762
v 0.072549 -0.022372 0.232765
v 0.074004 -0.023615 0.232767
v 0.071790 -0.020474 0.231676
v 0.072202 -0.022579 0.231680
v 0.073853 -0.023989 0.231682
v 0.072193 -0.020445 0.230591
v 0.072552 -0.022380 0.230595
v 0.074008 -0.023618 0.230596
v 0.073269 -0.020362 0.230183
v 0.073488 -0.021842 0.230185
v 0.074424 -0.022623 0.230185
v 0.074866 -0.021611 0.230582
v 0.074442 -0.021303 0.230586
v 0.074354 -0.020282 0.230587
v 0.084848 -0.031469 0.233243
v 0.085194 -0.032064 0.233393
v 0.085284 -0.032218 0.233946
v 0.084541 -0.033101 0.233842
v 0.084392 -0.032843 0.233093
v 0.083949 -0.032082 0.232847
v 0.084713 -0.034207 0.233564
v 0.084402 -0.033671 0.232290
v 0.083703 -0.032467 0.231788
v 0.085588 -0.034904 0.233286
v 0.085116 -0.034090 0.231488
v 0.084160 -0.032444 0.230730
v 0.086723 -0.034697 0.233182
v 0.086190 -0.033779 0.231187
v 0.085138 -0.031967 0.230333
v 0.087465 -0.033814 0.233286
v 0.086993 -0.033000 0.231488
v 0.086037 -0.031354 0.230730
v 0.087294 -0.032708 0.233564
v 0.086983 -0.032172 0.232290
v 0.086284 -0.030969 0.231788
v 0.086418 -0.032011 0.233842
v 0.086269 -0.031753 0.233092
v 0.085826 -0.030992 0.232847
v 0.084848 -0.014234 0.233243
v 0.085194 -0.013639 0.233393
v 0.085284 -0.013485 0.233946
v 0.086418 -0.013692 0.233842
v 0.086269 -0.013950 0.233093
v 0.085826 -0.014711 0.232847
v 0.087294 -0.012995 0.233564
v 0.086983 -0.013531 0.232290
v 0.086284 -0.014734 0.231788
v 0.087465 -0.011889 0.233286
v 0.086993 -0.012703 0.231488
v 0.086037 -0.014348 0.230730
v 0.086723 -0.011006 0.233182
v 0.086190 -0.011924 0.231187
v 0.085138 -0.013735 0.230333
v 0.085588 -0.010799 0.233286
v 0.085116 -0.011613 0.231488
v 0.084160 -0.013258 0.230730
v 0.084713 -0.011496 0.233564
v 0.084402 -0.012032 0.232290
v 0.083703 -0.013236 0.231788
v 0.084541 -0.012602 0.233842
v 0.084391 -0.012860 0.233093
v 0.083949 -0.013621 0.232847
vn -0.5263 -0.5263 -0.6678
vn -0.0000 -0.7444 -0.6678
vn -0.0000 -0.9818 -0.1897
vn -0.6943 -0.6943 -0.1897
vn 0.5263 -0.5263 -0.6678
vn 0.6943 -0.6943 -0.1897
vn 0.7071 -0.7071 -0.0000
vn -0.0000 -1.0000 -0.0000
vn 0.5263 0.5263 -0.6678
vn 0.6943 0.6943 -0.1897
vn 0.9818 -0.0000 -0.1897
vn 0.7444 -0.0000 -0.6678
vn -0.5263 0.5263 -0.6678
vn -0.6943 0.6943 -0.1897
vn -0.0000 0.9818 -0.1897
vn -0.0000 0.7444 -0.6678
vn 0.7071 0.7071 -0.0000
vn 1.0000 -0.0000 -0.0000
vn 0.1448 -0.0000 -0.9895
vn 0.1024 0.1024 -0.9895
vn -0.1676 -0.1676 -0.9715
vn -0.2370 -0.0000 -0.9715
vn 0.1676 -0.1676 -0.9715
vn 0.2370 -0.0000 -0.9715
vn -1.0000 -0.0000 -0.0000
vn -0.7071 0.7071 -0.0000
vn -0.9818 -0.0000 -0.1897
vn -0.0000 1.0000 -0.0000
vn 0.1676 0.1676 -0.9715
vn -0.0000 0.2370 -0.9715
vn -0.7444 -0.0000 -0.6678
vn -0.7071 -0.7071 -0.0000
vn -0.0000 0.6474 -0.7621
vn -0.0000 0.1448 -0.9895
vn 0.4578 0.4578 -0.7621
vn -0.0000 -0.2370 -0.9715
vn 0.6514 0.6514 -0.3891
vn -0.0000 0.9212 -0.3891
vn -0.1676 0.1676 -0.9715
vn -0.6474 -0.0000 -0.7621
vn -0.1448 -0.0000 -0.9895
vn -0.1024 0.1024 -0.9895
vn -0.4578 0.4578 -0.7621
vn -0.0000 -0.6474 -0.7621
vn -0.0000 -0.1448 -0.9895
vn -0.1024 -0.1024 -0.9895
vn -0.4578 -0.4578 -0.7621
vn 0.6474 -0.0000 -0.7621
vn 0.1024 -0.1024 -0.9895
vn 0.4578 -0.4578 -0.7621
vn 0.9212 -0.0000 -0.3891
vn -0.6514 0.6514 -0.3891
vn -0.9212 -0.0000 -0.3890
vn -0.6514 -0.6514 -0.3891
vn -0.0000 -0.9212 -0.3891
vn 0.6514 -0.6514 -0.3891
vn 0.6514 0.6514 -0.3890
vn -0.0000 0.9212 -0.3890
vn 0.9212 -0.0000 -0.3890
vn -0.6514 0.6514 -0.3890
vn -0.6514 -0.6514 -0.3890
vn -0.0000 -0.9212 -0.3890
vn 0.6514 -0.6514 -0.3890
vn -0.0000 -0.9991 0.0415
vn -0.0000 -0.9758 -0.2185
vn -0.6894 -0.6903 -0.2195
vn -0.7091 -0.7043 0.0337
vn -0.9761 0.0001 -0.2175
vn -0.9999 0.0083 0.0098
vn -0.6893 0.6904 -0.2196
vn -0.7000 0.7139 -0.0184
vn -0.0000 0.9758 -0.2187
vn -0.0000 0.9995 -0.0313
vn 0.6894 -0.6903 -0.2195
vn 0.7091 -0.7043 0.0337
vn -0.4334 -0.4320 -0.7909
vn -0.7539 -0.6570 0.0044
vn -0.5729 -0.8196 0.0011
vn -0.4060 -0.6194 -0.6719
vn -0.4251 -0.4285 0.7973
vn -0.4079 -0.6201 0.6702
vn -0.3212 -0.6752 0.6641
vn -0.4087 -0.9127 -0.0000
vn -0.3225 -0.6762 -0.6624
vn -0.1260 0.4896 -0.8628
vn -0.0660 -0.0202 -0.9976
vn -0.1659 -0.2099 -0.9635
vn -0.0799 -0.0599 -0.9950
vn 0.6893 0.6904 -0.2196
vn 0.7000 0.7139 -0.0184
vn 0.9761 0.0001 -0.2175
vn 0.9999 0.0083 0.0098
vn -0.2224 0.4426 0.8687
vn -0.4909 0.5405 0.6833
vn -0.6370 0.7592 -0.1335
vn -0.3505 0.9342 -0.0668
vn -0.5572 0.4846 0.6743
vn -0.7758 0.6182 -0.1262
vn -0.4352 0.3249 -0.8397
vn -0.3217 0.4312 -0.8429
vn 0.7105 -0.1828 -0.6796
vn 0.9580 -0.2699 0.0972
vn 0.9965 0.0042 0.0837
vn 0.7389 -0.0413 -0.6725
vn 0.5311 -0.1510 0.8338
vn 0.6280 0.0362 0.7774
vn 0.6300 0.2088 0.7480
vn 0.9581 0.2844 0.0341
vn 0.5967 0.1184 -0.7937
vn -0.0704 -0.0713 0.9950
vn -0.1669 -0.2158 0.9621
vn -0.0996 -0.0815 0.9917
vn 0.2303 0.0064 -0.9731
vn 0.0607 0.0145 -0.9981
vn 0.0515 0.0378 -0.9980
vn -0.0277 0.0485 -0.9984
vn 0.0237 -0.0397 -0.9989
vn 0.1055 -0.0056 0.9944
vn 0.0758 -0.0166 0.9970
vn 0.0273 0.0418 0.9988
vn -0.0242 0.0728 0.9971
vn -0.1245 0.1826 0.9753
vn 0.7031 0.0155 -0.7109
vn 1.0000 0.0004 -0.0044
vn 0.9996 -0.0282 -0.0000
vn 0.7118 -0.0198 -0.7021
vn -0.7031 0.0155 -0.7109
vn -0.0000 0.0222 -0.9998
vn 0.0057 -0.0006 -1.0000
vn -0.7053 0.0161 -0.7087
vn 0.7082 -0.0125 0.7059
vn 0.7118 -0.0198 0.7021
vn -0.7082 -0.0125 0.7059
vn -1.0000 0.0004 -0.0044
vn -0.9998 0.0221 -0.0000
vn -0.7053 0.0161 0.7087
vn -0.0000 -0.0172 0.9999
vn 0.0057 -0.0006 1.0000
vn 0.0246 -0.7134 -0.7003
vn 0.0348 -0.9994 -0.0000
vn 0.0277 -0.9996 -0.0000
vn 0.0200 -0.7055 -0.7084
vn -0.0198 0.7055 -0.7084
vn 0.0010 -0.0070 -1.0000
vn -0.0010 0.0071 -1.0000
vn -0.0250 0.7135 -0.7003
vn 0.0246 -0.7134 0.7003
vn 0.0200 -0.7055 0.7084
vn -0.0198 0.7055 0.7084
vn -0.0274 0.9996 -0.0000
vn -0.0353 0.9994 -0.0000
vn -0.0250 0.7135 0.7003
vn 0.0010 -0.0070 1.0000
vn -0.0010 0.0071 1.0000
vn 0.7061 -0.0158 -0.7079
vn 0.9998 -0.0219 -0.0000
vn 1.0000 -0.0000 -0.0005
vn 0.7080 -0.0004 -0.7062
vn -0.7124 0.0195 -0.7015
vn -0.0056 0.0007 -1.0000
vn -0.0002 0.0001 -1.0000
vn -0.7085 0.0011 -0.7057
vn 0.7061 -0.0158 0.7079
vn 0.7081 0.0005 0.7061
vn -0.7124 0.0195 0.7015
vn -0.9996 0.0276 -0.0000
vn -1.0000 0.0016 -0.0001
vn -0.7087 0.0015 0.7055
vn -0.0056 0.0007 1.0000
vn -0.0006 0.0009 1.0000
vn -0.5258 -0.8218 -0.2196
vn -0.9520 -0.2132 -0.2195
vn -0.9668 -0.2534 0.0321
vn -0.5017 -0.8641 0.0392
vn -0.8219 0.5260 -0.2186
vn -0.8608 0.5088 0.0100
vn -0.2117 0.9523 -0.2196
vn -0.2475 0.9688 -0.0162
vn 0.5257 0.8218 -0.2198
vn 0.5019 0.8644 -0.0282
vn 0.9520 0.2132 -0.2196
vn 0.9640 0.2653 -0.0162
vn 0.8220 -0.5258 -0.2186
vn 0.8686 -0.4954 0.0100
vn 0.2118 -0.9523 -0.2195
vn 0.2592 -0.9653 0.0320
vn -0.9520 0.2131 -0.2195
vn -0.5258 0.8218 -0.2196
vn -0.5018 0.8641 0.0392
vn -0.9668 0.2534 0.0321
vn 0.2118 0.9523 -0.2195
vn 0.2592 0.9653 0.0321
vn 0.8220 0.5258 -0.2186
vn 0.8686 0.4954 0.0100
vn 0.9520 -0.2132 -0.2196
vn 0.9640 -0.2653 -0.0162
vn 0.5257 -0.8218 -0.2198
vn 0.5019 -0.8644 -0.0282
vn -0.2117 -0.9523 -0.2196
vn -0.2475 -0.9688 -0.0162
vn -0.8219 -0.5260 -0.2186
vn -0.8608 -0.5088 0.0100
vn -0.5975 -0.3503 0.7213
vn 0.0109 0.0168 0.9998
vn 0.8823 0.4707 0.0070
vn 0.6198 0.3054 -0.7229
vn 0.6091 0.3451 0.7141
vn 0.0185 -0.0355 -0.9992
vn -0.5783 -0.3790 -0.7224
vn -0.8524 -0.5229 -0.0021
vn -0.6160 0.3611 0.7001
vn -0.0220 0.0013 0.9998
vn 0.5868 -0.3415 0.7342
vn -0.5725 0.3544 -0.7393
vn -0.8582 0.5117 -0.0411
vn 0.6313 -0.3155 -0.7085
vn 0.0295 0.0222 -0.9993
vn 0.8782 -0.4778 0.0225
vn -0.0116 0.9997 -0.0215
vn -0.0255 0.6681 0.7436
vn 0.0078 0.6677 -0.7444
vn -0.0357 -0.0132 -0.9993
vn -0.1488 -0.6973 -0.7012
vn -0.2016 -0.9795 0.0001
vn -0.1474 -0.6976 0.7011
vn -0.0505 -0.0276 0.9983
vn -0.0000 -0.9068 -0.4215
vn -0.6397 -0.6397 -0.4260
vn 0.6397 -0.6397 -0.4260
vn 0.9068 -0.0000 -0.4215
vn 0.6397 0.6397 -0.4260
vn -0.0000 0.9068 -0.4215
vn -0.6397 0.6397 -0.4260
vn -0.9068 -0.0000 -0.4215
vn -0.0000 -0.1294 0.9916
vn -0.7149 -0.0987 0.6922
vn 0.7149 -0.0987 0.6922
vn 0.9995 0.0103 -0.0295
vn 0.6835 0.1445 -0.7155
vn -0.0000 0.1991 -0.9800
vn -0.6835 0.1445 -0.7155
vn -0.9995 0.0103 -0.0295
vn -0.9963 0.0560 -0.0649
vn -0.6677 0.4846 -0.5651
vn -0.9990 0.0419 -0.0169
vn -0.6775 0.7036 -0.2141
vn -0.0000 0.6509 -0.7592
vn -0.0000 0.9565 -0.2917
vn 0.6677 0.4846 -0.5651
vn 0.6775 0.7036 -0.2141
vn 0.9963 0.0561 -0.0649
vn 0.9990 0.0419 -0.0169
vn 0.7810 -0.4057 0.4748
vn 0.7248 -0.6699 0.1608
vn -0.0000 -0.6507 0.7593
vn -0.0000 -0.9758 0.2186
vn -0.7810 -0.4057 0.4748
vn -0.7248 -0.6699 0.1608
vn 0.0143 -0.0379 -0.9992
vn 0.1912 -0.7084 -0.6794
vn -0.1421 0.6776 -0.7216
vn -0.1921 0.9814 -0.0000
vn -0.1421 0.6776 0.7216
vn 0.0143 -0.0379 0.9992
vn 0.1912 -0.7084 0.6794
vn 0.2614 -0.9652 -0.0000
vn 0.7263 -0.6874 -0.0000
vn 0.5406 -0.5118 0.6677
vn 0.9736 -0.2282 -0.0000
vn 0.7126 -0.1663 0.6816
vn 0.0624 -0.0592 0.9963
vn 0.0335 -0.0120 0.9994
vn -0.4540 0.4292 0.7808
vn -0.6856 0.1198 0.7181
vn -0.7264 0.6873 -0.0000
vn -0.9871 0.1600 -0.0000
vn -0.4540 0.4292 -0.7808
vn -0.6856 0.1198 -0.7181
vn 0.0624 -0.0592 -0.9963
vn 0.0335 -0.0120 -0.9994
vn 0.5406 -0.5118 -0.6677
vn 0.7126 -0.1663 -0.6816
vn -0.0332 0.0118 -0.9994
vn 0.6860 -0.1184 -0.7179
vn -0.7129 0.1646 -0.6817
vn -0.9741 0.2260 -0.0000
vn -0.7129 0.1646 0.6817
vn -0.0332 0.0118 0.9994
vn 0.6860 -0.1184 0.7179
vn 0.9874 -0.1581 -0.0000
vn 0.7289 -0.6846 -0.0000
vn 0.4557 -0.4276 0.7807
vn 0.1945 -0.9809 -0.0000
vn 0.1437 -0.6769 0.7219
vn -0.0626 0.0590 0.9963
vn -0.0145 0.0382 0.9992
vn -0.5425 0.5098 0.6677
vn -0.1929 0.7081 0.6793
vn -0.7287 0.6848 -0.0000
vn -0.2635 0.9646 -0.0000
vn -0.5425 0.5098 -0.6677
vn -0.1929 0.7081 -0.6793
vn -0.0626 0.0590 -0.9963
vn -0.0145 0.0382 -0.9992
vn 0.4557 -0.4276 -0.7807
vn 0.1437 -0.6769 -0.7219
vn -0.0341 -0.0629 -0.9974
vn 0.2282 0.6184 -0.7520
vn -0.3057 -0.6772 -0.6693
vn -0.4095 -0.9123 0.0012
vn -0.3051 -0.6759 0.6708
vn -0.0336 -0.0642 0.9974
vn 0.2249 0.6226 0.7496
vn 0.3245 0.9459 -0.0062
vn 0.8611 0.5083 -0.0053
vn 0.5348 0.3184 0.7827
vn 0.9994 0.0354 -0.0021
vn 0.7036 0.0331 0.7098
vn -0.0771 -0.0419 0.9961
vn -0.0208 -0.0029 0.9998
vn -0.6452 -0.3720 0.6674
vn -0.7211 -0.0640 0.6899
vn -0.8645 -0.5027 0.0004
vn -0.9957 -0.0923 -0.0004
vn -0.6442 -0.3749 -0.6666
vn -0.7204 -0.0660 -0.6904
vn -0.0744 -0.0447 -0.9962
vn -0.0188 -0.0061 -0.9998
vn 0.5392 0.3113 -0.7826
vn 0.7036 0.0292 -0.7100
vn -0.6734 -0.2664 0.6896
vn -0.0711 0.1224 0.9899
vn -0.8586 -0.5116 -0.0315
vn -0.5119 -0.4776 -0.7141
vn 0.1077 -0.1856 -0.9767
vn 0.6685 0.2078 -0.7141
vn 0.8700 0.4921 -0.0315
vn 0.5652 0.4527 0.6896
vn -0.8857 -0.0320 0.4631
vn -0.3365 0.5795 0.7423
vn -0.9638 0.2208 0.1493
vn -0.4919 0.8472 0.2009
vn -0.8326 -0.5502 -0.0637
vn -0.8440 -0.5361 -0.0157
vn -0.3271 -0.7666 -0.5526
vn -0.2322 -0.9513 -0.2027
vn 0.3364 -0.5793 -0.7425
vn 0.4825 -0.8310 -0.2766
vn 0.8279 -0.0959 -0.5526
vn 0.9413 -0.2699 -0.2027
vn 0.8906 0.4503 -0.0637
vn 0.8840 0.4673 -0.0157
vn 0.4668 0.7534 0.4631
vn 0.2860 0.9465 0.1493
vn -0.0379 -0.9026 -0.4287
vn -0.6700 -0.6099 -0.4232
vn 0.6099 -0.6700 -0.4232
vn 0.9026 -0.0379 -0.4288
vn 0.6700 0.6099 -0.4232
vn 0.0379 0.9026 -0.4288
vn -0.6099 0.6700 -0.4232
vn -0.9026 0.0379 -0.4287
vn 0.5652 -0.4527 0.6896
vn -0.0711 -0.1224 0.9899
vn 0.8700 -0.4921 -0.0315
vn 0.6685 -0.2078 -0.7141
vn 0.1077 0.1856 -0.9767
vn -0.5119 0.4776 -0.7141
vn -0.8586 0.5116 -0.0315
vn -0.6734 0.2664 0.6896
vn 0.4668 -0.7534 0.4631
vn -0.3365 -0.5795 0.7423
vn 0.2860 -0.9465 0.1492
vn -0.4919 -0.8472 0.2009
vn 0.8906 -0.4503 -0.0637
vn 0.8840 -0.4673 -0.0157
vn 0.8279 0.0959 -0.5527
vn 0.9413 0.2700 -0.2027
vn 0.3364 0.5793 -0.7425
vn 0.4825 0.8310 -0.2766
vn -0.3271 0.7666 -0.5526
vn -0.2322 0.9513 -0.2027
vn -0.8326 0.5502 -0.0637
vn -0.8440 0.5360 -0.0157
vn -0.8857 0.0320 0.4631
vn -0.9638 -0.2208 0.1493
vn 0.0379 -0.9026 -0.4287
vn -0.6099 -0.6700 -0.4231
vn 0.6700 -0.6099 -0.4232
vn 0.9026 0.0379 -0.4287
vn 0.6099 0.6700 -0.4232
vn -0.0379 0.9026 -0.4288
vn -0.6700 0.6099 -0.4232
vn -0.9026 -0.0379 -0.4287
vt 0.636322 0.771411
vt 0.587470 0.804750
vt 0.582466 0.801554
vt 0.635177 0.765465
vt 0.576221 0.861411
vt 0.570569 0.862499
vt 0.433500 0.501817
vt 0.495149 0.501817
vt 0.495149 0.744281
vt 0.433500 0.744281
vt 0.667721 0.922223
vt 0.668877 0.928042
vt 0.605422 0.915050
vt 0.608737 0.910132
vt 0.727696 0.832155
vt 0.733433 0.831018
vt 0.721608 0.892773
vt 0.716620 0.889535
vt 0.310201 0.501817
vt 0.371850 0.501817
vt 0.371850 0.744281
vt 0.310201 0.744281
vt 0.687564 0.793554
vt 0.638896 0.784065
vt 0.637511 0.777194
vt 0.691445 0.787669
vt 0.581871 0.860294
vt 0.612010 0.905265
vt 0.125252 0.501817
vt 0.186902 0.501817
vt 0.186902 0.744281
vt 0.125252 0.744281
vt 0.248551 0.501817
vt 0.248551 0.744281
vt 0.666609 0.916401
vt 0.711799 0.886320
vt 0.694675 0.782803
vt 0.697976 0.777719
vt 0.063603 0.501817
vt 0.063603 0.744281
vt 0.602608 0.814790
vt 0.598019 0.811727
vt 0.639988 0.789629
vt 0.592254 0.807905
vt 0.641149 0.795086
vt 0.607213 0.817814
vt 0.722022 0.833305
vt 0.619061 0.894562
vt 0.615915 0.899401
vt 0.588618 0.858968
vt 0.594043 0.857906
vt 0.701466 0.879486
vt 0.706041 0.882519
vt 0.665296 0.909466
vt 0.664231 0.903895
vt 0.684425 0.798269
vt 0.715204 0.834694
vt 0.709684 0.835861
vt 0.681227 0.803114
vt 0.599435 0.856891
vt 0.622123 0.889732
vt 0.663198 0.898415
vt 0.696941 0.876438
vt 0.704000 0.837048
vt 0.001953 0.501817
vt 0.001953 0.744281
vt 0.000000 0.000000
s 1
usemtl Material.001
f 23/1/1 5/2/2 4/3/3 3/4/4
f 31/5/5 6/6/6 4/3/3 5/2/2
f 7/7/7 2/8/8 4/9/3 6/10/6
f 12/11/9 11/12/10 9/13/11 10/14/12
f 18/15/13 17/16/14 15/17/15 16/18/16
f 13/19/17 8/20/18 9/21/11 11/22/10
f 46/23/19 25/24/20 24/25/21 48/26/22
f 30/27/23 36/28/24 10/14/12 31/5/5
f 8/20/18 7/7/7 6/10/6 9/21/11
f 20/29/25 19/30/26 17/31/14 21/32/27
f 19/30/26 14/33/28 15/34/15 17/31/14
f 37/35/29 42/36/30 16/18/16 12/11/9
f 22/37/31 23/1/1 3/4/4 21/38/27
f 48/26/22 24/25/21 23/1/1 22/37/31
f 1/39/32 20/29/25 21/32/27 3/40/4
f 28/41/33 27/42/34 25/24/20 26/43/35
f 14/33/28 13/19/17 11/22/10 15/34/15
f 24/25/21 29/44/36 5/2/2 23/1/1
f 29/44/36 30/27/23 31/5/5 5/2/2
f 25/24/20 27/42/34 29/44/36 24/25/21
f 50/45/37 51/46/38 28/41/33 26/43/35
f 43/47/39 48/26/22 22/37/31 18/15/13
f 35/48/40 34/49/41 32/50/42 33/51/43
f 27/42/34 32/50/42 30/27/23 29/44/36
f 31/5/5 10/14/12 9/13/11 6/6/6
f 36/28/24 37/35/29 12/11/9 10/14/12
f 32/50/42 34/49/41 36/28/24 30/27/23
f 28/41/33 33/51/43 32/50/42 27/42/34
f 41/52/44 40/53/45 38/54/46 39/55/47
f 34/49/41 38/54/46 37/35/29 36/28/24
f 12/11/9 16/18/16 15/17/15 11/12/10
f 42/36/30 43/47/39 18/15/13 16/18/16
f 38/54/46 40/53/45 42/36/30 37/35/29
f 35/48/40 39/55/47 38/54/46 34/49/41
f 47/56/48 46/23/19 44/57/49 45/58/50
f 40/53/45 44/57/49 43/47/39 42/36/30
f 18/15/13 22/37/31 21/38/27 17/16/14
f 49/59/51 50/45/37 26/43/35 47/56/48
f 44/57/49 46/23/19 48/26/22 43/47/39
f 41/52/44 45/58/50 44/57/49 40/53/45
f 47/56/48 26/43/35 25/24/20 46/23/19
f 51/46/38 52/60/52 33/51/43 28/41/33
f 52/60/52 53/61/53 35/48/40 33/51/43
f 53/61/53 54/62/54 39/55/47 35/48/40
f 54/62/54 55/63/55 41/52/44 39/55/47
f 55/63/55 56/64/56 45/58/50 41/52/44
f 56/64/56 49/59/51 47/56/48 45/58/50
f 2/65/8 1/39/32 3/40/4 4/66/3
f 79/1/1 61/2/2 60/3/3 59/4/4
f 87/5/5 62/6/6 60/3/3 61/2/2
f 63/7/7 58/8/8 60/9/3 62/10/6
f 68/11/9 67/12/10 65/13/11 66/14/12
f 74/15/13 73/16/14 71/17/15 72/18/16
f 69/19/17 64/20/18 65/21/11 67/22/10
f 102/23/19 81/24/20 80/25/21 104/26/22
f 86/27/23 92/28/24 66/14/12 87/5/5
f 64/20/18 63/7/7 62/10/6 65/21/11
f 76/29/25 75/30/26 73/31/14 77/32/27
f 75/30/26 70/33/28 71/34/15 73/31/14
f 93/35/29 98/36/30 72/18/16 68/11/9
f 78/37/31 79/1/1 59/4/4 77/38/27
f 104/26/22 80/25/21 79/1/1 78/37/31
f 57/39/32 76/29/25 77/32/27 59/40/4
f 84/41/33 83/42/34 81/24/20 82/43/35
f 70/33/28 69/19/17 67/22/10 71/34/15
f 80/25/21 85/44/36 61/2/2 79/1/1
f 85/44/36 86/27/23 87/5/5 61/2/2
f 81/24/20 83/42/34 85/44/36 80/25/21
f 106/45/57 107/46/58 84/41/33 82/43/35
f 99/47/39 104/26/22 78/37/31 74/15/13
f 91/48/40 90/49/41 88/50/42 89/51/43
f 83/42/34 88/50/42 86/27/23 85/44/36
f 87/5/5 66/14/12 65/13/11 62/6/6
f 92/28/24 93/35/29 68/11/9 66/14/12
f 88/50/42 90/49/41 92/28/24 86/27/23
f 84/41/33 89/51/43 88/50/42 83/42/34
f 97/52/44 96/53/45 94/54/46 95/55/47
f 90/49/41 94/54/46 93/35/29 92/28/24
f 68/11/9 72/18/16 71/17/15 67/12/10
f 98/36/30 99/47/39 74/15/13 72/18/16
f 94/54/46 96/53/45 98/36/30 93/35/29
f 91/48/40 95/55/47 94/54/46 90/49/41
f 103/56/48 102/23/19 100/57/49 101/58/50
f 96/53/45 100/57/49 99/47/39 98/36/30
f 74/15/13 78/37/31 77/38/27 73/16/14
f 105/59/59 106/45/57 82/43/35 103/56/48
f 100/57/49 102/23/19 104/26/22 99/47/39
f 97/52/44 101/58/50 100/57/49 96/53/45
f 103/56/48 82/43/35 81/24/20 102/23/19
f 107/46/58 108/60/60 89/51/43 84/41/33
f 108/60/60 109/61/53 91/48/40 89/51/43
f 109/61/53 110/62/61 95/55/47 91/48/40
f 110/62/61 111/63/62 97/52/44 95/55/47
f 111/63/62 112/64/63 101/58/50 97/52/44
f 112/64/63 105/59/59 103/56/48 101/58/50
f 58/65/8 57/39/32 59/40/4 60/66/3
f 135/1/1 117/2/2 116/3/3 115/4/4
f 143/5/5 118/6/6 116/3/3 117/2/2
f 119/7/7 114/8/8 116/9/3 118/10/6
f 124/11/9 123/12/10 121/13/11 122/14/12
f 130/15/13 129/16/14 127/17/15 128/18/16
f 125/19/17 120/20/18 121/21/11 123/22/10
f 158/23/19 137/24/20 136/25/21 160/26/22
f 142/27/23 148/28/24 122/14/12 143/5/5
f 120/20/18 119/7/7 118/10/6 121/21/11
f 132/29/25 131/30/26 129/31/14 133/32/27
f 131/30/26 126/33/28 127/34/15 129/31/14
f 149/35/29 154/36/30 128/18/16 124/11/9
f 134/37/31 135/1/1 115/4/4 133/38/27
f 160/26/22 136/25/21 135/1/1 134/37/31
f 113/39/32 132/29/25 133/32/27 115/40/4
f 140/41/33 139/42/34 137/24/20 138/43/35
f 126/33/28 125/19/17 123/22/10 127/34/15
f 136/25/21 141/44/36 117/2/2 135/1/1
f 141/44/36 142/27/23 143/5/5 117/2/2
f 137/24/20 139/42/34 141/44/36 136/25/21
f 162/45/57 163/46/58 140/41/33 138/43/35
f 155/47/39 160/26/22 134/37/31 130/15/13
f 147/48/40 146/49/41 144/50/42 145/51/43
f 139/42/34 144/50/42 142/27/23 141/44/36
f 143/5/5 122/14/12 121/13/11 118/6/6
f 148/28/24 149/35/29 124/11/9 122/14/12
f 144/50/42 146/49/41 148/28/24 142/27/23
f 140/41/33 145/51/43 144/50/42 139/42/34
f 153/52/44 152/53/45 150/54/46 151/55/47
f 146/49/41 150/54/46 149/35/29 148/28/24
f 124/11/9 128/18/16 127/17/15 123/12/10
f 154/36/30 155/47/39 130/15/13 128/18/16
f 150/54/46 152/53/45 154/36/30 149/35/29
f 147/48/40 151/55/47 150/54/46 146/49/41
f 159/56/48 158/23/19 156/57/49 157/58/50
f 152/53/45 156/57/49 155/47/39 154/36/30
f 130/15/13 134/37/31 133/38/27 129/16/14
f 161/59/59 162/45/57 138/43/35 159/56/48
f 156/57/49 158/23/19 160/26/22 155/47/39
f 153/52/44 157/58/50 156/57/49 152/53/45
f 159/56/48 138/43/35 137/24/20 158/23/19
f 163/46/58 164/60/60 145/51/43 140/41/33
f 164/60/60 165/61/53 147/48/40 145/51/43
f 165/61/53 166/62/61 151/55/47 147/48/40
f 166/62/61 167/63/62 153/52/44 151/55/47
f 167/63/62 168/64/63 157/58/50 153/52/44
f 168/64/63 161/59/59 159/56/48 157/58/50
f 114/65/8 113/39/32 115/40/4 116/66/3
f 265/67/64 269/67/65 206/67/66 210/67/67
f 206/67/66 273/67/68 263/67/69 210/67/67
f 263/67/69 273/67/68 205/67/70 209/67/71
f 205/67/70 274/67/72 264/67/73 209/67/71
f 203/67/74 269/67/65 265/67/64 207/67/75
f 172/67/76 181/67/77 266/67/78 184/67/79
f 181/67/77 169/67/80 182/67/81 266/67/78
f 266/67/78 182/67/81 180/67/82 183/67/83
f 184/67/79 266/67/78 183/67/83 179/67/84
f 178/67/85 188/67/86 267/67/87 187/67/88
f 172/67/76 184/67/79 267/67/87 188/67/86
f 179/67/84 187/67/88 267/67/87 184/67/79
f 264/67/73 274/67/72 204/67/89 208/67/90
f 204/67/89 275/67/91 268/67/92 208/67/90
f 177/67/93 195/67/94 270/67/95 186/67/96
f 195/67/94 174/67/97 196/67/98 270/67/95
f 270/67/95 196/67/98 175/67/99 189/67/100
f 186/67/96 270/67/95 189/67/100 178/67/85
f 176/67/101 200/67/102 271/67/103 197/67/104
f 200/67/102 173/67/105 201/67/106 271/67/103
f 271/67/103 201/67/106 170/67/107 192/67/108
f 197/67/104 271/67/103 192/67/108 171/67/109
f 169/67/80 194/67/110 272/67/111 182/67/81
f 177/67/93 185/67/112 272/67/111 194/67/110
f 180/67/82 182/67/81 272/67/111 185/67/112
f 176/67/101 197/67/104 276/67/113 198/67/114
f 171/67/109 190/67/115 276/67/113 197/67/104
f 175/67/99 198/67/114 276/67/113 190/67/115
f 175/67/99 190/67/115 277/67/116 189/67/100
f 190/67/115 171/67/109 191/67/117 277/67/116
f 277/67/116 191/67/117 172/67/76 188/67/86
f 189/67/100 277/67/116 188/67/86 178/67/85
f 170/67/107 201/67/106 278/67/118 193/67/119
f 201/67/106 173/67/105 202/67/120 278/67/118
f 278/67/118 202/67/120 177/67/93 194/67/110
f 193/67/119 278/67/118 194/67/110 169/67/80
f 173/67/105 199/67/121 279/67/122 202/67/120
f 174/67/97 195/67/94 279/67/122 199/67/121
f 177/67/93 202/67/120 279/67/122 195/67/94
f 212/67/123 280/67/124 284/67/125 216/67/126
f 213/67/127 281/67/128 285/67/129 217/67/130
f 280/67/124 211/67/131 215/67/132 284/67/125
f 214/67/133 282/67/134 286/67/135 218/67/136
f 281/67/128 212/67/123 216/67/126 285/67/129
f 211/67/131 283/67/137 287/67/138 215/67/132
f 282/67/134 213/67/127 217/67/130 286/67/135
f 283/67/137 214/67/133 218/67/136 287/67/138
f 220/67/139 288/67/140 292/67/141 224/67/142
f 221/67/143 289/67/144 293/67/145 225/67/146
f 288/67/140 219/67/147 223/67/148 292/67/141
f 222/67/149 290/67/150 294/67/151 226/67/152
f 289/67/144 220/67/139 224/67/142 293/67/145
f 219/67/147 291/67/153 295/67/154 223/67/148
f 290/67/150 221/67/143 225/67/146 294/67/151
f 291/67/153 222/67/149 226/67/152 295/67/154
f 228/67/155 296/67/156 300/67/157 232/67/158
f 229/67/159 297/67/160 301/67/161 233/67/162
f 296/67/156 227/67/163 231/67/164 300/67/157
f 230/67/165 298/67/166 302/67/167 234/67/168
f 297/67/160 228/67/155 232/67/158 301/67/161
f 227/67/163 299/67/169 303/67/170 231/67/164
f 298/67/166 229/67/159 233/67/162 302/67/167
f 299/67/169 230/67/165 234/67/168 303/67/170
f 308/67/171 240/67/172 236/67/173 304/67/174
f 240/67/172 309/67/175 305/67/176 236/67/173
f 309/67/175 241/67/177 237/67/178 305/67/176
f 241/67/177 310/67/179 306/67/180 237/67/178
f 310/67/179 242/67/181 238/67/182 306/67/180
f 242/67/181 311/67/183 307/67/184 238/67/182
f 311/67/183 239/67/185 235/67/186 307/67/184
f 247/67/187 316/67/188 312/67/189 243/67/190
f 316/67/188 248/67/191 244/67/192 312/67/189
f 248/67/191 317/67/193 313/67/194 244/67/192
f 317/67/193 249/67/195 245/67/196 313/67/194
f 249/67/195 318/67/197 314/67/198 245/67/196
f 318/67/197 250/67/199 246/67/200 314/67/198
f 250/67/199 319/67/201 315/67/202 246/67/200
f 319/67/201 247/67/187 243/67/190 315/67/202
f 251/67/203 320/67/204 193/67/119 169/67/80
f 321/67/205 253/67/206 171/67/109 192/67/108
f 252/67/207 321/67/205 192/67/108 170/67/107
f 322/67/208 254/67/209 172/67/76 191/67/117
f 253/67/206 322/67/208 191/67/117 171/67/109
f 323/67/210 251/67/203 169/67/80 181/67/77
f 254/67/209 323/67/210 181/67/77 172/67/76
f 256/67/211 174/67/97 199/67/121 324/67/212
f 320/67/204 252/67/207 170/67/107 193/67/119
f 324/67/212 199/67/121 173/67/105 255/67/213
f 257/67/214 175/67/99 196/67/98 325/67/215
f 325/67/215 196/67/98 174/67/97 256/67/211
f 258/67/216 176/67/101 198/67/114 326/67/217
f 326/67/217 198/67/114 175/67/99 257/67/214
f 255/67/213 173/67/105 200/67/102 327/67/218
f 327/67/218 200/67/102 176/67/101 258/67/216
f 239/67/185 308/67/171 304/67/174 235/67/186
f 177/67/93 186/67/96 328/67/219 259/67/220
f 186/67/96 178/67/85 260/67/221 328/67/219
f 178/67/85 187/67/88 329/67/222 260/67/221
f 187/67/88 179/67/84 261/67/223 329/67/222
f 179/67/84 183/67/83 330/67/224 261/67/223
f 183/67/83 180/67/82 262/67/225 330/67/224
f 180/67/82 185/67/112 331/67/226 262/67/225
f 185/67/112 177/67/93 259/67/220 331/67/226
f 268/67/92 275/67/91 203/67/74 207/67/75
f 206/67/66 269/67/65 51/46/227 50/45/228
f 269/67/65 203/67/74 52/60/229 51/46/227
f 203/67/74 275/67/91 53/61/230 52/60/229
f 275/67/91 204/67/89 54/62/231 53/61/230
f 204/67/89 274/67/72 55/63/232 54/62/231
f 274/67/72 205/67/70 56/64/233 55/63/232
f 205/67/70 273/67/68 49/59/234 56/64/233
f 273/67/68 206/67/66 50/45/228 49/59/234
f 214/67/133 283/67/137 352/67/235 353/67/236
f 283/67/137 211/67/131 349/67/237 352/67/235
f 211/67/131 280/67/124 346/67/238 349/67/237
f 280/67/124 212/67/123 343/67/239 346/67/238
f 212/67/123 281/67/128 340/67/240 343/67/239
f 281/67/128 213/67/127 337/67/241 340/67/240
f 213/67/127 282/67/134 334/67/242 337/67/241
f 282/67/134 214/67/133 353/67/236 334/67/242
f 337/67/241 334/67/242 333/67/243 336/67/244
f 336/67/244 333/67/243 332/67/245 335/67/246
f 335/67/246 332/67/245 263/67/69 209/67/71
f 340/67/240 337/67/241 336/67/244 339/67/247
f 339/67/247 336/67/244 335/67/246 338/67/248
f 338/67/248 335/67/246 209/67/71 264/67/73
f 343/67/239 340/67/240 339/67/247 342/67/249
f 342/67/249 339/67/247 338/67/248 341/67/250
f 341/67/250 338/67/248 264/67/73 208/67/90
f 346/67/238 343/67/239 342/67/249 345/67/251
f 345/67/251 342/67/249 341/67/250 344/67/252
f 344/67/252 341/67/250 208/67/90 268/67/92
f 349/67/237 346/67/238 345/67/251 348/67/253
f 348/67/253 345/67/251 344/67/252 347/67/254
f 347/67/254 344/67/252 268/67/92 207/67/75
f 352/67/235 349/67/237 348/67/253 351/67/255
f 351/67/255 348/67/253 347/67/254 350/67/256
f 350/67/256 347/67/254 207/67/75 265/67/64
f 353/67/236 352/67/235 351/67/255 354/67/257
f 354/67/257 351/67/255 350/67/256 355/67/258
f 355/67/258 350/67/256 265/67/64 210/67/67
f 334/67/242 353/67/236 354/67/257 333/67/243
f 333/67/243 354/67/257 355/67/258 332/67/245
f 332/67/245 355/67/258 210/67/67 263/67/69
f 220/67/139 289/67/144 376/67/259 377/67/260
f 289/67/144 221/67/143 373/67/261 376/67/259
f 221/67/143 290/67/150 370/67/262 373/67/261
f 290/67/150 222/67/149 367/67/263 370/67/262
f 222/67/149 291/67/153 364/67/264 367/67/263
f 291/67/153 219/67/147 361/67/265 364/67/264
f 219/67/147 288/67/140 358/67/266 361/67/265
f 288/67/140 220/67/139 377/67/260 358/67/266
f 361/67/265 358/67/266 357/67/267 360/67/268
f 360/67/268 357/67/267 356/67/269 359/67/270
f 359/67/270 356/67/269 284/67/125 215/67/132
f 364/67/264 361/67/265 360/67/268 363/67/271
f 363/67/271 360/67/268 359/67/270 362/67/272
f 362/67/272 359/67/270 215/67/132 287/67/138
f 367/67/263 364/67/264 363/67/271 366/67/273
f 366/67/273 363/67/271 362/67/272 365/67/274
f 365/67/274 362/67/272 287/67/138 218/67/136
f 370/67/262 367/67/263 366/67/273 369/67/275
f 369/67/275 366/67/273 365/67/274 368/67/276
f 368/67/276 365/67/274 218/67/136 286/67/135
f 373/67/261 370/67/262 369/67/275 372/67/277
f 372/67/277 369/67/275 368/67/276 371/67/278
f 371/67/278 368/67/276 286/67/135 217/67/130
f 376/67/259 373/67/261 372/67/277 375/67/279
f 375/67/279 372/67/277 371/67/278 374/67/280
f 374/67/280 371/67/278 217/67/130 285/67/129
f 377/67/260 376/67/259 375/67/279 378/67/281
f 378/67/281 375/67/279 374/67/280 379/67/282
f 379/67/282 374/67/280 285/67/129 216/67/126
f 358/67/266 377/67/260 378/67/281 357/67/267
f 357/67/267 378/67/281 379/67/282 356/67/269
f 356/67/269 379/67/282 216/67/126 284/67/125
f 228/67/155 297/67/160 400/67/283 401/67/284
f 297/67/160 229/67/159 397/67/285 400/67/283
f 229/67/159 298/67/166 394/67/286 397/67/285
f 298/67/166 230/67/165 391/67/287 394/67/286
f 230/67/165 299/67/169 388/67/288 391/67/287
f 299/67/169 227/67/163 385/67/289 388/67/288
f 227/67/163 296/67/156 382/67/290 385/67/289
f 296/67/156 228/67/155 401/67/284 382/67/290
f 385/67/289 382/67/290 381/67/291 384/67/292
f 384/67/292 381/67/291 380/67/293 383/67/294
f 383/67/294 380/67/293 292/67/141 223/67/148
f 388/67/288 385/67/289 384/67/292 387/67/295
f 387/67/295 384/67/292 383/67/294 386/67/296
f 386/67/296 383/67/294 223/67/148 295/67/154
f 391/67/287 388/67/288 387/67/295 390/67/297
f 390/67/297 387/67/295 386/67/296 389/67/298
f 389/67/298 386/67/296 295/67/154 226/67/152
f 394/67/286 391/67/287 390/67/297 393/67/299
f 393/67/299 390/67/297 389/67/298 392/67/300
f 392/67/300 389/67/298 226/67/152 294/67/151
f 397/67/285 394/67/286 393/67/299 396/67/301
f 396/67/301 393/67/299 392/67/300 395/67/302
f 395/67/302 392/67/300 294/67/151 225/67/146
f 400/67/283 397/67/285 396/67/301 399/67/303
f 399/67/303 396/67/301 395/67/302 398/67/304
f 398/67/304 395/67/302 225/67/146 293/67/145
f 401/67/284 400/67/283 399/67/303 402/67/305
f 402/67/305 399/67/303 398/67/304 403/67/306
f 403/67/306 398/67/304 293/67/145 224/67/142
f 382/67/290 401/67/284 402/67/305 381/67/291
f 381/67/291 402/67/305 403/67/306 380/67/293
f 380/67/293 403/67/306 224/67/142 292/67/141
f 260/67/221 329/67/222 424/67/307 425/67/308
f 329/67/222 261/67/223 421/67/309 424/67/307
f 261/67/223 330/67/224 418/67/310 421/67/309
f 330/67/224 262/67/225 415/67/311 418/67/310
f 262/67/225 331/67/226 412/67/312 415/67/311
f 331/67/226 259/67/220 409/67/313 412/67/312
f 259/67/220 328/67/219 406/67/314 409/67/313
f 328/67/219 260/67/221 425/67/308 406/67/314
f 409/67/313 406/67/314 405/67/315 408/67/316
f 408/67/316 405/67/315 404/67/317 407/67/318
f 407/67/318 404/67/317 300/67/157 231/67/164
f 412/67/312 409/67/313 408/67/316 411/67/319
f 411/67/319 408/67/316 407/67/318 410/67/320
f 410/67/320 407/67/318 231/67/164 303/67/170
f 415/67/311 412/67/312 411/67/319 414/67/321
f 414/67/321 411/67/319 410/67/320 413/67/322
f 413/67/322 410/67/320 303/67/170 234/67/168
f 418/67/310 415/67/311 414/67/321 417/67/323
f 417/67/323 414/67/321 413/67/322 416/67/324
f 416/67/324 413/67/322 234/67/168 302/67/167
f 421/67/309 418/67/310 417/67/323 420/67/325
f 420/67/325 417/67/323 416/67/324 419/67/326
f 419/67/326 416/67/324 302/67/167 233/67/162
f 424/67/307 421/67/309 420/67/325 423/67/327
f 423/67/327 420/67/325 419/67/326 422/67/328
f 422/67/328 419/67/326 233/67/162 301/67/161
f 425/67/308 424/67/307 423/67/327 426/67/329
f 426/67/329 423/67/327 422/67/328 427/67/330
f 427/67/330 422/67/328 301/67/161 232/67/158
f 406/67/314 425/67/308 426/67/329 405/67/315
f 405/67/315 426/67/329 427/67/330 404/67/317
f 404/67/317 427/67/330 232/67/158 300/67/157
f 320/67/204 251/67/203 433/67/331 428/67/332
f 251/67/203 323/67/210 436/67/333 433/67/331
f 323/67/210 254/67/209 439/67/334 436/67/333
f 254/67/209 322/67/208 442/67/335 439/67/334
f 322/67/208 253/67/206 445/67/336 442/67/335
f 253/67/206 321/67/205 448/67/337 445/67/336
f 321/67/205 252/67/207 451/67/338 448/67/337
f 252/67/207 320/67/204 428/67/332 451/67/338
f 428/67/332 433/67/331 432/67/339 429/67/340
f 429/67/340 432/67/339 431/67/341 430/67/342
f 430/67/342 431/67/341 243/67/190 312/67/189
f 433/67/331 436/67/333 435/67/343 432/67/339
f 432/67/339 435/67/343 434/67/344 431/67/341
f 431/67/341 434/67/344 315/67/202 243/67/190
f 436/67/333 439/67/334 438/67/345 435/67/343
f 435/67/343 438/67/345 437/67/346 434/67/344
f 434/67/344 437/67/346 246/67/200 315/67/202
f 439/67/334 442/67/335 441/67/347 438/67/345
f 438/67/345 441/67/347 440/67/348 437/67/346
f 437/67/346 440/67/348 314/67/198 246/67/200
f 442/67/335 445/67/336 444/67/349 441/67/347
f 441/67/347 444/67/349 443/67/350 440/67/348
f 440/67/348 443/67/350 245/67/196 314/67/198
f 445/67/336 448/67/337 447/67/351 444/67/349
f 444/67/349 447/67/351 446/67/352 443/67/350
f 443/67/350 446/67/352 313/67/194 245/67/196
f 448/67/337 451/67/338 450/67/353 447/67/351
f 447/67/351 450/67/353 449/67/354 446/67/352
f 446/67/352 449/67/354 244/67/192 313/67/194
f 451/67/338 428/67/332 429/67/340 450/67/353
f 450/67/353 429/67/340 430/67/342 449/67/354
f 449/67/354 430/67/342 312/67/189 244/67/192
f 319/67/201 250/67/199 107/46/355 106/45/356
f 250/67/199 318/67/197 108/60/357 107/46/355
f 318/67/197 249/67/195 109/61/358 108/60/357
f 249/67/195 317/67/193 110/62/359 109/61/358
f 317/67/193 248/67/191 111/63/360 110/62/359
f 248/67/191 316/67/188 112/64/361 111/63/360
f 316/67/188 247/67/187 105/59/362 112/64/361
f 247/67/187 319/67/201 106/45/356 105/59/362
f 324/67/212 255/67/213 457/67/363 452/67/364
f 255/67/213 327/67/218 460/67/365 457/67/363
f 327/67/218 258/67/216 463/67/366 460/67/365
f 258/67/216 326/67/217 466/67/367 463/67/366
f 326/67/217 257/67/214 469/67/368 466/67/367
f 257/67/214 325/67/215 472/67/369 469/67/368
f 325/67/215 256/67/211 475/67/370 472/67/369
f 256/67/211 324/67/212 452/67/364 475/67/370
f 452/67/364 457/67/363 456/67/371 453/67/372
f 453/67/372 456/67/371 455/67/373 454/67/374
f 454/67/374 455/67/373 235/67/186 304/67/174
f 457/67/363 460/67/365 459/67/375 456/67/371
f 456/67/371 459/67/375 458/67/376 455/67/373
f 455/67/373 458/67/376 307/67/184 235/67/186
f 460/67/365 463/67/366 462/67/377 459/67/375
f 459/67/375 462/67/377 461/67/378 458/67/376
f 458/67/376 461/67/378 238/67/182 307/67/184
f 463/67/366 466/67/367 465/67/379 462/67/377
f 462/67/377 465/67/379 464/67/380 461/67/378
f 461/67/378 464/67/380 306/67/180 238/67/182
f 466/67/367 469/67/368 468/67/381 465/67/379
f 465/67/379 468/67/381 467/67/382 464/67/380
f 464/67/380 467/67/382 237/67/178 306/67/180
f 469/67/368 472/67/369 471/67/383 468/67/381
f 468/67/381 471/67/383 470/67/384 467/67/382
f 467/67/382 470/67/384 305/67/176 237/67/178
f 472/67/369 475/67/370 474/67/385 471/67/383
f 471/67/383 474/67/385 473/67/386 470/67/384
f 470/67/384 473/67/386 236/67/173 305/67/176
f 475/67/370 452/67/364 453/67/372 474/67/385
f 474/67/385 453/67/372 454/67/374 473/67/386
f 473/67/386 454/67/374 304/67/174 236/67/173
f 308/67/171 239/67/185 163/46/387 162/45/388
f 239/67/185 311/67/183 164/60/389 163/46/387
f 311/67/183 242/67/181 165/61/390 164/60/389
f 242/67/181 310/67/179 166/62/391 165/61/390
f 310/67/179 241/67/177 167/63/392 166/62/391
f 241/67/177 309/67/175 168/64/393 167/63/392
f 309/67/175 240/67/172 161/59/394 168/64/393
f 240/67/172 308/67/171 162/45/388 161/59/394
