# Blender 5.0.1
# www.blender.org
mtllib Wire_Head_Black(GND_5V-Pin10&Pin12).mtl
o Wire_Head_Black(GND_5V-Pin10&Pin12)
v 0.027847 0.092644 0.232762
v 0.030701 0.092865 0.232913
v 0.030711 0.093232 0.230343
v 0.027827 0.092687 0.230592
v 0.030204 0.097948 0.230431
v 0.027795 0.097846 0.230597
v 0.028014 0.097848 0.232920
v 0.030126 0.098638 0.232754
v 0.030910 0.096600 0.232912
v 0.031389 0.096437 0.230588
v 0.029138 0.098594 0.233195
v 0.030509 0.098549 0.231649
v 0.028916 0.097892 0.230155
v 0.027401 0.097832 0.231701
v 0.027814 0.095267 0.230594
v 0.027397 0.092622 0.231677
v 0.027882 0.095150 0.232782
v 0.029088 0.092725 0.233196
v 0.030779 0.094877 0.233224
v 0.029359 0.096886 0.233226
v 0.030430 0.097651 0.232773
v 0.030825 0.097034 0.230568
v 0.031274 0.095190 0.230145
v 0.030212 0.095639 0.230104
v 0.029033 0.092865 0.230147
v 0.031363 0.096916 0.231690
v 0.081694 0.154331 0.238783
v 0.081694 0.156409 0.238783
v 0.079616 0.156409 0.238783
v 0.079616 0.154331 0.238783
v 0.081734 0.154285 0.235978
v 0.081734 0.156455 0.235978
v 0.079576 0.156455 0.236010
v 0.079576 0.154285 0.236010
v 0.075809 0.154331 0.230588
v 0.075825 0.156501 0.230605
v 0.075793 0.156485 0.232762
v 0.075777 0.154314 0.232746
v 0.033740 0.154665 0.230582
v 0.033724 0.156823 0.230599
v 0.033725 0.156806 0.232769
v 0.033740 0.154649 0.232752
v 0.031101 0.092428 0.231667
v 0.027799 0.056738 0.232761
v 0.029957 0.056770 0.232761
v 0.029957 0.056770 0.230590
v 0.027799 0.056738 0.230590
v 0.029948 0.150971 0.230582
v 0.027791 0.151003 0.230599
v 0.027808 0.151003 0.232769
v 0.029965 0.150971 0.232752
v 0.034601 0.094062 0.236010
v 0.034601 0.096232 0.236010
v 0.036758 0.096232 0.235978
v 0.036758 0.094062 0.235978
v 0.034641 0.094108 0.238783
v 0.034641 0.096186 0.238783
v 0.036718 0.096186 0.238783
v 0.036718 0.094108 0.238783
v 0.034601 0.051061 0.236010
v 0.034601 0.053232 0.236010
v 0.036758 0.053232 0.235978
v 0.036758 0.051061 0.235978
v 0.034641 0.051108 0.238783
v 0.034641 0.053186 0.238783
v 0.036718 0.053186 0.238783
v 0.036718 0.051108 0.238783
v 0.032114 0.093689 0.232770
v 0.032222 0.096221 0.232770
v 0.032304 0.096210 0.230596
v 0.032159 0.093723 0.230572
v 0.032247 0.051068 0.232754
v 0.032279 0.053225 0.232754
v 0.032311 0.053226 0.230597
v 0.032279 0.051068 0.230597
v 0.079172 0.155370 0.236016
v 0.080655 0.156862 0.235995
v 0.082138 0.155370 0.235972
v 0.080655 0.153941 0.238798
v 0.079226 0.155370 0.238798
v 0.080655 0.156800 0.238798
v 0.082085 0.155370 0.238798
v 0.029640 0.097767 0.233197
v 0.030798 0.095959 0.230147
v 0.030811 0.097552 0.231669
v 0.029184 0.094962 0.233228
v 0.028971 0.095398 0.230128
v 0.027400 0.095213 0.231685
v 0.080655 0.153878 0.235994
v 0.075823 0.155419 0.230192
v 0.075813 0.156900 0.231687
v 0.075779 0.155396 0.233159
v 0.075790 0.153916 0.231664
v 0.033732 0.155747 0.230183
v 0.033722 0.157219 0.231687
v 0.033732 0.155724 0.233168
v 0.033743 0.154253 0.231664
v 0.028878 0.056754 0.233168
v 0.030361 0.056776 0.231675
v 0.028878 0.056754 0.230183
v 0.027395 0.056732 0.231675
v 0.028867 0.150987 0.230183
v 0.027395 0.151009 0.231687
v 0.028890 0.150987 0.233168
v 0.030361 0.150965 0.231664
v 0.034196 0.095147 0.236016
v 0.035680 0.096639 0.235994
v 0.037163 0.095147 0.235972
v 0.035680 0.093655 0.235994
v 0.034250 0.095147 0.238798
v 0.035680 0.096576 0.238798
v 0.037109 0.095147 0.238798
v 0.035680 0.093717 0.238798
v 0.034196 0.052147 0.236016
v 0.035680 0.053639 0.235994
v 0.037163 0.052147 0.235972
v 0.035680 0.050655 0.235994
v 0.034250 0.052147 0.238798
v 0.035680 0.053576 0.238798
v 0.037109 0.052147 0.238798
v 0.035680 0.050717 0.238798
v 0.032149 0.094968 0.233167
v 0.032297 0.096663 0.231679
v 0.032250 0.094997 0.230186
v 0.032144 0.093233 0.231673
v 0.032257 0.052147 0.233159
v 0.032301 0.053630 0.231675
v 0.032301 0.052147 0.230192
v 0.032257 0.050664 0.231675
v 0.033773 0.094951 0.233297
v 0.034079 0.094999 0.233405
v 0.034153 0.095078 0.234024
v 0.034576 0.093951 0.234026
v 0.034456 0.093820 0.233247
v 0.033930 0.093713 0.232953
v 0.035657 0.093546 0.233895
v 0.035354 0.093385 0.232633
v 0.034303 0.093249 0.231935
v 0.036718 0.093986 0.233706
v 0.036196 0.093825 0.231938
v 0.034621 0.093695 0.230878
v 0.037091 0.095122 0.233595
v 0.036468 0.095001 0.231635
v 0.034743 0.094915 0.230482
v 0.036666 0.096232 0.233600
v 0.036094 0.096149 0.231809
v 0.034600 0.096104 0.230841
v 0.035590 0.096637 0.233737
v 0.035210 0.096583 0.232427
v 0.034247 0.096567 0.231854
v 0.034527 0.096208 0.233910
v 0.034351 0.096163 0.233093
v 0.033886 0.096154 0.232890
v 0.028904 0.054443 0.233158
v 0.029188 0.053048 0.233142
v 0.030158 0.052358 0.233137
v 0.027831 0.054332 0.232751
v 0.028283 0.052463 0.232733
v 0.029780 0.051349 0.232729
v 0.027428 0.054296 0.231667
v 0.027943 0.052250 0.231650
v 0.029644 0.050972 0.231647
v 0.027830 0.054345 0.230584
v 0.028281 0.052478 0.230569
v 0.029792 0.051353 0.230568
v 0.028903 0.054462 0.230178
v 0.029186 0.053069 0.230167
v 0.030174 0.052363 0.230166
v 0.029976 0.054573 0.230584
v 0.030091 0.053654 0.230576
v 0.030552 0.053372 0.230575
v 0.030378 0.054609 0.231668
v 0.030431 0.053867 0.231659
v 0.030689 0.053749 0.231657
v 0.030540 0.053368 0.232736
v 0.030092 0.053639 0.232740
v 0.029977 0.054560 0.232751
v 0.033845 0.052129 0.233267
v 0.034108 0.052131 0.233360
v 0.034163 0.052139 0.233994
v 0.034565 0.051056 0.233948
v 0.034438 0.051048 0.233133
v 0.033971 0.051047 0.232886
v 0.035635 0.050649 0.233811
v 0.035317 0.050639 0.232509
v 0.034320 0.050639 0.231867
v 0.036704 0.051055 0.233668
v 0.036194 0.051041 0.231880
v 0.034674 0.051040 0.230846
v 0.037105 0.052139 0.233608
v 0.036523 0.052122 0.231637
v 0.034811 0.052119 0.230462
v 0.036703 0.053223 0.233654
v 0.036192 0.053205 0.231865
v 0.034685 0.053201 0.230842
v 0.035633 0.053629 0.233792
v 0.035314 0.053615 0.232488
v 0.034336 0.053610 0.231862
v 0.034564 0.053223 0.233935
v 0.034436 0.053212 0.233118
v 0.033983 0.053208 0.232882
v 0.031089 0.155622 0.230183
v 0.029641 0.155039 0.230183
v 0.029023 0.153619 0.230183
v 0.031320 0.154565 0.230582
v 0.030395 0.154263 0.230582
v 0.030075 0.153367 0.230582
v 0.031408 0.154162 0.231664
v 0.030683 0.153968 0.231664
v 0.030477 0.153271 0.231664
v 0.031323 0.154549 0.232752
v 0.030407 0.154251 0.232752
v 0.030092 0.153363 0.232752
v 0.031094 0.155600 0.233168
v 0.029657 0.155022 0.233168
v 0.029045 0.153613 0.233168
v 0.030864 0.156657 0.232769
v 0.028903 0.155798 0.232769
v 0.027993 0.153865 0.232769
v 0.030776 0.157060 0.231687
v 0.028615 0.156094 0.231687
v 0.027592 0.153961 0.231687
v 0.027977 0.153869 0.230599
v 0.028891 0.155810 0.230599
v 0.030860 0.156673 0.230599
v 0.079045 0.155371 0.233932
v 0.078847 0.155373 0.233386
v 0.078090 0.155378 0.233235
v 0.079434 0.156456 0.233823
v 0.079112 0.156459 0.233084
v 0.078169 0.156466 0.232846
v 0.080472 0.156864 0.233528
v 0.079812 0.156869 0.232264
v 0.078364 0.156880 0.231787
v 0.081509 0.156457 0.233231
v 0.080509 0.156465 0.231440
v 0.078553 0.156480 0.230723
v 0.081897 0.155372 0.233118
v 0.080767 0.155381 0.231125
v 0.078618 0.155398 0.230316
v 0.081508 0.154287 0.233226
v 0.080503 0.154294 0.231427
v 0.078539 0.154310 0.230706
v 0.080471 0.153879 0.233522
v 0.079803 0.153884 0.232247
v 0.078344 0.153896 0.231764
v 0.078155 0.154296 0.232829
v 0.079106 0.154288 0.233071
v 0.079433 0.154286 0.233819
v 0.078535 0.153250 0.249517
v 0.080655 0.152371 0.249517
v 0.078535 0.153250 0.240313
v 0.080655 0.152371 0.240313
v 0.080655 0.152455 0.240115
v 0.082776 0.153250 0.240313
v 0.082776 0.153250 0.249517
v 0.083654 0.155370 0.249517
v 0.083654 0.155370 0.240313
v 0.083570 0.155370 0.240115
v 0.082776 0.157491 0.240313
v 0.082716 0.157431 0.240115
v 0.082776 0.157491 0.249517
v 0.080655 0.158369 0.249517
v 0.080655 0.158369 0.240313
v 0.080655 0.158285 0.240115
v 0.078535 0.157491 0.240313
v 0.078594 0.157431 0.240115
v 0.078535 0.157491 0.249517
v 0.077656 0.155370 0.249517
v 0.077656 0.155370 0.240313
v 0.077740 0.155370 0.240115
v 0.078594 0.153309 0.240115
v 0.078737 0.153452 0.240033
v 0.078925 0.153640 0.240033
v 0.079067 0.153782 0.240115
v 0.080655 0.152923 0.240033
v 0.080655 0.153125 0.240115
v 0.080655 0.152657 0.240033
v 0.082574 0.153452 0.240033
v 0.082716 0.153309 0.240115
v 0.082386 0.153640 0.240033
v 0.082243 0.153782 0.240115
v 0.083102 0.155370 0.240033
v 0.082900 0.155370 0.240115
v 0.083368 0.155370 0.240033
v 0.082574 0.157289 0.240033
v 0.082386 0.157101 0.240033
v 0.082243 0.156958 0.240115
v 0.080655 0.157817 0.240033
v 0.080655 0.157615 0.240115
v 0.080655 0.158083 0.240033
v 0.078737 0.157289 0.240033
v 0.078925 0.157101 0.240033
v 0.079067 0.156958 0.240115
v 0.078208 0.155370 0.240033
v 0.078410 0.155370 0.240115
v 0.077942 0.155370 0.240033
v 0.078493 0.155370 0.240313
v 0.079127 0.153842 0.240313
v 0.080655 0.153208 0.240313
v 0.082184 0.153842 0.240313
v 0.082817 0.155370 0.240313
v 0.082184 0.156899 0.240313
v 0.080655 0.157532 0.240313
v 0.079127 0.156899 0.240313
v 0.033559 0.093026 0.249517
v 0.035680 0.092148 0.249517
v 0.033559 0.093026 0.240313
v 0.035680 0.092148 0.240313
v 0.035680 0.092232 0.240115
v 0.037800 0.093026 0.240313
v 0.037800 0.093026 0.249517
v 0.038678 0.095147 0.249517
v 0.038678 0.095147 0.240313
v 0.038595 0.095147 0.240115
v 0.037800 0.097267 0.240313
v 0.037741 0.097208 0.240115
v 0.037800 0.097267 0.249517
v 0.035680 0.098146 0.249517
v 0.035680 0.098146 0.240313
v 0.035680 0.098062 0.240115
v 0.033559 0.097267 0.240313
v 0.033618 0.097208 0.240115
v 0.033559 0.097267 0.249517
v 0.032681 0.095147 0.249517
v 0.032681 0.095147 0.240313
v 0.032764 0.095147 0.240115
v 0.033618 0.093085 0.240115
v 0.033761 0.093228 0.240033
v 0.033949 0.093416 0.240033
v 0.034092 0.093559 0.240115
v 0.035680 0.092700 0.240033
v 0.035680 0.092901 0.240115
v 0.035680 0.092434 0.240033
v 0.037598 0.093228 0.240033
v 0.037741 0.093085 0.240115
v 0.037410 0.093416 0.240033
v 0.037267 0.093559 0.240115
v 0.038127 0.095147 0.240033
v 0.037925 0.095147 0.240115
v 0.038393 0.095147 0.240033
v 0.037598 0.097065 0.240033
v 0.037410 0.096877 0.240033
v 0.037267 0.096735 0.240115
v 0.035680 0.097594 0.240033
v 0.035680 0.097392 0.240115
v 0.035680 0.097860 0.240033
v 0.033761 0.097065 0.240033
v 0.033949 0.096877 0.240033
v 0.034092 0.096735 0.240115
v 0.033232 0.095147 0.240033
v 0.033434 0.095147 0.240115
v 0.032966 0.095147 0.240033
v 0.033518 0.095147 0.240313
v 0.034151 0.093618 0.240313
v 0.035680 0.092985 0.240313
v 0.037208 0.093618 0.240313
v 0.037841 0.095147 0.240313
v 0.037208 0.096675 0.240313
v 0.035680 0.097309 0.240313
v 0.034151 0.096675 0.240313
v 0.033559 0.050026 0.249517
v 0.035680 0.049148 0.249517
v 0.033559 0.050026 0.240313
v 0.035680 0.049148 0.240313
v 0.035680 0.049232 0.240115
v 0.037800 0.050026 0.240313
v 0.037800 0.050026 0.249517
v 0.038678 0.052147 0.249517
v 0.038678 0.052147 0.240313
v 0.038595 0.052147 0.240115
v 0.037800 0.054267 0.240313
v 0.037741 0.054208 0.240115
v 0.037800 0.054267 0.249517
v 0.035680 0.055146 0.249517
v 0.035680 0.055146 0.240313
v 0.035680 0.055062 0.240115
v 0.033559 0.054267 0.240313
v 0.033618 0.054208 0.240115
v 0.033559 0.054267 0.249517
v 0.032681 0.052147 0.249517
v 0.032681 0.052147 0.240313
v 0.032764 0.052147 0.240115
v 0.033618 0.050085 0.240115
v 0.033761 0.050228 0.240033
v 0.033949 0.050416 0.240033
v 0.034092 0.050559 0.240115
v 0.035680 0.049700 0.240033
v 0.035680 0.049901 0.240115
v 0.035680 0.049434 0.240033
v 0.037598 0.050228 0.240033
v 0.037741 0.050085 0.240115
v 0.037410 0.050416 0.240033
v 0.037267 0.050559 0.240115
v 0.038127 0.052147 0.240033
v 0.037925 0.052147 0.240115
v 0.038393 0.052147 0.240033
v 0.037598 0.054065 0.240033
v 0.037410 0.053877 0.240033
v 0.037267 0.053735 0.240115
v 0.035680 0.054594 0.240033
v 0.035680 0.054392 0.240115
v 0.035680 0.054860 0.240033
v 0.033761 0.054065 0.240033
v 0.033949 0.053877 0.240033
v 0.034092 0.053735 0.240115
v 0.033232 0.052147 0.240033
v 0.033434 0.052147 0.240115
v 0.032966 0.052147 0.240033
v 0.033518 0.052147 0.240313
v 0.034151 0.050618 0.240313
v 0.035680 0.049985 0.240313
v 0.037208 0.050618 0.240313
v 0.037841 0.052147 0.240313
v 0.037208 0.053675 0.240313
v 0.035680 0.054308 0.240313
v 0.034151 0.053675 0.240313
vn -0.7043 -0.7091 0.0337
vn 0.0084 -0.9999 0.0095
vn 0.0001 -0.9761 -0.2175
vn -0.6903 -0.6894 -0.2195
vn -0.9758 -0.0000 -0.2186
vn -0.9991 -0.0000 0.0417
vn -0.6903 0.6894 -0.2196
vn -0.7044 0.7090 0.0340
vn 0.0001 0.9761 -0.2175
vn 0.0083 0.9999 0.0101
vn 0.6904 0.6893 -0.2196
vn 0.7140 0.6999 -0.0183
vn 0.9758 -0.0000 -0.2187
vn 0.9995 -0.0001 -0.0315
vn 0.7139 -0.7000 -0.0188
vn 0.6904 -0.6893 -0.2197
vn 0.3593 0.4094 0.8386
vn 0.6727 0.2975 0.6775
vn 0.1870 0.1065 0.9766
vn -0.0286 0.0415 0.9987
vn 0.7195 0.1316 0.6819
vn 0.0323 0.0377 0.9988
vn -0.6307 -0.0002 0.7760
vn 0.3939 0.5775 -0.7151
vn 0.1121 0.0399 -0.9929
vn 0.2529 0.1744 -0.9517
vn 0.5956 0.4301 -0.6784
vn 0.3615 -0.2356 -0.9021
vn 0.0873 0.0240 -0.9959
vn 0.5811 0.1638 -0.7972
vn 0.5683 0.8226 0.0184
vn 0.8772 0.4800 0.0129
vn 0.9866 0.1633 0.0051
vn 0.4418 -0.2497 0.8616
vn 0.1110 -0.0077 0.9938
vn -0.1070 -0.0051 0.9942
vn -0.0852 -0.0216 0.9961
vn -0.6697 0.0011 0.7426
vn -0.6909 0.0014 0.7229
vn -0.1032 -0.0142 -0.9946
vn -0.1473 0.0025 -0.9891
vn -0.7042 -0.0021 -0.7100
vn -0.7111 -0.0032 -0.7030
vn -0.7171 -0.0005 -0.6970
vn -0.0994 0.0204 -0.9948
vn -0.9995 0.0033 0.0307
vn -0.9999 0.0013 0.0101
vn -0.9991 0.0019 0.0416
vn 0.0207 0.7085 -0.7054
vn 0.0220 0.0076 -0.9997
vn -0.0008 0.0140 -0.9999
vn -0.0160 0.7176 -0.6962
vn -0.0070 0.7027 0.7115
vn 0.0080 1.0000 0.0034
vn -0.0226 0.9997 0.0077
vn -0.0157 0.7068 0.7073
vn 0.0100 -0.6977 -0.7164
vn 0.0118 -0.6997 -0.7143
vn -0.0178 -0.7135 0.7004
vn -0.0171 -0.0077 0.9998
vn -0.0005 -0.0017 1.0000
vn 0.0120 -0.7108 0.7033
vn -0.0072 -0.9999 -0.0122
vn 0.0162 -0.9998 -0.0078
vn -0.0258 -0.0036 0.9997
vn 0.6908 -0.0055 0.7230
vn 0.9085 -0.4174 -0.0213
vn 1.0000 -0.0069 0.0030
vn 0.6871 -0.0036 -0.7266
vn -0.7037 -0.0057 0.7104
vn -0.0368 -0.0005 -0.9993
vn -0.7073 -0.0034 -0.7069
vn -1.0000 -0.0065 0.0025
vn -0.7197 0.0233 -0.6939
vn -0.0343 0.0017 -0.9994
vn -0.6903 -0.6894 -0.2196
vn -0.9758 -0.0000 -0.2185
vn -0.9998 0.0003 0.0184
vn -0.7071 -0.7069 0.0180
vn -0.6882 0.0227 0.7252
vn -0.9992 0.0325 0.0222
vn 0.6971 -0.0170 -0.7167
vn 0.7168 -0.0176 0.6971
vn 0.0213 0.0012 0.9998
vn 0.9997 -0.0239 0.0056
vn -0.7098 0.7042 0.0184
vn -0.9997 -0.0010 0.0236
vn 0.0015 1.0000 0.0094
vn 0.6904 0.6893 -0.2197
vn 0.7095 0.7047 -0.0026
vn 1.0000 0.0071 -0.0035
vn 0.6904 -0.6893 -0.2196
vn 0.7181 -0.6957 0.0155
vn 0.0073 -0.9994 0.0348
vn -0.7094 -0.7039 0.0345
vn -0.7068 0.7073 0.0156
vn 0.0023 1.0000 0.0086
vn 0.7095 0.7047 0.0009
vn 1.0000 0.0005 -0.0023
vn 0.7100 -0.7042 0.0033
vn 0.0024 -0.9999 0.0121
vn 0.0219 0.0152 0.9996
vn 0.0919 0.6556 0.7495
vn 0.1490 -0.5947 0.7900
vn 0.1655 0.9860 -0.0213
vn 0.1427 0.6504 -0.7461
vn 0.1194 0.0176 -0.9927
vn 0.2008 -0.5797 -0.7897
vn 0.2988 -0.9534 -0.0415
vn -0.1580 -0.6964 0.7000
vn -0.2358 0.0087 0.9718
vn 0.0672 -0.9976 -0.0191
vn 0.2781 -0.6621 -0.6959
vn 0.3468 -0.0123 -0.9379
vn 0.2638 0.6393 -0.7223
vn 0.0428 0.9971 -0.0636
vn -0.1649 0.7127 0.6818
vn -0.4536 -0.7571 0.4701
vn -0.7825 0.0079 0.6227
vn -0.6971 -0.7055 0.1279
vn -0.9953 -0.0065 0.0963
vn 0.1386 -0.9898 0.0334
vn 0.0574 -0.9959 0.0695
vn 0.6420 -0.6473 -0.4108
vn 0.7482 -0.6590 -0.0767
vn 0.8018 0.0026 -0.5976
vn 0.9864 0.0206 -0.1628
vn 0.5866 0.6505 -0.4824
vn 0.7099 0.6902 -0.1402
vn 0.0564 0.9946 -0.0867
vn 0.0137 0.9994 -0.0305
vn -0.5100 0.7744 0.3745
vn -0.7129 0.6986 0.0610
vn 0.0023 0.7069 0.7073
vn 0.0465 0.9989 -0.0080
vn 0.2836 0.9589 0.0014
vn 0.2034 0.6450 0.7366
vn 0.0740 0.6952 -0.7150
vn 0.2118 0.6455 -0.7338
vn 0.0557 -0.0112 -0.9984
vn -0.0179 -0.0504 -0.9986
vn -0.0037 -0.7079 -0.7063
vn -0.2683 -0.6849 -0.6774
vn -0.0611 -0.9981 -0.0102
vn -0.3692 -0.9293 -0.0047
vn -0.0754 -0.7156 0.6945
vn -0.2765 -0.6886 0.6704
vn -0.0439 -0.0090 0.9990
vn -0.0293 -0.0544 0.9981
vn -0.0679 -0.0549 0.9962
vn -0.6197 -0.4155 0.6659
vn -0.0189 -0.0146 0.9997
vn -0.7184 -0.0953 0.6890
vn -0.8338 -0.5521 -0.0037
vn -0.9919 -0.1270 0.0001
vn -0.6198 -0.4065 -0.6713
vn -0.7198 -0.0871 -0.6887
vn -0.0688 -0.0415 -0.9968
vn -0.0204 -0.0020 -0.9998
vn 0.5226 0.3466 -0.7790
vn 0.7046 0.0497 -0.7079
vn 0.8334 0.5527 0.0026
vn 0.9986 0.0536 0.0008
vn 0.5243 0.3355 0.7826
vn 0.7045 0.0403 0.7086
vn -0.1897 -0.7288 0.6579
vn -0.2464 0.0012 0.9692
vn 0.0155 -0.9988 -0.0468
vn 0.2493 -0.6788 -0.6907
vn 0.3441 -0.0046 -0.9389
vn 0.2572 0.6720 -0.6944
vn 0.0266 0.9984 -0.0508
vn -0.1811 0.7313 0.6576
vn -0.5020 -0.7828 0.3677
vn -0.8053 0.0024 0.5928
vn -0.7023 -0.7091 0.0629
vn -0.9975 0.0008 0.0702
vn 0.0680 -0.9967 -0.0448
vn 0.0236 -0.9997 -0.0033
vn 0.6022 -0.6713 -0.4321
vn 0.7190 -0.6869 -0.1058
vn 0.8099 -0.0036 -0.5866
vn 0.9883 0.0002 -0.1524
vn 0.6016 0.6659 -0.4411
vn 0.7173 0.6873 -0.1141
vn 0.0664 0.9961 -0.0582
vn 0.0216 0.9996 -0.0160
vn -0.5042 0.7865 0.3566
vn -0.7025 0.7097 0.0533
vn -0.9679 0.2514 0.0074
vn -0.7148 0.1850 -0.6744
vn -0.7049 0.1824 0.6855
vn -0.0289 0.0118 0.9995
vn 0.6859 -0.1364 0.7148
vn 0.9832 -0.1825 -0.0078
vn 0.6744 -0.1344 -0.7261
vn -0.0443 0.0154 -0.9989
vn -0.0656 0.0673 -0.9956
vn 0.4309 -0.4428 -0.7863
vn -0.0142 0.0429 -0.9990
vn 0.1215 -0.6781 -0.7248
vn 0.6974 -0.7166 -0.0092
vn 0.1637 -0.9865 -0.0078
vn 0.4398 -0.4519 0.7761
vn 0.1232 -0.6896 0.7136
vn -0.0552 0.0567 0.9969
vn -0.0108 0.0274 0.9996
vn -0.5160 0.5300 0.6729
vn -0.1683 0.7077 0.6862
vn -0.6975 0.7165 0.0073
vn -0.2323 0.9726 0.0074
vn -0.5227 0.5370 -0.6621
vn -0.1707 0.7176 -0.6752
vn 0.0038 -0.9993 -0.0372
vn -0.1030 -0.7197 0.6866
vn 0.1393 -0.6791 -0.7207
vn 0.1980 0.0059 -0.9802
vn 0.1479 0.6880 -0.7105
vn 0.0166 0.9996 -0.0216
vn -0.0932 0.7100 0.6981
vn -0.1286 -0.0068 0.9917
vn -0.6492 -0.0042 0.7606
vn -0.4029 0.7790 0.4805
vn -0.9755 -0.0003 0.2200
vn -0.6697 0.7245 0.1629
vn 0.0589 0.9965 -0.0593
vn 0.0422 0.9990 -0.0148
vn 0.4856 0.6694 -0.5623
vn 0.7039 0.6775 -0.2135
vn 0.6495 0.0023 -0.7604
vn 0.9562 -0.0001 -0.2929
vn 0.4814 -0.6661 -0.5697
vn 0.7030 -0.6774 -0.2165
vn 0.0530 -0.9961 -0.0706
vn 0.0419 -0.9989 -0.0191
vn -0.4068 -0.7829 0.4708
vn -0.6694 -0.7253 0.1605
vn -0.5263 -0.5263 -0.6678
vn -0.0000 -0.7444 -0.6678
vn -0.0000 -0.9818 -0.1897
vn -0.6943 -0.6943 -0.1897
vn 0.5263 -0.5263 -0.6678
vn 0.6943 -0.6943 -0.1897
vn 0.7071 -0.7071 -0.0000
vn -0.0000 -1.0000 -0.0000
vn 0.5263 0.5263 -0.6678
vn 0.6943 0.6943 -0.1897
vn 0.9818 -0.0000 -0.1897
vn 0.7444 -0.0000 -0.6678
vn -0.5263 0.5263 -0.6678
vn -0.6943 0.6943 -0.1897
vn -0.0000 0.9818 -0.1897
vn -0.0000 0.7444 -0.6678
vn 0.7071 0.7071 -0.0000
vn 1.0000 -0.0000 -0.0000
vn 0.1448 -0.0000 -0.9895
vn 0.1024 0.1024 -0.9895
vn -0.1676 -0.1676 -0.9715
vn -0.2370 -0.0000 -0.9715
vn 0.1676 -0.1676 -0.9715
vn 0.2370 -0.0000 -0.9715
vn -1.0000 -0.0000 -0.0000
vn -0.7071 0.7071 -0.0000
vn -0.9818 -0.0000 -0.1897
vn -0.0000 1.0000 -0.0000
vn 0.1676 0.1676 -0.9715
vn -0.0000 0.2370 -0.9715
vn -0.7444 -0.0000 -0.6678
vn -0.7071 -0.7071 -0.0000
vn -0.0000 0.6474 -0.7621
vn -0.0000 0.1448 -0.9895
vn 0.4578 0.4578 -0.7621
vn -0.0000 -0.2370 -0.9715
vn 0.6514 0.6514 -0.3891
vn -0.0000 0.9212 -0.3891
vn -0.1676 0.1676 -0.9715
vn -0.6474 -0.0000 -0.7621
vn -0.1448 -0.0000 -0.9895
vn -0.1024 0.1024 -0.9895
vn -0.4578 0.4578 -0.7621
vn -0.0000 -0.6474 -0.7621
vn -0.0000 -0.1448 -0.9895
vn -0.1024 -0.1024 -0.9895
vn -0.4578 -0.4578 -0.7621
vn 0.6474 -0.0000 -0.7621
vn 0.1024 -0.1024 -0.9895
vn 0.4578 -0.4578 -0.7621
vn 0.9212 -0.0000 -0.3891
vn -0.6514 0.6514 -0.3891
vn -0.9212 -0.0000 -0.3890
vn -0.6514 -0.6514 -0.3891
vn -0.0000 -0.9212 -0.3891
vn 0.6514 -0.6514 -0.3891
vn 0.6514 0.6514 -0.3890
vn -0.0000 0.9212 -0.3890
vn 0.9212 -0.0000 -0.3890
vn -0.6514 0.6514 -0.3890
vn -0.6514 -0.6514 -0.3890
vn -0.0000 -0.9212 -0.3890
vn 0.6514 -0.6514 -0.3890
vn -0.6397 0.6397 -0.4260
vn -0.0000 0.9068 -0.4215
vn 0.6397 0.6397 -0.4260
vn 0.9068 -0.0000 -0.4215
vn 0.6397 -0.6397 -0.4260
vn -0.0000 -0.9068 -0.4215
vn -0.6397 -0.6397 -0.4260
vn -0.9068 -0.0000 -0.4215
vt 0.000000 0.000000
vt 0.636322 0.771411
vt 0.587470 0.804750
vt 0.582466 0.801554
vt 0.635177 0.765465
vt 0.576221 0.861411
vt 0.570569 0.862499
vt 0.433500 0.501817
vt 0.495149 0.501817
vt 0.495149 0.744281
vt 0.433500 0.744281
vt 0.667721 0.922223
vt 0.668877 0.928042
vt 0.605422 0.915050
vt 0.608737 0.910132
vt 0.727696 0.832155
vt 0.733433 0.831018
vt 0.721608 0.892773
vt 0.716620 0.889535
vt 0.310201 0.501817
vt 0.371850 0.501817
vt 0.371850 0.744281
vt 0.310201 0.744281
vt 0.687564 0.793554
vt 0.638896 0.784065
vt 0.637511 0.777194
vt 0.691445 0.787669
vt 0.581871 0.860294
vt 0.612010 0.905265
vt 0.125252 0.501817
vt 0.186902 0.501817
vt 0.186902 0.744281
vt 0.125252 0.744281
vt 0.248551 0.501817
vt 0.248551 0.744281
vt 0.666609 0.916401
vt 0.711799 0.886320
vt 0.694675 0.782803
vt 0.697976 0.777719
vt 0.063603 0.501817
vt 0.063603 0.744281
vt 0.602608 0.814790
vt 0.598019 0.811727
vt 0.639988 0.789629
vt 0.592254 0.807905
vt 0.641149 0.795086
vt 0.607213 0.817814
vt 0.722022 0.833305
vt 0.619061 0.894562
vt 0.615915 0.899401
vt 0.588618 0.858968
vt 0.594043 0.857906
vt 0.701466 0.879486
vt 0.706041 0.882519
vt 0.665296 0.909466
vt 0.664231 0.903895
vt 0.684425 0.798269
vt 0.715204 0.834694
vt 0.709684 0.835861
vt 0.681227 0.803114
vt 0.599435 0.856891
vt 0.622123 0.889732
vt 0.663198 0.898415
vt 0.696941 0.876438
vt 0.704000 0.837048
vt 0.001953 0.501817
vt 0.001953 0.744281
s 1
usemtl Material.002
f 34/1/1 89/1/2 79/1/3 30/1/4
f 30/1/4 80/1/5 76/1/6 34/1/1
f 76/1/6 80/1/5 29/1/7 33/1/8
f 29/1/7 81/1/9 77/1/10 33/1/8
f 77/1/10 81/1/9 28/1/11 32/1/12
f 28/1/11 82/1/13 78/1/14 32/1/12
f 89/1/2 31/1/15 27/1/16 79/1/3
f 9/1/17 21/1/18 83/1/19 20/1/20
f 8/1/21 11/1/22 83/1/19 21/1/18
f 7/1/23 20/1/20 83/1/19 11/1/22
f 10/1/24 23/1/25 84/1/26 22/1/27
f 3/1/28 24/1/29 84/1/26 23/1/25
f 5/1/30 22/1/27 84/1/26 24/1/29
f 9/1/17 26/1/31 85/1/32 21/1/18
f 26/1/31 10/1/24 22/1/27 85/1/32
f 85/1/32 22/1/27 5/1/30 12/1/33
f 21/1/18 85/1/32 12/1/33 8/1/21
f 2/1/34 19/1/35 86/1/36 18/1/37
f 19/1/35 9/1/17 20/1/20 86/1/36
f 86/1/36 20/1/20 7/1/23 17/1/38
f 18/1/37 86/1/36 17/1/38 1/1/39
f 3/1/28 25/1/40 87/1/41 24/1/29
f 25/1/40 4/1/42 15/1/43 87/1/41
f 87/1/41 15/1/43 6/1/44 13/1/45
f 24/1/29 87/1/41 13/1/45 5/1/30
f 1/1/39 17/1/38 88/1/46 16/1/47
f 17/1/38 7/1/23 14/1/48 88/1/46
f 88/1/46 14/1/48 6/1/44 15/1/43
f 16/1/47 88/1/46 15/1/43 4/1/42
f 36/1/49 90/1/50 94/1/51 40/1/52
f 37/1/53 91/1/54 95/1/55 41/1/56
f 90/1/50 35/1/57 39/1/58 94/1/51
f 38/1/59 92/1/60 96/1/61 42/1/62
f 91/1/54 36/1/49 40/1/52 95/1/55
f 35/1/57 93/1/63 97/1/64 39/1/58
f 92/1/60 37/1/53 41/1/56 96/1/61
f 93/1/63 38/1/59 42/1/62 97/1/64
f 2/1/34 18/1/37 98/1/65 45/1/66
f 3/1/28 43/1/67 99/1/68 46/1/69
f 18/1/37 1/1/39 44/1/70 98/1/65
f 4/1/42 25/1/40 100/1/71 47/1/72
f 43/1/67 2/1/34 45/1/66 99/1/68
f 1/1/39 16/1/47 101/1/73 44/1/70
f 25/1/40 3/1/28 46/1/69 100/1/71
f 16/1/47 4/1/42 47/1/72 101/1/73
f 49/1/74 102/1/75 13/1/45 6/1/44
f 64/1/76 118/1/77 114/1/78 60/1/79
f 50/1/80 103/1/81 14/1/48 7/1/23
f 102/1/75 48/1/82 5/1/30 13/1/45
f 51/1/83 104/1/84 11/1/22 8/1/21
f 103/1/81 49/1/74 6/1/44 14/1/48
f 48/1/82 105/1/85 12/1/33 5/1/30
f 104/1/84 50/1/80 7/1/23 11/1/22
f 105/1/85 51/1/83 8/1/21 12/1/33
f 110/1/77 57/1/7 53/1/86 106/1/87
f 57/1/7 111/1/9 107/1/88 53/1/86
f 111/1/9 58/1/89 54/1/90 107/1/88
f 58/1/89 112/1/13 108/1/91 54/1/90
f 112/1/13 59/1/92 55/1/93 108/1/91
f 59/1/92 113/1/3 109/1/94 55/1/93
f 113/1/3 56/1/76 52/1/95 109/1/94
f 118/1/77 65/1/7 61/1/96 114/1/78
f 65/1/7 119/1/9 115/1/97 61/1/96
f 119/1/9 66/1/89 62/1/98 115/1/97
f 66/1/89 120/1/13 116/1/99 62/1/98
f 120/1/13 67/1/92 63/1/100 116/1/99
f 67/1/92 121/1/3 117/1/101 63/1/100
f 121/1/3 64/1/76 60/1/79 117/1/101
f 122/1/102 69/1/103 9/1/17 19/1/35
f 68/1/104 122/1/102 19/1/35 2/1/34
f 123/1/105 70/1/106 10/1/24 26/1/31
f 69/1/103 123/1/105 26/1/31 9/1/17
f 124/1/107 71/1/108 3/1/28 23/1/25
f 70/1/106 124/1/107 23/1/25 10/1/24
f 125/1/109 68/1/104 2/1/34 43/1/67
f 71/1/108 125/1/109 43/1/67 3/1/28
f 56/1/76 110/1/77 106/1/87 52/1/95
f 122/1/102 68/1/104 135/1/110 130/1/111
f 68/1/104 125/1/109 138/1/112 135/1/110
f 125/1/109 71/1/108 141/1/113 138/1/112
f 71/1/108 124/1/107 144/1/114 141/1/113
f 124/1/107 70/1/106 147/1/115 144/1/114
f 70/1/106 123/1/105 150/1/116 147/1/115
f 123/1/105 69/1/103 153/1/117 150/1/116
f 69/1/103 122/1/102 130/1/111 153/1/117
f 130/1/111 135/1/110 134/1/118 131/1/119
f 131/1/119 134/1/118 133/1/120 132/1/121
f 132/1/121 133/1/120 52/1/95 106/1/87
f 135/1/110 138/1/112 137/1/122 134/1/118
f 134/1/118 137/1/122 136/1/123 133/1/120
f 133/1/120 136/1/123 109/1/94 52/1/95
f 138/1/112 141/1/113 140/1/124 137/1/122
f 137/1/122 140/1/124 139/1/125 136/1/123
f 136/1/123 139/1/125 55/1/93 109/1/94
f 141/1/113 144/1/114 143/1/126 140/1/124
f 140/1/124 143/1/126 142/1/127 139/1/125
f 139/1/125 142/1/127 108/1/91 55/1/93
f 144/1/114 147/1/115 146/1/128 143/1/126
f 143/1/126 146/1/128 145/1/129 142/1/127
f 142/1/127 145/1/129 54/1/90 108/1/91
f 147/1/115 150/1/116 149/1/130 146/1/128
f 146/1/128 149/1/130 148/1/131 145/1/129
f 145/1/129 148/1/131 107/1/88 54/1/90
f 150/1/116 153/1/117 152/1/132 149/1/130
f 149/1/130 152/1/132 151/1/133 148/1/131
f 148/1/131 151/1/133 53/1/86 107/1/88
f 153/1/117 130/1/111 131/1/119 152/1/132
f 152/1/132 131/1/119 132/1/121 151/1/133
f 151/1/133 132/1/121 106/1/87 53/1/86
f 78/1/14 82/1/13 27/1/16 31/1/15
f 73/1/134 127/1/135 174/1/136 175/1/137
f 127/1/135 74/1/138 171/1/139 174/1/136
f 74/1/138 128/1/140 168/1/141 171/1/139
f 128/1/140 75/1/142 165/1/143 168/1/141
f 75/1/142 129/1/144 162/1/145 165/1/143
f 129/1/144 72/1/146 159/1/147 162/1/145
f 72/1/146 126/1/148 156/1/149 159/1/147
f 126/1/148 73/1/134 175/1/137 156/1/149
f 159/1/147 156/1/149 155/1/150 158/1/151
f 158/1/151 155/1/150 154/1/152 157/1/153
f 157/1/153 154/1/152 98/1/65 44/1/70
f 162/1/145 159/1/147 158/1/151 161/1/154
f 161/1/154 158/1/151 157/1/153 160/1/155
f 160/1/155 157/1/153 44/1/70 101/1/73
f 165/1/143 162/1/145 161/1/154 164/1/156
f 164/1/156 161/1/154 160/1/155 163/1/157
f 163/1/157 160/1/155 101/1/73 47/1/72
f 168/1/141 165/1/143 164/1/156 167/1/158
f 167/1/158 164/1/156 163/1/157 166/1/159
f 166/1/159 163/1/157 47/1/72 100/1/71
f 171/1/139 168/1/141 167/1/158 170/1/160
f 170/1/160 167/1/158 166/1/159 169/1/161
f 169/1/161 166/1/159 100/1/71 46/1/69
f 174/1/136 171/1/139 170/1/160 173/1/162
f 173/1/162 170/1/160 169/1/161 172/1/163
f 172/1/163 169/1/161 46/1/69 99/1/68
f 175/1/137 174/1/136 173/1/162 176/1/164
f 176/1/164 173/1/162 172/1/163 177/1/165
f 177/1/165 172/1/163 99/1/68 45/1/66
f 156/1/149 175/1/137 176/1/164 155/1/150
f 155/1/150 176/1/164 177/1/165 154/1/152
f 154/1/152 177/1/165 45/1/66 98/1/65
f 126/1/148 72/1/146 183/1/166 178/1/167
f 72/1/146 129/1/144 186/1/168 183/1/166
f 129/1/144 75/1/142 189/1/169 186/1/168
f 75/1/142 128/1/140 192/1/170 189/1/169
f 128/1/140 74/1/138 195/1/171 192/1/170
f 74/1/138 127/1/135 198/1/172 195/1/171
f 127/1/135 73/1/134 201/1/173 198/1/172
f 73/1/134 126/1/148 178/1/167 201/1/173
f 178/1/167 183/1/166 182/1/174 179/1/175
f 179/1/175 182/1/174 181/1/176 180/1/177
f 180/1/177 181/1/176 60/1/79 114/1/78
f 183/1/166 186/1/168 185/1/178 182/1/174
f 182/1/174 185/1/178 184/1/179 181/1/176
f 181/1/176 184/1/179 117/1/101 60/1/79
f 186/1/168 189/1/169 188/1/180 185/1/178
f 185/1/178 188/1/180 187/1/181 184/1/179
f 184/1/179 187/1/181 63/1/100 117/1/101
f 189/1/169 192/1/170 191/1/182 188/1/180
f 188/1/180 191/1/182 190/1/183 187/1/181
f 187/1/181 190/1/183 116/1/99 63/1/100
f 192/1/170 195/1/171 194/1/184 191/1/182
f 191/1/182 194/1/184 193/1/185 190/1/183
f 190/1/183 193/1/185 62/1/98 116/1/99
f 195/1/171 198/1/172 197/1/186 194/1/184
f 194/1/184 197/1/186 196/1/187 193/1/185
f 193/1/185 196/1/187 115/1/97 62/1/98
f 198/1/172 201/1/173 200/1/188 197/1/186
f 197/1/186 200/1/188 199/1/189 196/1/187
f 196/1/187 199/1/189 61/1/96 115/1/97
f 201/1/173 178/1/167 179/1/175 200/1/188
f 200/1/188 179/1/175 180/1/177 199/1/189
f 199/1/189 180/1/177 114/1/78 61/1/96
f 49/1/74 103/1/81 222/1/190 223/1/191
f 103/1/81 50/1/80 219/1/192 222/1/190
f 50/1/80 104/1/84 216/1/193 219/1/192
f 104/1/84 51/1/83 213/1/194 216/1/193
f 51/1/83 105/1/85 210/1/195 213/1/194
f 105/1/85 48/1/82 207/1/196 210/1/195
f 48/1/82 102/1/75 204/1/197 207/1/196
f 102/1/75 49/1/74 223/1/191 204/1/197
f 207/1/196 204/1/197 203/1/198 206/1/199
f 206/1/199 203/1/198 202/1/200 205/1/201
f 205/1/201 202/1/200 94/1/51 39/1/58
f 210/1/195 207/1/196 206/1/199 209/1/202
f 209/1/202 206/1/199 205/1/201 208/1/203
f 208/1/203 205/1/201 39/1/58 97/1/64
f 213/1/194 210/1/195 209/1/202 212/1/204
f 212/1/204 209/1/202 208/1/203 211/1/205
f 211/1/205 208/1/203 97/1/64 42/1/62
f 216/1/193 213/1/194 212/1/204 215/1/206
f 215/1/206 212/1/204 211/1/205 214/1/207
f 214/1/207 211/1/205 42/1/62 96/1/61
f 219/1/192 216/1/193 215/1/206 218/1/208
f 218/1/208 215/1/206 214/1/207 217/1/209
f 217/1/209 214/1/207 96/1/61 41/1/56
f 222/1/190 219/1/192 218/1/208 221/1/210
f 221/1/210 218/1/208 217/1/209 220/1/211
f 220/1/211 217/1/209 41/1/56 95/1/55
f 223/1/191 222/1/190 221/1/210 224/1/212
f 224/1/212 221/1/210 220/1/211 225/1/213
f 225/1/213 220/1/211 95/1/55 40/1/52
f 204/1/197 223/1/191 224/1/212 203/1/198
f 203/1/198 224/1/212 225/1/213 202/1/200
f 202/1/200 225/1/213 40/1/52 94/1/51
f 38/1/59 93/1/63 246/1/214 247/1/215
f 93/1/63 35/1/57 243/1/216 246/1/214
f 35/1/57 90/1/50 240/1/217 243/1/216
f 90/1/50 36/1/49 237/1/218 240/1/217
f 36/1/49 91/1/54 234/1/219 237/1/218
f 91/1/54 37/1/53 231/1/220 234/1/219
f 37/1/53 92/1/60 228/1/221 231/1/220
f 92/1/60 38/1/59 247/1/215 228/1/221
f 231/1/220 228/1/221 227/1/222 230/1/223
f 230/1/223 227/1/222 226/1/224 229/1/225
f 229/1/225 226/1/224 76/1/6 33/1/8
f 234/1/219 231/1/220 230/1/223 233/1/226
f 233/1/226 230/1/223 229/1/225 232/1/227
f 232/1/227 229/1/225 33/1/8 77/1/10
f 237/1/218 234/1/219 233/1/226 236/1/228
f 236/1/228 233/1/226 232/1/227 235/1/229
f 235/1/229 232/1/227 77/1/10 32/1/12
f 240/1/217 237/1/218 236/1/228 239/1/230
f 239/1/230 236/1/228 235/1/229 238/1/231
f 238/1/231 235/1/229 32/1/12 78/1/14
f 243/1/216 240/1/217 239/1/230 242/1/232
f 242/1/232 239/1/230 238/1/231 241/1/233
f 241/1/233 238/1/231 78/1/14 31/1/15
f 246/1/214 243/1/216 242/1/232 245/1/234
f 245/1/234 242/1/232 241/1/233 244/1/235
f 244/1/235 241/1/233 31/1/15 89/1/2
f 247/1/215 246/1/214 245/1/234 248/1/236
f 248/1/236 245/1/234 244/1/235 249/1/237
f 249/1/237 244/1/235 89/1/2 34/1/1
f 228/1/221 247/1/215 248/1/236 227/1/222
f 227/1/222 248/1/236 249/1/237 226/1/224
f 226/1/224 249/1/237 34/1/1 76/1/6
f 272/2/238 254/3/239 253/4/240 252/5/241
f 280/6/242 255/7/243 253/4/240 254/3/239
f 256/8/244 251/9/245 253/10/240 255/11/243
f 261/12/246 260/13/247 258/14/248 259/15/249
f 267/16/250 266/17/251 264/18/252 265/19/253
f 262/20/254 257/21/255 258/22/248 260/23/247
f 295/24/256 274/25/257 273/26/258 297/27/259
f 279/28/260 285/29/261 259/15/249 280/6/242
f 257/21/255 256/8/244 255/11/243 258/22/248
f 269/30/262 268/31/263 266/32/251 270/33/264
f 268/31/263 263/34/265 264/35/252 266/32/251
f 286/36/266 291/37/267 265/19/253 261/12/246
f 271/38/268 272/2/238 252/5/241 270/39/264
f 297/27/259 273/26/258 272/2/238 271/38/268
f 250/40/269 269/30/262 270/33/264 252/41/241
f 277/42/270 276/43/271 274/25/257 275/44/272
f 263/34/265 262/20/254 260/23/247 264/35/252
f 273/26/258 278/45/273 254/3/239 272/2/238
f 278/45/273 279/28/260 280/6/242 254/3/239
f 274/25/257 276/43/271 278/45/273 273/26/258
f 299/46/274 300/47/275 277/42/270 275/44/272
f 292/48/276 297/27/259 271/38/268 267/16/250
f 284/49/277 283/50/278 281/51/279 282/52/280
f 276/43/271 281/51/279 279/28/260 278/45/273
f 280/6/242 259/15/249 258/14/248 255/7/243
f 285/29/261 286/36/266 261/12/246 259/15/249
f 281/51/279 283/50/278 285/29/261 279/28/260
f 277/42/270 282/52/280 281/51/279 276/43/271
f 290/53/281 289/54/282 287/55/283 288/56/284
f 283/50/278 287/55/283 286/36/266 285/29/261
f 261/12/246 265/19/253 264/18/252 260/13/247
f 291/37/267 292/48/276 267/16/250 265/19/253
f 287/55/283 289/54/282 291/37/267 286/36/266
f 284/49/277 288/56/284 287/55/283 283/50/278
f 296/57/285 295/24/256 293/58/286 294/59/287
f 289/54/282 293/58/286 292/48/276 291/37/267
f 267/16/250 271/38/268 270/39/264 266/17/251
f 298/60/288 299/46/274 275/44/272 296/57/285
f 293/58/286 295/24/256 297/27/259 292/48/276
f 290/53/281 294/59/287 293/58/286 289/54/282
f 296/57/285 275/44/272 274/25/257 295/24/256
f 300/47/275 301/61/289 282/52/280 277/42/270
f 301/61/289 302/62/290 284/49/277 282/52/280
f 302/62/290 303/63/291 288/56/284 284/49/277
f 303/63/291 304/64/292 290/53/281 288/56/284
f 304/64/292 305/65/293 294/59/287 290/53/281
f 305/65/293 298/60/288 296/57/285 294/59/287
f 251/66/245 250/40/269 252/41/241 253/67/240
f 328/2/238 310/3/239 309/4/240 308/5/241
f 336/6/242 311/7/243 309/4/240 310/3/239
f 312/8/244 307/9/245 309/10/240 311/11/243
f 317/12/246 316/13/247 314/14/248 315/15/249
f 323/16/250 322/17/251 320/18/252 321/19/253
f 318/20/254 313/21/255 314/22/248 316/23/247
f 351/24/256 330/25/257 329/26/258 353/27/259
f 335/28/260 341/29/261 315/15/249 336/6/242
f 313/21/255 312/8/244 311/11/243 314/22/248
f 325/30/262 324/31/263 322/32/251 326/33/264
f 324/31/263 319/34/265 320/35/252 322/32/251
f 342/36/266 347/37/267 321/19/253 317/12/246
f 327/38/268 328/2/238 308/5/241 326/39/264
f 353/27/259 329/26/258 328/2/238 327/38/268
f 306/40/269 325/30/262 326/33/264 308/41/241
f 333/42/270 332/43/271 330/25/257 331/44/272
f 319/34/265 318/20/254 316/23/247 320/35/252
f 329/26/258 334/45/273 310/3/239 328/2/238
f 334/45/273 335/28/260 336/6/242 310/3/239
f 330/25/257 332/43/271 334/45/273 329/26/258
f 355/46/294 356/47/295 333/42/270 331/44/272
f 348/48/276 353/27/259 327/38/268 323/16/250
f 340/49/277 339/50/278 337/51/279 338/52/280
f 332/43/271 337/51/279 335/28/260 334/45/273
f 336/6/242 315/15/249 314/14/248 311/7/243
f 341/29/261 342/36/266 317/12/246 315/15/249
f 337/51/279 339/50/278 341/29/261 335/28/260
f 333/42/270 338/52/280 337/51/279 332/43/271
f 346/53/281 345/54/282 343/55/283 344/56/284
f 339/50/278 343/55/283 342/36/266 341/29/261
f 317/12/246 321/19/253 320/18/252 316/13/247
f 347/37/267 348/48/276 323/16/250 321/19/253
f 343/55/283 345/54/282 347/37/267 342/36/266
f 340/49/277 344/56/284 343/55/283 339/50/278
f 352/57/285 351/24/256 349/58/286 350/59/287
f 345/54/282 349/58/286 348/48/276 347/37/267
f 323/16/250 327/38/268 326/39/264 322/17/251
f 354/60/296 355/46/294 331/44/272 352/57/285
f 349/58/286 351/24/256 353/27/259 348/48/276
f 346/53/281 350/59/287 349/58/286 345/54/282
f 352/57/285 331/44/272 330/25/257 351/24/256
f 356/47/295 357/61/297 338/52/280 333/42/270
f 357/61/297 358/62/290 340/49/277 338/52/280
f 358/62/290 359/63/298 344/56/284 340/49/277
f 359/63/298 360/64/299 346/53/281 344/56/284
f 360/64/299 361/65/300 350/59/287 346/53/281
f 361/65/300 354/60/296 352/57/285 350/59/287
f 307/66/245 306/40/269 308/41/241 309/67/240
f 384/2/238 366/3/239 365/4/240 364/5/241
f 392/6/242 367/7/243 365/4/240 366/3/239
f 368/8/244 363/9/245 365/10/240 367/11/243
f 373/12/246 372/13/247 370/14/248 371/15/249
f 379/16/250 378/17/251 376/18/252 377/19/253
f 374/20/254 369/21/255 370/22/248 372/23/247
f 407/24/256 386/25/257 385/26/258 409/27/259
f 391/28/260 397/29/261 371/15/249 392/6/242
f 369/21/255 368/8/244 367/11/243 370/22/248
f 381/30/262 380/31/263 378/32/251 382/33/264
f 380/31/263 375/34/265 376/35/252 378/32/251
f 398/36/266 403/37/267 377/19/253 373/12/246
f 383/38/268 384/2/238 364/5/241 382/39/264
f 409/27/259 385/26/258 384/2/238 383/38/268
f 362/40/269 381/30/262 382/33/264 364/41/241
f 389/42/270 388/43/271 386/25/257 387/44/272
f 375/34/265 374/20/254 372/23/247 376/35/252
f 385/26/258 390/45/273 366/3/239 384/2/238
f 390/45/273 391/28/260 392/6/242 366/3/239
f 386/25/257 388/43/271 390/45/273 385/26/258
f 411/46/274 412/47/275 389/42/270 387/44/272
f 404/48/276 409/27/259 383/38/268 379/16/250
f 396/49/277 395/50/278 393/51/279 394/52/280
f 388/43/271 393/51/279 391/28/260 390/45/273
f 392/6/242 371/15/249 370/14/248 367/7/243
f 397/29/261 398/36/266 373/12/246 371/15/249
f 393/51/279 395/50/278 397/29/261 391/28/260
f 389/42/270 394/52/280 393/51/279 388/43/271
f 402/53/281 401/54/282 399/55/283 400/56/284
f 395/50/278 399/55/283 398/36/266 397/29/261
f 373/12/246 377/19/253 376/18/252 372/13/247
f 403/37/267 404/48/276 379/16/250 377/19/253
f 399/55/283 401/54/282 403/37/267 398/36/266
f 396/49/277 400/56/284 399/55/283 395/50/278
f 408/57/285 407/24/256 405/58/286 406/59/287
f 401/54/282 405/58/286 404/48/276 403/37/267
f 379/16/250 383/38/268 382/39/264 378/17/251
f 410/60/288 411/46/274 387/44/272 408/57/285
f 405/58/286 407/24/256 409/27/259 404/48/276
f 402/53/281 406/59/287 405/58/286 401/54/282
f 408/57/285 387/44/272 386/25/257 407/24/256
f 412/47/275 413/61/289 394/52/280 389/42/270
f 413/61/289 414/62/290 396/49/277 394/52/280
f 414/62/290 415/63/291 400/56/284 396/49/277
f 415/63/291 416/64/292 402/53/281 400/56/284
f 416/64/292 417/65/293 406/59/287 402/53/281
f 417/65/293 410/60/288 408/57/285 406/59/287
f 363/66/245 362/40/269 364/41/241 365/67/240
f 361/65/301 360/64/302 111/1/9 57/1/7
f 360/64/302 359/63/303 58/1/89 111/1/9
f 359/63/303 358/62/304 112/1/13 58/1/89
f 358/62/304 357/61/305 59/1/92 112/1/13
f 357/61/305 356/47/306 113/1/3 59/1/92
f 356/47/306 355/46/307 56/1/76 113/1/3
f 355/46/307 354/60/308 110/1/77 56/1/76
f 354/60/308 361/65/301 57/1/7 110/1/77
f 417/65/301 416/64/302 119/1/9 65/1/7
f 416/64/302 415/63/303 66/1/89 119/1/9
f 415/63/303 414/62/304 120/1/13 66/1/89
f 414/62/304 413/61/305 67/1/92 120/1/13
f 413/61/305 412/47/306 121/1/3 67/1/92
f 412/47/306 411/46/307 64/1/76 121/1/3
f 411/46/307 410/60/308 118/1/77 64/1/76
f 410/60/308 417/65/301 65/1/7 118/1/77
f 300/47/306 299/46/307 30/1/4 79/1/3
f 299/46/307 298/60/308 80/1/5 30/1/4
f 298/60/308 305/65/301 29/1/7 80/1/5
f 305/65/301 304/64/302 81/1/9 29/1/7
f 304/64/302 303/63/303 28/1/11 81/1/9
f 303/63/303 302/62/304 82/1/13 28/1/11
f 302/62/304 301/61/305 27/1/16 82/1/13
f 301/61/305 300/47/306 79/1/3 27/1/16
