# Blender 5.0.1
# www.blender.org
mtllib Wire_Head_Red(5VDC-+V1).mtl
o Wire_Head_Red(5VDC-+V1)
v 0.114534 0.153250 0.249517
v 0.116655 0.152371 0.249517
v 0.114534 0.153250 0.240313
v 0.116655 0.152371 0.240313
v 0.116655 0.152455 0.240115
v 0.118775 0.153250 0.240313
v 0.118775 0.153250 0.249517
v 0.119654 0.155370 0.249517
v 0.119654 0.155370 0.240313
v 0.119570 0.155370 0.240115
v 0.118775 0.157491 0.240313
v 0.118716 0.157431 0.240115
v 0.118775 0.157491 0.249517
v 0.116655 0.158369 0.249517
v 0.116655 0.158369 0.240313
v 0.116655 0.158285 0.240115
v 0.114534 0.157491 0.240313
v 0.114594 0.157431 0.240115
v 0.114534 0.157491 0.249517
v 0.113656 0.155370 0.249517
v 0.113656 0.155370 0.240313
v 0.113740 0.155370 0.240115
v 0.114594 0.153309 0.240115
v 0.114736 0.153452 0.240033
v 0.114924 0.153639 0.240033
v 0.115067 0.153782 0.240115
v 0.116655 0.152923 0.240033
v 0.116655 0.153125 0.240115
v 0.116655 0.152657 0.240033
v 0.118573 0.153452 0.240033
v 0.118716 0.153309 0.240115
v 0.118386 0.153639 0.240033
v 0.118243 0.153782 0.240115
v 0.119102 0.155370 0.240033
v 0.118900 0.155370 0.240115
v 0.119368 0.155370 0.240033
v 0.118573 0.157289 0.240033
v 0.118386 0.157101 0.240033
v 0.118243 0.156958 0.240115
v 0.116655 0.157817 0.240033
v 0.116655 0.157615 0.240115
v 0.116655 0.158083 0.240033
v 0.114736 0.157289 0.240033
v 0.114924 0.157101 0.240033
v 0.115067 0.156958 0.240115
v 0.114208 0.155370 0.240033
v 0.114410 0.155370 0.240115
v 0.113942 0.155370 0.240033
v 0.114493 0.155370 0.240313
v 0.115126 0.153841 0.240313
v 0.116655 0.153208 0.240313
v 0.118184 0.153841 0.240313
v 0.118817 0.155370 0.240313
v 0.118184 0.156899 0.240313
v 0.116655 0.157532 0.240313
v 0.115126 0.156899 0.240313
v 0.083966 -0.014222 0.249517
v 0.086087 -0.015100 0.249517
v 0.083966 -0.014222 0.240313
v 0.086087 -0.015100 0.240313
v 0.086087 -0.015017 0.240115
v 0.088207 -0.014222 0.240313
v 0.088207 -0.014222 0.249517
v 0.089086 -0.012101 0.249517
v 0.089086 -0.012101 0.240313
v 0.089002 -0.012101 0.240115
v 0.088207 -0.009981 0.240313
v 0.088148 -0.010040 0.240115
v 0.088207 -0.009981 0.249517
v 0.086087 -0.009103 0.249517
v 0.086087 -0.009103 0.240313
v 0.086087 -0.009186 0.240115
v 0.083966 -0.009981 0.240313
v 0.084026 -0.010040 0.240115
v 0.083966 -0.009981 0.249517
v 0.083088 -0.012101 0.249517
v 0.083088 -0.012101 0.240313
v 0.083172 -0.012101 0.240115
v 0.084026 -0.014163 0.240115
v 0.084168 -0.014020 0.240033
v 0.084356 -0.013832 0.240033
v 0.084499 -0.013689 0.240115
v 0.086087 -0.014549 0.240033
v 0.086087 -0.014347 0.240115
v 0.086087 -0.014815 0.240033
v 0.088005 -0.014020 0.240033
v 0.088148 -0.014163 0.240115
v 0.087817 -0.013832 0.240033
v 0.087675 -0.013689 0.240115
v 0.088534 -0.012101 0.240033
v 0.088332 -0.012101 0.240115
v 0.088800 -0.012101 0.240033
v 0.088005 -0.010183 0.240033
v 0.087817 -0.010371 0.240033
v 0.087675 -0.010514 0.240115
v 0.086087 -0.009654 0.240033
v 0.086087 -0.009856 0.240115
v 0.086087 -0.009388 0.240033
v 0.084168 -0.010183 0.240033
v 0.084356 -0.010371 0.240033
v 0.084499 -0.010514 0.240115
v 0.083640 -0.012101 0.240033
v 0.083842 -0.012101 0.240115
v 0.083374 -0.012101 0.240033
v 0.083925 -0.012101 0.240313
v 0.084558 -0.013630 0.240313
v 0.086087 -0.014263 0.240313
v 0.087615 -0.013630 0.240313
v 0.088249 -0.012101 0.240313
v 0.087615 -0.010573 0.240313
v 0.086087 -0.009940 0.240313
v 0.084558 -0.010573 0.240313
v 0.117694 0.154331 0.238782
v 0.117694 0.156409 0.238782
v 0.115616 0.156409 0.238782
v 0.115616 0.154331 0.238782
v 0.117740 0.154291 0.236010
v 0.117740 0.156449 0.235978
v 0.115570 0.156449 0.235978
v 0.115570 0.154291 0.236010
v 0.117740 0.150514 0.232754
v 0.117740 0.150546 0.230597
v 0.115570 0.150546 0.230597
v 0.115570 0.150514 0.232754
v 0.117734 0.121471 0.232761
v 0.117734 0.121471 0.230590
v 0.115576 0.121503 0.230590
v 0.115576 0.121503 0.232761
v 0.112024 0.115568 0.232761
v 0.112024 0.115568 0.230590
v 0.111992 0.117726 0.230590
v 0.111992 0.117726 0.232761
v 0.077944 0.115568 0.232761
v 0.077944 0.115568 0.230590
v 0.077912 0.117726 0.230590
v 0.077912 0.117726 0.232761
v 0.074359 0.111765 0.232761
v 0.074359 0.111765 0.230590
v 0.072202 0.111797 0.230590
v 0.072202 0.111797 0.232761
v 0.074359 -0.007425 0.232761
v 0.074359 -0.007425 0.230590
v 0.072202 -0.007457 0.230590
v 0.072202 -0.007457 0.232761
v 0.086464 -0.013521 0.238782
v 0.084667 -0.012478 0.238782
v 0.085710 -0.010681 0.238782
v 0.087507 -0.011725 0.238782
v 0.115163 0.155370 0.235994
v 0.116655 0.156853 0.235972
v 0.116655 0.153887 0.236016
v 0.118147 0.155370 0.235994
v 0.116655 0.153940 0.238798
v 0.115225 0.155370 0.238798
v 0.116655 0.156800 0.238798
v 0.118084 0.155370 0.238798
v 0.118147 0.150530 0.231675
v 0.116655 0.150552 0.230192
v 0.115163 0.150530 0.231675
v 0.116655 0.150508 0.233159
v 0.118138 0.121465 0.231675
v 0.116655 0.121487 0.230183
v 0.115172 0.121509 0.231675
v 0.116655 0.121487 0.233168
v 0.112030 0.115164 0.231675
v 0.112008 0.116647 0.230183
v 0.111986 0.118130 0.231675
v 0.112008 0.116647 0.233168
v 0.077950 0.115164 0.231675
v 0.077928 0.116647 0.230183
v 0.077906 0.118130 0.231675
v 0.077928 0.116647 0.233168
v 0.074764 0.111759 0.231675
v 0.073280 0.111781 0.230183
v 0.071797 0.111803 0.231675
v 0.073280 0.111781 0.233168
v 0.074764 -0.007419 0.231675
v 0.073280 -0.007441 0.230183
v 0.071797 -0.007463 0.231675
v 0.073280 -0.007441 0.233168
v 0.085369 -0.013338 0.238798
v 0.084851 -0.011384 0.238798
v 0.086805 -0.010865 0.238798
v 0.087323 -0.012819 0.238798
v 0.115163 0.155187 0.233528
v 0.115163 0.154527 0.232258
v 0.115163 0.153078 0.231777
v 0.115570 0.156225 0.233233
v 0.115570 0.155226 0.231437
v 0.115570 0.153271 0.230715
v 0.116655 0.156614 0.233122
v 0.116655 0.155489 0.231129
v 0.116655 0.153344 0.230317
v 0.117740 0.156225 0.233233
v 0.117740 0.155226 0.231437
v 0.117740 0.153271 0.230715
v 0.118147 0.155187 0.233528
v 0.118147 0.154527 0.232258
v 0.118147 0.153078 0.231777
v 0.117740 0.154149 0.233823
v 0.117740 0.153827 0.233079
v 0.117740 0.152884 0.232838
v 0.116655 0.153760 0.233933
v 0.116655 0.153564 0.233387
v 0.116655 0.152812 0.233236
v 0.115570 0.152884 0.232838
v 0.115570 0.153827 0.233079
v 0.115570 0.154149 0.233823
v 0.117973 0.118567 0.231675
v 0.117041 0.116417 0.231675
v 0.114947 0.115371 0.231675
v 0.117577 0.118652 0.232761
v 0.116747 0.116695 0.232761
v 0.114849 0.115763 0.232761
v 0.116522 0.118878 0.233168
v 0.115962 0.117436 0.233168
v 0.114587 0.116810 0.233168
v 0.115467 0.119103 0.232761
v 0.115178 0.118177 0.232761
v 0.114325 0.117856 0.232761
v 0.115071 0.119188 0.231675
v 0.114884 0.118455 0.231675
v 0.114227 0.118249 0.231675
v 0.115467 0.119103 0.230590
v 0.115178 0.118177 0.230590
v 0.114325 0.117856 0.230590
v 0.116522 0.118878 0.230183
v 0.115962 0.117436 0.230183
v 0.114587 0.116810 0.230183
v 0.114849 0.115763 0.230590
v 0.116747 0.116695 0.230590
v 0.117577 0.118652 0.230590
v 0.075706 0.115043 0.231675
v 0.075051 0.114835 0.231675
v 0.074863 0.114093 0.231675
v 0.075607 0.115435 0.232761
v 0.074755 0.115111 0.232761
v 0.074467 0.114176 0.232761
v 0.075343 0.116481 0.233168
v 0.073968 0.115849 0.233168
v 0.073412 0.114399 0.233168
v 0.075079 0.117527 0.232761
v 0.073182 0.116587 0.232761
v 0.072356 0.114623 0.232761
v 0.074980 0.117920 0.231675
v 0.072886 0.116864 0.231675
v 0.071960 0.114706 0.231675
v 0.075079 0.117527 0.230590
v 0.073182 0.116587 0.230590
v 0.072356 0.114623 0.230590
v 0.075343 0.116481 0.230183
v 0.073968 0.115849 0.230183
v 0.073412 0.114399 0.230183
v 0.074467 0.114176 0.230590
v 0.074755 0.115111 0.230590
v 0.075607 0.115435 0.230590
v 0.078163 -0.011017 0.232761
v 0.078163 -0.011017 0.230590
v 0.078131 -0.013175 0.230590
v 0.078131 -0.013175 0.232761
v 0.078169 -0.010613 0.231675
v 0.078147 -0.012096 0.230183
v 0.078125 -0.013579 0.231675
v 0.078147 -0.012096 0.233168
v 0.074884 -0.009670 0.231675
v 0.075093 -0.010326 0.231675
v 0.075835 -0.010514 0.231675
v 0.074492 -0.009769 0.232761
v 0.074816 -0.010621 0.232761
v 0.075751 -0.010909 0.232761
v 0.073446 -0.010033 0.233168
v 0.074078 -0.011408 0.233168
v 0.075528 -0.011965 0.233168
v 0.072400 -0.010298 0.232761
v 0.073340 -0.012195 0.232761
v 0.075305 -0.013020 0.232761
v 0.072008 -0.010397 0.231675
v 0.073063 -0.012490 0.231675
v 0.075221 -0.013416 0.231675
v 0.072400 -0.010298 0.230590
v 0.073340 -0.012195 0.230590
v 0.075305 -0.013020 0.230590
v 0.073446 -0.010033 0.230183
v 0.074078 -0.011408 0.230183
v 0.075528 -0.011965 0.230183
v 0.075751 -0.010909 0.230590
v 0.074816 -0.010621 0.230590
v 0.074492 -0.009769 0.230590
v 0.082844 -0.013298 0.232437
v 0.084061 -0.013337 0.232459
v 0.084687 -0.013365 0.232769
v 0.085122 -0.013382 0.233789
v 0.086225 -0.013614 0.233534
v 0.085550 -0.013636 0.232052
v 0.084413 -0.013644 0.231404
v 0.082855 -0.013637 0.231333
v 0.087126 -0.012940 0.233313
v 0.086284 -0.013020 0.231431
v 0.084727 -0.013083 0.230460
v 0.082871 -0.013128 0.230309
v 0.087343 -0.011812 0.233246
v 0.086482 -0.011903 0.231250
v 0.084822 -0.011976 0.230170
v 0.082884 -0.012030 0.229971
v 0.086679 -0.010886 0.233389
v 0.085999 -0.010943 0.231641
v 0.084643 -0.010985 0.230706
v 0.082885 -0.011010 0.230484
v 0.085575 -0.010654 0.233644
v 0.085136 -0.010672 0.232359
v 0.084292 -0.010678 0.231762
v 0.082874 -0.010671 0.231588
v 0.084675 -0.011328 0.233865
v 0.084403 -0.011288 0.232980
v 0.083978 -0.011239 0.232705
v 0.082858 -0.011181 0.232611
v 0.084457 -0.012455 0.233932
v 0.084204 -0.012405 0.233161
v 0.083882 -0.012345 0.232995
v 0.082845 -0.012278 0.232950
vn -0.5263 -0.5263 -0.6678
vn -0.0000 -0.7444 -0.6678
vn -0.0000 -0.9818 -0.1897
vn -0.6943 -0.6943 -0.1897
vn 0.5263 -0.5263 -0.6678
vn 0.6943 -0.6943 -0.1897
vn 0.7071 -0.7071 -0.0000
vn -0.0000 -1.0000 -0.0000
vn 0.5263 0.5263 -0.6678
vn 0.6943 0.6943 -0.1897
vn 0.9818 -0.0000 -0.1897
vn 0.7444 -0.0000 -0.6678
vn -0.5263 0.5263 -0.6678
vn -0.6943 0.6943 -0.1897
vn -0.0000 0.9818 -0.1897
vn -0.0000 0.7444 -0.6678
vn 0.7071 0.7071 -0.0000
vn 1.0000 -0.0000 -0.0000
vn 0.1448 -0.0000 -0.9895
vn 0.1024 0.1024 -0.9895
vn -0.1676 -0.1676 -0.9715
vn -0.2370 -0.0000 -0.9715
vn 0.1676 -0.1676 -0.9715
vn 0.2370 -0.0000 -0.9715
vn -1.0000 -0.0000 -0.0000
vn -0.7071 0.7071 -0.0000
vn -0.9818 -0.0000 -0.1897
vn -0.0000 1.0000 -0.0000
vn 0.1676 0.1676 -0.9715
vn -0.0000 0.2370 -0.9715
vn -0.7444 -0.0000 -0.6678
vn -0.7071 -0.7071 -0.0000
vn -0.0000 0.6474 -0.7621
vn -0.0000 0.1448 -0.9895
vn 0.4578 0.4578 -0.7621
vn -0.0000 -0.2370 -0.9715
vn 0.6514 0.6514 -0.3891
vn -0.0000 0.9212 -0.3891
vn -0.1676 0.1676 -0.9715
vn -0.6474 -0.0000 -0.7621
vn -0.1448 -0.0000 -0.9895
vn -0.1024 0.1024 -0.9895
vn -0.4578 0.4578 -0.7621
vn -0.0000 -0.6474 -0.7621
vn -0.0000 -0.1448 -0.9895
vn -0.1024 -0.1024 -0.9895
vn -0.4578 -0.4578 -0.7621
vn 0.6474 -0.0000 -0.7621
vn 0.1024 -0.1024 -0.9895
vn 0.4578 -0.4578 -0.7621
vn 0.9212 -0.0000 -0.3891
vn -0.6514 0.6514 -0.3891
vn -0.9212 -0.0000 -0.3890
vn -0.6514 -0.6514 -0.3891
vn -0.0000 -0.9212 -0.3891
vn 0.6514 -0.6514 -0.3891
vn 0.6514 0.6514 -0.3890
vn -0.0000 0.9212 -0.3890
vn 0.9212 -0.0000 -0.3890
vn -0.6514 0.6514 -0.3890
vn -0.6514 -0.6514 -0.3890
vn -0.0000 -0.9212 -0.3890
vn 0.6514 -0.6514 -0.3890
vn -0.0000 -0.9991 0.0415
vn -0.0000 -0.9758 -0.2185
vn -0.6894 -0.6903 -0.2195
vn -0.7091 -0.7043 0.0337
vn -0.9761 0.0001 -0.2175
vn -0.9999 0.0083 0.0098
vn -0.6893 0.6904 -0.2196
vn -0.7000 0.7139 -0.0184
vn -0.0000 0.9758 -0.2187
vn -0.0000 0.9995 -0.0313
vn 0.6894 -0.6903 -0.2195
vn 0.7091 -0.7043 0.0337
vn 0.6893 0.6904 -0.2196
vn 0.7000 0.7139 -0.0184
vn 0.9761 0.0001 -0.2175
vn 0.9999 0.0083 0.0098
vn 0.7031 0.0155 -0.7109
vn 1.0000 0.0004 -0.0044
vn 0.9996 -0.0282 -0.0000
vn 0.7118 -0.0198 -0.7021
vn -0.7031 0.0155 -0.7109
vn -0.0000 0.0222 -0.9998
vn 0.0057 -0.0006 -1.0000
vn -0.7053 0.0161 -0.7087
vn 0.7082 -0.0125 0.7059
vn 0.7118 -0.0198 0.7021
vn -0.7082 -0.0125 0.7059
vn -1.0000 0.0004 -0.0044
vn -0.9998 0.0221 -0.0000
vn -0.7053 0.0161 0.7087
vn -0.0000 -0.0172 0.9999
vn 0.0057 -0.0006 1.0000
vn 0.0246 -0.7134 -0.7003
vn 0.0348 -0.9994 -0.0000
vn 0.0277 -0.9996 -0.0000
vn 0.0200 -0.7055 -0.7084
vn -0.0198 0.7055 -0.7084
vn 0.0010 -0.0070 -1.0000
vn -0.0010 0.0071 -1.0000
vn -0.0250 0.7135 -0.7003
vn 0.0246 -0.7134 0.7003
vn 0.0200 -0.7055 0.7084
vn -0.0198 0.7055 0.7084
vn -0.0274 0.9996 -0.0000
vn -0.0353 0.9994 -0.0000
vn -0.0250 0.7135 0.7003
vn 0.0010 -0.0070 1.0000
vn -0.0010 0.0071 1.0000
vn 0.7061 -0.0158 -0.7079
vn 0.9998 -0.0219 -0.0000
vn 0.9996 0.0276 -0.0000
vn 0.7055 0.0200 -0.7084
vn -0.7124 0.0195 -0.7015
vn -0.0056 0.0007 -1.0000
vn -0.0071 -0.0010 -1.0000
vn -0.7134 -0.0249 -0.7003
vn 0.7061 -0.0158 0.7079
vn 0.7055 0.0200 0.7084
vn -0.7124 0.0195 0.7015
vn -0.9996 0.0276 -0.0000
vn -0.9994 -0.0352 -0.0000
vn -0.7135 -0.0249 0.7003
vn -0.0056 0.0007 1.0000
vn -0.0071 -0.0010 1.0000
vn -0.4989 -0.8595 0.1108
vn 0.2551 -0.9660 -0.0410
vn 0.2085 -0.9513 -0.2270
vn -0.5325 -0.8189 -0.2141
vn 0.9540 0.2083 -0.2157
vn 0.5499 0.8250 -0.1304
vn 0.5354 0.8105 -0.2375
vn 0.9484 0.2017 -0.2446
vn -0.8230 0.5478 0.1500
vn -0.9567 -0.2285 0.1802
vn -0.9563 -0.2047 -0.2086
vn -0.8177 0.5351 -0.2124
vn 0.8362 -0.5187 -0.1778
vn 0.8153 -0.5273 -0.2394
vn -0.1751 0.9842 0.0251
vn -0.1987 0.9540 -0.2243
vn -0.0000 -0.9068 -0.4215
vn -0.6397 -0.6397 -0.4260
vn 0.6397 -0.6397 -0.4260
vn 0.9068 -0.0000 -0.4215
vn 0.6397 0.6397 -0.4260
vn -0.0000 0.9068 -0.4215
vn -0.6397 0.6397 -0.4260
vn -0.9068 -0.0000 -0.4215
vn -0.0000 -0.1294 0.9916
vn -0.7149 -0.0987 0.6922
vn 0.7149 -0.0987 0.6922
vn 0.9995 0.0103 -0.0295
vn 0.6835 0.1445 -0.7155
vn -0.0000 0.1991 -0.9800
vn -0.6835 0.1445 -0.7155
vn -0.9995 0.0103 -0.0295
vn -0.9963 0.0560 -0.0649
vn -0.6677 0.4846 -0.5651
vn -0.9990 0.0419 -0.0169
vn -0.6775 0.7036 -0.2141
vn -0.0000 0.6509 -0.7592
vn -0.0000 0.9565 -0.2917
vn 0.6677 0.4846 -0.5651
vn 0.6775 0.7036 -0.2141
vn 0.9963 0.0561 -0.0649
vn 0.9990 0.0419 -0.0169
vn 0.7810 -0.4057 0.4748
vn 0.7248 -0.6699 0.1608
vn -0.0000 -0.6507 0.7593
vn -0.0000 -0.9758 0.2186
vn -0.7810 -0.4057 0.4748
vn -0.7248 -0.6699 0.1608
vn 0.0143 -0.0379 -0.9992
vn 0.1912 -0.7084 -0.6794
vn -0.1421 0.6776 -0.7216
vn -0.1921 0.9814 -0.0000
vn -0.1421 0.6776 0.7216
vn 0.0143 -0.0379 0.9992
vn 0.1912 -0.7084 0.6794
vn 0.2614 -0.9652 -0.0000
vn 0.7263 -0.6874 -0.0000
vn 0.5406 -0.5118 0.6677
vn 0.9736 -0.2282 -0.0000
vn 0.7126 -0.1663 0.6816
vn 0.0624 -0.0592 0.9963
vn 0.0335 -0.0120 0.9994
vn -0.4540 0.4292 0.7808
vn -0.6856 0.1198 0.7181
vn -0.7264 0.6873 -0.0000
vn -0.9871 0.1600 -0.0000
vn -0.4540 0.4292 -0.7808
vn -0.6856 0.1198 -0.7181
vn 0.0624 -0.0592 -0.9963
vn 0.0335 -0.0120 -0.9994
vn 0.5406 -0.5118 -0.6677
vn 0.7126 -0.1663 -0.6816
vn -0.0332 0.0118 -0.9994
vn 0.6860 -0.1184 -0.7179
vn -0.7129 0.1646 -0.6817
vn -0.9741 0.2260 -0.0000
vn -0.7129 0.1646 0.6817
vn -0.0332 0.0118 0.9994
vn 0.6860 -0.1184 0.7179
vn 0.9874 -0.1581 -0.0000
vn 0.7289 -0.6846 -0.0000
vn 0.4557 -0.4276 0.7807
vn 0.1945 -0.9809 -0.0000
vn 0.1437 -0.6769 0.7219
vn -0.0626 0.0590 0.9963
vn -0.0145 0.0382 0.9992
vn -0.5425 0.5098 0.6677
vn -0.1929 0.7081 0.6793
vn -0.7287 0.6848 -0.0000
vn -0.2635 0.9646 -0.0000
vn -0.5425 0.5098 -0.6677
vn -0.1929 0.7081 -0.6793
vn -0.0626 0.0590 -0.9963
vn -0.0145 0.0382 -0.9992
vn 0.4557 -0.4276 -0.7807
vn 0.1437 -0.6769 -0.7219
vn 0.0379 -0.9026 -0.4287
vn -0.6099 -0.6700 -0.4231
vn 0.6700 -0.6099 -0.4232
vn 0.9026 0.0379 -0.4287
vn 0.6099 0.6700 -0.4232
vn -0.0379 0.9026 -0.4288
vn -0.6700 0.6099 -0.4232
vn -0.9026 -0.0379 -0.4287
vn 0.0061 0.7220 -0.6919
vn -0.0220 0.0139 -0.9997
vn -0.0118 -0.0332 -0.9994
vn 0.1184 0.6860 -0.7179
vn -0.0392 -0.7015 -0.7116
vn -0.1646 -0.7129 -0.6817
vn -0.0334 -0.9994 -0.0121
vn -0.2260 -0.9741 -0.0000
vn -0.0071 -0.7209 0.6930
vn -0.1646 -0.7129 0.6817
vn 0.0229 -0.0221 0.9995
vn -0.0118 -0.0332 0.9994
vn 0.0378 0.6911 0.7218
vn 0.1184 0.6860 0.7179
vn 0.0301 0.9993 0.0224
vn 0.1581 0.9874 -0.0000
vn 0.6846 0.7289 -0.0000
vn 0.4276 0.4557 0.7807
vn 0.9809 0.1944 -0.0000
vn 0.6769 0.1436 0.7219
vn -0.0590 -0.0626 0.9963
vn -0.0382 -0.0145 0.9992
vn -0.5098 -0.5425 0.6677
vn -0.7081 -0.1928 0.6793
vn -0.6848 -0.7287 -0.0000
vn -0.9647 -0.2634 -0.0000
vn -0.5098 -0.5425 -0.6677
vn -0.7081 -0.1928 -0.6793
vn -0.0590 -0.0626 -0.9963
vn -0.0382 -0.0145 -0.9992
vn 0.4276 0.4557 -0.7807
vn 0.6769 0.1436 -0.7219
vn 0.0171 -0.6465 -0.7627
vn -0.0021 -0.9964 -0.0851
vn 0.0286 0.0690 -0.9972
vn 0.0238 0.7462 -0.6653
vn 0.0096 0.9984 0.0557
vn 0.0024 0.6614 0.7500
vn -0.0013 -0.0698 0.9976
vn -0.0083 -0.7609 0.6488
vn 0.0627 -0.9842 -0.1654
vn -0.1669 -0.8154 0.5544
vn 0.1886 -0.9713 -0.1450
vn -0.3857 -0.8605 0.3329
vn 0.2684 -0.5904 -0.7612
vn 0.6417 -0.5517 -0.5328
vn 0.3275 0.1163 -0.9377
vn 0.7525 0.1584 -0.6393
vn 0.2114 0.7618 -0.6124
vn 0.4652 0.7858 -0.4076
vn -0.0183 0.9981 0.0592
vn -0.0755 0.9962 0.0431
vn -0.2165 0.6488 0.7295
vn -0.6048 0.6253 0.4931
vn -0.2711 -0.1190 0.9552
vn -0.7513 -0.2026 0.6282
vt 0.636322 0.771411
vt 0.587470 0.804750
vt 0.582466 0.801554
vt 0.635177 0.765465
vt 0.576221 0.861411
vt 0.570569 0.862499
vt 0.433500 0.501817
vt 0.495149 0.501817
vt 0.495149 0.744281
vt 0.433500 0.744281
vt 0.667721 0.922223
vt 0.668877 0.928042
vt 0.605422 0.915050
vt 0.608737 0.910132
vt 0.727696 0.832155
vt 0.733433 0.831018
vt 0.721608 0.892773
vt 0.716620 0.889535
vt 0.310201 0.501817
vt 0.371850 0.501817
vt 0.371850 0.744281
vt 0.310201 0.744281
vt 0.687564 0.793554
vt 0.638896 0.784065
vt 0.637511 0.777194
vt 0.691445 0.787669
vt 0.581871 0.860294
vt 0.612010 0.905265
vt 0.125252 0.501817
vt 0.186902 0.501817
vt 0.186902 0.744281
vt 0.125252 0.744281
vt 0.248551 0.501817
vt 0.248551 0.744281
vt 0.666609 0.916401
vt 0.711799 0.886320
vt 0.694675 0.782803
vt 0.697976 0.777719
vt 0.063603 0.501817
vt 0.063603 0.744281
vt 0.602608 0.814790
vt 0.598019 0.811727
vt 0.639988 0.789629
vt 0.592254 0.807905
vt 0.641149 0.795086
vt 0.607213 0.817814
vt 0.722022 0.833305
vt 0.619061 0.894562
vt 0.615915 0.899401
vt 0.588618 0.858968
vt 0.594043 0.857906
vt 0.701466 0.879486
vt 0.706041 0.882519
vt 0.665296 0.909466
vt 0.664231 0.903895
vt 0.684425 0.798269
vt 0.715204 0.834694
vt 0.709684 0.835861
vt 0.681227 0.803114
vt 0.599435 0.856891
vt 0.622123 0.889732
vt 0.663198 0.898415
vt 0.696941 0.876438
vt 0.704000 0.837048
vt 0.001953 0.501817
vt 0.001953 0.744281
vt 0.000000 0.000000
s 1
usemtl Material.001
f 23/1/1 5/2/2 4/3/3 3/4/4
f 31/5/5 6/6/6 4/3/3 5/2/2
f 7/7/7 2/8/8 4/9/3 6/10/6
f 12/11/9 11/12/10 9/13/11 10/14/12
f 18/15/13 17/16/14 15/17/15 16/18/16
f 13/19/17 8/20/18 9/21/11 11/22/10
f 46/23/19 25/24/20 24/25/21 48/26/22
f 30/27/23 36/28/24 10/14/12 31/5/5
f 8/20/18 7/7/7 6/10/6 9/21/11
f 20/29/25 19/30/26 17/31/14 21/32/27
f 19/30/26 14/33/28 15/34/15 17/31/14
f 37/35/29 42/36/30 16/18/16 12/11/9
f 22/37/31 23/1/1 3/4/4 21/38/27
f 48/26/22 24/25/21 23/1/1 22/37/31
f 1/39/32 20/29/25 21/32/27 3/40/4
f 28/41/33 27/42/34 25/24/20 26/43/35
f 14/33/28 13/19/17 11/22/10 15/34/15
f 24/25/21 29/44/36 5/2/2 23/1/1
f 29/44/36 30/27/23 31/5/5 5/2/2
f 25/24/20 27/42/34 29/44/36 24/25/21
f 50/45/37 51/46/38 28/41/33 26/43/35
f 43/47/39 48/26/22 22/37/31 18/15/13
f 35/48/40 34/49/41 32/50/42 33/51/43
f 27/42/34 32/50/42 30/27/23 29/44/36
f 31/5/5 10/14/12 9/13/11 6/6/6
f 36/28/24 37/35/29 12/11/9 10/14/12
f 32/50/42 34/49/41 36/28/24 30/27/23
f 28/41/33 33/51/43 32/50/42 27/42/34
f 41/52/44 40/53/45 38/54/46 39/55/47
f 34/49/41 38/54/46 37/35/29 36/28/24
f 12/11/9 16/18/16 15/17/15 11/12/10
f 42/36/30 43/47/39 18/15/13 16/18/16
f 38/54/46 40/53/45 42/36/30 37/35/29
f 35/48/40 39/55/47 38/54/46 34/49/41
f 47/56/48 46/23/19 44/57/49 45/58/50
f 40/53/45 44/57/49 43/47/39 42/36/30
f 18/15/13 22/37/31 21/38/27 17/16/14
f 49/59/51 50/45/37 26/43/35 47/56/48
f 44/57/49 46/23/19 48/26/22 43/47/39
f 41/52/44 45/58/50 44/57/49 40/53/45
f 47/56/48 26/43/35 25/24/20 46/23/19
f 51/46/38 52/60/52 33/51/43 28/41/33
f 52/60/52 53/61/53 35/48/40 33/51/43
f 53/61/53 54/62/54 39/55/47 35/48/40
f 54/62/54 55/63/55 41/52/44 39/55/47
f 55/63/55 56/64/56 45/58/50 41/52/44
f 56/64/56 49/59/51 47/56/48 45/58/50
f 2/65/8 1/39/32 3/40/4 4/66/3
f 79/1/1 61/2/2 60/3/3 59/4/4
f 87/5/5 62/6/6 60/3/3 61/2/2
f 63/7/7 58/8/8 60/9/3 62/10/6
f 68/11/9 67/12/10 65/13/11 66/14/12
f 74/15/13 73/16/14 71/17/15 72/18/16
f 69/19/17 64/20/18 65/21/11 67/22/10
f 102/23/19 81/24/20 80/25/21 104/26/22
f 86/27/23 92/28/24 66/14/12 87/5/5
f 64/20/18 63/7/7 62/10/6 65/21/11
f 76/29/25 75/30/26 73/31/14 77/32/27
f 75/30/26 70/33/28 71/34/15 73/31/14
f 93/35/29 98/36/30 72/18/16 68/11/9
f 78/37/31 79/1/1 59/4/4 77/38/27
f 104/26/22 80/25/21 79/1/1 78/37/31
f 57/39/32 76/29/25 77/32/27 59/40/4
f 84/41/33 83/42/34 81/24/20 82/43/35
f 70/33/28 69/19/17 67/22/10 71/34/15
f 80/25/21 85/44/36 61/2/2 79/1/1
f 85/44/36 86/27/23 87/5/5 61/2/2
f 81/24/20 83/42/34 85/44/36 80/25/21
f 106/45/57 107/46/58 84/41/33 82/43/35
f 99/47/39 104/26/22 78/37/31 74/15/13
f 91/48/40 90/49/41 88/50/42 89/51/43
f 83/42/34 88/50/42 86/27/23 85/44/36
f 87/5/5 66/14/12 65/13/11 62/6/6
f 92/28/24 93/35/29 68/11/9 66/14/12
f 88/50/42 90/49/41 92/28/24 86/27/23
f 84/41/33 89/51/43 88/50/42 83/42/34
f 97/52/44 96/53/45 94/54/46 95/55/47
f 90/49/41 94/54/46 93/35/29 92/28/24
f 68/11/9 72/18/16 71/17/15 67/12/10
f 98/36/30 99/47/39 74/15/13 72/18/16
f 94/54/46 96/53/45 98/36/30 93/35/29
f 91/48/40 95/55/47 94/54/46 90/49/41
f 103/56/48 102/23/19 100/57/49 101/58/50
f 96/53/45 100/57/49 99/47/39 98/36/30
f 74/15/13 78/37/31 77/38/27 73/16/14
f 105/59/59 106/45/57 82/43/35 103/56/48
f 100/57/49 102/23/19 104/26/22 99/47/39
f 97/52/44 101/58/50 100/57/49 96/53/45
f 103/56/48 82/43/35 81/24/20 102/23/19
f 107/46/58 108/60/60 89/51/43 84/41/33
f 108/60/60 109/61/53 91/48/40 89/51/43
f 109/61/53 110/62/61 95/55/47 91/48/40
f 110/62/61 111/63/62 97/52/44 95/55/47
f 111/63/62 112/64/63 101/58/50 97/52/44
f 112/64/63 105/59/59 103/56/48 101/58/50
f 58/65/8 57/39/32 59/40/4 60/66/3
f 151/67/64 153/67/65 116/67/66 120/67/67
f 116/67/66 154/67/68 149/67/69 120/67/67
f 149/67/69 154/67/68 115/67/70 119/67/71
f 115/67/70 155/67/72 150/67/73 119/67/71
f 113/67/74 153/67/65 151/67/64 117/67/75
f 150/67/73 155/67/72 114/67/76 118/67/77
f 114/67/76 156/67/78 152/67/79 118/67/77
f 122/67/80 157/67/81 161/67/82 126/67/83
f 123/67/84 158/67/85 162/67/86 127/67/87
f 157/67/81 121/67/88 125/67/89 161/67/82
f 124/67/90 159/67/91 163/67/92 128/67/93
f 158/67/85 122/67/80 126/67/83 162/67/86
f 121/67/88 160/67/94 164/67/95 125/67/89
f 159/67/91 123/67/84 127/67/87 163/67/92
f 160/67/94 124/67/90 128/67/93 164/67/95
f 130/67/96 165/67/97 169/67/98 134/67/99
f 131/67/100 166/67/101 170/67/102 135/67/103
f 165/67/97 129/67/104 133/67/105 169/67/98
f 132/67/106 167/67/107 171/67/108 136/67/109
f 166/67/101 130/67/96 134/67/99 170/67/102
f 129/67/104 168/67/110 172/67/111 133/67/105
f 167/67/107 131/67/100 135/67/103 171/67/108
f 168/67/110 132/67/106 136/67/109 172/67/111
f 138/67/112 173/67/113 177/67/114 142/67/115
f 139/67/116 174/67/117 178/67/118 143/67/119
f 173/67/113 137/67/120 141/67/121 177/67/114
f 140/67/122 175/67/123 179/67/124 144/67/125
f 174/67/117 138/67/112 142/67/115 178/67/118
f 137/67/120 176/67/126 180/67/127 141/67/121
f 175/67/123 139/67/116 143/67/119 179/67/124
f 176/67/126 140/67/122 144/67/125 180/67/127
f 292/67/128 293/67/129 145/67/130 181/67/131
f 301/67/132 305/67/133 183/67/134 148/67/135
f 313/67/136 317/67/137 146/67/138 182/67/139
f 293/67/129 297/67/140 184/67/141 145/67/130
f 305/67/133 309/67/142 147/67/143 183/67/134
f 297/67/140 301/67/132 148/67/135 184/67/141
f 309/67/142 313/67/136 182/67/139 147/67/143
f 152/67/79 156/67/78 113/67/74 117/67/75
f 116/67/66 153/67/65 51/46/144 50/45/145
f 153/67/65 113/67/74 52/60/146 51/46/144
f 113/67/74 156/67/78 53/61/147 52/60/146
f 156/67/78 114/67/76 54/62/148 53/61/147
f 114/67/76 155/67/72 55/63/149 54/62/148
f 155/67/72 115/67/70 56/64/150 55/63/149
f 115/67/70 154/67/68 49/59/151 56/64/150
f 154/67/68 116/67/66 50/45/145 49/59/151
f 124/67/90 160/67/94 205/67/152 206/67/153
f 160/67/94 121/67/88 202/67/154 205/67/152
f 121/67/88 157/67/81 199/67/155 202/67/154
f 157/67/81 122/67/80 196/67/156 199/67/155
f 122/67/80 158/67/85 193/67/157 196/67/156
f 158/67/85 123/67/84 190/67/158 193/67/157
f 123/67/84 159/67/91 187/67/159 190/67/158
f 159/67/91 124/67/90 206/67/153 187/67/159
f 190/67/158 187/67/159 186/67/160 189/67/161
f 189/67/161 186/67/160 185/67/162 188/67/163
f 188/67/163 185/67/162 149/67/69 119/67/71
f 193/67/157 190/67/158 189/67/161 192/67/164
f 192/67/164 189/67/161 188/67/163 191/67/165
f 191/67/165 188/67/163 119/67/71 150/67/73
f 196/67/156 193/67/157 192/67/164 195/67/166
f 195/67/166 192/67/164 191/67/165 194/67/167
f 194/67/167 191/67/165 150/67/73 118/67/77
f 199/67/155 196/67/156 195/67/166 198/67/168
f 198/67/168 195/67/166 194/67/167 197/67/169
f 197/67/169 194/67/167 118/67/77 152/67/79
f 202/67/154 199/67/155 198/67/168 201/67/170
f 201/67/170 198/67/168 197/67/169 200/67/171
f 200/67/171 197/67/169 152/67/79 117/67/75
f 205/67/152 202/67/154 201/67/170 204/67/172
f 204/67/172 201/67/170 200/67/171 203/67/173
f 203/67/173 200/67/171 117/67/75 151/67/64
f 206/67/153 205/67/152 204/67/172 207/67/174
f 207/67/174 204/67/172 203/67/173 208/67/175
f 208/67/175 203/67/173 151/67/64 120/67/67
f 187/67/159 206/67/153 207/67/174 186/67/160
f 186/67/160 207/67/174 208/67/175 185/67/162
f 185/67/162 208/67/175 120/67/67 149/67/69
f 130/67/96 166/67/101 229/67/176 230/67/177
f 166/67/101 131/67/100 226/67/178 229/67/176
f 131/67/100 167/67/107 223/67/179 226/67/178
f 167/67/107 132/67/106 220/67/180 223/67/179
f 132/67/106 168/67/110 217/67/181 220/67/180
f 168/67/110 129/67/104 214/67/182 217/67/181
f 129/67/104 165/67/97 211/67/183 214/67/182
f 165/67/97 130/67/96 230/67/177 211/67/183
f 214/67/182 211/67/183 210/67/184 213/67/185
f 213/67/185 210/67/184 209/67/186 212/67/187
f 212/67/187 209/67/186 161/67/82 125/67/89
f 217/67/181 214/67/182 213/67/185 216/67/188
f 216/67/188 213/67/185 212/67/187 215/67/189
f 215/67/189 212/67/187 125/67/89 164/67/95
f 220/67/180 217/67/181 216/67/188 219/67/190
f 219/67/190 216/67/188 215/67/189 218/67/191
f 218/67/191 215/67/189 164/67/95 128/67/93
f 223/67/179 220/67/180 219/67/190 222/67/192
f 222/67/192 219/67/190 218/67/191 221/67/193
f 221/67/193 218/67/191 128/67/93 163/67/92
f 226/67/178 223/67/179 222/67/192 225/67/194
f 225/67/194 222/67/192 221/67/193 224/67/195
f 224/67/195 221/67/193 163/67/92 127/67/87
f 229/67/176 226/67/178 225/67/194 228/67/196
f 228/67/196 225/67/194 224/67/195 227/67/197
f 227/67/197 224/67/195 127/67/87 162/67/86
f 230/67/177 229/67/176 228/67/196 231/67/198
f 231/67/198 228/67/196 227/67/197 232/67/199
f 232/67/199 227/67/197 162/67/86 126/67/83
f 211/67/183 230/67/177 231/67/198 210/67/184
f 210/67/184 231/67/198 232/67/199 209/67/186
f 209/67/186 232/67/199 126/67/83 161/67/82
f 138/67/112 174/67/117 253/67/200 254/67/201
f 174/67/117 139/67/116 250/67/202 253/67/200
f 139/67/116 175/67/123 247/67/203 250/67/202
f 175/67/123 140/67/122 244/67/204 247/67/203
f 140/67/122 176/67/126 241/67/205 244/67/204
f 176/67/126 137/67/120 238/67/206 241/67/205
f 137/67/120 173/67/113 235/67/207 238/67/206
f 173/67/113 138/67/112 254/67/201 235/67/207
f 238/67/206 235/67/207 234/67/208 237/67/209
f 237/67/209 234/67/208 233/67/210 236/67/211
f 236/67/211 233/67/210 169/67/98 133/67/105
f 241/67/205 238/67/206 237/67/209 240/67/212
f 240/67/212 237/67/209 236/67/211 239/67/213
f 239/67/213 236/67/211 133/67/105 172/67/111
f 244/67/204 241/67/205 240/67/212 243/67/214
f 243/67/214 240/67/212 239/67/213 242/67/215
f 242/67/215 239/67/213 172/67/111 136/67/109
f 247/67/203 244/67/204 243/67/214 246/67/216
f 246/67/216 243/67/214 242/67/215 245/67/217
f 245/67/217 242/67/215 136/67/109 171/67/108
f 250/67/202 247/67/203 246/67/216 249/67/218
f 249/67/218 246/67/216 245/67/217 248/67/219
f 248/67/219 245/67/217 171/67/108 135/67/103
f 253/67/200 250/67/202 249/67/218 252/67/220
f 252/67/220 249/67/218 248/67/219 251/67/221
f 251/67/221 248/67/219 135/67/103 170/67/102
f 254/67/201 253/67/200 252/67/220 255/67/222
f 255/67/222 252/67/220 251/67/221 256/67/223
f 256/67/223 251/67/221 170/67/102 134/67/99
f 235/67/207 254/67/201 255/67/222 234/67/208
f 234/67/208 255/67/222 256/67/223 233/67/210
f 233/67/210 256/67/223 134/67/99 169/67/98
f 181/67/131 145/67/130 107/46/224 106/45/225
f 145/67/130 184/67/141 108/60/226 107/46/224
f 184/67/141 148/67/135 109/61/227 108/60/226
f 148/67/135 183/67/134 110/62/228 109/61/227
f 183/67/134 147/67/143 111/63/229 110/62/228
f 147/67/143 182/67/139 112/64/230 111/63/229
f 182/67/139 146/67/138 105/59/231 112/64/230
f 146/67/138 181/67/131 106/45/225 105/59/231
f 258/67/232 262/67/233 285/67/234 286/67/235
f 262/67/233 259/67/236 282/67/237 285/67/234
f 259/67/236 263/67/238 279/67/239 282/67/237
f 263/67/238 260/67/240 276/67/241 279/67/239
f 260/67/240 264/67/242 273/67/243 276/67/241
f 264/67/242 257/67/244 270/67/245 273/67/243
f 257/67/244 261/67/246 267/67/247 270/67/245
f 261/67/246 258/67/232 286/67/235 267/67/247
f 270/67/245 267/67/247 266/67/248 269/67/249
f 269/67/249 266/67/248 265/67/250 268/67/251
f 268/67/251 265/67/250 177/67/114 141/67/121
f 273/67/243 270/67/245 269/67/249 272/67/252
f 272/67/252 269/67/249 268/67/251 271/67/253
f 271/67/253 268/67/251 141/67/121 180/67/127
f 276/67/241 273/67/243 272/67/252 275/67/254
f 275/67/254 272/67/252 271/67/253 274/67/255
f 274/67/255 271/67/253 180/67/127 144/67/125
f 279/67/239 276/67/241 275/67/254 278/67/256
f 278/67/256 275/67/254 274/67/255 277/67/257
f 277/67/257 274/67/255 144/67/125 179/67/124
f 282/67/237 279/67/239 278/67/256 281/67/258
f 281/67/258 278/67/256 277/67/257 280/67/259
f 280/67/259 277/67/257 179/67/124 143/67/119
f 285/67/234 282/67/237 281/67/258 284/67/260
f 284/67/260 281/67/258 280/67/259 283/67/261
f 283/67/261 280/67/259 143/67/119 178/67/118
f 286/67/235 285/67/234 284/67/260 287/67/262
f 287/67/262 284/67/260 283/67/261 288/67/263
f 288/67/263 283/67/261 178/67/118 142/67/115
f 267/67/247 286/67/235 287/67/262 266/67/248
f 266/67/248 287/67/262 288/67/263 265/67/250
f 265/67/250 288/67/263 142/67/115 177/67/114
f 259/67/236 300/67/264 296/67/265 263/67/238
f 262/67/233 304/67/266 300/67/264 259/67/236
f 258/67/232 308/67/267 304/67/266 262/67/233
f 261/67/246 312/67/268 308/67/267 258/67/232
f 257/67/244 316/67/269 312/67/268 261/67/246
f 264/67/242 320/67/270 316/67/269 257/67/244
f 260/67/240 289/67/271 320/67/270 264/67/242
f 289/67/271 296/67/265 295/67/272 290/67/273
f 290/67/273 295/67/272 294/67/274 291/67/275
f 291/67/275 294/67/274 293/67/129 292/67/128
f 296/67/265 300/67/264 299/67/276 295/67/272
f 295/67/272 299/67/276 298/67/277 294/67/274
f 294/67/274 298/67/277 297/67/140 293/67/129
f 300/67/264 304/67/266 303/67/278 299/67/276
f 299/67/276 303/67/278 302/67/279 298/67/277
f 298/67/277 302/67/279 301/67/132 297/67/140
f 304/67/266 308/67/267 307/67/280 303/67/278
f 303/67/278 307/67/280 306/67/281 302/67/279
f 302/67/279 306/67/281 305/67/133 301/67/132
f 308/67/267 312/67/268 311/67/282 307/67/280
f 307/67/280 311/67/282 310/67/283 306/67/281
f 306/67/281 310/67/283 309/67/142 305/67/133
f 312/67/268 316/67/269 315/67/284 311/67/282
f 311/67/282 315/67/284 314/67/285 310/67/283
f 310/67/283 314/67/285 313/67/136 309/67/142
f 316/67/269 320/67/270 319/67/286 315/67/284
f 315/67/284 319/67/286 318/67/287 314/67/285
f 314/67/285 318/67/287 317/67/137 313/67/136
f 320/67/270 289/67/271 290/67/273 319/67/286
f 319/67/286 290/67/273 291/67/275 318/67/287
f 318/67/287 291/67/275 292/67/128 317/67/137
f 263/67/238 296/67/265 289/67/271 260/67/240
f 317/67/137 292/67/128 181/67/131 146/67/138
