# Blender 5.0.1
# www.blender.org
mtllib Wire_Head_Yellow(Y0-Pin11).mtl
o Wire_Head_Yellow(Y0-Pin11)
v 0.033559 0.114526 0.249517
v 0.035680 0.113648 0.249517
v 0.033559 0.114526 0.240313
v 0.035680 0.113648 0.240313
v 0.035680 0.113732 0.240115
v 0.037800 0.114526 0.240313
v 0.037800 0.114526 0.249517
v 0.038678 0.116647 0.249517
v 0.038678 0.116647 0.240313
v 0.038595 0.116647 0.240115
v 0.037800 0.118767 0.240313
v 0.037741 0.118708 0.240115
v 0.037800 0.118767 0.249517
v 0.035680 0.119646 0.249517
v 0.035680 0.119646 0.240313
v 0.035680 0.119562 0.240115
v 0.033559 0.118767 0.240313
v 0.033618 0.118708 0.240115
v 0.033559 0.118767 0.249517
v 0.032681 0.116647 0.249517
v 0.032681 0.116647 0.240313
v 0.032764 0.116647 0.240115
v 0.033618 0.114585 0.240115
v 0.033761 0.114728 0.240033
v 0.033949 0.114916 0.240033
v 0.034092 0.115059 0.240115
v 0.035680 0.114200 0.240033
v 0.035680 0.114401 0.240115
v 0.035680 0.113934 0.240033
v 0.037598 0.114728 0.240033
v 0.037741 0.114585 0.240115
v 0.037410 0.114916 0.240033
v 0.037267 0.115059 0.240115
v 0.038127 0.116647 0.240033
v 0.037925 0.116647 0.240115
v 0.038393 0.116647 0.240033
v 0.037598 0.118565 0.240033
v 0.037410 0.118377 0.240033
v 0.037267 0.118235 0.240115
v 0.035680 0.119094 0.240033
v 0.035680 0.118892 0.240115
v 0.035680 0.119360 0.240033
v 0.033761 0.118565 0.240033
v 0.033949 0.118377 0.240033
v 0.034092 0.118235 0.240115
v 0.033232 0.116647 0.240033
v 0.033434 0.116647 0.240115
v 0.032966 0.116647 0.240033
v 0.033518 0.116647 0.240313
v 0.034151 0.115118 0.240313
v 0.035680 0.114485 0.240313
v 0.037208 0.115118 0.240313
v 0.037841 0.116647 0.240313
v 0.037208 0.118175 0.240313
v 0.035680 0.118809 0.240313
v 0.034151 0.118175 0.240313
v 0.100377 -0.027786 0.249517
v 0.102497 -0.028664 0.249517
v 0.100377 -0.027786 0.240313
v 0.102497 -0.028664 0.240313
v 0.102497 -0.028581 0.240115
v 0.104618 -0.027786 0.240313
v 0.104618 -0.027786 0.249517
v 0.105496 -0.025666 0.249517
v 0.105496 -0.025666 0.240313
v 0.105412 -0.025666 0.240115
v 0.104618 -0.023545 0.240313
v 0.104558 -0.023604 0.240115
v 0.104618 -0.023545 0.249517
v 0.102497 -0.022667 0.249517
v 0.102497 -0.022667 0.240313
v 0.102497 -0.022750 0.240115
v 0.100377 -0.023545 0.240313
v 0.100436 -0.023604 0.240115
v 0.100377 -0.023545 0.249517
v 0.099498 -0.025666 0.249517
v 0.099498 -0.025666 0.240313
v 0.099582 -0.025666 0.240115
v 0.100436 -0.027727 0.240115
v 0.100579 -0.027584 0.240033
v 0.100767 -0.027396 0.240033
v 0.100909 -0.027253 0.240115
v 0.102497 -0.028113 0.240033
v 0.102497 -0.027911 0.240115
v 0.102497 -0.028379 0.240033
v 0.104416 -0.027584 0.240033
v 0.104558 -0.027727 0.240115
v 0.104228 -0.027396 0.240033
v 0.104085 -0.027253 0.240115
v 0.104944 -0.025666 0.240033
v 0.104742 -0.025666 0.240115
v 0.105210 -0.025666 0.240033
v 0.104416 -0.023747 0.240033
v 0.104228 -0.023935 0.240033
v 0.104085 -0.024078 0.240115
v 0.102497 -0.023218 0.240033
v 0.102497 -0.023420 0.240115
v 0.102497 -0.022952 0.240033
v 0.100579 -0.023747 0.240033
v 0.100767 -0.023935 0.240033
v 0.100909 -0.024078 0.240115
v 0.100050 -0.025666 0.240033
v 0.100252 -0.025666 0.240115
v 0.099784 -0.025666 0.240033
v 0.100335 -0.025666 0.240313
v 0.100969 -0.027194 0.240313
v 0.102497 -0.027827 0.240313
v 0.104026 -0.027194 0.240313
v 0.104659 -0.025666 0.240313
v 0.104026 -0.024137 0.240313
v 0.102497 -0.023504 0.240313
v 0.100969 -0.024137 0.240313
v 0.103582 -0.026744 0.236010
v 0.101412 -0.026744 0.236010
v 0.101412 -0.024587 0.235978
v 0.103582 -0.024587 0.235978
v 0.103536 -0.026704 0.238782
v 0.101458 -0.026704 0.238782
v 0.101458 -0.024627 0.238782
v 0.103536 -0.024627 0.238782
v 0.103576 -0.042351 0.232761
v 0.101418 -0.042319 0.232761
v 0.101418 -0.042319 0.230590
v 0.103576 -0.042351 0.230590
v 0.103582 -0.030228 0.232754
v 0.101412 -0.030228 0.232754
v 0.101412 -0.030196 0.230597
v 0.103582 -0.030196 0.230597
v 0.073276 -0.047960 0.232761
v 0.073308 -0.045803 0.232761
v 0.073308 -0.045803 0.230590
v 0.073276 -0.047960 0.230590
v 0.097902 -0.047960 0.232761
v 0.097870 -0.045803 0.232761
v 0.097870 -0.045802 0.230590
v 0.097902 -0.047960 0.230590
v 0.067603 0.111821 0.232761
v 0.069760 0.111853 0.232761
v 0.069760 0.111853 0.230590
v 0.067603 0.111821 0.230590
v 0.067603 -0.042088 0.232761
v 0.069760 -0.042056 0.232761
v 0.069760 -0.042056 0.230590
v 0.067603 -0.042088 0.230590
v 0.040196 0.115562 0.232754
v 0.040196 0.117732 0.232754
v 0.040164 0.117732 0.230597
v 0.040164 0.115562 0.230597
v 0.064165 0.115568 0.232761
v 0.064197 0.117726 0.232761
v 0.064197 0.117726 0.230590
v 0.064165 0.115568 0.230590
v 0.036718 0.115608 0.238782
v 0.036718 0.117686 0.238782
v 0.034641 0.117686 0.238782
v 0.034641 0.115608 0.238782
v 0.036758 0.115562 0.236010
v 0.036758 0.117732 0.236010
v 0.034601 0.117732 0.235978
v 0.034601 0.115562 0.235978
v 0.102497 -0.027149 0.236016
v 0.101005 -0.025666 0.235994
v 0.102497 -0.024182 0.235972
v 0.103989 -0.025666 0.235994
v 0.102497 -0.027095 0.238798
v 0.101068 -0.025666 0.238798
v 0.102497 -0.024236 0.238798
v 0.103927 -0.025666 0.238798
v 0.102497 -0.042335 0.233168
v 0.101014 -0.042313 0.231675
v 0.102497 -0.042335 0.230183
v 0.103980 -0.042357 0.231675
v 0.102497 -0.030234 0.233159
v 0.101005 -0.030212 0.231675
v 0.102497 -0.030190 0.230192
v 0.103989 -0.030212 0.231675
v 0.073292 -0.046881 0.233168
v 0.073314 -0.045398 0.231675
v 0.073292 -0.046881 0.230183
v 0.073270 -0.048364 0.231675
v 0.097886 -0.046881 0.233168
v 0.097864 -0.045398 0.231675
v 0.097886 -0.046881 0.230183
v 0.097908 -0.048364 0.231675
v 0.068681 0.111837 0.233168
v 0.070164 0.111859 0.231675
v 0.068681 0.111837 0.230183
v 0.067198 0.111815 0.231675
v 0.068681 -0.042072 0.233168
v 0.070164 -0.042050 0.231675
v 0.068681 -0.042072 0.230183
v 0.067198 -0.042094 0.231675
v 0.040202 0.116647 0.233159
v 0.040180 0.118139 0.231675
v 0.040158 0.116647 0.230192
v 0.040180 0.115155 0.231675
v 0.064181 0.116647 0.233168
v 0.064203 0.118130 0.231675
v 0.064181 0.116647 0.230183
v 0.064159 0.115164 0.231675
v 0.037109 0.116647 0.238798
v 0.035680 0.118076 0.238798
v 0.034250 0.116647 0.238798
v 0.035680 0.115217 0.238798
v 0.037163 0.116647 0.236016
v 0.035680 0.118139 0.235994
v 0.034196 0.116647 0.235972
v 0.035680 0.115155 0.235994
v 0.102497 -0.028073 0.233248
v 0.102497 -0.027425 0.233396
v 0.102497 -0.027259 0.233954
v 0.103582 -0.026867 0.233854
v 0.103582 -0.027150 0.233100
v 0.103582 -0.027990 0.232852
v 0.103989 -0.025822 0.233587
v 0.103989 -0.026415 0.232311
v 0.103989 -0.027770 0.231796
v 0.103582 -0.024776 0.233321
v 0.103582 -0.025679 0.231521
v 0.103582 -0.027549 0.230740
v 0.102497 -0.024384 0.233221
v 0.102497 -0.025404 0.231225
v 0.102497 -0.027466 0.230344
v 0.101412 -0.024776 0.233321
v 0.101412 -0.025679 0.231521
v 0.101412 -0.027549 0.230740
v 0.101005 -0.025822 0.233587
v 0.101005 -0.026414 0.232311
v 0.101005 -0.027770 0.231796
v 0.101412 -0.026867 0.233854
v 0.101412 -0.027150 0.233100
v 0.101412 -0.027990 0.232852
v 0.100395 -0.046743 0.233168
v 0.101765 -0.046182 0.233168
v 0.102349 -0.044834 0.233168
v 0.103398 -0.045084 0.232761
v 0.102521 -0.046952 0.232761
v 0.100632 -0.047796 0.232761
v 0.103792 -0.045178 0.231675
v 0.102804 -0.047241 0.231675
v 0.100721 -0.048190 0.231675
v 0.103398 -0.045084 0.230590
v 0.102521 -0.046952 0.230590
v 0.100632 -0.047796 0.230590
v 0.102349 -0.044834 0.230183
v 0.101765 -0.046182 0.230183
v 0.100395 -0.046743 0.230183
v 0.101300 -0.044584 0.230590
v 0.101010 -0.045412 0.230590
v 0.100158 -0.045691 0.230590
v 0.100906 -0.044490 0.231675
v 0.100727 -0.045123 0.231675
v 0.100069 -0.045296 0.231675
v 0.101300 -0.044584 0.232761
v 0.101010 -0.045412 0.232761
v 0.100158 -0.045691 0.232761
v 0.068813 -0.044663 0.233168
v 0.069367 -0.046096 0.233168
v 0.070732 -0.046719 0.233168
v 0.070469 -0.047765 0.232761
v 0.068582 -0.046836 0.232761
v 0.067758 -0.044888 0.232761
v 0.070371 -0.048158 0.231675
v 0.068288 -0.047114 0.231675
v 0.067362 -0.044973 0.231675
v 0.070469 -0.047765 0.230590
v 0.068582 -0.046836 0.230590
v 0.067758 -0.044888 0.230590
v 0.070732 -0.046719 0.230183
v 0.069367 -0.046096 0.230183
v 0.068813 -0.044663 0.230183
v 0.070994 -0.045672 0.230590
v 0.070152 -0.045356 0.230590
v 0.069868 -0.044439 0.230590
v 0.071093 -0.045280 0.231675
v 0.070447 -0.045078 0.231675
v 0.070263 -0.044354 0.231675
v 0.070994 -0.045672 0.232761
v 0.070152 -0.045356 0.232761
v 0.069868 -0.044439 0.232761
v 0.066703 0.116478 0.233168
v 0.068032 0.115843 0.233168
v 0.068560 0.114408 0.233168
v 0.067503 0.114194 0.232761
v 0.067235 0.115116 0.232761
v 0.066430 0.115434 0.232761
v 0.067107 0.114114 0.231675
v 0.066936 0.114844 0.231675
v 0.066327 0.115043 0.231675
v 0.067503 0.114194 0.230590
v 0.067235 0.115116 0.230590
v 0.066430 0.115434 0.230590
v 0.068560 0.114408 0.230183
v 0.068032 0.115843 0.230183
v 0.066703 0.116478 0.230183
v 0.069618 0.114622 0.230590
v 0.068830 0.116570 0.230590
v 0.066977 0.117521 0.230590
v 0.070014 0.114702 0.231675
v 0.069129 0.116842 0.231675
v 0.067079 0.117913 0.231675
v 0.069618 0.114622 0.232761
v 0.068830 0.116570 0.232761
v 0.066977 0.117521 0.232761
v 0.037270 0.116647 0.233957
v 0.037432 0.116647 0.233397
v 0.038064 0.116647 0.233249
v 0.037979 0.115562 0.232854
v 0.037154 0.115562 0.233103
v 0.036878 0.115562 0.233859
v 0.037754 0.115155 0.231799
v 0.036414 0.115155 0.232319
v 0.035831 0.115155 0.233597
v 0.037529 0.115562 0.230744
v 0.035673 0.115562 0.231534
v 0.034785 0.115562 0.233335
v 0.037444 0.116647 0.230348
v 0.035395 0.116647 0.231240
v 0.034392 0.116647 0.233236
v 0.037529 0.117732 0.230744
v 0.035673 0.117732 0.231534
v 0.034785 0.117732 0.233335
v 0.037754 0.118139 0.231799
v 0.036414 0.118139 0.232319
v 0.035831 0.118139 0.233597
v 0.037979 0.117732 0.232854
v 0.037154 0.117732 0.233103
v 0.036878 0.117732 0.233859
vn -0.5263 -0.5263 -0.6678
vn -0.0000 -0.7444 -0.6678
vn -0.0000 -0.9818 -0.1897
vn -0.6943 -0.6943 -0.1897
vn 0.5263 -0.5263 -0.6678
vn 0.6943 -0.6943 -0.1897
vn 0.7071 -0.7071 -0.0000
vn -0.0000 -1.0000 -0.0000
vn 0.5263 0.5263 -0.6678
vn 0.6943 0.6943 -0.1897
vn 0.9818 -0.0000 -0.1897
vn 0.7444 -0.0000 -0.6678
vn -0.5263 0.5263 -0.6678
vn -0.6943 0.6943 -0.1897
vn -0.0000 0.9818 -0.1897
vn -0.0000 0.7444 -0.6678
vn 0.7071 0.7071 -0.0000
vn 1.0000 -0.0000 -0.0000
vn 0.1448 -0.0000 -0.9895
vn 0.1024 0.1024 -0.9895
vn -0.1676 -0.1676 -0.9715
vn -0.2370 -0.0000 -0.9715
vn 0.1676 -0.1676 -0.9715
vn 0.2370 -0.0000 -0.9715
vn -1.0000 -0.0000 -0.0000
vn -0.7071 0.7071 -0.0000
vn -0.9818 -0.0000 -0.1897
vn -0.0000 1.0000 -0.0000
vn 0.1676 0.1676 -0.9715
vn -0.0000 0.2370 -0.9715
vn -0.7444 -0.0000 -0.6678
vn -0.7071 -0.7071 -0.0000
vn -0.0000 0.6474 -0.7621
vn -0.0000 0.1448 -0.9895
vn 0.4578 0.4578 -0.7621
vn -0.0000 -0.2370 -0.9715
vn 0.6514 0.6514 -0.3891
vn -0.0000 0.9212 -0.3891
vn -0.1676 0.1676 -0.9715
vn -0.6474 -0.0000 -0.7621
vn -0.1448 -0.0000 -0.9895
vn -0.1024 0.1024 -0.9895
vn -0.4578 0.4578 -0.7621
vn -0.0000 -0.6474 -0.7621
vn -0.0000 -0.1448 -0.9895
vn -0.1024 -0.1024 -0.9895
vn -0.4578 -0.4578 -0.7621
vn 0.6474 -0.0000 -0.7621
vn 0.1024 -0.1024 -0.9895
vn 0.4578 -0.4578 -0.7621
vn 0.9212 -0.0000 -0.3891
vn -0.6514 0.6514 -0.3891
vn -0.9212 -0.0000 -0.3890
vn -0.6514 -0.6514 -0.3891
vn -0.0000 -0.9212 -0.3891
vn 0.6514 -0.6514 -0.3891
vn 0.7443 -0.0000 -0.6678
vn -0.7443 -0.0000 -0.6678
vn 0.6514 0.6514 -0.3890
vn -0.0000 0.9212 -0.3890
vn 0.9212 -0.0000 -0.3890
vn -0.6514 0.6514 -0.3890
vn -0.6514 -0.6514 -0.3890
vn -0.0000 -0.9212 -0.3890
vn 0.6514 -0.6514 -0.3890
vn -0.0000 -0.9758 -0.2185
vn -0.6894 -0.6903 -0.2195
vn -0.7088 -0.7048 0.0309
vn -0.0000 -0.9993 0.0376
vn -0.9761 0.0001 -0.2175
vn -0.9999 0.0073 0.0100
vn -0.6893 0.6904 -0.2196
vn -0.7008 0.7132 -0.0147
vn -0.0000 0.9758 -0.2187
vn -0.0000 0.9997 -0.0261
vn 0.6893 0.6904 -0.2196
vn 0.7008 0.7132 -0.0147
vn 0.9761 0.0001 -0.2175
vn 0.9999 0.0073 0.0101
vn 0.6894 -0.6903 -0.2195
vn 0.7088 -0.7048 0.0309
vn -0.7049 0.0185 0.7090
vn 0.0066 -0.0006 1.0000
vn -0.0000 -0.0210 0.9998
vn -0.7086 -0.0154 0.7054
vn -0.7049 0.0185 -0.7090
vn -0.9997 0.0253 -0.0000
vn -1.0000 0.0004 -0.0055
vn -0.7023 0.0193 -0.7116
vn 0.7123 -0.0231 0.7015
vn 0.7086 -0.0154 0.7054
vn 0.7123 -0.0231 -0.7015
vn 0.0066 -0.0006 -1.0000
vn -0.0000 0.0276 -0.9996
vn 0.7023 0.0193 -0.7116
vn 0.9995 -0.0330 -0.0000
vn 1.0000 0.0004 -0.0055
vn 0.0198 0.7055 0.7084
vn -0.0010 -0.0071 1.0000
vn 0.0008 -0.0061 1.0000
vn -0.0172 0.7059 0.7081
vn 0.0198 0.7055 -0.7084
vn 0.0274 0.9996 -0.0000
vn -0.0238 0.9997 -0.0000
vn -0.0172 0.7059 -0.7081
vn -0.0247 -0.7134 0.7003
vn 0.0214 -0.7128 0.7010
vn -0.0247 -0.7134 -0.7003
vn -0.0010 -0.0071 -1.0000
vn 0.0008 -0.0061 -1.0000
vn 0.0214 -0.7128 -0.7010
vn -0.0350 -0.9994 -0.0000
vn 0.0304 -0.9995 -0.0000
vn 0.7122 0.0183 0.7017
vn 0.0052 0.0006 1.0000
vn -0.0057 -0.0007 1.0000
vn 0.7061 0.0160 0.7079
vn 0.7122 0.0183 -0.7017
vn 0.9997 0.0260 -0.0000
vn 0.9998 0.0221 -0.0000
vn 0.7061 0.0160 -0.7079
vn -0.7063 -0.0148 0.7078
vn -0.7125 -0.0197 0.7014
vn -0.7063 -0.0148 -0.7078
vn 0.0052 0.0006 -1.0000
vn -0.0057 -0.0007 -1.0000
vn -0.7125 -0.0197 -0.7014
vn -0.9998 -0.0205 -0.0000
vn -0.9996 -0.0280 -0.0000
vn 0.0159 0.7087 0.7054
vn 0.0218 -0.0000 0.9998
vn 0.0009 0.0075 1.0000
vn 0.0262 0.7129 0.7007
vn -0.0199 0.7021 -0.7118
vn -0.0006 1.0000 -0.0057
vn 0.0372 0.9993 -0.0000
vn 0.0262 0.7129 -0.7007
vn 0.0159 -0.7087 0.7054
vn -0.0209 -0.7046 0.7093
vn -0.0199 -0.7021 -0.7118
vn -0.0284 -0.0000 -0.9996
vn 0.0009 0.0075 -1.0000
vn -0.0209 -0.7046 -0.7093
vn -0.0006 -1.0000 -0.0057
vn -0.0287 -0.9996 -0.0000
vn 0.7048 -0.7087 0.0305
vn 0.9993 -0.0000 0.0370
vn 0.9758 -0.0000 -0.2185
vn 0.6903 -0.6894 -0.2195
vn 0.7048 0.7087 0.0305
vn 0.6903 0.6894 -0.2195
vn -0.0071 0.9999 0.0101
vn -0.0001 0.9761 -0.2175
vn -0.7131 0.7009 -0.0141
vn -0.6904 0.6893 -0.2196
vn -0.9997 -0.0000 -0.0253
vn -0.9758 -0.0000 -0.2187
vn -0.7131 -0.7009 -0.0141
vn -0.6904 -0.6893 -0.2196
vn -0.0071 -0.9999 0.0101
vn -0.0001 -0.9761 -0.2175
vn 0.7169 -0.1137 0.6878
vn -0.0000 -0.1496 0.9887
vn 0.9994 0.0120 -0.0328
vn 0.6818 0.1637 -0.7130
vn -0.0000 0.2249 -0.9744
vn -0.6818 0.1637 -0.7130
vn -0.9994 0.0120 -0.0328
vn -0.7169 -0.1137 0.6878
vn 0.7826 -0.4245 0.4553
vn -0.0000 -0.6826 0.7308
vn 0.7213 -0.6780 0.1416
vn -0.0000 -0.9819 0.1894
vn 0.9963 0.0589 -0.0629
vn 0.9992 0.0383 -0.0150
vn 0.6678 0.5079 -0.5442
vn 0.6791 0.7076 -0.1951
vn -0.0000 0.6823 -0.7311
vn -0.0000 0.9638 -0.2666
vn -0.6678 0.5079 -0.5442
vn -0.6791 0.7076 -0.1951
vn -0.9963 0.0589 -0.0629
vn -0.9992 0.0383 -0.0150
vn -0.7826 -0.4245 0.4553
vn -0.7213 -0.6780 0.1416
vn 0.1747 -0.7113 0.6808
vn 0.0129 -0.0349 0.9993
vn 0.2395 -0.9709 -0.0000
vn 0.1747 -0.7113 -0.6808
vn 0.0129 -0.0348 -0.9993
vn -0.1253 0.6838 -0.7188
vn -0.1670 0.9860 -0.0000
vn -0.1253 0.6838 0.7188
vn 0.5213 -0.5314 0.6677
vn 0.0603 -0.0614 0.9963
vn 0.7098 -0.1834 0.6801
vn 0.0364 -0.0137 0.9992
vn 0.7003 -0.7138 -0.0000
vn 0.9680 -0.2511 -0.0000
vn 0.5213 -0.5314 -0.6677
vn 0.7098 -0.1834 -0.6801
vn 0.0603 -0.0614 -0.9963
vn 0.0364 -0.0137 -0.9992
vn -0.4366 0.4452 -0.7818
vn -0.6811 0.1331 -0.7200
vn -0.7003 0.7138 -0.0000
vn -0.9840 0.1781 -0.0000
vn -0.4366 0.4452 0.7818
vn -0.6811 0.1331 0.7200
vn -0.7127 -0.1659 0.6816
vn -0.0334 -0.0120 0.9994
vn -0.9737 -0.2278 -0.0000
vn -0.7127 -0.1659 -0.6816
vn -0.0334 -0.0120 -0.9994
vn 0.6858 0.1191 -0.7180
vn 0.9873 0.1588 -0.0000
vn 0.6858 0.1191 0.7180
vn -0.5411 -0.5112 0.6677
vn -0.0624 -0.0591 0.9963
vn -0.1917 -0.7083 0.6794
vn -0.0144 -0.0380 0.9992
vn -0.7269 -0.6867 -0.0000
vn -0.2621 -0.9650 -0.0000
vn -0.5411 -0.5112 -0.6677
vn -0.1917 -0.7083 -0.6794
vn -0.0624 -0.0591 -0.9963
vn -0.0144 -0.0380 -0.9992
vn 0.4543 0.4287 -0.7809
vn 0.1421 0.6776 -0.7216
vn 0.7270 0.6866 -0.0000
vn 0.1920 0.9814 -0.0000
vn 0.4543 0.4287 0.7809
vn 0.1421 0.6776 0.7216
vn -0.1483 -0.6752 0.7226
vn 0.0152 0.0393 0.9991
vn -0.2007 -0.9796 -0.0000
vn -0.1483 -0.6752 -0.7226
vn 0.0152 0.0393 -0.9991
vn 0.1994 0.7068 -0.6787
vn 0.2722 0.9622 -0.0000
vn 0.1994 0.7068 0.6787
vn -0.4612 -0.4209 0.7811
vn 0.0633 0.0581 0.9963
vn -0.6881 -0.1120 0.7169
vn 0.0321 0.0114 0.9994
vn -0.7382 -0.6746 -0.0000
vn -0.9889 -0.1485 -0.0000
vn -0.4612 -0.4209 -0.7811
vn -0.6881 -0.1120 -0.7169
vn 0.0633 0.0581 -0.9963
vn 0.0321 0.0114 -0.9994
vn 0.5494 0.5023 -0.6677
vn 0.7137 0.1586 -0.6822
vn 0.7381 0.6747 -0.0000
vn 0.9759 0.2181 -0.0000
vn 0.5494 0.5023 0.6677
vn 0.7137 0.1586 0.6822
vn 0.6792 -0.7207 0.1385
vn 0.9828 -0.0000 0.1847
vn -0.0378 -0.9992 -0.0147
vn -0.7082 -0.6794 -0.1920
vn -0.9649 -0.0000 -0.2625
vn -0.7082 0.6794 -0.1920
vn -0.0378 0.9992 -0.0147
vn 0.6792 0.7207 0.1385
vn 0.4275 -0.7828 0.4522
vn 0.6875 -0.0000 0.7261
vn 0.1162 -0.7172 0.6871
vn 0.1529 -0.0000 0.9882
vn -0.0593 -0.9963 -0.0625
vn -0.0123 -0.9994 -0.0333
vn -0.5116 -0.6678 -0.5407
vn -0.1669 -0.6815 -0.7125
vn -0.6873 -0.0000 -0.7264
vn -0.2291 -0.0000 -0.9734
vn -0.5116 0.6678 -0.5407
vn -0.1669 0.6815 -0.7125
vn -0.0593 0.9963 -0.0625
vn -0.0123 0.9994 -0.0333
vn 0.4275 0.7828 0.4522
vn 0.1162 0.7172 0.6871
vn -0.0000 -0.9068 -0.4215
vn -0.6397 -0.6397 -0.4260
vn 0.6397 -0.6397 -0.4260
vn 0.9068 -0.0000 -0.4215
vn 0.6397 0.6397 -0.4260
vn -0.0000 0.9068 -0.4215
vn -0.6397 0.6397 -0.4260
vn -0.9068 -0.0000 -0.4215
vt 0.636322 0.771411
vt 0.587470 0.804750
vt 0.582466 0.801554
vt 0.635177 0.765465
vt 0.576221 0.861411
vt 0.570569 0.862499
vt 0.433500 0.501817
vt 0.495149 0.501817
vt 0.495149 0.744281
vt 0.433500 0.744281
vt 0.667721 0.922223
vt 0.668877 0.928042
vt 0.605422 0.915050
vt 0.608737 0.910132
vt 0.727696 0.832155
vt 0.733433 0.831018
vt 0.721608 0.892773
vt 0.716620 0.889535
vt 0.310201 0.501817
vt 0.371850 0.501817
vt 0.371850 0.744281
vt 0.310201 0.744281
vt 0.687564 0.793554
vt 0.638896 0.784065
vt 0.637511 0.777194
vt 0.691445 0.787669
vt 0.581871 0.860294
vt 0.612010 0.905265
vt 0.125252 0.501817
vt 0.186902 0.501817
vt 0.186902 0.744281
vt 0.125252 0.744281
vt 0.248551 0.501817
vt 0.248551 0.744281
vt 0.666609 0.916401
vt 0.711799 0.886320
vt 0.694675 0.782803
vt 0.697976 0.777719
vt 0.063603 0.501817
vt 0.063603 0.744281
vt 0.602608 0.814790
vt 0.598019 0.811727
vt 0.639988 0.789629
vt 0.592254 0.807905
vt 0.641149 0.795086
vt 0.607213 0.817814
vt 0.722022 0.833305
vt 0.619061 0.894562
vt 0.615915 0.899401
vt 0.588618 0.858968
vt 0.594043 0.857906
vt 0.701466 0.879486
vt 0.706041 0.882519
vt 0.665296 0.909466
vt 0.664231 0.903895
vt 0.684425 0.798269
vt 0.715204 0.834694
vt 0.709684 0.835861
vt 0.681227 0.803114
vt 0.599435 0.856891
vt 0.622123 0.889732
vt 0.663198 0.898415
vt 0.696941 0.876438
vt 0.704000 0.837048
vt 0.001953 0.501817
vt 0.001953 0.744281
vt 0.000000 0.000000
s 1
usemtl Material.003
f 23/1/1 5/2/2 4/3/3 3/4/4
f 31/5/5 6/6/6 4/3/3 5/2/2
f 7/7/7 2/8/8 4/9/3 6/10/6
f 12/11/9 11/12/10 9/13/11 10/14/12
f 18/15/13 17/16/14 15/17/15 16/18/16
f 13/19/17 8/20/18 9/21/11 11/22/10
f 46/23/19 25/24/20 24/25/21 48/26/22
f 30/27/23 36/28/24 10/14/12 31/5/5
f 8/20/18 7/7/7 6/10/6 9/21/11
f 20/29/25 19/30/26 17/31/14 21/32/27
f 19/30/26 14/33/28 15/34/15 17/31/14
f 37/35/29 42/36/30 16/18/16 12/11/9
f 22/37/31 23/1/1 3/4/4 21/38/27
f 48/26/22 24/25/21 23/1/1 22/37/31
f 1/39/32 20/29/25 21/32/27 3/40/4
f 28/41/33 27/42/34 25/24/20 26/43/35
f 14/33/28 13/19/17 11/22/10 15/34/15
f 24/25/21 29/44/36 5/2/2 23/1/1
f 29/44/36 30/27/23 31/5/5 5/2/2
f 25/24/20 27/42/34 29/44/36 24/25/21
f 50/45/37 51/46/38 28/41/33 26/43/35
f 43/47/39 48/26/22 22/37/31 18/15/13
f 35/48/40 34/49/41 32/50/42 33/51/43
f 27/42/34 32/50/42 30/27/23 29/44/36
f 31/5/5 10/14/12 9/13/11 6/6/6
f 36/28/24 37/35/29 12/11/9 10/14/12
f 32/50/42 34/49/41 36/28/24 30/27/23
f 28/41/33 33/51/43 32/50/42 27/42/34
f 41/52/44 40/53/45 38/54/46 39/55/47
f 34/49/41 38/54/46 37/35/29 36/28/24
f 12/11/9 16/18/16 15/17/15 11/12/10
f 42/36/30 43/47/39 18/15/13 16/18/16
f 38/54/46 40/53/45 42/36/30 37/35/29
f 35/48/40 39/55/47 38/54/46 34/49/41
f 47/56/48 46/23/19 44/57/49 45/58/50
f 40/53/45 44/57/49 43/47/39 42/36/30
f 18/15/13 22/37/31 21/38/27 17/16/14
f 49/59/51 50/45/37 26/43/35 47/56/48
f 44/57/49 46/23/19 48/26/22 43/47/39
f 41/52/44 45/58/50 44/57/49 40/53/45
f 47/56/48 26/43/35 25/24/20 46/23/19
f 51/46/38 52/60/52 33/51/43 28/41/33
f 52/60/52 53/61/53 35/48/40 33/51/43
f 53/61/53 54/62/54 39/55/47 35/48/40
f 54/62/54 55/63/55 41/52/44 39/55/47
f 55/63/55 56/64/56 45/58/50 41/52/44
f 56/64/56 49/59/51 47/56/48 45/58/50
f 2/65/8 1/39/32 3/40/4 4/66/3
f 79/1/1 61/2/2 60/3/3 59/4/4
f 87/5/5 62/6/6 60/3/3 61/2/2
f 63/7/7 58/8/8 60/9/3 62/10/6
f 68/11/9 67/12/10 65/13/11 66/14/57
f 74/15/13 73/16/14 71/17/15 72/18/16
f 69/19/17 64/20/18 65/21/11 67/22/10
f 102/23/19 81/24/20 80/25/21 104/26/22
f 86/27/23 92/28/24 66/14/57 87/5/5
f 64/20/18 63/7/7 62/10/6 65/21/11
f 76/29/25 75/30/26 73/31/14 77/32/27
f 75/30/26 70/33/28 71/34/15 73/31/14
f 93/35/29 98/36/30 72/18/16 68/11/9
f 78/37/58 79/1/1 59/4/4 77/38/27
f 104/26/22 80/25/21 79/1/1 78/37/58
f 57/39/32 76/29/25 77/32/27 59/40/4
f 84/41/33 83/42/34 81/24/20 82/43/35
f 70/33/28 69/19/17 67/22/10 71/34/15
f 80/25/21 85/44/36 61/2/2 79/1/1
f 85/44/36 86/27/23 87/5/5 61/2/2
f 81/24/20 83/42/34 85/44/36 80/25/21
f 106/45/59 107/46/60 84/41/33 82/43/35
f 99/47/39 104/26/22 78/37/58 74/15/13
f 91/48/40 90/49/41 88/50/42 89/51/43
f 83/42/34 88/50/42 86/27/23 85/44/36
f 87/5/5 66/14/57 65/13/11 62/6/6
f 92/28/24 93/35/29 68/11/9 66/14/57
f 88/50/42 90/49/41 92/28/24 86/27/23
f 84/41/33 89/51/43 88/50/42 83/42/34
f 97/52/44 96/53/45 94/54/46 95/55/47
f 90/49/41 94/54/46 93/35/29 92/28/24
f 68/11/9 72/18/16 71/17/15 67/12/10
f 98/36/30 99/47/39 74/15/13 72/18/16
f 94/54/46 96/53/45 98/36/30 93/35/29
f 91/48/40 95/55/47 94/54/46 90/49/41
f 103/56/48 102/23/19 100/57/49 101/58/50
f 96/53/45 100/57/49 99/47/39 98/36/30
f 74/15/13 78/37/58 77/38/27 73/16/14
f 105/59/61 106/45/59 82/43/35 103/56/48
f 100/57/49 102/23/19 104/26/22 99/47/39
f 97/52/44 101/58/50 100/57/49 96/53/45
f 103/56/48 82/43/35 81/24/20 102/23/19
f 107/46/60 108/60/62 89/51/43 84/41/33
f 108/60/62 109/61/53 91/48/40 89/51/43
f 109/61/53 110/62/63 95/55/47 91/48/40
f 110/62/63 111/63/64 97/52/44 95/55/47
f 111/63/64 112/64/65 101/58/50 97/52/44
f 112/64/65 105/59/61 103/56/48 101/58/50
f 58/65/8 57/39/32 59/40/4 60/66/3
f 165/67/66 118/67/67 114/67/68 161/67/69
f 118/67/67 166/67/70 162/67/71 114/67/68
f 166/67/70 119/67/72 115/67/73 162/67/71
f 119/67/72 167/67/74 163/67/75 115/67/73
f 167/67/74 120/67/76 116/67/77 163/67/75
f 120/67/76 168/67/78 164/67/79 116/67/77
f 168/67/78 117/67/80 113/67/81 164/67/79
f 122/67/82 169/67/83 173/67/84 126/67/85
f 123/67/86 170/67/87 174/67/88 127/67/89
f 169/67/83 121/67/90 125/67/91 173/67/84
f 124/67/92 171/67/93 175/67/94 128/67/95
f 170/67/87 122/67/82 126/67/85 174/67/88
f 121/67/90 172/67/96 176/67/97 125/67/91
f 171/67/93 123/67/86 127/67/89 175/67/94
f 172/67/96 124/67/92 128/67/95 176/67/97
f 130/67/98 177/67/99 181/67/100 134/67/101
f 131/67/102 178/67/103 182/67/104 135/67/105
f 177/67/99 129/67/106 133/67/107 181/67/100
f 132/67/108 179/67/109 183/67/110 136/67/111
f 178/67/103 130/67/98 134/67/101 182/67/104
f 129/67/106 180/67/112 184/67/113 133/67/107
f 179/67/109 131/67/102 135/67/105 183/67/110
f 180/67/112 132/67/108 136/67/111 184/67/113
f 138/67/114 185/67/115 189/67/116 142/67/117
f 139/67/118 186/67/119 190/67/120 143/67/121
f 185/67/115 137/67/122 141/67/123 189/67/116
f 140/67/124 187/67/125 191/67/126 144/67/127
f 186/67/119 138/67/114 142/67/117 190/67/120
f 137/67/122 188/67/128 192/67/129 141/67/123
f 187/67/125 139/67/118 143/67/121 191/67/126
f 188/67/128 140/67/124 144/67/127 192/67/129
f 146/67/130 193/67/131 197/67/132 150/67/133
f 147/67/134 194/67/135 198/67/136 151/67/137
f 193/67/131 145/67/138 149/67/139 197/67/132
f 148/67/140 195/67/141 199/67/142 152/67/143
f 194/67/135 146/67/130 150/67/133 198/67/136
f 145/67/138 196/67/144 200/67/145 149/67/139
f 195/67/141 147/67/134 151/67/137 199/67/142
f 196/67/144 148/67/140 152/67/143 200/67/145
f 157/67/146 205/67/147 201/67/148 153/67/149
f 205/67/147 158/67/150 154/67/151 201/67/148
f 158/67/150 206/67/152 202/67/153 154/67/151
f 206/67/152 159/67/154 155/67/155 202/67/153
f 159/67/154 207/67/156 203/67/157 155/67/155
f 207/67/156 160/67/158 156/67/159 203/67/157
f 160/67/158 208/67/160 204/67/161 156/67/159
f 208/67/160 157/67/146 153/67/149 204/67/161
f 117/67/80 165/67/66 161/67/69 113/67/81
f 173/67/84 125/67/91 214/67/162 209/67/163
f 125/67/91 176/67/97 217/67/164 214/67/162
f 176/67/97 128/67/95 220/67/165 217/67/164
f 128/67/95 175/67/94 223/67/166 220/67/165
f 175/67/94 127/67/89 226/67/167 223/67/166
f 127/67/89 174/67/88 229/67/168 226/67/167
f 174/67/88 126/67/85 232/67/169 229/67/168
f 126/67/85 173/67/84 209/67/163 232/67/169
f 209/67/163 214/67/162 213/67/170 210/67/171
f 210/67/171 213/67/170 212/67/172 211/67/173
f 211/67/173 212/67/172 113/67/81 161/67/69
f 214/67/162 217/67/164 216/67/174 213/67/170
f 213/67/170 216/67/174 215/67/175 212/67/172
f 212/67/172 215/67/175 164/67/79 113/67/81
f 217/67/164 220/67/165 219/67/176 216/67/174
f 216/67/174 219/67/176 218/67/177 215/67/175
f 215/67/175 218/67/177 116/67/77 164/67/79
f 220/67/165 223/67/166 222/67/178 219/67/176
f 219/67/176 222/67/178 221/67/179 218/67/177
f 218/67/177 221/67/179 163/67/75 116/67/77
f 223/67/166 226/67/167 225/67/180 222/67/178
f 222/67/178 225/67/180 224/67/181 221/67/179
f 221/67/179 224/67/181 115/67/73 163/67/75
f 226/67/167 229/67/168 228/67/182 225/67/180
f 225/67/180 228/67/182 227/67/183 224/67/181
f 224/67/181 227/67/183 162/67/71 115/67/73
f 229/67/168 232/67/169 231/67/184 228/67/182
f 228/67/182 231/67/184 230/67/185 227/67/183
f 227/67/183 230/67/185 114/67/68 162/67/71
f 232/67/169 209/67/163 210/67/171 231/67/184
f 231/67/184 210/67/171 211/67/173 230/67/185
f 230/67/185 211/67/173 161/67/69 114/67/68
f 181/67/100 133/67/107 238/67/186 233/67/187
f 133/67/107 184/67/113 241/67/188 238/67/186
f 184/67/113 136/67/111 244/67/189 241/67/188
f 136/67/111 183/67/110 247/67/190 244/67/189
f 183/67/110 135/67/105 250/67/191 247/67/190
f 135/67/105 182/67/104 253/67/192 250/67/191
f 182/67/104 134/67/101 256/67/193 253/67/192
f 134/67/101 181/67/100 233/67/187 256/67/193
f 233/67/187 238/67/186 237/67/194 234/67/195
f 234/67/195 237/67/194 236/67/196 235/67/197
f 235/67/197 236/67/196 121/67/90 169/67/83
f 238/67/186 241/67/188 240/67/198 237/67/194
f 237/67/194 240/67/198 239/67/199 236/67/196
f 236/67/196 239/67/199 172/67/96 121/67/90
f 241/67/188 244/67/189 243/67/200 240/67/198
f 240/67/198 243/67/200 242/67/201 239/67/199
f 239/67/199 242/67/201 124/67/92 172/67/96
f 244/67/189 247/67/190 246/67/202 243/67/200
f 243/67/200 246/67/202 245/67/203 242/67/201
f 242/67/201 245/67/203 171/67/93 124/67/92
f 247/67/190 250/67/191 249/67/204 246/67/202
f 246/67/202 249/67/204 248/67/205 245/67/203
f 245/67/203 248/67/205 123/67/86 171/67/93
f 250/67/191 253/67/192 252/67/206 249/67/204
f 249/67/204 252/67/206 251/67/207 248/67/205
f 248/67/205 251/67/207 170/67/87 123/67/86
f 253/67/192 256/67/193 255/67/208 252/67/206
f 252/67/206 255/67/208 254/67/209 251/67/207
f 251/67/207 254/67/209 122/67/82 170/67/87
f 256/67/193 233/67/187 234/67/195 255/67/208
f 255/67/208 234/67/195 235/67/197 254/67/209
f 254/67/209 235/67/197 169/67/83 122/67/82
f 189/67/116 141/67/123 262/67/210 257/67/211
f 141/67/123 192/67/129 265/67/212 262/67/210
f 192/67/129 144/67/127 268/67/213 265/67/212
f 144/67/127 191/67/126 271/67/214 268/67/213
f 191/67/126 143/67/121 274/67/215 271/67/214
f 143/67/121 190/67/120 277/67/216 274/67/215
f 190/67/120 142/67/117 280/67/217 277/67/216
f 142/67/117 189/67/116 257/67/211 280/67/217
f 257/67/211 262/67/210 261/67/218 258/67/219
f 258/67/219 261/67/218 260/67/220 259/67/221
f 259/67/221 260/67/220 129/67/106 177/67/99
f 262/67/210 265/67/212 264/67/222 261/67/218
f 261/67/218 264/67/222 263/67/223 260/67/220
f 260/67/220 263/67/223 180/67/112 129/67/106
f 265/67/212 268/67/213 267/67/224 264/67/222
f 264/67/222 267/67/224 266/67/225 263/67/223
f 263/67/223 266/67/225 132/67/108 180/67/112
f 268/67/213 271/67/214 270/67/226 267/67/224
f 267/67/224 270/67/226 269/67/227 266/67/225
f 266/67/225 269/67/227 179/67/109 132/67/108
f 271/67/214 274/67/215 273/67/228 270/67/226
f 270/67/226 273/67/228 272/67/229 269/67/227
f 269/67/227 272/67/229 131/67/102 179/67/109
f 274/67/215 277/67/216 276/67/230 273/67/228
f 273/67/228 276/67/230 275/67/231 272/67/229
f 272/67/229 275/67/231 178/67/103 131/67/102
f 277/67/216 280/67/217 279/67/232 276/67/230
f 276/67/230 279/67/232 278/67/233 275/67/231
f 275/67/231 278/67/233 130/67/98 178/67/103
f 280/67/217 257/67/211 258/67/219 279/67/232
f 279/67/232 258/67/219 259/67/221 278/67/233
f 278/67/233 259/67/221 177/67/99 130/67/98
f 197/67/132 149/67/139 286/67/234 281/67/235
f 149/67/139 200/67/145 289/67/236 286/67/234
f 200/67/145 152/67/143 292/67/237 289/67/236
f 152/67/143 199/67/142 295/67/238 292/67/237
f 199/67/142 151/67/137 298/67/239 295/67/238
f 151/67/137 198/67/136 301/67/240 298/67/239
f 198/67/136 150/67/133 304/67/241 301/67/240
f 150/67/133 197/67/132 281/67/235 304/67/241
f 281/67/235 286/67/234 285/67/242 282/67/243
f 282/67/243 285/67/242 284/67/244 283/67/245
f 283/67/245 284/67/244 137/67/122 185/67/115
f 286/67/234 289/67/236 288/67/246 285/67/242
f 285/67/242 288/67/246 287/67/247 284/67/244
f 284/67/244 287/67/247 188/67/128 137/67/122
f 289/67/236 292/67/237 291/67/248 288/67/246
f 288/67/246 291/67/248 290/67/249 287/67/247
f 287/67/247 290/67/249 140/67/124 188/67/128
f 292/67/237 295/67/238 294/67/250 291/67/248
f 291/67/248 294/67/250 293/67/251 290/67/249
f 290/67/249 293/67/251 187/67/125 140/67/124
f 295/67/238 298/67/239 297/67/252 294/67/250
f 294/67/250 297/67/252 296/67/253 293/67/251
f 293/67/251 296/67/253 139/67/118 187/67/125
f 298/67/239 301/67/240 300/67/254 297/67/252
f 297/67/252 300/67/254 299/67/255 296/67/253
f 296/67/253 299/67/255 186/67/119 139/67/118
f 301/67/240 304/67/241 303/67/256 300/67/254
f 300/67/254 303/67/256 302/67/257 299/67/255
f 299/67/255 302/67/257 138/67/114 186/67/119
f 304/67/241 281/67/235 282/67/243 303/67/256
f 303/67/256 282/67/243 283/67/245 302/67/257
f 302/67/257 283/67/245 185/67/115 138/67/114
f 205/67/147 157/67/146 310/67/258 305/67/259
f 157/67/146 208/67/160 313/67/260 310/67/258
f 208/67/160 160/67/158 316/67/261 313/67/260
f 160/67/158 207/67/156 319/67/262 316/67/261
f 207/67/156 159/67/154 322/67/263 319/67/262
f 159/67/154 206/67/152 325/67/264 322/67/263
f 206/67/152 158/67/150 328/67/265 325/67/264
f 158/67/150 205/67/147 305/67/259 328/67/265
f 305/67/259 310/67/258 309/67/266 306/67/267
f 306/67/267 309/67/266 308/67/268 307/67/269
f 307/67/269 308/67/268 145/67/138 193/67/131
f 310/67/258 313/67/260 312/67/270 309/67/266
f 309/67/266 312/67/270 311/67/271 308/67/268
f 308/67/268 311/67/271 196/67/144 145/67/138
f 313/67/260 316/67/261 315/67/272 312/67/270
f 312/67/270 315/67/272 314/67/273 311/67/271
f 311/67/271 314/67/273 148/67/140 196/67/144
f 316/67/261 319/67/262 318/67/274 315/67/272
f 315/67/272 318/67/274 317/67/275 314/67/273
f 314/67/273 317/67/275 195/67/141 148/67/140
f 319/67/262 322/67/263 321/67/276 318/67/274
f 318/67/274 321/67/276 320/67/277 317/67/275
f 317/67/275 320/67/277 147/67/134 195/67/141
f 322/67/263 325/67/264 324/67/278 321/67/276
f 321/67/276 324/67/278 323/67/279 320/67/277
f 320/67/277 323/67/279 194/67/135 147/67/134
f 325/67/264 328/67/265 327/67/280 324/67/278
f 324/67/278 327/67/280 326/67/281 323/67/279
f 323/67/279 326/67/281 146/67/130 194/67/135
f 328/67/265 305/67/259 306/67/267 327/67/280
f 327/67/280 306/67/267 307/67/269 326/67/281
f 326/67/281 307/67/269 193/67/131 146/67/130
f 156/67/159 204/67/161 51/46/282 50/45/283
f 204/67/161 153/67/149 52/60/284 51/46/282
f 153/67/149 201/67/148 53/61/285 52/60/284
f 201/67/148 154/67/151 54/62/286 53/61/285
f 154/67/151 202/67/153 55/63/287 54/62/286
f 202/67/153 155/67/155 56/64/288 55/63/287
f 155/67/155 203/67/157 49/59/289 56/64/288
f 203/67/157 156/67/159 50/45/283 49/59/289
f 118/67/67 165/67/66 107/46/282 106/45/283
f 165/67/66 117/67/80 108/60/284 107/46/282
f 117/67/80 168/67/78 109/61/285 108/60/284
f 168/67/78 120/67/76 110/62/286 109/61/285
f 120/67/76 167/67/74 111/63/287 110/62/286
f 167/67/74 119/67/72 112/64/288 111/63/287
f 119/67/72 166/67/70 105/59/289 112/64/288
f 166/67/70 118/67/67 106/45/283 105/59/289
