# Blender 5.0.1
# www.blender.org
mtllib Wire_Head_Red(5VDC-+V0).mtl
o Wire_Head_Red(5VDC-+V0)
v 0.114534 0.153250 0.249517
v 0.116655 0.152371 0.249517
v 0.114534 0.153250 0.240313
v 0.116655 0.152371 0.240313
v 0.116655 0.152455 0.240115
v 0.118775 0.153250 0.240313
v 0.118775 0.153250 0.249517
v 0.119654 0.155370 0.249517
v 0.119654 0.155370 0.240313
v 0.119570 0.155370 0.240115
v 0.118775 0.157491 0.240313
v 0.118716 0.157431 0.240115
v 0.118775 0.157491 0.249517
v 0.116655 0.158369 0.249517
v 0.116655 0.158369 0.240313
v 0.116655 0.158285 0.240115
v 0.114534 0.157491 0.240313
v 0.114594 0.157431 0.240115
v 0.114534 0.157491 0.249517
v 0.113656 0.155370 0.249517
v 0.113656 0.155370 0.240313
v 0.113740 0.155370 0.240115
v 0.114594 0.153309 0.240115
v 0.114736 0.153452 0.240033
v 0.114924 0.153639 0.240033
v 0.115067 0.153782 0.240115
v 0.116655 0.152923 0.240033
v 0.116655 0.153125 0.240115
v 0.116655 0.152657 0.240033
v 0.118573 0.153452 0.240033
v 0.118716 0.153309 0.240115
v 0.118386 0.153639 0.240033
v 0.118243 0.153782 0.240115
v 0.119102 0.155370 0.240033
v 0.118900 0.155370 0.240115
v 0.119368 0.155370 0.240033
v 0.118573 0.157289 0.240033
v 0.118386 0.157101 0.240033
v 0.118243 0.156958 0.240115
v 0.116655 0.157817 0.240033
v 0.116655 0.157615 0.240115
v 0.116655 0.158083 0.240033
v 0.114736 0.157289 0.240033
v 0.114924 0.157101 0.240033
v 0.115067 0.156958 0.240115
v 0.114208 0.155370 0.240033
v 0.114410 0.155370 0.240115
v 0.113942 0.155370 0.240033
v 0.114493 0.155370 0.240313
v 0.115126 0.153841 0.240313
v 0.116655 0.153208 0.240313
v 0.118184 0.153841 0.240313
v 0.118817 0.155370 0.240313
v 0.118184 0.156899 0.240313
v 0.116655 0.157532 0.240313
v 0.115126 0.156899 0.240313
v 0.083966 -0.035722 0.249517
v 0.086087 -0.036600 0.249517
v 0.083966 -0.035722 0.240313
v 0.086087 -0.036600 0.240313
v 0.086087 -0.036517 0.240115
v 0.088207 -0.035722 0.240313
v 0.088207 -0.035722 0.249517
v 0.089086 -0.033601 0.249517
v 0.089086 -0.033601 0.240313
v 0.089002 -0.033601 0.240115
v 0.088207 -0.031481 0.240313
v 0.088148 -0.031540 0.240115
v 0.088207 -0.031481 0.249517
v 0.086087 -0.030603 0.249517
v 0.086087 -0.030603 0.240313
v 0.086087 -0.030686 0.240115
v 0.083966 -0.031481 0.240313
v 0.084026 -0.031540 0.240115
v 0.083966 -0.031481 0.249517
v 0.083088 -0.033601 0.249517
v 0.083088 -0.033601 0.240313
v 0.083172 -0.033601 0.240115
v 0.084026 -0.035663 0.240115
v 0.084168 -0.035520 0.240033
v 0.084356 -0.035332 0.240033
v 0.084499 -0.035189 0.240115
v 0.086087 -0.036049 0.240033
v 0.086087 -0.035847 0.240115
v 0.086087 -0.036315 0.240033
v 0.088005 -0.035520 0.240033
v 0.088148 -0.035663 0.240115
v 0.087817 -0.035332 0.240033
v 0.087675 -0.035189 0.240115
v 0.088534 -0.033601 0.240033
v 0.088332 -0.033601 0.240115
v 0.088800 -0.033601 0.240033
v 0.088005 -0.031683 0.240033
v 0.087817 -0.031871 0.240033
v 0.087675 -0.032014 0.240115
v 0.086087 -0.031154 0.240033
v 0.086087 -0.031356 0.240115
v 0.086087 -0.030888 0.240033
v 0.084168 -0.031683 0.240033
v 0.084356 -0.031871 0.240033
v 0.084499 -0.032014 0.240115
v 0.083640 -0.033601 0.240033
v 0.083842 -0.033601 0.240115
v 0.083374 -0.033601 0.240033
v 0.083925 -0.033601 0.240313
v 0.084558 -0.035130 0.240313
v 0.086087 -0.035763 0.240313
v 0.087615 -0.035130 0.240313
v 0.088249 -0.033601 0.240313
v 0.087615 -0.032073 0.240313
v 0.086087 -0.031440 0.240313
v 0.084558 -0.032073 0.240313
v 0.117694 0.154331 0.238782
v 0.117694 0.156409 0.238782
v 0.115616 0.156409 0.238782
v 0.115616 0.154331 0.238782
v 0.117740 0.154291 0.236010
v 0.117740 0.156449 0.235978
v 0.115570 0.156449 0.235978
v 0.115570 0.154291 0.236010
v 0.117740 0.150514 0.232754
v 0.117740 0.150546 0.230597
v 0.115570 0.150546 0.230597
v 0.115570 0.150514 0.232754
v 0.117734 0.121471 0.232761
v 0.117734 0.121471 0.230590
v 0.115576 0.121503 0.230590
v 0.115576 0.121503 0.232761
v 0.112024 0.115568 0.232761
v 0.112024 0.115568 0.230590
v 0.111992 0.117726 0.230590
v 0.111992 0.117726 0.232761
v 0.077944 0.115568 0.232761
v 0.077944 0.115568 0.230590
v 0.077912 0.117726 0.230590
v 0.077912 0.117726 0.232761
v 0.074359 0.111765 0.232761
v 0.074359 0.111765 0.230590
v 0.072202 0.111797 0.230590
v 0.072202 0.111797 0.232761
v 0.074359 -0.028925 0.232761
v 0.074359 -0.028925 0.230590
v 0.072202 -0.028957 0.230590
v 0.072202 -0.028957 0.232761
v 0.086464 -0.035021 0.238782
v 0.084667 -0.033978 0.238782
v 0.085710 -0.032181 0.238782
v 0.087507 -0.033225 0.238782
v 0.115163 0.155370 0.235994
v 0.116655 0.156853 0.235972
v 0.116655 0.153887 0.236016
v 0.118147 0.155370 0.235994
v 0.116655 0.153940 0.238798
v 0.115225 0.155370 0.238798
v 0.116655 0.156800 0.238798
v 0.118084 0.155370 0.238798
v 0.118147 0.150530 0.231675
v 0.116655 0.150552 0.230192
v 0.115163 0.150530 0.231675
v 0.116655 0.150508 0.233159
v 0.118138 0.121465 0.231675
v 0.116655 0.121487 0.230183
v 0.115172 0.121509 0.231675
v 0.116655 0.121487 0.233168
v 0.112030 0.115164 0.231675
v 0.112008 0.116647 0.230183
v 0.111986 0.118130 0.231675
v 0.112008 0.116647 0.233168
v 0.077950 0.115164 0.231675
v 0.077928 0.116647 0.230183
v 0.077906 0.118130 0.231675
v 0.077928 0.116647 0.233168
v 0.074764 0.111759 0.231675
v 0.073280 0.111781 0.230183
v 0.071797 0.111803 0.231675
v 0.073280 0.111781 0.233168
v 0.074764 -0.028919 0.231675
v 0.073280 -0.028941 0.230183
v 0.071797 -0.028963 0.231675
v 0.073280 -0.028941 0.233168
v 0.085369 -0.034838 0.238798
v 0.084851 -0.032884 0.238798
v 0.086805 -0.032365 0.238798
v 0.087323 -0.034319 0.238798
v 0.115163 0.155187 0.233528
v 0.115163 0.154527 0.232258
v 0.115163 0.153078 0.231777
v 0.115570 0.156225 0.233233
v 0.115570 0.155226 0.231437
v 0.115570 0.153271 0.230715
v 0.116655 0.156614 0.233122
v 0.116655 0.155489 0.231129
v 0.116655 0.153344 0.230317
v 0.117740 0.156225 0.233233
v 0.117740 0.155226 0.231437
v 0.117740 0.153271 0.230715
v 0.118147 0.155187 0.233528
v 0.118147 0.154527 0.232258
v 0.118147 0.153078 0.231777
v 0.117740 0.154149 0.233823
v 0.117740 0.153827 0.233079
v 0.117740 0.152884 0.232838
v 0.116655 0.153760 0.233933
v 0.116655 0.153564 0.233387
v 0.116655 0.152812 0.233236
v 0.115570 0.152884 0.232838
v 0.115570 0.153827 0.233079
v 0.115570 0.154149 0.233823
v 0.117973 0.118567 0.231675
v 0.117041 0.116417 0.231675
v 0.114947 0.115371 0.231675
v 0.117577 0.118652 0.232761
v 0.116747 0.116695 0.232761
v 0.114849 0.115763 0.232761
v 0.116522 0.118878 0.233168
v 0.115962 0.117436 0.233168
v 0.114587 0.116810 0.233168
v 0.115467 0.119103 0.232761
v 0.115178 0.118177 0.232761
v 0.114325 0.117856 0.232761
v 0.115071 0.119188 0.231675
v 0.114884 0.118455 0.231675
v 0.114227 0.118249 0.231675
v 0.115467 0.119103 0.230590
v 0.115178 0.118177 0.230590
v 0.114325 0.117856 0.230590
v 0.116522 0.118878 0.230183
v 0.115962 0.117436 0.230183
v 0.114587 0.116810 0.230183
v 0.114849 0.115763 0.230590
v 0.116747 0.116695 0.230590
v 0.117577 0.118652 0.230590
v 0.075706 0.115043 0.231675
v 0.075051 0.114835 0.231675
v 0.074863 0.114093 0.231675
v 0.075607 0.115435 0.232761
v 0.074755 0.115111 0.232761
v 0.074467 0.114176 0.232761
v 0.075343 0.116481 0.233168
v 0.073968 0.115849 0.233168
v 0.073412 0.114399 0.233168
v 0.075079 0.117527 0.232761
v 0.073182 0.116587 0.232761
v 0.072356 0.114623 0.232761
v 0.074980 0.117920 0.231675
v 0.072886 0.116864 0.231675
v 0.071960 0.114706 0.231675
v 0.075079 0.117527 0.230590
v 0.073182 0.116587 0.230590
v 0.072356 0.114623 0.230590
v 0.075343 0.116481 0.230183
v 0.073968 0.115849 0.230183
v 0.073412 0.114399 0.230183
v 0.074467 0.114176 0.230590
v 0.074755 0.115111 0.230590
v 0.075607 0.115435 0.230590
v 0.078163 -0.032517 0.232761
v 0.078163 -0.032517 0.230590
v 0.078131 -0.034675 0.230590
v 0.078131 -0.034675 0.232761
v 0.078169 -0.032113 0.231675
v 0.078147 -0.033596 0.230183
v 0.078125 -0.035079 0.231675
v 0.078147 -0.033596 0.233168
v 0.074884 -0.031170 0.231675
v 0.075093 -0.031826 0.231675
v 0.075835 -0.032014 0.231675
v 0.074492 -0.031269 0.232761
v 0.074816 -0.032121 0.232761
v 0.075751 -0.032409 0.232761
v 0.073446 -0.031533 0.233168
v 0.074078 -0.032908 0.233168
v 0.075528 -0.033465 0.233168
v 0.072400 -0.031798 0.232761
v 0.073340 -0.033695 0.232761
v 0.075305 -0.034520 0.232761
v 0.072008 -0.031897 0.231675
v 0.073063 -0.033990 0.231675
v 0.075221 -0.034916 0.231675
v 0.072400 -0.031798 0.230590
v 0.073340 -0.033695 0.230590
v 0.075305 -0.034520 0.230590
v 0.073446 -0.031533 0.230183
v 0.074078 -0.032908 0.230183
v 0.075528 -0.033465 0.230183
v 0.075751 -0.032409 0.230590
v 0.074816 -0.032121 0.230590
v 0.074492 -0.031269 0.230590
v 0.082844 -0.034798 0.232437
v 0.084061 -0.034837 0.232459
v 0.084687 -0.034865 0.232769
v 0.085122 -0.034882 0.233789
v 0.086225 -0.035114 0.233534
v 0.085550 -0.035136 0.232052
v 0.084413 -0.035144 0.231404
v 0.082855 -0.035137 0.231333
v 0.087126 -0.034440 0.233313
v 0.086284 -0.034520 0.231431
v 0.084727 -0.034583 0.230460
v 0.082871 -0.034628 0.230309
v 0.087343 -0.033312 0.233246
v 0.086482 -0.033403 0.231250
v 0.084822 -0.033476 0.230170
v 0.082884 -0.033530 0.229971
v 0.086679 -0.032386 0.233389
v 0.085999 -0.032443 0.231641
v 0.084643 -0.032485 0.230706
v 0.082885 -0.032510 0.230484
v 0.085575 -0.032154 0.233644
v 0.085136 -0.032172 0.232359
v 0.084292 -0.032178 0.231762
v 0.082874 -0.032171 0.231588
v 0.084675 -0.032828 0.233865
v 0.084403 -0.032788 0.232980
v 0.083978 -0.032739 0.232705
v 0.082858 -0.032681 0.232611
v 0.084457 -0.033955 0.233932
v 0.084204 -0.033905 0.233161
v 0.083882 -0.033845 0.232995
v 0.082845 -0.033778 0.232950
vn -0.5263 -0.5263 -0.6678
vn -0.0000 -0.7444 -0.6678
vn -0.0000 -0.9818 -0.1897
vn -0.6943 -0.6943 -0.1897
vn 0.5263 -0.5263 -0.6678
vn 0.6943 -0.6943 -0.1897
vn 0.7071 -0.7071 -0.0000
vn -0.0000 -1.0000 -0.0000
vn 0.5263 0.5263 -0.6678
vn 0.6943 0.6943 -0.1897
vn 0.9818 -0.0000 -0.1897
vn 0.7444 -0.0000 -0.6678
vn -0.5263 0.5263 -0.6678
vn -0.6943 0.6943 -0.1897
vn -0.0000 0.9818 -0.1897
vn -0.0000 0.7444 -0.6678
vn 0.7071 0.7071 -0.0000
vn 1.0000 -0.0000 -0.0000
vn 0.1448 -0.0000 -0.9895
vn 0.1024 0.1024 -0.9895
vn -0.1676 -0.1676 -0.9715
vn -0.2370 -0.0000 -0.9715
vn 0.1676 -0.1676 -0.9715
vn 0.2370 -0.0000 -0.9715
vn -1.0000 -0.0000 -0.0000
vn -0.7071 0.7071 -0.0000
vn -0.9818 -0.0000 -0.1897
vn -0.0000 1.0000 -0.0000
vn 0.1676 0.1676 -0.9715
vn -0.0000 0.2370 -0.9715
vn -0.7444 -0.0000 -0.6678
vn -0.7071 -0.7071 -0.0000
vn -0.0000 0.6474 -0.7621
vn -0.0000 0.1448 -0.9895
vn 0.4578 0.4578 -0.7621
vn -0.0000 -0.2370 -0.9715
vn 0.6514 0.6514 -0.3891
vn -0.0000 0.9212 -0.3891
vn -0.1676 0.1676 -0.9715
vn -0.6474 -0.0000 -0.7621
vn -0.1448 -0.0000 -0.9895
vn -0.1024 0.1024 -0.9895
vn -0.4578 0.4578 -0.7621
vn -0.0000 -0.6474 -0.7621
vn -0.0000 -0.1448 -0.9895
vn -0.1024 -0.1024 -0.9895
vn -0.4578 -0.4578 -0.7621
vn 0.6474 -0.0000 -0.7621
vn 0.1024 -0.1024 -0.9895
vn 0.4578 -0.4578 -0.7621
vn 0.9212 -0.0000 -0.3891
vn -0.6514 0.6514 -0.3891
vn -0.9212 -0.0000 -0.3890
vn -0.6514 -0.6514 -0.3891
vn -0.0000 -0.9212 -0.3891
vn 0.6514 -0.6514 -0.3891
vn -0.6514 0.6514 -0.3890
vn -0.6514 -0.6514 -0.3890
vn -0.0000 -0.9212 -0.3890
vn -0.0000 -0.9991 0.0415
vn -0.0000 -0.9758 -0.2185
vn -0.6894 -0.6903 -0.2195
vn -0.7091 -0.7043 0.0337
vn -0.9761 0.0001 -0.2175
vn -0.9999 0.0083 0.0098
vn -0.6893 0.6904 -0.2196
vn -0.7000 0.7139 -0.0184
vn -0.0000 0.9758 -0.2187
vn -0.0000 0.9995 -0.0313
vn 0.6894 -0.6903 -0.2195
vn 0.7091 -0.7043 0.0337
vn 0.6893 0.6904 -0.2196
vn 0.7000 0.7139 -0.0184
vn 0.9761 0.0001 -0.2175
vn 0.9999 0.0083 0.0098
vn 0.7031 0.0155 -0.7109
vn 1.0000 0.0004 -0.0044
vn 0.9996 -0.0282 -0.0000
vn 0.7118 -0.0198 -0.7021
vn -0.7031 0.0155 -0.7109
vn -0.0000 0.0222 -0.9998
vn 0.0057 -0.0006 -1.0000
vn -0.7053 0.0161 -0.7087
vn 0.7082 -0.0125 0.7059
vn 0.7118 -0.0198 0.7021
vn -0.7082 -0.0125 0.7059
vn -1.0000 0.0004 -0.0044
vn -0.9998 0.0221 -0.0000
vn -0.7053 0.0161 0.7087
vn -0.0000 -0.0172 0.9999
vn 0.0057 -0.0006 1.0000
vn 0.0246 -0.7134 -0.7003
vn 0.0348 -0.9994 -0.0000
vn 0.0277 -0.9996 -0.0000
vn 0.0200 -0.7055 -0.7084
vn -0.0198 0.7055 -0.7084
vn 0.0010 -0.0070 -1.0000
vn -0.0010 0.0071 -1.0000
vn -0.0250 0.7135 -0.7003
vn 0.0246 -0.7134 0.7003
vn 0.0200 -0.7055 0.7084
vn -0.0198 0.7055 0.7084
vn -0.0274 0.9996 -0.0000
vn -0.0353 0.9994 -0.0000
vn -0.0250 0.7135 0.7003
vn 0.0010 -0.0070 1.0000
vn -0.0010 0.0071 1.0000
vn 0.7061 -0.0158 -0.7079
vn 0.9998 -0.0219 -0.0000
vn 0.9996 0.0276 -0.0000
vn 0.7055 0.0200 -0.7084
vn -0.7124 0.0195 -0.7015
vn -0.0056 0.0007 -1.0000
vn -0.0071 -0.0010 -1.0000
vn -0.7134 -0.0249 -0.7003
vn 0.7061 -0.0158 0.7079
vn 0.7055 0.0200 0.7084
vn -0.7124 0.0195 0.7015
vn -0.9996 0.0276 -0.0000
vn -0.9994 -0.0352 -0.0000
vn -0.7134 -0.0249 0.7003
vn -0.0056 0.0007 1.0000
vn -0.0071 -0.0010 1.0000
vn -0.4989 -0.8595 0.1108
vn 0.2551 -0.9660 -0.0410
vn 0.2085 -0.9513 -0.2270
vn -0.5325 -0.8189 -0.2141
vn 0.9540 0.2083 -0.2157
vn 0.5499 0.8250 -0.1304
vn 0.5354 0.8105 -0.2375
vn 0.9484 0.2017 -0.2446
vn -0.8230 0.5478 0.1500
vn -0.9567 -0.2284 0.1802
vn -0.9563 -0.2047 -0.2086
vn -0.8177 0.5351 -0.2124
vn 0.8362 -0.5187 -0.1778
vn 0.8153 -0.5273 -0.2394
vn -0.1751 0.9842 0.0251
vn -0.1987 0.9540 -0.2243
vn -0.0000 -0.9068 -0.4215
vn -0.6397 -0.6397 -0.4260
vn 0.6397 -0.6397 -0.4260
vn 0.9068 -0.0000 -0.4215
vn 0.6397 0.6397 -0.4260
vn -0.0000 0.9068 -0.4215
vn -0.6397 0.6397 -0.4260
vn -0.9068 -0.0000 -0.4215
vn -0.0000 -0.1294 0.9916
vn -0.7149 -0.0987 0.6922
vn 0.7149 -0.0987 0.6922
vn 0.9995 0.0103 -0.0295
vn 0.6835 0.1445 -0.7155
vn -0.0000 0.1991 -0.9800
vn -0.6835 0.1445 -0.7155
vn -0.9995 0.0103 -0.0295
vn -0.9963 0.0560 -0.0649
vn -0.6677 0.4846 -0.5651
vn -0.9990 0.0419 -0.0169
vn -0.6775 0.7036 -0.2141
vn -0.0000 0.6509 -0.7592
vn -0.0000 0.9565 -0.2917
vn 0.6677 0.4846 -0.5651
vn 0.6775 0.7036 -0.2141
vn 0.9963 0.0561 -0.0649
vn 0.9990 0.0419 -0.0169
vn 0.7810 -0.4057 0.4748
vn 0.7248 -0.6699 0.1608
vn -0.0000 -0.6507 0.7593
vn -0.0000 -0.9758 0.2186
vn -0.7810 -0.4057 0.4748
vn -0.7248 -0.6699 0.1608
vn 0.0143 -0.0379 -0.9992
vn 0.1912 -0.7084 -0.6794
vn -0.1421 0.6776 -0.7216
vn -0.1921 0.9814 -0.0000
vn -0.1421 0.6776 0.7216
vn 0.0143 -0.0379 0.9992
vn 0.1912 -0.7084 0.6794
vn 0.2614 -0.9652 -0.0000
vn 0.7263 -0.6874 -0.0000
vn 0.5406 -0.5118 0.6677
vn 0.9736 -0.2282 -0.0000
vn 0.7126 -0.1663 0.6816
vn 0.0624 -0.0592 0.9963
vn 0.0335 -0.0120 0.9994
vn -0.4540 0.4292 0.7808
vn -0.6856 0.1198 0.7181
vn -0.7264 0.6873 -0.0000
vn -0.9871 0.1600 -0.0000
vn -0.4540 0.4292 -0.7808
vn -0.6856 0.1198 -0.7181
vn 0.0624 -0.0592 -0.9963
vn 0.0335 -0.0120 -0.9994
vn 0.5406 -0.5118 -0.6677
vn 0.7126 -0.1663 -0.6816
vn -0.0332 0.0118 -0.9994
vn 0.6860 -0.1184 -0.7179
vn -0.7129 0.1646 -0.6817
vn -0.9741 0.2260 -0.0000
vn -0.7129 0.1646 0.6817
vn -0.0332 0.0118 0.9994
vn 0.6860 -0.1184 0.7179
vn 0.9874 -0.1581 -0.0000
vn 0.7289 -0.6846 -0.0000
vn 0.4557 -0.4276 0.7807
vn 0.1945 -0.9809 -0.0000
vn 0.1437 -0.6769 0.7219
vn -0.0626 0.0590 0.9963
vn -0.0145 0.0382 0.9992
vn -0.5425 0.5098 0.6677
vn -0.1929 0.7081 0.6793
vn -0.7287 0.6848 -0.0000
vn -0.2635 0.9646 -0.0000
vn -0.5425 0.5098 -0.6677
vn -0.1929 0.7081 -0.6793
vn -0.0626 0.0590 -0.9963
vn -0.0145 0.0382 -0.9992
vn 0.4557 -0.4276 -0.7807
vn 0.1437 -0.6769 -0.7219
vn 0.0379 -0.9026 -0.4287
vn -0.6099 -0.6700 -0.4231
vn 0.6700 -0.6099 -0.4232
vn 0.9026 0.0379 -0.4287
vn 0.6099 0.6700 -0.4232
vn -0.0379 0.9026 -0.4288
vn -0.6700 0.6099 -0.4232
vn -0.9026 -0.0379 -0.4287
vn 0.0061 0.7220 -0.6919
vn -0.0220 0.0139 -0.9997
vn -0.0118 -0.0332 -0.9994
vn 0.1184 0.6860 -0.7179
vn -0.0392 -0.7015 -0.7116
vn -0.1646 -0.7129 -0.6817
vn -0.0334 -0.9994 -0.0121
vn -0.2260 -0.9741 -0.0000
vn -0.0071 -0.7209 0.6930
vn -0.1646 -0.7129 0.6817
vn 0.0229 -0.0221 0.9995
vn -0.0118 -0.0332 0.9994
vn 0.0378 0.6911 0.7218
vn 0.1184 0.6860 0.7179
vn 0.0301 0.9993 0.0224
vn 0.1581 0.9874 -0.0000
vn 0.6846 0.7289 -0.0000
vn 0.4276 0.4557 0.7807
vn 0.9809 0.1944 -0.0000
vn 0.6769 0.1436 0.7219
vn -0.0590 -0.0626 0.9963
vn -0.0382 -0.0145 0.9992
vn -0.5098 -0.5425 0.6677
vn -0.7081 -0.1928 0.6793
vn -0.6848 -0.7287 -0.0000
vn -0.9647 -0.2635 -0.0000
vn -0.5098 -0.5425 -0.6677
vn -0.7081 -0.1928 -0.6793
vn -0.0590 -0.0626 -0.9963
vn -0.0382 -0.0145 -0.9992
vn 0.4276 0.4557 -0.7807
vn 0.6769 0.1436 -0.7219
vn 0.0171 -0.6465 -0.7627
vn -0.0021 -0.9964 -0.0851
vn 0.0286 0.0690 -0.9972
vn 0.0238 0.7462 -0.6653
vn 0.0096 0.9984 0.0557
vn 0.0024 0.6614 0.7500
vn -0.0013 -0.0698 0.9976
vn -0.0083 -0.7609 0.6488
vn 0.0627 -0.9842 -0.1654
vn -0.1669 -0.8154 0.5544
vn 0.1886 -0.9713 -0.1450
vn -0.3857 -0.8605 0.3328
vn 0.2684 -0.5904 -0.7612
vn 0.6417 -0.5517 -0.5328
vn 0.3275 0.1163 -0.9377
vn 0.7525 0.1584 -0.6393
vn 0.2114 0.7618 -0.6124
vn 0.4652 0.7858 -0.4076
vn -0.0183 0.9981 0.0592
vn -0.0755 0.9962 0.0431
vn -0.2165 0.6488 0.7295
vn -0.6048 0.6253 0.4931
vn -0.2711 -0.1190 0.9552
vn -0.7513 -0.2026 0.6281
vt 0.636322 0.771411
vt 0.587470 0.804750
vt 0.582466 0.801554
vt 0.635177 0.765465
vt 0.576221 0.861411
vt 0.570569 0.862499
vt 0.433500 0.501817
vt 0.495149 0.501817
vt 0.495149 0.744281
vt 0.433500 0.744281
vt 0.667721 0.922223
vt 0.668877 0.928042
vt 0.605422 0.915050
vt 0.608737 0.910132
vt 0.727696 0.832155
vt 0.733433 0.831018
vt 0.721608 0.892773
vt 0.716620 0.889535
vt 0.310201 0.501817
vt 0.371850 0.501817
vt 0.371850 0.744281
vt 0.310201 0.744281
vt 0.687564 0.793554
vt 0.638896 0.784065
vt 0.637511 0.777194
vt 0.691445 0.787669
vt 0.581871 0.860294
vt 0.612010 0.905265
vt 0.125252 0.501817
vt 0.186902 0.501817
vt 0.186902 0.744281
vt 0.125252 0.744281
vt 0.248551 0.501817
vt 0.248551 0.744281
vt 0.666609 0.916401
vt 0.711799 0.886320
vt 0.694675 0.782803
vt 0.697976 0.777719
vt 0.063603 0.501817
vt 0.063603 0.744281
vt 0.602608 0.814790
vt 0.598019 0.811727
vt 0.639988 0.789629
vt 0.592254 0.807905
vt 0.641149 0.795086
vt 0.607213 0.817814
vt 0.722022 0.833305
vt 0.619061 0.894562
vt 0.615915 0.899401
vt 0.588618 0.858968
vt 0.594043 0.857906
vt 0.701466 0.879486
vt 0.706041 0.882519
vt 0.665296 0.909466
vt 0.664231 0.903895
vt 0.684425 0.798269
vt 0.715204 0.834694
vt 0.709684 0.835861
vt 0.681227 0.803114
vt 0.599435 0.856891
vt 0.622123 0.889732
vt 0.663198 0.898415
vt 0.696941 0.876438
vt 0.704000 0.837048
vt 0.001953 0.501817
vt 0.001953 0.744281
vt 0.000000 0.000000
s 1
usemtl Material.001
f 23/1/1 5/2/2 4/3/3 3/4/4
f 31/5/5 6/6/6 4/3/3 5/2/2
f 7/7/7 2/8/8 4/9/3 6/10/6
f 12/11/9 11/12/10 9/13/11 10/14/12
f 18/15/13 17/16/14 15/17/15 16/18/16
f 13/19/17 8/20/18 9/21/11 11/22/10
f 46/23/19 25/24/20 24/25/21 48/26/22
f 30/27/23 36/28/24 10/14/12 31/5/5
f 8/20/18 7/7/7 6/10/6 9/21/11
f 20/29/25 19/30/26 17/31/14 21/32/27
f 19/30/26 14/33/28 15/34/15 17/31/14
f 37/35/29 42/36/30 16/18/16 12/11/9
f 22/37/31 23/1/1 3/4/4 21/38/27
f 48/26/22 24/25/21 23/1/1 22/37/31
f 1/39/32 20/29/25 21/32/27 3/40/4
f 28/41/33 27/42/34 25/24/20 26/43/35
f 14/33/28 13/19/17 11/22/10 15/34/15
f 24/25/21 29/44/36 5/2/2 23/1/1
f 29/44/36 30/27/23 31/5/5 5/2/2
f 25/24/20 27/42/34 29/44/36 24/25/21
f 50/45/37 51/46/38 28/41/33 26/43/35
f 43/47/39 48/26/22 22/37/31 18/15/13
f 35/48/40 34/49/41 32/50/42 33/51/43
f 27/42/34 32/50/42 30/27/23 29/44/36
f 31/5/5 10/14/12 9/13/11 6/6/6
f 36/28/24 37/35/29 12/11/9 10/14/12
f 32/50/42 34/49/41 36/28/24 30/27/23
f 28/41/33 33/51/43 32/50/42 27/42/34
f 41/52/44 40/53/45 38/54/46 39/55/47
f 34/49/41 38/54/46 37/35/29 36/28/24
f 12/11/9 16/18/16 15/17/15 11/12/10
f 42/36/30 43/47/39 18/15/13 16/18/16
f 38/54/46 40/53/45 42/36/30 37/35/29
f 35/48/40 39/55/47 38/54/46 34/49/41
f 47/56/48 46/23/19 44/57/49 45/58/50
f 40/53/45 44/57/49 43/47/39 42/36/30
f 18/15/13 22/37/31 21/38/27 17/16/14
f 49/59/51 50/45/37 26/43/35 47/56/48
f 44/57/49 46/23/19 48/26/22 43/47/39
f 41/52/44 45/58/50 44/57/49 40/53/45
f 47/56/48 26/43/35 25/24/20 46/23/19
f 51/46/38 52/60/52 33/51/43 28/41/33
f 52/60/52 53/61/53 35/48/40 33/51/43
f 53/61/53 54/62/54 39/55/47 35/48/40
f 54/62/54 55/63/55 41/52/44 39/55/47
f 55/63/55 56/64/56 45/58/50 41/52/44
f 56/64/56 49/59/51 47/56/48 45/58/50
f 2/65/8 1/39/32 3/40/4 4/66/3
f 79/1/1 61/2/2 60/3/3 59/4/4
f 87/5/5 62/6/6 60/3/3 61/2/2
f 63/7/7 58/8/8 60/9/3 62/10/6
f 68/11/9 67/12/10 65/13/11 66/14/12
f 74/15/13 73/16/14 71/17/15 72/18/16
f 69/19/17 64/20/18 65/21/11 67/22/10
f 102/23/19 81/24/20 80/25/21 104/26/22
f 86/27/23 92/28/24 66/14/12 87/5/5
f 64/20/18 63/7/7 62/10/6 65/21/11
f 76/29/25 75/30/26 73/31/14 77/32/27
f 75/30/26 70/33/28 71/34/15 73/31/14
f 93/35/29 98/36/30 72/18/16 68/11/9
f 78/37/31 79/1/1 59/4/4 77/38/27
f 104/26/22 80/25/21 79/1/1 78/37/31
f 57/39/32 76/29/25 77/32/27 59/40/4
f 84/41/33 83/42/34 81/24/20 82/43/35
f 70/33/28 69/19/17 67/22/10 71/34/15
f 80/25/21 85/44/36 61/2/2 79/1/1
f 85/44/36 86/27/23 87/5/5 61/2/2
f 81/24/20 83/42/34 85/44/36 80/25/21
f 106/45/37 107/46/38 84/41/33 82/43/35
f 99/47/39 104/26/22 78/37/31 74/15/13
f 91/48/40 90/49/41 88/50/42 89/51/43
f 83/42/34 88/50/42 86/27/23 85/44/36
f 87/5/5 66/14/12 65/13/11 62/6/6
f 92/28/24 93/35/29 68/11/9 66/14/12
f 88/50/42 90/49/41 92/28/24 86/27/23
f 84/41/33 89/51/43 88/50/42 83/42/34
f 97/52/44 96/53/45 94/54/46 95/55/47
f 90/49/41 94/54/46 93/35/29 92/28/24
f 68/11/9 72/18/16 71/17/15 67/12/10
f 98/36/30 99/47/39 74/15/13 72/18/16
f 94/54/46 96/53/45 98/36/30 93/35/29
f 91/48/40 95/55/47 94/54/46 90/49/41
f 103/56/48 102/23/19 100/57/49 101/58/50
f 96/53/45 100/57/49 99/47/39 98/36/30
f 74/15/13 78/37/31 77/38/27 73/16/14
f 105/59/51 106/45/37 82/43/35 103/56/48
f 100/57/49 102/23/19 104/26/22 99/47/39
f 97/52/44 101/58/50 100/57/49 96/53/45
f 103/56/48 82/43/35 81/24/20 102/23/19
f 107/46/38 108/60/57 89/51/43 84/41/33
f 108/60/57 109/61/53 91/48/40 89/51/43
f 109/61/53 110/62/58 95/55/47 91/48/40
f 110/62/58 111/63/59 97/52/44 95/55/47
f 111/63/59 112/64/56 101/58/50 97/52/44
f 112/64/56 105/59/51 103/56/48 101/58/50
f 58/65/8 57/39/32 59/40/4 60/66/3
f 151/67/60 153/67/61 116/67/62 120/67/63
f 116/67/62 154/67/64 149/67/65 120/67/63
f 149/67/65 154/67/64 115/67/66 119/67/67
f 115/67/66 155/67/68 150/67/69 119/67/67
f 113/67/70 153/67/61 151/67/60 117/67/71
f 150/67/69 155/67/68 114/67/72 118/67/73
f 114/67/72 156/67/74 152/67/75 118/67/73
f 122/67/76 157/67/77 161/67/78 126/67/79
f 123/67/80 158/67/81 162/67/82 127/67/83
f 157/67/77 121/67/84 125/67/85 161/67/78
f 124/67/86 159/67/87 163/67/88 128/67/89
f 158/67/81 122/67/76 126/67/79 162/67/82
f 121/67/84 160/67/90 164/67/91 125/67/85
f 159/67/87 123/67/80 127/67/83 163/67/88
f 160/67/90 124/67/86 128/67/89 164/67/91
f 130/67/92 165/67/93 169/67/94 134/67/95
f 131/67/96 166/67/97 170/67/98 135/67/99
f 165/67/93 129/67/100 133/67/101 169/67/94
f 132/67/102 167/67/103 171/67/104 136/67/105
f 166/67/97 130/67/92 134/67/95 170/67/98
f 129/67/100 168/67/106 172/67/107 133/67/101
f 167/67/103 131/67/96 135/67/99 171/67/104
f 168/67/106 132/67/102 136/67/105 172/67/107
f 138/67/108 173/67/109 177/67/110 142/67/111
f 139/67/112 174/67/113 178/67/114 143/67/115
f 173/67/109 137/67/116 141/67/117 177/67/110
f 140/67/118 175/67/119 179/67/120 144/67/121
f 174/67/113 138/67/108 142/67/111 178/67/114
f 137/67/116 176/67/122 180/67/123 141/67/117
f 175/67/119 139/67/112 143/67/115 179/67/120
f 176/67/122 140/67/118 144/67/121 180/67/123
f 292/67/124 293/67/125 145/67/126 181/67/127
f 301/67/128 305/67/129 183/67/130 148/67/131
f 313/67/132 317/67/133 146/67/134 182/67/135
f 293/67/125 297/67/136 184/67/137 145/67/126
f 305/67/129 309/67/138 147/67/139 183/67/130
f 297/67/136 301/67/128 148/67/131 184/67/137
f 309/67/138 313/67/132 182/67/135 147/67/139
f 152/67/75 156/67/74 113/67/70 117/67/71
f 116/67/62 153/67/61 51/46/140 50/45/141
f 153/67/61 113/67/70 52/60/142 51/46/140
f 113/67/70 156/67/74 53/61/143 52/60/142
f 156/67/74 114/67/72 54/62/144 53/61/143
f 114/67/72 155/67/68 55/63/145 54/62/144
f 155/67/68 115/67/66 56/64/146 55/63/145
f 115/67/66 154/67/64 49/59/147 56/64/146
f 154/67/64 116/67/62 50/45/141 49/59/147
f 124/67/86 160/67/90 205/67/148 206/67/149
f 160/67/90 121/67/84 202/67/150 205/67/148
f 121/67/84 157/67/77 199/67/151 202/67/150
f 157/67/77 122/67/76 196/67/152 199/67/151
f 122/67/76 158/67/81 193/67/153 196/67/152
f 158/67/81 123/67/80 190/67/154 193/67/153
f 123/67/80 159/67/87 187/67/155 190/67/154
f 159/67/87 124/67/86 206/67/149 187/67/155
f 190/67/154 187/67/155 186/67/156 189/67/157
f 189/67/157 186/67/156 185/67/158 188/67/159
f 188/67/159 185/67/158 149/67/65 119/67/67
f 193/67/153 190/67/154 189/67/157 192/67/160
f 192/67/160 189/67/157 188/67/159 191/67/161
f 191/67/161 188/67/159 119/67/67 150/67/69
f 196/67/152 193/67/153 192/67/160 195/67/162
f 195/67/162 192/67/160 191/67/161 194/67/163
f 194/67/163 191/67/161 150/67/69 118/67/73
f 199/67/151 196/67/152 195/67/162 198/67/164
f 198/67/164 195/67/162 194/67/163 197/67/165
f 197/67/165 194/67/163 118/67/73 152/67/75
f 202/67/150 199/67/151 198/67/164 201/67/166
f 201/67/166 198/67/164 197/67/165 200/67/167
f 200/67/167 197/67/165 152/67/75 117/67/71
f 205/67/148 202/67/150 201/67/166 204/67/168
f 204/67/168 201/67/166 200/67/167 203/67/169
f 203/67/169 200/67/167 117/67/71 151/67/60
f 206/67/149 205/67/148 204/67/168 207/67/170
f 207/67/170 204/67/168 203/67/169 208/67/171
f 208/67/171 203/67/169 151/67/60 120/67/63
f 187/67/155 206/67/149 207/67/170 186/67/156
f 186/67/156 207/67/170 208/67/171 185/67/158
f 185/67/158 208/67/171 120/67/63 149/67/65
f 130/67/92 166/67/97 229/67/172 230/67/173
f 166/67/97 131/67/96 226/67/174 229/67/172
f 131/67/96 167/67/103 223/67/175 226/67/174
f 167/67/103 132/67/102 220/67/176 223/67/175
f 132/67/102 168/67/106 217/67/177 220/67/176
f 168/67/106 129/67/100 214/67/178 217/67/177
f 129/67/100 165/67/93 211/67/179 214/67/178
f 165/67/93 130/67/92 230/67/173 211/67/179
f 214/67/178 211/67/179 210/67/180 213/67/181
f 213/67/181 210/67/180 209/67/182 212/67/183
f 212/67/183 209/67/182 161/67/78 125/67/85
f 217/67/177 214/67/178 213/67/181 216/67/184
f 216/67/184 213/67/181 212/67/183 215/67/185
f 215/67/185 212/67/183 125/67/85 164/67/91
f 220/67/176 217/67/177 216/67/184 219/67/186
f 219/67/186 216/67/184 215/67/185 218/67/187
f 218/67/187 215/67/185 164/67/91 128/67/89
f 223/67/175 220/67/176 219/67/186 222/67/188
f 222/67/188 219/67/186 218/67/187 221/67/189
f 221/67/189 218/67/187 128/67/89 163/67/88
f 226/67/174 223/67/175 222/67/188 225/67/190
f 225/67/190 222/67/188 221/67/189 224/67/191
f 224/67/191 221/67/189 163/67/88 127/67/83
f 229/67/172 226/67/174 225/67/190 228/67/192
f 228/67/192 225/67/190 224/67/191 227/67/193
f 227/67/193 224/67/191 127/67/83 162/67/82
f 230/67/173 229/67/172 228/67/192 231/67/194
f 231/67/194 228/67/192 227/67/193 232/67/195
f 232/67/195 227/67/193 162/67/82 126/67/79
f 211/67/179 230/67/173 231/67/194 210/67/180
f 210/67/180 231/67/194 232/67/195 209/67/182
f 209/67/182 232/67/195 126/67/79 161/67/78
f 138/67/108 174/67/113 253/67/196 254/67/197
f 174/67/113 139/67/112 250/67/198 253/67/196
f 139/67/112 175/67/119 247/67/199 250/67/198
f 175/67/119 140/67/118 244/67/200 247/67/199
f 140/67/118 176/67/122 241/67/201 244/67/200
f 176/67/122 137/67/116 238/67/202 241/67/201
f 137/67/116 173/67/109 235/67/203 238/67/202
f 173/67/109 138/67/108 254/67/197 235/67/203
f 238/67/202 235/67/203 234/67/204 237/67/205
f 237/67/205 234/67/204 233/67/206 236/67/207
f 236/67/207 233/67/206 169/67/94 133/67/101
f 241/67/201 238/67/202 237/67/205 240/67/208
f 240/67/208 237/67/205 236/67/207 239/67/209
f 239/67/209 236/67/207 133/67/101 172/67/107
f 244/67/200 241/67/201 240/67/208 243/67/210
f 243/67/210 240/67/208 239/67/209 242/67/211
f 242/67/211 239/67/209 172/67/107 136/67/105
f 247/67/199 244/67/200 243/67/210 246/67/212
f 246/67/212 243/67/210 242/67/211 245/67/213
f 245/67/213 242/67/211 136/67/105 171/67/104
f 250/67/198 247/67/199 246/67/212 249/67/214
f 249/67/214 246/67/212 245/67/213 248/67/215
f 248/67/215 245/67/213 171/67/104 135/67/99
f 253/67/196 250/67/198 249/67/214 252/67/216
f 252/67/216 249/67/214 248/67/215 251/67/217
f 251/67/217 248/67/215 135/67/99 170/67/98
f 254/67/197 253/67/196 252/67/216 255/67/218
f 255/67/218 252/67/216 251/67/217 256/67/219
f 256/67/219 251/67/217 170/67/98 134/67/95
f 235/67/203 254/67/197 255/67/218 234/67/204
f 234/67/204 255/67/218 256/67/219 233/67/206
f 233/67/206 256/67/219 134/67/95 169/67/94
f 181/67/127 145/67/126 107/46/220 106/45/221
f 145/67/126 184/67/137 108/60/222 107/46/220
f 184/67/137 148/67/131 109/61/223 108/60/222
f 148/67/131 183/67/130 110/62/224 109/61/223
f 183/67/130 147/67/139 111/63/225 110/62/224
f 147/67/139 182/67/135 112/64/226 111/63/225
f 182/67/135 146/67/134 105/59/227 112/64/226
f 146/67/134 181/67/127 106/45/221 105/59/227
f 258/67/228 262/67/229 285/67/230 286/67/231
f 262/67/229 259/67/232 282/67/233 285/67/230
f 259/67/232 263/67/234 279/67/235 282/67/233
f 263/67/234 260/67/236 276/67/237 279/67/235
f 260/67/236 264/67/238 273/67/239 276/67/237
f 264/67/238 257/67/240 270/67/241 273/67/239
f 257/67/240 261/67/242 267/67/243 270/67/241
f 261/67/242 258/67/228 286/67/231 267/67/243
f 270/67/241 267/67/243 266/67/244 269/67/245
f 269/67/245 266/67/244 265/67/246 268/67/247
f 268/67/247 265/67/246 177/67/110 141/67/117
f 273/67/239 270/67/241 269/67/245 272/67/248
f 272/67/248 269/67/245 268/67/247 271/67/249
f 271/67/249 268/67/247 141/67/117 180/67/123
f 276/67/237 273/67/239 272/67/248 275/67/250
f 275/67/250 272/67/248 271/67/249 274/67/251
f 274/67/251 271/67/249 180/67/123 144/67/121
f 279/67/235 276/67/237 275/67/250 278/67/252
f 278/67/252 275/67/250 274/67/251 277/67/253
f 277/67/253 274/67/251 144/67/121 179/67/120
f 282/67/233 279/67/235 278/67/252 281/67/254
f 281/67/254 278/67/252 277/67/253 280/67/255
f 280/67/255 277/67/253 179/67/120 143/67/115
f 285/67/230 282/67/233 281/67/254 284/67/256
f 284/67/256 281/67/254 280/67/255 283/67/257
f 283/67/257 280/67/255 143/67/115 178/67/114
f 286/67/231 285/67/230 284/67/256 287/67/258
f 287/67/258 284/67/256 283/67/257 288/67/259
f 288/67/259 283/67/257 178/67/114 142/67/111
f 267/67/243 286/67/231 287/67/258 266/67/244
f 266/67/244 287/67/258 288/67/259 265/67/246
f 265/67/246 288/67/259 142/67/111 177/67/110
f 259/67/232 300/67/260 296/67/261 263/67/234
f 262/67/229 304/67/262 300/67/260 259/67/232
f 258/67/228 308/67/263 304/67/262 262/67/229
f 261/67/242 312/67/264 308/67/263 258/67/228
f 257/67/240 316/67/265 312/67/264 261/67/242
f 264/67/238 320/67/266 316/67/265 257/67/240
f 260/67/236 289/67/267 320/67/266 264/67/238
f 289/67/267 296/67/261 295/67/268 290/67/269
f 290/67/269 295/67/268 294/67/270 291/67/271
f 291/67/271 294/67/270 293/67/125 292/67/124
f 296/67/261 300/67/260 299/67/272 295/67/268
f 295/67/268 299/67/272 298/67/273 294/67/270
f 294/67/270 298/67/273 297/67/136 293/67/125
f 300/67/260 304/67/262 303/67/274 299/67/272
f 299/67/272 303/67/274 302/67/275 298/67/273
f 298/67/273 302/67/275 301/67/128 297/67/136
f 304/67/262 308/67/263 307/67/276 303/67/274
f 303/67/274 307/67/276 306/67/277 302/67/275
f 302/67/275 306/67/277 305/67/129 301/67/128
f 308/67/263 312/67/264 311/67/278 307/67/276
f 307/67/276 311/67/278 310/67/279 306/67/277
f 306/67/277 310/67/279 309/67/138 305/67/129
f 312/67/264 316/67/265 315/67/280 311/67/278
f 311/67/278 315/67/280 314/67/281 310/67/279
f 310/67/279 314/67/281 313/67/132 309/67/138
f 316/67/265 320/67/266 319/67/282 315/67/280
f 315/67/280 319/67/282 318/67/283 314/67/281
f 314/67/281 318/67/283 317/67/133 313/67/132
f 320/67/266 289/67/267 290/67/269 319/67/282
f 319/67/282 290/67/269 291/67/271 318/67/283
f 318/67/283 291/67/271 292/67/124 317/67/133
f 263/67/234 296/67/261 289/67/267 260/67/236
f 317/67/133 292/67/124 181/67/127 146/67/134
