# Blender 5.0.1
# www.blender.org
mtllib Wire_Head_Black(GND_5V-Pin12).mtl
o Wire_Head_Black(GND_5V-Pin12)
v 0.081694 0.154331 0.238783
v 0.081694 0.156409 0.238783
v 0.079616 0.156409 0.238783
v 0.079616 0.154331 0.238783
v 0.081734 0.154285 0.235978
v 0.081734 0.156455 0.235978
v 0.079576 0.156455 0.236010
v 0.079576 0.154285 0.236010
v 0.075809 0.154331 0.230588
v 0.075825 0.156501 0.230605
v 0.075793 0.156485 0.232762
v 0.075777 0.154314 0.232746
v 0.033740 0.154665 0.230582
v 0.033724 0.156823 0.230599
v 0.033725 0.156806 0.232769
v 0.033740 0.154649 0.232752
v 0.027799 0.099738 0.232761
v 0.029957 0.099770 0.232761
v 0.029957 0.099770 0.230590
v 0.027799 0.099738 0.230590
v 0.029948 0.150971 0.230582
v 0.027791 0.151003 0.230599
v 0.027808 0.151003 0.232769
v 0.029965 0.150971 0.232752
v 0.034601 0.094061 0.236010
v 0.034601 0.096232 0.236010
v 0.036758 0.096232 0.235978
v 0.036758 0.094062 0.235978
v 0.034641 0.094108 0.238783
v 0.034641 0.096186 0.238783
v 0.036718 0.096186 0.238783
v 0.036718 0.094108 0.238783
v 0.032247 0.094068 0.232754
v 0.032279 0.096226 0.232754
v 0.032311 0.096226 0.230597
v 0.032279 0.094068 0.230597
v 0.079172 0.155370 0.236016
v 0.080655 0.156862 0.235995
v 0.082138 0.155370 0.235972
v 0.080655 0.153941 0.238798
v 0.079226 0.155370 0.238798
v 0.080655 0.156800 0.238798
v 0.082085 0.155370 0.238798
v 0.080655 0.153878 0.235994
v 0.075823 0.155419 0.230192
v 0.075813 0.156900 0.231687
v 0.075779 0.155396 0.233159
v 0.075790 0.153916 0.231664
v 0.033732 0.155747 0.230183
v 0.033722 0.157219 0.231687
v 0.033732 0.155724 0.233168
v 0.033743 0.154253 0.231664
v 0.028878 0.099754 0.233168
v 0.030361 0.099776 0.231675
v 0.028878 0.099754 0.230183
v 0.027395 0.099732 0.231675
v 0.028867 0.150987 0.230183
v 0.027395 0.151009 0.231687
v 0.028890 0.150987 0.233168
v 0.030361 0.150965 0.231664
v 0.034196 0.095147 0.236016
v 0.035680 0.096639 0.235994
v 0.037163 0.095147 0.235972
v 0.035680 0.093655 0.235994
v 0.034250 0.095147 0.238798
v 0.035680 0.096576 0.238798
v 0.037109 0.095147 0.238798
v 0.035680 0.093717 0.238798
v 0.032257 0.095147 0.233159
v 0.032301 0.096630 0.231675
v 0.032301 0.095147 0.230192
v 0.032257 0.093664 0.231675
v 0.028904 0.097443 0.233158
v 0.029188 0.096048 0.233142
v 0.030158 0.095358 0.233137
v 0.027831 0.097332 0.232751
v 0.028283 0.095463 0.232733
v 0.029780 0.094349 0.232729
v 0.027428 0.097296 0.231667
v 0.027943 0.095251 0.231650
v 0.029644 0.093972 0.231647
v 0.027830 0.097346 0.230584
v 0.028281 0.095478 0.230569
v 0.029792 0.094353 0.230568
v 0.028903 0.097462 0.230178
v 0.029186 0.096069 0.230167
v 0.030174 0.095363 0.230166
v 0.029976 0.097573 0.230584
v 0.030091 0.096654 0.230576
v 0.030552 0.096372 0.230575
v 0.030378 0.097609 0.231668
v 0.030431 0.096867 0.231659
v 0.030689 0.096749 0.231657
v 0.030540 0.096368 0.232736
v 0.030092 0.096639 0.232740
v 0.029977 0.097560 0.232751
v 0.033845 0.095129 0.233267
v 0.034108 0.095131 0.233360
v 0.034163 0.095139 0.233994
v 0.034565 0.094056 0.233948
v 0.034438 0.094048 0.233133
v 0.033971 0.094047 0.232886
v 0.035635 0.093649 0.233811
v 0.035317 0.093639 0.232509
v 0.034320 0.093639 0.231867
v 0.036704 0.094055 0.233668
v 0.036194 0.094041 0.231880
v 0.034674 0.094040 0.230846
v 0.037105 0.095139 0.233608
v 0.036523 0.095122 0.231637
v 0.034811 0.095119 0.230462
v 0.036703 0.096223 0.233654
v 0.036192 0.096205 0.231865
v 0.034685 0.096201 0.230842
v 0.035633 0.096629 0.233792
v 0.035314 0.096615 0.232488
v 0.034336 0.096610 0.231862
v 0.034564 0.096223 0.233935
v 0.034436 0.096212 0.233118
v 0.033983 0.096208 0.232882
v 0.031089 0.155622 0.230183
v 0.029641 0.155039 0.230183
v 0.029023 0.153619 0.230183
v 0.031320 0.154565 0.230582
v 0.030395 0.154263 0.230582
v 0.030075 0.153367 0.230582
v 0.031408 0.154162 0.231664
v 0.030683 0.153968 0.231664
v 0.030477 0.153271 0.231664
v 0.031323 0.154549 0.232752
v 0.030407 0.154251 0.232752
v 0.030092 0.153363 0.232752
v 0.031094 0.155600 0.233168
v 0.029657 0.155022 0.233168
v 0.029045 0.153613 0.233168
v 0.030864 0.156657 0.232769
v 0.028903 0.155798 0.232769
v 0.027993 0.153865 0.232769
v 0.030776 0.157060 0.231687
v 0.028615 0.156094 0.231687
v 0.027592 0.153961 0.231687
v 0.027977 0.153869 0.230599
v 0.028891 0.155810 0.230599
v 0.030860 0.156673 0.230599
v 0.079045 0.155371 0.233932
v 0.078847 0.155373 0.233386
v 0.078090 0.155378 0.233235
v 0.079434 0.156456 0.233823
v 0.079112 0.156459 0.233084
v 0.078169 0.156466 0.232846
v 0.080472 0.156864 0.233528
v 0.079812 0.156869 0.232264
v 0.078364 0.156880 0.231787
v 0.081509 0.156457 0.233231
v 0.080509 0.156465 0.231440
v 0.078553 0.156480 0.230723
v 0.081897 0.155372 0.233118
v 0.080767 0.155381 0.231125
v 0.078618 0.155398 0.230316
v 0.081508 0.154287 0.233226
v 0.080503 0.154294 0.231427
v 0.078539 0.154310 0.230706
v 0.080471 0.153879 0.233522
v 0.079803 0.153884 0.232247
v 0.078344 0.153896 0.231764
v 0.078155 0.154296 0.232829
v 0.079106 0.154288 0.233071
v 0.079433 0.154286 0.233819
v 0.078535 0.153250 0.249517
v 0.080655 0.152371 0.249517
v 0.078535 0.153250 0.240313
v 0.080655 0.152371 0.240313
v 0.080655 0.152455 0.240115
v 0.082776 0.153250 0.240313
v 0.082776 0.153250 0.249517
v 0.083654 0.155370 0.249517
v 0.083654 0.155370 0.240313
v 0.083570 0.155370 0.240115
v 0.082776 0.157491 0.240313
v 0.082716 0.157431 0.240115
v 0.082776 0.157491 0.249517
v 0.080655 0.158369 0.249517
v 0.080655 0.158369 0.240313
v 0.080655 0.158285 0.240115
v 0.078535 0.157491 0.240313
v 0.078594 0.157431 0.240115
v 0.078535 0.157491 0.249517
v 0.077656 0.155370 0.249517
v 0.077656 0.155370 0.240313
v 0.077740 0.155370 0.240115
v 0.078594 0.153309 0.240115
v 0.078737 0.153452 0.240033
v 0.078925 0.153640 0.240033
v 0.079067 0.153782 0.240115
v 0.080655 0.152923 0.240033
v 0.080655 0.153125 0.240115
v 0.080655 0.152657 0.240033
v 0.082574 0.153452 0.240033
v 0.082716 0.153309 0.240115
v 0.082386 0.153640 0.240033
v 0.082243 0.153782 0.240115
v 0.083102 0.155370 0.240033
v 0.082900 0.155370 0.240115
v 0.083368 0.155370 0.240033
v 0.082574 0.157289 0.240033
v 0.082386 0.157101 0.240033
v 0.082243 0.156958 0.240115
v 0.080655 0.157817 0.240033
v 0.080655 0.157615 0.240115
v 0.080655 0.158083 0.240033
v 0.078737 0.157289 0.240033
v 0.078925 0.157101 0.240033
v 0.079067 0.156958 0.240115
v 0.078208 0.155370 0.240033
v 0.078410 0.155370 0.240115
v 0.077942 0.155370 0.240033
v 0.078493 0.155370 0.240313
v 0.079127 0.153842 0.240313
v 0.080655 0.153208 0.240313
v 0.082184 0.153842 0.240313
v 0.082817 0.155370 0.240313
v 0.082184 0.156899 0.240313
v 0.080655 0.157532 0.240313
v 0.079127 0.156899 0.240313
v 0.033559 0.093026 0.249517
v 0.035680 0.092148 0.249517
v 0.033559 0.093026 0.240313
v 0.035680 0.092148 0.240313
v 0.035680 0.092232 0.240115
v 0.037800 0.093026 0.240313
v 0.037800 0.093026 0.249517
v 0.038678 0.095147 0.249517
v 0.038678 0.095147 0.240313
v 0.038595 0.095147 0.240115
v 0.037800 0.097267 0.240313
v 0.037741 0.097208 0.240115
v 0.037800 0.097267 0.249517
v 0.035680 0.098146 0.249517
v 0.035680 0.098146 0.240313
v 0.035680 0.098062 0.240115
v 0.033559 0.097267 0.240313
v 0.033618 0.097208 0.240115
v 0.033559 0.097267 0.249517
v 0.032681 0.095147 0.249517
v 0.032681 0.095147 0.240313
v 0.032764 0.095147 0.240115
v 0.033618 0.093085 0.240115
v 0.033761 0.093228 0.240033
v 0.033949 0.093416 0.240033
v 0.034092 0.093559 0.240115
v 0.035680 0.092700 0.240033
v 0.035680 0.092901 0.240115
v 0.035680 0.092434 0.240033
v 0.037598 0.093228 0.240033
v 0.037741 0.093085 0.240115
v 0.037410 0.093416 0.240033
v 0.037267 0.093559 0.240115
v 0.038127 0.095147 0.240033
v 0.037925 0.095147 0.240115
v 0.038393 0.095147 0.240033
v 0.037598 0.097065 0.240033
v 0.037410 0.096877 0.240033
v 0.037267 0.096735 0.240115
v 0.035680 0.097594 0.240033
v 0.035680 0.097392 0.240115
v 0.035680 0.097860 0.240033
v 0.033761 0.097065 0.240033
v 0.033949 0.096877 0.240033
v 0.034092 0.096735 0.240115
v 0.033232 0.095147 0.240033
v 0.033434 0.095147 0.240115
v 0.032966 0.095147 0.240033
v 0.033518 0.095147 0.240313
v 0.034151 0.093618 0.240313
v 0.035680 0.092985 0.240313
v 0.037208 0.093618 0.240313
v 0.037841 0.095147 0.240313
v 0.037208 0.096675 0.240313
v 0.035680 0.097309 0.240313
v 0.034151 0.096675 0.240313
vn -0.7043 -0.7091 0.0337
vn 0.0084 -0.9999 0.0095
vn 0.0001 -0.9761 -0.2175
vn -0.6903 -0.6894 -0.2195
vn -0.9758 -0.0000 -0.2186
vn -0.9991 -0.0000 0.0417
vn -0.6903 0.6894 -0.2196
vn -0.7044 0.7090 0.0340
vn 0.0001 0.9761 -0.2175
vn 0.0083 0.9999 0.0101
vn 0.6904 0.6893 -0.2196
vn 0.7140 0.6999 -0.0183
vn 0.9758 -0.0000 -0.2187
vn 0.9995 -0.0001 -0.0315
vn 0.7139 -0.7000 -0.0188
vn 0.6904 -0.6893 -0.2197
vn 0.0207 0.7085 -0.7054
vn 0.0220 0.0076 -0.9997
vn -0.0008 0.0140 -0.9999
vn -0.0160 0.7176 -0.6962
vn -0.0070 0.7027 0.7115
vn 0.0080 1.0000 0.0034
vn -0.0226 0.9997 0.0077
vn -0.0157 0.7068 0.7073
vn 0.0100 -0.6977 -0.7164
vn 0.0118 -0.6997 -0.7143
vn -0.0178 -0.7135 0.7004
vn -0.0171 -0.0077 0.9998
vn -0.0005 -0.0017 1.0000
vn 0.0120 -0.7108 0.7033
vn -0.0072 -0.9999 -0.0122
vn 0.0162 -0.9998 -0.0078
vn 0.7015 -0.0185 -0.7124
vn 0.9996 -0.0258 -0.0059
vn 1.0000 0.0041 -0.0016
vn 0.7069 0.0040 -0.7073
vn -0.9994 0.0327 0.0058
vn -0.7172 0.0233 -0.6965
vn -0.7111 -0.0036 -0.7031
vn -1.0000 -0.0067 0.0024
vn 0.7099 -0.0188 0.7041
vn 0.7093 0.0017 0.7050
vn -0.0007 0.0006 1.0000
vn -0.7090 0.0229 0.7048
vn -0.7078 -0.0061 0.7063
vn 0.0008 -0.0023 1.0000
vn -0.0125 0.0011 -0.9999
vn -0.0032 0.0011 -1.0000
vn -0.6903 -0.6894 -0.2196
vn -0.9998 0.0003 0.0184
vn -0.7071 -0.7069 0.0180
vn -0.7068 0.7073 0.0156
vn 0.0023 1.0000 0.0086
vn 0.6904 0.6893 -0.2197
vn 0.7095 0.7047 0.0009
vn 1.0000 0.0005 -0.0023
vn 0.6904 -0.6893 -0.2196
vn 0.7100 -0.7042 0.0033
vn 0.0024 -0.9999 0.0121
vn 0.0023 0.7069 0.7073
vn 0.0465 0.9989 -0.0080
vn 0.2837 0.9589 0.0014
vn 0.2034 0.6450 0.7366
vn 0.0740 0.6952 -0.7150
vn 0.2118 0.6455 -0.7338
vn 0.0557 -0.0112 -0.9984
vn -0.0179 -0.0504 -0.9986
vn -0.0037 -0.7079 -0.7063
vn -0.2683 -0.6849 -0.6774
vn -0.0611 -0.9981 -0.0102
vn -0.3692 -0.9293 -0.0047
vn -0.0754 -0.7156 0.6945
vn -0.2765 -0.6886 0.6704
vn -0.0439 -0.0090 0.9990
vn -0.0293 -0.0544 0.9981
vn -0.0679 -0.0549 0.9962
vn -0.6197 -0.4155 0.6659
vn -0.0189 -0.0146 0.9997
vn -0.7184 -0.0953 0.6890
vn -0.8338 -0.5521 -0.0037
vn -0.9919 -0.1270 0.0001
vn -0.6198 -0.4065 -0.6713
vn -0.7198 -0.0871 -0.6887
vn -0.0688 -0.0415 -0.9968
vn -0.0204 -0.0020 -0.9998
vn 0.5226 0.3466 -0.7790
vn 0.7046 0.0497 -0.7079
vn 0.8334 0.5527 0.0026
vn 0.9986 0.0536 0.0008
vn 0.5243 0.3355 0.7826
vn 0.7045 0.0403 0.7086
vn -0.1897 -0.7288 0.6579
vn -0.2464 0.0012 0.9692
vn 0.0155 -0.9988 -0.0468
vn 0.2493 -0.6788 -0.6907
vn 0.3441 -0.0046 -0.9389
vn 0.2572 0.6720 -0.6944
vn 0.0266 0.9984 -0.0508
vn -0.1811 0.7313 0.6576
vn -0.5020 -0.7828 0.3677
vn -0.8053 0.0024 0.5928
vn -0.7023 -0.7091 0.0629
vn -0.9975 0.0008 0.0702
vn 0.0680 -0.9967 -0.0448
vn 0.0236 -0.9997 -0.0033
vn 0.6022 -0.6713 -0.4321
vn 0.7190 -0.6869 -0.1058
vn 0.8099 -0.0036 -0.5866
vn 0.9883 0.0002 -0.1524
vn 0.6016 0.6659 -0.4411
vn 0.7173 0.6873 -0.1141
vn 0.0664 0.9961 -0.0582
vn 0.0216 0.9996 -0.0160
vn -0.5042 0.7865 0.3566
vn -0.7025 0.7097 0.0533
vn -0.9679 0.2514 0.0074
vn -0.7148 0.1850 -0.6744
vn -0.7049 0.1824 0.6855
vn -0.0289 0.0118 0.9995
vn 0.6859 -0.1364 0.7148
vn 0.9832 -0.1825 -0.0078
vn 0.6744 -0.1344 -0.7261
vn -0.0443 0.0154 -0.9989
vn -0.0656 0.0673 -0.9956
vn 0.4309 -0.4428 -0.7863
vn -0.0142 0.0429 -0.9990
vn 0.1215 -0.6781 -0.7248
vn 0.6974 -0.7166 -0.0092
vn 0.1637 -0.9865 -0.0078
vn 0.4398 -0.4519 0.7761
vn 0.1232 -0.6896 0.7136
vn -0.0552 0.0567 0.9969
vn -0.0108 0.0274 0.9996
vn -0.5160 0.5300 0.6729
vn -0.1683 0.7077 0.6862
vn -0.6975 0.7165 0.0073
vn -0.2323 0.9726 0.0074
vn -0.5227 0.5370 -0.6621
vn -0.1707 0.7176 -0.6752
vn 0.0038 -0.9993 -0.0372
vn -0.1030 -0.7197 0.6866
vn 0.1393 -0.6791 -0.7207
vn 0.1980 0.0059 -0.9802
vn 0.1479 0.6880 -0.7105
vn 0.0166 0.9996 -0.0216
vn -0.0932 0.7100 0.6981
vn -0.1286 -0.0068 0.9917
vn -0.6492 -0.0042 0.7606
vn -0.4029 0.7790 0.4805
vn -0.9755 -0.0003 0.2200
vn -0.6697 0.7245 0.1629
vn 0.0589 0.9965 -0.0593
vn 0.0422 0.9990 -0.0148
vn 0.4856 0.6694 -0.5623
vn 0.7039 0.6775 -0.2135
vn 0.6495 0.0023 -0.7604
vn 0.9562 -0.0001 -0.2929
vn 0.4814 -0.6661 -0.5697
vn 0.7030 -0.6774 -0.2165
vn 0.0530 -0.9961 -0.0706
vn 0.0419 -0.9989 -0.0191
vn -0.4068 -0.7829 0.4708
vn -0.6694 -0.7253 0.1605
vn -0.5263 -0.5263 -0.6678
vn -0.0000 -0.7444 -0.6678
vn -0.0000 -0.9818 -0.1897
vn -0.6943 -0.6943 -0.1897
vn 0.5263 -0.5263 -0.6678
vn 0.6943 -0.6943 -0.1897
vn 0.7071 -0.7071 -0.0000
vn -0.0000 -1.0000 -0.0000
vn 0.5263 0.5263 -0.6678
vn 0.6943 0.6943 -0.1897
vn 0.9818 -0.0000 -0.1897
vn 0.7444 -0.0000 -0.6678
vn -0.5263 0.5263 -0.6678
vn -0.6943 0.6943 -0.1897
vn -0.0000 0.9818 -0.1897
vn -0.0000 0.7444 -0.6678
vn 0.7071 0.7071 -0.0000
vn 1.0000 -0.0000 -0.0000
vn 0.1448 -0.0000 -0.9895
vn 0.1024 0.1024 -0.9895
vn -0.1676 -0.1676 -0.9715
vn -0.2370 -0.0000 -0.9715
vn 0.1676 -0.1676 -0.9715
vn 0.2370 -0.0000 -0.9715
vn -1.0000 -0.0000 -0.0000
vn -0.7071 0.7071 -0.0000
vn -0.9818 -0.0000 -0.1897
vn -0.0000 1.0000 -0.0000
vn 0.1676 0.1676 -0.9715
vn -0.0000 0.2370 -0.9715
vn -0.7444 -0.0000 -0.6678
vn -0.7071 -0.7071 -0.0000
vn -0.0000 0.6474 -0.7621
vn -0.0000 0.1448 -0.9895
vn 0.4578 0.4578 -0.7621
vn -0.0000 -0.2370 -0.9715
vn 0.6514 0.6514 -0.3891
vn -0.0000 0.9212 -0.3891
vn -0.1676 0.1676 -0.9715
vn -0.6474 -0.0000 -0.7621
vn -0.1448 -0.0000 -0.9895
vn -0.1024 0.1024 -0.9895
vn -0.4578 0.4578 -0.7621
vn -0.0000 -0.6474 -0.7621
vn -0.0000 -0.1448 -0.9895
vn -0.1024 -0.1024 -0.9895
vn -0.4578 -0.4578 -0.7621
vn 0.6474 -0.0000 -0.7621
vn 0.1024 -0.1024 -0.9895
vn 0.4578 -0.4578 -0.7621
vn 0.9212 -0.0000 -0.3891
vn -0.6514 0.6514 -0.3891
vn -0.9212 -0.0000 -0.3890
vn -0.6514 -0.6514 -0.3891
vn -0.0000 -0.9212 -0.3891
vn 0.6514 -0.6514 -0.3891
vn -0.9212 -0.0000 -0.3891
vn -0.6397 0.6397 -0.4260
vn -0.0000 0.9068 -0.4215
vn 0.6397 0.6397 -0.4260
vn 0.9068 -0.0000 -0.4215
vn 0.6397 -0.6397 -0.4260
vn -0.0000 -0.9068 -0.4215
vn -0.6397 -0.6397 -0.4260
vn -0.9068 -0.0000 -0.4215
vt 0.000000 0.000000
vt 0.636322 0.771411
vt 0.587470 0.804750
vt 0.582466 0.801554
vt 0.635177 0.765465
vt 0.576221 0.861411
vt 0.570569 0.862499
vt 0.433500 0.501817
vt 0.495149 0.501817
vt 0.495149 0.744281
vt 0.433500 0.744281
vt 0.667721 0.922223
vt 0.668877 0.928042
vt 0.605422 0.915050
vt 0.608737 0.910132
vt 0.727696 0.832155
vt 0.733433 0.831018
vt 0.721608 0.892773
vt 0.716620 0.889535
vt 0.310201 0.501817
vt 0.371850 0.501817
vt 0.371850 0.744281
vt 0.310201 0.744281
vt 0.687564 0.793554
vt 0.638896 0.784065
vt 0.637511 0.777194
vt 0.691445 0.787669
vt 0.581871 0.860294
vt 0.612010 0.905265
vt 0.125252 0.501817
vt 0.186902 0.501817
vt 0.186902 0.744281
vt 0.125252 0.744281
vt 0.248551 0.501817
vt 0.248551 0.744281
vt 0.666609 0.916401
vt 0.711799 0.886320
vt 0.694675 0.782803
vt 0.697976 0.777719
vt 0.063603 0.501817
vt 0.063603 0.744281
vt 0.602608 0.814790
vt 0.598019 0.811727
vt 0.639988 0.789629
vt 0.592254 0.807905
vt 0.641149 0.795086
vt 0.607213 0.817814
vt 0.722022 0.833305
vt 0.619061 0.894562
vt 0.615915 0.899401
vt 0.588618 0.858968
vt 0.594043 0.857906
vt 0.701466 0.879486
vt 0.706041 0.882519
vt 0.665296 0.909466
vt 0.664231 0.903895
vt 0.684425 0.798269
vt 0.715204 0.834694
vt 0.709684 0.835861
vt 0.681227 0.803114
vt 0.599435 0.856891
vt 0.622123 0.889732
vt 0.663198 0.898415
vt 0.696941 0.876438
vt 0.704000 0.837048
vt 0.001953 0.501817
vt 0.001953 0.744281
s 1
usemtl Material.002
f 8/1/1 44/1/2 40/1/3 4/1/4
f 4/1/4 41/1/5 37/1/6 8/1/1
f 37/1/6 41/1/5 3/1/7 7/1/8
f 3/1/7 42/1/9 38/1/10 7/1/8
f 38/1/10 42/1/9 2/1/11 6/1/12
f 2/1/11 43/1/13 39/1/14 6/1/12
f 44/1/2 5/1/15 1/1/16 40/1/3
f 10/1/17 45/1/18 49/1/19 14/1/20
f 11/1/21 46/1/22 50/1/23 15/1/24
f 45/1/18 9/1/25 13/1/26 49/1/19
f 12/1/27 47/1/28 51/1/29 16/1/30
f 46/1/22 10/1/17 14/1/20 50/1/23
f 9/1/25 48/1/31 52/1/32 13/1/26
f 47/1/28 11/1/21 15/1/24 51/1/29
f 48/1/31 12/1/27 16/1/30 52/1/32
f 21/1/33 60/1/34 54/1/35 19/1/36
f 58/1/37 22/1/38 20/1/39 56/1/40
f 60/1/34 24/1/41 18/1/42 54/1/35
f 59/1/43 23/1/44 17/1/45 53/1/46
f 57/1/47 21/1/33 19/1/36 55/1/48
f 24/1/41 59/1/43 53/1/46 18/1/42
f 22/1/38 57/1/47 55/1/48 20/1/39
f 23/1/44 58/1/37 56/1/40 17/1/45
f 29/1/49 65/1/5 61/1/50 25/1/51
f 65/1/5 30/1/7 26/1/52 61/1/50
f 30/1/7 66/1/9 62/1/53 26/1/52
f 66/1/9 31/1/54 27/1/55 62/1/53
f 31/1/54 67/1/13 63/1/56 27/1/55
f 67/1/13 32/1/57 28/1/58 63/1/56
f 32/1/57 68/1/3 64/1/59 28/1/58
f 68/1/3 29/1/49 25/1/51 64/1/59
f 39/1/14 43/1/13 1/1/16 5/1/15
f 34/1/60 70/1/61 93/1/62 94/1/63
f 70/1/61 35/1/64 90/1/65 93/1/62
f 35/1/64 71/1/66 87/1/67 90/1/65
f 71/1/66 36/1/68 84/1/69 87/1/67
f 36/1/68 72/1/70 81/1/71 84/1/69
f 72/1/70 33/1/72 78/1/73 81/1/71
f 33/1/72 69/1/74 75/1/75 78/1/73
f 69/1/74 34/1/60 94/1/63 75/1/75
f 78/1/73 75/1/75 74/1/76 77/1/77
f 77/1/77 74/1/76 73/1/78 76/1/79
f 76/1/79 73/1/78 53/1/46 17/1/45
f 81/1/71 78/1/73 77/1/77 80/1/80
f 80/1/80 77/1/77 76/1/79 79/1/81
f 79/1/81 76/1/79 17/1/45 56/1/40
f 84/1/69 81/1/71 80/1/80 83/1/82
f 83/1/82 80/1/80 79/1/81 82/1/83
f 82/1/83 79/1/81 56/1/40 20/1/39
f 87/1/67 84/1/69 83/1/82 86/1/84
f 86/1/84 83/1/82 82/1/83 85/1/85
f 85/1/85 82/1/83 20/1/39 55/1/48
f 90/1/65 87/1/67 86/1/84 89/1/86
f 89/1/86 86/1/84 85/1/85 88/1/87
f 88/1/87 85/1/85 55/1/48 19/1/36
f 93/1/62 90/1/65 89/1/86 92/1/88
f 92/1/88 89/1/86 88/1/87 91/1/89
f 91/1/89 88/1/87 19/1/36 54/1/35
f 94/1/63 93/1/62 92/1/88 95/1/90
f 95/1/90 92/1/88 91/1/89 96/1/91
f 96/1/91 91/1/89 54/1/35 18/1/42
f 75/1/75 94/1/63 95/1/90 74/1/76
f 74/1/76 95/1/90 96/1/91 73/1/78
f 73/1/78 96/1/91 18/1/42 53/1/46
f 69/1/74 33/1/72 102/1/92 97/1/93
f 33/1/72 72/1/70 105/1/94 102/1/92
f 72/1/70 36/1/68 108/1/95 105/1/94
f 36/1/68 71/1/66 111/1/96 108/1/95
f 71/1/66 35/1/64 114/1/97 111/1/96
f 35/1/64 70/1/61 117/1/98 114/1/97
f 70/1/61 34/1/60 120/1/99 117/1/98
f 34/1/60 69/1/74 97/1/93 120/1/99
f 97/1/93 102/1/92 101/1/100 98/1/101
f 98/1/101 101/1/100 100/1/102 99/1/103
f 99/1/103 100/1/102 25/1/51 61/1/50
f 102/1/92 105/1/94 104/1/104 101/1/100
f 101/1/100 104/1/104 103/1/105 100/1/102
f 100/1/102 103/1/105 64/1/59 25/1/51
f 105/1/94 108/1/95 107/1/106 104/1/104
f 104/1/104 107/1/106 106/1/107 103/1/105
f 103/1/105 106/1/107 28/1/58 64/1/59
f 108/1/95 111/1/96 110/1/108 107/1/106
f 107/1/106 110/1/108 109/1/109 106/1/107
f 106/1/107 109/1/109 63/1/56 28/1/58
f 111/1/96 114/1/97 113/1/110 110/1/108
f 110/1/108 113/1/110 112/1/111 109/1/109
f 109/1/109 112/1/111 27/1/55 63/1/56
f 114/1/97 117/1/98 116/1/112 113/1/110
f 113/1/110 116/1/112 115/1/113 112/1/111
f 112/1/111 115/1/113 62/1/53 27/1/55
f 117/1/98 120/1/99 119/1/114 116/1/112
f 116/1/112 119/1/114 118/1/115 115/1/113
f 115/1/113 118/1/115 26/1/52 62/1/53
f 120/1/99 97/1/93 98/1/101 119/1/114
f 119/1/114 98/1/101 99/1/103 118/1/115
f 118/1/115 99/1/103 61/1/50 26/1/52
f 22/1/38 58/1/37 141/1/116 142/1/117
f 58/1/37 23/1/44 138/1/118 141/1/116
f 23/1/44 59/1/43 135/1/119 138/1/118
f 59/1/43 24/1/41 132/1/120 135/1/119
f 24/1/41 60/1/34 129/1/121 132/1/120
f 60/1/34 21/1/33 126/1/122 129/1/121
f 21/1/33 57/1/47 123/1/123 126/1/122
f 57/1/47 22/1/38 142/1/117 123/1/123
f 126/1/122 123/1/123 122/1/124 125/1/125
f 125/1/125 122/1/124 121/1/126 124/1/127
f 124/1/127 121/1/126 49/1/19 13/1/26
f 129/1/121 126/1/122 125/1/125 128/1/128
f 128/1/128 125/1/125 124/1/127 127/1/129
f 127/1/129 124/1/127 13/1/26 52/1/32
f 132/1/120 129/1/121 128/1/128 131/1/130
f 131/1/130 128/1/128 127/1/129 130/1/131
f 130/1/131 127/1/129 52/1/32 16/1/30
f 135/1/119 132/1/120 131/1/130 134/1/132
f 134/1/132 131/1/130 130/1/131 133/1/133
f 133/1/133 130/1/131 16/1/30 51/1/29
f 138/1/118 135/1/119 134/1/132 137/1/134
f 137/1/134 134/1/132 133/1/133 136/1/135
f 136/1/135 133/1/133 51/1/29 15/1/24
f 141/1/116 138/1/118 137/1/134 140/1/136
f 140/1/136 137/1/134 136/1/135 139/1/137
f 139/1/137 136/1/135 15/1/24 50/1/23
f 142/1/117 141/1/116 140/1/136 143/1/138
f 143/1/138 140/1/136 139/1/137 144/1/139
f 144/1/139 139/1/137 50/1/23 14/1/20
f 123/1/123 142/1/117 143/1/138 122/1/124
f 122/1/124 143/1/138 144/1/139 121/1/126
f 121/1/126 144/1/139 14/1/20 49/1/19
f 12/1/27 48/1/31 165/1/140 166/1/141
f 48/1/31 9/1/25 162/1/142 165/1/140
f 9/1/25 45/1/18 159/1/143 162/1/142
f 45/1/18 10/1/17 156/1/144 159/1/143
f 10/1/17 46/1/22 153/1/145 156/1/144
f 46/1/22 11/1/21 150/1/146 153/1/145
f 11/1/21 47/1/28 147/1/147 150/1/146
f 47/1/28 12/1/27 166/1/141 147/1/147
f 150/1/146 147/1/147 146/1/148 149/1/149
f 149/1/149 146/1/148 145/1/150 148/1/151
f 148/1/151 145/1/150 37/1/6 7/1/8
f 153/1/145 150/1/146 149/1/149 152/1/152
f 152/1/152 149/1/149 148/1/151 151/1/153
f 151/1/153 148/1/151 7/1/8 38/1/10
f 156/1/144 153/1/145 152/1/152 155/1/154
f 155/1/154 152/1/152 151/1/153 154/1/155
f 154/1/155 151/1/153 38/1/10 6/1/12
f 159/1/143 156/1/144 155/1/154 158/1/156
f 158/1/156 155/1/154 154/1/155 157/1/157
f 157/1/157 154/1/155 6/1/12 39/1/14
f 162/1/142 159/1/143 158/1/156 161/1/158
f 161/1/158 158/1/156 157/1/157 160/1/159
f 160/1/159 157/1/157 39/1/14 5/1/15
f 165/1/140 162/1/142 161/1/158 164/1/160
f 164/1/160 161/1/158 160/1/159 163/1/161
f 163/1/161 160/1/159 5/1/15 44/1/2
f 166/1/141 165/1/140 164/1/160 167/1/162
f 167/1/162 164/1/160 163/1/161 168/1/163
f 168/1/163 163/1/161 44/1/2 8/1/1
f 147/1/147 166/1/141 167/1/162 146/1/148
f 146/1/148 167/1/162 168/1/163 145/1/150
f 145/1/150 168/1/163 8/1/1 37/1/6
f 191/2/164 173/3/165 172/4/166 171/5/167
f 199/6/168 174/7/169 172/4/166 173/3/165
f 175/8/170 170/9/171 172/10/166 174/11/169
f 180/12/172 179/13/173 177/14/174 178/15/175
f 186/16/176 185/17/177 183/18/178 184/19/179
f 181/20/180 176/21/181 177/22/174 179/23/173
f 214/24/182 193/25/183 192/26/184 216/27/185
f 198/28/186 204/29/187 178/15/175 199/6/168
f 176/21/181 175/8/170 174/11/169 177/22/174
f 188/30/188 187/31/189 185/32/177 189/33/190
f 187/31/189 182/34/191 183/35/178 185/32/177
f 205/36/192 210/37/193 184/19/179 180/12/172
f 190/38/194 191/2/164 171/5/167 189/39/190
f 216/27/185 192/26/184 191/2/164 190/38/194
f 169/40/195 188/30/188 189/33/190 171/41/167
f 196/42/196 195/43/197 193/25/183 194/44/198
f 182/34/191 181/20/180 179/23/173 183/35/178
f 192/26/184 197/45/199 173/3/165 191/2/164
f 197/45/199 198/28/186 199/6/168 173/3/165
f 193/25/183 195/43/197 197/45/199 192/26/184
f 218/46/200 219/47/201 196/42/196 194/44/198
f 211/48/202 216/27/185 190/38/194 186/16/176
f 203/49/203 202/50/204 200/51/205 201/52/206
f 195/43/197 200/51/205 198/28/186 197/45/199
f 199/6/168 178/15/175 177/14/174 174/7/169
f 204/29/187 205/36/192 180/12/172 178/15/175
f 200/51/205 202/50/204 204/29/187 198/28/186
f 196/42/196 201/52/206 200/51/205 195/43/197
f 209/53/207 208/54/208 206/55/209 207/56/210
f 202/50/204 206/55/209 205/36/192 204/29/187
f 180/12/172 184/19/179 183/18/178 179/13/173
f 210/37/193 211/48/202 186/16/176 184/19/179
f 206/55/209 208/54/208 210/37/193 205/36/192
f 203/49/203 207/56/210 206/55/209 202/50/204
f 215/57/211 214/24/182 212/58/212 213/59/213
f 208/54/208 212/58/212 211/48/202 210/37/193
f 186/16/176 190/38/194 189/39/190 185/17/177
f 217/60/214 218/46/200 194/44/198 215/57/211
f 212/58/212 214/24/182 216/27/185 211/48/202
f 209/53/207 213/59/213 212/58/212 208/54/208
f 215/57/211 194/44/198 193/25/183 214/24/182
f 219/47/201 220/61/215 201/52/206 196/42/196
f 220/61/215 221/62/216 203/49/203 201/52/206
f 221/62/216 222/63/217 207/56/210 203/49/203
f 222/63/217 223/64/218 209/53/207 207/56/210
f 223/64/218 224/65/219 213/59/213 209/53/207
f 224/65/219 217/60/214 215/57/211 213/59/213
f 170/66/171 169/40/195 171/41/167 172/67/166
f 247/2/164 229/3/165 228/4/166 227/5/167
f 255/6/168 230/7/169 228/4/166 229/3/165
f 231/8/170 226/9/171 228/10/166 230/11/169
f 236/12/172 235/13/173 233/14/174 234/15/175
f 242/16/176 241/17/177 239/18/178 240/19/179
f 237/20/180 232/21/181 233/22/174 235/23/173
f 270/24/182 249/25/183 248/26/184 272/27/185
f 254/28/186 260/29/187 234/15/175 255/6/168
f 232/21/181 231/8/170 230/11/169 233/22/174
f 244/30/188 243/31/189 241/32/177 245/33/190
f 243/31/189 238/34/191 239/35/178 241/32/177
f 261/36/192 266/37/193 240/19/179 236/12/172
f 246/38/194 247/2/164 227/5/167 245/39/190
f 272/27/185 248/26/184 247/2/164 246/38/194
f 225/40/195 244/30/188 245/33/190 227/41/167
f 252/42/196 251/43/197 249/25/183 250/44/198
f 238/34/191 237/20/180 235/23/173 239/35/178
f 248/26/184 253/45/199 229/3/165 247/2/164
f 253/45/199 254/28/186 255/6/168 229/3/165
f 249/25/183 251/43/197 253/45/199 248/26/184
f 274/46/200 275/47/201 252/42/196 250/44/198
f 267/48/202 272/27/185 246/38/194 242/16/176
f 259/49/203 258/50/204 256/51/205 257/52/206
f 251/43/197 256/51/205 254/28/186 253/45/199
f 255/6/168 234/15/175 233/14/174 230/7/169
f 260/29/187 261/36/192 236/12/172 234/15/175
f 256/51/205 258/50/204 260/29/187 254/28/186
f 252/42/196 257/52/206 256/51/205 251/43/197
f 265/53/207 264/54/208 262/55/209 263/56/210
f 258/50/204 262/55/209 261/36/192 260/29/187
f 236/12/172 240/19/179 239/18/178 235/13/173
f 266/37/193 267/48/202 242/16/176 240/19/179
f 262/55/209 264/54/208 266/37/193 261/36/192
f 259/49/203 263/56/210 262/55/209 258/50/204
f 271/57/211 270/24/182 268/58/212 269/59/213
f 264/54/208 268/58/212 267/48/202 266/37/193
f 242/16/176 246/38/194 245/39/190 241/17/177
f 273/60/214 274/46/200 250/44/198 271/57/211
f 268/58/212 270/24/182 272/27/185 267/48/202
f 265/53/207 269/59/213 268/58/212 264/54/208
f 271/57/211 250/44/198 249/25/183 270/24/182
f 275/47/201 276/61/215 257/52/206 252/42/196
f 276/61/215 277/62/220 259/49/203 257/52/206
f 277/62/220 278/63/217 263/56/210 259/49/203
f 278/63/217 279/64/218 265/53/207 263/56/210
f 279/64/218 280/65/219 269/59/213 265/53/207
f 280/65/219 273/60/214 271/57/211 269/59/213
f 226/66/171 225/40/195 227/41/167 228/67/166
f 280/65/221 279/64/222 66/1/9 30/1/7
f 279/64/222 278/63/223 31/1/54 66/1/9
f 278/63/223 277/62/224 67/1/13 31/1/54
f 277/62/224 276/61/225 32/1/57 67/1/13
f 276/61/225 275/47/226 68/1/3 32/1/57
f 275/47/226 274/46/227 29/1/49 68/1/3
f 274/46/227 273/60/228 65/1/5 29/1/49
f 273/60/228 280/65/221 30/1/7 65/1/5
f 219/47/226 218/46/227 4/1/4 40/1/3
f 218/46/227 217/60/228 41/1/5 4/1/4
f 217/60/228 224/65/221 3/1/7 41/1/5
f 224/65/221 223/64/222 42/1/9 3/1/7
f 223/64/222 222/63/223 2/1/11 42/1/9
f 222/63/223 221/62/224 43/1/13 2/1/11
f 221/62/224 220/61/225 1/1/16 43/1/13
f 220/61/225 219/47/226 40/1/3 1/1/16
