# Blender 5.0.1
# www.blender.org
mtllib Wire_Head_Black(GND_5V-Pin10).mtl
o Wire_Head_Black(GND_5V-Pin10)
v 0.081694 0.154331 0.238783
v 0.081694 0.156409 0.238783
v 0.079616 0.156409 0.238783
v 0.079616 0.154331 0.238783
v 0.081734 0.154285 0.235978
v 0.081734 0.156455 0.235978
v 0.079576 0.156455 0.236010
v 0.079576 0.154285 0.236010
v 0.075809 0.154331 0.230588
v 0.075825 0.156501 0.230605
v 0.075793 0.156485 0.232762
v 0.075777 0.154314 0.232746
v 0.033740 0.154665 0.230582
v 0.033724 0.156823 0.230599
v 0.033725 0.156806 0.232769
v 0.033740 0.154649 0.232752
v 0.027799 0.056738 0.232761
v 0.029957 0.056770 0.232761
v 0.029957 0.056770 0.230590
v 0.027799 0.056738 0.230590
v 0.029948 0.150971 0.230582
v 0.027791 0.151003 0.230599
v 0.027808 0.151003 0.232769
v 0.029965 0.150971 0.232752
v 0.034601 0.051061 0.236010
v 0.034601 0.053232 0.236010
v 0.036758 0.053232 0.235978
v 0.036758 0.051061 0.235978
v 0.034641 0.051108 0.238783
v 0.034641 0.053186 0.238783
v 0.036718 0.053186 0.238783
v 0.036718 0.051108 0.238783
v 0.032247 0.051068 0.232754
v 0.032279 0.053225 0.232754
v 0.032311 0.053226 0.230597
v 0.032279 0.051068 0.230597
v 0.079172 0.155370 0.236016
v 0.080655 0.156862 0.235995
v 0.082138 0.155370 0.235972
v 0.080655 0.153941 0.238798
v 0.079226 0.155370 0.238798
v 0.080655 0.156800 0.238798
v 0.082085 0.155370 0.238798
v 0.080655 0.153878 0.235994
v 0.075823 0.155419 0.230192
v 0.075813 0.156900 0.231687
v 0.075779 0.155396 0.233159
v 0.075790 0.153916 0.231664
v 0.033732 0.155747 0.230183
v 0.033722 0.157219 0.231687
v 0.033732 0.155724 0.233168
v 0.033743 0.154253 0.231664
v 0.028878 0.056754 0.233168
v 0.030361 0.056776 0.231675
v 0.028878 0.056754 0.230183
v 0.027395 0.056732 0.231675
v 0.028867 0.150987 0.230183
v 0.027395 0.151009 0.231687
v 0.028890 0.150987 0.233168
v 0.030361 0.150965 0.231664
v 0.034196 0.052147 0.236016
v 0.035680 0.053639 0.235994
v 0.037163 0.052147 0.235972
v 0.035680 0.050655 0.235994
v 0.034250 0.052147 0.238798
v 0.035680 0.053576 0.238798
v 0.037109 0.052147 0.238798
v 0.035680 0.050717 0.238798
v 0.032257 0.052147 0.233159
v 0.032301 0.053630 0.231675
v 0.032301 0.052147 0.230192
v 0.032257 0.050664 0.231675
v 0.028904 0.054443 0.233158
v 0.029188 0.053048 0.233142
v 0.030158 0.052358 0.233137
v 0.027831 0.054332 0.232751
v 0.028283 0.052463 0.232733
v 0.029780 0.051349 0.232729
v 0.027428 0.054296 0.231667
v 0.027943 0.052250 0.231650
v 0.029644 0.050972 0.231647
v 0.027830 0.054345 0.230584
v 0.028281 0.052478 0.230569
v 0.029792 0.051353 0.230568
v 0.028903 0.054462 0.230178
v 0.029186 0.053069 0.230167
v 0.030174 0.052363 0.230166
v 0.029976 0.054573 0.230584
v 0.030091 0.053654 0.230576
v 0.030552 0.053372 0.230575
v 0.030378 0.054609 0.231668
v 0.030431 0.053867 0.231659
v 0.030689 0.053749 0.231657
v 0.030540 0.053368 0.232736
v 0.030092 0.053639 0.232740
v 0.029977 0.054560 0.232751
v 0.033845 0.052129 0.233267
v 0.034108 0.052131 0.233360
v 0.034163 0.052139 0.233994
v 0.034565 0.051056 0.233948
v 0.034438 0.051048 0.233133
v 0.033971 0.051047 0.232886
v 0.035635 0.050649 0.233811
v 0.035317 0.050639 0.232509
v 0.034320 0.050639 0.231867
v 0.036704 0.051055 0.233668
v 0.036194 0.051041 0.231880
v 0.034674 0.051040 0.230846
v 0.037105 0.052139 0.233608
v 0.036523 0.052122 0.231637
v 0.034811 0.052119 0.230462
v 0.036703 0.053223 0.233654
v 0.036192 0.053205 0.231865
v 0.034685 0.053201 0.230842
v 0.035633 0.053629 0.233792
v 0.035314 0.053615 0.232488
v 0.034336 0.053610 0.231862
v 0.034564 0.053223 0.233935
v 0.034436 0.053212 0.233118
v 0.033983 0.053208 0.232882
v 0.031089 0.155622 0.230183
v 0.029641 0.155039 0.230183
v 0.029023 0.153619 0.230183
v 0.031320 0.154565 0.230582
v 0.030395 0.154263 0.230582
v 0.030075 0.153367 0.230582
v 0.031408 0.154162 0.231664
v 0.030683 0.153968 0.231664
v 0.030477 0.153271 0.231664
v 0.031323 0.154549 0.232752
v 0.030407 0.154251 0.232752
v 0.030092 0.153363 0.232752
v 0.031094 0.155600 0.233168
v 0.029657 0.155022 0.233168
v 0.029045 0.153613 0.233168
v 0.030864 0.156657 0.232769
v 0.028903 0.155798 0.232769
v 0.027993 0.153865 0.232769
v 0.030776 0.157060 0.231687
v 0.028615 0.156094 0.231687
v 0.027592 0.153961 0.231687
v 0.027977 0.153869 0.230599
v 0.028891 0.155810 0.230599
v 0.030860 0.156673 0.230599
v 0.079045 0.155371 0.233932
v 0.078847 0.155373 0.233386
v 0.078090 0.155378 0.233235
v 0.079434 0.156456 0.233823
v 0.079112 0.156459 0.233084
v 0.078169 0.156466 0.232846
v 0.080472 0.156864 0.233528
v 0.079812 0.156869 0.232264
v 0.078364 0.156880 0.231787
v 0.081509 0.156457 0.233231
v 0.080509 0.156465 0.231440
v 0.078553 0.156480 0.230723
v 0.081897 0.155372 0.233118
v 0.080767 0.155381 0.231125
v 0.078618 0.155398 0.230316
v 0.081508 0.154287 0.233226
v 0.080503 0.154294 0.231427
v 0.078539 0.154310 0.230706
v 0.080471 0.153879 0.233522
v 0.079803 0.153884 0.232247
v 0.078344 0.153896 0.231764
v 0.078155 0.154296 0.232829
v 0.079106 0.154288 0.233071
v 0.079433 0.154286 0.233819
v 0.078535 0.153250 0.249517
v 0.080655 0.152371 0.249517
v 0.078535 0.153250 0.240313
v 0.080655 0.152371 0.240313
v 0.080655 0.152455 0.240115
v 0.082776 0.153250 0.240313
v 0.082776 0.153250 0.249517
v 0.083654 0.155370 0.249517
v 0.083654 0.155370 0.240313
v 0.083570 0.155370 0.240115
v 0.082776 0.157491 0.240313
v 0.082716 0.157431 0.240115
v 0.082776 0.157491 0.249517
v 0.080655 0.158369 0.249517
v 0.080655 0.158369 0.240313
v 0.080655 0.158285 0.240115
v 0.078535 0.157491 0.240313
v 0.078594 0.157431 0.240115
v 0.078535 0.157491 0.249517
v 0.077656 0.155370 0.249517
v 0.077656 0.155370 0.240313
v 0.077740 0.155370 0.240115
v 0.078594 0.153309 0.240115
v 0.078737 0.153452 0.240033
v 0.078925 0.153640 0.240033
v 0.079067 0.153782 0.240115
v 0.080655 0.152923 0.240033
v 0.080655 0.153125 0.240115
v 0.080655 0.152657 0.240033
v 0.082574 0.153452 0.240033
v 0.082716 0.153309 0.240115
v 0.082386 0.153640 0.240033
v 0.082243 0.153782 0.240115
v 0.083102 0.155370 0.240033
v 0.082900 0.155370 0.240115
v 0.083368 0.155370 0.240033
v 0.082574 0.157289 0.240033
v 0.082386 0.157101 0.240033
v 0.082243 0.156958 0.240115
v 0.080655 0.157817 0.240033
v 0.080655 0.157615 0.240115
v 0.080655 0.158083 0.240033
v 0.078737 0.157289 0.240033
v 0.078925 0.157101 0.240033
v 0.079067 0.156958 0.240115
v 0.078208 0.155370 0.240033
v 0.078410 0.155370 0.240115
v 0.077942 0.155370 0.240033
v 0.078493 0.155370 0.240313
v 0.079127 0.153842 0.240313
v 0.080655 0.153208 0.240313
v 0.082184 0.153842 0.240313
v 0.082817 0.155370 0.240313
v 0.082184 0.156899 0.240313
v 0.080655 0.157532 0.240313
v 0.079127 0.156899 0.240313
v 0.033559 0.050026 0.249517
v 0.035680 0.049148 0.249517
v 0.033559 0.050026 0.240313
v 0.035680 0.049148 0.240313
v 0.035680 0.049232 0.240115
v 0.037800 0.050026 0.240313
v 0.037800 0.050026 0.249517
v 0.038678 0.052147 0.249517
v 0.038678 0.052147 0.240313
v 0.038595 0.052147 0.240115
v 0.037800 0.054267 0.240313
v 0.037741 0.054208 0.240115
v 0.037800 0.054267 0.249517
v 0.035680 0.055146 0.249517
v 0.035680 0.055146 0.240313
v 0.035680 0.055062 0.240115
v 0.033559 0.054267 0.240313
v 0.033618 0.054208 0.240115
v 0.033559 0.054267 0.249517
v 0.032681 0.052147 0.249517
v 0.032681 0.052147 0.240313
v 0.032764 0.052147 0.240115
v 0.033618 0.050085 0.240115
v 0.033761 0.050228 0.240033
v 0.033949 0.050416 0.240033
v 0.034092 0.050559 0.240115
v 0.035680 0.049700 0.240033
v 0.035680 0.049901 0.240115
v 0.035680 0.049434 0.240033
v 0.037598 0.050228 0.240033
v 0.037741 0.050085 0.240115
v 0.037410 0.050416 0.240033
v 0.037267 0.050559 0.240115
v 0.038127 0.052147 0.240033
v 0.037925 0.052147 0.240115
v 0.038393 0.052147 0.240033
v 0.037598 0.054065 0.240033
v 0.037410 0.053877 0.240033
v 0.037267 0.053735 0.240115
v 0.035680 0.054594 0.240033
v 0.035680 0.054392 0.240115
v 0.035680 0.054860 0.240033
v 0.033761 0.054065 0.240033
v 0.033949 0.053877 0.240033
v 0.034092 0.053735 0.240115
v 0.033232 0.052147 0.240033
v 0.033434 0.052147 0.240115
v 0.032966 0.052147 0.240033
v 0.033518 0.052147 0.240313
v 0.034151 0.050618 0.240313
v 0.035680 0.049985 0.240313
v 0.037208 0.050618 0.240313
v 0.037841 0.052147 0.240313
v 0.037208 0.053675 0.240313
v 0.035680 0.054308 0.240313
v 0.034151 0.053675 0.240313
vn -0.7043 -0.7091 0.0337
vn 0.0084 -0.9999 0.0095
vn 0.0001 -0.9761 -0.2175
vn -0.6903 -0.6894 -0.2195
vn -0.9758 -0.0000 -0.2186
vn -0.9991 -0.0000 0.0417
vn -0.6903 0.6894 -0.2196
vn -0.7044 0.7090 0.0340
vn 0.0001 0.9761 -0.2175
vn 0.0083 0.9999 0.0101
vn 0.6904 0.6893 -0.2196
vn 0.7140 0.6999 -0.0183
vn 0.9758 -0.0000 -0.2187
vn 0.9995 -0.0001 -0.0315
vn 0.7139 -0.7000 -0.0188
vn 0.6904 -0.6893 -0.2197
vn 0.0207 0.7085 -0.7054
vn 0.0220 0.0076 -0.9997
vn -0.0008 0.0140 -0.9999
vn -0.0160 0.7176 -0.6962
vn -0.0070 0.7027 0.7115
vn 0.0080 1.0000 0.0034
vn -0.0226 0.9997 0.0077
vn -0.0157 0.7068 0.7073
vn 0.0100 -0.6977 -0.7164
vn 0.0118 -0.6997 -0.7143
vn -0.0178 -0.7135 0.7004
vn -0.0171 -0.0077 0.9998
vn -0.0005 -0.0017 1.0000
vn 0.0120 -0.7108 0.7033
vn -0.0072 -0.9999 -0.0122
vn 0.0162 -0.9998 -0.0078
vn 0.7015 -0.0185 -0.7124
vn 0.9996 -0.0258 -0.0059
vn 1.0000 0.0041 -0.0016
vn 0.7069 0.0040 -0.7073
vn -0.9994 0.0327 0.0057
vn -0.7172 0.0233 -0.6965
vn -0.7111 -0.0036 -0.7031
vn -1.0000 -0.0067 0.0024
vn 0.7099 -0.0188 0.7041
vn 0.7093 0.0017 0.7049
vn -0.0007 0.0006 1.0000
vn -0.7090 0.0229 0.7048
vn -0.7078 -0.0061 0.7064
vn 0.0008 -0.0023 1.0000
vn -0.0125 0.0011 -0.9999
vn -0.0032 0.0011 -1.0000
vn -0.6903 -0.6894 -0.2196
vn -0.9758 -0.0000 -0.2185
vn -0.9998 0.0003 0.0184
vn -0.7071 -0.7069 0.0180
vn -0.7068 0.7073 0.0156
vn 0.0023 1.0000 0.0086
vn 0.6904 0.6893 -0.2197
vn 0.7095 0.7047 0.0009
vn 1.0000 0.0005 -0.0023
vn 0.6904 -0.6893 -0.2196
vn 0.7100 -0.7042 0.0033
vn 0.0024 -0.9999 0.0121
vn 0.0023 0.7069 0.7073
vn 0.0465 0.9989 -0.0080
vn 0.2836 0.9589 0.0014
vn 0.2034 0.6450 0.7366
vn 0.0740 0.6952 -0.7150
vn 0.2118 0.6455 -0.7338
vn 0.0557 -0.0112 -0.9984
vn -0.0179 -0.0504 -0.9986
vn -0.0037 -0.7079 -0.7063
vn -0.2683 -0.6849 -0.6774
vn -0.0611 -0.9981 -0.0102
vn -0.3692 -0.9293 -0.0047
vn -0.0754 -0.7156 0.6945
vn -0.2765 -0.6886 0.6704
vn -0.0439 -0.0090 0.9990
vn -0.0293 -0.0544 0.9981
vn -0.0679 -0.0549 0.9962
vn -0.6197 -0.4155 0.6659
vn -0.0189 -0.0146 0.9997
vn -0.7184 -0.0953 0.6890
vn -0.8338 -0.5521 -0.0037
vn -0.9919 -0.1270 0.0001
vn -0.6198 -0.4065 -0.6713
vn -0.7198 -0.0871 -0.6887
vn -0.0688 -0.0415 -0.9968
vn -0.0204 -0.0020 -0.9998
vn 0.5226 0.3466 -0.7790
vn 0.7046 0.0497 -0.7079
vn 0.8334 0.5527 0.0026
vn 0.9986 0.0536 0.0008
vn 0.5243 0.3355 0.7826
vn 0.7045 0.0403 0.7086
vn -0.1897 -0.7288 0.6579
vn -0.2464 0.0012 0.9692
vn 0.0155 -0.9988 -0.0468
vn 0.2493 -0.6788 -0.6907
vn 0.3441 -0.0046 -0.9389
vn 0.2572 0.6720 -0.6944
vn 0.0266 0.9984 -0.0508
vn -0.1811 0.7313 0.6576
vn -0.5020 -0.7828 0.3677
vn -0.8053 0.0024 0.5928
vn -0.7023 -0.7091 0.0629
vn -0.9975 0.0008 0.0702
vn 0.0680 -0.9967 -0.0448
vn 0.0236 -0.9997 -0.0033
vn 0.6022 -0.6713 -0.4321
vn 0.7190 -0.6869 -0.1058
vn 0.8099 -0.0036 -0.5866
vn 0.9883 0.0002 -0.1524
vn 0.6016 0.6659 -0.4411
vn 0.7173 0.6873 -0.1141
vn 0.0664 0.9961 -0.0582
vn 0.0216 0.9996 -0.0160
vn -0.5042 0.7865 0.3566
vn -0.7025 0.7097 0.0533
vn -0.9679 0.2514 0.0074
vn -0.7148 0.1850 -0.6744
vn -0.7049 0.1824 0.6855
vn -0.0289 0.0118 0.9995
vn 0.6859 -0.1364 0.7148
vn 0.9832 -0.1825 -0.0078
vn 0.6744 -0.1344 -0.7261
vn -0.0443 0.0154 -0.9989
vn -0.0656 0.0673 -0.9956
vn 0.4309 -0.4428 -0.7863
vn -0.0142 0.0429 -0.9990
vn 0.1215 -0.6781 -0.7248
vn 0.6974 -0.7166 -0.0092
vn 0.1637 -0.9865 -0.0078
vn 0.4398 -0.4519 0.7761
vn 0.1232 -0.6896 0.7136
vn -0.0552 0.0567 0.9969
vn -0.0108 0.0274 0.9996
vn -0.5160 0.5300 0.6729
vn -0.1683 0.7077 0.6862
vn -0.6975 0.7165 0.0073
vn -0.2323 0.9726 0.0074
vn -0.5227 0.5370 -0.6621
vn -0.1707 0.7176 -0.6752
vn 0.0038 -0.9993 -0.0372
vn -0.1030 -0.7197 0.6866
vn 0.1393 -0.6791 -0.7207
vn 0.1980 0.0059 -0.9802
vn 0.1479 0.6880 -0.7105
vn 0.0166 0.9996 -0.0216
vn -0.0932 0.7100 0.6981
vn -0.1286 -0.0068 0.9917
vn -0.6492 -0.0042 0.7606
vn -0.4029 0.7790 0.4805
vn -0.9755 -0.0003 0.2200
vn -0.6697 0.7245 0.1629
vn 0.0589 0.9965 -0.0593
vn 0.0422 0.9990 -0.0148
vn 0.4856 0.6694 -0.5623
vn 0.7039 0.6775 -0.2135
vn 0.6495 0.0023 -0.7604
vn 0.9562 -0.0001 -0.2929
vn 0.4814 -0.6661 -0.5697
vn 0.7030 -0.6774 -0.2165
vn 0.0530 -0.9961 -0.0706
vn 0.0419 -0.9989 -0.0191
vn -0.4068 -0.7829 0.4708
vn -0.6694 -0.7253 0.1605
vn -0.5263 -0.5263 -0.6678
vn -0.0000 -0.7444 -0.6678
vn -0.0000 -0.9818 -0.1897
vn -0.6943 -0.6943 -0.1897
vn 0.5263 -0.5263 -0.6678
vn 0.6943 -0.6943 -0.1897
vn 0.7071 -0.7071 -0.0000
vn -0.0000 -1.0000 -0.0000
vn 0.5263 0.5263 -0.6678
vn 0.6943 0.6943 -0.1897
vn 0.9818 -0.0000 -0.1897
vn 0.7444 -0.0000 -0.6678
vn -0.5263 0.5263 -0.6678
vn -0.6943 0.6943 -0.1897
vn -0.0000 0.9818 -0.1897
vn -0.0000 0.7444 -0.6678
vn 0.7071 0.7071 -0.0000
vn 1.0000 -0.0000 -0.0000
vn 0.1448 -0.0000 -0.9895
vn 0.1024 0.1024 -0.9895
vn -0.1676 -0.1676 -0.9715
vn -0.2370 -0.0000 -0.9715
vn 0.1676 -0.1676 -0.9715
vn 0.2370 -0.0000 -0.9715
vn -1.0000 -0.0000 -0.0000
vn -0.7071 0.7071 -0.0000
vn -0.9818 -0.0000 -0.1897
vn -0.0000 1.0000 -0.0000
vn 0.1676 0.1676 -0.9715
vn -0.0000 0.2370 -0.9715
vn -0.7444 -0.0000 -0.6678
vn -0.7071 -0.7071 -0.0000
vn -0.0000 0.6474 -0.7621
vn -0.0000 0.1448 -0.9895
vn 0.4578 0.4578 -0.7621
vn -0.0000 -0.2370 -0.9715
vn 0.6514 0.6514 -0.3891
vn -0.0000 0.9212 -0.3891
vn -0.1676 0.1676 -0.9715
vn -0.6474 -0.0000 -0.7621
vn -0.1448 -0.0000 -0.9895
vn -0.1024 0.1024 -0.9895
vn -0.4578 0.4578 -0.7621
vn -0.0000 -0.6474 -0.7621
vn -0.0000 -0.1448 -0.9895
vn -0.1024 -0.1024 -0.9895
vn -0.4578 -0.4578 -0.7621
vn 0.6474 -0.0000 -0.7621
vn 0.1024 -0.1024 -0.9895
vn 0.4578 -0.4578 -0.7621
vn 0.9212 -0.0000 -0.3891
vn -0.6514 0.6514 -0.3891
vn -0.9212 -0.0000 -0.3890
vn -0.6514 -0.6514 -0.3891
vn -0.0000 -0.9212 -0.3891
vn 0.6514 -0.6514 -0.3891
vn -0.6397 0.6397 -0.4260
vn -0.0000 0.9068 -0.4215
vn 0.6397 0.6397 -0.4260
vn 0.9068 -0.0000 -0.4215
vn 0.6397 -0.6397 -0.4260
vn -0.0000 -0.9068 -0.4215
vn -0.6397 -0.6397 -0.4260
vn -0.9068 -0.0000 -0.4215
vt 0.000000 0.000000
vt 0.636322 0.771411
vt 0.587470 0.804750
vt 0.582466 0.801554
vt 0.635177 0.765465
vt 0.576221 0.861411
vt 0.570569 0.862499
vt 0.433500 0.501817
vt 0.495149 0.501817
vt 0.495149 0.744281
vt 0.433500 0.744281
vt 0.667721 0.922223
vt 0.668877 0.928042
vt 0.605422 0.915050
vt 0.608737 0.910132
vt 0.727696 0.832155
vt 0.733433 0.831018
vt 0.721608 0.892773
vt 0.716620 0.889535
vt 0.310201 0.501817
vt 0.371850 0.501817
vt 0.371850 0.744281
vt 0.310201 0.744281
vt 0.687564 0.793554
vt 0.638896 0.784065
vt 0.637511 0.777194
vt 0.691445 0.787669
vt 0.581871 0.860294
vt 0.612010 0.905265
vt 0.125252 0.501817
vt 0.186902 0.501817
vt 0.186902 0.744281
vt 0.125252 0.744281
vt 0.248551 0.501817
vt 0.248551 0.744281
vt 0.666609 0.916401
vt 0.711799 0.886320
vt 0.694675 0.782803
vt 0.697976 0.777719
vt 0.063603 0.501817
vt 0.063603 0.744281
vt 0.602608 0.814790
vt 0.598019 0.811727
vt 0.639988 0.789629
vt 0.592254 0.807905
vt 0.641149 0.795086
vt 0.607213 0.817814
vt 0.722022 0.833305
vt 0.619061 0.894562
vt 0.615915 0.899401
vt 0.588618 0.858968
vt 0.594043 0.857906
vt 0.701466 0.879486
vt 0.706041 0.882519
vt 0.665296 0.909466
vt 0.664231 0.903895
vt 0.684425 0.798269
vt 0.715204 0.834694
vt 0.709684 0.835861
vt 0.681227 0.803114
vt 0.599435 0.856891
vt 0.622123 0.889732
vt 0.663198 0.898415
vt 0.696941 0.876438
vt 0.704000 0.837048
vt 0.001953 0.501817
vt 0.001953 0.744281
s 1
usemtl Material.002
f 8/1/1 44/1/2 40/1/3 4/1/4
f 4/1/4 41/1/5 37/1/6 8/1/1
f 37/1/6 41/1/5 3/1/7 7/1/8
f 3/1/7 42/1/9 38/1/10 7/1/8
f 38/1/10 42/1/9 2/1/11 6/1/12
f 2/1/11 43/1/13 39/1/14 6/1/12
f 44/1/2 5/1/15 1/1/16 40/1/3
f 10/1/17 45/1/18 49/1/19 14/1/20
f 11/1/21 46/1/22 50/1/23 15/1/24
f 45/1/18 9/1/25 13/1/26 49/1/19
f 12/1/27 47/1/28 51/1/29 16/1/30
f 46/1/22 10/1/17 14/1/20 50/1/23
f 9/1/25 48/1/31 52/1/32 13/1/26
f 47/1/28 11/1/21 15/1/24 51/1/29
f 48/1/31 12/1/27 16/1/30 52/1/32
f 21/1/33 60/1/34 54/1/35 19/1/36
f 58/1/37 22/1/38 20/1/39 56/1/40
f 60/1/34 24/1/41 18/1/42 54/1/35
f 59/1/43 23/1/44 17/1/45 53/1/46
f 57/1/47 21/1/33 19/1/36 55/1/48
f 24/1/41 59/1/43 53/1/46 18/1/42
f 22/1/38 57/1/47 55/1/48 20/1/39
f 23/1/44 58/1/37 56/1/40 17/1/45
f 29/1/49 65/1/50 61/1/51 25/1/52
f 65/1/50 30/1/7 26/1/53 61/1/51
f 30/1/7 66/1/9 62/1/54 26/1/53
f 66/1/9 31/1/55 27/1/56 62/1/54
f 31/1/55 67/1/13 63/1/57 27/1/56
f 67/1/13 32/1/58 28/1/59 63/1/57
f 32/1/58 68/1/3 64/1/60 28/1/59
f 68/1/3 29/1/49 25/1/52 64/1/60
f 39/1/14 43/1/13 1/1/16 5/1/15
f 34/1/61 70/1/62 93/1/63 94/1/64
f 70/1/62 35/1/65 90/1/66 93/1/63
f 35/1/65 71/1/67 87/1/68 90/1/66
f 71/1/67 36/1/69 84/1/70 87/1/68
f 36/1/69 72/1/71 81/1/72 84/1/70
f 72/1/71 33/1/73 78/1/74 81/1/72
f 33/1/73 69/1/75 75/1/76 78/1/74
f 69/1/75 34/1/61 94/1/64 75/1/76
f 78/1/74 75/1/76 74/1/77 77/1/78
f 77/1/78 74/1/77 73/1/79 76/1/80
f 76/1/80 73/1/79 53/1/46 17/1/45
f 81/1/72 78/1/74 77/1/78 80/1/81
f 80/1/81 77/1/78 76/1/80 79/1/82
f 79/1/82 76/1/80 17/1/45 56/1/40
f 84/1/70 81/1/72 80/1/81 83/1/83
f 83/1/83 80/1/81 79/1/82 82/1/84
f 82/1/84 79/1/82 56/1/40 20/1/39
f 87/1/68 84/1/70 83/1/83 86/1/85
f 86/1/85 83/1/83 82/1/84 85/1/86
f 85/1/86 82/1/84 20/1/39 55/1/48
f 90/1/66 87/1/68 86/1/85 89/1/87
f 89/1/87 86/1/85 85/1/86 88/1/88
f 88/1/88 85/1/86 55/1/48 19/1/36
f 93/1/63 90/1/66 89/1/87 92/1/89
f 92/1/89 89/1/87 88/1/88 91/1/90
f 91/1/90 88/1/88 19/1/36 54/1/35
f 94/1/64 93/1/63 92/1/89 95/1/91
f 95/1/91 92/1/89 91/1/90 96/1/92
f 96/1/92 91/1/90 54/1/35 18/1/42
f 75/1/76 94/1/64 95/1/91 74/1/77
f 74/1/77 95/1/91 96/1/92 73/1/79
f 73/1/79 96/1/92 18/1/42 53/1/46
f 69/1/75 33/1/73 102/1/93 97/1/94
f 33/1/73 72/1/71 105/1/95 102/1/93
f 72/1/71 36/1/69 108/1/96 105/1/95
f 36/1/69 71/1/67 111/1/97 108/1/96
f 71/1/67 35/1/65 114/1/98 111/1/97
f 35/1/65 70/1/62 117/1/99 114/1/98
f 70/1/62 34/1/61 120/1/100 117/1/99
f 34/1/61 69/1/75 97/1/94 120/1/100
f 97/1/94 102/1/93 101/1/101 98/1/102
f 98/1/102 101/1/101 100/1/103 99/1/104
f 99/1/104 100/1/103 25/1/52 61/1/51
f 102/1/93 105/1/95 104/1/105 101/1/101
f 101/1/101 104/1/105 103/1/106 100/1/103
f 100/1/103 103/1/106 64/1/60 25/1/52
f 105/1/95 108/1/96 107/1/107 104/1/105
f 104/1/105 107/1/107 106/1/108 103/1/106
f 103/1/106 106/1/108 28/1/59 64/1/60
f 108/1/96 111/1/97 110/1/109 107/1/107
f 107/1/107 110/1/109 109/1/110 106/1/108
f 106/1/108 109/1/110 63/1/57 28/1/59
f 111/1/97 114/1/98 113/1/111 110/1/109
f 110/1/109 113/1/111 112/1/112 109/1/110
f 109/1/110 112/1/112 27/1/56 63/1/57
f 114/1/98 117/1/99 116/1/113 113/1/111
f 113/1/111 116/1/113 115/1/114 112/1/112
f 112/1/112 115/1/114 62/1/54 27/1/56
f 117/1/99 120/1/100 119/1/115 116/1/113
f 116/1/113 119/1/115 118/1/116 115/1/114
f 115/1/114 118/1/116 26/1/53 62/1/54
f 120/1/100 97/1/94 98/1/102 119/1/115
f 119/1/115 98/1/102 99/1/104 118/1/116
f 118/1/116 99/1/104 61/1/51 26/1/53
f 22/1/38 58/1/37 141/1/117 142/1/118
f 58/1/37 23/1/44 138/1/119 141/1/117
f 23/1/44 59/1/43 135/1/120 138/1/119
f 59/1/43 24/1/41 132/1/121 135/1/120
f 24/1/41 60/1/34 129/1/122 132/1/121
f 60/1/34 21/1/33 126/1/123 129/1/122
f 21/1/33 57/1/47 123/1/124 126/1/123
f 57/1/47 22/1/38 142/1/118 123/1/124
f 126/1/123 123/1/124 122/1/125 125/1/126
f 125/1/126 122/1/125 121/1/127 124/1/128
f 124/1/128 121/1/127 49/1/19 13/1/26
f 129/1/122 126/1/123 125/1/126 128/1/129
f 128/1/129 125/1/126 124/1/128 127/1/130
f 127/1/130 124/1/128 13/1/26 52/1/32
f 132/1/121 129/1/122 128/1/129 131/1/131
f 131/1/131 128/1/129 127/1/130 130/1/132
f 130/1/132 127/1/130 52/1/32 16/1/30
f 135/1/120 132/1/121 131/1/131 134/1/133
f 134/1/133 131/1/131 130/1/132 133/1/134
f 133/1/134 130/1/132 16/1/30 51/1/29
f 138/1/119 135/1/120 134/1/133 137/1/135
f 137/1/135 134/1/133 133/1/134 136/1/136
f 136/1/136 133/1/134 51/1/29 15/1/24
f 141/1/117 138/1/119 137/1/135 140/1/137
f 140/1/137 137/1/135 136/1/136 139/1/138
f 139/1/138 136/1/136 15/1/24 50/1/23
f 142/1/118 141/1/117 140/1/137 143/1/139
f 143/1/139 140/1/137 139/1/138 144/1/140
f 144/1/140 139/1/138 50/1/23 14/1/20
f 123/1/124 142/1/118 143/1/139 122/1/125
f 122/1/125 143/1/139 144/1/140 121/1/127
f 121/1/127 144/1/140 14/1/20 49/1/19
f 12/1/27 48/1/31 165/1/141 166/1/142
f 48/1/31 9/1/25 162/1/143 165/1/141
f 9/1/25 45/1/18 159/1/144 162/1/143
f 45/1/18 10/1/17 156/1/145 159/1/144
f 10/1/17 46/1/22 153/1/146 156/1/145
f 46/1/22 11/1/21 150/1/147 153/1/146
f 11/1/21 47/1/28 147/1/148 150/1/147
f 47/1/28 12/1/27 166/1/142 147/1/148
f 150/1/147 147/1/148 146/1/149 149/1/150
f 149/1/150 146/1/149 145/1/151 148/1/152
f 148/1/152 145/1/151 37/1/6 7/1/8
f 153/1/146 150/1/147 149/1/150 152/1/153
f 152/1/153 149/1/150 148/1/152 151/1/154
f 151/1/154 148/1/152 7/1/8 38/1/10
f 156/1/145 153/1/146 152/1/153 155/1/155
f 155/1/155 152/1/153 151/1/154 154/1/156
f 154/1/156 151/1/154 38/1/10 6/1/12
f 159/1/144 156/1/145 155/1/155 158/1/157
f 158/1/157 155/1/155 154/1/156 157/1/158
f 157/1/158 154/1/156 6/1/12 39/1/14
f 162/1/143 159/1/144 158/1/157 161/1/159
f 161/1/159 158/1/157 157/1/158 160/1/160
f 160/1/160 157/1/158 39/1/14 5/1/15
f 165/1/141 162/1/143 161/1/159 164/1/161
f 164/1/161 161/1/159 160/1/160 163/1/162
f 163/1/162 160/1/160 5/1/15 44/1/2
f 166/1/142 165/1/141 164/1/161 167/1/163
f 167/1/163 164/1/161 163/1/162 168/1/164
f 168/1/164 163/1/162 44/1/2 8/1/1
f 147/1/148 166/1/142 167/1/163 146/1/149
f 146/1/149 167/1/163 168/1/164 145/1/151
f 145/1/151 168/1/164 8/1/1 37/1/6
f 191/2/165 173/3/166 172/4/167 171/5/168
f 199/6/169 174/7/170 172/4/167 173/3/166
f 175/8/171 170/9/172 172/10/167 174/11/170
f 180/12/173 179/13/174 177/14/175 178/15/176
f 186/16/177 185/17/178 183/18/179 184/19/180
f 181/20/181 176/21/182 177/22/175 179/23/174
f 214/24/183 193/25/184 192/26/185 216/27/186
f 198/28/187 204/29/188 178/15/176 199/6/169
f 176/21/182 175/8/171 174/11/170 177/22/175
f 188/30/189 187/31/190 185/32/178 189/33/191
f 187/31/190 182/34/192 183/35/179 185/32/178
f 205/36/193 210/37/194 184/19/180 180/12/173
f 190/38/195 191/2/165 171/5/168 189/39/191
f 216/27/186 192/26/185 191/2/165 190/38/195
f 169/40/196 188/30/189 189/33/191 171/41/168
f 196/42/197 195/43/198 193/25/184 194/44/199
f 182/34/192 181/20/181 179/23/174 183/35/179
f 192/26/185 197/45/200 173/3/166 191/2/165
f 197/45/200 198/28/187 199/6/169 173/3/166
f 193/25/184 195/43/198 197/45/200 192/26/185
f 218/46/201 219/47/202 196/42/197 194/44/199
f 211/48/203 216/27/186 190/38/195 186/16/177
f 203/49/204 202/50/205 200/51/206 201/52/207
f 195/43/198 200/51/206 198/28/187 197/45/200
f 199/6/169 178/15/176 177/14/175 174/7/170
f 204/29/188 205/36/193 180/12/173 178/15/176
f 200/51/206 202/50/205 204/29/188 198/28/187
f 196/42/197 201/52/207 200/51/206 195/43/198
f 209/53/208 208/54/209 206/55/210 207/56/211
f 202/50/205 206/55/210 205/36/193 204/29/188
f 180/12/173 184/19/180 183/18/179 179/13/174
f 210/37/194 211/48/203 186/16/177 184/19/180
f 206/55/210 208/54/209 210/37/194 205/36/193
f 203/49/204 207/56/211 206/55/210 202/50/205
f 215/57/212 214/24/183 212/58/213 213/59/214
f 208/54/209 212/58/213 211/48/203 210/37/194
f 186/16/177 190/38/195 189/39/191 185/17/178
f 217/60/215 218/46/201 194/44/199 215/57/212
f 212/58/213 214/24/183 216/27/186 211/48/203
f 209/53/208 213/59/214 212/58/213 208/54/209
f 215/57/212 194/44/199 193/25/184 214/24/183
f 219/47/202 220/61/216 201/52/207 196/42/197
f 220/61/216 221/62/217 203/49/204 201/52/207
f 221/62/217 222/63/218 207/56/211 203/49/204
f 222/63/218 223/64/219 209/53/208 207/56/211
f 223/64/219 224/65/220 213/59/214 209/53/208
f 224/65/220 217/60/215 215/57/212 213/59/214
f 170/66/172 169/40/196 171/41/168 172/67/167
f 247/2/165 229/3/166 228/4/167 227/5/168
f 255/6/169 230/7/170 228/4/167 229/3/166
f 231/8/171 226/9/172 228/10/167 230/11/170
f 236/12/173 235/13/174 233/14/175 234/15/176
f 242/16/177 241/17/178 239/18/179 240/19/180
f 237/20/181 232/21/182 233/22/175 235/23/174
f 270/24/183 249/25/184 248/26/185 272/27/186
f 254/28/187 260/29/188 234/15/176 255/6/169
f 232/21/182 231/8/171 230/11/170 233/22/175
f 244/30/189 243/31/190 241/32/178 245/33/191
f 243/31/190 238/34/192 239/35/179 241/32/178
f 261/36/193 266/37/194 240/19/180 236/12/173
f 246/38/195 247/2/165 227/5/168 245/39/191
f 272/27/186 248/26/185 247/2/165 246/38/195
f 225/40/196 244/30/189 245/33/191 227/41/168
f 252/42/197 251/43/198 249/25/184 250/44/199
f 238/34/192 237/20/181 235/23/174 239/35/179
f 248/26/185 253/45/200 229/3/166 247/2/165
f 253/45/200 254/28/187 255/6/169 229/3/166
f 249/25/184 251/43/198 253/45/200 248/26/185
f 274/46/201 275/47/202 252/42/197 250/44/199
f 267/48/203 272/27/186 246/38/195 242/16/177
f 259/49/204 258/50/205 256/51/206 257/52/207
f 251/43/198 256/51/206 254/28/187 253/45/200
f 255/6/169 234/15/176 233/14/175 230/7/170
f 260/29/188 261/36/193 236/12/173 234/15/176
f 256/51/206 258/50/205 260/29/188 254/28/187
f 252/42/197 257/52/207 256/51/206 251/43/198
f 265/53/208 264/54/209 262/55/210 263/56/211
f 258/50/205 262/55/210 261/36/193 260/29/188
f 236/12/173 240/19/180 239/18/179 235/13/174
f 266/37/194 267/48/203 242/16/177 240/19/180
f 262/55/210 264/54/209 266/37/194 261/36/193
f 259/49/204 263/56/211 262/55/210 258/50/205
f 271/57/212 270/24/183 268/58/213 269/59/214
f 264/54/209 268/58/213 267/48/203 266/37/194
f 242/16/177 246/38/195 245/39/191 241/17/178
f 273/60/215 274/46/201 250/44/199 271/57/212
f 268/58/213 270/24/183 272/27/186 267/48/203
f 265/53/208 269/59/214 268/58/213 264/54/209
f 271/57/212 250/44/199 249/25/184 270/24/183
f 275/47/202 276/61/216 257/52/207 252/42/197
f 276/61/216 277/62/217 259/49/204 257/52/207
f 277/62/217 278/63/218 263/56/211 259/49/204
f 278/63/218 279/64/219 265/53/208 263/56/211
f 279/64/219 280/65/220 269/59/214 265/53/208
f 280/65/220 273/60/215 271/57/212 269/59/214
f 226/66/172 225/40/196 227/41/168 228/67/167
f 280/65/221 279/64/222 66/1/9 30/1/7
f 279/64/222 278/63/223 31/1/55 66/1/9
f 278/63/223 277/62/224 67/1/13 31/1/55
f 277/62/224 276/61/225 32/1/58 67/1/13
f 276/61/225 275/47/226 68/1/3 32/1/58
f 275/47/226 274/46/227 29/1/49 68/1/3
f 274/46/227 273/60/228 65/1/50 29/1/49
f 273/60/228 280/65/221 30/1/7 65/1/50
f 219/47/226 218/46/227 4/1/4 40/1/3
f 218/46/227 217/60/228 41/1/5 4/1/4
f 217/60/228 224/65/221 3/1/7 41/1/5
f 224/65/221 223/64/222 42/1/9 3/1/7
f 223/64/222 222/63/223 2/1/11 42/1/9
f 222/63/223 221/62/224 43/1/13 2/1/11
f 221/62/224 220/61/225 1/1/16 43/1/13
f 220/61/225 219/47/226 40/1/3 1/1/16
